M48
; DRILL file {KiCad 6.0.6-3a73a75311~116~ubuntu20.04.1} date 2023年06月17日 17時32分19秒
; FORMAT={-:-/ absolute / inch / decimal}
; #@! TF.CreationDate,2023-06-17T17:32:19+09:00
; #@! TF.GenerationSoftware,Kicad,Pcbnew,6.0.6-3a73a75311~116~ubuntu20.04.1
; #@! TF.FileFunction,Plated,1,2,PTH
FMAT,2
INCH
; #@! TA.AperFunction,Plated,PTH,ViaDrill
T1C0.0118
; #@! TA.AperFunction,Plated,PTH,ViaDrill
T2C0.0157
; #@! TA.AperFunction,Plated,PTH,ComponentDrill
T3C0.0300
; #@! TA.AperFunction,Plated,PTH,ComponentDrill
T4C0.0315
; #@! TA.AperFunction,Plated,PTH,ComponentDrill
T5C0.0354
; #@! TA.AperFunction,Plated,PTH,ComponentDrill
T6C0.0394
%
G90
G05
T1
X0.4134Y1.2598
X0.4134Y1.0433
X0.4134Y0.9252
X0.4134Y0.8071
X0.4134Y0.689
X0.4134Y0.5709
X0.5118Y1.2598
X0.5134Y1.0433
X0.5134Y0.9252
X0.5134Y0.8071
X0.5134Y0.689
X0.5134Y0.5709
X0.6102Y1.2598
X0.6134Y1.0433
X0.6134Y0.9252
X0.6134Y0.8071
X0.6134Y0.689
X0.6134Y0.5709
X0.7087Y1.4173
X0.7087Y1.3189
X0.7134Y1.0433
X0.7134Y0.9252
X0.7134Y0.8071
X0.7134Y0.689
X0.7134Y0.5709
X0.7874Y1.3189
X0.8134Y1.0433
X0.8134Y0.9252
X0.8134Y0.8071
X0.8134Y0.689
X0.8134Y0.5709
X0.9055Y1.3189
X0.9134Y1.0433
X0.9134Y0.9252
X0.9134Y0.8071
X0.9134Y0.689
X0.9134Y0.5709
X0.9646Y0.1969
X0.9646Y0.1181
X0.9646Y0.0394
X1.0134Y0.9252
X1.0134Y0.8071
X1.0134Y0.689
X1.0134Y0.5709
X1.0236Y1.378
X1.0236Y1.3189
X1.0433Y1.1024
X1.0433Y0.3937
X1.1134Y0.8071
X1.1134Y0.689
X1.1134Y0.5709
X1.122Y0.0394
X1.1417Y1.378
X1.1417Y1.3189
X1.1614Y1.1024
X1.1614Y0.9843
X1.2134Y0.8071
X1.2134Y0.689
X1.2134Y0.5709
X1.2598Y1.3189
X1.2795Y1.1024
X1.2795Y0.9843
X1.2795Y0.0394
X1.2992Y1.4961
X1.3134Y0.8071
X1.3134Y0.689
X1.3134Y0.5709
X1.4134Y0.689
X1.4134Y0.5709
X1.4173Y1.4961
X1.4173Y1.437
X1.437Y0.0394
X1.4961Y0.8071
X1.5134Y0.5709
X1.5157Y1.1024
X1.5157Y0.9843
X1.5354Y1.4961
X1.5354Y1.437
X1.5354Y1.3189
X1.5354Y0.3937
X1.5945Y0.0394
X1.6142Y0.8071
X1.6142Y0.689
X1.6339Y1.1024
X1.6339Y0.9843
X1.7126Y1.4961
X1.7126Y1.437
X1.7323Y0.8071
X1.7323Y0.689
X1.752Y1.1024
X1.752Y0.9843
X1.752Y0.1181
X1.752Y0.0394
X1.8307Y1.4961
X1.8504Y0.5709
X1.8701Y1.1024
X1.9094Y0.0394
X1.9291Y0.9055
X1.9291Y0.8661
X1.9291Y0.8268
X1.9291Y0.7874
X1.939Y0.748
X1.939Y0.6988
X1.939Y0.6496
X1.9685Y0.9055
X1.9685Y0.8661
X1.9685Y0.8268
X1.9685Y0.7874
X1.9685Y0.5709
X1.9685Y0.3937
X1.9882Y1.1024
X1.9882Y0.9843
X2.0079Y0.9055
X2.0079Y0.8661
X2.0079Y0.8268
X2.0669Y0.0394
X2.1063Y1.1024
X2.2047Y0.7874
X2.2047Y0.1969
X2.2047Y0.1181
X2.2047Y0.0394
X2.2244Y1.1024
X2.2244Y0.8661
X2.2244Y0.5906
X2.2638Y1.1417
X2.2638Y0.9449
X2.2835Y0.3937
X2.3228Y1.811
X2.3228Y1.7323
X2.3228Y1.6535
X2.3228Y0.8465
X2.3228Y0.2362
X2.4409Y1.5748
X2.4409Y1.4961
X2.4409Y1.4173
X2.4409Y1.3386
X2.4409Y1.2598
X2.4606Y1.811
X2.4606Y1.6535
X2.4803Y1.063
X2.4803Y0.8268
X2.4803Y0.5906
X2.4803Y0.3543
X2.4803Y0.2362
X2.5Y1.5748
X2.5Y1.4961
X2.5Y1.4173
X2.5Y1.3386
X2.5Y1.2598
X2.5591Y1.5748
X2.5591Y1.4961
X2.5591Y1.4173
X2.5591Y1.3386
X2.5591Y1.2598
X2.5787Y1.063
X2.5787Y0.8268
X2.5787Y0.5906
X2.5787Y0.3543
X2.5984Y1.811
X2.5984Y1.6535
X2.6378Y0.2362
X2.7165Y1.6142
X2.7165Y1.4567
X2.7165Y1.2992
X2.7992Y1.6142
X2.7992Y1.4567
X2.7992Y1.2992
X2.7992Y1.1417
X2.7992Y0.9843
X2.7992Y0.8268
X2.7992Y0.6693
X2.7992Y0.5118
X2.7992Y0.3543
X2.7992Y0.2362
X3.3071Y0.0787
T2
X1.437Y1.0039
T3
X0.2705Y1.1768
X0.2705Y0.4768
X0.3705Y1.1768
X0.3705Y0.4768
X0.4705Y1.1768
X0.4705Y0.4768
X0.5705Y1.1768
X0.5705Y0.4768
X0.6705Y1.1768
X0.6705Y0.4768
X0.7705Y1.1768
X0.7705Y0.4768
X0.8705Y1.1768
X0.8705Y0.4768
X0.9705Y1.1768
X0.9705Y0.4768
X1.0705Y1.1768
X1.0705Y0.4768
X1.1705Y1.1768
X1.1705Y0.4768
X1.2705Y1.1768
X1.2705Y0.4768
X1.278Y1.7323
X1.3705Y1.1768
X1.3705Y0.4768
X1.378Y1.7323
X1.4705Y1.1768
X1.4705Y0.4768
X1.478Y1.7323
X1.5705Y1.1768
X1.5705Y0.4768
X1.6705Y1.1768
X1.6705Y0.4768
X1.7705Y1.1768
X1.7705Y0.4768
X1.8705Y1.1768
X1.8705Y0.4768
X1.9705Y1.1768
X1.9705Y0.4768
X2.0705Y1.1768
X2.0705Y0.4768
X2.1705Y1.1768
X2.1705Y0.4768
T4
X0.0787Y1.3189
X0.1575Y1.3189
X0.374Y1.7323
X0.4528Y1.7323
X2.3496Y1.5874
X2.3496Y1.4874
X2.3496Y1.3874
X2.3496Y1.2874
X2.6496Y1.5874
X2.6496Y1.4874
X2.6496Y1.3874
X2.6496Y1.2874
T5
X1.6339Y1.4872
X1.6339Y1.3872
T6
X0.4921Y0.2778
X0.4921Y0.1778
X0.4921Y0.0778
X0.6693Y0.2783
X0.6693Y0.1783
X0.6693Y0.0783
X0.8465Y0.2778
X0.8465Y0.1778
X0.8465Y0.0778
X0.8858Y1.5354
X0.8858Y1.437
X1.122Y0.1181
X1.2205Y0.1181
X1.5453Y0.1171
X1.6437Y0.1171
X1.7028Y1.7333
X1.8012Y1.7333
X1.9783Y0.1161
X2.0571Y1.7333
X2.0768Y0.1161
X2.1555Y1.7333
X2.3772Y1.1417
X2.3819Y0.9055
X2.3819Y0.6693
X2.3819Y0.4331
X2.4772Y1.1417
X2.4819Y0.9055
X2.4819Y0.6693
X2.4819Y0.4331
X2.5772Y1.1417
X2.5819Y0.9055
X2.5819Y0.6693
X2.5819Y0.4331
X2.6772Y1.1417
X2.6819Y0.9055
X2.6819Y0.6693
X2.6819Y0.4331
T0
M30
