%TF.GenerationSoftware,KiCad,Pcbnew,6.0.6-3a73a75311~116~ubuntu20.04.1*%
%TF.CreationDate,2023-08-16T22:08:07+09:00*%
%TF.ProjectId,catchrobo2023,63617463-6872-46f6-926f-323032332e6b,rev?*%
%TF.SameCoordinates,Original*%
%TF.FileFunction,Copper,L2,Bot*%
%TF.FilePolarity,Positive*%
%FSLAX46Y46*%
G04 Gerber Fmt 4.6, Leading zero omitted, Abs format (unit mm)*
G04 Created by KiCad (PCBNEW 6.0.6-3a73a75311~116~ubuntu20.04.1) date 2023-08-16 22:08:07*
%MOMM*%
%LPD*%
G01*
G04 APERTURE LIST*
G04 Aperture macros list*
%AMRoundRect*
0 Rectangle with rounded corners*
0 $1 Rounding radius*
0 $2 $3 $4 $5 $6 $7 $8 $9 X,Y pos of 4 corners*
0 Add a 4 corners polygon primitive as box body*
4,1,4,$2,$3,$4,$5,$6,$7,$8,$9,$2,$3,0*
0 Add four circle primitives for the rounded corners*
1,1,$1+$1,$2,$3*
1,1,$1+$1,$4,$5*
1,1,$1+$1,$6,$7*
1,1,$1+$1,$8,$9*
0 Add four rect primitives between the rounded corners*
20,1,$1+$1,$2,$3,$4,$5,0*
20,1,$1+$1,$4,$5,$6,$7,0*
20,1,$1+$1,$6,$7,$8,$9,0*
20,1,$1+$1,$8,$9,$2,$3,0*%
G04 Aperture macros list end*
%TA.AperFunction,ComponentPad*%
%ADD10RoundRect,0.250000X0.600000X0.750000X-0.600000X0.750000X-0.600000X-0.750000X0.600000X-0.750000X0*%
%TD*%
%TA.AperFunction,ComponentPad*%
%ADD11O,1.700000X2.000000*%
%TD*%
%TA.AperFunction,ComponentPad*%
%ADD12R,1.700000X1.700000*%
%TD*%
%TA.AperFunction,ComponentPad*%
%ADD13O,1.700000X1.700000*%
%TD*%
%TA.AperFunction,ComponentPad*%
%ADD14RoundRect,0.250000X-0.600000X-0.725000X0.600000X-0.725000X0.600000X0.725000X-0.600000X0.725000X0*%
%TD*%
%TA.AperFunction,ComponentPad*%
%ADD15O,1.700000X1.950000*%
%TD*%
%TA.AperFunction,ComponentPad*%
%ADD16C,1.600000*%
%TD*%
%TA.AperFunction,ComponentPad*%
%ADD17C,1.524000*%
%TD*%
%TA.AperFunction,ComponentPad*%
%ADD18C,2.000000*%
%TD*%
%TA.AperFunction,ViaPad*%
%ADD19C,0.600000*%
%TD*%
%TA.AperFunction,Conductor*%
%ADD20C,0.250000*%
%TD*%
G04 APERTURE END LIST*
D10*
%TO.P,J4,1,Pin_1*%
%TO.N,+BATT*%
X45050000Y43050000D03*
D11*
%TO.P,J4,2,Pin_2*%
%TO.N,GND*%
X42550000Y43050000D03*
%TD*%
D10*
%TO.P,J1,1,Pin_1*%
%TO.N,Net-(D1-Pad2)*%
X29250000Y43050000D03*
D11*
%TO.P,J1,2,Pin_2*%
%TO.N,GND*%
X26750000Y43050000D03*
%TD*%
D12*
%TO.P,J6,1,Pin_1*%
%TO.N,GND*%
X10000000Y2475000D03*
D13*
%TO.P,J6,2,Pin_2*%
%TO.N,+5V*%
X10000000Y5015000D03*
%TO.P,J6,3,Pin_3*%
%TO.N,/Servo1*%
X10000000Y7555000D03*
%TD*%
D14*
%TO.P,J5,1,Pin_1*%
%TO.N,+5V*%
X22250000Y7950000D03*
D15*
%TO.P,J5,2,Pin_2*%
%TO.N,GND*%
X24750000Y7950000D03*
%TO.P,J5,3,Pin_3*%
%TO.N,/STEP1*%
X27250000Y7950000D03*
%TO.P,J5,4,Pin_4*%
%TO.N,/DIR1*%
X29750000Y7950000D03*
%TO.P,J5,5,Pin_5*%
%TO.N,/STEP2*%
X32250000Y7950000D03*
%TO.P,J5,6,Pin_6*%
%TO.N,/DIR2*%
X34750000Y7950000D03*
%TD*%
D16*
%TO.P,C1,1*%
%TO.N,+7.5V*%
X12000000Y44000000D03*
%TO.P,C1,2*%
%TO.N,GND*%
X10000000Y44000000D03*
%TD*%
D12*
%TO.P,J7,1,Pin_1*%
%TO.N,GND*%
X13500000Y2475000D03*
D13*
%TO.P,J7,2,Pin_2*%
%TO.N,+5V*%
X13500000Y5015000D03*
%TO.P,J7,3,Pin_3*%
%TO.N,/Servo2*%
X13500000Y7555000D03*
%TD*%
D17*
%TO.P,U1,1,GP0*%
%TO.N,/Servo1*%
X6870000Y13610000D03*
%TO.P,U1,2,GP1*%
%TO.N,/Servo2*%
X9410000Y13610000D03*
%TO.P,U1,3,GND*%
%TO.N,GND*%
X11950000Y13610000D03*
%TO.P,U1,4,GP2*%
%TO.N,/Servo3*%
X14490000Y13610000D03*
%TO.P,U1,5,GP3*%
%TO.N,/Speaker*%
X17030000Y13610000D03*
%TO.P,U1,6,GP4*%
%TO.N,unconnected-(U1-Pad6)*%
X19570000Y13610000D03*
%TO.P,U1,7,GP5*%
%TO.N,unconnected-(U1-Pad7)*%
X22110000Y13610000D03*
%TO.P,U1,8,GND*%
%TO.N,GND*%
X24650000Y13610000D03*
%TO.P,U1,9,GP6*%
%TO.N,/STEP1*%
X27190000Y13610000D03*
%TO.P,U1,10,GP7*%
%TO.N,/DIR1*%
X29730000Y13610000D03*
%TO.P,U1,11,GP8*%
%TO.N,unconnected-(U1-Pad11)*%
X32270000Y13610000D03*
%TO.P,U1,12,GP9*%
%TO.N,unconnected-(U1-Pad12)*%
X34810000Y13610000D03*
%TO.P,U1,13,GND*%
%TO.N,GND*%
X37350000Y13610000D03*
%TO.P,U1,14,GP10*%
%TO.N,/STEP2*%
X39890000Y13610000D03*
%TO.P,U1,15,GP11*%
%TO.N,/DIR2*%
X42430000Y13610000D03*
%TO.P,U1,16,GP12*%
%TO.N,unconnected-(U1-Pad16)*%
X44970000Y13610000D03*
%TO.P,U1,17,GP13*%
%TO.N,unconnected-(U1-Pad17)*%
X47510000Y13610000D03*
%TO.P,U1,18,GND*%
%TO.N,GND*%
X50050000Y13610000D03*
%TO.P,U1,19,GP14*%
%TO.N,unconnected-(U1-Pad19)*%
X52590000Y13610000D03*
%TO.P,U1,20,GP15*%
%TO.N,unconnected-(U1-Pad20)*%
X55130000Y13610000D03*
%TO.P,U1,21,GP16*%
%TO.N,unconnected-(U1-Pad21)*%
X55130000Y31390000D03*
%TO.P,U1,22,GP17*%
%TO.N,unconnected-(U1-Pad22)*%
X52590000Y31390000D03*
%TO.P,U1,23,GND*%
%TO.N,GND*%
X50050000Y31390000D03*
%TO.P,U1,24,GP18*%
%TO.N,/SW0*%
X47510000Y31390000D03*
%TO.P,U1,25,GP19*%
%TO.N,/SW1*%
X44970000Y31390000D03*
%TO.P,U1,26,GP20*%
%TO.N,/SW2*%
X42430000Y31390000D03*
%TO.P,U1,27,GP21*%
%TO.N,/SW3*%
X39890000Y31390000D03*
%TO.P,U1,28,GND*%
%TO.N,GND*%
X37350000Y31390000D03*
%TO.P,U1,29,GP22*%
%TO.N,unconnected-(U1-Pad29)*%
X34810000Y31390000D03*
%TO.P,U1,30,RUN*%
%TO.N,Net-(C3-Pad1)*%
X32270000Y31390000D03*
%TO.P,U1,31,GP26*%
%TO.N,/JoyX*%
X29730000Y31390000D03*
%TO.P,U1,32,GP27*%
%TO.N,/JoyY*%
X27190000Y31390000D03*
%TO.P,U1,33,GND*%
%TO.N,GND*%
X24650000Y31390000D03*
%TO.P,U1,34,GP28*%
%TO.N,unconnected-(U1-Pad34)*%
X22110000Y31390000D03*
%TO.P,U1,35,ADC_VREF*%
%TO.N,unconnected-(U1-Pad35)*%
X19570000Y31390000D03*
%TO.P,U1,36,3V3*%
%TO.N,+3.3V*%
X17030000Y31390000D03*
%TO.P,U1,37,3V3_EN*%
%TO.N,unconnected-(U1-Pad37)*%
X14490000Y31390000D03*
%TO.P,U1,38,GND*%
%TO.N,GND*%
X11950000Y31390000D03*
%TO.P,U1,39,VSYS*%
%TO.N,unconnected-(U1-Pad39)*%
X9410000Y31390000D03*
%TO.P,U1,40,VBUS*%
%TO.N,+5V*%
X6870000Y31390000D03*
%TD*%
D14*
%TO.P,J2,1,Pin_1*%
%TO.N,/SW0*%
X42500000Y6500000D03*
D15*
%TO.P,J2,2,Pin_2*%
%TO.N,/SW1*%
X45000000Y6500000D03*
%TO.P,J2,3,Pin_3*%
%TO.N,/SW2*%
X47500000Y6500000D03*
%TO.P,J2,4,Pin_4*%
%TO.N,/SW3*%
X50000000Y6500000D03*
%TO.P,J2,5,Pin_5*%
%TO.N,/Stopper*%
X52500000Y6500000D03*
%TO.P,J2,6,Pin_6*%
%TO.N,/JoyX*%
X55000000Y6500000D03*
%TO.P,J2,7,Pin_7*%
%TO.N,/JoyY*%
X57500000Y6500000D03*
%TO.P,J2,8,Pin_8*%
%TO.N,+5V*%
X60000000Y6500000D03*
%TO.P,J2,9,Pin_9*%
%TO.N,GND*%
X62500000Y6500000D03*
%TD*%
D10*
%TO.P,J3,1,Pin_1*%
%TO.N,+BATT*%
X54500000Y43050000D03*
D11*
%TO.P,J3,2,Pin_2*%
%TO.N,GND*%
X52000000Y43050000D03*
%TD*%
D16*
%TO.P,C2,1*%
%TO.N,+5V*%
X4000000Y37500000D03*
%TO.P,C2,2*%
%TO.N,GND*%
X2000000Y37500000D03*
%TD*%
D12*
%TO.P,J8,1,Pin_1*%
%TO.N,GND*%
X17000000Y2475000D03*
D13*
%TO.P,J8,2,Pin_2*%
%TO.N,+5V*%
X17000000Y5015000D03*
%TO.P,J8,3,Pin_3*%
%TO.N,/Servo3*%
X17000000Y7555000D03*
%TD*%
D18*
%TO.P,SW2,1,1*%
%TO.N,Net-(C3-Pad1)*%
X63500000Y37750000D03*
%TO.P,SW2,2,2*%
%TO.N,GND*%
X63500000Y44250000D03*
%TD*%
D19*
%TO.N,GND*%
X29500000Y1500000D03*
X11000000Y15500000D03*
X62500000Y23000000D03*
X22500000Y33500000D03*
X71000000Y27000000D03*
X59000000Y34000000D03*
X36500000Y1500000D03*
X71000000Y41000000D03*
X64500000Y1500000D03*
X55500000Y16000000D03*
X71000000Y34000000D03*
X22500000Y1500000D03*
X15500000Y33500000D03*
X29500000Y5500000D03*
X11000000Y29500000D03*
X29500000Y33500000D03*
X39000000Y22500000D03*
X45000000Y35000000D03*
X50500000Y1500000D03*
X57500000Y1500000D03*
X71000000Y6000000D03*
X55500000Y23000000D03*
X18000000Y22500000D03*
X32000000Y22500000D03*
X25000000Y22500000D03*
X62500000Y16000000D03*
X64000000Y34000000D03*
X52000000Y38250000D03*
X22500000Y5500000D03*
X59000000Y46000000D03*
X45000000Y38250000D03*
X66000000Y46000000D03*
X59000000Y39000000D03*
X36500000Y5500000D03*
X71000000Y20000000D03*
X25000000Y15500000D03*
X18000000Y15500000D03*
X18000000Y29500000D03*
X43000000Y10500000D03*
X51250000Y25500000D03*
X25000000Y29500000D03*
X43500000Y1500000D03*
X52750000Y19750000D03*
X50000000Y19750000D03*
X52000000Y35000000D03*
X66000000Y39000000D03*
X71000000Y13000000D03*
X39000000Y15500000D03*
X32000000Y15500000D03*
X11000000Y22500000D03*
%TO.N,/JoyY*%
X66750000Y29250000D03*
X27500000Y29500000D03*
X66250000Y9750000D03*
%TO.N,/JoyX*%
X64250000Y11000000D03*
X65500000Y26750000D03*
X30000000Y28250000D03*
%TO.N,/SW3*%
X40500000Y26750000D03*
X64000000Y24500000D03*
X61500000Y12250000D03*
%TO.N,/SW2*%
X43250000Y24250000D03*
X51250000Y23750000D03*
%TO.N,/SW0*%
X48000000Y10500000D03*
%TD*%
D20*
%TO.N,Net-(C3-Pad1)*%
X32270000Y32770000D02*
X32270000Y31390000D01*
X33000000Y33500000D02*
X32270000Y32770000D01*
X59750000Y37750000D02*
X55500000Y33500000D01*
X55500000Y33500000D02*
X33000000Y33500000D01*
X63500000Y37750000D02*
X59750000Y37750000D01*
%TO.N,/JoyY*%
X66500000Y29500000D02*
X66750000Y29250000D01*
X27500000Y29500000D02*
X66500000Y29500000D01*
X66250000Y9750000D02*
X60625000Y9750000D01*
X60625000Y9750000D02*
X57500000Y6625000D01*
X57500000Y6625000D02*
X57500000Y6500000D01*
%TO.N,/JoyX*%
X30000000Y28250000D02*
X64000000Y28250000D01*
X59500000Y11000000D02*
X55000000Y6500000D01*
X64000000Y28250000D02*
X65500000Y26750000D01*
X64250000Y11000000D02*
X59500000Y11000000D01*
%TO.N,/SW3*%
X40500000Y26750000D02*
X61750000Y26750000D01*
X61750000Y26750000D02*
X64000000Y24500000D01*
X61500000Y12250000D02*
X55750000Y12250000D01*
X55750000Y12250000D02*
X50000000Y6500000D01*
%TO.N,/SW2*%
X43250000Y24250000D02*
X50750000Y24250000D01*
X50750000Y24250000D02*
X51250000Y23750000D01*
%TO.N,/SW0*%
X46500000Y10500000D02*
X42500000Y6500000D01*
X48000000Y10500000D02*
X46500000Y10500000D01*
%TD*%
%TA.AperFunction,Conductor*%
%TO.N,GND*%
G36*
X66442121Y46471498D02*
G01*
X66488614Y46417842D01*
X66500000Y46365500D01*
X66500000Y41500000D01*
X71365500Y41500000D01*
X71433621Y41479998D01*
X71480114Y41426342D01*
X71491500Y41374000D01*
X71491500Y5626000D01*
X71471498Y5557879D01*
X71417842Y5511386D01*
X71365500Y5500000D01*
X66500000Y5500000D01*
X66500000Y634500D01*
X66479998Y566379D01*
X66426342Y519886D01*
X66374000Y508500D01*
X5626000Y508500D01*
X5557879Y528502D01*
X5511386Y582158D01*
X5500000Y634500D01*
X5500000Y1580331D01*
X8642001Y1580331D01*
X8642371Y1573510D01*
X8647895Y1522648D01*
X8651521Y1507396D01*
X8696676Y1386946D01*
X8705214Y1371351D01*
X8781715Y1269276D01*
X8794276Y1256715D01*
X8896351Y1180214D01*
X8911946Y1171676D01*
X9032394Y1126522D01*
X9047649Y1122895D01*
X9098514Y1117369D01*
X9105328Y1117000D01*
X9727885Y1117000D01*
X9743124Y1121475D01*
X9744329Y1122865D01*
X9746000Y1130548D01*
X9746000Y1135116D01*
X10254000Y1135116D01*
X10258475Y1119877D01*
X10259865Y1118672D01*
X10267548Y1117001D01*
X10894669Y1117001D01*
X10901490Y1117371D01*
X10952352Y1122895D01*
X10967604Y1126521D01*
X11088054Y1171676D01*
X11103649Y1180214D01*
X11205724Y1256715D01*
X11218285Y1269276D01*
X11294786Y1371351D01*
X11303324Y1386946D01*
X11348478Y1507394D01*
X11352105Y1522649D01*
X11357631Y1573514D01*
X11358000Y1580328D01*
X11358000Y1580331D01*
X12142001Y1580331D01*
X12142371Y1573510D01*
X12147895Y1522648D01*
X12151521Y1507396D01*
X12196676Y1386946D01*
X12205214Y1371351D01*
X12281715Y1269276D01*
X12294276Y1256715D01*
X12396351Y1180214D01*
X12411946Y1171676D01*
X12532394Y1126522D01*
X12547649Y1122895D01*
X12598514Y1117369D01*
X12605328Y1117000D01*
X13227885Y1117000D01*
X13243124Y1121475D01*
X13244329Y1122865D01*
X13246000Y1130548D01*
X13246000Y1135116D01*
X13754000Y1135116D01*
X13758475Y1119877D01*
X13759865Y1118672D01*
X13767548Y1117001D01*
X14394669Y1117001D01*
X14401490Y1117371D01*
X14452352Y1122895D01*
X14467604Y1126521D01*
X14588054Y1171676D01*
X14603649Y1180214D01*
X14705724Y1256715D01*
X14718285Y1269276D01*
X14794786Y1371351D01*
X14803324Y1386946D01*
X14848478Y1507394D01*
X14852105Y1522649D01*
X14857631Y1573514D01*
X14858000Y1580328D01*
X14858000Y1580331D01*
X15642001Y1580331D01*
X15642371Y1573510D01*
X15647895Y1522648D01*
X15651521Y1507396D01*
X15696676Y1386946D01*
X15705214Y1371351D01*
X15781715Y1269276D01*
X15794276Y1256715D01*
X15896351Y1180214D01*
X15911946Y1171676D01*
X16032394Y1126522D01*
X16047649Y1122895D01*
X16098514Y1117369D01*
X16105328Y1117000D01*
X16727885Y1117000D01*
X16743124Y1121475D01*
X16744329Y1122865D01*
X16746000Y1130548D01*
X16746000Y1135116D01*
X17254000Y1135116D01*
X17258475Y1119877D01*
X17259865Y1118672D01*
X17267548Y1117001D01*
X17894669Y1117001D01*
X17901490Y1117371D01*
X17952352Y1122895D01*
X17967604Y1126521D01*
X18088054Y1171676D01*
X18103649Y1180214D01*
X18205724Y1256715D01*
X18218285Y1269276D01*
X18294786Y1371351D01*
X18303324Y1386946D01*
X18348478Y1507394D01*
X18352105Y1522649D01*
X18357631Y1573514D01*
X18358000Y1580328D01*
X18358000Y2202885D01*
X18353525Y2218124D01*
X18352135Y2219329D01*
X18344452Y2221000D01*
X17272115Y2221000D01*
X17256876Y2216525D01*
X17255671Y2215135D01*
X17254000Y2207452D01*
X17254000Y1135116D01*
X16746000Y1135116D01*
X16746000Y2202885D01*
X16741525Y2218124D01*
X16740135Y2219329D01*
X16732452Y2221000D01*
X15660116Y2221000D01*
X15644877Y2216525D01*
X15643672Y2215135D01*
X15642001Y2207452D01*
X15642001Y1580331D01*
X14858000Y1580331D01*
X14858000Y2202885D01*
X14853525Y2218124D01*
X14852135Y2219329D01*
X14844452Y2221000D01*
X13772115Y2221000D01*
X13756876Y2216525D01*
X13755671Y2215135D01*
X13754000Y2207452D01*
X13754000Y1135116D01*
X13246000Y1135116D01*
X13246000Y2202885D01*
X13241525Y2218124D01*
X13240135Y2219329D01*
X13232452Y2221000D01*
X12160116Y2221000D01*
X12144877Y2216525D01*
X12143672Y2215135D01*
X12142001Y2207452D01*
X12142001Y1580331D01*
X11358000Y1580331D01*
X11358000Y2202885D01*
X11353525Y2218124D01*
X11352135Y2219329D01*
X11344452Y2221000D01*
X10272115Y2221000D01*
X10256876Y2216525D01*
X10255671Y2215135D01*
X10254000Y2207452D01*
X10254000Y1135116D01*
X9746000Y1135116D01*
X9746000Y2202885D01*
X9741525Y2218124D01*
X9740135Y2219329D01*
X9732452Y2221000D01*
X8660116Y2221000D01*
X8644877Y2216525D01*
X8643672Y2215135D01*
X8642001Y2207452D01*
X8642001Y1580331D01*
X5500000Y1580331D01*
X5500000Y5048305D01*
X8637251Y5048305D01*
X8637548Y5043152D01*
X8637548Y5043149D01*
X8643011Y4948410D01*
X8650110Y4825285D01*
X8651247Y4820239D01*
X8651248Y4820233D01*
X8671119Y4732061D01*
X8699222Y4607361D01*
X8783266Y4400384D01*
X8785965Y4395980D01*
X8891190Y4224268D01*
X8899987Y4209912D01*
X9046250Y4041062D01*
X9050225Y4037762D01*
X9050231Y4037756D01*
X9055425Y4033444D01*
X9095059Y3974540D01*
X9096555Y3903559D01*
X9059439Y3843038D01*
X9019168Y3818520D01*
X8911946Y3778324D01*
X8896351Y3769786D01*
X8794276Y3693285D01*
X8781715Y3680724D01*
X8705214Y3578649D01*
X8696676Y3563054D01*
X8651522Y3442606D01*
X8647895Y3427351D01*
X8642369Y3376486D01*
X8642000Y3369672D01*
X8642000Y2747115D01*
X8646475Y2731876D01*
X8647865Y2730671D01*
X8655548Y2729000D01*
X11339884Y2729000D01*
X11355123Y2733475D01*
X11356328Y2734865D01*
X11357999Y2742548D01*
X11357999Y3369669D01*
X11357629Y3376490D01*
X11352105Y3427352D01*
X11348479Y3442604D01*
X11303324Y3563054D01*
X11294786Y3578649D01*
X11218285Y3680724D01*
X11205724Y3693285D01*
X11103649Y3769786D01*
X11088054Y3778324D01*
X10977813Y3819652D01*
X10921049Y3862294D01*
X10896349Y3928855D01*
X10911557Y3998204D01*
X10933104Y4026885D01*
X11034430Y4127856D01*
X11034440Y4127868D01*
X11038096Y4131511D01*
X11097594Y4214311D01*
X11165435Y4308723D01*
X11168453Y4312923D01*
X11267430Y4513189D01*
X11332370Y4726931D01*
X11361529Y4948410D01*
X11363156Y5015000D01*
X11360418Y5048305D01*
X12137251Y5048305D01*
X12137548Y5043152D01*
X12137548Y5043149D01*
X12143011Y4948410D01*
X12150110Y4825285D01*
X12151247Y4820239D01*
X12151248Y4820233D01*
X12171119Y4732061D01*
X12199222Y4607361D01*
X12283266Y4400384D01*
X12285965Y4395980D01*
X12391190Y4224268D01*
X12399987Y4209912D01*
X12546250Y4041062D01*
X12550225Y4037762D01*
X12550231Y4037756D01*
X12555425Y4033444D01*
X12595059Y3974540D01*
X12596555Y3903559D01*
X12559439Y3843038D01*
X12519168Y3818520D01*
X12411946Y3778324D01*
X12396351Y3769786D01*
X12294276Y3693285D01*
X12281715Y3680724D01*
X12205214Y3578649D01*
X12196676Y3563054D01*
X12151522Y3442606D01*
X12147895Y3427351D01*
X12142369Y3376486D01*
X12142000Y3369672D01*
X12142000Y2747115D01*
X12146475Y2731876D01*
X12147865Y2730671D01*
X12155548Y2729000D01*
X14839884Y2729000D01*
X14855123Y2733475D01*
X14856328Y2734865D01*
X14857999Y2742548D01*
X14857999Y3369669D01*
X14857629Y3376490D01*
X14852105Y3427352D01*
X14848479Y3442604D01*
X14803324Y3563054D01*
X14794786Y3578649D01*
X14718285Y3680724D01*
X14705724Y3693285D01*
X14603649Y3769786D01*
X14588054Y3778324D01*
X14477813Y3819652D01*
X14421049Y3862294D01*
X14396349Y3928855D01*
X14411557Y3998204D01*
X14433104Y4026885D01*
X14534430Y4127856D01*
X14534440Y4127868D01*
X14538096Y4131511D01*
X14597594Y4214311D01*
X14665435Y4308723D01*
X14668453Y4312923D01*
X14767430Y4513189D01*
X14832370Y4726931D01*
X14861529Y4948410D01*
X14863156Y5015000D01*
X14860418Y5048305D01*
X15637251Y5048305D01*
X15637548Y5043152D01*
X15637548Y5043149D01*
X15643011Y4948410D01*
X15650110Y4825285D01*
X15651247Y4820239D01*
X15651248Y4820233D01*
X15671119Y4732061D01*
X15699222Y4607361D01*
X15783266Y4400384D01*
X15785965Y4395980D01*
X15891190Y4224268D01*
X15899987Y4209912D01*
X16046250Y4041062D01*
X16050225Y4037762D01*
X16050231Y4037756D01*
X16055425Y4033444D01*
X16095059Y3974540D01*
X16096555Y3903559D01*
X16059439Y3843038D01*
X16019168Y3818520D01*
X15911946Y3778324D01*
X15896351Y3769786D01*
X15794276Y3693285D01*
X15781715Y3680724D01*
X15705214Y3578649D01*
X15696676Y3563054D01*
X15651522Y3442606D01*
X15647895Y3427351D01*
X15642369Y3376486D01*
X15642000Y3369672D01*
X15642000Y2747115D01*
X15646475Y2731876D01*
X15647865Y2730671D01*
X15655548Y2729000D01*
X18339884Y2729000D01*
X18355123Y2733475D01*
X18356328Y2734865D01*
X18357999Y2742548D01*
X18357999Y3369669D01*
X18357629Y3376490D01*
X18352105Y3427352D01*
X18348479Y3442604D01*
X18303324Y3563054D01*
X18294786Y3578649D01*
X18218285Y3680724D01*
X18205724Y3693285D01*
X18103649Y3769786D01*
X18088054Y3778324D01*
X17977813Y3819652D01*
X17921049Y3862294D01*
X17896349Y3928855D01*
X17911557Y3998204D01*
X17933104Y4026885D01*
X18034430Y4127856D01*
X18034440Y4127868D01*
X18038096Y4131511D01*
X18097594Y4214311D01*
X18165435Y4308723D01*
X18168453Y4312923D01*
X18267430Y4513189D01*
X18332370Y4726931D01*
X18361529Y4948410D01*
X18363156Y5015000D01*
X18344852Y5237639D01*
X18290431Y5454298D01*
X18201354Y5659160D01*
X18159019Y5724600D01*
X41141500Y5724600D01*
X41141837Y5721354D01*
X41141837Y5721350D01*
X41150875Y5634248D01*
X41152474Y5618834D01*
X41154655Y5612298D01*
X41154655Y5612296D01*
X41185447Y5520002D01*
X41208450Y5451054D01*
X41301522Y5300652D01*
X41426697Y5175695D01*
X41432927Y5171855D01*
X41432928Y5171854D01*
X41570090Y5087306D01*
X41577262Y5082885D01*
X41612938Y5071052D01*
X41738611Y5029368D01*
X41738613Y5029368D01*
X41745139Y5027203D01*
X41751975Y5026503D01*
X41751978Y5026502D01*
X41787663Y5022846D01*
X41849600Y5016500D01*
X43150400Y5016500D01*
X43153646Y5016837D01*
X43153650Y5016837D01*
X43249308Y5026762D01*
X43249312Y5026763D01*
X43256166Y5027474D01*
X43262702Y5029655D01*
X43262704Y5029655D01*
X43394806Y5073728D01*
X43423946Y5083450D01*
X43574348Y5176522D01*
X43699305Y5301697D01*
X43789081Y5447340D01*
X43841852Y5494832D01*
X43911924Y5506256D01*
X43977048Y5477982D01*
X43987510Y5468195D01*
X44029215Y5424477D01*
X44096576Y5353865D01*
X44281542Y5216246D01*
X44286293Y5213830D01*
X44286297Y5213828D01*
X44349481Y5181704D01*
X44487051Y5111760D01*
X44492145Y5110178D01*
X44492148Y5110177D01*
X44657583Y5058808D01*
X44707227Y5043393D01*
X44712516Y5042692D01*
X44930489Y5013802D01*
X44930494Y5013802D01*
X44935774Y5013102D01*
X44941103Y5013302D01*
X44941105Y5013302D01*
X45050966Y5017427D01*
X45166158Y5021751D01*
X45188802Y5026502D01*
X45386572Y5067998D01*
X45391791Y5069093D01*
X45396750Y5071051D01*
X45396752Y5071052D01*
X45601256Y5151815D01*
X45601258Y5151816D01*
X45606221Y5153776D01*
X45611525Y5156994D01*
X45789995Y5265293D01*
X45803317Y5273377D01*
X45843134Y5307928D01*
X45973412Y5420977D01*
X45973414Y5420979D01*
X45977445Y5424477D01*
X46021316Y5477982D01*
X46120240Y5598627D01*
X46120244Y5598633D01*
X46123624Y5602755D01*
X46141552Y5634250D01*
X46192632Y5683555D01*
X46262262Y5697417D01*
X46328333Y5671434D01*
X46355573Y5642284D01*
X46437441Y5520681D01*
X46596576Y5353865D01*
X46781542Y5216246D01*
X46786293Y5213830D01*
X46786297Y5213828D01*
X46849481Y5181704D01*
X46987051Y5111760D01*
X46992145Y5110178D01*
X46992148Y5110177D01*
X47157583Y5058808D01*
X47207227Y5043393D01*
X47212516Y5042692D01*
X47430489Y5013802D01*
X47430494Y5013802D01*
X47435774Y5013102D01*
X47441103Y5013302D01*
X47441105Y5013302D01*
X47550966Y5017427D01*
X47666158Y5021751D01*
X47688802Y5026502D01*
X47886572Y5067998D01*
X47891791Y5069093D01*
X47896750Y5071051D01*
X47896752Y5071052D01*
X48101256Y5151815D01*
X48101258Y5151816D01*
X48106221Y5153776D01*
X48111525Y5156994D01*
X48289995Y5265293D01*
X48303317Y5273377D01*
X48343134Y5307928D01*
X48473412Y5420977D01*
X48473414Y5420979D01*
X48477445Y5424477D01*
X48521316Y5477982D01*
X48620240Y5598627D01*
X48620244Y5598633D01*
X48623624Y5602755D01*
X48641552Y5634250D01*
X48692632Y5683555D01*
X48762262Y5697417D01*
X48828333Y5671434D01*
X48855573Y5642284D01*
X48937441Y5520681D01*
X49096576Y5353865D01*
X49281542Y5216246D01*
X49286293Y5213830D01*
X49286297Y5213828D01*
X49349481Y5181704D01*
X49487051Y5111760D01*
X49492145Y5110178D01*
X49492148Y5110177D01*
X49657583Y5058808D01*
X49707227Y5043393D01*
X49712516Y5042692D01*
X49930489Y5013802D01*
X49930494Y5013802D01*
X49935774Y5013102D01*
X49941103Y5013302D01*
X49941105Y5013302D01*
X50050966Y5017427D01*
X50166158Y5021751D01*
X50188802Y5026502D01*
X50386572Y5067998D01*
X50391791Y5069093D01*
X50396750Y5071051D01*
X50396752Y5071052D01*
X50601256Y5151815D01*
X50601258Y5151816D01*
X50606221Y5153776D01*
X50611525Y5156994D01*
X50789995Y5265293D01*
X50803317Y5273377D01*
X50843134Y5307928D01*
X50973412Y5420977D01*
X50973414Y5420979D01*
X50977445Y5424477D01*
X51021316Y5477982D01*
X51120240Y5598627D01*
X51120244Y5598633D01*
X51123624Y5602755D01*
X51141552Y5634250D01*
X51192632Y5683555D01*
X51262262Y5697417D01*
X51328333Y5671434D01*
X51355573Y5642284D01*
X51437441Y5520681D01*
X51596576Y5353865D01*
X51781542Y5216246D01*
X51786293Y5213830D01*
X51786297Y5213828D01*
X51849481Y5181704D01*
X51987051Y5111760D01*
X51992145Y5110178D01*
X51992148Y5110177D01*
X52157583Y5058808D01*
X52207227Y5043393D01*
X52212516Y5042692D01*
X52430489Y5013802D01*
X52430494Y5013802D01*
X52435774Y5013102D01*
X52441103Y5013302D01*
X52441105Y5013302D01*
X52550966Y5017427D01*
X52666158Y5021751D01*
X52688802Y5026502D01*
X52886572Y5067998D01*
X52891791Y5069093D01*
X52896750Y5071051D01*
X52896752Y5071052D01*
X53101256Y5151815D01*
X53101258Y5151816D01*
X53106221Y5153776D01*
X53111525Y5156994D01*
X53289995Y5265293D01*
X53303317Y5273377D01*
X53343134Y5307928D01*
X53473412Y5420977D01*
X53473414Y5420979D01*
X53477445Y5424477D01*
X53521316Y5477982D01*
X53620240Y5598627D01*
X53620244Y5598633D01*
X53623624Y5602755D01*
X53641552Y5634250D01*
X53692632Y5683555D01*
X53762262Y5697417D01*
X53828333Y5671434D01*
X53855573Y5642284D01*
X53937441Y5520681D01*
X54096576Y5353865D01*
X54281542Y5216246D01*
X54286293Y5213830D01*
X54286297Y5213828D01*
X54349481Y5181704D01*
X54487051Y5111760D01*
X54492145Y5110178D01*
X54492148Y5110177D01*
X54657583Y5058808D01*
X54707227Y5043393D01*
X54712516Y5042692D01*
X54930489Y5013802D01*
X54930494Y5013802D01*
X54935774Y5013102D01*
X54941103Y5013302D01*
X54941105Y5013302D01*
X55050966Y5017427D01*
X55166158Y5021751D01*
X55188802Y5026502D01*
X55386572Y5067998D01*
X55391791Y5069093D01*
X55396750Y5071051D01*
X55396752Y5071052D01*
X55601256Y5151815D01*
X55601258Y5151816D01*
X55606221Y5153776D01*
X55611525Y5156994D01*
X55789995Y5265293D01*
X55803317Y5273377D01*
X55843134Y5307928D01*
X55973412Y5420977D01*
X55973414Y5420979D01*
X55977445Y5424477D01*
X56021316Y5477982D01*
X56120240Y5598627D01*
X56120244Y5598633D01*
X56123624Y5602755D01*
X56141552Y5634250D01*
X56192632Y5683555D01*
X56262262Y5697417D01*
X56328333Y5671434D01*
X56355573Y5642284D01*
X56437441Y5520681D01*
X56596576Y5353865D01*
X56781542Y5216246D01*
X56786293Y5213830D01*
X56786297Y5213828D01*
X56849481Y5181704D01*
X56987051Y5111760D01*
X56992145Y5110178D01*
X56992148Y5110177D01*
X57157583Y5058808D01*
X57207227Y5043393D01*
X57212516Y5042692D01*
X57430489Y5013802D01*
X57430494Y5013802D01*
X57435774Y5013102D01*
X57441103Y5013302D01*
X57441105Y5013302D01*
X57550966Y5017427D01*
X57666158Y5021751D01*
X57688802Y5026502D01*
X57886572Y5067998D01*
X57891791Y5069093D01*
X57896750Y5071051D01*
X57896752Y5071052D01*
X58101256Y5151815D01*
X58101258Y5151816D01*
X58106221Y5153776D01*
X58111525Y5156994D01*
X58289995Y5265293D01*
X58303317Y5273377D01*
X58343134Y5307928D01*
X58473412Y5420977D01*
X58473414Y5420979D01*
X58477445Y5424477D01*
X58521316Y5477982D01*
X58620240Y5598627D01*
X58620244Y5598633D01*
X58623624Y5602755D01*
X58641552Y5634250D01*
X58692632Y5683555D01*
X58762262Y5697417D01*
X58828333Y5671434D01*
X58855573Y5642284D01*
X58937441Y5520681D01*
X59096576Y5353865D01*
X59281542Y5216246D01*
X59286293Y5213830D01*
X59286297Y5213828D01*
X59349481Y5181704D01*
X59487051Y5111760D01*
X59492145Y5110178D01*
X59492148Y5110177D01*
X59657583Y5058808D01*
X59707227Y5043393D01*
X59712516Y5042692D01*
X59930489Y5013802D01*
X59930494Y5013802D01*
X59935774Y5013102D01*
X59941103Y5013302D01*
X59941105Y5013302D01*
X60050966Y5017427D01*
X60166158Y5021751D01*
X60188802Y5026502D01*
X60386572Y5067998D01*
X60391791Y5069093D01*
X60396750Y5071051D01*
X60396752Y5071052D01*
X60601256Y5151815D01*
X60601258Y5151816D01*
X60606221Y5153776D01*
X60611525Y5156994D01*
X60789995Y5265293D01*
X60803317Y5273377D01*
X60843134Y5307928D01*
X60973412Y5420977D01*
X60973414Y5420979D01*
X60977445Y5424477D01*
X61021316Y5477982D01*
X61120240Y5598627D01*
X61120244Y5598633D01*
X61123624Y5602755D01*
X61136856Y5626000D01*
X61141829Y5634735D01*
X61192912Y5684041D01*
X61262542Y5697902D01*
X61328613Y5671918D01*
X61355851Y5642768D01*
X61434852Y5525422D01*
X61441519Y5517130D01*
X61593228Y5358100D01*
X61601186Y5351059D01*
X61777525Y5219859D01*
X61786562Y5214255D01*
X61982484Y5114643D01*
X61992335Y5110643D01*
X62202240Y5045466D01*
X62212624Y5043183D01*
X62228043Y5041139D01*
X62242207Y5043335D01*
X62246000Y5056522D01*
X62246000Y5058808D01*
X62754000Y5058808D01*
X62757973Y5045277D01*
X62768580Y5043752D01*
X62886421Y5068477D01*
X62896617Y5071537D01*
X63101029Y5152263D01*
X63110561Y5156994D01*
X63298462Y5271016D01*
X63307052Y5277280D01*
X63473052Y5421327D01*
X63480472Y5428958D01*
X63619826Y5598911D01*
X63625850Y5607678D01*
X63734576Y5798682D01*
X63739041Y5808346D01*
X63814031Y6014941D01*
X63816802Y6025208D01*
X63853504Y6228174D01*
X63852085Y6241414D01*
X63837450Y6246000D01*
X62772115Y6246000D01*
X62756876Y6241525D01*
X62755671Y6240135D01*
X62754000Y6232452D01*
X62754000Y5058808D01*
X62246000Y5058808D01*
X62246000Y6772115D01*
X62754000Y6772115D01*
X62758475Y6756876D01*
X62759865Y6755671D01*
X62767548Y6754000D01*
X63833849Y6754000D01*
X63848527Y6758310D01*
X63850590Y6770193D01*
X63843876Y6849325D01*
X63842086Y6859797D01*
X63786870Y7072535D01*
X63783335Y7082575D01*
X63693063Y7282970D01*
X63687894Y7292256D01*
X63565150Y7474575D01*
X63558481Y7482870D01*
X63406772Y7641900D01*
X63398814Y7648941D01*
X63222475Y7780141D01*
X63213438Y7785745D01*
X63017516Y7885357D01*
X63007665Y7889357D01*
X62797760Y7954534D01*
X62787376Y7956817D01*
X62771957Y7958861D01*
X62757793Y7956665D01*
X62754000Y7943478D01*
X62754000Y6772115D01*
X62246000Y6772115D01*
X62246000Y7941192D01*
X62242027Y7954723D01*
X62231420Y7956248D01*
X62113579Y7931523D01*
X62103383Y7928463D01*
X61898971Y7847737D01*
X61889439Y7843006D01*
X61701538Y7728984D01*
X61692948Y7722720D01*
X61526948Y7578673D01*
X61519528Y7571042D01*
X61380174Y7401089D01*
X61374152Y7392326D01*
X61358762Y7365289D01*
X61307680Y7315982D01*
X61238049Y7302120D01*
X61171978Y7328103D01*
X61144739Y7357253D01*
X61108869Y7410532D01*
X61062559Y7479319D01*
X61003918Y7540791D01*
X60958591Y7588305D01*
X60903424Y7646135D01*
X60718458Y7783754D01*
X60713707Y7786170D01*
X60713703Y7786172D01*
X60595588Y7846224D01*
X60512949Y7888240D01*
X60507855Y7889822D01*
X60507852Y7889823D01*
X60297871Y7955024D01*
X60292773Y7956607D01*
X60287484Y7957308D01*
X60069510Y7986198D01*
X60069506Y7986198D01*
X60064226Y7986898D01*
X60058898Y7986698D01*
X60055862Y7986841D01*
X59988759Y8010028D01*
X59944844Y8065814D01*
X59938060Y8136485D01*
X59972700Y8201796D01*
X60850499Y9079595D01*
X60912811Y9113621D01*
X60939594Y9116500D01*
X65703903Y9116500D01*
X65772896Y9095932D01*
X65875679Y9028673D01*
X65883159Y9023778D01*
X65889763Y9021322D01*
X65889765Y9021321D01*
X66046558Y8963010D01*
X66046560Y8963010D01*
X66053168Y8960552D01*
X66136477Y8949436D01*
X66225980Y8937493D01*
X66225984Y8937493D01*
X66232961Y8936562D01*
X66239972Y8937200D01*
X66239976Y8937200D01*
X66382459Y8950168D01*
X66413600Y8953002D01*
X66420302Y8955180D01*
X66420304Y8955180D01*
X66579409Y9006876D01*
X66579412Y9006877D01*
X66586108Y9009053D01*
X66731849Y9095932D01*
X66735860Y9098323D01*
X66735862Y9098324D01*
X66741912Y9101931D01*
X66873266Y9227018D01*
X66973643Y9378098D01*
X67038055Y9547662D01*
X67063299Y9727283D01*
X67063616Y9750000D01*
X67043397Y9930255D01*
X67041080Y9936909D01*
X66986064Y10094894D01*
X66986062Y10094897D01*
X66983745Y10101552D01*
X66908127Y10222568D01*
X66891359Y10249402D01*
X66887626Y10255376D01*
X66863098Y10280076D01*
X66764778Y10379085D01*
X66764774Y10379088D01*
X66759815Y10384082D01*
X66748697Y10391138D01*
X66619133Y10473361D01*
X66606666Y10481273D01*
X66565201Y10496038D01*
X66442425Y10539757D01*
X66442420Y10539758D01*
X66435790Y10542119D01*
X66428802Y10542952D01*
X66428799Y10542953D01*
X66305698Y10557632D01*
X66255680Y10563596D01*
X66248677Y10562860D01*
X66248676Y10562860D01*
X66082288Y10545372D01*
X66082286Y10545371D01*
X66075288Y10544636D01*
X65903579Y10486182D01*
X65767039Y10402181D01*
X65701019Y10383500D01*
X65046121Y10383500D01*
X64978000Y10403502D01*
X64931507Y10457158D01*
X64921403Y10527432D01*
X64941172Y10579225D01*
X64973643Y10628098D01*
X65038055Y10797662D01*
X65063299Y10977283D01*
X65063452Y10988262D01*
X65063561Y10996038D01*
X65063561Y10996043D01*
X65063616Y11000000D01*
X65043397Y11180255D01*
X65025631Y11231273D01*
X64986064Y11344894D01*
X64986062Y11344897D01*
X64983745Y11351552D01*
X64887626Y11505376D01*
X64822797Y11570659D01*
X64764778Y11629085D01*
X64764774Y11629088D01*
X64759815Y11634082D01*
X64748697Y11641138D01*
X64644665Y11707158D01*
X64606666Y11731273D01*
X64577463Y11741672D01*
X64442425Y11789757D01*
X64442420Y11789758D01*
X64435790Y11792119D01*
X64428802Y11792952D01*
X64428799Y11792953D01*
X64305698Y11807632D01*
X64255680Y11813596D01*
X64248677Y11812860D01*
X64248676Y11812860D01*
X64082288Y11795372D01*
X64082286Y11795371D01*
X64075288Y11794636D01*
X63903579Y11736182D01*
X63767039Y11652181D01*
X63701019Y11633500D01*
X62296121Y11633500D01*
X62228000Y11653502D01*
X62181507Y11707158D01*
X62171403Y11777432D01*
X62191172Y11829225D01*
X62223643Y11878098D01*
X62288055Y12047662D01*
X62313299Y12227283D01*
X62313616Y12250000D01*
X62293397Y12430255D01*
X62267190Y12505512D01*
X62236064Y12594894D01*
X62236062Y12594897D01*
X62233745Y12601552D01*
X62137626Y12755376D01*
X62132664Y12760373D01*
X62014778Y12879085D01*
X62014774Y12879088D01*
X62009815Y12884082D01*
X61998697Y12891138D01*
X61877872Y12967815D01*
X61856666Y12981273D01*
X61827463Y12991672D01*
X61692425Y13039757D01*
X61692420Y13039758D01*
X61685790Y13042119D01*
X61678802Y13042952D01*
X61678799Y13042953D01*
X61555698Y13057632D01*
X61505680Y13063596D01*
X61498677Y13062860D01*
X61498676Y13062860D01*
X61332288Y13045372D01*
X61332286Y13045371D01*
X61325288Y13044636D01*
X61153579Y12986182D01*
X61017039Y12902181D01*
X60951019Y12883500D01*
X56390849Y12883500D01*
X56322728Y12903502D01*
X56276235Y12957158D01*
X56266131Y13027432D01*
X56276654Y13062750D01*
X56276706Y13062860D01*
X56328440Y13173804D01*
X56385978Y13388537D01*
X56405353Y13610000D01*
X56385978Y13831463D01*
X56328440Y14046196D01*
X56285805Y14137627D01*
X56236814Y14242689D01*
X56236811Y14242694D01*
X56234488Y14247676D01*
X56231331Y14252185D01*
X56110136Y14425270D01*
X56110134Y14425273D01*
X56106977Y14429781D01*
X55949781Y14586977D01*
X55945273Y14590134D01*
X55945270Y14590136D01*
X55869505Y14643187D01*
X55767677Y14714488D01*
X55762695Y14716811D01*
X55762690Y14716814D01*
X55571178Y14806117D01*
X55571177Y14806118D01*
X55566196Y14808440D01*
X55560888Y14809862D01*
X55560886Y14809863D01*
X55495051Y14827503D01*
X55351463Y14865978D01*
X55130000Y14885353D01*
X54908537Y14865978D01*
X54764949Y14827503D01*
X54699114Y14809863D01*
X54699112Y14809862D01*
X54693804Y14808440D01*
X54688823Y14806118D01*
X54688822Y14806117D01*
X54497311Y14716814D01*
X54497306Y14716811D01*
X54492324Y14714488D01*
X54487817Y14711332D01*
X54487815Y14711331D01*
X54314730Y14590136D01*
X54314727Y14590134D01*
X54310219Y14586977D01*
X54153023Y14429781D01*
X54149866Y14425273D01*
X54149864Y14425270D01*
X54028669Y14252185D01*
X54025512Y14247676D01*
X54023189Y14242694D01*
X54023186Y14242689D01*
X53974195Y14137627D01*
X53927277Y14084342D01*
X53859000Y14064881D01*
X53791040Y14085423D01*
X53745805Y14137627D01*
X53696814Y14242689D01*
X53696811Y14242694D01*
X53694488Y14247676D01*
X53691331Y14252185D01*
X53570136Y14425270D01*
X53570134Y14425273D01*
X53566977Y14429781D01*
X53409781Y14586977D01*
X53405273Y14590134D01*
X53405270Y14590136D01*
X53329505Y14643187D01*
X53227677Y14714488D01*
X53222695Y14716811D01*
X53222690Y14716814D01*
X53031178Y14806117D01*
X53031177Y14806118D01*
X53026196Y14808440D01*
X53020888Y14809862D01*
X53020886Y14809863D01*
X52955051Y14827503D01*
X52811463Y14865978D01*
X52590000Y14885353D01*
X52368537Y14865978D01*
X52224949Y14827503D01*
X52159114Y14809863D01*
X52159112Y14809862D01*
X52153804Y14808440D01*
X52148823Y14806118D01*
X52148822Y14806117D01*
X51957311Y14716814D01*
X51957306Y14716811D01*
X51952324Y14714488D01*
X51947817Y14711332D01*
X51947815Y14711331D01*
X51774730Y14590136D01*
X51774727Y14590134D01*
X51770219Y14586977D01*
X51613023Y14429781D01*
X51609866Y14425273D01*
X51609864Y14425270D01*
X51488669Y14252185D01*
X51485512Y14247676D01*
X51483189Y14242694D01*
X51483186Y14242689D01*
X51433919Y14137035D01*
X51387001Y14083750D01*
X51318724Y14064289D01*
X51250764Y14084831D01*
X51205529Y14137035D01*
X51156377Y14242441D01*
X51150897Y14251932D01*
X51120206Y14295765D01*
X51109729Y14304140D01*
X51096282Y14297072D01*
X50422022Y13622812D01*
X50414408Y13608868D01*
X50414539Y13607035D01*
X50418790Y13600420D01*
X51097003Y12922207D01*
X51108777Y12915777D01*
X51120793Y12925074D01*
X51150897Y12968068D01*
X51156377Y12977559D01*
X51205529Y13082965D01*
X51252447Y13136250D01*
X51320724Y13155711D01*
X51388684Y13135169D01*
X51433919Y13082965D01*
X51483186Y12977311D01*
X51483189Y12977306D01*
X51485512Y12972324D01*
X51488668Y12967817D01*
X51488669Y12967815D01*
X51550799Y12879085D01*
X51613023Y12790219D01*
X51770219Y12633023D01*
X51774727Y12629866D01*
X51774730Y12629864D01*
X51806625Y12607531D01*
X51952323Y12505512D01*
X51957305Y12503189D01*
X51957310Y12503186D01*
X52147810Y12414355D01*
X52153804Y12411560D01*
X52159112Y12410138D01*
X52159114Y12410137D01*
X52196838Y12400029D01*
X52368537Y12354022D01*
X52590000Y12334647D01*
X52811463Y12354022D01*
X52983162Y12400029D01*
X53020886Y12410137D01*
X53020888Y12410138D01*
X53026196Y12411560D01*
X53032190Y12414355D01*
X53222690Y12503186D01*
X53222695Y12503189D01*
X53227677Y12505512D01*
X53373375Y12607531D01*
X53405270Y12629864D01*
X53405273Y12629866D01*
X53409781Y12633023D01*
X53566977Y12790219D01*
X53629202Y12879085D01*
X53691331Y12967815D01*
X53691332Y12967817D01*
X53694488Y12972324D01*
X53696811Y12977306D01*
X53696814Y12977311D01*
X53745805Y13082373D01*
X53792723Y13135658D01*
X53861000Y13155119D01*
X53928960Y13134577D01*
X53974195Y13082373D01*
X54023186Y12977311D01*
X54023189Y12977306D01*
X54025512Y12972324D01*
X54028668Y12967817D01*
X54028669Y12967815D01*
X54090799Y12879085D01*
X54153023Y12790219D01*
X54310219Y12633023D01*
X54314727Y12629866D01*
X54314730Y12629864D01*
X54346625Y12607531D01*
X54492323Y12505512D01*
X54497305Y12503189D01*
X54497310Y12503186D01*
X54687810Y12414355D01*
X54693804Y12411560D01*
X54699112Y12410138D01*
X54699114Y12410137D01*
X54713571Y12406263D01*
X54736840Y12400028D01*
X54797462Y12363078D01*
X54828483Y12299217D01*
X54820055Y12228723D01*
X54793323Y12189227D01*
X52586984Y9982889D01*
X50551018Y7946923D01*
X50488706Y7912897D01*
X50424558Y7915686D01*
X50414311Y7918868D01*
X50292773Y7956607D01*
X50287484Y7957308D01*
X50069511Y7986198D01*
X50069506Y7986198D01*
X50064226Y7986898D01*
X50058897Y7986698D01*
X50058895Y7986698D01*
X49949034Y7982574D01*
X49833842Y7978249D01*
X49828623Y7977154D01*
X49816432Y7974596D01*
X49608209Y7930907D01*
X49603250Y7928949D01*
X49603248Y7928948D01*
X49398744Y7848185D01*
X49398742Y7848184D01*
X49393779Y7846224D01*
X49389220Y7843457D01*
X49389217Y7843456D01*
X49263403Y7767110D01*
X49196683Y7726623D01*
X49192653Y7723126D01*
X49099484Y7642278D01*
X49022555Y7575523D01*
X49019168Y7571392D01*
X48879760Y7401373D01*
X48879756Y7401367D01*
X48876376Y7397245D01*
X48858448Y7365750D01*
X48807368Y7316445D01*
X48737738Y7302583D01*
X48671667Y7328566D01*
X48644427Y7357716D01*
X48617814Y7397245D01*
X48562559Y7479319D01*
X48503918Y7540791D01*
X48458591Y7588305D01*
X48403424Y7646135D01*
X48218458Y7783754D01*
X48213707Y7786170D01*
X48213703Y7786172D01*
X48095588Y7846224D01*
X48012949Y7888240D01*
X48007855Y7889822D01*
X48007852Y7889823D01*
X47797871Y7955024D01*
X47792773Y7956607D01*
X47787484Y7957308D01*
X47569511Y7986198D01*
X47569506Y7986198D01*
X47564226Y7986898D01*
X47558897Y7986698D01*
X47558895Y7986698D01*
X47449034Y7982574D01*
X47333842Y7978249D01*
X47328623Y7977154D01*
X47316432Y7974596D01*
X47108209Y7930907D01*
X47103250Y7928949D01*
X47103248Y7928948D01*
X46898744Y7848185D01*
X46898742Y7848184D01*
X46893779Y7846224D01*
X46889220Y7843457D01*
X46889217Y7843456D01*
X46763403Y7767110D01*
X46696683Y7726623D01*
X46692653Y7723126D01*
X46599484Y7642278D01*
X46522555Y7575523D01*
X46519168Y7571392D01*
X46379760Y7401373D01*
X46379756Y7401367D01*
X46376376Y7397245D01*
X46358448Y7365750D01*
X46307368Y7316445D01*
X46237738Y7302583D01*
X46171667Y7328566D01*
X46144427Y7357716D01*
X46117814Y7397245D01*
X46062559Y7479319D01*
X46003918Y7540791D01*
X45958591Y7588305D01*
X45903424Y7646135D01*
X45718458Y7783754D01*
X45713707Y7786170D01*
X45713703Y7786172D01*
X45595588Y7846224D01*
X45512949Y7888240D01*
X45507855Y7889822D01*
X45507852Y7889823D01*
X45297871Y7955024D01*
X45292773Y7956607D01*
X45287487Y7957308D01*
X45287485Y7957308D01*
X45244079Y7963061D01*
X45157042Y7974596D01*
X45092141Y8003375D01*
X45053101Y8062674D01*
X45052318Y8133666D01*
X45084503Y8188599D01*
X46725499Y9829595D01*
X46787811Y9863621D01*
X46814594Y9866500D01*
X47453903Y9866500D01*
X47522896Y9845932D01*
X47547862Y9829595D01*
X47633159Y9773778D01*
X47639763Y9771322D01*
X47639765Y9771321D01*
X47796558Y9713010D01*
X47796560Y9713010D01*
X47803168Y9710552D01*
X47886995Y9699367D01*
X47975980Y9687493D01*
X47975984Y9687493D01*
X47982961Y9686562D01*
X47989972Y9687200D01*
X47989976Y9687200D01*
X48132459Y9700168D01*
X48163600Y9703002D01*
X48170302Y9705180D01*
X48170304Y9705180D01*
X48329409Y9756876D01*
X48329412Y9756877D01*
X48336108Y9759053D01*
X48491912Y9851931D01*
X48623266Y9977018D01*
X48723643Y10128098D01*
X48788055Y10297662D01*
X48793446Y10336018D01*
X48812748Y10473361D01*
X48812748Y10473364D01*
X48813299Y10477283D01*
X48813616Y10500000D01*
X48793397Y10680255D01*
X48733745Y10851552D01*
X48652706Y10981243D01*
X48641359Y10999402D01*
X48637626Y11005376D01*
X48609625Y11033573D01*
X48514778Y11129085D01*
X48514774Y11129088D01*
X48509815Y11134082D01*
X48498697Y11141138D01*
X48437058Y11180255D01*
X48356666Y11231273D01*
X48327463Y11241672D01*
X48192425Y11289757D01*
X48192420Y11289758D01*
X48185790Y11292119D01*
X48178802Y11292952D01*
X48178799Y11292953D01*
X48055698Y11307632D01*
X48005680Y11313596D01*
X47998677Y11312860D01*
X47998676Y11312860D01*
X47832288Y11295372D01*
X47832286Y11295371D01*
X47825288Y11294636D01*
X47653579Y11236182D01*
X47517039Y11152181D01*
X47451019Y11133500D01*
X46578767Y11133500D01*
X46567584Y11134027D01*
X46560091Y11135702D01*
X46552165Y11135453D01*
X46552164Y11135453D01*
X46492014Y11133562D01*
X46488055Y11133500D01*
X46460144Y11133500D01*
X46456210Y11133003D01*
X46456209Y11133003D01*
X46456144Y11132995D01*
X46444307Y11132062D01*
X46412490Y11131062D01*
X46408029Y11130922D01*
X46400110Y11130673D01*
X46382454Y11125544D01*
X46380658Y11125022D01*
X46361306Y11121014D01*
X46354235Y11120120D01*
X46341203Y11118474D01*
X46333834Y11115557D01*
X46333832Y11115556D01*
X46300097Y11102200D01*
X46288869Y11098355D01*
X46246407Y11086018D01*
X46239585Y11081984D01*
X46239579Y11081981D01*
X46228968Y11075706D01*
X46211218Y11067010D01*
X46199756Y11062472D01*
X46199751Y11062469D01*
X46192383Y11059552D01*
X46185968Y11054891D01*
X46156625Y11033573D01*
X46146707Y11027057D01*
X46128019Y11016005D01*
X46108637Y11004542D01*
X46094313Y10990218D01*
X46079281Y10977379D01*
X46062893Y10965472D01*
X46034712Y10931407D01*
X46026722Y10922627D01*
X43124500Y8020405D01*
X43062188Y7986379D01*
X43035405Y7983500D01*
X41849600Y7983500D01*
X41846354Y7983163D01*
X41846350Y7983163D01*
X41750692Y7973238D01*
X41750688Y7973237D01*
X41743834Y7972526D01*
X41737298Y7970345D01*
X41737296Y7970345D01*
X41605194Y7926272D01*
X41576054Y7916550D01*
X41425652Y7823478D01*
X41300695Y7698303D01*
X41296855Y7692073D01*
X41296854Y7692072D01*
X41222466Y7571392D01*
X41207885Y7547738D01*
X41205581Y7540791D01*
X41156432Y7392610D01*
X41152203Y7379861D01*
X41151503Y7373025D01*
X41151502Y7373022D01*
X41147091Y7329969D01*
X41141500Y7275400D01*
X41141500Y5724600D01*
X18159019Y5724600D01*
X18104841Y5808346D01*
X18082822Y5842383D01*
X18082820Y5842386D01*
X18080014Y5846723D01*
X17929670Y6011949D01*
X17925619Y6015148D01*
X17925615Y6015152D01*
X17758414Y6147200D01*
X17758410Y6147202D01*
X17754359Y6150402D01*
X17713053Y6173204D01*
X17663084Y6223636D01*
X17648312Y6293079D01*
X17673428Y6359484D01*
X17700780Y6386091D01*
X17744603Y6417350D01*
X17879860Y6513827D01*
X17884527Y6518477D01*
X17992120Y6625695D01*
X18038096Y6671511D01*
X18097594Y6754311D01*
X18165435Y6848723D01*
X18168453Y6852923D01*
X18171851Y6859797D01*
X18265136Y7048547D01*
X18265137Y7048549D01*
X18267430Y7053189D01*
X18304318Y7174600D01*
X20891500Y7174600D01*
X20891837Y7171354D01*
X20891837Y7171350D01*
X20900875Y7084248D01*
X20902474Y7068834D01*
X20904655Y7062298D01*
X20904655Y7062296D01*
X20936508Y6966822D01*
X20958450Y6901054D01*
X21051522Y6750652D01*
X21176697Y6625695D01*
X21182927Y6621855D01*
X21182928Y6621854D01*
X21320090Y6537306D01*
X21327262Y6532885D01*
X21393759Y6510829D01*
X21488611Y6479368D01*
X21488613Y6479368D01*
X21495139Y6477203D01*
X21501975Y6476503D01*
X21501978Y6476502D01*
X21537663Y6472846D01*
X21599600Y6466500D01*
X22900400Y6466500D01*
X22903646Y6466837D01*
X22903650Y6466837D01*
X22999308Y6476762D01*
X22999312Y6476763D01*
X23006166Y6477474D01*
X23012702Y6479655D01*
X23012704Y6479655D01*
X23144806Y6523728D01*
X23173946Y6533450D01*
X23324348Y6626522D01*
X23449305Y6751697D01*
X23539353Y6897780D01*
X23592124Y6945273D01*
X23662196Y6956697D01*
X23727320Y6928423D01*
X23737782Y6918636D01*
X23843234Y6808094D01*
X23851186Y6801059D01*
X24027525Y6669859D01*
X24036562Y6664255D01*
X24232484Y6564643D01*
X24242335Y6560643D01*
X24452240Y6495466D01*
X24462624Y6493183D01*
X24478043Y6491139D01*
X24492207Y6493335D01*
X24496000Y6506522D01*
X24496000Y6508808D01*
X25004000Y6508808D01*
X25007973Y6495277D01*
X25018580Y6493752D01*
X25136421Y6518477D01*
X25146617Y6521537D01*
X25351029Y6602263D01*
X25360561Y6606994D01*
X25548462Y6721016D01*
X25557052Y6727280D01*
X25723052Y6871327D01*
X25730472Y6878958D01*
X25869826Y7048911D01*
X25875848Y7057674D01*
X25891238Y7084711D01*
X25942320Y7134018D01*
X26011951Y7147880D01*
X26078022Y7121897D01*
X26105261Y7092747D01*
X26141131Y7039468D01*
X26187441Y6970681D01*
X26346576Y6803865D01*
X26531542Y6666246D01*
X26536293Y6663830D01*
X26536297Y6663828D01*
X26599481Y6631704D01*
X26737051Y6561760D01*
X26742145Y6560178D01*
X26742148Y6560177D01*
X26891419Y6513827D01*
X26957227Y6493393D01*
X26962516Y6492692D01*
X27180489Y6463802D01*
X27180494Y6463802D01*
X27185774Y6463102D01*
X27191103Y6463302D01*
X27191105Y6463302D01*
X27300966Y6467426D01*
X27416158Y6471751D01*
X27438802Y6476502D01*
X27592772Y6508808D01*
X27641791Y6519093D01*
X27646750Y6521051D01*
X27646752Y6521052D01*
X27851256Y6601815D01*
X27851258Y6601816D01*
X27856221Y6603776D01*
X27861525Y6606994D01*
X28048757Y6720610D01*
X28048756Y6720610D01*
X28053317Y6723377D01*
X28088607Y6754000D01*
X28223412Y6870977D01*
X28223414Y6870979D01*
X28227445Y6874477D01*
X28277874Y6935980D01*
X28370240Y7048627D01*
X28370244Y7048633D01*
X28373624Y7052755D01*
X28391552Y7084250D01*
X28442632Y7133555D01*
X28512262Y7147417D01*
X28578333Y7121434D01*
X28605573Y7092284D01*
X28610983Y7084248D01*
X28687441Y6970681D01*
X28846576Y6803865D01*
X29031542Y6666246D01*
X29036293Y6663830D01*
X29036297Y6663828D01*
X29099481Y6631704D01*
X29237051Y6561760D01*
X29242145Y6560178D01*
X29242148Y6560177D01*
X29391419Y6513827D01*
X29457227Y6493393D01*
X29462516Y6492692D01*
X29680489Y6463802D01*
X29680494Y6463802D01*
X29685774Y6463102D01*
X29691103Y6463302D01*
X29691105Y6463302D01*
X29800966Y6467426D01*
X29916158Y6471751D01*
X29938802Y6476502D01*
X30092772Y6508808D01*
X30141791Y6519093D01*
X30146750Y6521051D01*
X30146752Y6521052D01*
X30351256Y6601815D01*
X30351258Y6601816D01*
X30356221Y6603776D01*
X30361525Y6606994D01*
X30548757Y6720610D01*
X30548756Y6720610D01*
X30553317Y6723377D01*
X30588607Y6754000D01*
X30723412Y6870977D01*
X30723414Y6870979D01*
X30727445Y6874477D01*
X30777874Y6935980D01*
X30870240Y7048627D01*
X30870244Y7048633D01*
X30873624Y7052755D01*
X30891552Y7084250D01*
X30942632Y7133555D01*
X31012262Y7147417D01*
X31078333Y7121434D01*
X31105573Y7092284D01*
X31110983Y7084248D01*
X31187441Y6970681D01*
X31346576Y6803865D01*
X31531542Y6666246D01*
X31536293Y6663830D01*
X31536297Y6663828D01*
X31599481Y6631704D01*
X31737051Y6561760D01*
X31742145Y6560178D01*
X31742148Y6560177D01*
X31891419Y6513827D01*
X31957227Y6493393D01*
X31962516Y6492692D01*
X32180489Y6463802D01*
X32180494Y6463802D01*
X32185774Y6463102D01*
X32191103Y6463302D01*
X32191105Y6463302D01*
X32300966Y6467426D01*
X32416158Y6471751D01*
X32438802Y6476502D01*
X32592772Y6508808D01*
X32641791Y6519093D01*
X32646750Y6521051D01*
X32646752Y6521052D01*
X32851256Y6601815D01*
X32851258Y6601816D01*
X32856221Y6603776D01*
X32861525Y6606994D01*
X33048757Y6720610D01*
X33048756Y6720610D01*
X33053317Y6723377D01*
X33088607Y6754000D01*
X33223412Y6870977D01*
X33223414Y6870979D01*
X33227445Y6874477D01*
X33277874Y6935980D01*
X33370240Y7048627D01*
X33370244Y7048633D01*
X33373624Y7052755D01*
X33391552Y7084250D01*
X33442632Y7133555D01*
X33512262Y7147417D01*
X33578333Y7121434D01*
X33605573Y7092284D01*
X33610983Y7084248D01*
X33687441Y6970681D01*
X33846576Y6803865D01*
X34031542Y6666246D01*
X34036293Y6663830D01*
X34036297Y6663828D01*
X34099481Y6631704D01*
X34237051Y6561760D01*
X34242145Y6560178D01*
X34242148Y6560177D01*
X34391419Y6513827D01*
X34457227Y6493393D01*
X34462516Y6492692D01*
X34680489Y6463802D01*
X34680494Y6463802D01*
X34685774Y6463102D01*
X34691103Y6463302D01*
X34691105Y6463302D01*
X34800966Y6467426D01*
X34916158Y6471751D01*
X34938802Y6476502D01*
X35092772Y6508808D01*
X35141791Y6519093D01*
X35146750Y6521051D01*
X35146752Y6521052D01*
X35351256Y6601815D01*
X35351258Y6601816D01*
X35356221Y6603776D01*
X35361525Y6606994D01*
X35548757Y6720610D01*
X35548756Y6720610D01*
X35553317Y6723377D01*
X35588607Y6754000D01*
X35723412Y6870977D01*
X35723414Y6870979D01*
X35727445Y6874477D01*
X35777874Y6935980D01*
X35870240Y7048627D01*
X35870244Y7048633D01*
X35873624Y7052755D01*
X35884884Y7072535D01*
X35985032Y7248471D01*
X35987675Y7253114D01*
X36066337Y7469825D01*
X36069698Y7488410D01*
X36106623Y7692608D01*
X36106624Y7692615D01*
X36107361Y7696692D01*
X36108500Y7720844D01*
X36108500Y8132890D01*
X36093920Y8304720D01*
X36092582Y8309875D01*
X36092581Y8309881D01*
X36037343Y8522703D01*
X36037342Y8522707D01*
X36036001Y8527872D01*
X36026876Y8548130D01*
X35943507Y8733202D01*
X35941312Y8738075D01*
X35812559Y8929319D01*
X35804762Y8937493D01*
X35657103Y9092278D01*
X35653424Y9096135D01*
X35468458Y9233754D01*
X35463707Y9236170D01*
X35463703Y9236172D01*
X35345588Y9296224D01*
X35262949Y9338240D01*
X35257855Y9339822D01*
X35257852Y9339823D01*
X35047871Y9405024D01*
X35042773Y9406607D01*
X35037484Y9407308D01*
X34819511Y9436198D01*
X34819506Y9436198D01*
X34814226Y9436898D01*
X34808897Y9436698D01*
X34808895Y9436698D01*
X34699034Y9432573D01*
X34583842Y9428249D01*
X34578623Y9427154D01*
X34556566Y9422526D01*
X34358209Y9380907D01*
X34353250Y9378949D01*
X34353248Y9378948D01*
X34148744Y9298185D01*
X34148742Y9298184D01*
X34143779Y9296224D01*
X34139220Y9293457D01*
X34139217Y9293456D01*
X34044113Y9235745D01*
X33946683Y9176623D01*
X33942653Y9173126D01*
X33834868Y9079595D01*
X33772555Y9025523D01*
X33754881Y9003968D01*
X33629760Y8851373D01*
X33629756Y8851367D01*
X33626376Y8847245D01*
X33608448Y8815750D01*
X33557368Y8766445D01*
X33487738Y8752583D01*
X33421667Y8778566D01*
X33394427Y8807716D01*
X33365035Y8851373D01*
X33312559Y8929319D01*
X33304762Y8937493D01*
X33157103Y9092278D01*
X33153424Y9096135D01*
X32968458Y9233754D01*
X32963707Y9236170D01*
X32963703Y9236172D01*
X32845588Y9296224D01*
X32762949Y9338240D01*
X32757855Y9339822D01*
X32757852Y9339823D01*
X32547871Y9405024D01*
X32542773Y9406607D01*
X32537484Y9407308D01*
X32319511Y9436198D01*
X32319506Y9436198D01*
X32314226Y9436898D01*
X32308897Y9436698D01*
X32308895Y9436698D01*
X32199034Y9432573D01*
X32083842Y9428249D01*
X32078623Y9427154D01*
X32056566Y9422526D01*
X31858209Y9380907D01*
X31853250Y9378949D01*
X31853248Y9378948D01*
X31648744Y9298185D01*
X31648742Y9298184D01*
X31643779Y9296224D01*
X31639220Y9293457D01*
X31639217Y9293456D01*
X31544113Y9235745D01*
X31446683Y9176623D01*
X31442653Y9173126D01*
X31334868Y9079595D01*
X31272555Y9025523D01*
X31254881Y9003968D01*
X31129760Y8851373D01*
X31129756Y8851367D01*
X31126376Y8847245D01*
X31108448Y8815750D01*
X31057368Y8766445D01*
X30987738Y8752583D01*
X30921667Y8778566D01*
X30894427Y8807716D01*
X30865035Y8851373D01*
X30812559Y8929319D01*
X30804762Y8937493D01*
X30657103Y9092278D01*
X30653424Y9096135D01*
X30468458Y9233754D01*
X30463707Y9236170D01*
X30463703Y9236172D01*
X30345588Y9296224D01*
X30262949Y9338240D01*
X30257855Y9339822D01*
X30257852Y9339823D01*
X30047871Y9405024D01*
X30042773Y9406607D01*
X30037484Y9407308D01*
X29819511Y9436198D01*
X29819506Y9436198D01*
X29814226Y9436898D01*
X29808897Y9436698D01*
X29808895Y9436698D01*
X29699034Y9432573D01*
X29583842Y9428249D01*
X29578623Y9427154D01*
X29556566Y9422526D01*
X29358209Y9380907D01*
X29353250Y9378949D01*
X29353248Y9378948D01*
X29148744Y9298185D01*
X29148742Y9298184D01*
X29143779Y9296224D01*
X29139220Y9293457D01*
X29139217Y9293456D01*
X29044113Y9235745D01*
X28946683Y9176623D01*
X28942653Y9173126D01*
X28834868Y9079595D01*
X28772555Y9025523D01*
X28754881Y9003968D01*
X28629760Y8851373D01*
X28629756Y8851367D01*
X28626376Y8847245D01*
X28608448Y8815750D01*
X28557368Y8766445D01*
X28487738Y8752583D01*
X28421667Y8778566D01*
X28394427Y8807716D01*
X28365035Y8851373D01*
X28312559Y8929319D01*
X28304762Y8937493D01*
X28157103Y9092278D01*
X28153424Y9096135D01*
X27968458Y9233754D01*
X27963707Y9236170D01*
X27963703Y9236172D01*
X27845588Y9296224D01*
X27762949Y9338240D01*
X27757855Y9339822D01*
X27757852Y9339823D01*
X27547871Y9405024D01*
X27542773Y9406607D01*
X27537484Y9407308D01*
X27319511Y9436198D01*
X27319506Y9436198D01*
X27314226Y9436898D01*
X27308897Y9436698D01*
X27308895Y9436698D01*
X27199034Y9432573D01*
X27083842Y9428249D01*
X27078623Y9427154D01*
X27056566Y9422526D01*
X26858209Y9380907D01*
X26853250Y9378949D01*
X26853248Y9378948D01*
X26648744Y9298185D01*
X26648742Y9298184D01*
X26643779Y9296224D01*
X26639220Y9293457D01*
X26639217Y9293456D01*
X26544113Y9235745D01*
X26446683Y9176623D01*
X26442653Y9173126D01*
X26334868Y9079595D01*
X26272555Y9025523D01*
X26254881Y9003968D01*
X26129760Y8851373D01*
X26129756Y8851367D01*
X26126376Y8847245D01*
X26123738Y8842610D01*
X26123733Y8842602D01*
X26108171Y8815265D01*
X26057088Y8765959D01*
X25987458Y8752098D01*
X25921387Y8778082D01*
X25894149Y8807232D01*
X25815148Y8924578D01*
X25808481Y8932870D01*
X25656772Y9091900D01*
X25648814Y9098941D01*
X25472475Y9230141D01*
X25463438Y9235745D01*
X25267516Y9335357D01*
X25257665Y9339357D01*
X25047760Y9404534D01*
X25037376Y9406817D01*
X25021957Y9408861D01*
X25007793Y9406665D01*
X25004000Y9393478D01*
X25004000Y6508808D01*
X24496000Y6508808D01*
X24496000Y9391192D01*
X24492027Y9404723D01*
X24481420Y9406248D01*
X24363579Y9381523D01*
X24353383Y9378463D01*
X24148971Y9297737D01*
X24139439Y9293006D01*
X23951538Y9178984D01*
X23942948Y9172720D01*
X23776948Y9028673D01*
X23769530Y9021044D01*
X23743609Y8989431D01*
X23684949Y8949436D01*
X23613979Y8947504D01*
X23553230Y8984248D01*
X23539030Y9003018D01*
X23535296Y9009053D01*
X23448478Y9149348D01*
X23323303Y9274305D01*
X23292965Y9293006D01*
X23178968Y9363275D01*
X23178966Y9363276D01*
X23172738Y9367115D01*
X23059353Y9404723D01*
X23011389Y9420632D01*
X23011387Y9420632D01*
X23004861Y9422797D01*
X22998025Y9423497D01*
X22998022Y9423498D01*
X22954969Y9427909D01*
X22900400Y9433500D01*
X21599600Y9433500D01*
X21596354Y9433163D01*
X21596350Y9433163D01*
X21500692Y9423238D01*
X21500688Y9423237D01*
X21493834Y9422526D01*
X21487298Y9420345D01*
X21487296Y9420345D01*
X21360667Y9378098D01*
X21326054Y9366550D01*
X21175652Y9273478D01*
X21050695Y9148303D01*
X21046855Y9142073D01*
X21046854Y9142072D01*
X20964860Y9009053D01*
X20957885Y8997738D01*
X20955581Y8990791D01*
X20906432Y8842610D01*
X20902203Y8829861D01*
X20901503Y8823025D01*
X20901502Y8823022D01*
X20897091Y8779969D01*
X20891500Y8725400D01*
X20891500Y7174600D01*
X18304318Y7174600D01*
X18311089Y7196886D01*
X18330865Y7261977D01*
X18330865Y7261979D01*
X18332370Y7266931D01*
X18361529Y7488410D01*
X18363156Y7555000D01*
X18344852Y7777639D01*
X18290431Y7994298D01*
X18201354Y8199160D01*
X18080014Y8386723D01*
X17929670Y8551949D01*
X17925619Y8555148D01*
X17925615Y8555152D01*
X17758414Y8687200D01*
X17758410Y8687202D01*
X17754359Y8690402D01*
X17558789Y8798362D01*
X17553920Y8800086D01*
X17553916Y8800088D01*
X17353087Y8871205D01*
X17353083Y8871206D01*
X17348212Y8872931D01*
X17343119Y8873838D01*
X17343116Y8873839D01*
X17133373Y8911200D01*
X17133367Y8911201D01*
X17128284Y8912106D01*
X17054452Y8913008D01*
X16910081Y8914772D01*
X16910079Y8914772D01*
X16904911Y8914835D01*
X16684091Y8881045D01*
X16471756Y8811643D01*
X16273607Y8708493D01*
X16269474Y8705390D01*
X16269471Y8705388D01*
X16099100Y8577470D01*
X16094965Y8574365D01*
X15940629Y8412862D01*
X15814743Y8228320D01*
X15799003Y8194410D01*
X15739311Y8065814D01*
X15720688Y8025695D01*
X15660989Y7810430D01*
X15637251Y7588305D01*
X15637548Y7583152D01*
X15637548Y7583149D01*
X15648029Y7401373D01*
X15650110Y7365285D01*
X15651247Y7360239D01*
X15651248Y7360233D01*
X15667510Y7288075D01*
X15699222Y7147361D01*
X15783266Y6940384D01*
X15809374Y6897780D01*
X15894841Y6758310D01*
X15899987Y6749912D01*
X16046250Y6581062D01*
X16218126Y6438368D01*
X16288595Y6397189D01*
X16291445Y6395524D01*
X16340169Y6343886D01*
X16353240Y6274103D01*
X16326509Y6208331D01*
X16286055Y6174973D01*
X16273607Y6168493D01*
X16269474Y6165390D01*
X16269471Y6165388D01*
X16245247Y6147200D01*
X16094965Y6034365D01*
X15940629Y5872862D01*
X15814743Y5688320D01*
X15799003Y5654410D01*
X15735137Y5516822D01*
X15720688Y5485695D01*
X15660989Y5270430D01*
X15637251Y5048305D01*
X14860418Y5048305D01*
X14844852Y5237639D01*
X14790431Y5454298D01*
X14701354Y5659160D01*
X14604841Y5808346D01*
X14582822Y5842383D01*
X14582820Y5842386D01*
X14580014Y5846723D01*
X14429670Y6011949D01*
X14425619Y6015148D01*
X14425615Y6015152D01*
X14258414Y6147200D01*
X14258410Y6147202D01*
X14254359Y6150402D01*
X14213053Y6173204D01*
X14163084Y6223636D01*
X14148312Y6293079D01*
X14173428Y6359484D01*
X14200780Y6386091D01*
X14244603Y6417350D01*
X14379860Y6513827D01*
X14384527Y6518477D01*
X14492120Y6625695D01*
X14538096Y6671511D01*
X14597594Y6754311D01*
X14665435Y6848723D01*
X14668453Y6852923D01*
X14671851Y6859797D01*
X14765136Y7048547D01*
X14765137Y7048549D01*
X14767430Y7053189D01*
X14811089Y7196886D01*
X14830865Y7261977D01*
X14830865Y7261979D01*
X14832370Y7266931D01*
X14861529Y7488410D01*
X14863156Y7555000D01*
X14844852Y7777639D01*
X14790431Y7994298D01*
X14701354Y8199160D01*
X14580014Y8386723D01*
X14429670Y8551949D01*
X14425619Y8555148D01*
X14425615Y8555152D01*
X14258414Y8687200D01*
X14258410Y8687202D01*
X14254359Y8690402D01*
X14058789Y8798362D01*
X14053920Y8800086D01*
X14053916Y8800088D01*
X13853087Y8871205D01*
X13853083Y8871206D01*
X13848212Y8872931D01*
X13843119Y8873838D01*
X13843116Y8873839D01*
X13633373Y8911200D01*
X13633367Y8911201D01*
X13628284Y8912106D01*
X13554452Y8913008D01*
X13410081Y8914772D01*
X13410079Y8914772D01*
X13404911Y8914835D01*
X13184091Y8881045D01*
X12971756Y8811643D01*
X12773607Y8708493D01*
X12769474Y8705390D01*
X12769471Y8705388D01*
X12599100Y8577470D01*
X12594965Y8574365D01*
X12440629Y8412862D01*
X12314743Y8228320D01*
X12299003Y8194410D01*
X12239311Y8065814D01*
X12220688Y8025695D01*
X12160989Y7810430D01*
X12137251Y7588305D01*
X12137548Y7583152D01*
X12137548Y7583149D01*
X12148029Y7401373D01*
X12150110Y7365285D01*
X12151247Y7360239D01*
X12151248Y7360233D01*
X12167510Y7288075D01*
X12199222Y7147361D01*
X12283266Y6940384D01*
X12309374Y6897780D01*
X12394841Y6758310D01*
X12399987Y6749912D01*
X12546250Y6581062D01*
X12718126Y6438368D01*
X12788595Y6397189D01*
X12791445Y6395524D01*
X12840169Y6343886D01*
X12853240Y6274103D01*
X12826509Y6208331D01*
X12786055Y6174973D01*
X12773607Y6168493D01*
X12769474Y6165390D01*
X12769471Y6165388D01*
X12745247Y6147200D01*
X12594965Y6034365D01*
X12440629Y5872862D01*
X12314743Y5688320D01*
X12299003Y5654410D01*
X12235137Y5516822D01*
X12220688Y5485695D01*
X12160989Y5270430D01*
X12137251Y5048305D01*
X11360418Y5048305D01*
X11344852Y5237639D01*
X11290431Y5454298D01*
X11201354Y5659160D01*
X11104841Y5808346D01*
X11082822Y5842383D01*
X11082820Y5842386D01*
X11080014Y5846723D01*
X10929670Y6011949D01*
X10925619Y6015148D01*
X10925615Y6015152D01*
X10758414Y6147200D01*
X10758410Y6147202D01*
X10754359Y6150402D01*
X10713053Y6173204D01*
X10663084Y6223636D01*
X10648312Y6293079D01*
X10673428Y6359484D01*
X10700780Y6386091D01*
X10744603Y6417350D01*
X10879860Y6513827D01*
X10884527Y6518477D01*
X10992120Y6625695D01*
X11038096Y6671511D01*
X11097594Y6754311D01*
X11165435Y6848723D01*
X11168453Y6852923D01*
X11171851Y6859797D01*
X11265136Y7048547D01*
X11265137Y7048549D01*
X11267430Y7053189D01*
X11311089Y7196886D01*
X11330865Y7261977D01*
X11330865Y7261979D01*
X11332370Y7266931D01*
X11361529Y7488410D01*
X11363156Y7555000D01*
X11344852Y7777639D01*
X11290431Y7994298D01*
X11201354Y8199160D01*
X11080014Y8386723D01*
X10929670Y8551949D01*
X10925619Y8555148D01*
X10925615Y8555152D01*
X10758414Y8687200D01*
X10758410Y8687202D01*
X10754359Y8690402D01*
X10558789Y8798362D01*
X10553920Y8800086D01*
X10553916Y8800088D01*
X10353087Y8871205D01*
X10353083Y8871206D01*
X10348212Y8872931D01*
X10343119Y8873838D01*
X10343116Y8873839D01*
X10133373Y8911200D01*
X10133367Y8911201D01*
X10128284Y8912106D01*
X10054452Y8913008D01*
X9910081Y8914772D01*
X9910079Y8914772D01*
X9904911Y8914835D01*
X9684091Y8881045D01*
X9471756Y8811643D01*
X9273607Y8708493D01*
X9269474Y8705390D01*
X9269471Y8705388D01*
X9099100Y8577470D01*
X9094965Y8574365D01*
X8940629Y8412862D01*
X8814743Y8228320D01*
X8799003Y8194410D01*
X8739311Y8065814D01*
X8720688Y8025695D01*
X8660989Y7810430D01*
X8637251Y7588305D01*
X8637548Y7583152D01*
X8637548Y7583149D01*
X8648029Y7401373D01*
X8650110Y7365285D01*
X8651247Y7360239D01*
X8651248Y7360233D01*
X8667510Y7288075D01*
X8699222Y7147361D01*
X8783266Y6940384D01*
X8809374Y6897780D01*
X8894841Y6758310D01*
X8899987Y6749912D01*
X9046250Y6581062D01*
X9218126Y6438368D01*
X9288595Y6397189D01*
X9291445Y6395524D01*
X9340169Y6343886D01*
X9353240Y6274103D01*
X9326509Y6208331D01*
X9286055Y6174973D01*
X9273607Y6168493D01*
X9269474Y6165390D01*
X9269471Y6165388D01*
X9245247Y6147200D01*
X9094965Y6034365D01*
X8940629Y5872862D01*
X8814743Y5688320D01*
X8799003Y5654410D01*
X8735137Y5516822D01*
X8720688Y5485695D01*
X8660989Y5270430D01*
X8637251Y5048305D01*
X5500000Y5048305D01*
X5500000Y5500000D01*
X634500Y5500000D01*
X566379Y5520002D01*
X519886Y5573658D01*
X508500Y5626000D01*
X508500Y13610000D01*
X5594647Y13610000D01*
X5614022Y13388537D01*
X5671560Y13173804D01*
X5673882Y13168823D01*
X5673883Y13168822D01*
X5763186Y12977311D01*
X5763189Y12977306D01*
X5765512Y12972324D01*
X5768668Y12967817D01*
X5768669Y12967815D01*
X5830799Y12879085D01*
X5893023Y12790219D01*
X6050219Y12633023D01*
X6054727Y12629866D01*
X6054730Y12629864D01*
X6086625Y12607531D01*
X6232323Y12505512D01*
X6237305Y12503189D01*
X6237310Y12503186D01*
X6427810Y12414355D01*
X6433804Y12411560D01*
X6439112Y12410138D01*
X6439114Y12410137D01*
X6476838Y12400029D01*
X6648537Y12354022D01*
X6870000Y12334647D01*
X7091463Y12354022D01*
X7263162Y12400029D01*
X7300886Y12410137D01*
X7300888Y12410138D01*
X7306196Y12411560D01*
X7312190Y12414355D01*
X7502690Y12503186D01*
X7502695Y12503189D01*
X7507677Y12505512D01*
X7653375Y12607531D01*
X7685270Y12629864D01*
X7685273Y12629866D01*
X7689781Y12633023D01*
X7846977Y12790219D01*
X7909202Y12879085D01*
X7971331Y12967815D01*
X7971332Y12967817D01*
X7974488Y12972324D01*
X7976811Y12977306D01*
X7976814Y12977311D01*
X8025805Y13082373D01*
X8072723Y13135658D01*
X8141000Y13155119D01*
X8208960Y13134577D01*
X8254195Y13082373D01*
X8303186Y12977311D01*
X8303189Y12977306D01*
X8305512Y12972324D01*
X8308668Y12967817D01*
X8308669Y12967815D01*
X8370799Y12879085D01*
X8433023Y12790219D01*
X8590219Y12633023D01*
X8594727Y12629866D01*
X8594730Y12629864D01*
X8626625Y12607531D01*
X8772323Y12505512D01*
X8777305Y12503189D01*
X8777310Y12503186D01*
X8967810Y12414355D01*
X8973804Y12411560D01*
X8979112Y12410138D01*
X8979114Y12410137D01*
X9016838Y12400029D01*
X9188537Y12354022D01*
X9410000Y12334647D01*
X9631463Y12354022D01*
X9803162Y12400029D01*
X9840886Y12410137D01*
X9840888Y12410138D01*
X9846196Y12411560D01*
X9852190Y12414355D01*
X10042690Y12503186D01*
X10042695Y12503189D01*
X10047677Y12505512D01*
X10112959Y12551223D01*
X11255777Y12551223D01*
X11265074Y12539207D01*
X11308069Y12509102D01*
X11317555Y12503624D01*
X11508993Y12414355D01*
X11519285Y12410609D01*
X11723309Y12355941D01*
X11734104Y12354038D01*
X11944525Y12335628D01*
X11955475Y12335628D01*
X12165896Y12354038D01*
X12176691Y12355941D01*
X12380715Y12410609D01*
X12391007Y12414355D01*
X12582445Y12503624D01*
X12591931Y12509102D01*
X12635764Y12539793D01*
X12644139Y12550271D01*
X12637071Y12563719D01*
X11962812Y13237978D01*
X11948868Y13245592D01*
X11947035Y13245461D01*
X11940420Y13241210D01*
X11262207Y12562997D01*
X11255777Y12551223D01*
X10112959Y12551223D01*
X10193375Y12607531D01*
X10225270Y12629864D01*
X10225273Y12629866D01*
X10229781Y12633023D01*
X10386977Y12790219D01*
X10449202Y12879085D01*
X10511331Y12967815D01*
X10511332Y12967817D01*
X10514488Y12972324D01*
X10516811Y12977306D01*
X10516814Y12977311D01*
X10566081Y13082965D01*
X10612999Y13136250D01*
X10681276Y13155711D01*
X10749236Y13135169D01*
X10794471Y13082965D01*
X10843623Y12977559D01*
X10849103Y12968068D01*
X10879794Y12924235D01*
X10890271Y12915860D01*
X10903718Y12922928D01*
X11577978Y13597188D01*
X11584356Y13608868D01*
X12314408Y13608868D01*
X12314539Y13607035D01*
X12318790Y13600420D01*
X12997003Y12922207D01*
X13008777Y12915777D01*
X13020793Y12925074D01*
X13050897Y12968068D01*
X13056377Y12977559D01*
X13105529Y13082965D01*
X13152447Y13136250D01*
X13220724Y13155711D01*
X13288684Y13135169D01*
X13333919Y13082965D01*
X13383186Y12977311D01*
X13383189Y12977306D01*
X13385512Y12972324D01*
X13388668Y12967817D01*
X13388669Y12967815D01*
X13450799Y12879085D01*
X13513023Y12790219D01*
X13670219Y12633023D01*
X13674727Y12629866D01*
X13674730Y12629864D01*
X13706625Y12607531D01*
X13852323Y12505512D01*
X13857305Y12503189D01*
X13857310Y12503186D01*
X14047810Y12414355D01*
X14053804Y12411560D01*
X14059112Y12410138D01*
X14059114Y12410137D01*
X14096838Y12400029D01*
X14268537Y12354022D01*
X14490000Y12334647D01*
X14711463Y12354022D01*
X14883162Y12400029D01*
X14920886Y12410137D01*
X14920888Y12410138D01*
X14926196Y12411560D01*
X14932190Y12414355D01*
X15122690Y12503186D01*
X15122695Y12503189D01*
X15127677Y12505512D01*
X15273375Y12607531D01*
X15305270Y12629864D01*
X15305273Y12629866D01*
X15309781Y12633023D01*
X15466977Y12790219D01*
X15529202Y12879085D01*
X15591331Y12967815D01*
X15591332Y12967817D01*
X15594488Y12972324D01*
X15596811Y12977306D01*
X15596814Y12977311D01*
X15645805Y13082373D01*
X15692723Y13135658D01*
X15761000Y13155119D01*
X15828960Y13134577D01*
X15874195Y13082373D01*
X15923186Y12977311D01*
X15923189Y12977306D01*
X15925512Y12972324D01*
X15928668Y12967817D01*
X15928669Y12967815D01*
X15990799Y12879085D01*
X16053023Y12790219D01*
X16210219Y12633023D01*
X16214727Y12629866D01*
X16214730Y12629864D01*
X16246625Y12607531D01*
X16392323Y12505512D01*
X16397305Y12503189D01*
X16397310Y12503186D01*
X16587810Y12414355D01*
X16593804Y12411560D01*
X16599112Y12410138D01*
X16599114Y12410137D01*
X16636838Y12400029D01*
X16808537Y12354022D01*
X17030000Y12334647D01*
X17251463Y12354022D01*
X17423162Y12400029D01*
X17460886Y12410137D01*
X17460888Y12410138D01*
X17466196Y12411560D01*
X17472190Y12414355D01*
X17662690Y12503186D01*
X17662695Y12503189D01*
X17667677Y12505512D01*
X17813375Y12607531D01*
X17845270Y12629864D01*
X17845273Y12629866D01*
X17849781Y12633023D01*
X18006977Y12790219D01*
X18069202Y12879085D01*
X18131331Y12967815D01*
X18131332Y12967817D01*
X18134488Y12972324D01*
X18136811Y12977306D01*
X18136814Y12977311D01*
X18185805Y13082373D01*
X18232723Y13135658D01*
X18301000Y13155119D01*
X18368960Y13134577D01*
X18414195Y13082373D01*
X18463186Y12977311D01*
X18463189Y12977306D01*
X18465512Y12972324D01*
X18468668Y12967817D01*
X18468669Y12967815D01*
X18530799Y12879085D01*
X18593023Y12790219D01*
X18750219Y12633023D01*
X18754727Y12629866D01*
X18754730Y12629864D01*
X18786625Y12607531D01*
X18932323Y12505512D01*
X18937305Y12503189D01*
X18937310Y12503186D01*
X19127810Y12414355D01*
X19133804Y12411560D01*
X19139112Y12410138D01*
X19139114Y12410137D01*
X19176838Y12400029D01*
X19348537Y12354022D01*
X19570000Y12334647D01*
X19791463Y12354022D01*
X19963162Y12400029D01*
X20000886Y12410137D01*
X20000888Y12410138D01*
X20006196Y12411560D01*
X20012190Y12414355D01*
X20202690Y12503186D01*
X20202695Y12503189D01*
X20207677Y12505512D01*
X20353375Y12607531D01*
X20385270Y12629864D01*
X20385273Y12629866D01*
X20389781Y12633023D01*
X20546977Y12790219D01*
X20609202Y12879085D01*
X20671331Y12967815D01*
X20671332Y12967817D01*
X20674488Y12972324D01*
X20676811Y12977306D01*
X20676814Y12977311D01*
X20725805Y13082373D01*
X20772723Y13135658D01*
X20841000Y13155119D01*
X20908960Y13134577D01*
X20954195Y13082373D01*
X21003186Y12977311D01*
X21003189Y12977306D01*
X21005512Y12972324D01*
X21008668Y12967817D01*
X21008669Y12967815D01*
X21070799Y12879085D01*
X21133023Y12790219D01*
X21290219Y12633023D01*
X21294727Y12629866D01*
X21294730Y12629864D01*
X21326625Y12607531D01*
X21472323Y12505512D01*
X21477305Y12503189D01*
X21477310Y12503186D01*
X21667810Y12414355D01*
X21673804Y12411560D01*
X21679112Y12410138D01*
X21679114Y12410137D01*
X21716838Y12400029D01*
X21888537Y12354022D01*
X22110000Y12334647D01*
X22331463Y12354022D01*
X22503162Y12400029D01*
X22540886Y12410137D01*
X22540888Y12410138D01*
X22546196Y12411560D01*
X22552190Y12414355D01*
X22742690Y12503186D01*
X22742695Y12503189D01*
X22747677Y12505512D01*
X22812959Y12551223D01*
X23955777Y12551223D01*
X23965074Y12539207D01*
X24008069Y12509102D01*
X24017555Y12503624D01*
X24208993Y12414355D01*
X24219285Y12410609D01*
X24423309Y12355941D01*
X24434104Y12354038D01*
X24644525Y12335628D01*
X24655475Y12335628D01*
X24865896Y12354038D01*
X24876691Y12355941D01*
X25080715Y12410609D01*
X25091007Y12414355D01*
X25282445Y12503624D01*
X25291931Y12509102D01*
X25335764Y12539793D01*
X25344139Y12550271D01*
X25337071Y12563719D01*
X24662812Y13237978D01*
X24648868Y13245592D01*
X24647035Y13245461D01*
X24640420Y13241210D01*
X23962207Y12562997D01*
X23955777Y12551223D01*
X22812959Y12551223D01*
X22893375Y12607531D01*
X22925270Y12629864D01*
X22925273Y12629866D01*
X22929781Y12633023D01*
X23086977Y12790219D01*
X23149202Y12879085D01*
X23211331Y12967815D01*
X23211332Y12967817D01*
X23214488Y12972324D01*
X23216811Y12977306D01*
X23216814Y12977311D01*
X23266081Y13082965D01*
X23312999Y13136250D01*
X23381276Y13155711D01*
X23449236Y13135169D01*
X23494471Y13082965D01*
X23543623Y12977559D01*
X23549103Y12968068D01*
X23579794Y12924235D01*
X23590271Y12915860D01*
X23603718Y12922928D01*
X24277978Y13597188D01*
X24284356Y13608868D01*
X25014408Y13608868D01*
X25014539Y13607035D01*
X25018790Y13600420D01*
X25697003Y12922207D01*
X25708777Y12915777D01*
X25720793Y12925074D01*
X25750897Y12968068D01*
X25756377Y12977559D01*
X25805529Y13082965D01*
X25852447Y13136250D01*
X25920724Y13155711D01*
X25988684Y13135169D01*
X26033919Y13082965D01*
X26083186Y12977311D01*
X26083189Y12977306D01*
X26085512Y12972324D01*
X26088668Y12967817D01*
X26088669Y12967815D01*
X26150799Y12879085D01*
X26213023Y12790219D01*
X26370219Y12633023D01*
X26374727Y12629866D01*
X26374730Y12629864D01*
X26406625Y12607531D01*
X26552323Y12505512D01*
X26557305Y12503189D01*
X26557310Y12503186D01*
X26747810Y12414355D01*
X26753804Y12411560D01*
X26759112Y12410138D01*
X26759114Y12410137D01*
X26796838Y12400029D01*
X26968537Y12354022D01*
X27190000Y12334647D01*
X27411463Y12354022D01*
X27583162Y12400029D01*
X27620886Y12410137D01*
X27620888Y12410138D01*
X27626196Y12411560D01*
X27632190Y12414355D01*
X27822690Y12503186D01*
X27822695Y12503189D01*
X27827677Y12505512D01*
X27973375Y12607531D01*
X28005270Y12629864D01*
X28005273Y12629866D01*
X28009781Y12633023D01*
X28166977Y12790219D01*
X28229202Y12879085D01*
X28291331Y12967815D01*
X28291332Y12967817D01*
X28294488Y12972324D01*
X28296811Y12977306D01*
X28296814Y12977311D01*
X28345805Y13082373D01*
X28392723Y13135658D01*
X28461000Y13155119D01*
X28528960Y13134577D01*
X28574195Y13082373D01*
X28623186Y12977311D01*
X28623189Y12977306D01*
X28625512Y12972324D01*
X28628668Y12967817D01*
X28628669Y12967815D01*
X28690799Y12879085D01*
X28753023Y12790219D01*
X28910219Y12633023D01*
X28914727Y12629866D01*
X28914730Y12629864D01*
X28946625Y12607531D01*
X29092323Y12505512D01*
X29097305Y12503189D01*
X29097310Y12503186D01*
X29287810Y12414355D01*
X29293804Y12411560D01*
X29299112Y12410138D01*
X29299114Y12410137D01*
X29336838Y12400029D01*
X29508537Y12354022D01*
X29730000Y12334647D01*
X29951463Y12354022D01*
X30123162Y12400029D01*
X30160886Y12410137D01*
X30160888Y12410138D01*
X30166196Y12411560D01*
X30172190Y12414355D01*
X30362690Y12503186D01*
X30362695Y12503189D01*
X30367677Y12505512D01*
X30513375Y12607531D01*
X30545270Y12629864D01*
X30545273Y12629866D01*
X30549781Y12633023D01*
X30706977Y12790219D01*
X30769202Y12879085D01*
X30831331Y12967815D01*
X30831332Y12967817D01*
X30834488Y12972324D01*
X30836811Y12977306D01*
X30836814Y12977311D01*
X30885805Y13082373D01*
X30932723Y13135658D01*
X31001000Y13155119D01*
X31068960Y13134577D01*
X31114195Y13082373D01*
X31163186Y12977311D01*
X31163189Y12977306D01*
X31165512Y12972324D01*
X31168668Y12967817D01*
X31168669Y12967815D01*
X31230799Y12879085D01*
X31293023Y12790219D01*
X31450219Y12633023D01*
X31454727Y12629866D01*
X31454730Y12629864D01*
X31486625Y12607531D01*
X31632323Y12505512D01*
X31637305Y12503189D01*
X31637310Y12503186D01*
X31827810Y12414355D01*
X31833804Y12411560D01*
X31839112Y12410138D01*
X31839114Y12410137D01*
X31876838Y12400029D01*
X32048537Y12354022D01*
X32270000Y12334647D01*
X32491463Y12354022D01*
X32663162Y12400029D01*
X32700886Y12410137D01*
X32700888Y12410138D01*
X32706196Y12411560D01*
X32712190Y12414355D01*
X32902690Y12503186D01*
X32902695Y12503189D01*
X32907677Y12505512D01*
X33053375Y12607531D01*
X33085270Y12629864D01*
X33085273Y12629866D01*
X33089781Y12633023D01*
X33246977Y12790219D01*
X33309202Y12879085D01*
X33371331Y12967815D01*
X33371332Y12967817D01*
X33374488Y12972324D01*
X33376811Y12977306D01*
X33376814Y12977311D01*
X33425805Y13082373D01*
X33472723Y13135658D01*
X33541000Y13155119D01*
X33608960Y13134577D01*
X33654195Y13082373D01*
X33703186Y12977311D01*
X33703189Y12977306D01*
X33705512Y12972324D01*
X33708668Y12967817D01*
X33708669Y12967815D01*
X33770799Y12879085D01*
X33833023Y12790219D01*
X33990219Y12633023D01*
X33994727Y12629866D01*
X33994730Y12629864D01*
X34026625Y12607531D01*
X34172323Y12505512D01*
X34177305Y12503189D01*
X34177310Y12503186D01*
X34367810Y12414355D01*
X34373804Y12411560D01*
X34379112Y12410138D01*
X34379114Y12410137D01*
X34416838Y12400029D01*
X34588537Y12354022D01*
X34810000Y12334647D01*
X35031463Y12354022D01*
X35203162Y12400029D01*
X35240886Y12410137D01*
X35240888Y12410138D01*
X35246196Y12411560D01*
X35252190Y12414355D01*
X35442690Y12503186D01*
X35442695Y12503189D01*
X35447677Y12505512D01*
X35512959Y12551223D01*
X36655777Y12551223D01*
X36665074Y12539207D01*
X36708069Y12509102D01*
X36717555Y12503624D01*
X36908993Y12414355D01*
X36919285Y12410609D01*
X37123309Y12355941D01*
X37134104Y12354038D01*
X37344525Y12335628D01*
X37355475Y12335628D01*
X37565896Y12354038D01*
X37576691Y12355941D01*
X37780715Y12410609D01*
X37791007Y12414355D01*
X37982445Y12503624D01*
X37991931Y12509102D01*
X38035764Y12539793D01*
X38044139Y12550271D01*
X38037071Y12563719D01*
X37362812Y13237978D01*
X37348868Y13245592D01*
X37347035Y13245461D01*
X37340420Y13241210D01*
X36662207Y12562997D01*
X36655777Y12551223D01*
X35512959Y12551223D01*
X35593375Y12607531D01*
X35625270Y12629864D01*
X35625273Y12629866D01*
X35629781Y12633023D01*
X35786977Y12790219D01*
X35849202Y12879085D01*
X35911331Y12967815D01*
X35911332Y12967817D01*
X35914488Y12972324D01*
X35916811Y12977306D01*
X35916814Y12977311D01*
X35966081Y13082965D01*
X36012999Y13136250D01*
X36081276Y13155711D01*
X36149236Y13135169D01*
X36194471Y13082965D01*
X36243623Y12977559D01*
X36249103Y12968068D01*
X36279794Y12924235D01*
X36290271Y12915860D01*
X36303718Y12922928D01*
X36977978Y13597188D01*
X36984356Y13608868D01*
X37714408Y13608868D01*
X37714539Y13607035D01*
X37718790Y13600420D01*
X38397003Y12922207D01*
X38408777Y12915777D01*
X38420793Y12925074D01*
X38450897Y12968068D01*
X38456377Y12977559D01*
X38505529Y13082965D01*
X38552447Y13136250D01*
X38620724Y13155711D01*
X38688684Y13135169D01*
X38733919Y13082965D01*
X38783186Y12977311D01*
X38783189Y12977306D01*
X38785512Y12972324D01*
X38788668Y12967817D01*
X38788669Y12967815D01*
X38850799Y12879085D01*
X38913023Y12790219D01*
X39070219Y12633023D01*
X39074727Y12629866D01*
X39074730Y12629864D01*
X39106625Y12607531D01*
X39252323Y12505512D01*
X39257305Y12503189D01*
X39257310Y12503186D01*
X39447810Y12414355D01*
X39453804Y12411560D01*
X39459112Y12410138D01*
X39459114Y12410137D01*
X39496838Y12400029D01*
X39668537Y12354022D01*
X39890000Y12334647D01*
X40111463Y12354022D01*
X40283162Y12400029D01*
X40320886Y12410137D01*
X40320888Y12410138D01*
X40326196Y12411560D01*
X40332190Y12414355D01*
X40522690Y12503186D01*
X40522695Y12503189D01*
X40527677Y12505512D01*
X40673375Y12607531D01*
X40705270Y12629864D01*
X40705273Y12629866D01*
X40709781Y12633023D01*
X40866977Y12790219D01*
X40929202Y12879085D01*
X40991331Y12967815D01*
X40991332Y12967817D01*
X40994488Y12972324D01*
X40996811Y12977306D01*
X40996814Y12977311D01*
X41045805Y13082373D01*
X41092723Y13135658D01*
X41161000Y13155119D01*
X41228960Y13134577D01*
X41274195Y13082373D01*
X41323186Y12977311D01*
X41323189Y12977306D01*
X41325512Y12972324D01*
X41328668Y12967817D01*
X41328669Y12967815D01*
X41390799Y12879085D01*
X41453023Y12790219D01*
X41610219Y12633023D01*
X41614727Y12629866D01*
X41614730Y12629864D01*
X41646625Y12607531D01*
X41792323Y12505512D01*
X41797305Y12503189D01*
X41797310Y12503186D01*
X41987810Y12414355D01*
X41993804Y12411560D01*
X41999112Y12410138D01*
X41999114Y12410137D01*
X42036838Y12400029D01*
X42208537Y12354022D01*
X42430000Y12334647D01*
X42651463Y12354022D01*
X42823162Y12400029D01*
X42860886Y12410137D01*
X42860888Y12410138D01*
X42866196Y12411560D01*
X42872190Y12414355D01*
X43062690Y12503186D01*
X43062695Y12503189D01*
X43067677Y12505512D01*
X43213375Y12607531D01*
X43245270Y12629864D01*
X43245273Y12629866D01*
X43249781Y12633023D01*
X43406977Y12790219D01*
X43469202Y12879085D01*
X43531331Y12967815D01*
X43531332Y12967817D01*
X43534488Y12972324D01*
X43536811Y12977306D01*
X43536814Y12977311D01*
X43585805Y13082373D01*
X43632723Y13135658D01*
X43701000Y13155119D01*
X43768960Y13134577D01*
X43814195Y13082373D01*
X43863186Y12977311D01*
X43863189Y12977306D01*
X43865512Y12972324D01*
X43868668Y12967817D01*
X43868669Y12967815D01*
X43930799Y12879085D01*
X43993023Y12790219D01*
X44150219Y12633023D01*
X44154727Y12629866D01*
X44154730Y12629864D01*
X44186625Y12607531D01*
X44332323Y12505512D01*
X44337305Y12503189D01*
X44337310Y12503186D01*
X44527810Y12414355D01*
X44533804Y12411560D01*
X44539112Y12410138D01*
X44539114Y12410137D01*
X44576838Y12400029D01*
X44748537Y12354022D01*
X44970000Y12334647D01*
X45191463Y12354022D01*
X45363162Y12400029D01*
X45400886Y12410137D01*
X45400888Y12410138D01*
X45406196Y12411560D01*
X45412190Y12414355D01*
X45602690Y12503186D01*
X45602695Y12503189D01*
X45607677Y12505512D01*
X45753375Y12607531D01*
X45785270Y12629864D01*
X45785273Y12629866D01*
X45789781Y12633023D01*
X45946977Y12790219D01*
X46009202Y12879085D01*
X46071331Y12967815D01*
X46071332Y12967817D01*
X46074488Y12972324D01*
X46076811Y12977306D01*
X46076814Y12977311D01*
X46125805Y13082373D01*
X46172723Y13135658D01*
X46241000Y13155119D01*
X46308960Y13134577D01*
X46354195Y13082373D01*
X46403186Y12977311D01*
X46403189Y12977306D01*
X46405512Y12972324D01*
X46408668Y12967817D01*
X46408669Y12967815D01*
X46470799Y12879085D01*
X46533023Y12790219D01*
X46690219Y12633023D01*
X46694727Y12629866D01*
X46694730Y12629864D01*
X46726625Y12607531D01*
X46872323Y12505512D01*
X46877305Y12503189D01*
X46877310Y12503186D01*
X47067810Y12414355D01*
X47073804Y12411560D01*
X47079112Y12410138D01*
X47079114Y12410137D01*
X47116838Y12400029D01*
X47288537Y12354022D01*
X47510000Y12334647D01*
X47731463Y12354022D01*
X47903162Y12400029D01*
X47940886Y12410137D01*
X47940888Y12410138D01*
X47946196Y12411560D01*
X47952190Y12414355D01*
X48142690Y12503186D01*
X48142695Y12503189D01*
X48147677Y12505512D01*
X48212959Y12551223D01*
X49355777Y12551223D01*
X49365074Y12539207D01*
X49408069Y12509102D01*
X49417555Y12503624D01*
X49608993Y12414355D01*
X49619285Y12410609D01*
X49823309Y12355941D01*
X49834104Y12354038D01*
X50044525Y12335628D01*
X50055475Y12335628D01*
X50265896Y12354038D01*
X50276691Y12355941D01*
X50480715Y12410609D01*
X50491007Y12414355D01*
X50682445Y12503624D01*
X50691931Y12509102D01*
X50735764Y12539793D01*
X50744139Y12550271D01*
X50737071Y12563719D01*
X50062812Y13237978D01*
X50048868Y13245592D01*
X50047035Y13245461D01*
X50040420Y13241210D01*
X49362207Y12562997D01*
X49355777Y12551223D01*
X48212959Y12551223D01*
X48293375Y12607531D01*
X48325270Y12629864D01*
X48325273Y12629866D01*
X48329781Y12633023D01*
X48486977Y12790219D01*
X48549202Y12879085D01*
X48611331Y12967815D01*
X48611332Y12967817D01*
X48614488Y12972324D01*
X48616811Y12977306D01*
X48616814Y12977311D01*
X48666081Y13082965D01*
X48712999Y13136250D01*
X48781276Y13155711D01*
X48849236Y13135169D01*
X48894471Y13082965D01*
X48943623Y12977559D01*
X48949103Y12968068D01*
X48979794Y12924235D01*
X48990271Y12915860D01*
X49003718Y12922928D01*
X49677978Y13597188D01*
X49685592Y13611132D01*
X49685461Y13612965D01*
X49681210Y13619580D01*
X49002997Y14297793D01*
X48991223Y14304223D01*
X48979207Y14294926D01*
X48949103Y14251932D01*
X48943623Y14242441D01*
X48894471Y14137035D01*
X48847553Y14083750D01*
X48779276Y14064289D01*
X48711316Y14084831D01*
X48666081Y14137035D01*
X48616814Y14242689D01*
X48616811Y14242694D01*
X48614488Y14247676D01*
X48611331Y14252185D01*
X48490136Y14425270D01*
X48490134Y14425273D01*
X48486977Y14429781D01*
X48329781Y14586977D01*
X48325273Y14590134D01*
X48325270Y14590136D01*
X48249505Y14643187D01*
X48211599Y14669729D01*
X49355860Y14669729D01*
X49362928Y14656282D01*
X50037188Y13982022D01*
X50051132Y13974408D01*
X50052965Y13974539D01*
X50059580Y13978790D01*
X50737793Y14657003D01*
X50744223Y14668777D01*
X50734926Y14680793D01*
X50691931Y14710898D01*
X50682445Y14716376D01*
X50491007Y14805645D01*
X50480715Y14809391D01*
X50276691Y14864059D01*
X50265896Y14865962D01*
X50055475Y14884372D01*
X50044525Y14884372D01*
X49834104Y14865962D01*
X49823309Y14864059D01*
X49619285Y14809391D01*
X49608993Y14805645D01*
X49417559Y14716377D01*
X49408068Y14710897D01*
X49364235Y14680206D01*
X49355860Y14669729D01*
X48211599Y14669729D01*
X48147677Y14714488D01*
X48142695Y14716811D01*
X48142690Y14716814D01*
X47951178Y14806117D01*
X47951177Y14806118D01*
X47946196Y14808440D01*
X47940888Y14809862D01*
X47940886Y14809863D01*
X47875051Y14827503D01*
X47731463Y14865978D01*
X47510000Y14885353D01*
X47288537Y14865978D01*
X47144949Y14827503D01*
X47079114Y14809863D01*
X47079112Y14809862D01*
X47073804Y14808440D01*
X47068823Y14806118D01*
X47068822Y14806117D01*
X46877311Y14716814D01*
X46877306Y14716811D01*
X46872324Y14714488D01*
X46867817Y14711332D01*
X46867815Y14711331D01*
X46694730Y14590136D01*
X46694727Y14590134D01*
X46690219Y14586977D01*
X46533023Y14429781D01*
X46529866Y14425273D01*
X46529864Y14425270D01*
X46408669Y14252185D01*
X46405512Y14247676D01*
X46403189Y14242694D01*
X46403186Y14242689D01*
X46354195Y14137627D01*
X46307277Y14084342D01*
X46239000Y14064881D01*
X46171040Y14085423D01*
X46125805Y14137627D01*
X46076814Y14242689D01*
X46076811Y14242694D01*
X46074488Y14247676D01*
X46071331Y14252185D01*
X45950136Y14425270D01*
X45950134Y14425273D01*
X45946977Y14429781D01*
X45789781Y14586977D01*
X45785273Y14590134D01*
X45785270Y14590136D01*
X45709505Y14643187D01*
X45607677Y14714488D01*
X45602695Y14716811D01*
X45602690Y14716814D01*
X45411178Y14806117D01*
X45411177Y14806118D01*
X45406196Y14808440D01*
X45400888Y14809862D01*
X45400886Y14809863D01*
X45335051Y14827503D01*
X45191463Y14865978D01*
X44970000Y14885353D01*
X44748537Y14865978D01*
X44604949Y14827503D01*
X44539114Y14809863D01*
X44539112Y14809862D01*
X44533804Y14808440D01*
X44528823Y14806118D01*
X44528822Y14806117D01*
X44337311Y14716814D01*
X44337306Y14716811D01*
X44332324Y14714488D01*
X44327817Y14711332D01*
X44327815Y14711331D01*
X44154730Y14590136D01*
X44154727Y14590134D01*
X44150219Y14586977D01*
X43993023Y14429781D01*
X43989866Y14425273D01*
X43989864Y14425270D01*
X43868669Y14252185D01*
X43865512Y14247676D01*
X43863189Y14242694D01*
X43863186Y14242689D01*
X43814195Y14137627D01*
X43767277Y14084342D01*
X43699000Y14064881D01*
X43631040Y14085423D01*
X43585805Y14137627D01*
X43536814Y14242689D01*
X43536811Y14242694D01*
X43534488Y14247676D01*
X43531331Y14252185D01*
X43410136Y14425270D01*
X43410134Y14425273D01*
X43406977Y14429781D01*
X43249781Y14586977D01*
X43245273Y14590134D01*
X43245270Y14590136D01*
X43169505Y14643187D01*
X43067677Y14714488D01*
X43062695Y14716811D01*
X43062690Y14716814D01*
X42871178Y14806117D01*
X42871177Y14806118D01*
X42866196Y14808440D01*
X42860888Y14809862D01*
X42860886Y14809863D01*
X42795051Y14827503D01*
X42651463Y14865978D01*
X42430000Y14885353D01*
X42208537Y14865978D01*
X42064949Y14827503D01*
X41999114Y14809863D01*
X41999112Y14809862D01*
X41993804Y14808440D01*
X41988823Y14806118D01*
X41988822Y14806117D01*
X41797311Y14716814D01*
X41797306Y14716811D01*
X41792324Y14714488D01*
X41787817Y14711332D01*
X41787815Y14711331D01*
X41614730Y14590136D01*
X41614727Y14590134D01*
X41610219Y14586977D01*
X41453023Y14429781D01*
X41449866Y14425273D01*
X41449864Y14425270D01*
X41328669Y14252185D01*
X41325512Y14247676D01*
X41323189Y14242694D01*
X41323186Y14242689D01*
X41274195Y14137627D01*
X41227277Y14084342D01*
X41159000Y14064881D01*
X41091040Y14085423D01*
X41045805Y14137627D01*
X40996814Y14242689D01*
X40996811Y14242694D01*
X40994488Y14247676D01*
X40991331Y14252185D01*
X40870136Y14425270D01*
X40870134Y14425273D01*
X40866977Y14429781D01*
X40709781Y14586977D01*
X40705273Y14590134D01*
X40705270Y14590136D01*
X40629505Y14643187D01*
X40527677Y14714488D01*
X40522695Y14716811D01*
X40522690Y14716814D01*
X40331178Y14806117D01*
X40331177Y14806118D01*
X40326196Y14808440D01*
X40320888Y14809862D01*
X40320886Y14809863D01*
X40255051Y14827503D01*
X40111463Y14865978D01*
X39890000Y14885353D01*
X39668537Y14865978D01*
X39524949Y14827503D01*
X39459114Y14809863D01*
X39459112Y14809862D01*
X39453804Y14808440D01*
X39448823Y14806118D01*
X39448822Y14806117D01*
X39257311Y14716814D01*
X39257306Y14716811D01*
X39252324Y14714488D01*
X39247817Y14711332D01*
X39247815Y14711331D01*
X39074730Y14590136D01*
X39074727Y14590134D01*
X39070219Y14586977D01*
X38913023Y14429781D01*
X38909866Y14425273D01*
X38909864Y14425270D01*
X38788669Y14252185D01*
X38785512Y14247676D01*
X38783189Y14242694D01*
X38783186Y14242689D01*
X38733919Y14137035D01*
X38687001Y14083750D01*
X38618724Y14064289D01*
X38550764Y14084831D01*
X38505529Y14137035D01*
X38456377Y14242441D01*
X38450897Y14251932D01*
X38420206Y14295765D01*
X38409729Y14304140D01*
X38396282Y14297072D01*
X37722022Y13622812D01*
X37714408Y13608868D01*
X36984356Y13608868D01*
X36985592Y13611132D01*
X36985461Y13612965D01*
X36981210Y13619580D01*
X36302997Y14297793D01*
X36291223Y14304223D01*
X36279207Y14294926D01*
X36249103Y14251932D01*
X36243623Y14242441D01*
X36194471Y14137035D01*
X36147553Y14083750D01*
X36079276Y14064289D01*
X36011316Y14084831D01*
X35966081Y14137035D01*
X35916814Y14242689D01*
X35916811Y14242694D01*
X35914488Y14247676D01*
X35911331Y14252185D01*
X35790136Y14425270D01*
X35790134Y14425273D01*
X35786977Y14429781D01*
X35629781Y14586977D01*
X35625273Y14590134D01*
X35625270Y14590136D01*
X35549505Y14643187D01*
X35511599Y14669729D01*
X36655860Y14669729D01*
X36662928Y14656282D01*
X37337188Y13982022D01*
X37351132Y13974408D01*
X37352965Y13974539D01*
X37359580Y13978790D01*
X38037793Y14657003D01*
X38044223Y14668777D01*
X38034926Y14680793D01*
X37991931Y14710898D01*
X37982445Y14716376D01*
X37791007Y14805645D01*
X37780715Y14809391D01*
X37576691Y14864059D01*
X37565896Y14865962D01*
X37355475Y14884372D01*
X37344525Y14884372D01*
X37134104Y14865962D01*
X37123309Y14864059D01*
X36919285Y14809391D01*
X36908993Y14805645D01*
X36717559Y14716377D01*
X36708068Y14710897D01*
X36664235Y14680206D01*
X36655860Y14669729D01*
X35511599Y14669729D01*
X35447677Y14714488D01*
X35442695Y14716811D01*
X35442690Y14716814D01*
X35251178Y14806117D01*
X35251177Y14806118D01*
X35246196Y14808440D01*
X35240888Y14809862D01*
X35240886Y14809863D01*
X35175051Y14827503D01*
X35031463Y14865978D01*
X34810000Y14885353D01*
X34588537Y14865978D01*
X34444949Y14827503D01*
X34379114Y14809863D01*
X34379112Y14809862D01*
X34373804Y14808440D01*
X34368823Y14806118D01*
X34368822Y14806117D01*
X34177311Y14716814D01*
X34177306Y14716811D01*
X34172324Y14714488D01*
X34167817Y14711332D01*
X34167815Y14711331D01*
X33994730Y14590136D01*
X33994727Y14590134D01*
X33990219Y14586977D01*
X33833023Y14429781D01*
X33829866Y14425273D01*
X33829864Y14425270D01*
X33708669Y14252185D01*
X33705512Y14247676D01*
X33703189Y14242694D01*
X33703186Y14242689D01*
X33654195Y14137627D01*
X33607277Y14084342D01*
X33539000Y14064881D01*
X33471040Y14085423D01*
X33425805Y14137627D01*
X33376814Y14242689D01*
X33376811Y14242694D01*
X33374488Y14247676D01*
X33371331Y14252185D01*
X33250136Y14425270D01*
X33250134Y14425273D01*
X33246977Y14429781D01*
X33089781Y14586977D01*
X33085273Y14590134D01*
X33085270Y14590136D01*
X33009505Y14643187D01*
X32907677Y14714488D01*
X32902695Y14716811D01*
X32902690Y14716814D01*
X32711178Y14806117D01*
X32711177Y14806118D01*
X32706196Y14808440D01*
X32700888Y14809862D01*
X32700886Y14809863D01*
X32635051Y14827503D01*
X32491463Y14865978D01*
X32270000Y14885353D01*
X32048537Y14865978D01*
X31904949Y14827503D01*
X31839114Y14809863D01*
X31839112Y14809862D01*
X31833804Y14808440D01*
X31828823Y14806118D01*
X31828822Y14806117D01*
X31637311Y14716814D01*
X31637306Y14716811D01*
X31632324Y14714488D01*
X31627817Y14711332D01*
X31627815Y14711331D01*
X31454730Y14590136D01*
X31454727Y14590134D01*
X31450219Y14586977D01*
X31293023Y14429781D01*
X31289866Y14425273D01*
X31289864Y14425270D01*
X31168669Y14252185D01*
X31165512Y14247676D01*
X31163189Y14242694D01*
X31163186Y14242689D01*
X31114195Y14137627D01*
X31067277Y14084342D01*
X30999000Y14064881D01*
X30931040Y14085423D01*
X30885805Y14137627D01*
X30836814Y14242689D01*
X30836811Y14242694D01*
X30834488Y14247676D01*
X30831331Y14252185D01*
X30710136Y14425270D01*
X30710134Y14425273D01*
X30706977Y14429781D01*
X30549781Y14586977D01*
X30545273Y14590134D01*
X30545270Y14590136D01*
X30469505Y14643187D01*
X30367677Y14714488D01*
X30362695Y14716811D01*
X30362690Y14716814D01*
X30171178Y14806117D01*
X30171177Y14806118D01*
X30166196Y14808440D01*
X30160888Y14809862D01*
X30160886Y14809863D01*
X30095051Y14827503D01*
X29951463Y14865978D01*
X29730000Y14885353D01*
X29508537Y14865978D01*
X29364949Y14827503D01*
X29299114Y14809863D01*
X29299112Y14809862D01*
X29293804Y14808440D01*
X29288823Y14806118D01*
X29288822Y14806117D01*
X29097311Y14716814D01*
X29097306Y14716811D01*
X29092324Y14714488D01*
X29087817Y14711332D01*
X29087815Y14711331D01*
X28914730Y14590136D01*
X28914727Y14590134D01*
X28910219Y14586977D01*
X28753023Y14429781D01*
X28749866Y14425273D01*
X28749864Y14425270D01*
X28628669Y14252185D01*
X28625512Y14247676D01*
X28623189Y14242694D01*
X28623186Y14242689D01*
X28574195Y14137627D01*
X28527277Y14084342D01*
X28459000Y14064881D01*
X28391040Y14085423D01*
X28345805Y14137627D01*
X28296814Y14242689D01*
X28296811Y14242694D01*
X28294488Y14247676D01*
X28291331Y14252185D01*
X28170136Y14425270D01*
X28170134Y14425273D01*
X28166977Y14429781D01*
X28009781Y14586977D01*
X28005273Y14590134D01*
X28005270Y14590136D01*
X27929505Y14643187D01*
X27827677Y14714488D01*
X27822695Y14716811D01*
X27822690Y14716814D01*
X27631178Y14806117D01*
X27631177Y14806118D01*
X27626196Y14808440D01*
X27620888Y14809862D01*
X27620886Y14809863D01*
X27555051Y14827503D01*
X27411463Y14865978D01*
X27190000Y14885353D01*
X26968537Y14865978D01*
X26824949Y14827503D01*
X26759114Y14809863D01*
X26759112Y14809862D01*
X26753804Y14808440D01*
X26748823Y14806118D01*
X26748822Y14806117D01*
X26557311Y14716814D01*
X26557306Y14716811D01*
X26552324Y14714488D01*
X26547817Y14711332D01*
X26547815Y14711331D01*
X26374730Y14590136D01*
X26374727Y14590134D01*
X26370219Y14586977D01*
X26213023Y14429781D01*
X26209866Y14425273D01*
X26209864Y14425270D01*
X26088669Y14252185D01*
X26085512Y14247676D01*
X26083189Y14242694D01*
X26083186Y14242689D01*
X26033919Y14137035D01*
X25987001Y14083750D01*
X25918724Y14064289D01*
X25850764Y14084831D01*
X25805529Y14137035D01*
X25756377Y14242441D01*
X25750897Y14251932D01*
X25720206Y14295765D01*
X25709729Y14304140D01*
X25696282Y14297072D01*
X25022022Y13622812D01*
X25014408Y13608868D01*
X24284356Y13608868D01*
X24285592Y13611132D01*
X24285461Y13612965D01*
X24281210Y13619580D01*
X23602997Y14297793D01*
X23591223Y14304223D01*
X23579207Y14294926D01*
X23549103Y14251932D01*
X23543623Y14242441D01*
X23494471Y14137035D01*
X23447553Y14083750D01*
X23379276Y14064289D01*
X23311316Y14084831D01*
X23266081Y14137035D01*
X23216814Y14242689D01*
X23216811Y14242694D01*
X23214488Y14247676D01*
X23211331Y14252185D01*
X23090136Y14425270D01*
X23090134Y14425273D01*
X23086977Y14429781D01*
X22929781Y14586977D01*
X22925273Y14590134D01*
X22925270Y14590136D01*
X22849505Y14643187D01*
X22811599Y14669729D01*
X23955860Y14669729D01*
X23962928Y14656282D01*
X24637188Y13982022D01*
X24651132Y13974408D01*
X24652965Y13974539D01*
X24659580Y13978790D01*
X25337793Y14657003D01*
X25344223Y14668777D01*
X25334926Y14680793D01*
X25291931Y14710898D01*
X25282445Y14716376D01*
X25091007Y14805645D01*
X25080715Y14809391D01*
X24876691Y14864059D01*
X24865896Y14865962D01*
X24655475Y14884372D01*
X24644525Y14884372D01*
X24434104Y14865962D01*
X24423309Y14864059D01*
X24219285Y14809391D01*
X24208993Y14805645D01*
X24017559Y14716377D01*
X24008068Y14710897D01*
X23964235Y14680206D01*
X23955860Y14669729D01*
X22811599Y14669729D01*
X22747677Y14714488D01*
X22742695Y14716811D01*
X22742690Y14716814D01*
X22551178Y14806117D01*
X22551177Y14806118D01*
X22546196Y14808440D01*
X22540888Y14809862D01*
X22540886Y14809863D01*
X22475051Y14827503D01*
X22331463Y14865978D01*
X22110000Y14885353D01*
X21888537Y14865978D01*
X21744949Y14827503D01*
X21679114Y14809863D01*
X21679112Y14809862D01*
X21673804Y14808440D01*
X21668823Y14806118D01*
X21668822Y14806117D01*
X21477311Y14716814D01*
X21477306Y14716811D01*
X21472324Y14714488D01*
X21467817Y14711332D01*
X21467815Y14711331D01*
X21294730Y14590136D01*
X21294727Y14590134D01*
X21290219Y14586977D01*
X21133023Y14429781D01*
X21129866Y14425273D01*
X21129864Y14425270D01*
X21008669Y14252185D01*
X21005512Y14247676D01*
X21003189Y14242694D01*
X21003186Y14242689D01*
X20954195Y14137627D01*
X20907277Y14084342D01*
X20839000Y14064881D01*
X20771040Y14085423D01*
X20725805Y14137627D01*
X20676814Y14242689D01*
X20676811Y14242694D01*
X20674488Y14247676D01*
X20671331Y14252185D01*
X20550136Y14425270D01*
X20550134Y14425273D01*
X20546977Y14429781D01*
X20389781Y14586977D01*
X20385273Y14590134D01*
X20385270Y14590136D01*
X20309505Y14643187D01*
X20207677Y14714488D01*
X20202695Y14716811D01*
X20202690Y14716814D01*
X20011178Y14806117D01*
X20011177Y14806118D01*
X20006196Y14808440D01*
X20000888Y14809862D01*
X20000886Y14809863D01*
X19935051Y14827503D01*
X19791463Y14865978D01*
X19570000Y14885353D01*
X19348537Y14865978D01*
X19204949Y14827503D01*
X19139114Y14809863D01*
X19139112Y14809862D01*
X19133804Y14808440D01*
X19128823Y14806118D01*
X19128822Y14806117D01*
X18937311Y14716814D01*
X18937306Y14716811D01*
X18932324Y14714488D01*
X18927817Y14711332D01*
X18927815Y14711331D01*
X18754730Y14590136D01*
X18754727Y14590134D01*
X18750219Y14586977D01*
X18593023Y14429781D01*
X18589866Y14425273D01*
X18589864Y14425270D01*
X18468669Y14252185D01*
X18465512Y14247676D01*
X18463189Y14242694D01*
X18463186Y14242689D01*
X18414195Y14137627D01*
X18367277Y14084342D01*
X18299000Y14064881D01*
X18231040Y14085423D01*
X18185805Y14137627D01*
X18136814Y14242689D01*
X18136811Y14242694D01*
X18134488Y14247676D01*
X18131331Y14252185D01*
X18010136Y14425270D01*
X18010134Y14425273D01*
X18006977Y14429781D01*
X17849781Y14586977D01*
X17845273Y14590134D01*
X17845270Y14590136D01*
X17769505Y14643187D01*
X17667677Y14714488D01*
X17662695Y14716811D01*
X17662690Y14716814D01*
X17471178Y14806117D01*
X17471177Y14806118D01*
X17466196Y14808440D01*
X17460888Y14809862D01*
X17460886Y14809863D01*
X17395051Y14827503D01*
X17251463Y14865978D01*
X17030000Y14885353D01*
X16808537Y14865978D01*
X16664949Y14827503D01*
X16599114Y14809863D01*
X16599112Y14809862D01*
X16593804Y14808440D01*
X16588823Y14806118D01*
X16588822Y14806117D01*
X16397311Y14716814D01*
X16397306Y14716811D01*
X16392324Y14714488D01*
X16387817Y14711332D01*
X16387815Y14711331D01*
X16214730Y14590136D01*
X16214727Y14590134D01*
X16210219Y14586977D01*
X16053023Y14429781D01*
X16049866Y14425273D01*
X16049864Y14425270D01*
X15928669Y14252185D01*
X15925512Y14247676D01*
X15923189Y14242694D01*
X15923186Y14242689D01*
X15874195Y14137627D01*
X15827277Y14084342D01*
X15759000Y14064881D01*
X15691040Y14085423D01*
X15645805Y14137627D01*
X15596814Y14242689D01*
X15596811Y14242694D01*
X15594488Y14247676D01*
X15591331Y14252185D01*
X15470136Y14425270D01*
X15470134Y14425273D01*
X15466977Y14429781D01*
X15309781Y14586977D01*
X15305273Y14590134D01*
X15305270Y14590136D01*
X15229505Y14643187D01*
X15127677Y14714488D01*
X15122695Y14716811D01*
X15122690Y14716814D01*
X14931178Y14806117D01*
X14931177Y14806118D01*
X14926196Y14808440D01*
X14920888Y14809862D01*
X14920886Y14809863D01*
X14855051Y14827503D01*
X14711463Y14865978D01*
X14490000Y14885353D01*
X14268537Y14865978D01*
X14124949Y14827503D01*
X14059114Y14809863D01*
X14059112Y14809862D01*
X14053804Y14808440D01*
X14048823Y14806118D01*
X14048822Y14806117D01*
X13857311Y14716814D01*
X13857306Y14716811D01*
X13852324Y14714488D01*
X13847817Y14711332D01*
X13847815Y14711331D01*
X13674730Y14590136D01*
X13674727Y14590134D01*
X13670219Y14586977D01*
X13513023Y14429781D01*
X13509866Y14425273D01*
X13509864Y14425270D01*
X13388669Y14252185D01*
X13385512Y14247676D01*
X13383189Y14242694D01*
X13383186Y14242689D01*
X13333919Y14137035D01*
X13287001Y14083750D01*
X13218724Y14064289D01*
X13150764Y14084831D01*
X13105529Y14137035D01*
X13056377Y14242441D01*
X13050897Y14251932D01*
X13020206Y14295765D01*
X13009729Y14304140D01*
X12996282Y14297072D01*
X12322022Y13622812D01*
X12314408Y13608868D01*
X11584356Y13608868D01*
X11585592Y13611132D01*
X11585461Y13612965D01*
X11581210Y13619580D01*
X10902997Y14297793D01*
X10891223Y14304223D01*
X10879207Y14294926D01*
X10849103Y14251932D01*
X10843623Y14242441D01*
X10794471Y14137035D01*
X10747553Y14083750D01*
X10679276Y14064289D01*
X10611316Y14084831D01*
X10566081Y14137035D01*
X10516814Y14242689D01*
X10516811Y14242694D01*
X10514488Y14247676D01*
X10511331Y14252185D01*
X10390136Y14425270D01*
X10390134Y14425273D01*
X10386977Y14429781D01*
X10229781Y14586977D01*
X10225273Y14590134D01*
X10225270Y14590136D01*
X10149505Y14643187D01*
X10111599Y14669729D01*
X11255860Y14669729D01*
X11262928Y14656282D01*
X11937188Y13982022D01*
X11951132Y13974408D01*
X11952965Y13974539D01*
X11959580Y13978790D01*
X12637793Y14657003D01*
X12644223Y14668777D01*
X12634926Y14680793D01*
X12591931Y14710898D01*
X12582445Y14716376D01*
X12391007Y14805645D01*
X12380715Y14809391D01*
X12176691Y14864059D01*
X12165896Y14865962D01*
X11955475Y14884372D01*
X11944525Y14884372D01*
X11734104Y14865962D01*
X11723309Y14864059D01*
X11519285Y14809391D01*
X11508993Y14805645D01*
X11317559Y14716377D01*
X11308068Y14710897D01*
X11264235Y14680206D01*
X11255860Y14669729D01*
X10111599Y14669729D01*
X10047677Y14714488D01*
X10042695Y14716811D01*
X10042690Y14716814D01*
X9851178Y14806117D01*
X9851177Y14806118D01*
X9846196Y14808440D01*
X9840888Y14809862D01*
X9840886Y14809863D01*
X9775051Y14827503D01*
X9631463Y14865978D01*
X9410000Y14885353D01*
X9188537Y14865978D01*
X9044949Y14827503D01*
X8979114Y14809863D01*
X8979112Y14809862D01*
X8973804Y14808440D01*
X8968823Y14806118D01*
X8968822Y14806117D01*
X8777311Y14716814D01*
X8777306Y14716811D01*
X8772324Y14714488D01*
X8767817Y14711332D01*
X8767815Y14711331D01*
X8594730Y14590136D01*
X8594727Y14590134D01*
X8590219Y14586977D01*
X8433023Y14429781D01*
X8429866Y14425273D01*
X8429864Y14425270D01*
X8308669Y14252185D01*
X8305512Y14247676D01*
X8303189Y14242694D01*
X8303186Y14242689D01*
X8254195Y14137627D01*
X8207277Y14084342D01*
X8139000Y14064881D01*
X8071040Y14085423D01*
X8025805Y14137627D01*
X7976814Y14242689D01*
X7976811Y14242694D01*
X7974488Y14247676D01*
X7971331Y14252185D01*
X7850136Y14425270D01*
X7850134Y14425273D01*
X7846977Y14429781D01*
X7689781Y14586977D01*
X7685273Y14590134D01*
X7685270Y14590136D01*
X7609505Y14643187D01*
X7507677Y14714488D01*
X7502695Y14716811D01*
X7502690Y14716814D01*
X7311178Y14806117D01*
X7311177Y14806118D01*
X7306196Y14808440D01*
X7300888Y14809862D01*
X7300886Y14809863D01*
X7235051Y14827503D01*
X7091463Y14865978D01*
X6870000Y14885353D01*
X6648537Y14865978D01*
X6504949Y14827503D01*
X6439114Y14809863D01*
X6439112Y14809862D01*
X6433804Y14808440D01*
X6428823Y14806118D01*
X6428822Y14806117D01*
X6237311Y14716814D01*
X6237306Y14716811D01*
X6232324Y14714488D01*
X6227817Y14711332D01*
X6227815Y14711331D01*
X6054730Y14590136D01*
X6054727Y14590134D01*
X6050219Y14586977D01*
X5893023Y14429781D01*
X5889866Y14425273D01*
X5889864Y14425270D01*
X5768669Y14252185D01*
X5765512Y14247676D01*
X5763189Y14242694D01*
X5763186Y14242689D01*
X5714195Y14137627D01*
X5671560Y14046196D01*
X5614022Y13831463D01*
X5594647Y13610000D01*
X508500Y13610000D01*
X508500Y24261360D01*
X42436463Y24261360D01*
X42454163Y24080840D01*
X42511418Y23908727D01*
X42515065Y23902705D01*
X42515066Y23902703D01*
X42599879Y23762660D01*
X42605380Y23753576D01*
X42731382Y23623098D01*
X42883159Y23523778D01*
X42889763Y23521322D01*
X42889765Y23521321D01*
X43046558Y23463010D01*
X43046560Y23463010D01*
X43053168Y23460552D01*
X43136995Y23449367D01*
X43225980Y23437493D01*
X43225984Y23437493D01*
X43232961Y23436562D01*
X43239972Y23437200D01*
X43239976Y23437200D01*
X43382459Y23450168D01*
X43413600Y23453002D01*
X43420302Y23455180D01*
X43420304Y23455180D01*
X43579409Y23506876D01*
X43579412Y23506877D01*
X43586108Y23509053D01*
X43736540Y23598729D01*
X43801058Y23616500D01*
X50351427Y23616500D01*
X50419548Y23596498D01*
X50466041Y23542842D01*
X50470984Y23530273D01*
X50511418Y23408727D01*
X50515065Y23402705D01*
X50515066Y23402703D01*
X50525978Y23384686D01*
X50605380Y23253576D01*
X50731382Y23123098D01*
X50883159Y23023778D01*
X50889763Y23021322D01*
X50889765Y23021321D01*
X51046558Y22963010D01*
X51046560Y22963010D01*
X51053168Y22960552D01*
X51136995Y22949367D01*
X51225980Y22937493D01*
X51225984Y22937493D01*
X51232961Y22936562D01*
X51239972Y22937200D01*
X51239976Y22937200D01*
X51382459Y22950168D01*
X51413600Y22953002D01*
X51420302Y22955180D01*
X51420304Y22955180D01*
X51579409Y23006876D01*
X51579412Y23006877D01*
X51586108Y23009053D01*
X51741912Y23101931D01*
X51873266Y23227018D01*
X51973643Y23378098D01*
X52038055Y23547662D01*
X52042718Y23580840D01*
X52062748Y23723361D01*
X52062748Y23723364D01*
X52063299Y23727283D01*
X52063616Y23750000D01*
X52043397Y23930255D01*
X52041080Y23936909D01*
X51986064Y24094894D01*
X51986062Y24094897D01*
X51983745Y24101552D01*
X51948018Y24158727D01*
X51891359Y24249402D01*
X51887626Y24255376D01*
X51881684Y24261360D01*
X51764778Y24379085D01*
X51764774Y24379088D01*
X51759815Y24384082D01*
X51606666Y24481273D01*
X51435790Y24542119D01*
X51386007Y24548055D01*
X51320734Y24575982D01*
X51311830Y24584074D01*
X51290766Y24605139D01*
X51253647Y24642258D01*
X51246113Y24650537D01*
X51242000Y24657018D01*
X51192348Y24703644D01*
X51189507Y24706398D01*
X51169770Y24726135D01*
X51166573Y24728615D01*
X51157551Y24736320D01*
X51131100Y24761159D01*
X51125321Y24766586D01*
X51118375Y24770405D01*
X51118372Y24770407D01*
X51107566Y24776348D01*
X51091047Y24787199D01*
X51090583Y24787559D01*
X51075041Y24799614D01*
X51067772Y24802759D01*
X51067768Y24802762D01*
X51034463Y24817174D01*
X51023813Y24822391D01*
X50985060Y24843695D01*
X50965437Y24848733D01*
X50946734Y24855137D01*
X50935420Y24860033D01*
X50935419Y24860033D01*
X50928145Y24863181D01*
X50920322Y24864420D01*
X50920312Y24864423D01*
X50884476Y24870099D01*
X50872856Y24872505D01*
X50837711Y24881528D01*
X50837710Y24881528D01*
X50830030Y24883500D01*
X50809776Y24883500D01*
X50790065Y24885051D01*
X50777886Y24886980D01*
X50770057Y24888220D01*
X50762165Y24887474D01*
X50726039Y24884059D01*
X50714181Y24883500D01*
X43797338Y24883500D01*
X43729824Y24903115D01*
X43696583Y24924210D01*
X43606666Y24981273D01*
X43538977Y25005376D01*
X43442425Y25039757D01*
X43442420Y25039758D01*
X43435790Y25042119D01*
X43428802Y25042952D01*
X43428799Y25042953D01*
X43305698Y25057632D01*
X43255680Y25063596D01*
X43248677Y25062860D01*
X43248676Y25062860D01*
X43082288Y25045372D01*
X43082286Y25045371D01*
X43075288Y25044636D01*
X42903579Y24986182D01*
X42897575Y24982488D01*
X42755095Y24894834D01*
X42755092Y24894832D01*
X42749088Y24891138D01*
X42744053Y24886207D01*
X42744050Y24886205D01*
X42624525Y24769157D01*
X42619493Y24764229D01*
X42521235Y24611762D01*
X42518826Y24605142D01*
X42518824Y24605139D01*
X42472365Y24477494D01*
X42459197Y24441315D01*
X42436463Y24261360D01*
X508500Y24261360D01*
X508500Y31390000D01*
X5594647Y31390000D01*
X5614022Y31168537D01*
X5671560Y30953804D01*
X5673882Y30948823D01*
X5673883Y30948822D01*
X5763186Y30757311D01*
X5763189Y30757306D01*
X5765512Y30752324D01*
X5768668Y30747817D01*
X5768669Y30747815D01*
X5805107Y30695777D01*
X5893023Y30570219D01*
X6050219Y30413023D01*
X6054727Y30409866D01*
X6054730Y30409864D01*
X6104414Y30375075D01*
X6232323Y30285512D01*
X6237305Y30283189D01*
X6237310Y30283186D01*
X6427810Y30194355D01*
X6433804Y30191560D01*
X6439112Y30190138D01*
X6439114Y30190137D01*
X6502040Y30173276D01*
X6648537Y30134022D01*
X6870000Y30114647D01*
X7091463Y30134022D01*
X7237960Y30173276D01*
X7300886Y30190137D01*
X7300888Y30190138D01*
X7306196Y30191560D01*
X7312190Y30194355D01*
X7502690Y30283186D01*
X7502695Y30283189D01*
X7507677Y30285512D01*
X7635586Y30375075D01*
X7685270Y30409864D01*
X7685273Y30409866D01*
X7689781Y30413023D01*
X7846977Y30570219D01*
X7934894Y30695777D01*
X7971331Y30747815D01*
X7971332Y30747817D01*
X7974488Y30752324D01*
X7976811Y30757306D01*
X7976814Y30757311D01*
X8025805Y30862373D01*
X8072723Y30915658D01*
X8141000Y30935119D01*
X8208960Y30914577D01*
X8254195Y30862373D01*
X8303186Y30757311D01*
X8303189Y30757306D01*
X8305512Y30752324D01*
X8308668Y30747817D01*
X8308669Y30747815D01*
X8345107Y30695777D01*
X8433023Y30570219D01*
X8590219Y30413023D01*
X8594727Y30409866D01*
X8594730Y30409864D01*
X8644414Y30375075D01*
X8772323Y30285512D01*
X8777305Y30283189D01*
X8777310Y30283186D01*
X8967810Y30194355D01*
X8973804Y30191560D01*
X8979112Y30190138D01*
X8979114Y30190137D01*
X9042040Y30173276D01*
X9188537Y30134022D01*
X9410000Y30114647D01*
X9631463Y30134022D01*
X9777960Y30173276D01*
X9840886Y30190137D01*
X9840888Y30190138D01*
X9846196Y30191560D01*
X9852190Y30194355D01*
X10042690Y30283186D01*
X10042695Y30283189D01*
X10047677Y30285512D01*
X10112959Y30331223D01*
X11255777Y30331223D01*
X11265074Y30319207D01*
X11308069Y30289102D01*
X11317555Y30283624D01*
X11508993Y30194355D01*
X11519285Y30190609D01*
X11723309Y30135941D01*
X11734104Y30134038D01*
X11944525Y30115628D01*
X11955475Y30115628D01*
X12165896Y30134038D01*
X12176691Y30135941D01*
X12380715Y30190609D01*
X12391007Y30194355D01*
X12582445Y30283624D01*
X12591931Y30289102D01*
X12635764Y30319793D01*
X12644139Y30330271D01*
X12637071Y30343719D01*
X11962812Y31017978D01*
X11948868Y31025592D01*
X11947035Y31025461D01*
X11940420Y31021210D01*
X11262207Y30342997D01*
X11255777Y30331223D01*
X10112959Y30331223D01*
X10175586Y30375075D01*
X10225270Y30409864D01*
X10225273Y30409866D01*
X10229781Y30413023D01*
X10386977Y30570219D01*
X10474894Y30695777D01*
X10511331Y30747815D01*
X10511332Y30747817D01*
X10514488Y30752324D01*
X10516811Y30757306D01*
X10516814Y30757311D01*
X10566081Y30862965D01*
X10612999Y30916250D01*
X10681276Y30935711D01*
X10749236Y30915169D01*
X10794471Y30862965D01*
X10843623Y30757559D01*
X10849103Y30748068D01*
X10879794Y30704235D01*
X10890271Y30695860D01*
X10903718Y30702928D01*
X11577978Y31377188D01*
X11584356Y31388868D01*
X12314408Y31388868D01*
X12314539Y31387035D01*
X12318790Y31380420D01*
X12997003Y30702207D01*
X13008777Y30695777D01*
X13020793Y30705074D01*
X13050897Y30748068D01*
X13056377Y30757559D01*
X13105529Y30862965D01*
X13152447Y30916250D01*
X13220724Y30935711D01*
X13288684Y30915169D01*
X13333919Y30862965D01*
X13383186Y30757311D01*
X13383189Y30757306D01*
X13385512Y30752324D01*
X13388668Y30747817D01*
X13388669Y30747815D01*
X13425107Y30695777D01*
X13513023Y30570219D01*
X13670219Y30413023D01*
X13674727Y30409866D01*
X13674730Y30409864D01*
X13724414Y30375075D01*
X13852323Y30285512D01*
X13857305Y30283189D01*
X13857310Y30283186D01*
X14047810Y30194355D01*
X14053804Y30191560D01*
X14059112Y30190138D01*
X14059114Y30190137D01*
X14122040Y30173276D01*
X14268537Y30134022D01*
X14490000Y30114647D01*
X14711463Y30134022D01*
X14857960Y30173276D01*
X14920886Y30190137D01*
X14920888Y30190138D01*
X14926196Y30191560D01*
X14932190Y30194355D01*
X15122690Y30283186D01*
X15122695Y30283189D01*
X15127677Y30285512D01*
X15255586Y30375075D01*
X15305270Y30409864D01*
X15305273Y30409866D01*
X15309781Y30413023D01*
X15466977Y30570219D01*
X15554894Y30695777D01*
X15591331Y30747815D01*
X15591332Y30747817D01*
X15594488Y30752324D01*
X15596811Y30757306D01*
X15596814Y30757311D01*
X15645805Y30862373D01*
X15692723Y30915658D01*
X15761000Y30935119D01*
X15828960Y30914577D01*
X15874195Y30862373D01*
X15923186Y30757311D01*
X15923189Y30757306D01*
X15925512Y30752324D01*
X15928668Y30747817D01*
X15928669Y30747815D01*
X15965107Y30695777D01*
X16053023Y30570219D01*
X16210219Y30413023D01*
X16214727Y30409866D01*
X16214730Y30409864D01*
X16264414Y30375075D01*
X16392323Y30285512D01*
X16397305Y30283189D01*
X16397310Y30283186D01*
X16587810Y30194355D01*
X16593804Y30191560D01*
X16599112Y30190138D01*
X16599114Y30190137D01*
X16662040Y30173276D01*
X16808537Y30134022D01*
X17030000Y30114647D01*
X17251463Y30134022D01*
X17397960Y30173276D01*
X17460886Y30190137D01*
X17460888Y30190138D01*
X17466196Y30191560D01*
X17472190Y30194355D01*
X17662690Y30283186D01*
X17662695Y30283189D01*
X17667677Y30285512D01*
X17795586Y30375075D01*
X17845270Y30409864D01*
X17845273Y30409866D01*
X17849781Y30413023D01*
X18006977Y30570219D01*
X18094894Y30695777D01*
X18131331Y30747815D01*
X18131332Y30747817D01*
X18134488Y30752324D01*
X18136811Y30757306D01*
X18136814Y30757311D01*
X18185805Y30862373D01*
X18232723Y30915658D01*
X18301000Y30935119D01*
X18368960Y30914577D01*
X18414195Y30862373D01*
X18463186Y30757311D01*
X18463189Y30757306D01*
X18465512Y30752324D01*
X18468668Y30747817D01*
X18468669Y30747815D01*
X18505107Y30695777D01*
X18593023Y30570219D01*
X18750219Y30413023D01*
X18754727Y30409866D01*
X18754730Y30409864D01*
X18804414Y30375075D01*
X18932323Y30285512D01*
X18937305Y30283189D01*
X18937310Y30283186D01*
X19127810Y30194355D01*
X19133804Y30191560D01*
X19139112Y30190138D01*
X19139114Y30190137D01*
X19202040Y30173276D01*
X19348537Y30134022D01*
X19570000Y30114647D01*
X19791463Y30134022D01*
X19937960Y30173276D01*
X20000886Y30190137D01*
X20000888Y30190138D01*
X20006196Y30191560D01*
X20012190Y30194355D01*
X20202690Y30283186D01*
X20202695Y30283189D01*
X20207677Y30285512D01*
X20335586Y30375075D01*
X20385270Y30409864D01*
X20385273Y30409866D01*
X20389781Y30413023D01*
X20546977Y30570219D01*
X20634894Y30695777D01*
X20671331Y30747815D01*
X20671332Y30747817D01*
X20674488Y30752324D01*
X20676811Y30757306D01*
X20676814Y30757311D01*
X20725805Y30862373D01*
X20772723Y30915658D01*
X20841000Y30935119D01*
X20908960Y30914577D01*
X20954195Y30862373D01*
X21003186Y30757311D01*
X21003189Y30757306D01*
X21005512Y30752324D01*
X21008668Y30747817D01*
X21008669Y30747815D01*
X21045107Y30695777D01*
X21133023Y30570219D01*
X21290219Y30413023D01*
X21294727Y30409866D01*
X21294730Y30409864D01*
X21344414Y30375075D01*
X21472323Y30285512D01*
X21477305Y30283189D01*
X21477310Y30283186D01*
X21667810Y30194355D01*
X21673804Y30191560D01*
X21679112Y30190138D01*
X21679114Y30190137D01*
X21742040Y30173276D01*
X21888537Y30134022D01*
X22110000Y30114647D01*
X22331463Y30134022D01*
X22477960Y30173276D01*
X22540886Y30190137D01*
X22540888Y30190138D01*
X22546196Y30191560D01*
X22552190Y30194355D01*
X22742690Y30283186D01*
X22742695Y30283189D01*
X22747677Y30285512D01*
X22812959Y30331223D01*
X23955777Y30331223D01*
X23965074Y30319207D01*
X24008069Y30289102D01*
X24017555Y30283624D01*
X24208993Y30194355D01*
X24219285Y30190609D01*
X24423309Y30135941D01*
X24434104Y30134038D01*
X24644525Y30115628D01*
X24655475Y30115628D01*
X24865896Y30134038D01*
X24876691Y30135941D01*
X25080715Y30190609D01*
X25091007Y30194355D01*
X25282445Y30283624D01*
X25291931Y30289102D01*
X25335764Y30319793D01*
X25344139Y30330271D01*
X25337071Y30343719D01*
X24662812Y31017978D01*
X24648868Y31025592D01*
X24647035Y31025461D01*
X24640420Y31021210D01*
X23962207Y30342997D01*
X23955777Y30331223D01*
X22812959Y30331223D01*
X22875586Y30375075D01*
X22925270Y30409864D01*
X22925273Y30409866D01*
X22929781Y30413023D01*
X23086977Y30570219D01*
X23174894Y30695777D01*
X23211331Y30747815D01*
X23211332Y30747817D01*
X23214488Y30752324D01*
X23216811Y30757306D01*
X23216814Y30757311D01*
X23266081Y30862965D01*
X23312999Y30916250D01*
X23381276Y30935711D01*
X23449236Y30915169D01*
X23494471Y30862965D01*
X23543623Y30757559D01*
X23549103Y30748068D01*
X23579794Y30704235D01*
X23590271Y30695860D01*
X23603718Y30702928D01*
X24277978Y31377188D01*
X24284356Y31388868D01*
X25014408Y31388868D01*
X25014539Y31387035D01*
X25018790Y31380420D01*
X25697003Y30702207D01*
X25708777Y30695777D01*
X25720793Y30705074D01*
X25750897Y30748068D01*
X25756377Y30757559D01*
X25805529Y30862965D01*
X25852447Y30916250D01*
X25920724Y30935711D01*
X25988684Y30915169D01*
X26033919Y30862965D01*
X26083186Y30757311D01*
X26083189Y30757306D01*
X26085512Y30752324D01*
X26088668Y30747817D01*
X26088669Y30747815D01*
X26125107Y30695777D01*
X26213023Y30570219D01*
X26370219Y30413023D01*
X26374727Y30409866D01*
X26374730Y30409864D01*
X26424414Y30375075D01*
X26552323Y30285512D01*
X26557305Y30283189D01*
X26557310Y30283186D01*
X26747810Y30194355D01*
X26753804Y30191560D01*
X26759111Y30190138D01*
X26759122Y30190134D01*
X26783011Y30183733D01*
X26843634Y30146781D01*
X26874655Y30082920D01*
X26866225Y30012426D01*
X26856313Y29993777D01*
X26771235Y29861762D01*
X26709197Y29691315D01*
X26686463Y29511360D01*
X26704163Y29330840D01*
X26761418Y29158727D01*
X26765065Y29152705D01*
X26765066Y29152703D01*
X26828681Y29047662D01*
X26855380Y29003576D01*
X26981382Y28873098D01*
X26987278Y28869240D01*
X27121938Y28781121D01*
X27133159Y28773778D01*
X27139763Y28771322D01*
X27139765Y28771321D01*
X27296558Y28713010D01*
X27296560Y28713010D01*
X27303168Y28710552D01*
X27386995Y28699367D01*
X27475980Y28687493D01*
X27475984Y28687493D01*
X27482961Y28686562D01*
X27489972Y28687200D01*
X27489976Y28687200D01*
X27632459Y28700168D01*
X27663600Y28703002D01*
X27670302Y28705180D01*
X27670304Y28705180D01*
X27829409Y28756876D01*
X27829412Y28756877D01*
X27836108Y28759053D01*
X27986540Y28848729D01*
X28051058Y28866500D01*
X29204303Y28866500D01*
X29272424Y28846498D01*
X29318917Y28792842D01*
X29329021Y28722568D01*
X29310216Y28672248D01*
X29271235Y28611762D01*
X29268826Y28605142D01*
X29268824Y28605139D01*
X29214243Y28455180D01*
X29209197Y28441315D01*
X29186463Y28261360D01*
X29204163Y28080840D01*
X29261418Y27908727D01*
X29355380Y27753576D01*
X29481382Y27623098D01*
X29487278Y27619240D01*
X29608741Y27539757D01*
X29633159Y27523778D01*
X29639763Y27521322D01*
X29639765Y27521321D01*
X29796558Y27463010D01*
X29796560Y27463010D01*
X29803168Y27460552D01*
X29886995Y27449367D01*
X29975980Y27437493D01*
X29975984Y27437493D01*
X29982961Y27436562D01*
X29989972Y27437200D01*
X29989976Y27437200D01*
X30132459Y27450168D01*
X30163600Y27453002D01*
X30170302Y27455180D01*
X30170304Y27455180D01*
X30329409Y27506876D01*
X30329412Y27506877D01*
X30336108Y27509053D01*
X30486540Y27598729D01*
X30551058Y27616500D01*
X39922884Y27616500D01*
X39991005Y27596498D01*
X40037498Y27542842D01*
X40047602Y27472568D01*
X40018108Y27407988D01*
X40002752Y27393392D01*
X39999088Y27391138D01*
X39967325Y27360033D01*
X39875802Y27270407D01*
X39869493Y27264229D01*
X39771235Y27111762D01*
X39768826Y27105142D01*
X39768824Y27105139D01*
X39711606Y26947934D01*
X39709197Y26941315D01*
X39686463Y26761360D01*
X39704163Y26580840D01*
X39761418Y26408727D01*
X39765065Y26402705D01*
X39765066Y26402703D01*
X39775978Y26384686D01*
X39855380Y26253576D01*
X39981382Y26123098D01*
X40133159Y26023778D01*
X40139763Y26021322D01*
X40139765Y26021321D01*
X40296558Y25963010D01*
X40296560Y25963010D01*
X40303168Y25960552D01*
X40386995Y25949367D01*
X40475980Y25937493D01*
X40475984Y25937493D01*
X40482961Y25936562D01*
X40489972Y25937200D01*
X40489976Y25937200D01*
X40632459Y25950168D01*
X40663600Y25953002D01*
X40670302Y25955180D01*
X40670304Y25955180D01*
X40829409Y26006876D01*
X40829412Y26006877D01*
X40836108Y26009053D01*
X40986540Y26098729D01*
X41051058Y26116500D01*
X61435406Y26116500D01*
X61503527Y26096498D01*
X61524501Y26079595D01*
X63164750Y24439346D01*
X63198776Y24377034D01*
X63201054Y24362547D01*
X63204163Y24330840D01*
X63261418Y24158727D01*
X63265065Y24152705D01*
X63265066Y24152703D01*
X63312636Y24074156D01*
X63355380Y24003576D01*
X63481382Y23873098D01*
X63633159Y23773778D01*
X63639763Y23771322D01*
X63639765Y23771321D01*
X63796558Y23713010D01*
X63796560Y23713010D01*
X63803168Y23710552D01*
X63886995Y23699367D01*
X63975980Y23687493D01*
X63975984Y23687493D01*
X63982961Y23686562D01*
X63989972Y23687200D01*
X63989976Y23687200D01*
X64132459Y23700168D01*
X64163600Y23703002D01*
X64170302Y23705180D01*
X64170304Y23705180D01*
X64329409Y23756876D01*
X64329412Y23756877D01*
X64336108Y23759053D01*
X64491912Y23851931D01*
X64623266Y23977018D01*
X64723643Y24128098D01*
X64788055Y24297662D01*
X64789035Y24304634D01*
X64812748Y24473361D01*
X64812748Y24473364D01*
X64813299Y24477283D01*
X64813616Y24500000D01*
X64793397Y24680255D01*
X64791080Y24686909D01*
X64736064Y24844894D01*
X64736062Y24844897D01*
X64733745Y24851552D01*
X64728446Y24860033D01*
X64641359Y24999402D01*
X64637626Y25005376D01*
X64601139Y25042119D01*
X64514778Y25129085D01*
X64514774Y25129088D01*
X64509815Y25134082D01*
X64356666Y25231273D01*
X64185790Y25292119D01*
X64136007Y25298055D01*
X64070733Y25325982D01*
X64061830Y25334074D01*
X63168887Y26227018D01*
X62253652Y27142253D01*
X62246112Y27150539D01*
X62242000Y27157018D01*
X62192348Y27203644D01*
X62189507Y27206398D01*
X62169770Y27226135D01*
X62166573Y27228615D01*
X62157551Y27236320D01*
X62143620Y27249402D01*
X62125321Y27266586D01*
X62118375Y27270405D01*
X62118372Y27270407D01*
X62107566Y27276348D01*
X62091047Y27287199D01*
X62090583Y27287559D01*
X62075041Y27299614D01*
X62067772Y27302759D01*
X62067768Y27302762D01*
X62034463Y27317174D01*
X62023813Y27322391D01*
X61985060Y27343695D01*
X61965437Y27348733D01*
X61946734Y27355137D01*
X61935420Y27360033D01*
X61935419Y27360033D01*
X61928145Y27363181D01*
X61920320Y27364421D01*
X61920311Y27364423D01*
X61910026Y27366052D01*
X61845873Y27396465D01*
X61808347Y27456733D01*
X61809362Y27527723D01*
X61848595Y27586894D01*
X61913591Y27615461D01*
X61929738Y27616500D01*
X63685406Y27616500D01*
X63753527Y27596498D01*
X63774501Y27579595D01*
X64664750Y26689346D01*
X64698776Y26627034D01*
X64701054Y26612547D01*
X64704163Y26580840D01*
X64761418Y26408727D01*
X64765065Y26402705D01*
X64765066Y26402703D01*
X64775978Y26384686D01*
X64855380Y26253576D01*
X64981382Y26123098D01*
X65133159Y26023778D01*
X65139763Y26021322D01*
X65139765Y26021321D01*
X65296558Y25963010D01*
X65296560Y25963010D01*
X65303168Y25960552D01*
X65386995Y25949367D01*
X65475980Y25937493D01*
X65475984Y25937493D01*
X65482961Y25936562D01*
X65489972Y25937200D01*
X65489976Y25937200D01*
X65632459Y25950168D01*
X65663600Y25953002D01*
X65670302Y25955180D01*
X65670304Y25955180D01*
X65829409Y26006876D01*
X65829412Y26006877D01*
X65836108Y26009053D01*
X65954443Y26079595D01*
X65985860Y26098323D01*
X65985862Y26098324D01*
X65991912Y26101931D01*
X66123266Y26227018D01*
X66223643Y26378098D01*
X66288055Y26547662D01*
X66289035Y26554634D01*
X66312748Y26723361D01*
X66312748Y26723364D01*
X66313299Y26727283D01*
X66313616Y26750000D01*
X66293397Y26930255D01*
X66291080Y26936909D01*
X66236064Y27094894D01*
X66236062Y27094897D01*
X66233745Y27101552D01*
X66154352Y27228608D01*
X66141359Y27249402D01*
X66137626Y27255376D01*
X66112060Y27281121D01*
X66014778Y27379085D01*
X66014774Y27379088D01*
X66009815Y27384082D01*
X65998697Y27391138D01*
X65897782Y27455180D01*
X65856666Y27481273D01*
X65827463Y27491672D01*
X65692425Y27539757D01*
X65692420Y27539758D01*
X65685790Y27542119D01*
X65678802Y27542952D01*
X65678799Y27542953D01*
X65636008Y27548055D01*
X65570734Y27575982D01*
X65561831Y27584074D01*
X64503652Y28642253D01*
X64496112Y28650538D01*
X64492000Y28657018D01*
X64487728Y28661030D01*
X64460081Y28725424D01*
X64471789Y28795449D01*
X64519496Y28848027D01*
X64585176Y28866500D01*
X65965994Y28866500D01*
X66034115Y28846498D01*
X66073769Y28805772D01*
X66080021Y28795449D01*
X66099879Y28762660D01*
X66105380Y28753576D01*
X66110269Y28748513D01*
X66110270Y28748512D01*
X66132566Y28725424D01*
X66231382Y28623098D01*
X66383159Y28523778D01*
X66389763Y28521322D01*
X66389765Y28521321D01*
X66546558Y28463010D01*
X66546560Y28463010D01*
X66553168Y28460552D01*
X66636995Y28449367D01*
X66725980Y28437493D01*
X66725984Y28437493D01*
X66732961Y28436562D01*
X66739972Y28437200D01*
X66739976Y28437200D01*
X66882459Y28450168D01*
X66913600Y28453002D01*
X66920302Y28455180D01*
X66920304Y28455180D01*
X67079409Y28506876D01*
X67079412Y28506877D01*
X67086108Y28509053D01*
X67241912Y28601931D01*
X67373266Y28727018D01*
X67473643Y28878098D01*
X67515423Y28988083D01*
X67535555Y29041080D01*
X67535556Y29041082D01*
X67538055Y29047662D01*
X67539035Y29054634D01*
X67562748Y29223361D01*
X67562748Y29223364D01*
X67563299Y29227283D01*
X67563616Y29250000D01*
X67543397Y29430255D01*
X67541080Y29436909D01*
X67486064Y29594894D01*
X67486062Y29594897D01*
X67483745Y29601552D01*
X67387626Y29755376D01*
X67281980Y29861762D01*
X67264778Y29879085D01*
X67264774Y29879088D01*
X67259815Y29884082D01*
X67106666Y29981273D01*
X67071565Y29993772D01*
X66942425Y30039757D01*
X66942420Y30039758D01*
X66935790Y30042119D01*
X66928802Y30042952D01*
X66928799Y30042953D01*
X66825075Y30055321D01*
X66789959Y30064796D01*
X66784470Y30067171D01*
X66773805Y30072395D01*
X66742005Y30089877D01*
X66735060Y30093695D01*
X66715437Y30098733D01*
X66696734Y30105137D01*
X66685420Y30110033D01*
X66685419Y30110033D01*
X66678145Y30113181D01*
X66670322Y30114420D01*
X66670312Y30114423D01*
X66634476Y30120099D01*
X66622856Y30122505D01*
X66587711Y30131528D01*
X66587710Y30131528D01*
X66580030Y30133500D01*
X66559776Y30133500D01*
X66540065Y30135051D01*
X66527886Y30136980D01*
X66520057Y30138220D01*
X66490712Y30135446D01*
X66476039Y30134059D01*
X66464181Y30133500D01*
X55950202Y30133500D01*
X55882081Y30153502D01*
X55835588Y30207158D01*
X55825484Y30277432D01*
X55854978Y30342012D01*
X55877931Y30362713D01*
X55945270Y30409864D01*
X55945273Y30409866D01*
X55949781Y30413023D01*
X56106977Y30570219D01*
X56194894Y30695777D01*
X56231331Y30747815D01*
X56231332Y30747817D01*
X56234488Y30752324D01*
X56236811Y30757306D01*
X56236814Y30757311D01*
X56326117Y30948822D01*
X56326118Y30948823D01*
X56328440Y30953804D01*
X56385978Y31168537D01*
X56405353Y31390000D01*
X56385978Y31611463D01*
X56328440Y31826196D01*
X56285805Y31917627D01*
X56236814Y32022689D01*
X56236811Y32022694D01*
X56234488Y32027676D01*
X56231331Y32032185D01*
X56110136Y32205270D01*
X56110134Y32205273D01*
X56106977Y32209781D01*
X55949781Y32366977D01*
X55945273Y32370134D01*
X55945270Y32370136D01*
X55869505Y32423187D01*
X55767677Y32494488D01*
X55762695Y32496811D01*
X55762690Y32496814D01*
X55571178Y32586117D01*
X55571177Y32586118D01*
X55566196Y32588440D01*
X55455691Y32618050D01*
X55395069Y32655002D01*
X55364047Y32718863D01*
X55372476Y32789357D01*
X55417680Y32844104D01*
X55484344Y32865695D01*
X55502830Y32866276D01*
X55507987Y32866438D01*
X55511945Y32866500D01*
X55539856Y32866500D01*
X55543791Y32866997D01*
X55543856Y32867005D01*
X55555693Y32867938D01*
X55587951Y32868952D01*
X55591970Y32869078D01*
X55599889Y32869327D01*
X55619343Y32874979D01*
X55638700Y32878987D01*
X55650930Y32880532D01*
X55650931Y32880532D01*
X55658797Y32881526D01*
X55666168Y32884445D01*
X55666170Y32884445D01*
X55699912Y32897804D01*
X55711142Y32901649D01*
X55745983Y32911771D01*
X55745984Y32911771D01*
X55753593Y32913982D01*
X55760412Y32918015D01*
X55760417Y32918017D01*
X55771028Y32924293D01*
X55788776Y32932988D01*
X55807617Y32940448D01*
X55843387Y32966436D01*
X55853307Y32972952D01*
X55884535Y32991420D01*
X55884538Y32991422D01*
X55891362Y32995458D01*
X55905683Y33009779D01*
X55920717Y33022620D01*
X55930694Y33029869D01*
X55937107Y33034528D01*
X55965298Y33068605D01*
X55973288Y33077384D01*
X59975499Y37079595D01*
X60037811Y37113621D01*
X60064594Y37116500D01*
X62048434Y37116500D01*
X62116555Y37096498D01*
X62155867Y37056335D01*
X62273241Y36864798D01*
X62273245Y36864792D01*
X62275824Y36860584D01*
X62430031Y36680031D01*
X62610584Y36525824D01*
X62614792Y36523245D01*
X62614798Y36523241D01*
X62772773Y36426434D01*
X62813037Y36401760D01*
X62817607Y36399867D01*
X62817611Y36399865D01*
X63027833Y36312789D01*
X63032406Y36310895D01*
X63112609Y36291640D01*
X63258476Y36256620D01*
X63258482Y36256619D01*
X63263289Y36255465D01*
X63500000Y36236835D01*
X63736711Y36255465D01*
X63741518Y36256619D01*
X63741524Y36256620D01*
X63887391Y36291640D01*
X63967594Y36310895D01*
X63972167Y36312789D01*
X64182389Y36399865D01*
X64182393Y36399867D01*
X64186963Y36401760D01*
X64227227Y36426434D01*
X64385202Y36523241D01*
X64385208Y36523245D01*
X64389416Y36525824D01*
X64569969Y36680031D01*
X64724176Y36860584D01*
X64726755Y36864792D01*
X64726759Y36864798D01*
X64845654Y37058817D01*
X64848240Y37063037D01*
X64858653Y37088175D01*
X64937211Y37277833D01*
X64937212Y37277835D01*
X64939105Y37282406D01*
X64989045Y37490420D01*
X64993380Y37508476D01*
X64993381Y37508482D01*
X64994535Y37513289D01*
X65013165Y37750000D01*
X64994535Y37986711D01*
X64939105Y38217594D01*
X64896415Y38320658D01*
X64850135Y38432389D01*
X64850133Y38432393D01*
X64848240Y38436963D01*
X64803877Y38509357D01*
X64726759Y38635202D01*
X64726755Y38635208D01*
X64724176Y38639416D01*
X64569969Y38819969D01*
X64389416Y38974176D01*
X64385208Y38976755D01*
X64385202Y38976759D01*
X64191183Y39095654D01*
X64186963Y39098240D01*
X64182393Y39100133D01*
X64182389Y39100135D01*
X63972167Y39187211D01*
X63972165Y39187212D01*
X63967594Y39189105D01*
X63887391Y39208360D01*
X63741524Y39243380D01*
X63741518Y39243381D01*
X63736711Y39244535D01*
X63500000Y39263165D01*
X63263289Y39244535D01*
X63258482Y39243381D01*
X63258476Y39243380D01*
X63112609Y39208360D01*
X63032406Y39189105D01*
X63027835Y39187212D01*
X63027833Y39187211D01*
X62817611Y39100135D01*
X62817607Y39100133D01*
X62813037Y39098240D01*
X62808817Y39095654D01*
X62614798Y38976759D01*
X62614792Y38976755D01*
X62610584Y38974176D01*
X62430031Y38819969D01*
X62275824Y38639416D01*
X62273245Y38635208D01*
X62273241Y38635202D01*
X62155867Y38443665D01*
X62103219Y38396034D01*
X62048434Y38383500D01*
X59828768Y38383500D01*
X59817585Y38384027D01*
X59810092Y38385702D01*
X59802166Y38385453D01*
X59802165Y38385453D01*
X59742002Y38383562D01*
X59738044Y38383500D01*
X59710144Y38383500D01*
X59706154Y38382996D01*
X59694320Y38382064D01*
X59650111Y38380674D01*
X59642495Y38378461D01*
X59642493Y38378461D01*
X59630652Y38375021D01*
X59611293Y38371012D01*
X59609983Y38370846D01*
X59591203Y38368474D01*
X59583837Y38365558D01*
X59583831Y38365556D01*
X59550098Y38352200D01*
X59538868Y38348355D01*
X59504017Y38338230D01*
X59496407Y38336019D01*
X59489584Y38331984D01*
X59478966Y38325705D01*
X59461213Y38317008D01*
X59453568Y38313981D01*
X59442383Y38309552D01*
X59435968Y38304891D01*
X59406612Y38283563D01*
X59396695Y38277049D01*
X59358638Y38254542D01*
X59344317Y38240221D01*
X59329284Y38227381D01*
X59312893Y38215472D01*
X59307842Y38209366D01*
X59284702Y38181395D01*
X59276712Y38172616D01*
X55274500Y34170405D01*
X55212188Y34136379D01*
X55185405Y34133500D01*
X33078767Y34133500D01*
X33067584Y34134027D01*
X33060091Y34135702D01*
X33052165Y34135453D01*
X33052164Y34135453D01*
X32992001Y34133562D01*
X32988043Y34133500D01*
X32960144Y34133500D01*
X32956154Y34132996D01*
X32944320Y34132064D01*
X32900111Y34130674D01*
X32892497Y34128462D01*
X32892492Y34128461D01*
X32880659Y34125023D01*
X32861296Y34121012D01*
X32841203Y34118474D01*
X32833836Y34115557D01*
X32833831Y34115556D01*
X32800092Y34102198D01*
X32788865Y34098354D01*
X32746407Y34086018D01*
X32739581Y34081981D01*
X32728972Y34075707D01*
X32711224Y34067012D01*
X32692383Y34059552D01*
X32685967Y34054890D01*
X32685966Y34054890D01*
X32656613Y34033564D01*
X32646693Y34027048D01*
X32615465Y34008580D01*
X32615462Y34008578D01*
X32608638Y34004542D01*
X32594317Y33990221D01*
X32579284Y33977381D01*
X32562893Y33965472D01*
X32536516Y33933587D01*
X32534712Y33931407D01*
X32526722Y33922626D01*
X31877742Y33273647D01*
X31869463Y33266113D01*
X31862982Y33262000D01*
X31816357Y33212349D01*
X31813602Y33209507D01*
X31793865Y33189770D01*
X31791385Y33186573D01*
X31783682Y33177553D01*
X31753414Y33145321D01*
X31749595Y33138375D01*
X31749593Y33138372D01*
X31743652Y33127566D01*
X31732801Y33111047D01*
X31720386Y33095041D01*
X31717241Y33087772D01*
X31717238Y33087768D01*
X31702826Y33054463D01*
X31697609Y33043813D01*
X31676305Y33005060D01*
X31674334Y32997385D01*
X31674334Y32997384D01*
X31671267Y32985438D01*
X31664863Y32966734D01*
X31656819Y32948145D01*
X31655580Y32940322D01*
X31655577Y32940312D01*
X31649901Y32904476D01*
X31647495Y32892856D01*
X31640713Y32866438D01*
X31636500Y32850030D01*
X31636500Y32829776D01*
X31634949Y32810066D01*
X31631780Y32790057D01*
X31632526Y32782165D01*
X31635941Y32746039D01*
X31636500Y32734181D01*
X31636500Y32563004D01*
X31616498Y32494883D01*
X31582771Y32459791D01*
X31454730Y32370136D01*
X31454727Y32370134D01*
X31450219Y32366977D01*
X31293023Y32209781D01*
X31289866Y32205273D01*
X31289864Y32205270D01*
X31168669Y32032185D01*
X31165512Y32027676D01*
X31163189Y32022694D01*
X31163186Y32022689D01*
X31114195Y31917627D01*
X31067277Y31864342D01*
X30999000Y31844881D01*
X30931040Y31865423D01*
X30885805Y31917627D01*
X30836814Y32022689D01*
X30836811Y32022694D01*
X30834488Y32027676D01*
X30831331Y32032185D01*
X30710136Y32205270D01*
X30710134Y32205273D01*
X30706977Y32209781D01*
X30549781Y32366977D01*
X30545273Y32370134D01*
X30545270Y32370136D01*
X30469505Y32423187D01*
X30367677Y32494488D01*
X30362695Y32496811D01*
X30362690Y32496814D01*
X30171178Y32586117D01*
X30171177Y32586118D01*
X30166196Y32588440D01*
X30160888Y32589862D01*
X30160886Y32589863D01*
X30093993Y32607787D01*
X29951463Y32645978D01*
X29730000Y32665353D01*
X29508537Y32645978D01*
X29366007Y32607787D01*
X29299114Y32589863D01*
X29299112Y32589862D01*
X29293804Y32588440D01*
X29288823Y32586118D01*
X29288822Y32586117D01*
X29097311Y32496814D01*
X29097306Y32496811D01*
X29092324Y32494488D01*
X29087817Y32491332D01*
X29087815Y32491331D01*
X28914730Y32370136D01*
X28914727Y32370134D01*
X28910219Y32366977D01*
X28753023Y32209781D01*
X28749866Y32205273D01*
X28749864Y32205270D01*
X28628669Y32032185D01*
X28625512Y32027676D01*
X28623189Y32022694D01*
X28623186Y32022689D01*
X28574195Y31917627D01*
X28527277Y31864342D01*
X28459000Y31844881D01*
X28391040Y31865423D01*
X28345805Y31917627D01*
X28296814Y32022689D01*
X28296811Y32022694D01*
X28294488Y32027676D01*
X28291331Y32032185D01*
X28170136Y32205270D01*
X28170134Y32205273D01*
X28166977Y32209781D01*
X28009781Y32366977D01*
X28005273Y32370134D01*
X28005270Y32370136D01*
X27929505Y32423187D01*
X27827677Y32494488D01*
X27822695Y32496811D01*
X27822690Y32496814D01*
X27631178Y32586117D01*
X27631177Y32586118D01*
X27626196Y32588440D01*
X27620888Y32589862D01*
X27620886Y32589863D01*
X27553993Y32607787D01*
X27411463Y32645978D01*
X27190000Y32665353D01*
X26968537Y32645978D01*
X26826007Y32607787D01*
X26759114Y32589863D01*
X26759112Y32589862D01*
X26753804Y32588440D01*
X26748823Y32586118D01*
X26748822Y32586117D01*
X26557311Y32496814D01*
X26557306Y32496811D01*
X26552324Y32494488D01*
X26547817Y32491332D01*
X26547815Y32491331D01*
X26374730Y32370136D01*
X26374727Y32370134D01*
X26370219Y32366977D01*
X26213023Y32209781D01*
X26209866Y32205273D01*
X26209864Y32205270D01*
X26088669Y32032185D01*
X26085512Y32027676D01*
X26083189Y32022694D01*
X26083186Y32022689D01*
X26033919Y31917035D01*
X25987001Y31863750D01*
X25918724Y31844289D01*
X25850764Y31864831D01*
X25805529Y31917035D01*
X25756377Y32022441D01*
X25750897Y32031932D01*
X25720206Y32075765D01*
X25709729Y32084140D01*
X25696282Y32077072D01*
X25022022Y31402812D01*
X25014408Y31388868D01*
X24284356Y31388868D01*
X24285592Y31391132D01*
X24285461Y31392965D01*
X24281210Y31399580D01*
X23602997Y32077793D01*
X23591223Y32084223D01*
X23579207Y32074926D01*
X23549103Y32031932D01*
X23543623Y32022441D01*
X23494471Y31917035D01*
X23447553Y31863750D01*
X23379276Y31844289D01*
X23311316Y31864831D01*
X23266081Y31917035D01*
X23216814Y32022689D01*
X23216811Y32022694D01*
X23214488Y32027676D01*
X23211331Y32032185D01*
X23090136Y32205270D01*
X23090134Y32205273D01*
X23086977Y32209781D01*
X22929781Y32366977D01*
X22925273Y32370134D01*
X22925270Y32370136D01*
X22849505Y32423187D01*
X22811599Y32449729D01*
X23955860Y32449729D01*
X23962928Y32436282D01*
X24637188Y31762022D01*
X24651132Y31754408D01*
X24652965Y31754539D01*
X24659580Y31758790D01*
X25337793Y32437003D01*
X25344223Y32448777D01*
X25334926Y32460793D01*
X25291931Y32490898D01*
X25282445Y32496376D01*
X25091007Y32585645D01*
X25080715Y32589391D01*
X24876691Y32644059D01*
X24865896Y32645962D01*
X24655475Y32664372D01*
X24644525Y32664372D01*
X24434104Y32645962D01*
X24423309Y32644059D01*
X24219285Y32589391D01*
X24208993Y32585645D01*
X24017559Y32496377D01*
X24008068Y32490897D01*
X23964235Y32460206D01*
X23955860Y32449729D01*
X22811599Y32449729D01*
X22747677Y32494488D01*
X22742695Y32496811D01*
X22742690Y32496814D01*
X22551178Y32586117D01*
X22551177Y32586118D01*
X22546196Y32588440D01*
X22540888Y32589862D01*
X22540886Y32589863D01*
X22473993Y32607787D01*
X22331463Y32645978D01*
X22110000Y32665353D01*
X21888537Y32645978D01*
X21746007Y32607787D01*
X21679114Y32589863D01*
X21679112Y32589862D01*
X21673804Y32588440D01*
X21668823Y32586118D01*
X21668822Y32586117D01*
X21477311Y32496814D01*
X21477306Y32496811D01*
X21472324Y32494488D01*
X21467817Y32491332D01*
X21467815Y32491331D01*
X21294730Y32370136D01*
X21294727Y32370134D01*
X21290219Y32366977D01*
X21133023Y32209781D01*
X21129866Y32205273D01*
X21129864Y32205270D01*
X21008669Y32032185D01*
X21005512Y32027676D01*
X21003189Y32022694D01*
X21003186Y32022689D01*
X20954195Y31917627D01*
X20907277Y31864342D01*
X20839000Y31844881D01*
X20771040Y31865423D01*
X20725805Y31917627D01*
X20676814Y32022689D01*
X20676811Y32022694D01*
X20674488Y32027676D01*
X20671331Y32032185D01*
X20550136Y32205270D01*
X20550134Y32205273D01*
X20546977Y32209781D01*
X20389781Y32366977D01*
X20385273Y32370134D01*
X20385270Y32370136D01*
X20309505Y32423187D01*
X20207677Y32494488D01*
X20202695Y32496811D01*
X20202690Y32496814D01*
X20011178Y32586117D01*
X20011177Y32586118D01*
X20006196Y32588440D01*
X20000888Y32589862D01*
X20000886Y32589863D01*
X19933993Y32607787D01*
X19791463Y32645978D01*
X19570000Y32665353D01*
X19348537Y32645978D01*
X19206007Y32607787D01*
X19139114Y32589863D01*
X19139112Y32589862D01*
X19133804Y32588440D01*
X19128823Y32586118D01*
X19128822Y32586117D01*
X18937311Y32496814D01*
X18937306Y32496811D01*
X18932324Y32494488D01*
X18927817Y32491332D01*
X18927815Y32491331D01*
X18754730Y32370136D01*
X18754727Y32370134D01*
X18750219Y32366977D01*
X18593023Y32209781D01*
X18589866Y32205273D01*
X18589864Y32205270D01*
X18468669Y32032185D01*
X18465512Y32027676D01*
X18463189Y32022694D01*
X18463186Y32022689D01*
X18414195Y31917627D01*
X18367277Y31864342D01*
X18299000Y31844881D01*
X18231040Y31865423D01*
X18185805Y31917627D01*
X18136814Y32022689D01*
X18136811Y32022694D01*
X18134488Y32027676D01*
X18131331Y32032185D01*
X18010136Y32205270D01*
X18010134Y32205273D01*
X18006977Y32209781D01*
X17849781Y32366977D01*
X17845273Y32370134D01*
X17845270Y32370136D01*
X17769505Y32423187D01*
X17667677Y32494488D01*
X17662695Y32496811D01*
X17662690Y32496814D01*
X17471178Y32586117D01*
X17471177Y32586118D01*
X17466196Y32588440D01*
X17460888Y32589862D01*
X17460886Y32589863D01*
X17393993Y32607787D01*
X17251463Y32645978D01*
X17030000Y32665353D01*
X16808537Y32645978D01*
X16666007Y32607787D01*
X16599114Y32589863D01*
X16599112Y32589862D01*
X16593804Y32588440D01*
X16588823Y32586118D01*
X16588822Y32586117D01*
X16397311Y32496814D01*
X16397306Y32496811D01*
X16392324Y32494488D01*
X16387817Y32491332D01*
X16387815Y32491331D01*
X16214730Y32370136D01*
X16214727Y32370134D01*
X16210219Y32366977D01*
X16053023Y32209781D01*
X16049866Y32205273D01*
X16049864Y32205270D01*
X15928669Y32032185D01*
X15925512Y32027676D01*
X15923189Y32022694D01*
X15923186Y32022689D01*
X15874195Y31917627D01*
X15827277Y31864342D01*
X15759000Y31844881D01*
X15691040Y31865423D01*
X15645805Y31917627D01*
X15596814Y32022689D01*
X15596811Y32022694D01*
X15594488Y32027676D01*
X15591331Y32032185D01*
X15470136Y32205270D01*
X15470134Y32205273D01*
X15466977Y32209781D01*
X15309781Y32366977D01*
X15305273Y32370134D01*
X15305270Y32370136D01*
X15229505Y32423187D01*
X15127677Y32494488D01*
X15122695Y32496811D01*
X15122690Y32496814D01*
X14931178Y32586117D01*
X14931177Y32586118D01*
X14926196Y32588440D01*
X14920888Y32589862D01*
X14920886Y32589863D01*
X14853993Y32607787D01*
X14711463Y32645978D01*
X14490000Y32665353D01*
X14268537Y32645978D01*
X14126007Y32607787D01*
X14059114Y32589863D01*
X14059112Y32589862D01*
X14053804Y32588440D01*
X14048823Y32586118D01*
X14048822Y32586117D01*
X13857311Y32496814D01*
X13857306Y32496811D01*
X13852324Y32494488D01*
X13847817Y32491332D01*
X13847815Y32491331D01*
X13674730Y32370136D01*
X13674727Y32370134D01*
X13670219Y32366977D01*
X13513023Y32209781D01*
X13509866Y32205273D01*
X13509864Y32205270D01*
X13388669Y32032185D01*
X13385512Y32027676D01*
X13383189Y32022694D01*
X13383186Y32022689D01*
X13333919Y31917035D01*
X13287001Y31863750D01*
X13218724Y31844289D01*
X13150764Y31864831D01*
X13105529Y31917035D01*
X13056377Y32022441D01*
X13050897Y32031932D01*
X13020206Y32075765D01*
X13009729Y32084140D01*
X12996282Y32077072D01*
X12322022Y31402812D01*
X12314408Y31388868D01*
X11584356Y31388868D01*
X11585592Y31391132D01*
X11585461Y31392965D01*
X11581210Y31399580D01*
X10902997Y32077793D01*
X10891223Y32084223D01*
X10879207Y32074926D01*
X10849103Y32031932D01*
X10843623Y32022441D01*
X10794471Y31917035D01*
X10747553Y31863750D01*
X10679276Y31844289D01*
X10611316Y31864831D01*
X10566081Y31917035D01*
X10516814Y32022689D01*
X10516811Y32022694D01*
X10514488Y32027676D01*
X10511331Y32032185D01*
X10390136Y32205270D01*
X10390134Y32205273D01*
X10386977Y32209781D01*
X10229781Y32366977D01*
X10225273Y32370134D01*
X10225270Y32370136D01*
X10149505Y32423187D01*
X10111599Y32449729D01*
X11255860Y32449729D01*
X11262928Y32436282D01*
X11937188Y31762022D01*
X11951132Y31754408D01*
X11952965Y31754539D01*
X11959580Y31758790D01*
X12637793Y32437003D01*
X12644223Y32448777D01*
X12634926Y32460793D01*
X12591931Y32490898D01*
X12582445Y32496376D01*
X12391007Y32585645D01*
X12380715Y32589391D01*
X12176691Y32644059D01*
X12165896Y32645962D01*
X11955475Y32664372D01*
X11944525Y32664372D01*
X11734104Y32645962D01*
X11723309Y32644059D01*
X11519285Y32589391D01*
X11508993Y32585645D01*
X11317559Y32496377D01*
X11308068Y32490897D01*
X11264235Y32460206D01*
X11255860Y32449729D01*
X10111599Y32449729D01*
X10047677Y32494488D01*
X10042695Y32496811D01*
X10042690Y32496814D01*
X9851178Y32586117D01*
X9851177Y32586118D01*
X9846196Y32588440D01*
X9840888Y32589862D01*
X9840886Y32589863D01*
X9773993Y32607787D01*
X9631463Y32645978D01*
X9410000Y32665353D01*
X9188537Y32645978D01*
X9046007Y32607787D01*
X8979114Y32589863D01*
X8979112Y32589862D01*
X8973804Y32588440D01*
X8968823Y32586118D01*
X8968822Y32586117D01*
X8777311Y32496814D01*
X8777306Y32496811D01*
X8772324Y32494488D01*
X8767817Y32491332D01*
X8767815Y32491331D01*
X8594730Y32370136D01*
X8594727Y32370134D01*
X8590219Y32366977D01*
X8433023Y32209781D01*
X8429866Y32205273D01*
X8429864Y32205270D01*
X8308669Y32032185D01*
X8305512Y32027676D01*
X8303189Y32022694D01*
X8303186Y32022689D01*
X8254195Y31917627D01*
X8207277Y31864342D01*
X8139000Y31844881D01*
X8071040Y31865423D01*
X8025805Y31917627D01*
X7976814Y32022689D01*
X7976811Y32022694D01*
X7974488Y32027676D01*
X7971331Y32032185D01*
X7850136Y32205270D01*
X7850134Y32205273D01*
X7846977Y32209781D01*
X7689781Y32366977D01*
X7685273Y32370134D01*
X7685270Y32370136D01*
X7609505Y32423187D01*
X7507677Y32494488D01*
X7502695Y32496811D01*
X7502690Y32496814D01*
X7311178Y32586117D01*
X7311177Y32586118D01*
X7306196Y32588440D01*
X7300888Y32589862D01*
X7300886Y32589863D01*
X7233993Y32607787D01*
X7091463Y32645978D01*
X6870000Y32665353D01*
X6648537Y32645978D01*
X6506007Y32607787D01*
X6439114Y32589863D01*
X6439112Y32589862D01*
X6433804Y32588440D01*
X6428823Y32586118D01*
X6428822Y32586117D01*
X6237311Y32496814D01*
X6237306Y32496811D01*
X6232324Y32494488D01*
X6227817Y32491332D01*
X6227815Y32491331D01*
X6054730Y32370136D01*
X6054727Y32370134D01*
X6050219Y32366977D01*
X5893023Y32209781D01*
X5889866Y32205273D01*
X5889864Y32205270D01*
X5768669Y32032185D01*
X5765512Y32027676D01*
X5763189Y32022694D01*
X5763186Y32022689D01*
X5714195Y31917627D01*
X5671560Y31826196D01*
X5614022Y31611463D01*
X5594647Y31390000D01*
X508500Y31390000D01*
X508500Y36413938D01*
X1278493Y36413938D01*
X1287789Y36401923D01*
X1338994Y36366069D01*
X1348489Y36360586D01*
X1545947Y36268510D01*
X1556239Y36264764D01*
X1766688Y36208375D01*
X1777481Y36206472D01*
X1994525Y36187483D01*
X2005475Y36187483D01*
X2222519Y36206472D01*
X2233312Y36208375D01*
X2443761Y36264764D01*
X2454053Y36268510D01*
X2651511Y36360586D01*
X2661006Y36366069D01*
X2713048Y36402509D01*
X2721424Y36412988D01*
X2714356Y36426434D01*
X2012812Y37127978D01*
X1998868Y37135592D01*
X1997035Y37135461D01*
X1990420Y37131210D01*
X1284923Y36425713D01*
X1278493Y36413938D01*
X508500Y36413938D01*
X508500Y37055564D01*
X528502Y37123685D01*
X582158Y37170178D01*
X652432Y37180282D01*
X717012Y37150788D01*
X756207Y37088175D01*
X764764Y37056239D01*
X768510Y37045947D01*
X860586Y36848489D01*
X866069Y36838994D01*
X902509Y36786952D01*
X912988Y36778576D01*
X926434Y36785644D01*
X1627978Y37487188D01*
X1634356Y37498868D01*
X2364408Y37498868D01*
X2364539Y37497035D01*
X2368790Y37490420D01*
X2726199Y37133011D01*
X2758811Y37076527D01*
X2762426Y37063037D01*
X2765716Y37050757D01*
X2768039Y37045776D01*
X2768039Y37045775D01*
X2860151Y36848238D01*
X2860154Y36848233D01*
X2862477Y36843251D01*
X2993802Y36655700D01*
X3155700Y36493802D01*
X3160208Y36490645D01*
X3160211Y36490643D01*
X3238389Y36435902D01*
X3343251Y36362477D01*
X3348233Y36360154D01*
X3348238Y36360151D01*
X3544765Y36268510D01*
X3550757Y36265716D01*
X3556065Y36264294D01*
X3556067Y36264293D01*
X3766598Y36207881D01*
X3766600Y36207881D01*
X3771913Y36206457D01*
X4000000Y36186502D01*
X4228087Y36206457D01*
X4233400Y36207881D01*
X4233402Y36207881D01*
X4443933Y36264293D01*
X4443935Y36264294D01*
X4449243Y36265716D01*
X4455235Y36268510D01*
X4651762Y36360151D01*
X4651767Y36360154D01*
X4656749Y36362477D01*
X4761611Y36435902D01*
X4839789Y36490643D01*
X4839792Y36490645D01*
X4844300Y36493802D01*
X5006198Y36655700D01*
X5137523Y36843251D01*
X5139846Y36848233D01*
X5139849Y36848238D01*
X5231961Y37045775D01*
X5231961Y37045776D01*
X5234284Y37050757D01*
X5237575Y37063037D01*
X5292119Y37266598D01*
X5292119Y37266600D01*
X5293543Y37271913D01*
X5313498Y37500000D01*
X5293543Y37728087D01*
X5292119Y37733402D01*
X5235707Y37943933D01*
X5235706Y37943935D01*
X5234284Y37949243D01*
X5219113Y37981777D01*
X5139849Y38151762D01*
X5139846Y38151767D01*
X5137523Y38156749D01*
X5030529Y38309552D01*
X5009357Y38339789D01*
X5009355Y38339792D01*
X5006198Y38344300D01*
X4844300Y38506198D01*
X4839792Y38509355D01*
X4839789Y38509357D01*
X4713920Y38597491D01*
X4656749Y38637523D01*
X4651767Y38639846D01*
X4651762Y38639849D01*
X4454225Y38731961D01*
X4454224Y38731961D01*
X4449243Y38734284D01*
X4443935Y38735706D01*
X4443933Y38735707D01*
X4233402Y38792119D01*
X4233400Y38792119D01*
X4228087Y38793543D01*
X4000000Y38813498D01*
X3771913Y38793543D01*
X3766600Y38792119D01*
X3766598Y38792119D01*
X3556067Y38735707D01*
X3556065Y38735706D01*
X3550757Y38734284D01*
X3545776Y38731961D01*
X3545775Y38731961D01*
X3348238Y38639849D01*
X3348233Y38639846D01*
X3343251Y38637523D01*
X3286080Y38597491D01*
X3160211Y38509357D01*
X3160208Y38509355D01*
X3155700Y38506198D01*
X2993802Y38344300D01*
X2990645Y38339792D01*
X2990643Y38339789D01*
X2969471Y38309552D01*
X2862477Y38156749D01*
X2860154Y38151767D01*
X2860151Y38151762D01*
X2780887Y37981777D01*
X2765716Y37949243D01*
X2764294Y37943935D01*
X2764293Y37943933D01*
X2758811Y37923473D01*
X2726199Y37866989D01*
X2372022Y37512812D01*
X2364408Y37498868D01*
X1634356Y37498868D01*
X1635592Y37501132D01*
X1635461Y37502965D01*
X1631210Y37509580D01*
X925713Y38215077D01*
X913938Y38221507D01*
X901923Y38212211D01*
X866069Y38161006D01*
X860586Y38151511D01*
X768510Y37954053D01*
X764764Y37943761D01*
X756207Y37911825D01*
X719255Y37851202D01*
X655395Y37820181D01*
X584900Y37828609D01*
X530153Y37873812D01*
X508500Y37944436D01*
X508500Y38587012D01*
X1278576Y38587012D01*
X1285644Y38573566D01*
X1987188Y37872022D01*
X2001132Y37864408D01*
X2002965Y37864539D01*
X2009580Y37868790D01*
X2715077Y38574287D01*
X2721507Y38586062D01*
X2712211Y38598077D01*
X2661006Y38633931D01*
X2651511Y38639414D01*
X2454053Y38731490D01*
X2443761Y38735236D01*
X2233312Y38791625D01*
X2222519Y38793528D01*
X2005475Y38812517D01*
X1994525Y38812517D01*
X1777481Y38793528D01*
X1766688Y38791625D01*
X1556239Y38735236D01*
X1545947Y38731490D01*
X1348489Y38639414D01*
X1338994Y38633931D01*
X1286952Y38597491D01*
X1278576Y38587012D01*
X508500Y38587012D01*
X508500Y41374000D01*
X528502Y41442121D01*
X582158Y41488614D01*
X634500Y41500000D01*
X5500000Y41500000D01*
X5500000Y42913938D01*
X9278493Y42913938D01*
X9287789Y42901923D01*
X9338994Y42866069D01*
X9348489Y42860586D01*
X9545947Y42768510D01*
X9556239Y42764764D01*
X9766688Y42708375D01*
X9777481Y42706472D01*
X9994525Y42687483D01*
X10005475Y42687483D01*
X10222519Y42706472D01*
X10233312Y42708375D01*
X10443761Y42764764D01*
X10454053Y42768510D01*
X10651511Y42860586D01*
X10661006Y42866069D01*
X10713048Y42902509D01*
X10721424Y42912988D01*
X10714356Y42926434D01*
X10012812Y43627978D01*
X9998868Y43635592D01*
X9997035Y43635461D01*
X9990420Y43631210D01*
X9284923Y42925713D01*
X9278493Y42913938D01*
X5500000Y42913938D01*
X5500000Y43994525D01*
X8687483Y43994525D01*
X8706472Y43777481D01*
X8708375Y43766688D01*
X8764764Y43556239D01*
X8768510Y43545947D01*
X8860586Y43348489D01*
X8866069Y43338994D01*
X8902509Y43286952D01*
X8912988Y43278576D01*
X8926434Y43285644D01*
X9627978Y43987188D01*
X9634356Y43998868D01*
X10364408Y43998868D01*
X10364539Y43997035D01*
X10368790Y43990420D01*
X10726199Y43633011D01*
X10758811Y43576527D01*
X10763224Y43560059D01*
X10765716Y43550757D01*
X10768039Y43545776D01*
X10768039Y43545775D01*
X10860151Y43348238D01*
X10860154Y43348233D01*
X10862477Y43343251D01*
X10993802Y43155700D01*
X11155700Y42993802D01*
X11160208Y42990645D01*
X11160211Y42990643D01*
X11238389Y42935902D01*
X11343251Y42862477D01*
X11348233Y42860154D01*
X11348238Y42860151D01*
X11524660Y42777885D01*
X11550757Y42765716D01*
X11556065Y42764294D01*
X11556067Y42764293D01*
X11766598Y42707881D01*
X11766600Y42707881D01*
X11771913Y42706457D01*
X12000000Y42686502D01*
X12228087Y42706457D01*
X12233400Y42707881D01*
X12233402Y42707881D01*
X12443933Y42764293D01*
X12443935Y42764294D01*
X12449243Y42765716D01*
X12475340Y42777885D01*
X12479462Y42779807D01*
X25397289Y42779807D01*
X25406124Y42675675D01*
X25407914Y42665203D01*
X25463130Y42452465D01*
X25466665Y42442425D01*
X25556937Y42242030D01*
X25562106Y42232744D01*
X25684850Y42050425D01*
X25691519Y42042130D01*
X25843228Y41883100D01*
X25851186Y41876059D01*
X26027525Y41744859D01*
X26036562Y41739255D01*
X26232484Y41639643D01*
X26242335Y41635643D01*
X26452240Y41570466D01*
X26462624Y41568183D01*
X26478043Y41566139D01*
X26492207Y41568335D01*
X26496000Y41581522D01*
X26496000Y41583808D01*
X27004000Y41583808D01*
X27007973Y41570277D01*
X27018580Y41568752D01*
X27136421Y41593477D01*
X27146617Y41596537D01*
X27351029Y41677263D01*
X27360561Y41681994D01*
X27548462Y41796016D01*
X27557052Y41802280D01*
X27723052Y41946327D01*
X27730470Y41953956D01*
X27756391Y41985569D01*
X27815051Y42025564D01*
X27886021Y42027496D01*
X27946770Y41990752D01*
X27960969Y41971983D01*
X28051522Y41825652D01*
X28176697Y41700695D01*
X28182927Y41696855D01*
X28182928Y41696854D01*
X28320090Y41612306D01*
X28327262Y41607885D01*
X28370701Y41593477D01*
X28488611Y41554368D01*
X28488613Y41554368D01*
X28495139Y41552203D01*
X28501975Y41551503D01*
X28501978Y41551502D01*
X28545031Y41547091D01*
X28599600Y41541500D01*
X29900400Y41541500D01*
X29903646Y41541837D01*
X29903650Y41541837D01*
X29999308Y41551762D01*
X29999312Y41551763D01*
X30006166Y41552474D01*
X30012702Y41554655D01*
X30012704Y41554655D01*
X30144806Y41598728D01*
X30173946Y41608450D01*
X30324348Y41701522D01*
X30449305Y41826697D01*
X30479732Y41876059D01*
X30538275Y41971032D01*
X30538276Y41971034D01*
X30542115Y41977262D01*
X30569688Y42060393D01*
X30595632Y42138611D01*
X30595632Y42138613D01*
X30597797Y42145139D01*
X30608500Y42249600D01*
X30608500Y42779807D01*
X41197289Y42779807D01*
X41206124Y42675675D01*
X41207914Y42665203D01*
X41263130Y42452465D01*
X41266665Y42442425D01*
X41356937Y42242030D01*
X41362106Y42232744D01*
X41484850Y42050425D01*
X41491519Y42042130D01*
X41643228Y41883100D01*
X41651186Y41876059D01*
X41827525Y41744859D01*
X41836562Y41739255D01*
X42032484Y41639643D01*
X42042335Y41635643D01*
X42252240Y41570466D01*
X42262624Y41568183D01*
X42278043Y41566139D01*
X42292207Y41568335D01*
X42296000Y41581522D01*
X42296000Y41583808D01*
X42804000Y41583808D01*
X42807973Y41570277D01*
X42818580Y41568752D01*
X42936421Y41593477D01*
X42946617Y41596537D01*
X43151029Y41677263D01*
X43160561Y41681994D01*
X43348462Y41796016D01*
X43357052Y41802280D01*
X43523052Y41946327D01*
X43530470Y41953956D01*
X43556391Y41985569D01*
X43615051Y42025564D01*
X43686021Y42027496D01*
X43746770Y41990752D01*
X43760969Y41971983D01*
X43851522Y41825652D01*
X43976697Y41700695D01*
X43982927Y41696855D01*
X43982928Y41696854D01*
X44120090Y41612306D01*
X44127262Y41607885D01*
X44170701Y41593477D01*
X44288611Y41554368D01*
X44288613Y41554368D01*
X44295139Y41552203D01*
X44301975Y41551503D01*
X44301978Y41551502D01*
X44345031Y41547091D01*
X44399600Y41541500D01*
X45700400Y41541500D01*
X45703646Y41541837D01*
X45703650Y41541837D01*
X45799308Y41551762D01*
X45799312Y41551763D01*
X45806166Y41552474D01*
X45812702Y41554655D01*
X45812704Y41554655D01*
X45944806Y41598728D01*
X45973946Y41608450D01*
X46124348Y41701522D01*
X46249305Y41826697D01*
X46279732Y41876059D01*
X46338275Y41971032D01*
X46338276Y41971034D01*
X46342115Y41977262D01*
X46369688Y42060393D01*
X46395632Y42138611D01*
X46395632Y42138613D01*
X46397797Y42145139D01*
X46408500Y42249600D01*
X46408500Y42779807D01*
X50647289Y42779807D01*
X50656124Y42675675D01*
X50657914Y42665203D01*
X50713130Y42452465D01*
X50716665Y42442425D01*
X50806937Y42242030D01*
X50812106Y42232744D01*
X50934850Y42050425D01*
X50941519Y42042130D01*
X51093228Y41883100D01*
X51101186Y41876059D01*
X51277525Y41744859D01*
X51286562Y41739255D01*
X51482484Y41639643D01*
X51492335Y41635643D01*
X51702240Y41570466D01*
X51712624Y41568183D01*
X51728043Y41566139D01*
X51742207Y41568335D01*
X51746000Y41581522D01*
X51746000Y41583808D01*
X52254000Y41583808D01*
X52257973Y41570277D01*
X52268580Y41568752D01*
X52386421Y41593477D01*
X52396617Y41596537D01*
X52601029Y41677263D01*
X52610561Y41681994D01*
X52798462Y41796016D01*
X52807052Y41802280D01*
X52973052Y41946327D01*
X52980470Y41953956D01*
X53006391Y41985569D01*
X53065051Y42025564D01*
X53136021Y42027496D01*
X53196770Y41990752D01*
X53210969Y41971983D01*
X53301522Y41825652D01*
X53426697Y41700695D01*
X53432927Y41696855D01*
X53432928Y41696854D01*
X53570090Y41612306D01*
X53577262Y41607885D01*
X53620701Y41593477D01*
X53738611Y41554368D01*
X53738613Y41554368D01*
X53745139Y41552203D01*
X53751975Y41551503D01*
X53751978Y41551502D01*
X53795031Y41547091D01*
X53849600Y41541500D01*
X55150400Y41541500D01*
X55153646Y41541837D01*
X55153650Y41541837D01*
X55249308Y41551762D01*
X55249312Y41551763D01*
X55256166Y41552474D01*
X55262702Y41554655D01*
X55262704Y41554655D01*
X55394806Y41598728D01*
X55423946Y41608450D01*
X55574348Y41701522D01*
X55699305Y41826697D01*
X55729732Y41876059D01*
X55788275Y41971032D01*
X55788276Y41971034D01*
X55792115Y41977262D01*
X55819688Y42060393D01*
X55845632Y42138611D01*
X55845632Y42138613D01*
X55847797Y42145139D01*
X55858500Y42249600D01*
X55858500Y43017330D01*
X62632160Y43017330D01*
X62637887Y43009680D01*
X62809042Y42904795D01*
X62817837Y42900313D01*
X63027988Y42813266D01*
X63037373Y42810217D01*
X63258554Y42757115D01*
X63268301Y42755572D01*
X63495070Y42737725D01*
X63504930Y42737725D01*
X63731699Y42755572D01*
X63741446Y42757115D01*
X63962627Y42810217D01*
X63972012Y42813266D01*
X64182163Y42900313D01*
X64190958Y42904795D01*
X64358445Y43007432D01*
X64367907Y43017890D01*
X64364124Y43026666D01*
X63512812Y43877978D01*
X63498868Y43885592D01*
X63497035Y43885461D01*
X63490420Y43881210D01*
X62638920Y43029710D01*
X62632160Y43017330D01*
X55858500Y43017330D01*
X55858500Y43850400D01*
X55855639Y43877978D01*
X55848238Y43949308D01*
X55848237Y43949312D01*
X55847526Y43956166D01*
X55837090Y43987448D01*
X55793868Y44116998D01*
X55791550Y44123946D01*
X55716596Y44245070D01*
X61987725Y44245070D01*
X62005572Y44018301D01*
X62007115Y44008554D01*
X62060217Y43787373D01*
X62063266Y43777988D01*
X62150313Y43567837D01*
X62154795Y43559042D01*
X62257432Y43391555D01*
X62267890Y43382093D01*
X62276666Y43385876D01*
X63127978Y44237188D01*
X63134356Y44248868D01*
X63864408Y44248868D01*
X63864539Y44247035D01*
X63868790Y44240420D01*
X64720290Y43388920D01*
X64732670Y43382160D01*
X64740320Y43387887D01*
X64845205Y43559042D01*
X64849687Y43567837D01*
X64936734Y43777988D01*
X64939783Y43787373D01*
X64992885Y44008554D01*
X64994428Y44018301D01*
X65012275Y44245070D01*
X65012275Y44254930D01*
X64994428Y44481699D01*
X64992885Y44491446D01*
X64939783Y44712627D01*
X64936734Y44722012D01*
X64849687Y44932163D01*
X64845205Y44940958D01*
X64742568Y45108445D01*
X64732110Y45117907D01*
X64723334Y45114124D01*
X63872022Y44262812D01*
X63864408Y44248868D01*
X63134356Y44248868D01*
X63135592Y44251132D01*
X63135461Y44252965D01*
X63131210Y44259580D01*
X62279710Y45111080D01*
X62267330Y45117840D01*
X62259680Y45112113D01*
X62154795Y44940958D01*
X62150313Y44932163D01*
X62063266Y44722012D01*
X62060217Y44712627D01*
X62007115Y44491446D01*
X62005572Y44481699D01*
X61987725Y44254930D01*
X61987725Y44245070D01*
X55716596Y44245070D01*
X55698478Y44274348D01*
X55573303Y44399305D01*
X55542965Y44418006D01*
X55428968Y44488275D01*
X55428966Y44488276D01*
X55422738Y44492115D01*
X55303498Y44531665D01*
X55261389Y44545632D01*
X55261387Y44545632D01*
X55254861Y44547797D01*
X55248025Y44548497D01*
X55248022Y44548498D01*
X55204969Y44552909D01*
X55150400Y44558500D01*
X53849600Y44558500D01*
X53846354Y44558163D01*
X53846350Y44558163D01*
X53750692Y44548238D01*
X53750688Y44548237D01*
X53743834Y44547526D01*
X53737298Y44545345D01*
X53737296Y44545345D01*
X53605194Y44501272D01*
X53576054Y44491550D01*
X53425652Y44398478D01*
X53300695Y44273303D01*
X53296855Y44267073D01*
X53296854Y44267072D01*
X53210648Y44127220D01*
X53157876Y44079727D01*
X53087804Y44068303D01*
X53022680Y44096577D01*
X53012218Y44106364D01*
X52906766Y44216906D01*
X52898814Y44223941D01*
X52722475Y44355141D01*
X52713438Y44360745D01*
X52517516Y44460357D01*
X52507665Y44464357D01*
X52297760Y44529534D01*
X52287376Y44531817D01*
X52271957Y44533861D01*
X52257793Y44531665D01*
X52254000Y44518478D01*
X52254000Y41583808D01*
X51746000Y41583808D01*
X51746000Y42777885D01*
X51741525Y42793124D01*
X51740135Y42794329D01*
X51732452Y42796000D01*
X50664030Y42796000D01*
X50649352Y42791690D01*
X50647289Y42779807D01*
X46408500Y42779807D01*
X46408500Y43319624D01*
X50642732Y43319624D01*
X50646475Y43306876D01*
X50647865Y43305671D01*
X50655548Y43304000D01*
X51727885Y43304000D01*
X51743124Y43308475D01*
X51744329Y43309865D01*
X51746000Y43317548D01*
X51746000Y44516192D01*
X51742027Y44529723D01*
X51731420Y44531248D01*
X51613579Y44506523D01*
X51603383Y44503463D01*
X51398971Y44422737D01*
X51389439Y44418006D01*
X51201538Y44303984D01*
X51192948Y44297720D01*
X51026948Y44153673D01*
X51019528Y44146042D01*
X50880174Y43976089D01*
X50874150Y43967322D01*
X50765424Y43776318D01*
X50760959Y43766654D01*
X50685969Y43560059D01*
X50683198Y43549792D01*
X50643877Y43332345D01*
X50642944Y43324116D01*
X50642732Y43319624D01*
X46408500Y43319624D01*
X46408500Y43850400D01*
X46405639Y43877978D01*
X46398238Y43949308D01*
X46398237Y43949312D01*
X46397526Y43956166D01*
X46387090Y43987448D01*
X46343868Y44116998D01*
X46341550Y44123946D01*
X46248478Y44274348D01*
X46123303Y44399305D01*
X46092965Y44418006D01*
X45978968Y44488275D01*
X45978966Y44488276D01*
X45972738Y44492115D01*
X45853498Y44531665D01*
X45811389Y44545632D01*
X45811387Y44545632D01*
X45804861Y44547797D01*
X45798025Y44548497D01*
X45798022Y44548498D01*
X45754969Y44552909D01*
X45700400Y44558500D01*
X44399600Y44558500D01*
X44396354Y44558163D01*
X44396350Y44558163D01*
X44300692Y44548238D01*
X44300688Y44548237D01*
X44293834Y44547526D01*
X44287298Y44545345D01*
X44287296Y44545345D01*
X44155194Y44501272D01*
X44126054Y44491550D01*
X43975652Y44398478D01*
X43850695Y44273303D01*
X43846855Y44267073D01*
X43846854Y44267072D01*
X43760648Y44127220D01*
X43707876Y44079727D01*
X43637804Y44068303D01*
X43572680Y44096577D01*
X43562218Y44106364D01*
X43456766Y44216906D01*
X43448814Y44223941D01*
X43272475Y44355141D01*
X43263438Y44360745D01*
X43067516Y44460357D01*
X43057665Y44464357D01*
X42847760Y44529534D01*
X42837376Y44531817D01*
X42821957Y44533861D01*
X42807793Y44531665D01*
X42804000Y44518478D01*
X42804000Y41583808D01*
X42296000Y41583808D01*
X42296000Y42777885D01*
X42291525Y42793124D01*
X42290135Y42794329D01*
X42282452Y42796000D01*
X41214030Y42796000D01*
X41199352Y42791690D01*
X41197289Y42779807D01*
X30608500Y42779807D01*
X30608500Y43319624D01*
X41192732Y43319624D01*
X41196475Y43306876D01*
X41197865Y43305671D01*
X41205548Y43304000D01*
X42277885Y43304000D01*
X42293124Y43308475D01*
X42294329Y43309865D01*
X42296000Y43317548D01*
X42296000Y44516192D01*
X42292027Y44529723D01*
X42281420Y44531248D01*
X42163579Y44506523D01*
X42153383Y44503463D01*
X41948971Y44422737D01*
X41939439Y44418006D01*
X41751538Y44303984D01*
X41742948Y44297720D01*
X41576948Y44153673D01*
X41569528Y44146042D01*
X41430174Y43976089D01*
X41424150Y43967322D01*
X41315424Y43776318D01*
X41310959Y43766654D01*
X41235969Y43560059D01*
X41233198Y43549792D01*
X41193877Y43332345D01*
X41192944Y43324116D01*
X41192732Y43319624D01*
X30608500Y43319624D01*
X30608500Y43850400D01*
X30605639Y43877978D01*
X30598238Y43949308D01*
X30598237Y43949312D01*
X30597526Y43956166D01*
X30587090Y43987448D01*
X30543868Y44116998D01*
X30541550Y44123946D01*
X30448478Y44274348D01*
X30323303Y44399305D01*
X30292965Y44418006D01*
X30178968Y44488275D01*
X30178966Y44488276D01*
X30172738Y44492115D01*
X30053498Y44531665D01*
X30011389Y44545632D01*
X30011387Y44545632D01*
X30004861Y44547797D01*
X29998025Y44548497D01*
X29998022Y44548498D01*
X29954969Y44552909D01*
X29900400Y44558500D01*
X28599600Y44558500D01*
X28596354Y44558163D01*
X28596350Y44558163D01*
X28500692Y44548238D01*
X28500688Y44548237D01*
X28493834Y44547526D01*
X28487298Y44545345D01*
X28487296Y44545345D01*
X28355194Y44501272D01*
X28326054Y44491550D01*
X28175652Y44398478D01*
X28050695Y44273303D01*
X28046855Y44267073D01*
X28046854Y44267072D01*
X27960648Y44127220D01*
X27907876Y44079727D01*
X27837804Y44068303D01*
X27772680Y44096577D01*
X27762218Y44106364D01*
X27656766Y44216906D01*
X27648814Y44223941D01*
X27472475Y44355141D01*
X27463438Y44360745D01*
X27267516Y44460357D01*
X27257665Y44464357D01*
X27047760Y44529534D01*
X27037376Y44531817D01*
X27021957Y44533861D01*
X27007793Y44531665D01*
X27004000Y44518478D01*
X27004000Y41583808D01*
X26496000Y41583808D01*
X26496000Y42777885D01*
X26491525Y42793124D01*
X26490135Y42794329D01*
X26482452Y42796000D01*
X25414030Y42796000D01*
X25399352Y42791690D01*
X25397289Y42779807D01*
X12479462Y42779807D01*
X12651762Y42860151D01*
X12651767Y42860154D01*
X12656749Y42862477D01*
X12761611Y42935902D01*
X12839789Y42990643D01*
X12839792Y42990645D01*
X12844300Y42993802D01*
X13006198Y43155700D01*
X13120979Y43319624D01*
X25392732Y43319624D01*
X25396475Y43306876D01*
X25397865Y43305671D01*
X25405548Y43304000D01*
X26477885Y43304000D01*
X26493124Y43308475D01*
X26494329Y43309865D01*
X26496000Y43317548D01*
X26496000Y44516192D01*
X26492027Y44529723D01*
X26481420Y44531248D01*
X26363579Y44506523D01*
X26353383Y44503463D01*
X26148971Y44422737D01*
X26139439Y44418006D01*
X25951538Y44303984D01*
X25942948Y44297720D01*
X25776948Y44153673D01*
X25769528Y44146042D01*
X25630174Y43976089D01*
X25624150Y43967322D01*
X25515424Y43776318D01*
X25510959Y43766654D01*
X25435969Y43560059D01*
X25433198Y43549792D01*
X25393877Y43332345D01*
X25392944Y43324116D01*
X25392732Y43319624D01*
X13120979Y43319624D01*
X13137523Y43343251D01*
X13139846Y43348233D01*
X13139849Y43348238D01*
X13231961Y43545775D01*
X13231961Y43545776D01*
X13234284Y43550757D01*
X13236777Y43560059D01*
X13292119Y43766598D01*
X13292119Y43766600D01*
X13293543Y43771913D01*
X13313498Y44000000D01*
X13293543Y44228087D01*
X13292119Y44233402D01*
X13235707Y44443933D01*
X13235706Y44443935D01*
X13234284Y44449243D01*
X13231961Y44454225D01*
X13139849Y44651762D01*
X13139846Y44651767D01*
X13137523Y44656749D01*
X13006198Y44844300D01*
X12844300Y45006198D01*
X12839792Y45009355D01*
X12839789Y45009357D01*
X12713920Y45097491D01*
X12656749Y45137523D01*
X12651767Y45139846D01*
X12651762Y45139849D01*
X12454225Y45231961D01*
X12454224Y45231961D01*
X12449243Y45234284D01*
X12443935Y45235706D01*
X12443933Y45235707D01*
X12233402Y45292119D01*
X12233400Y45292119D01*
X12228087Y45293543D01*
X12000000Y45313498D01*
X11771913Y45293543D01*
X11766600Y45292119D01*
X11766598Y45292119D01*
X11556067Y45235707D01*
X11556065Y45235706D01*
X11550757Y45234284D01*
X11545776Y45231961D01*
X11545775Y45231961D01*
X11348238Y45139849D01*
X11348233Y45139846D01*
X11343251Y45137523D01*
X11286080Y45097491D01*
X11160211Y45009357D01*
X11160208Y45009355D01*
X11155700Y45006198D01*
X10993802Y44844300D01*
X10862477Y44656749D01*
X10860154Y44651767D01*
X10860151Y44651762D01*
X10768039Y44454225D01*
X10765716Y44449243D01*
X10764294Y44443935D01*
X10764293Y44443933D01*
X10758811Y44423473D01*
X10726199Y44366989D01*
X10372022Y44012812D01*
X10364408Y43998868D01*
X9634356Y43998868D01*
X9635592Y44001132D01*
X9635461Y44002965D01*
X9631210Y44009580D01*
X8925713Y44715077D01*
X8913938Y44721507D01*
X8901923Y44712211D01*
X8866069Y44661006D01*
X8860586Y44651511D01*
X8768510Y44454053D01*
X8764764Y44443761D01*
X8708375Y44233312D01*
X8706472Y44222519D01*
X8687483Y44005475D01*
X8687483Y43994525D01*
X5500000Y43994525D01*
X5500000Y45087012D01*
X9278576Y45087012D01*
X9285644Y45073566D01*
X9987188Y44372022D01*
X10001132Y44364408D01*
X10002965Y44364539D01*
X10009580Y44368790D01*
X10715077Y45074287D01*
X10721507Y45086062D01*
X10712211Y45098077D01*
X10661006Y45133931D01*
X10651511Y45139414D01*
X10454053Y45231490D01*
X10443761Y45235236D01*
X10233312Y45291625D01*
X10222519Y45293528D01*
X10005475Y45312517D01*
X9994525Y45312517D01*
X9777481Y45293528D01*
X9766688Y45291625D01*
X9556239Y45235236D01*
X9545947Y45231490D01*
X9348489Y45139414D01*
X9338994Y45133931D01*
X9286952Y45097491D01*
X9278576Y45087012D01*
X5500000Y45087012D01*
X5500000Y45482110D01*
X62632093Y45482110D01*
X62635876Y45473334D01*
X63487188Y44622022D01*
X63501132Y44614408D01*
X63502965Y44614539D01*
X63509580Y44618790D01*
X64361080Y45470290D01*
X64367840Y45482670D01*
X64362113Y45490320D01*
X64190958Y45595205D01*
X64182163Y45599687D01*
X63972012Y45686734D01*
X63962627Y45689783D01*
X63741446Y45742885D01*
X63731699Y45744428D01*
X63504930Y45762275D01*
X63495070Y45762275D01*
X63268301Y45744428D01*
X63258554Y45742885D01*
X63037373Y45689783D01*
X63027988Y45686734D01*
X62817837Y45599687D01*
X62809042Y45595205D01*
X62641555Y45492568D01*
X62632093Y45482110D01*
X5500000Y45482110D01*
X5500000Y46365500D01*
X5520002Y46433621D01*
X5573658Y46480114D01*
X5626000Y46491500D01*
X66374000Y46491500D01*
X66442121Y46471498D01*
G37*
%TD.AperFunction*%
%TA.AperFunction,Conductor*%
G36*
X37064526Y32846498D02*
G01*
X37111019Y32792842D01*
X37121123Y32722568D01*
X37091629Y32657988D01*
X37029016Y32618793D01*
X36919285Y32589391D01*
X36908993Y32585645D01*
X36717559Y32496377D01*
X36708068Y32490897D01*
X36664235Y32460206D01*
X36655860Y32449729D01*
X36662928Y32436282D01*
X37337188Y31762022D01*
X37351132Y31754408D01*
X37352965Y31754539D01*
X37359580Y31758790D01*
X38037793Y32437003D01*
X38044223Y32448777D01*
X38034926Y32460793D01*
X37991931Y32490898D01*
X37982445Y32496376D01*
X37791007Y32585645D01*
X37780715Y32589391D01*
X37670984Y32618793D01*
X37610361Y32655745D01*
X37579340Y32719605D01*
X37587768Y32790100D01*
X37632971Y32844847D01*
X37703595Y32866500D01*
X39534471Y32866500D01*
X39602592Y32846498D01*
X39649085Y32792842D01*
X39659189Y32722568D01*
X39629695Y32657988D01*
X39567082Y32618793D01*
X39459114Y32589863D01*
X39459112Y32589862D01*
X39453804Y32588440D01*
X39448823Y32586118D01*
X39448822Y32586117D01*
X39257311Y32496814D01*
X39257306Y32496811D01*
X39252324Y32494488D01*
X39247817Y32491332D01*
X39247815Y32491331D01*
X39074730Y32370136D01*
X39074727Y32370134D01*
X39070219Y32366977D01*
X38913023Y32209781D01*
X38909866Y32205273D01*
X38909864Y32205270D01*
X38788669Y32032185D01*
X38785512Y32027676D01*
X38783189Y32022694D01*
X38783186Y32022689D01*
X38733919Y31917035D01*
X38687001Y31863750D01*
X38618724Y31844289D01*
X38550764Y31864831D01*
X38505529Y31917035D01*
X38456377Y32022441D01*
X38450897Y32031932D01*
X38420206Y32075765D01*
X38409729Y32084140D01*
X38396282Y32077072D01*
X37722022Y31402812D01*
X37714408Y31388868D01*
X37714539Y31387035D01*
X37718790Y31380420D01*
X38397003Y30702207D01*
X38408777Y30695777D01*
X38420793Y30705074D01*
X38450897Y30748068D01*
X38456377Y30757559D01*
X38505529Y30862965D01*
X38552447Y30916250D01*
X38620724Y30935711D01*
X38688684Y30915169D01*
X38733919Y30862965D01*
X38783186Y30757311D01*
X38783189Y30757306D01*
X38785512Y30752324D01*
X38788668Y30747817D01*
X38788669Y30747815D01*
X38825107Y30695777D01*
X38913023Y30570219D01*
X39070219Y30413023D01*
X39074727Y30409866D01*
X39074730Y30409864D01*
X39142069Y30362713D01*
X39186397Y30307256D01*
X39193706Y30236637D01*
X39161675Y30173276D01*
X39100474Y30137291D01*
X39069798Y30133500D01*
X38148876Y30133500D01*
X38080755Y30153502D01*
X38034262Y30207158D01*
X38024158Y30277432D01*
X38044994Y30325559D01*
X38045261Y30328137D01*
X38037071Y30343719D01*
X37362812Y31017978D01*
X37348868Y31025592D01*
X37347035Y31025461D01*
X37340420Y31021210D01*
X36662207Y30342997D01*
X36654593Y30329053D01*
X36654598Y30328980D01*
X36677480Y30270481D01*
X36663491Y30200877D01*
X36614091Y30149884D01*
X36551959Y30133500D01*
X35630202Y30133500D01*
X35562081Y30153502D01*
X35515588Y30207158D01*
X35505484Y30277432D01*
X35534978Y30342012D01*
X35557931Y30362713D01*
X35625270Y30409864D01*
X35625273Y30409866D01*
X35629781Y30413023D01*
X35786977Y30570219D01*
X35874894Y30695777D01*
X35911331Y30747815D01*
X35911332Y30747817D01*
X35914488Y30752324D01*
X35916811Y30757306D01*
X35916814Y30757311D01*
X35966081Y30862965D01*
X36012999Y30916250D01*
X36081276Y30935711D01*
X36149236Y30915169D01*
X36194471Y30862965D01*
X36243623Y30757559D01*
X36249103Y30748068D01*
X36279794Y30704235D01*
X36290271Y30695860D01*
X36303718Y30702928D01*
X36977978Y31377188D01*
X36985592Y31391132D01*
X36985461Y31392965D01*
X36981210Y31399580D01*
X36302997Y32077793D01*
X36291223Y32084223D01*
X36279207Y32074926D01*
X36249103Y32031932D01*
X36243623Y32022441D01*
X36194471Y31917035D01*
X36147553Y31863750D01*
X36079276Y31844289D01*
X36011316Y31864831D01*
X35966081Y31917035D01*
X35916814Y32022689D01*
X35916811Y32022694D01*
X35914488Y32027676D01*
X35911331Y32032185D01*
X35790136Y32205270D01*
X35790134Y32205273D01*
X35786977Y32209781D01*
X35629781Y32366977D01*
X35625273Y32370134D01*
X35625270Y32370136D01*
X35549505Y32423187D01*
X35447677Y32494488D01*
X35442695Y32496811D01*
X35442690Y32496814D01*
X35251178Y32586117D01*
X35251177Y32586118D01*
X35246196Y32588440D01*
X35240888Y32589862D01*
X35240886Y32589863D01*
X35132918Y32618793D01*
X35072295Y32655745D01*
X35041274Y32719606D01*
X35049702Y32790100D01*
X35094905Y32844847D01*
X35165529Y32866500D01*
X36996405Y32866500D01*
X37064526Y32846498D01*
G37*
%TD.AperFunction*%
%TA.AperFunction,Conductor*%
G36*
X49764526Y32846498D02*
G01*
X49811019Y32792842D01*
X49821123Y32722568D01*
X49791629Y32657988D01*
X49729016Y32618793D01*
X49619285Y32589391D01*
X49608993Y32585645D01*
X49417559Y32496377D01*
X49408068Y32490897D01*
X49364235Y32460206D01*
X49355860Y32449729D01*
X49362928Y32436282D01*
X50037188Y31762022D01*
X50051132Y31754408D01*
X50052965Y31754539D01*
X50059580Y31758790D01*
X50737793Y32437003D01*
X50744223Y32448777D01*
X50734926Y32460793D01*
X50691931Y32490898D01*
X50682445Y32496376D01*
X50491007Y32585645D01*
X50480715Y32589391D01*
X50370984Y32618793D01*
X50310361Y32655745D01*
X50279340Y32719605D01*
X50287768Y32790100D01*
X50332971Y32844847D01*
X50403595Y32866500D01*
X52234471Y32866500D01*
X52302592Y32846498D01*
X52349085Y32792842D01*
X52359189Y32722568D01*
X52329695Y32657988D01*
X52267082Y32618793D01*
X52159114Y32589863D01*
X52159112Y32589862D01*
X52153804Y32588440D01*
X52148823Y32586118D01*
X52148822Y32586117D01*
X51957311Y32496814D01*
X51957306Y32496811D01*
X51952324Y32494488D01*
X51947817Y32491332D01*
X51947815Y32491331D01*
X51774730Y32370136D01*
X51774727Y32370134D01*
X51770219Y32366977D01*
X51613023Y32209781D01*
X51609866Y32205273D01*
X51609864Y32205270D01*
X51488669Y32032185D01*
X51485512Y32027676D01*
X51483189Y32022694D01*
X51483186Y32022689D01*
X51433919Y31917035D01*
X51387001Y31863750D01*
X51318724Y31844289D01*
X51250764Y31864831D01*
X51205529Y31917035D01*
X51156377Y32022441D01*
X51150897Y32031932D01*
X51120206Y32075765D01*
X51109729Y32084140D01*
X51096282Y32077072D01*
X50422022Y31402812D01*
X50414408Y31388868D01*
X50414539Y31387035D01*
X50418790Y31380420D01*
X51097003Y30702207D01*
X51108777Y30695777D01*
X51120793Y30705074D01*
X51150897Y30748068D01*
X51156377Y30757559D01*
X51205529Y30862965D01*
X51252447Y30916250D01*
X51320724Y30935711D01*
X51388684Y30915169D01*
X51433919Y30862965D01*
X51483186Y30757311D01*
X51483189Y30757306D01*
X51485512Y30752324D01*
X51488668Y30747817D01*
X51488669Y30747815D01*
X51525107Y30695777D01*
X51613023Y30570219D01*
X51770219Y30413023D01*
X51774727Y30409866D01*
X51774730Y30409864D01*
X51842069Y30362713D01*
X51886397Y30307256D01*
X51893706Y30236637D01*
X51861675Y30173276D01*
X51800474Y30137291D01*
X51769798Y30133500D01*
X50848876Y30133500D01*
X50780755Y30153502D01*
X50734262Y30207158D01*
X50724158Y30277432D01*
X50744994Y30325559D01*
X50745261Y30328137D01*
X50737071Y30343719D01*
X50062812Y31017978D01*
X50048868Y31025592D01*
X50047035Y31025461D01*
X50040420Y31021210D01*
X49362207Y30342997D01*
X49354593Y30329053D01*
X49354598Y30328980D01*
X49377480Y30270481D01*
X49363491Y30200877D01*
X49314091Y30149884D01*
X49251959Y30133500D01*
X48330202Y30133500D01*
X48262081Y30153502D01*
X48215588Y30207158D01*
X48205484Y30277432D01*
X48234978Y30342012D01*
X48257931Y30362713D01*
X48325270Y30409864D01*
X48325273Y30409866D01*
X48329781Y30413023D01*
X48486977Y30570219D01*
X48574894Y30695777D01*
X48611331Y30747815D01*
X48611332Y30747817D01*
X48614488Y30752324D01*
X48616811Y30757306D01*
X48616814Y30757311D01*
X48666081Y30862965D01*
X48712999Y30916250D01*
X48781276Y30935711D01*
X48849236Y30915169D01*
X48894471Y30862965D01*
X48943623Y30757559D01*
X48949103Y30748068D01*
X48979794Y30704235D01*
X48990271Y30695860D01*
X49003718Y30702928D01*
X49677978Y31377188D01*
X49685592Y31391132D01*
X49685461Y31392965D01*
X49681210Y31399580D01*
X49002997Y32077793D01*
X48991223Y32084223D01*
X48979207Y32074926D01*
X48949103Y32031932D01*
X48943623Y32022441D01*
X48894471Y31917035D01*
X48847553Y31863750D01*
X48779276Y31844289D01*
X48711316Y31864831D01*
X48666081Y31917035D01*
X48616814Y32022689D01*
X48616811Y32022694D01*
X48614488Y32027676D01*
X48611331Y32032185D01*
X48490136Y32205270D01*
X48490134Y32205273D01*
X48486977Y32209781D01*
X48329781Y32366977D01*
X48325273Y32370134D01*
X48325270Y32370136D01*
X48249505Y32423187D01*
X48147677Y32494488D01*
X48142695Y32496811D01*
X48142690Y32496814D01*
X47951178Y32586117D01*
X47951177Y32586118D01*
X47946196Y32588440D01*
X47940888Y32589862D01*
X47940886Y32589863D01*
X47832918Y32618793D01*
X47772295Y32655745D01*
X47741274Y32719606D01*
X47749702Y32790100D01*
X47794905Y32844847D01*
X47865529Y32866500D01*
X49696405Y32866500D01*
X49764526Y32846498D01*
G37*
%TD.AperFunction*%
%TD*%
M02*
