M48
; DRILL file {KiCad 6.0.6-3a73a75311~116~ubuntu20.04.1} date 2023年08月16日 22時08分07秒
; FORMAT={-:-/ absolute / inch / decimal}
; #@! TF.CreationDate,2023-08-16T22:08:07+09:00
; #@! TF.GenerationSoftware,Kicad,Pcbnew,6.0.6-3a73a75311~116~ubuntu20.04.1
; #@! TF.FileFunction,Plated,1,2,PTH
FMAT,2
INCH
; #@! TA.AperFunction,Plated,PTH,ViaDrill
T1C0.0118
; #@! TA.AperFunction,Plated,PTH,ComponentDrill
T2C0.0300
; #@! TA.AperFunction,Plated,PTH,ComponentDrill
T3C0.0315
; #@! TA.AperFunction,Plated,PTH,ComponentDrill
T4C0.0374
; #@! TA.AperFunction,Plated,PTH,ComponentDrill
T5C0.0394
; #@! TA.AperFunction,Plated,PTH,ComponentDrill
T6C0.0512
%
G90
G05
T1
X0.4331Y1.1614
X0.4331Y0.8858
X0.4331Y0.6102
X0.6102Y1.3189
X0.7087Y1.1614
X0.7087Y0.8858
X0.7087Y0.6102
X0.8858Y1.3189
X0.8858Y0.2165
X0.8858Y0.0591
X0.9843Y1.1614
X0.9843Y0.8858
X0.9843Y0.6102
X1.0827Y1.1614
X1.1614Y1.3189
X1.1614Y0.2165
X1.1614Y0.0591
X1.1811Y1.1122
X1.2598Y0.8858
X1.2598Y0.6102
X1.437Y0.2165
X1.437Y0.0591
X1.5354Y0.8858
X1.5354Y0.6102
X1.5945Y1.0531
X1.6929Y0.4134
X1.7028Y0.9547
X1.7126Y0.0591
X1.7717Y1.5059
X1.7717Y1.378
X1.8898Y0.4134
X1.9685Y0.7776
X1.9882Y0.0591
X2.0177Y1.0039
X2.0177Y0.935
X2.0472Y1.5059
X2.0472Y1.378
X2.0768Y0.7776
X2.185Y0.9055
X2.185Y0.6299
X2.2638Y0.0591
X2.3228Y1.811
X2.3228Y1.5354
X2.3228Y1.3386
X2.4213Y0.4823
X2.4606Y0.9055
X2.4606Y0.6299
X2.5197Y1.3386
X2.5197Y0.9646
X2.5295Y0.4331
X2.5394Y0.0591
X2.5787Y1.0531
X2.5984Y1.811
X2.5984Y1.5354
X2.6083Y0.3839
X2.628Y1.1516
X2.7953Y1.6142
X2.7953Y1.3386
X2.7953Y1.063
X2.7953Y0.7874
X2.7953Y0.5118
X2.7953Y0.2362
T2
X0.2705Y1.2358
X0.2705Y0.5358
X0.3705Y1.2358
X0.3705Y0.5358
X0.4705Y1.2358
X0.4705Y0.5358
X0.5705Y1.2358
X0.5705Y0.5358
X0.6705Y1.2358
X0.6705Y0.5358
X0.7705Y1.2358
X0.7705Y0.5358
X0.8705Y1.2358
X0.8705Y0.5358
X0.9705Y1.2358
X0.9705Y0.5358
X1.0705Y1.2358
X1.0705Y0.5358
X1.1705Y1.2358
X1.1705Y0.5358
X1.2705Y1.2358
X1.2705Y0.5358
X1.3705Y1.2358
X1.3705Y0.5358
X1.4705Y1.2358
X1.4705Y0.5358
X1.5705Y1.2358
X1.5705Y0.5358
X1.6705Y1.2358
X1.6705Y0.5358
X1.7705Y1.2358
X1.7705Y0.5358
X1.8705Y1.2358
X1.8705Y0.5358
X1.9705Y1.2358
X1.9705Y0.5358
X2.0705Y1.2358
X2.0705Y0.5358
X2.1705Y1.2358
X2.1705Y0.5358
T3
X0.0787Y1.4764
X0.1575Y1.4764
X0.3937Y1.7323
X0.4724Y1.7323
T4
X0.876Y0.313
X0.9744Y0.313
X1.0728Y0.313
X1.1713Y0.313
X1.2697Y0.313
X1.3681Y0.313
X1.6732Y0.2559
X1.7717Y0.2559
X1.8701Y0.2559
X1.9685Y0.2559
X2.0669Y0.2559
X2.1654Y0.2559
X2.2638Y0.2559
X2.3622Y0.2559
X2.4606Y0.2559
T5
X0.3937Y0.2974
X0.3937Y0.1974
X0.3937Y0.0974
X0.5315Y0.2974
X0.5315Y0.1974
X0.5315Y0.0974
X0.6693Y0.2974
X0.6693Y0.1974
X0.6693Y0.0974
X1.0531Y1.6949
X1.1516Y1.6949
X1.6752Y1.6949
X1.7736Y1.6949
X2.0472Y1.6949
X2.1457Y1.6949
T6
X2.5Y1.7421
X2.5Y1.4862
T0
M30
