%TF.GenerationSoftware,KiCad,Pcbnew,6.0.6-3a73a75311~116~ubuntu20.04.1*%
%TF.CreationDate,2023-06-16T17:17:45+09:00*%
%TF.ProjectId,catchrobo2023,63617463-6872-46f6-926f-323032332e6b,rev?*%
%TF.SameCoordinates,Original*%
%TF.FileFunction,Copper,L2,Bot*%
%TF.FilePolarity,Positive*%
%FSLAX46Y46*%
G04 Gerber Fmt 4.6, Leading zero omitted, Abs format (unit mm)*
G04 Created by KiCad (PCBNEW 6.0.6-3a73a75311~116~ubuntu20.04.1) date 2023-06-16 17:17:45*
%MOMM*%
%LPD*%
G01*
G04 APERTURE LIST*
G04 Aperture macros list*
%AMRoundRect*
0 Rectangle with rounded corners*
0 $1 Rounding radius*
0 $2 $3 $4 $5 $6 $7 $8 $9 X,Y pos of 4 corners*
0 Add a 4 corners polygon primitive as box body*
4,1,4,$2,$3,$4,$5,$6,$7,$8,$9,$2,$3,0*
0 Add four circle primitives for the rounded corners*
1,1,$1+$1,$2,$3*
1,1,$1+$1,$4,$5*
1,1,$1+$1,$6,$7*
1,1,$1+$1,$8,$9*
0 Add four rect primitives between the rounded corners*
20,1,$1+$1,$2,$3,$4,$5,0*
20,1,$1+$1,$4,$5,$6,$7,0*
20,1,$1+$1,$6,$7,$8,$9,0*
20,1,$1+$1,$8,$9,$2,$3,0*%
G04 Aperture macros list end*
%TA.AperFunction,ComponentPad*%
%ADD10RoundRect,0.250000X0.600000X0.750000X-0.600000X0.750000X-0.600000X-0.750000X0.600000X-0.750000X0*%
%TD*%
%TA.AperFunction,ComponentPad*%
%ADD11O,1.700000X2.000000*%
%TD*%
%TA.AperFunction,ComponentPad*%
%ADD12R,1.700000X1.700000*%
%TD*%
%TA.AperFunction,ComponentPad*%
%ADD13O,1.700000X1.700000*%
%TD*%
%TA.AperFunction,ComponentPad*%
%ADD14C,1.600000*%
%TD*%
%TA.AperFunction,ComponentPad*%
%ADD15RoundRect,0.250000X-0.600000X-0.750000X0.600000X-0.750000X0.600000X0.750000X-0.600000X0.750000X0*%
%TD*%
%TA.AperFunction,ComponentPad*%
%ADD16R,1.600000X1.600000*%
%TD*%
%TA.AperFunction,ComponentPad*%
%ADD17O,1.600000X1.600000*%
%TD*%
%TA.AperFunction,ComponentPad*%
%ADD18RoundRect,0.250000X-0.750000X0.600000X-0.750000X-0.600000X0.750000X-0.600000X0.750000X0.600000X0*%
%TD*%
%TA.AperFunction,ComponentPad*%
%ADD19O,2.000000X1.700000*%
%TD*%
%TA.AperFunction,ComponentPad*%
%ADD20R,1.800000X1.800000*%
%TD*%
%TA.AperFunction,ComponentPad*%
%ADD21C,1.800000*%
%TD*%
%TA.AperFunction,ComponentPad*%
%ADD22C,1.524000*%
%TD*%
%TA.AperFunction,ViaPad*%
%ADD23C,0.600000*%
%TD*%
%TA.AperFunction,ViaPad*%
%ADD24C,0.800000*%
%TD*%
%TA.AperFunction,Conductor*%
%ADD25C,0.250000*%
%TD*%
%TA.AperFunction,Conductor*%
%ADD26C,0.200000*%
%TD*%
%TA.AperFunction,Conductor*%
%ADD27C,0.500000*%
%TD*%
G04 APERTURE END LIST*
D10*
%TO.P,U11,1,IN*%
%TO.N,/Speaker*%
X31000000Y3000000D03*
D11*
%TO.P,U11,2,OUT*%
%TO.N,GND*%
X28500000Y3000000D03*
%TD*%
D12*
%TO.P,J2,1,Pin_1*%
%TO.N,GND*%
X17000000Y1990000D03*
D13*
%TO.P,J2,2,Pin_2*%
%TO.N,+5V*%
X17000000Y4530000D03*
%TO.P,J2,3,Pin_3*%
%TO.N,/Servo2*%
X17000000Y7070000D03*
%TD*%
D14*
%TO.P,C1,1*%
%TO.N,+7.5V*%
X11500000Y44000000D03*
%TO.P,C1,2*%
%TO.N,GND*%
X9500000Y44000000D03*
%TD*%
D12*
%TO.P,U5,1,Anode*%
%TO.N,Net-(R3-Pad2)*%
X68120000Y23000000D03*
D13*
%TO.P,U5,2,Cathode*%
%TO.N,GND*%
X65580000Y23000000D03*
%TO.P,U5,3,Emitter*%
X63040000Y23000000D03*
%TO.P,U5,4,Collector*%
%TO.N,/Sensor1*%
X60500000Y23000000D03*
%TD*%
D12*
%TO.P,U4,1,Anode*%
%TO.N,Net-(R2-Pad2)*%
X68000000Y29000000D03*
D13*
%TO.P,U4,2,Cathode*%
%TO.N,GND*%
X65460000Y29000000D03*
%TO.P,U4,3,Emitter*%
X62920000Y29000000D03*
%TO.P,U4,4,Collector*%
%TO.N,/Sensor0*%
X60380000Y29000000D03*
%TD*%
D12*
%TO.P,U7,1,Anode*%
%TO.N,Net-(R5-Pad2)*%
X68120000Y11000000D03*
D13*
%TO.P,U7,2,Cathode*%
%TO.N,GND*%
X65580000Y11000000D03*
%TO.P,U7,3,Emitter*%
X63040000Y11000000D03*
%TO.P,U7,4,Collector*%
%TO.N,/Sensor3*%
X60500000Y11000000D03*
%TD*%
D12*
%TO.P,J3,1,Pin_1*%
%TO.N,GND*%
X21500000Y1975000D03*
D13*
%TO.P,J3,2,Pin_2*%
%TO.N,+5V*%
X21500000Y4515000D03*
%TO.P,J3,3,Pin_3*%
%TO.N,/Servo3*%
X21500000Y7055000D03*
%TD*%
D10*
%TO.P,J5,1,Pin_1*%
%TO.N,/DIR1*%
X41750000Y2975000D03*
D11*
%TO.P,J5,2,Pin_2*%
%TO.N,/STEP1*%
X39250000Y2975000D03*
%TD*%
D15*
%TO.P,J6,1,Pin_1*%
%TO.N,+BATT*%
X43250000Y44025000D03*
D11*
%TO.P,J6,2,Pin_2*%
%TO.N,GND*%
X45750000Y44025000D03*
%TD*%
D16*
%TO.P,SW2,1*%
%TO.N,+3.3V*%
X67300000Y32700000D03*
D17*
%TO.P,SW2,2*%
X67300000Y35240000D03*
%TO.P,SW2,3*%
X67300000Y37780000D03*
%TO.P,SW2,4*%
X67300000Y40320000D03*
%TO.P,SW2,5*%
%TO.N,/DIPSW3*%
X59680000Y40320000D03*
%TO.P,SW2,6*%
%TO.N,/DIPSW2*%
X59680000Y37780000D03*
%TO.P,SW2,7*%
%TO.N,/DIPSW1*%
X59680000Y35240000D03*
%TO.P,SW2,8*%
%TO.N,/DIPSW0*%
X59680000Y32700000D03*
%TD*%
D18*
%TO.P,J4,1,Pin_1*%
%TO.N,Net-(J4-Pad1)*%
X22500000Y39000000D03*
D19*
%TO.P,J4,2,Pin_2*%
%TO.N,GND*%
X22500000Y36500000D03*
%TD*%
D20*
%TO.P,D2,1,K*%
%TO.N,GND*%
X41500000Y37775000D03*
D21*
%TO.P,D2,2,A*%
%TO.N,Net-(D2-Pad2)*%
X41500000Y35235000D03*
%TD*%
D22*
%TO.P,U2,1,GP0*%
%TO.N,/Servo1*%
X6870000Y12110000D03*
%TO.P,U2,2,GP1*%
%TO.N,/Servo2*%
X9410000Y12110000D03*
%TO.P,U2,3,GND*%
%TO.N,GND*%
X11950000Y12110000D03*
%TO.P,U2,4,GP2*%
%TO.N,/Servo3*%
X14490000Y12110000D03*
%TO.P,U2,5,GP3*%
%TO.N,/Speaker*%
X17030000Y12110000D03*
%TO.P,U2,6,GP4*%
%TO.N,unconnected-(U2-Pad6)*%
X19570000Y12110000D03*
%TO.P,U2,7,GP5*%
%TO.N,unconnected-(U2-Pad7)*%
X22110000Y12110000D03*
%TO.P,U2,8,GND*%
%TO.N,GND*%
X24650000Y12110000D03*
%TO.P,U2,9,GP6*%
%TO.N,/STEP1*%
X27190000Y12110000D03*
%TO.P,U2,10,GP7*%
%TO.N,/DIR1*%
X29730000Y12110000D03*
%TO.P,U2,11,GP8*%
%TO.N,unconnected-(U2-Pad11)*%
X32270000Y12110000D03*
%TO.P,U2,12,GP9*%
%TO.N,unconnected-(U2-Pad12)*%
X34810000Y12110000D03*
%TO.P,U2,13,GND*%
%TO.N,GND*%
X37350000Y12110000D03*
%TO.P,U2,14,GP10*%
%TO.N,/STEP2*%
X39890000Y12110000D03*
%TO.P,U2,15,GP11*%
%TO.N,/DIR2*%
X42430000Y12110000D03*
%TO.P,U2,16,GP12*%
%TO.N,/Stopper*%
X44970000Y12110000D03*
%TO.P,U2,17,GP13*%
%TO.N,unconnected-(U2-Pad17)*%
X47510000Y12110000D03*
%TO.P,U2,18,GND*%
%TO.N,GND*%
X50050000Y12110000D03*
%TO.P,U2,19,GP14*%
%TO.N,/MultiA*%
X52590000Y12110000D03*
%TO.P,U2,20,GP15*%
%TO.N,/MultiB*%
X55130000Y12110000D03*
%TO.P,U2,21,GP16*%
%TO.N,unconnected-(U2-Pad21)*%
X55130000Y29890000D03*
%TO.P,U2,22,GP17*%
%TO.N,unconnected-(U2-Pad22)*%
X52590000Y29890000D03*
%TO.P,U2,23,GND*%
%TO.N,GND*%
X50050000Y29890000D03*
%TO.P,U2,24,GP18*%
%TO.N,/DIPSW0*%
X47510000Y29890000D03*
%TO.P,U2,25,GP19*%
%TO.N,/DIPSW1*%
X44970000Y29890000D03*
%TO.P,U2,26,GP20*%
%TO.N,/DIPSW2*%
X42430000Y29890000D03*
%TO.P,U2,27,GP21*%
%TO.N,/DIPSW3*%
X39890000Y29890000D03*
%TO.P,U2,28,GND*%
%TO.N,GND*%
X37350000Y29890000D03*
%TO.P,U2,29,GP22*%
%TO.N,unconnected-(U2-Pad29)*%
X34810000Y29890000D03*
%TO.P,U2,30,RUN*%
%TO.N,unconnected-(U2-Pad30)*%
X32270000Y29890000D03*
%TO.P,U2,31,GP26*%
%TO.N,unconnected-(U2-Pad31)*%
X29730000Y29890000D03*
%TO.P,U2,32,GP27*%
%TO.N,unconnected-(U2-Pad32)*%
X27190000Y29890000D03*
%TO.P,U2,33,GND*%
%TO.N,GND*%
X24650000Y29890000D03*
%TO.P,U2,34,GP28*%
%TO.N,/Sensor*%
X22110000Y29890000D03*
%TO.P,U2,35,ADC_VREF*%
%TO.N,unconnected-(U2-Pad35)*%
X19570000Y29890000D03*
%TO.P,U2,36,3V3*%
%TO.N,+3.3V*%
X17030000Y29890000D03*
%TO.P,U2,37,3V3_EN*%
%TO.N,unconnected-(U2-Pad37)*%
X14490000Y29890000D03*
%TO.P,U2,38,GND*%
%TO.N,GND*%
X11950000Y29890000D03*
%TO.P,U2,39,VSYS*%
%TO.N,unconnected-(U2-Pad39)*%
X9410000Y29890000D03*
%TO.P,U2,40,VBUS*%
%TO.N,+5V*%
X6870000Y29890000D03*
%TD*%
D10*
%TO.P,J8,1,Pin_1*%
%TO.N,/DIR2*%
X52750000Y2950000D03*
D11*
%TO.P,J8,2,Pin_2*%
%TO.N,/STEP2*%
X50250000Y2950000D03*
%TD*%
D15*
%TO.P,J7,1,Pin_1*%
%TO.N,+BATT*%
X52250000Y44025000D03*
D11*
%TO.P,J7,2,Pin_2*%
%TO.N,GND*%
X54750000Y44025000D03*
%TD*%
D12*
%TO.P,U6,1,Anode*%
%TO.N,Net-(R4-Pad2)*%
X68120000Y17000000D03*
D13*
%TO.P,U6,2,Cathode*%
%TO.N,GND*%
X65580000Y17000000D03*
%TO.P,U6,3,Emitter*%
X63040000Y17000000D03*
%TO.P,U6,4,Collector*%
%TO.N,/Sensor2*%
X60500000Y17000000D03*
%TD*%
D22*
%TO.P,SW1,1,A*%
%TO.N,unconnected-(SW1-Pad1)*%
X37540000Y44000000D03*
%TO.P,SW1,2,B*%
%TO.N,+BATT*%
X35000000Y44000000D03*
%TO.P,SW1,3,C*%
%TO.N,Net-(D3-Pad2)*%
X32460000Y44000000D03*
%TD*%
D14*
%TO.P,C2,1*%
%TO.N,+5V*%
X4000000Y33500000D03*
%TO.P,C2,2*%
%TO.N,GND*%
X2000000Y33500000D03*
%TD*%
D12*
%TO.P,J1,1,Pin_1*%
%TO.N,GND*%
X12500000Y1975000D03*
D13*
%TO.P,J1,2,Pin_2*%
%TO.N,+5V*%
X12500000Y4515000D03*
%TO.P,J1,3,Pin_3*%
%TO.N,/Servo1*%
X12500000Y7055000D03*
%TD*%
D23*
%TO.N,*%
X84000000Y2000000D03*
%TO.N,GND*%
X59000000Y21500000D03*
X56000000Y20000000D03*
X56500000Y28000000D03*
X53500000Y28000000D03*
X50500000Y25000000D03*
X50500000Y28000000D03*
X71100000Y6000000D03*
X71100000Y9000000D03*
X71100000Y13000000D03*
X71100000Y17000000D03*
X71100000Y21000000D03*
X71100000Y25000000D03*
X71100000Y29000000D03*
X71100000Y33000000D03*
X71100000Y37000000D03*
%TO.N,/Sensor2*%
X57500000Y24000000D03*
%TO.N,/Sensor0*%
X56500000Y22000000D03*
%TO.N,GND*%
X20000000Y33500000D03*
X23000000Y33500000D03*
X18000000Y33500000D03*
X47500000Y28000000D03*
X13040000Y26500000D03*
X63500000Y40000000D03*
X32000000Y33500000D03*
X63000000Y6000000D03*
X28500000Y1000000D03*
X32500000Y28000000D03*
X49000000Y20000000D03*
X65500000Y15000000D03*
X10500000Y17500000D03*
X20660000Y26500000D03*
X25740000Y20500000D03*
X13000000Y32000000D03*
X18120000Y20500000D03*
X62000000Y32000000D03*
X35900000Y17500000D03*
X49250000Y16500000D03*
X62000000Y38000000D03*
X65000000Y36000000D03*
X15580000Y14500000D03*
X51000000Y23000000D03*
X50000000Y23000000D03*
X65500000Y27000000D03*
X67000000Y6000000D03*
X36000000Y38000000D03*
X65500000Y9000000D03*
X15580000Y23500000D03*
X65000000Y38000000D03*
X48500000Y1000000D03*
X49000000Y22000000D03*
X56000000Y3000000D03*
X46500000Y38000000D03*
X23200000Y26500000D03*
X28280000Y17500000D03*
X23200000Y20500000D03*
X59000000Y6000000D03*
X30820000Y14500000D03*
X66000000Y46000000D03*
X24500000Y3000000D03*
X23200000Y14500000D03*
X62000000Y36000000D03*
X50000000Y10000000D03*
X66000000Y42000000D03*
X63000000Y21000000D03*
X44500000Y25000000D03*
X33360000Y17500000D03*
X30820000Y17500000D03*
X59000000Y42000000D03*
X50000000Y22000000D03*
X26500000Y10000000D03*
X25740000Y14500000D03*
X18120000Y17500000D03*
X69000000Y37000000D03*
X29000000Y33500000D03*
X62000000Y40000000D03*
X56000000Y5000000D03*
X63000000Y27000000D03*
X10500000Y32000000D03*
X50000000Y21000000D03*
X62500000Y46000000D03*
X51000000Y21000000D03*
X49000000Y23000000D03*
X65000000Y34000000D03*
X39000000Y36500000D03*
X13040000Y17500000D03*
X59000000Y46000000D03*
X33360000Y14500000D03*
X33000000Y38000000D03*
X50000000Y20000000D03*
X20660000Y23500000D03*
X36000000Y36500000D03*
X29000000Y35000000D03*
X25740000Y17500000D03*
X30820000Y20500000D03*
X15580000Y17500000D03*
X26000000Y33500000D03*
X13040000Y14500000D03*
X63500000Y38000000D03*
X41500000Y25000000D03*
X10500000Y14500000D03*
X28280000Y20500000D03*
X13040000Y23500000D03*
X47000000Y14500000D03*
X63000000Y15000000D03*
X39000000Y10000000D03*
X71100000Y41000000D03*
X13040000Y20500000D03*
X41000000Y17500000D03*
X63500000Y32000000D03*
X32500000Y25000000D03*
X32500000Y1000000D03*
X26500000Y28000000D03*
X28280000Y14500000D03*
X59000000Y44000000D03*
X38500000Y25000000D03*
X63500000Y36000000D03*
X38000000Y20500000D03*
X69000000Y33000000D03*
X63000000Y9000000D03*
X26000000Y35000000D03*
X44000000Y20500000D03*
X50000000Y14500000D03*
X23200000Y17500000D03*
X15500000Y32000000D03*
X44500000Y1000000D03*
X33360000Y20500000D03*
X18120000Y14500000D03*
X39000000Y33500000D03*
X10500000Y26500000D03*
X24500000Y1000000D03*
X44000000Y17500000D03*
X18000000Y36000000D03*
X15580000Y20500000D03*
X23200000Y23500000D03*
X20660000Y20500000D03*
X38500000Y28000000D03*
X43500000Y36500000D03*
X57500000Y29000000D03*
X69000000Y41000000D03*
X39000000Y38000000D03*
X29500000Y25000000D03*
X24500000Y5000000D03*
X20660000Y17500000D03*
X36500000Y1000000D03*
X18120000Y26500000D03*
X25740000Y23500000D03*
X18120000Y23500000D03*
X41500000Y28000000D03*
X63500000Y34000000D03*
X44500000Y3000000D03*
X65000000Y40000000D03*
X49250000Y17750000D03*
X44500000Y28000000D03*
X43500000Y38000000D03*
X65000000Y32000000D03*
X15580000Y26500000D03*
X40500000Y1000000D03*
X10500000Y23500000D03*
X29500000Y28000000D03*
X58000000Y10000000D03*
X20660000Y14500000D03*
X10500000Y20500000D03*
X38440000Y14500000D03*
X62500000Y42000000D03*
X49250000Y19000000D03*
X51000000Y22000000D03*
X35900000Y14500000D03*
X56500000Y15000000D03*
X49000000Y21000000D03*
X56000000Y1000000D03*
X41000000Y20500000D03*
X62000000Y34000000D03*
X65500000Y21000000D03*
X52500000Y1000000D03*
D24*
%TO.N,/Stopper*%
X36500000Y25500000D03*
%TD*%
D25*
%TO.N,/Stopper*%
X42580000Y14500000D02*
X41500000Y14500000D01*
X41500000Y14500000D02*
X36500000Y19500000D01*
X44970000Y12110000D02*
X42580000Y14500000D01*
X36500000Y19500000D02*
X36500000Y25500000D01*
%TO.N,/Sensor2*%
X57500000Y24000000D02*
X57500000Y20000000D01*
X57500000Y20000000D02*
X60500000Y17000000D01*
%TO.N,/Sensor0*%
X56500000Y22000000D02*
X56500000Y25120000D01*
X56500000Y25120000D02*
X60380000Y29000000D01*
D26*
%TO.N,/Servo1*%
X6870000Y12110000D02*
X11925000Y7055000D01*
X11925000Y7055000D02*
X12500000Y7055000D01*
%TO.N,/Servo2*%
X9410000Y12110000D02*
X11520000Y10000000D01*
X11520000Y10000000D02*
X14070000Y10000000D01*
X14070000Y10000000D02*
X17000000Y7070000D01*
%TO.N,/Servo3*%
X21500000Y7055000D02*
X19545000Y7055000D01*
X19545000Y7055000D02*
X14490000Y12110000D01*
D27*
%TO.N,+3.3V*%
X67300000Y35240000D02*
X67300000Y37780000D01*
X67300000Y32700000D02*
X67300000Y35240000D01*
X17030000Y29890000D02*
X19140000Y32000000D01*
X65600000Y31000000D02*
X67300000Y32700000D01*
X67300000Y37780000D02*
X67300000Y40320000D01*
X19140000Y32000000D02*
X57000000Y32000000D01*
X58000000Y31000000D02*
X65600000Y31000000D01*
X57000000Y32000000D02*
X58000000Y31000000D01*
D26*
%TO.N,/Speaker*%
X23500000Y10500000D02*
X31000000Y3000000D01*
X17030000Y12110000D02*
X18640000Y10500000D01*
X18640000Y10500000D02*
X23500000Y10500000D01*
%TO.N,/STEP1*%
X27190000Y12110000D02*
X36325000Y2975000D01*
X36325000Y2975000D02*
X39250000Y2975000D01*
%TO.N,/DIR1*%
X29730000Y12110000D02*
X32340000Y9500000D01*
X32340000Y9500000D02*
X35225000Y9500000D01*
X35225000Y9500000D02*
X41750000Y2975000D01*
%TO.N,/STEP2*%
X49050000Y2950000D02*
X50250000Y2950000D01*
X39890000Y12110000D02*
X49050000Y2950000D01*
%TO.N,/DIR2*%
X42430000Y12110000D02*
X45040000Y9500000D01*
X47000000Y9500000D02*
X52750000Y3750000D01*
X45040000Y9500000D02*
X47000000Y9500000D01*
X52750000Y3750000D02*
X52750000Y2950000D01*
%TD*%
%TA.AperFunction,Conductor*%
%TO.N,GND*%
G36*
X66442121Y46471498D02*
G01*
X66488614Y46417842D01*
X66500000Y46365500D01*
X66500000Y41500000D01*
X66505319Y41500000D01*
X66513696Y41471471D01*
X66513696Y41400475D01*
X66475312Y41340749D01*
X66465073Y41332762D01*
X66460217Y41329361D01*
X66455700Y41326198D01*
X66293802Y41164300D01*
X66290645Y41159792D01*
X66290643Y41159789D01*
X66283531Y41149632D01*
X66162477Y40976749D01*
X66160154Y40971767D01*
X66160151Y40971762D01*
X66112416Y40869393D01*
X66065716Y40769243D01*
X66064294Y40763935D01*
X66064293Y40763933D01*
X66033336Y40648399D01*
X66006457Y40548087D01*
X65986502Y40320000D01*
X66006457Y40091913D01*
X66007881Y40086600D01*
X66007881Y40086598D01*
X66053326Y39916998D01*
X66065716Y39870757D01*
X66068039Y39865776D01*
X66068039Y39865775D01*
X66160151Y39668238D01*
X66160154Y39668233D01*
X66162477Y39663251D01*
X66196520Y39614633D01*
X66282739Y39491500D01*
X66293802Y39475700D01*
X66455700Y39313802D01*
X66487771Y39291345D01*
X66532099Y39235890D01*
X66541500Y39188133D01*
X66541500Y38911867D01*
X66521498Y38843746D01*
X66487772Y38808655D01*
X66455700Y38786198D01*
X66293802Y38624300D01*
X66162477Y38436749D01*
X66160154Y38431767D01*
X66160151Y38431762D01*
X66076317Y38251978D01*
X66065716Y38229243D01*
X66064294Y38223935D01*
X66064293Y38223933D01*
X66015691Y38042548D01*
X66006457Y38008087D01*
X65986502Y37780000D01*
X66006457Y37551913D01*
X66065716Y37330757D01*
X66068039Y37325776D01*
X66068039Y37325775D01*
X66160151Y37128238D01*
X66160154Y37128233D01*
X66162477Y37123251D01*
X66293802Y36935700D01*
X66455700Y36773802D01*
X66487771Y36751345D01*
X66532099Y36695890D01*
X66541500Y36648133D01*
X66541500Y36371867D01*
X66521498Y36303746D01*
X66487772Y36268655D01*
X66455700Y36246198D01*
X66293802Y36084300D01*
X66162477Y35896749D01*
X66160154Y35891767D01*
X66160151Y35891762D01*
X66159068Y35889439D01*
X66065716Y35689243D01*
X66006457Y35468087D01*
X65986502Y35240000D01*
X66006457Y35011913D01*
X66007881Y35006600D01*
X66007881Y35006598D01*
X66059623Y34813498D01*
X66065716Y34790757D01*
X66068039Y34785776D01*
X66068039Y34785775D01*
X66160151Y34588238D01*
X66160154Y34588233D01*
X66162477Y34583251D01*
X66165634Y34578743D01*
X66287513Y34404682D01*
X66293802Y34395700D01*
X66455700Y34233802D01*
X66460211Y34230643D01*
X66464424Y34227108D01*
X66463473Y34225974D01*
X66503471Y34175929D01*
X66510776Y34105310D01*
X66478742Y34041951D01*
X66417538Y34005970D01*
X66400483Y34002918D01*
X66389684Y34001745D01*
X66253295Y33950615D01*
X66136739Y33863261D01*
X66049385Y33746705D01*
X65998255Y33610316D01*
X65991500Y33548134D01*
X65991500Y32516371D01*
X65971498Y32448250D01*
X65954595Y32427276D01*
X65322724Y31795405D01*
X65260412Y31761379D01*
X65233629Y31758500D01*
X60860182Y31758500D01*
X60792061Y31778502D01*
X60745568Y31832158D01*
X60735464Y31902432D01*
X60756969Y31956771D01*
X60814366Y32038742D01*
X60814367Y32038744D01*
X60817523Y32043251D01*
X60819846Y32048233D01*
X60819849Y32048238D01*
X60911961Y32245775D01*
X60911961Y32245776D01*
X60914284Y32250757D01*
X60945066Y32365634D01*
X60972119Y32466598D01*
X60972119Y32466600D01*
X60973543Y32471913D01*
X60993498Y32700000D01*
X60973543Y32928087D01*
X60972119Y32933402D01*
X60915707Y33143933D01*
X60915706Y33143935D01*
X60914284Y33149243D01*
X60904522Y33170178D01*
X60819849Y33351762D01*
X60819846Y33351767D01*
X60817523Y33356749D01*
X60721051Y33494525D01*
X60689357Y33539789D01*
X60689355Y33539792D01*
X60686198Y33544300D01*
X60524300Y33706198D01*
X60519792Y33709355D01*
X60519789Y33709357D01*
X60441611Y33764098D01*
X60336749Y33837523D01*
X60331767Y33839846D01*
X60331762Y33839849D01*
X60297543Y33855805D01*
X60244258Y33902722D01*
X60224797Y33970999D01*
X60245339Y34038959D01*
X60297543Y34084195D01*
X60331762Y34100151D01*
X60331767Y34100154D01*
X60336749Y34102477D01*
X60506741Y34221507D01*
X60519789Y34230643D01*
X60519792Y34230645D01*
X60524300Y34233802D01*
X60686198Y34395700D01*
X60692488Y34404682D01*
X60814366Y34578743D01*
X60817523Y34583251D01*
X60819846Y34588233D01*
X60819849Y34588238D01*
X60911961Y34785775D01*
X60911961Y34785776D01*
X60914284Y34790757D01*
X60920378Y34813498D01*
X60972119Y35006598D01*
X60972119Y35006600D01*
X60973543Y35011913D01*
X60993498Y35240000D01*
X60973543Y35468087D01*
X60914284Y35689243D01*
X60820932Y35889439D01*
X60819849Y35891762D01*
X60819846Y35891767D01*
X60817523Y35896749D01*
X60686198Y36084300D01*
X60524300Y36246198D01*
X60519792Y36249355D01*
X60519789Y36249357D01*
X60366497Y36356693D01*
X60336749Y36377523D01*
X60331767Y36379846D01*
X60331762Y36379849D01*
X60297543Y36395805D01*
X60244258Y36442722D01*
X60224797Y36510999D01*
X60245339Y36578959D01*
X60297543Y36624195D01*
X60331762Y36640151D01*
X60331767Y36640154D01*
X60336749Y36642477D01*
X60501694Y36757973D01*
X60519789Y36770643D01*
X60519792Y36770645D01*
X60524300Y36773802D01*
X60686198Y36935700D01*
X60817523Y37123251D01*
X60819846Y37128233D01*
X60819849Y37128238D01*
X60911961Y37325775D01*
X60911961Y37325776D01*
X60914284Y37330757D01*
X60973543Y37551913D01*
X60993498Y37780000D01*
X60973543Y38008087D01*
X60964309Y38042548D01*
X60915707Y38223933D01*
X60915706Y38223935D01*
X60914284Y38229243D01*
X60903683Y38251978D01*
X60819849Y38431762D01*
X60819846Y38431767D01*
X60817523Y38436749D01*
X60686198Y38624300D01*
X60524300Y38786198D01*
X60519792Y38789355D01*
X60519789Y38789357D01*
X60413030Y38864110D01*
X60336749Y38917523D01*
X60331767Y38919846D01*
X60331762Y38919849D01*
X60297543Y38935805D01*
X60244258Y38982722D01*
X60224797Y39050999D01*
X60245339Y39118959D01*
X60297543Y39164195D01*
X60331762Y39180151D01*
X60331767Y39180154D01*
X60336749Y39182477D01*
X60492231Y39291347D01*
X60519789Y39310643D01*
X60519792Y39310645D01*
X60524300Y39313802D01*
X60686198Y39475700D01*
X60697262Y39491500D01*
X60783480Y39614633D01*
X60817523Y39663251D01*
X60819846Y39668233D01*
X60819849Y39668238D01*
X60911961Y39865775D01*
X60911961Y39865776D01*
X60914284Y39870757D01*
X60926675Y39916998D01*
X60972119Y40086598D01*
X60972119Y40086600D01*
X60973543Y40091913D01*
X60993498Y40320000D01*
X60973543Y40548087D01*
X60946664Y40648399D01*
X60915707Y40763933D01*
X60915706Y40763935D01*
X60914284Y40769243D01*
X60867584Y40869393D01*
X60819849Y40971762D01*
X60819846Y40971767D01*
X60817523Y40976749D01*
X60696469Y41149632D01*
X60689357Y41159789D01*
X60689355Y41159792D01*
X60686198Y41164300D01*
X60524300Y41326198D01*
X60519792Y41329355D01*
X60519789Y41329357D01*
X60358745Y41442121D01*
X60336749Y41457523D01*
X60331767Y41459846D01*
X60331762Y41459849D01*
X60134225Y41551961D01*
X60134224Y41551961D01*
X60129243Y41554284D01*
X60123935Y41555706D01*
X60123933Y41555707D01*
X59913402Y41612119D01*
X59913400Y41612119D01*
X59908087Y41613543D01*
X59680000Y41633498D01*
X59451913Y41613543D01*
X59446600Y41612119D01*
X59446598Y41612119D01*
X59236067Y41555707D01*
X59236065Y41555706D01*
X59230757Y41554284D01*
X59225776Y41551961D01*
X59225775Y41551961D01*
X59028238Y41459849D01*
X59028233Y41459846D01*
X59023251Y41457523D01*
X59001255Y41442121D01*
X58840211Y41329357D01*
X58840208Y41329355D01*
X58835700Y41326198D01*
X58673802Y41164300D01*
X58670645Y41159792D01*
X58670643Y41159789D01*
X58663531Y41149632D01*
X58542477Y40976749D01*
X58540154Y40971767D01*
X58540151Y40971762D01*
X58492416Y40869393D01*
X58445716Y40769243D01*
X58444294Y40763935D01*
X58444293Y40763933D01*
X58413336Y40648399D01*
X58386457Y40548087D01*
X58366502Y40320000D01*
X58386457Y40091913D01*
X58387881Y40086600D01*
X58387881Y40086598D01*
X58433326Y39916998D01*
X58445716Y39870757D01*
X58448039Y39865776D01*
X58448039Y39865775D01*
X58540151Y39668238D01*
X58540154Y39668233D01*
X58542477Y39663251D01*
X58576520Y39614633D01*
X58662739Y39491500D01*
X58673802Y39475700D01*
X58835700Y39313802D01*
X58840208Y39310645D01*
X58840211Y39310643D01*
X58867769Y39291347D01*
X59023251Y39182477D01*
X59028233Y39180154D01*
X59028238Y39180151D01*
X59062457Y39164195D01*
X59115742Y39117278D01*
X59135203Y39049001D01*
X59114661Y38981041D01*
X59062457Y38935805D01*
X59028238Y38919849D01*
X59028233Y38919846D01*
X59023251Y38917523D01*
X58946970Y38864110D01*
X58840211Y38789357D01*
X58840208Y38789355D01*
X58835700Y38786198D01*
X58673802Y38624300D01*
X58542477Y38436749D01*
X58540154Y38431767D01*
X58540151Y38431762D01*
X58456317Y38251978D01*
X58445716Y38229243D01*
X58444294Y38223935D01*
X58444293Y38223933D01*
X58395691Y38042548D01*
X58386457Y38008087D01*
X58366502Y37780000D01*
X58386457Y37551913D01*
X58445716Y37330757D01*
X58448039Y37325776D01*
X58448039Y37325775D01*
X58540151Y37128238D01*
X58540154Y37128233D01*
X58542477Y37123251D01*
X58673802Y36935700D01*
X58835700Y36773802D01*
X58840208Y36770645D01*
X58840211Y36770643D01*
X58858306Y36757973D01*
X59023251Y36642477D01*
X59028233Y36640154D01*
X59028238Y36640151D01*
X59062457Y36624195D01*
X59115742Y36577278D01*
X59135203Y36509001D01*
X59114661Y36441041D01*
X59062457Y36395805D01*
X59028238Y36379849D01*
X59028233Y36379846D01*
X59023251Y36377523D01*
X58993503Y36356693D01*
X58840211Y36249357D01*
X58840208Y36249355D01*
X58835700Y36246198D01*
X58673802Y36084300D01*
X58542477Y35896749D01*
X58540154Y35891767D01*
X58540151Y35891762D01*
X58539068Y35889439D01*
X58445716Y35689243D01*
X58386457Y35468087D01*
X58366502Y35240000D01*
X58386457Y35011913D01*
X58387881Y35006600D01*
X58387881Y35006598D01*
X58439623Y34813498D01*
X58445716Y34790757D01*
X58448039Y34785776D01*
X58448039Y34785775D01*
X58540151Y34588238D01*
X58540154Y34588233D01*
X58542477Y34583251D01*
X58545634Y34578743D01*
X58667513Y34404682D01*
X58673802Y34395700D01*
X58835700Y34233802D01*
X58840208Y34230645D01*
X58840211Y34230643D01*
X58853259Y34221507D01*
X59023251Y34102477D01*
X59028233Y34100154D01*
X59028238Y34100151D01*
X59062457Y34084195D01*
X59115742Y34037278D01*
X59135203Y33969001D01*
X59114661Y33901041D01*
X59062457Y33855805D01*
X59028238Y33839849D01*
X59028233Y33839846D01*
X59023251Y33837523D01*
X58918389Y33764098D01*
X58840211Y33709357D01*
X58840208Y33709355D01*
X58835700Y33706198D01*
X58673802Y33544300D01*
X58670645Y33539792D01*
X58670643Y33539789D01*
X58638949Y33494525D01*
X58542477Y33356749D01*
X58540154Y33351767D01*
X58540151Y33351762D01*
X58455478Y33170178D01*
X58445716Y33149243D01*
X58444294Y33143935D01*
X58444293Y33143933D01*
X58387881Y32933402D01*
X58386457Y32928087D01*
X58366502Y32700000D01*
X58386457Y32471913D01*
X58387881Y32466600D01*
X58387881Y32466598D01*
X58414935Y32365634D01*
X58445716Y32250757D01*
X58448039Y32245776D01*
X58448039Y32245775D01*
X58540151Y32048238D01*
X58540154Y32048233D01*
X58542477Y32043251D01*
X58545633Y32038744D01*
X58545634Y32038742D01*
X58603031Y31956771D01*
X58625719Y31889497D01*
X58608434Y31820636D01*
X58556664Y31772052D01*
X58499818Y31758500D01*
X58366371Y31758500D01*
X58298250Y31778502D01*
X58277276Y31795405D01*
X57583770Y32488911D01*
X57571384Y32503323D01*
X57562851Y32514918D01*
X57562846Y32514923D01*
X57558508Y32520818D01*
X57552930Y32525557D01*
X57552927Y32525560D01*
X57518232Y32555035D01*
X57510716Y32561965D01*
X57505021Y32567660D01*
X57488736Y32580544D01*
X57482749Y32585281D01*
X57479345Y32588072D01*
X57429297Y32630591D01*
X57429295Y32630592D01*
X57423715Y32635333D01*
X57417199Y32638661D01*
X57412150Y32642028D01*
X57407021Y32645195D01*
X57401284Y32649734D01*
X57335125Y32680655D01*
X57331225Y32682561D01*
X57266192Y32715769D01*
X57259084Y32717508D01*
X57253441Y32719607D01*
X57247678Y32721524D01*
X57241050Y32724622D01*
X57169583Y32739487D01*
X57165299Y32740457D01*
X57094390Y32757808D01*
X57088788Y32758156D01*
X57088785Y32758156D01*
X57083236Y32758500D01*
X57083238Y32758536D01*
X57079245Y32758775D01*
X57075053Y32759149D01*
X57067885Y32760640D01*
X57004120Y32758915D01*
X56990479Y32758546D01*
X56987072Y32758500D01*
X19207070Y32758500D01*
X19188120Y32759933D01*
X19173885Y32762099D01*
X19173881Y32762099D01*
X19166651Y32763199D01*
X19159359Y32762606D01*
X19159356Y32762606D01*
X19113982Y32758915D01*
X19103767Y32758500D01*
X19095707Y32758500D01*
X19092073Y32758076D01*
X19092067Y32758076D01*
X19079042Y32756557D01*
X19067480Y32755209D01*
X19063132Y32754779D01*
X19041059Y32752984D01*
X18997662Y32749454D01*
X18997659Y32749453D01*
X18990364Y32748860D01*
X18983400Y32746604D01*
X18977461Y32745417D01*
X18971590Y32744030D01*
X18964319Y32743182D01*
X18957443Y32740686D01*
X18957434Y32740684D01*
X18895702Y32718275D01*
X18891598Y32716865D01*
X18822101Y32694352D01*
X18815846Y32690556D01*
X18810387Y32688057D01*
X18804939Y32685329D01*
X18798063Y32682833D01*
X18737010Y32642805D01*
X18733337Y32640487D01*
X18670893Y32602595D01*
X18662517Y32595198D01*
X18662493Y32595225D01*
X18659499Y32592570D01*
X18656268Y32589868D01*
X18650148Y32585856D01*
X18620951Y32555035D01*
X18596872Y32529617D01*
X18594494Y32527175D01*
X17257914Y31190595D01*
X17195602Y31156569D01*
X17157838Y31154169D01*
X17035476Y31164874D01*
X17035475Y31164874D01*
X17030000Y31165353D01*
X16808537Y31145978D01*
X16698521Y31116499D01*
X16599114Y31089863D01*
X16599112Y31089862D01*
X16593804Y31088440D01*
X16588823Y31086118D01*
X16588822Y31086117D01*
X16397311Y30996814D01*
X16397306Y30996811D01*
X16392324Y30994488D01*
X16387817Y30991332D01*
X16387815Y30991331D01*
X16214730Y30870136D01*
X16214727Y30870134D01*
X16210219Y30866977D01*
X16053023Y30709781D01*
X16049866Y30705273D01*
X16049864Y30705270D01*
X15928669Y30532185D01*
X15925512Y30527676D01*
X15923189Y30522694D01*
X15923186Y30522689D01*
X15874195Y30417627D01*
X15827277Y30364342D01*
X15759000Y30344881D01*
X15691040Y30365423D01*
X15645805Y30417627D01*
X15596814Y30522689D01*
X15596811Y30522694D01*
X15594488Y30527676D01*
X15591331Y30532185D01*
X15470136Y30705270D01*
X15470134Y30705273D01*
X15466977Y30709781D01*
X15309781Y30866977D01*
X15305273Y30870134D01*
X15305270Y30870136D01*
X15229505Y30923187D01*
X15127677Y30994488D01*
X15122695Y30996811D01*
X15122690Y30996814D01*
X14931178Y31086117D01*
X14931177Y31086118D01*
X14926196Y31088440D01*
X14920888Y31089862D01*
X14920886Y31089863D01*
X14821479Y31116499D01*
X14711463Y31145978D01*
X14490000Y31165353D01*
X14268537Y31145978D01*
X14158521Y31116499D01*
X14059114Y31089863D01*
X14059112Y31089862D01*
X14053804Y31088440D01*
X14048823Y31086118D01*
X14048822Y31086117D01*
X13857311Y30996814D01*
X13857306Y30996811D01*
X13852324Y30994488D01*
X13847817Y30991332D01*
X13847815Y30991331D01*
X13674730Y30870136D01*
X13674727Y30870134D01*
X13670219Y30866977D01*
X13513023Y30709781D01*
X13509866Y30705273D01*
X13509864Y30705270D01*
X13388669Y30532185D01*
X13385512Y30527676D01*
X13383189Y30522694D01*
X13383186Y30522689D01*
X13333919Y30417035D01*
X13287001Y30363750D01*
X13218724Y30344289D01*
X13150764Y30364831D01*
X13105529Y30417035D01*
X13056377Y30522441D01*
X13050897Y30531932D01*
X13020206Y30575765D01*
X13009729Y30584140D01*
X12996282Y30577072D01*
X12322022Y29902812D01*
X12314408Y29888868D01*
X12314539Y29887035D01*
X12318790Y29880420D01*
X12997003Y29202207D01*
X13008777Y29195777D01*
X13020793Y29205074D01*
X13050897Y29248068D01*
X13056377Y29257559D01*
X13105529Y29362965D01*
X13152447Y29416250D01*
X13220724Y29435711D01*
X13288684Y29415169D01*
X13333919Y29362965D01*
X13383186Y29257311D01*
X13383189Y29257306D01*
X13385512Y29252324D01*
X13388668Y29247817D01*
X13388669Y29247815D01*
X13425107Y29195777D01*
X13513023Y29070219D01*
X13670219Y28913023D01*
X13674727Y28909866D01*
X13674730Y28909864D01*
X13750495Y28856813D01*
X13852323Y28785512D01*
X13857305Y28783189D01*
X13857310Y28783186D01*
X14010118Y28711931D01*
X14053804Y28691560D01*
X14059112Y28690138D01*
X14059114Y28690137D01*
X14124949Y28672497D01*
X14268537Y28634022D01*
X14490000Y28614647D01*
X14711463Y28634022D01*
X14855051Y28672497D01*
X14920886Y28690137D01*
X14920888Y28690138D01*
X14926196Y28691560D01*
X14969882Y28711931D01*
X15122690Y28783186D01*
X15122695Y28783189D01*
X15127677Y28785512D01*
X15229505Y28856813D01*
X15305270Y28909864D01*
X15305273Y28909866D01*
X15309781Y28913023D01*
X15466977Y29070219D01*
X15554894Y29195777D01*
X15591331Y29247815D01*
X15591332Y29247817D01*
X15594488Y29252324D01*
X15596811Y29257306D01*
X15596814Y29257311D01*
X15645805Y29362373D01*
X15692723Y29415658D01*
X15761000Y29435119D01*
X15828960Y29414577D01*
X15874195Y29362373D01*
X15923186Y29257311D01*
X15923189Y29257306D01*
X15925512Y29252324D01*
X15928668Y29247817D01*
X15928669Y29247815D01*
X15965107Y29195777D01*
X16053023Y29070219D01*
X16210219Y28913023D01*
X16214727Y28909866D01*
X16214730Y28909864D01*
X16290495Y28856813D01*
X16392323Y28785512D01*
X16397305Y28783189D01*
X16397310Y28783186D01*
X16550118Y28711931D01*
X16593804Y28691560D01*
X16599112Y28690138D01*
X16599114Y28690137D01*
X16664949Y28672497D01*
X16808537Y28634022D01*
X17030000Y28614647D01*
X17251463Y28634022D01*
X17395051Y28672497D01*
X17460886Y28690137D01*
X17460888Y28690138D01*
X17466196Y28691560D01*
X17509882Y28711931D01*
X17662690Y28783186D01*
X17662695Y28783189D01*
X17667677Y28785512D01*
X17769505Y28856813D01*
X17845270Y28909864D01*
X17845273Y28909866D01*
X17849781Y28913023D01*
X18006977Y29070219D01*
X18094894Y29195777D01*
X18131331Y29247815D01*
X18131332Y29247817D01*
X18134488Y29252324D01*
X18136811Y29257306D01*
X18136814Y29257311D01*
X18185805Y29362373D01*
X18232723Y29415658D01*
X18301000Y29435119D01*
X18368960Y29414577D01*
X18414195Y29362373D01*
X18463186Y29257311D01*
X18463189Y29257306D01*
X18465512Y29252324D01*
X18468668Y29247817D01*
X18468669Y29247815D01*
X18505107Y29195777D01*
X18593023Y29070219D01*
X18750219Y28913023D01*
X18754727Y28909866D01*
X18754730Y28909864D01*
X18830495Y28856813D01*
X18932323Y28785512D01*
X18937305Y28783189D01*
X18937310Y28783186D01*
X19090118Y28711931D01*
X19133804Y28691560D01*
X19139112Y28690138D01*
X19139114Y28690137D01*
X19204949Y28672497D01*
X19348537Y28634022D01*
X19570000Y28614647D01*
X19791463Y28634022D01*
X19935051Y28672497D01*
X20000886Y28690137D01*
X20000888Y28690138D01*
X20006196Y28691560D01*
X20049882Y28711931D01*
X20202690Y28783186D01*
X20202695Y28783189D01*
X20207677Y28785512D01*
X20309505Y28856813D01*
X20385270Y28909864D01*
X20385273Y28909866D01*
X20389781Y28913023D01*
X20546977Y29070219D01*
X20634894Y29195777D01*
X20671331Y29247815D01*
X20671332Y29247817D01*
X20674488Y29252324D01*
X20676811Y29257306D01*
X20676814Y29257311D01*
X20725805Y29362373D01*
X20772723Y29415658D01*
X20841000Y29435119D01*
X20908960Y29414577D01*
X20954195Y29362373D01*
X21003186Y29257311D01*
X21003189Y29257306D01*
X21005512Y29252324D01*
X21008668Y29247817D01*
X21008669Y29247815D01*
X21045107Y29195777D01*
X21133023Y29070219D01*
X21290219Y28913023D01*
X21294727Y28909866D01*
X21294730Y28909864D01*
X21370495Y28856813D01*
X21472323Y28785512D01*
X21477305Y28783189D01*
X21477310Y28783186D01*
X21630118Y28711931D01*
X21673804Y28691560D01*
X21679112Y28690138D01*
X21679114Y28690137D01*
X21744949Y28672497D01*
X21888537Y28634022D01*
X22110000Y28614647D01*
X22331463Y28634022D01*
X22475051Y28672497D01*
X22540886Y28690137D01*
X22540888Y28690138D01*
X22546196Y28691560D01*
X22589882Y28711931D01*
X22742690Y28783186D01*
X22742695Y28783189D01*
X22747677Y28785512D01*
X22812959Y28831223D01*
X23955777Y28831223D01*
X23965074Y28819207D01*
X24008069Y28789102D01*
X24017555Y28783624D01*
X24208993Y28694355D01*
X24219285Y28690609D01*
X24423309Y28635941D01*
X24434104Y28634038D01*
X24644525Y28615628D01*
X24655475Y28615628D01*
X24865896Y28634038D01*
X24876691Y28635941D01*
X25080715Y28690609D01*
X25091007Y28694355D01*
X25282445Y28783624D01*
X25291931Y28789102D01*
X25335764Y28819793D01*
X25344139Y28830271D01*
X25337071Y28843719D01*
X24662812Y29517978D01*
X24648868Y29525592D01*
X24647035Y29525461D01*
X24640420Y29521210D01*
X23962207Y28842997D01*
X23955777Y28831223D01*
X22812959Y28831223D01*
X22849505Y28856813D01*
X22925270Y28909864D01*
X22925273Y28909866D01*
X22929781Y28913023D01*
X23086977Y29070219D01*
X23174894Y29195777D01*
X23211331Y29247815D01*
X23211332Y29247817D01*
X23214488Y29252324D01*
X23216811Y29257306D01*
X23216814Y29257311D01*
X23266081Y29362965D01*
X23312999Y29416250D01*
X23381276Y29435711D01*
X23449236Y29415169D01*
X23494471Y29362965D01*
X23543623Y29257559D01*
X23549103Y29248068D01*
X23579794Y29204235D01*
X23590271Y29195860D01*
X23603718Y29202928D01*
X24277978Y29877188D01*
X24285592Y29891132D01*
X24285461Y29892965D01*
X24281210Y29899580D01*
X23602997Y30577793D01*
X23591223Y30584223D01*
X23579207Y30574926D01*
X23549103Y30531932D01*
X23543623Y30522441D01*
X23494471Y30417035D01*
X23447553Y30363750D01*
X23379276Y30344289D01*
X23311316Y30364831D01*
X23266081Y30417035D01*
X23216814Y30522689D01*
X23216811Y30522694D01*
X23214488Y30527676D01*
X23211331Y30532185D01*
X23090136Y30705270D01*
X23090134Y30705273D01*
X23086977Y30709781D01*
X22929781Y30866977D01*
X22925273Y30870134D01*
X22925270Y30870136D01*
X22849505Y30923187D01*
X22747677Y30994488D01*
X22742695Y30996811D01*
X22742690Y30996814D01*
X22733058Y31001305D01*
X22679773Y31048223D01*
X22660312Y31116500D01*
X22680854Y31184460D01*
X22734877Y31230525D01*
X22786308Y31241500D01*
X23974877Y31241500D01*
X24042998Y31221498D01*
X24089491Y31167842D01*
X24099595Y31097568D01*
X24070101Y31032988D01*
X24028127Y31001305D01*
X24017559Y30996377D01*
X24008068Y30990897D01*
X23964235Y30960206D01*
X23955860Y30949729D01*
X23962928Y30936282D01*
X24637188Y30262022D01*
X24651132Y30254408D01*
X24652965Y30254539D01*
X24659580Y30258790D01*
X25337793Y30937003D01*
X25344223Y30948777D01*
X25334926Y30960793D01*
X25291931Y30990898D01*
X25282445Y30996376D01*
X25271874Y31001305D01*
X25218589Y31048222D01*
X25199128Y31116499D01*
X25219670Y31184459D01*
X25273693Y31230525D01*
X25325124Y31241500D01*
X26513693Y31241500D01*
X26581814Y31221498D01*
X26628307Y31167842D01*
X26638411Y31097568D01*
X26608917Y31032988D01*
X26566943Y31001305D01*
X26557311Y30996814D01*
X26557306Y30996811D01*
X26552324Y30994488D01*
X26547817Y30991332D01*
X26547815Y30991331D01*
X26374730Y30870136D01*
X26374727Y30870134D01*
X26370219Y30866977D01*
X26213023Y30709781D01*
X26209866Y30705273D01*
X26209864Y30705270D01*
X26088669Y30532185D01*
X26085512Y30527676D01*
X26083189Y30522694D01*
X26083186Y30522689D01*
X26033919Y30417035D01*
X25987001Y30363750D01*
X25918724Y30344289D01*
X25850764Y30364831D01*
X25805529Y30417035D01*
X25756377Y30522441D01*
X25750897Y30531932D01*
X25720206Y30575765D01*
X25709729Y30584140D01*
X25696282Y30577072D01*
X25022022Y29902812D01*
X25014408Y29888868D01*
X25014539Y29887035D01*
X25018790Y29880420D01*
X25697003Y29202207D01*
X25708777Y29195777D01*
X25720793Y29205074D01*
X25750897Y29248068D01*
X25756377Y29257559D01*
X25805529Y29362965D01*
X25852447Y29416250D01*
X25920724Y29435711D01*
X25988684Y29415169D01*
X26033919Y29362965D01*
X26083186Y29257311D01*
X26083189Y29257306D01*
X26085512Y29252324D01*
X26088668Y29247817D01*
X26088669Y29247815D01*
X26125107Y29195777D01*
X26213023Y29070219D01*
X26370219Y28913023D01*
X26374727Y28909866D01*
X26374730Y28909864D01*
X26450495Y28856813D01*
X26552323Y28785512D01*
X26557305Y28783189D01*
X26557310Y28783186D01*
X26710118Y28711931D01*
X26753804Y28691560D01*
X26759112Y28690138D01*
X26759114Y28690137D01*
X26824949Y28672497D01*
X26968537Y28634022D01*
X27190000Y28614647D01*
X27411463Y28634022D01*
X27555051Y28672497D01*
X27620886Y28690137D01*
X27620888Y28690138D01*
X27626196Y28691560D01*
X27669882Y28711931D01*
X27822690Y28783186D01*
X27822695Y28783189D01*
X27827677Y28785512D01*
X27929505Y28856813D01*
X28005270Y28909864D01*
X28005273Y28909866D01*
X28009781Y28913023D01*
X28166977Y29070219D01*
X28254894Y29195777D01*
X28291331Y29247815D01*
X28291332Y29247817D01*
X28294488Y29252324D01*
X28296811Y29257306D01*
X28296814Y29257311D01*
X28345805Y29362373D01*
X28392723Y29415658D01*
X28461000Y29435119D01*
X28528960Y29414577D01*
X28574195Y29362373D01*
X28623186Y29257311D01*
X28623189Y29257306D01*
X28625512Y29252324D01*
X28628668Y29247817D01*
X28628669Y29247815D01*
X28665107Y29195777D01*
X28753023Y29070219D01*
X28910219Y28913023D01*
X28914727Y28909866D01*
X28914730Y28909864D01*
X28990495Y28856813D01*
X29092323Y28785512D01*
X29097305Y28783189D01*
X29097310Y28783186D01*
X29250118Y28711931D01*
X29293804Y28691560D01*
X29299112Y28690138D01*
X29299114Y28690137D01*
X29364949Y28672497D01*
X29508537Y28634022D01*
X29730000Y28614647D01*
X29951463Y28634022D01*
X30095051Y28672497D01*
X30160886Y28690137D01*
X30160888Y28690138D01*
X30166196Y28691560D01*
X30209882Y28711931D01*
X30362690Y28783186D01*
X30362695Y28783189D01*
X30367677Y28785512D01*
X30469505Y28856813D01*
X30545270Y28909864D01*
X30545273Y28909866D01*
X30549781Y28913023D01*
X30706977Y29070219D01*
X30794894Y29195777D01*
X30831331Y29247815D01*
X30831332Y29247817D01*
X30834488Y29252324D01*
X30836811Y29257306D01*
X30836814Y29257311D01*
X30885805Y29362373D01*
X30932723Y29415658D01*
X31001000Y29435119D01*
X31068960Y29414577D01*
X31114195Y29362373D01*
X31163186Y29257311D01*
X31163189Y29257306D01*
X31165512Y29252324D01*
X31168668Y29247817D01*
X31168669Y29247815D01*
X31205107Y29195777D01*
X31293023Y29070219D01*
X31450219Y28913023D01*
X31454727Y28909866D01*
X31454730Y28909864D01*
X31530495Y28856813D01*
X31632323Y28785512D01*
X31637305Y28783189D01*
X31637310Y28783186D01*
X31790118Y28711931D01*
X31833804Y28691560D01*
X31839112Y28690138D01*
X31839114Y28690137D01*
X31904949Y28672497D01*
X32048537Y28634022D01*
X32270000Y28614647D01*
X32491463Y28634022D01*
X32635051Y28672497D01*
X32700886Y28690137D01*
X32700888Y28690138D01*
X32706196Y28691560D01*
X32749882Y28711931D01*
X32902690Y28783186D01*
X32902695Y28783189D01*
X32907677Y28785512D01*
X33009505Y28856813D01*
X33085270Y28909864D01*
X33085273Y28909866D01*
X33089781Y28913023D01*
X33246977Y29070219D01*
X33334894Y29195777D01*
X33371331Y29247815D01*
X33371332Y29247817D01*
X33374488Y29252324D01*
X33376811Y29257306D01*
X33376814Y29257311D01*
X33425805Y29362373D01*
X33472723Y29415658D01*
X33541000Y29435119D01*
X33608960Y29414577D01*
X33654195Y29362373D01*
X33703186Y29257311D01*
X33703189Y29257306D01*
X33705512Y29252324D01*
X33708668Y29247817D01*
X33708669Y29247815D01*
X33745107Y29195777D01*
X33833023Y29070219D01*
X33990219Y28913023D01*
X33994727Y28909866D01*
X33994730Y28909864D01*
X34070495Y28856813D01*
X34172323Y28785512D01*
X34177305Y28783189D01*
X34177310Y28783186D01*
X34330118Y28711931D01*
X34373804Y28691560D01*
X34379112Y28690138D01*
X34379114Y28690137D01*
X34444949Y28672497D01*
X34588537Y28634022D01*
X34810000Y28614647D01*
X35031463Y28634022D01*
X35175051Y28672497D01*
X35240886Y28690137D01*
X35240888Y28690138D01*
X35246196Y28691560D01*
X35289882Y28711931D01*
X35442690Y28783186D01*
X35442695Y28783189D01*
X35447677Y28785512D01*
X35512959Y28831223D01*
X36655777Y28831223D01*
X36665074Y28819207D01*
X36708069Y28789102D01*
X36717555Y28783624D01*
X36908993Y28694355D01*
X36919285Y28690609D01*
X37123309Y28635941D01*
X37134104Y28634038D01*
X37344525Y28615628D01*
X37355475Y28615628D01*
X37565896Y28634038D01*
X37576691Y28635941D01*
X37780715Y28690609D01*
X37791007Y28694355D01*
X37982445Y28783624D01*
X37991931Y28789102D01*
X38035764Y28819793D01*
X38044139Y28830271D01*
X38037071Y28843719D01*
X37362812Y29517978D01*
X37348868Y29525592D01*
X37347035Y29525461D01*
X37340420Y29521210D01*
X36662207Y28842997D01*
X36655777Y28831223D01*
X35512959Y28831223D01*
X35549505Y28856813D01*
X35625270Y28909864D01*
X35625273Y28909866D01*
X35629781Y28913023D01*
X35786977Y29070219D01*
X35874894Y29195777D01*
X35911331Y29247815D01*
X35911332Y29247817D01*
X35914488Y29252324D01*
X35916811Y29257306D01*
X35916814Y29257311D01*
X35966081Y29362965D01*
X36012999Y29416250D01*
X36081276Y29435711D01*
X36149236Y29415169D01*
X36194471Y29362965D01*
X36243623Y29257559D01*
X36249103Y29248068D01*
X36279794Y29204235D01*
X36290271Y29195860D01*
X36303718Y29202928D01*
X36977978Y29877188D01*
X36985592Y29891132D01*
X36985461Y29892965D01*
X36981210Y29899580D01*
X36302997Y30577793D01*
X36291223Y30584223D01*
X36279207Y30574926D01*
X36249103Y30531932D01*
X36243623Y30522441D01*
X36194471Y30417035D01*
X36147553Y30363750D01*
X36079276Y30344289D01*
X36011316Y30364831D01*
X35966081Y30417035D01*
X35916814Y30522689D01*
X35916811Y30522694D01*
X35914488Y30527676D01*
X35911331Y30532185D01*
X35790136Y30705270D01*
X35790134Y30705273D01*
X35786977Y30709781D01*
X35629781Y30866977D01*
X35625273Y30870134D01*
X35625270Y30870136D01*
X35549505Y30923187D01*
X35447677Y30994488D01*
X35442695Y30996811D01*
X35442690Y30996814D01*
X35433058Y31001305D01*
X35379773Y31048223D01*
X35360312Y31116500D01*
X35380854Y31184460D01*
X35434877Y31230525D01*
X35486308Y31241500D01*
X36674877Y31241500D01*
X36742998Y31221498D01*
X36789491Y31167842D01*
X36799595Y31097568D01*
X36770101Y31032988D01*
X36728127Y31001305D01*
X36717559Y30996377D01*
X36708068Y30990897D01*
X36664235Y30960206D01*
X36655860Y30949729D01*
X36662928Y30936282D01*
X37337188Y30262022D01*
X37351132Y30254408D01*
X37352965Y30254539D01*
X37359580Y30258790D01*
X38037793Y30937003D01*
X38044223Y30948777D01*
X38034926Y30960793D01*
X37991931Y30990898D01*
X37982445Y30996376D01*
X37971874Y31001305D01*
X37918589Y31048222D01*
X37899128Y31116499D01*
X37919670Y31184459D01*
X37973693Y31230525D01*
X38025124Y31241500D01*
X39213693Y31241500D01*
X39281814Y31221498D01*
X39328307Y31167842D01*
X39338411Y31097568D01*
X39308917Y31032988D01*
X39266943Y31001305D01*
X39257311Y30996814D01*
X39257306Y30996811D01*
X39252324Y30994488D01*
X39247817Y30991332D01*
X39247815Y30991331D01*
X39074730Y30870136D01*
X39074727Y30870134D01*
X39070219Y30866977D01*
X38913023Y30709781D01*
X38909866Y30705273D01*
X38909864Y30705270D01*
X38788669Y30532185D01*
X38785512Y30527676D01*
X38783189Y30522694D01*
X38783186Y30522689D01*
X38733919Y30417035D01*
X38687001Y30363750D01*
X38618724Y30344289D01*
X38550764Y30364831D01*
X38505529Y30417035D01*
X38456377Y30522441D01*
X38450897Y30531932D01*
X38420206Y30575765D01*
X38409729Y30584140D01*
X38396282Y30577072D01*
X37722022Y29902812D01*
X37714408Y29888868D01*
X37714539Y29887035D01*
X37718790Y29880420D01*
X38397003Y29202207D01*
X38408777Y29195777D01*
X38420793Y29205074D01*
X38450897Y29248068D01*
X38456377Y29257559D01*
X38505529Y29362965D01*
X38552447Y29416250D01*
X38620724Y29435711D01*
X38688684Y29415169D01*
X38733919Y29362965D01*
X38783186Y29257311D01*
X38783189Y29257306D01*
X38785512Y29252324D01*
X38788668Y29247817D01*
X38788669Y29247815D01*
X38825107Y29195777D01*
X38913023Y29070219D01*
X39070219Y28913023D01*
X39074727Y28909866D01*
X39074730Y28909864D01*
X39150495Y28856813D01*
X39252323Y28785512D01*
X39257305Y28783189D01*
X39257310Y28783186D01*
X39410118Y28711931D01*
X39453804Y28691560D01*
X39459112Y28690138D01*
X39459114Y28690137D01*
X39524949Y28672497D01*
X39668537Y28634022D01*
X39890000Y28614647D01*
X40111463Y28634022D01*
X40255051Y28672497D01*
X40320886Y28690137D01*
X40320888Y28690138D01*
X40326196Y28691560D01*
X40369882Y28711931D01*
X40522690Y28783186D01*
X40522695Y28783189D01*
X40527677Y28785512D01*
X40629505Y28856813D01*
X40705270Y28909864D01*
X40705273Y28909866D01*
X40709781Y28913023D01*
X40866977Y29070219D01*
X40954894Y29195777D01*
X40991331Y29247815D01*
X40991332Y29247817D01*
X40994488Y29252324D01*
X40996811Y29257306D01*
X40996814Y29257311D01*
X41045805Y29362373D01*
X41092723Y29415658D01*
X41161000Y29435119D01*
X41228960Y29414577D01*
X41274195Y29362373D01*
X41323186Y29257311D01*
X41323189Y29257306D01*
X41325512Y29252324D01*
X41328668Y29247817D01*
X41328669Y29247815D01*
X41365107Y29195777D01*
X41453023Y29070219D01*
X41610219Y28913023D01*
X41614727Y28909866D01*
X41614730Y28909864D01*
X41690495Y28856813D01*
X41792323Y28785512D01*
X41797305Y28783189D01*
X41797310Y28783186D01*
X41950118Y28711931D01*
X41993804Y28691560D01*
X41999112Y28690138D01*
X41999114Y28690137D01*
X42064949Y28672497D01*
X42208537Y28634022D01*
X42430000Y28614647D01*
X42651463Y28634022D01*
X42795051Y28672497D01*
X42860886Y28690137D01*
X42860888Y28690138D01*
X42866196Y28691560D01*
X42909882Y28711931D01*
X43062690Y28783186D01*
X43062695Y28783189D01*
X43067677Y28785512D01*
X43169505Y28856813D01*
X43245270Y28909864D01*
X43245273Y28909866D01*
X43249781Y28913023D01*
X43406977Y29070219D01*
X43494894Y29195777D01*
X43531331Y29247815D01*
X43531332Y29247817D01*
X43534488Y29252324D01*
X43536811Y29257306D01*
X43536814Y29257311D01*
X43585805Y29362373D01*
X43632723Y29415658D01*
X43701000Y29435119D01*
X43768960Y29414577D01*
X43814195Y29362373D01*
X43863186Y29257311D01*
X43863189Y29257306D01*
X43865512Y29252324D01*
X43868668Y29247817D01*
X43868669Y29247815D01*
X43905107Y29195777D01*
X43993023Y29070219D01*
X44150219Y28913023D01*
X44154727Y28909866D01*
X44154730Y28909864D01*
X44230495Y28856813D01*
X44332323Y28785512D01*
X44337305Y28783189D01*
X44337310Y28783186D01*
X44490118Y28711931D01*
X44533804Y28691560D01*
X44539112Y28690138D01*
X44539114Y28690137D01*
X44604949Y28672497D01*
X44748537Y28634022D01*
X44970000Y28614647D01*
X45191463Y28634022D01*
X45335051Y28672497D01*
X45400886Y28690137D01*
X45400888Y28690138D01*
X45406196Y28691560D01*
X45449882Y28711931D01*
X45602690Y28783186D01*
X45602695Y28783189D01*
X45607677Y28785512D01*
X45709505Y28856813D01*
X45785270Y28909864D01*
X45785273Y28909866D01*
X45789781Y28913023D01*
X45946977Y29070219D01*
X46034894Y29195777D01*
X46071331Y29247815D01*
X46071332Y29247817D01*
X46074488Y29252324D01*
X46076811Y29257306D01*
X46076814Y29257311D01*
X46125805Y29362373D01*
X46172723Y29415658D01*
X46241000Y29435119D01*
X46308960Y29414577D01*
X46354195Y29362373D01*
X46403186Y29257311D01*
X46403189Y29257306D01*
X46405512Y29252324D01*
X46408668Y29247817D01*
X46408669Y29247815D01*
X46445107Y29195777D01*
X46533023Y29070219D01*
X46690219Y28913023D01*
X46694727Y28909866D01*
X46694730Y28909864D01*
X46770495Y28856813D01*
X46872323Y28785512D01*
X46877305Y28783189D01*
X46877310Y28783186D01*
X47030118Y28711931D01*
X47073804Y28691560D01*
X47079112Y28690138D01*
X47079114Y28690137D01*
X47144949Y28672497D01*
X47288537Y28634022D01*
X47510000Y28614647D01*
X47731463Y28634022D01*
X47875051Y28672497D01*
X47940886Y28690137D01*
X47940888Y28690138D01*
X47946196Y28691560D01*
X47989882Y28711931D01*
X48142690Y28783186D01*
X48142695Y28783189D01*
X48147677Y28785512D01*
X48212959Y28831223D01*
X49355777Y28831223D01*
X49365074Y28819207D01*
X49408069Y28789102D01*
X49417555Y28783624D01*
X49608993Y28694355D01*
X49619285Y28690609D01*
X49823309Y28635941D01*
X49834104Y28634038D01*
X50044525Y28615628D01*
X50055475Y28615628D01*
X50265896Y28634038D01*
X50276691Y28635941D01*
X50480715Y28690609D01*
X50491007Y28694355D01*
X50682445Y28783624D01*
X50691931Y28789102D01*
X50735764Y28819793D01*
X50744139Y28830271D01*
X50737071Y28843719D01*
X50062812Y29517978D01*
X50048868Y29525592D01*
X50047035Y29525461D01*
X50040420Y29521210D01*
X49362207Y28842997D01*
X49355777Y28831223D01*
X48212959Y28831223D01*
X48249505Y28856813D01*
X48325270Y28909864D01*
X48325273Y28909866D01*
X48329781Y28913023D01*
X48486977Y29070219D01*
X48574894Y29195777D01*
X48611331Y29247815D01*
X48611332Y29247817D01*
X48614488Y29252324D01*
X48616811Y29257306D01*
X48616814Y29257311D01*
X48666081Y29362965D01*
X48712999Y29416250D01*
X48781276Y29435711D01*
X48849236Y29415169D01*
X48894471Y29362965D01*
X48943623Y29257559D01*
X48949103Y29248068D01*
X48979794Y29204235D01*
X48990271Y29195860D01*
X49003718Y29202928D01*
X49677978Y29877188D01*
X49685592Y29891132D01*
X49685461Y29892965D01*
X49681210Y29899580D01*
X49002997Y30577793D01*
X48991223Y30584223D01*
X48979207Y30574926D01*
X48949103Y30531932D01*
X48943623Y30522441D01*
X48894471Y30417035D01*
X48847553Y30363750D01*
X48779276Y30344289D01*
X48711316Y30364831D01*
X48666081Y30417035D01*
X48616814Y30522689D01*
X48616811Y30522694D01*
X48614488Y30527676D01*
X48611331Y30532185D01*
X48490136Y30705270D01*
X48490134Y30705273D01*
X48486977Y30709781D01*
X48329781Y30866977D01*
X48325273Y30870134D01*
X48325270Y30870136D01*
X48249505Y30923187D01*
X48147677Y30994488D01*
X48142695Y30996811D01*
X48142690Y30996814D01*
X48133058Y31001305D01*
X48079773Y31048223D01*
X48060312Y31116500D01*
X48080854Y31184460D01*
X48134877Y31230525D01*
X48186308Y31241500D01*
X49374877Y31241500D01*
X49442998Y31221498D01*
X49489491Y31167842D01*
X49499595Y31097568D01*
X49470101Y31032988D01*
X49428127Y31001305D01*
X49417559Y30996377D01*
X49408068Y30990897D01*
X49364235Y30960206D01*
X49355860Y30949729D01*
X49362928Y30936282D01*
X50037188Y30262022D01*
X50051132Y30254408D01*
X50052965Y30254539D01*
X50059580Y30258790D01*
X50737793Y30937003D01*
X50744223Y30948777D01*
X50734926Y30960793D01*
X50691931Y30990898D01*
X50682445Y30996376D01*
X50671874Y31001305D01*
X50618589Y31048222D01*
X50599128Y31116499D01*
X50619670Y31184459D01*
X50673693Y31230525D01*
X50725124Y31241500D01*
X51913693Y31241500D01*
X51981814Y31221498D01*
X52028307Y31167842D01*
X52038411Y31097568D01*
X52008917Y31032988D01*
X51966943Y31001305D01*
X51957311Y30996814D01*
X51957306Y30996811D01*
X51952324Y30994488D01*
X51947817Y30991332D01*
X51947815Y30991331D01*
X51774730Y30870136D01*
X51774727Y30870134D01*
X51770219Y30866977D01*
X51613023Y30709781D01*
X51609866Y30705273D01*
X51609864Y30705270D01*
X51488669Y30532185D01*
X51485512Y30527676D01*
X51483189Y30522694D01*
X51483186Y30522689D01*
X51433919Y30417035D01*
X51387001Y30363750D01*
X51318724Y30344289D01*
X51250764Y30364831D01*
X51205529Y30417035D01*
X51156377Y30522441D01*
X51150897Y30531932D01*
X51120206Y30575765D01*
X51109729Y30584140D01*
X51096282Y30577072D01*
X50422022Y29902812D01*
X50414408Y29888868D01*
X50414539Y29887035D01*
X50418790Y29880420D01*
X51097003Y29202207D01*
X51108777Y29195777D01*
X51120793Y29205074D01*
X51150897Y29248068D01*
X51156377Y29257559D01*
X51205529Y29362965D01*
X51252447Y29416250D01*
X51320724Y29435711D01*
X51388684Y29415169D01*
X51433919Y29362965D01*
X51483186Y29257311D01*
X51483189Y29257306D01*
X51485512Y29252324D01*
X51488668Y29247817D01*
X51488669Y29247815D01*
X51525107Y29195777D01*
X51613023Y29070219D01*
X51770219Y28913023D01*
X51774727Y28909866D01*
X51774730Y28909864D01*
X51850495Y28856813D01*
X51952323Y28785512D01*
X51957305Y28783189D01*
X51957310Y28783186D01*
X52110118Y28711931D01*
X52153804Y28691560D01*
X52159112Y28690138D01*
X52159114Y28690137D01*
X52224949Y28672497D01*
X52368537Y28634022D01*
X52590000Y28614647D01*
X52811463Y28634022D01*
X52955051Y28672497D01*
X53020886Y28690137D01*
X53020888Y28690138D01*
X53026196Y28691560D01*
X53069882Y28711931D01*
X53222690Y28783186D01*
X53222695Y28783189D01*
X53227677Y28785512D01*
X53329505Y28856813D01*
X53405270Y28909864D01*
X53405273Y28909866D01*
X53409781Y28913023D01*
X53566977Y29070219D01*
X53654894Y29195777D01*
X53691331Y29247815D01*
X53691332Y29247817D01*
X53694488Y29252324D01*
X53696811Y29257306D01*
X53696814Y29257311D01*
X53745805Y29362373D01*
X53792723Y29415658D01*
X53861000Y29435119D01*
X53928960Y29414577D01*
X53974195Y29362373D01*
X54023186Y29257311D01*
X54023189Y29257306D01*
X54025512Y29252324D01*
X54028668Y29247817D01*
X54028669Y29247815D01*
X54065107Y29195777D01*
X54153023Y29070219D01*
X54310219Y28913023D01*
X54314727Y28909866D01*
X54314730Y28909864D01*
X54390495Y28856813D01*
X54492323Y28785512D01*
X54497305Y28783189D01*
X54497310Y28783186D01*
X54650118Y28711931D01*
X54693804Y28691560D01*
X54699112Y28690138D01*
X54699114Y28690137D01*
X54764949Y28672497D01*
X54908537Y28634022D01*
X55130000Y28614647D01*
X55351463Y28634022D01*
X55495051Y28672497D01*
X55560886Y28690137D01*
X55560888Y28690138D01*
X55566196Y28691560D01*
X55609882Y28711931D01*
X55762690Y28783186D01*
X55762695Y28783189D01*
X55767677Y28785512D01*
X55869505Y28856813D01*
X55945270Y28909864D01*
X55945273Y28909866D01*
X55949781Y28913023D01*
X56106977Y29070219D01*
X56194894Y29195777D01*
X56231331Y29247815D01*
X56231332Y29247817D01*
X56234488Y29252324D01*
X56236811Y29257306D01*
X56236814Y29257311D01*
X56326117Y29448822D01*
X56326118Y29448823D01*
X56328440Y29453804D01*
X56331629Y29465703D01*
X56384554Y29663224D01*
X56385978Y29668537D01*
X56405353Y29890000D01*
X56385978Y30111463D01*
X56336738Y30295229D01*
X56329863Y30320886D01*
X56329862Y30320888D01*
X56328440Y30326196D01*
X56319727Y30344881D01*
X56236814Y30522689D01*
X56236811Y30522694D01*
X56234488Y30527676D01*
X56231331Y30532185D01*
X56110136Y30705270D01*
X56110134Y30705273D01*
X56106977Y30709781D01*
X55949781Y30866977D01*
X55945273Y30870134D01*
X55945270Y30870136D01*
X55869505Y30923187D01*
X55767677Y30994488D01*
X55762695Y30996811D01*
X55762690Y30996814D01*
X55753058Y31001305D01*
X55699773Y31048223D01*
X55680312Y31116500D01*
X55700854Y31184460D01*
X55754877Y31230525D01*
X55806308Y31241500D01*
X56633629Y31241500D01*
X56701750Y31221498D01*
X56722724Y31204595D01*
X57416230Y30511089D01*
X57428616Y30496677D01*
X57437149Y30485082D01*
X57437154Y30485077D01*
X57441492Y30479182D01*
X57447070Y30474443D01*
X57447073Y30474440D01*
X57481768Y30444965D01*
X57489284Y30438035D01*
X57494980Y30432339D01*
X57497841Y30430076D01*
X57497846Y30430071D01*
X57517266Y30414707D01*
X57520667Y30411918D01*
X57530529Y30403540D01*
X57576285Y30364667D01*
X57582805Y30361338D01*
X57587852Y30357972D01*
X57592976Y30354807D01*
X57598717Y30350265D01*
X57605348Y30347166D01*
X57605351Y30347164D01*
X57611503Y30344289D01*
X57661578Y30320886D01*
X57664830Y30319366D01*
X57668782Y30317435D01*
X57712270Y30295229D01*
X57733808Y30284231D01*
X57740914Y30282492D01*
X57746564Y30280391D01*
X57752321Y30278476D01*
X57758950Y30275378D01*
X57830435Y30260509D01*
X57834701Y30259543D01*
X57905610Y30242192D01*
X57911212Y30241844D01*
X57911215Y30241844D01*
X57916764Y30241500D01*
X57916762Y30241465D01*
X57920734Y30241225D01*
X57924955Y30240848D01*
X57932115Y30239359D01*
X58009542Y30241454D01*
X58012950Y30241500D01*
X59394103Y30241500D01*
X59462224Y30221498D01*
X59508717Y30167842D01*
X59518821Y30097568D01*
X59489327Y30032988D01*
X59478462Y30021991D01*
X59474965Y30019365D01*
X59471392Y30015626D01*
X59352423Y29891132D01*
X59320629Y29857862D01*
X59317715Y29853590D01*
X59317714Y29853589D01*
X59305404Y29835543D01*
X59194743Y29673320D01*
X59100688Y29470695D01*
X59040989Y29255430D01*
X59017251Y29033305D01*
X59017548Y29028152D01*
X59017548Y29028149D01*
X59024186Y28913023D01*
X59030110Y28810285D01*
X59031247Y28805239D01*
X59031248Y28805233D01*
X59063453Y28662332D01*
X59058917Y28591480D01*
X59029631Y28545536D01*
X56107747Y25623652D01*
X56099461Y25616112D01*
X56092982Y25612000D01*
X56087557Y25606223D01*
X56046357Y25562349D01*
X56043602Y25559507D01*
X56023865Y25539770D01*
X56021385Y25536573D01*
X56013682Y25527553D01*
X55983414Y25495321D01*
X55979595Y25488375D01*
X55979593Y25488372D01*
X55973652Y25477566D01*
X55962801Y25461047D01*
X55950386Y25445041D01*
X55947241Y25437772D01*
X55947238Y25437768D01*
X55932826Y25404463D01*
X55927609Y25393813D01*
X55906305Y25355060D01*
X55904334Y25347385D01*
X55904334Y25347384D01*
X55901267Y25335438D01*
X55894863Y25316734D01*
X55886819Y25298145D01*
X55885580Y25290322D01*
X55885577Y25290312D01*
X55879901Y25254476D01*
X55877495Y25242856D01*
X55866500Y25200030D01*
X55866500Y25179776D01*
X55864949Y25160066D01*
X55861780Y25140057D01*
X55862526Y25132165D01*
X55865941Y25096039D01*
X55866500Y25084181D01*
X55866500Y22546669D01*
X55846411Y22478414D01*
X55775054Y22367690D01*
X55775050Y22367681D01*
X55771235Y22361762D01*
X55768826Y22355142D01*
X55768825Y22355141D01*
X55712219Y22199617D01*
X55709197Y22191315D01*
X55686463Y22011360D01*
X55704163Y21830840D01*
X55761418Y21658727D01*
X55765065Y21652705D01*
X55765066Y21652703D01*
X55773707Y21638436D01*
X55855380Y21503576D01*
X55981382Y21373098D01*
X56133159Y21273778D01*
X56139763Y21271322D01*
X56139765Y21271321D01*
X56296558Y21213010D01*
X56296560Y21213010D01*
X56303168Y21210552D01*
X56386995Y21199367D01*
X56475980Y21187493D01*
X56475984Y21187493D01*
X56482961Y21186562D01*
X56489972Y21187200D01*
X56489976Y21187200D01*
X56632459Y21200168D01*
X56663600Y21203002D01*
X56670305Y21205181D01*
X56670307Y21205181D01*
X56701565Y21215337D01*
X56772532Y21217364D01*
X56833330Y21180701D01*
X56864655Y21116989D01*
X56866500Y21095504D01*
X56866500Y20078767D01*
X56865973Y20067584D01*
X56864298Y20060091D01*
X56864547Y20052165D01*
X56864547Y20052164D01*
X56866438Y19992014D01*
X56866500Y19988055D01*
X56866500Y19960144D01*
X56866997Y19956210D01*
X56866997Y19956209D01*
X56867005Y19956144D01*
X56867938Y19944307D01*
X56869327Y19900111D01*
X56874978Y19880661D01*
X56878987Y19861300D01*
X56881526Y19841203D01*
X56884445Y19833832D01*
X56884445Y19833830D01*
X56897804Y19800088D01*
X56901649Y19788858D01*
X56913982Y19746407D01*
X56918015Y19739588D01*
X56918017Y19739583D01*
X56924293Y19728972D01*
X56932988Y19711224D01*
X56940448Y19692383D01*
X56945110Y19685967D01*
X56945110Y19685966D01*
X56966436Y19656613D01*
X56972952Y19646693D01*
X56995458Y19608638D01*
X57009779Y19594317D01*
X57022619Y19579284D01*
X57034528Y19562893D01*
X57040634Y19557842D01*
X57068605Y19534702D01*
X57077384Y19526712D01*
X59149778Y17454318D01*
X59183804Y17392006D01*
X59182100Y17331552D01*
X59160989Y17255430D01*
X59160441Y17250300D01*
X59160440Y17250296D01*
X59150654Y17158719D01*
X59137251Y17033305D01*
X59150110Y16810285D01*
X59151247Y16805239D01*
X59151248Y16805233D01*
X59165606Y16741525D01*
X59199222Y16592361D01*
X59283266Y16385384D01*
X59310686Y16340638D01*
X59397104Y16199617D01*
X59399987Y16194912D01*
X59546250Y16026062D01*
X59718126Y15883368D01*
X59911000Y15770662D01*
X60119692Y15690970D01*
X60124760Y15689939D01*
X60124763Y15689938D01*
X60219862Y15670590D01*
X60338597Y15646433D01*
X60343772Y15646243D01*
X60343774Y15646243D01*
X60556673Y15638436D01*
X60556677Y15638436D01*
X60561837Y15638247D01*
X60566957Y15638903D01*
X60566959Y15638903D01*
X60778288Y15665975D01*
X60778289Y15665975D01*
X60783416Y15666632D01*
X60788366Y15668117D01*
X60992429Y15729339D01*
X60992434Y15729341D01*
X60997384Y15730826D01*
X61197994Y15829104D01*
X61379860Y15958827D01*
X61538096Y16116511D01*
X61597594Y16199311D01*
X61668453Y16297923D01*
X61669640Y16297070D01*
X61716960Y16340638D01*
X61786897Y16352855D01*
X61852338Y16325322D01*
X61880166Y16293489D01*
X61937694Y16199612D01*
X61943777Y16191301D01*
X62083213Y16030333D01*
X62090580Y16023117D01*
X62254434Y15887084D01*
X62262881Y15881169D01*
X62446756Y15773721D01*
X62456042Y15769271D01*
X62655001Y15693297D01*
X62664899Y15690421D01*
X62768250Y15669394D01*
X62782299Y15670590D01*
X62786000Y15680935D01*
X62786000Y15681483D01*
X63294000Y15681483D01*
X63298064Y15667641D01*
X63311478Y15665607D01*
X63318184Y15666466D01*
X63328262Y15668608D01*
X63532255Y15729809D01*
X63541842Y15733567D01*
X63733095Y15827261D01*
X63741945Y15832536D01*
X63915328Y15956208D01*
X63923200Y15962861D01*
X64074052Y16113188D01*
X64080730Y16121035D01*
X64208022Y16298181D01*
X64209147Y16297373D01*
X64256669Y16341124D01*
X64326607Y16353339D01*
X64392046Y16325803D01*
X64419870Y16293972D01*
X64477690Y16199617D01*
X64483777Y16191301D01*
X64623213Y16030333D01*
X64630580Y16023117D01*
X64794434Y15887084D01*
X64802881Y15881169D01*
X64986756Y15773721D01*
X64996042Y15769271D01*
X65195001Y15693297D01*
X65204899Y15690421D01*
X65308250Y15669394D01*
X65322299Y15670590D01*
X65326000Y15680935D01*
X65326000Y15681483D01*
X65834000Y15681483D01*
X65838064Y15667641D01*
X65851478Y15665607D01*
X65858184Y15666466D01*
X65868262Y15668608D01*
X66072255Y15729809D01*
X66081842Y15733567D01*
X66273095Y15827261D01*
X66281945Y15832536D01*
X66455328Y15956208D01*
X66463193Y15962855D01*
X66567897Y16067195D01*
X66630268Y16101111D01*
X66701075Y16095923D01*
X66757837Y16053277D01*
X66774819Y16022174D01*
X66819385Y15903295D01*
X66906739Y15786739D01*
X67023295Y15699385D01*
X67159684Y15648255D01*
X67221866Y15641500D01*
X69018134Y15641500D01*
X69080316Y15648255D01*
X69216705Y15699385D01*
X69333261Y15786739D01*
X69420615Y15903295D01*
X69471745Y16039684D01*
X69478500Y16101866D01*
X69478500Y17898134D01*
X69471745Y17960316D01*
X69420615Y18096705D01*
X69333261Y18213261D01*
X69216705Y18300615D01*
X69080316Y18351745D01*
X69018134Y18358500D01*
X67221866Y18358500D01*
X67159684Y18351745D01*
X67023295Y18300615D01*
X66906739Y18213261D01*
X66819385Y18096705D01*
X66816233Y18088297D01*
X66816232Y18088295D01*
X66774722Y17977567D01*
X66732081Y17920802D01*
X66665519Y17896102D01*
X66596170Y17911309D01*
X66563546Y17936996D01*
X66512799Y17992766D01*
X66505273Y17999785D01*
X66338139Y18131778D01*
X66329552Y18137483D01*
X66143117Y18240401D01*
X66133705Y18244631D01*
X65932959Y18315720D01*
X65922988Y18318354D01*
X65851837Y18331028D01*
X65838540Y18329568D01*
X65834000Y18315011D01*
X65834000Y15681483D01*
X65326000Y15681483D01*
X65326000Y16727885D01*
X65321525Y16743124D01*
X65320135Y16744329D01*
X65312452Y16746000D01*
X63312115Y16746000D01*
X63296876Y16741525D01*
X63295671Y16740135D01*
X63294000Y16732452D01*
X63294000Y15681483D01*
X62786000Y15681483D01*
X62786000Y17272115D01*
X63294000Y17272115D01*
X63298475Y17256876D01*
X63299865Y17255671D01*
X63307548Y17254000D01*
X65307885Y17254000D01*
X65323124Y17258475D01*
X65324329Y17259865D01*
X65326000Y17267548D01*
X65326000Y18316898D01*
X65322082Y18330242D01*
X65307806Y18332229D01*
X65269324Y18326340D01*
X65259288Y18323949D01*
X65056868Y18257788D01*
X65047359Y18253791D01*
X64858463Y18155458D01*
X64849738Y18149964D01*
X64679433Y18022095D01*
X64671726Y18015252D01*
X64524590Y17861283D01*
X64518104Y17853273D01*
X64413193Y17699479D01*
X64358282Y17654476D01*
X64287757Y17646305D01*
X64224010Y17677559D01*
X64203313Y17702043D01*
X64122427Y17827074D01*
X64116136Y17835243D01*
X63972806Y17992760D01*
X63965273Y17999785D01*
X63798139Y18131778D01*
X63789552Y18137483D01*
X63603117Y18240401D01*
X63593705Y18244631D01*
X63392959Y18315720D01*
X63382988Y18318354D01*
X63311837Y18331028D01*
X63298540Y18329568D01*
X63294000Y18315011D01*
X63294000Y17272115D01*
X62786000Y17272115D01*
X62786000Y18316898D01*
X62782082Y18330242D01*
X62767806Y18332229D01*
X62729324Y18326340D01*
X62719288Y18323949D01*
X62516868Y18257788D01*
X62507359Y18253791D01*
X62318463Y18155458D01*
X62309738Y18149964D01*
X62139433Y18022095D01*
X62131726Y18015252D01*
X61984590Y17861283D01*
X61978109Y17853278D01*
X61873498Y17699926D01*
X61818587Y17654924D01*
X61748062Y17646753D01*
X61684315Y17678007D01*
X61663618Y17702491D01*
X61582822Y17827383D01*
X61582820Y17827386D01*
X61580014Y17831723D01*
X61429670Y17996949D01*
X61425619Y18000148D01*
X61425615Y18000152D01*
X61258414Y18132200D01*
X61258410Y18132202D01*
X61254359Y18135402D01*
X61218028Y18155458D01*
X61202136Y18164231D01*
X61058789Y18243362D01*
X61053920Y18245086D01*
X61053916Y18245088D01*
X60853087Y18316205D01*
X60853083Y18316206D01*
X60848212Y18317931D01*
X60843119Y18318838D01*
X60843116Y18318839D01*
X60633373Y18356200D01*
X60633367Y18356201D01*
X60628284Y18357106D01*
X60554452Y18358008D01*
X60410081Y18359772D01*
X60410079Y18359772D01*
X60404911Y18359835D01*
X60184091Y18326045D01*
X60171532Y18321940D01*
X60100568Y18319790D01*
X60043294Y18352611D01*
X58170405Y20225500D01*
X58136379Y20287812D01*
X58133500Y20314595D01*
X58133500Y23033305D01*
X59137251Y23033305D01*
X59150110Y22810285D01*
X59151247Y22805239D01*
X59151248Y22805233D01*
X59165606Y22741525D01*
X59199222Y22592361D01*
X59283266Y22385384D01*
X59310686Y22340638D01*
X59397104Y22199617D01*
X59399987Y22194912D01*
X59546250Y22026062D01*
X59718126Y21883368D01*
X59911000Y21770662D01*
X60119692Y21690970D01*
X60124760Y21689939D01*
X60124763Y21689938D01*
X60219862Y21670590D01*
X60338597Y21646433D01*
X60343772Y21646243D01*
X60343774Y21646243D01*
X60556673Y21638436D01*
X60556677Y21638436D01*
X60561837Y21638247D01*
X60566957Y21638903D01*
X60566959Y21638903D01*
X60778288Y21665975D01*
X60778289Y21665975D01*
X60783416Y21666632D01*
X60788366Y21668117D01*
X60992429Y21729339D01*
X60992434Y21729341D01*
X60997384Y21730826D01*
X61197994Y21829104D01*
X61379860Y21958827D01*
X61538096Y22116511D01*
X61597594Y22199311D01*
X61668453Y22297923D01*
X61669640Y22297070D01*
X61716960Y22340638D01*
X61786897Y22352855D01*
X61852338Y22325322D01*
X61880166Y22293489D01*
X61937694Y22199612D01*
X61943777Y22191301D01*
X62083213Y22030333D01*
X62090580Y22023117D01*
X62254434Y21887084D01*
X62262881Y21881169D01*
X62446756Y21773721D01*
X62456042Y21769271D01*
X62655001Y21693297D01*
X62664899Y21690421D01*
X62768250Y21669394D01*
X62782299Y21670590D01*
X62786000Y21680935D01*
X62786000Y21681483D01*
X63294000Y21681483D01*
X63298064Y21667641D01*
X63311478Y21665607D01*
X63318184Y21666466D01*
X63328262Y21668608D01*
X63532255Y21729809D01*
X63541842Y21733567D01*
X63733095Y21827261D01*
X63741945Y21832536D01*
X63915328Y21956208D01*
X63923200Y21962861D01*
X64074052Y22113188D01*
X64080730Y22121035D01*
X64208022Y22298181D01*
X64209147Y22297373D01*
X64256669Y22341124D01*
X64326607Y22353339D01*
X64392046Y22325803D01*
X64419870Y22293972D01*
X64477690Y22199617D01*
X64483777Y22191301D01*
X64623213Y22030333D01*
X64630580Y22023117D01*
X64794434Y21887084D01*
X64802881Y21881169D01*
X64986756Y21773721D01*
X64996042Y21769271D01*
X65195001Y21693297D01*
X65204899Y21690421D01*
X65308250Y21669394D01*
X65322299Y21670590D01*
X65326000Y21680935D01*
X65326000Y21681483D01*
X65834000Y21681483D01*
X65838064Y21667641D01*
X65851478Y21665607D01*
X65858184Y21666466D01*
X65868262Y21668608D01*
X66072255Y21729809D01*
X66081842Y21733567D01*
X66273095Y21827261D01*
X66281945Y21832536D01*
X66455328Y21956208D01*
X66463193Y21962855D01*
X66567897Y22067195D01*
X66630268Y22101111D01*
X66701075Y22095923D01*
X66757837Y22053277D01*
X66774819Y22022174D01*
X66819385Y21903295D01*
X66906739Y21786739D01*
X67023295Y21699385D01*
X67159684Y21648255D01*
X67221866Y21641500D01*
X69018134Y21641500D01*
X69080316Y21648255D01*
X69216705Y21699385D01*
X69333261Y21786739D01*
X69420615Y21903295D01*
X69471745Y22039684D01*
X69478500Y22101866D01*
X69478500Y23898134D01*
X69471745Y23960316D01*
X69420615Y24096705D01*
X69333261Y24213261D01*
X69216705Y24300615D01*
X69080316Y24351745D01*
X69018134Y24358500D01*
X67221866Y24358500D01*
X67159684Y24351745D01*
X67023295Y24300615D01*
X66906739Y24213261D01*
X66819385Y24096705D01*
X66816233Y24088297D01*
X66816232Y24088295D01*
X66774722Y23977567D01*
X66732081Y23920802D01*
X66665519Y23896102D01*
X66596170Y23911309D01*
X66563546Y23936996D01*
X66512799Y23992766D01*
X66505273Y23999785D01*
X66338139Y24131778D01*
X66329552Y24137483D01*
X66143117Y24240401D01*
X66133705Y24244631D01*
X65932959Y24315720D01*
X65922988Y24318354D01*
X65851837Y24331028D01*
X65838540Y24329568D01*
X65834000Y24315011D01*
X65834000Y21681483D01*
X65326000Y21681483D01*
X65326000Y22727885D01*
X65321525Y22743124D01*
X65320135Y22744329D01*
X65312452Y22746000D01*
X63312115Y22746000D01*
X63296876Y22741525D01*
X63295671Y22740135D01*
X63294000Y22732452D01*
X63294000Y21681483D01*
X62786000Y21681483D01*
X62786000Y23272115D01*
X63294000Y23272115D01*
X63298475Y23256876D01*
X63299865Y23255671D01*
X63307548Y23254000D01*
X65307885Y23254000D01*
X65323124Y23258475D01*
X65324329Y23259865D01*
X65326000Y23267548D01*
X65326000Y24316898D01*
X65322082Y24330242D01*
X65307806Y24332229D01*
X65269324Y24326340D01*
X65259288Y24323949D01*
X65056868Y24257788D01*
X65047359Y24253791D01*
X64858463Y24155458D01*
X64849738Y24149964D01*
X64679433Y24022095D01*
X64671726Y24015252D01*
X64524590Y23861283D01*
X64518104Y23853273D01*
X64413193Y23699479D01*
X64358282Y23654476D01*
X64287757Y23646305D01*
X64224010Y23677559D01*
X64203313Y23702043D01*
X64122427Y23827074D01*
X64116136Y23835243D01*
X63972806Y23992760D01*
X63965273Y23999785D01*
X63798139Y24131778D01*
X63789552Y24137483D01*
X63603117Y24240401D01*
X63593705Y24244631D01*
X63392959Y24315720D01*
X63382988Y24318354D01*
X63311837Y24331028D01*
X63298540Y24329568D01*
X63294000Y24315011D01*
X63294000Y23272115D01*
X62786000Y23272115D01*
X62786000Y24316898D01*
X62782082Y24330242D01*
X62767806Y24332229D01*
X62729324Y24326340D01*
X62719288Y24323949D01*
X62516868Y24257788D01*
X62507359Y24253791D01*
X62318463Y24155458D01*
X62309738Y24149964D01*
X62139433Y24022095D01*
X62131726Y24015252D01*
X61984590Y23861283D01*
X61978109Y23853278D01*
X61873498Y23699926D01*
X61818587Y23654924D01*
X61748062Y23646753D01*
X61684315Y23678007D01*
X61663618Y23702491D01*
X61582822Y23827383D01*
X61582820Y23827386D01*
X61580014Y23831723D01*
X61429670Y23996949D01*
X61425619Y24000148D01*
X61425615Y24000152D01*
X61258414Y24132200D01*
X61258410Y24132202D01*
X61254359Y24135402D01*
X61218028Y24155458D01*
X61185786Y24173256D01*
X61058789Y24243362D01*
X61053920Y24245086D01*
X61053916Y24245088D01*
X60853087Y24316205D01*
X60853083Y24316206D01*
X60848212Y24317931D01*
X60843119Y24318838D01*
X60843116Y24318839D01*
X60633373Y24356200D01*
X60633367Y24356201D01*
X60628284Y24357106D01*
X60554452Y24358008D01*
X60410081Y24359772D01*
X60410079Y24359772D01*
X60404911Y24359835D01*
X60184091Y24326045D01*
X59971756Y24256643D01*
X59773607Y24153493D01*
X59769474Y24150390D01*
X59769471Y24150388D01*
X59686771Y24088295D01*
X59594965Y24019365D01*
X59440629Y23857862D01*
X59437715Y23853590D01*
X59437714Y23853589D01*
X59425404Y23835543D01*
X59314743Y23673320D01*
X59220688Y23470695D01*
X59160989Y23255430D01*
X59137251Y23033305D01*
X58133500Y23033305D01*
X58133500Y23454380D01*
X58154552Y23524107D01*
X58219742Y23622227D01*
X58223643Y23628098D01*
X58288055Y23797662D01*
X58301890Y23896102D01*
X58312748Y23973361D01*
X58312748Y23973364D01*
X58313299Y23977283D01*
X58313616Y24000000D01*
X58293397Y24180255D01*
X58291080Y24186909D01*
X58236064Y24344894D01*
X58236062Y24344897D01*
X58233745Y24351552D01*
X58229634Y24358131D01*
X58141359Y24499402D01*
X58137626Y24505376D01*
X58132664Y24510373D01*
X58014778Y24629085D01*
X58014774Y24629088D01*
X58009815Y24634082D01*
X57856666Y24731273D01*
X57827463Y24741672D01*
X57692425Y24789757D01*
X57692420Y24789758D01*
X57685790Y24792119D01*
X57678802Y24792952D01*
X57678799Y24792953D01*
X57555698Y24807632D01*
X57505680Y24813596D01*
X57498677Y24812860D01*
X57498675Y24812860D01*
X57394483Y24801909D01*
X57324645Y24814681D01*
X57272798Y24863183D01*
X57255404Y24932016D01*
X57277985Y24999326D01*
X57292218Y25016314D01*
X59924549Y27648645D01*
X59986861Y27682671D01*
X60038762Y27683021D01*
X60218597Y27646433D01*
X60223772Y27646243D01*
X60223774Y27646243D01*
X60436673Y27638436D01*
X60436677Y27638436D01*
X60441837Y27638247D01*
X60446957Y27638903D01*
X60446959Y27638903D01*
X60658288Y27665975D01*
X60658289Y27665975D01*
X60663416Y27666632D01*
X60668366Y27668117D01*
X60872429Y27729339D01*
X60872434Y27729341D01*
X60877384Y27730826D01*
X61077994Y27829104D01*
X61259860Y27958827D01*
X61418096Y28116511D01*
X61548453Y28297923D01*
X61549640Y28297070D01*
X61596960Y28340638D01*
X61666897Y28352855D01*
X61732338Y28325322D01*
X61760166Y28293489D01*
X61817694Y28199612D01*
X61823777Y28191301D01*
X61963213Y28030333D01*
X61970580Y28023117D01*
X62134434Y27887084D01*
X62142881Y27881169D01*
X62326756Y27773721D01*
X62336042Y27769271D01*
X62535001Y27693297D01*
X62544899Y27690421D01*
X62648250Y27669394D01*
X62662299Y27670590D01*
X62666000Y27680935D01*
X62666000Y27681483D01*
X63174000Y27681483D01*
X63178064Y27667641D01*
X63191478Y27665607D01*
X63198184Y27666466D01*
X63208262Y27668608D01*
X63412255Y27729809D01*
X63421842Y27733567D01*
X63613095Y27827261D01*
X63621945Y27832536D01*
X63795328Y27956208D01*
X63803200Y27962861D01*
X63954052Y28113188D01*
X63960730Y28121035D01*
X64088022Y28298181D01*
X64089147Y28297373D01*
X64136669Y28341124D01*
X64206607Y28353339D01*
X64272046Y28325803D01*
X64299870Y28293972D01*
X64357690Y28199617D01*
X64363777Y28191301D01*
X64503213Y28030333D01*
X64510580Y28023117D01*
X64674434Y27887084D01*
X64682881Y27881169D01*
X64866756Y27773721D01*
X64876042Y27769271D01*
X65075001Y27693297D01*
X65084899Y27690421D01*
X65188250Y27669394D01*
X65202299Y27670590D01*
X65206000Y27680935D01*
X65206000Y28727885D01*
X65201525Y28743124D01*
X65200135Y28744329D01*
X65192452Y28746000D01*
X63192115Y28746000D01*
X63176876Y28741525D01*
X63175671Y28740135D01*
X63174000Y28732452D01*
X63174000Y27681483D01*
X62666000Y27681483D01*
X62666000Y29128000D01*
X62686002Y29196121D01*
X62739658Y29242614D01*
X62792000Y29254000D01*
X65588000Y29254000D01*
X65656121Y29233998D01*
X65702614Y29180342D01*
X65714000Y29128000D01*
X65714000Y27681483D01*
X65718064Y27667641D01*
X65731478Y27665607D01*
X65738184Y27666466D01*
X65748262Y27668608D01*
X65952255Y27729809D01*
X65961842Y27733567D01*
X66153095Y27827261D01*
X66161945Y27832536D01*
X66335328Y27956208D01*
X66343193Y27962855D01*
X66447897Y28067195D01*
X66510268Y28101111D01*
X66581075Y28095923D01*
X66637837Y28053277D01*
X66654819Y28022174D01*
X66699385Y27903295D01*
X66786739Y27786739D01*
X66903295Y27699385D01*
X67039684Y27648255D01*
X67101866Y27641500D01*
X68898134Y27641500D01*
X68960316Y27648255D01*
X69096705Y27699385D01*
X69213261Y27786739D01*
X69300615Y27903295D01*
X69351745Y28039684D01*
X69358500Y28101866D01*
X69358500Y29898134D01*
X69351745Y29960316D01*
X69300615Y30096705D01*
X69213261Y30213261D01*
X69096705Y30300615D01*
X68960316Y30351745D01*
X68904440Y30357815D01*
X68901531Y30358131D01*
X68898134Y30358500D01*
X67101866Y30358500D01*
X67098469Y30358131D01*
X67095560Y30357815D01*
X67039684Y30351745D01*
X66903295Y30300615D01*
X66786739Y30213261D01*
X66699385Y30096705D01*
X66696233Y30088297D01*
X66696232Y30088295D01*
X66654722Y29977567D01*
X66612081Y29920802D01*
X66545519Y29896102D01*
X66476170Y29911309D01*
X66443546Y29936996D01*
X66392799Y29992766D01*
X66385273Y29999785D01*
X66218139Y30131778D01*
X66209552Y30137483D01*
X66098539Y30198766D01*
X66048569Y30249198D01*
X66033797Y30318641D01*
X66058914Y30385047D01*
X66074696Y30402074D01*
X66074600Y30402176D01*
X66075032Y30402582D01*
X66075784Y30403248D01*
X66076054Y30403540D01*
X66077511Y30404826D01*
X66077534Y30404800D01*
X66080500Y30407429D01*
X66083733Y30410132D01*
X66089852Y30414144D01*
X66143128Y30470383D01*
X66145506Y30472825D01*
X67027276Y31354595D01*
X67089588Y31388621D01*
X67116371Y31391500D01*
X68148134Y31391500D01*
X68210316Y31398255D01*
X68346705Y31449385D01*
X68463261Y31536739D01*
X68550615Y31653295D01*
X68601745Y31789684D01*
X68608500Y31851866D01*
X68608500Y33548134D01*
X68601745Y33610316D01*
X68550615Y33746705D01*
X68463261Y33863261D01*
X68346705Y33950615D01*
X68210316Y34001745D01*
X68199526Y34002917D01*
X68197394Y34003803D01*
X68194778Y34004425D01*
X68194879Y34004848D01*
X68133965Y34030155D01*
X68093537Y34088517D01*
X68091078Y34159471D01*
X68127371Y34220490D01*
X68136031Y34227489D01*
X68139793Y34230646D01*
X68144300Y34233802D01*
X68306198Y34395700D01*
X68312488Y34404682D01*
X68434366Y34578743D01*
X68437523Y34583251D01*
X68439846Y34588233D01*
X68439849Y34588238D01*
X68531961Y34785775D01*
X68531961Y34785776D01*
X68534284Y34790757D01*
X68540378Y34813498D01*
X68592119Y35006598D01*
X68592119Y35006600D01*
X68593543Y35011913D01*
X68613498Y35240000D01*
X68593543Y35468087D01*
X68534284Y35689243D01*
X68440932Y35889439D01*
X68439849Y35891762D01*
X68439846Y35891767D01*
X68437523Y35896749D01*
X68306198Y36084300D01*
X68144300Y36246198D01*
X68112229Y36268655D01*
X68067901Y36324110D01*
X68058500Y36371867D01*
X68058500Y36648133D01*
X68078502Y36716254D01*
X68112228Y36751345D01*
X68144300Y36773802D01*
X68306198Y36935700D01*
X68437523Y37123251D01*
X68439846Y37128233D01*
X68439849Y37128238D01*
X68531961Y37325775D01*
X68531961Y37325776D01*
X68534284Y37330757D01*
X68593543Y37551913D01*
X68613498Y37780000D01*
X68593543Y38008087D01*
X68584309Y38042548D01*
X68535707Y38223933D01*
X68535706Y38223935D01*
X68534284Y38229243D01*
X68523683Y38251978D01*
X68439849Y38431762D01*
X68439846Y38431767D01*
X68437523Y38436749D01*
X68306198Y38624300D01*
X68144300Y38786198D01*
X68112229Y38808655D01*
X68067901Y38864110D01*
X68058500Y38911867D01*
X68058500Y39188133D01*
X68078502Y39256254D01*
X68112228Y39291345D01*
X68144300Y39313802D01*
X68306198Y39475700D01*
X68317262Y39491500D01*
X68403480Y39614633D01*
X68437523Y39663251D01*
X68439846Y39668233D01*
X68439849Y39668238D01*
X68531961Y39865775D01*
X68531961Y39865776D01*
X68534284Y39870757D01*
X68546675Y39916998D01*
X68592119Y40086598D01*
X68592119Y40086600D01*
X68593543Y40091913D01*
X68613498Y40320000D01*
X68593543Y40548087D01*
X68566664Y40648399D01*
X68535707Y40763933D01*
X68535706Y40763935D01*
X68534284Y40769243D01*
X68487584Y40869393D01*
X68439849Y40971762D01*
X68439846Y40971767D01*
X68437523Y40976749D01*
X68316469Y41149632D01*
X68309357Y41159789D01*
X68309355Y41159792D01*
X68306198Y41164300D01*
X68185593Y41284905D01*
X68151567Y41347217D01*
X68156632Y41418032D01*
X68199179Y41474868D01*
X68265699Y41499679D01*
X68274688Y41500000D01*
X71365500Y41500000D01*
X71433621Y41479998D01*
X71480114Y41426342D01*
X71491500Y41374000D01*
X71491500Y5626000D01*
X71471498Y5557879D01*
X71417842Y5511386D01*
X71365500Y5500000D01*
X56500000Y5500000D01*
X56500000Y634500D01*
X56479998Y566379D01*
X56426342Y519886D01*
X56374000Y508500D01*
X22752750Y508500D01*
X22684629Y528502D01*
X22638136Y582158D01*
X22628032Y652432D01*
X22657526Y717012D01*
X22677185Y735326D01*
X22705723Y756714D01*
X22718285Y769276D01*
X22794786Y871351D01*
X22803324Y886946D01*
X22848478Y1007394D01*
X22852105Y1022649D01*
X22857631Y1073514D01*
X22858000Y1080328D01*
X22858000Y1702885D01*
X22853525Y1718124D01*
X22852135Y1719329D01*
X22844452Y1721000D01*
X20160116Y1721000D01*
X20144877Y1716525D01*
X20143672Y1715135D01*
X20142001Y1707452D01*
X20142001Y1080331D01*
X20142371Y1073510D01*
X20147895Y1022648D01*
X20151521Y1007396D01*
X20196676Y886946D01*
X20205214Y871351D01*
X20281715Y769276D01*
X20294277Y756714D01*
X20322815Y735326D01*
X20365330Y678467D01*
X20370356Y607648D01*
X20336296Y545355D01*
X20273965Y511365D01*
X20247250Y508500D01*
X18232735Y508500D01*
X18164614Y528502D01*
X18118121Y582158D01*
X18108017Y652432D01*
X18137511Y717012D01*
X18157170Y735326D01*
X18205724Y771715D01*
X18218285Y784276D01*
X18294786Y886351D01*
X18303324Y901946D01*
X18348478Y1022394D01*
X18352105Y1037649D01*
X18357631Y1088514D01*
X18358000Y1095328D01*
X18358000Y1717885D01*
X18353525Y1733124D01*
X18352135Y1734329D01*
X18344452Y1736000D01*
X15660116Y1736000D01*
X15644877Y1731525D01*
X15643672Y1730135D01*
X15642001Y1722452D01*
X15642001Y1095331D01*
X15642371Y1088510D01*
X15647895Y1037648D01*
X15651521Y1022396D01*
X15696676Y901946D01*
X15705214Y886351D01*
X15781715Y784276D01*
X15794276Y771715D01*
X15842830Y735326D01*
X15885345Y678467D01*
X15890371Y607649D01*
X15856311Y545355D01*
X15793980Y511365D01*
X15767265Y508500D01*
X13752750Y508500D01*
X13684629Y528502D01*
X13638136Y582158D01*
X13628032Y652432D01*
X13657526Y717012D01*
X13677185Y735326D01*
X13705723Y756714D01*
X13718285Y769276D01*
X13794786Y871351D01*
X13803324Y886946D01*
X13848478Y1007394D01*
X13852105Y1022649D01*
X13857631Y1073514D01*
X13858000Y1080328D01*
X13858000Y1702885D01*
X13853525Y1718124D01*
X13852135Y1719329D01*
X13844452Y1721000D01*
X11160116Y1721000D01*
X11144877Y1716525D01*
X11143672Y1715135D01*
X11142001Y1707452D01*
X11142001Y1080331D01*
X11142371Y1073510D01*
X11147895Y1022648D01*
X11151521Y1007396D01*
X11196676Y886946D01*
X11205214Y871351D01*
X11281715Y769276D01*
X11294277Y756714D01*
X11322815Y735326D01*
X11365330Y678467D01*
X11370356Y607648D01*
X11336296Y545355D01*
X11273965Y511365D01*
X11247250Y508500D01*
X5626000Y508500D01*
X5557879Y528502D01*
X5511386Y582158D01*
X5500000Y634500D01*
X5500000Y5500000D01*
X634500Y5500000D01*
X566379Y5520002D01*
X519886Y5573658D01*
X508500Y5626000D01*
X508500Y12110000D01*
X5594647Y12110000D01*
X5614022Y11888537D01*
X5630491Y11827074D01*
X5664561Y11699926D01*
X5671560Y11673804D01*
X5673882Y11668823D01*
X5673883Y11668822D01*
X5763186Y11477311D01*
X5763189Y11477306D01*
X5765512Y11472324D01*
X5768668Y11467817D01*
X5768669Y11467815D01*
X5805107Y11415777D01*
X5893023Y11290219D01*
X6050219Y11133023D01*
X6054727Y11129866D01*
X6054730Y11129864D01*
X6103963Y11095391D01*
X6232323Y11005512D01*
X6237305Y11003189D01*
X6237310Y11003186D01*
X6385709Y10933987D01*
X6433804Y10911560D01*
X6439112Y10910138D01*
X6439114Y10910137D01*
X6469202Y10902075D01*
X6648537Y10854022D01*
X6870000Y10834647D01*
X7091463Y10854022D01*
X7158399Y10871958D01*
X7229376Y10870268D01*
X7280105Y10839346D01*
X11109809Y7009642D01*
X11143835Y6947330D01*
X11146505Y6927801D01*
X11150110Y6865285D01*
X11151247Y6860239D01*
X11151248Y6860233D01*
X11167739Y6787061D01*
X11199222Y6647361D01*
X11237461Y6553189D01*
X11280783Y6446500D01*
X11283266Y6440384D01*
X11316387Y6386335D01*
X11397291Y6254312D01*
X11399987Y6249912D01*
X11546250Y6081062D01*
X11718126Y5938368D01*
X11769489Y5908354D01*
X11791445Y5895524D01*
X11840169Y5843886D01*
X11853240Y5774103D01*
X11826509Y5708331D01*
X11786055Y5674973D01*
X11781737Y5672725D01*
X11773607Y5668493D01*
X11769474Y5665390D01*
X11769471Y5665388D01*
X11599100Y5537470D01*
X11594965Y5534365D01*
X11591393Y5530627D01*
X11458535Y5391599D01*
X11440629Y5372862D01*
X11437715Y5368590D01*
X11437714Y5368589D01*
X11362134Y5257792D01*
X11314743Y5188320D01*
X11285773Y5125909D01*
X11225334Y4995703D01*
X11220688Y4985695D01*
X11160989Y4770430D01*
X11137251Y4548305D01*
X11137548Y4543152D01*
X11137548Y4543149D01*
X11144020Y4430907D01*
X11150110Y4325285D01*
X11151247Y4320239D01*
X11151248Y4320233D01*
X11167590Y4247720D01*
X11199222Y4107361D01*
X11239346Y4008547D01*
X11280995Y3905978D01*
X11283266Y3900384D01*
X11319175Y3841785D01*
X11396319Y3715898D01*
X11399987Y3709912D01*
X11546250Y3541062D01*
X11550225Y3537762D01*
X11550231Y3537756D01*
X11555425Y3533444D01*
X11595059Y3474540D01*
X11596555Y3403559D01*
X11559439Y3343038D01*
X11519168Y3318520D01*
X11411946Y3278324D01*
X11396351Y3269786D01*
X11294276Y3193285D01*
X11281715Y3180724D01*
X11205214Y3078649D01*
X11196676Y3063054D01*
X11151522Y2942606D01*
X11147895Y2927351D01*
X11142369Y2876486D01*
X11142000Y2869672D01*
X11142000Y2247115D01*
X11146475Y2231876D01*
X11147865Y2230671D01*
X11155548Y2229000D01*
X13839884Y2229000D01*
X13855123Y2233475D01*
X13856328Y2234865D01*
X13857999Y2242548D01*
X13857999Y2869669D01*
X13857629Y2876490D01*
X13852105Y2927352D01*
X13848479Y2942604D01*
X13803324Y3063054D01*
X13794786Y3078649D01*
X13718285Y3180724D01*
X13705724Y3193285D01*
X13603649Y3269786D01*
X13588054Y3278324D01*
X13477813Y3319652D01*
X13421049Y3362294D01*
X13396349Y3428855D01*
X13411557Y3498204D01*
X13433104Y3526885D01*
X13534430Y3627856D01*
X13534440Y3627868D01*
X13538096Y3631511D01*
X13551891Y3650708D01*
X13665435Y3808723D01*
X13668453Y3812923D01*
X13674727Y3825616D01*
X13765136Y4008547D01*
X13765137Y4008549D01*
X13767430Y4013189D01*
X13816026Y4173138D01*
X13830865Y4221977D01*
X13830865Y4221979D01*
X13832370Y4226931D01*
X13861529Y4448410D01*
X13861611Y4451760D01*
X13863074Y4511635D01*
X13863074Y4511639D01*
X13863156Y4515000D01*
X13844852Y4737639D01*
X13790431Y4954298D01*
X13701354Y5159160D01*
X13653719Y5232792D01*
X13582822Y5342383D01*
X13582820Y5342386D01*
X13580014Y5346723D01*
X13429670Y5511949D01*
X13425619Y5515148D01*
X13425615Y5515152D01*
X13258414Y5647200D01*
X13258410Y5647202D01*
X13254359Y5650402D01*
X13213053Y5673204D01*
X13163084Y5723636D01*
X13148312Y5793079D01*
X13173428Y5859484D01*
X13200780Y5886091D01*
X13269862Y5935367D01*
X13379860Y6013827D01*
X13395428Y6029340D01*
X13534435Y6167863D01*
X13538096Y6171511D01*
X13551891Y6190708D01*
X13665435Y6348723D01*
X13668453Y6352923D01*
X13675867Y6367923D01*
X13765136Y6548547D01*
X13765137Y6548549D01*
X13767430Y6553189D01*
X13832370Y6766931D01*
X13861529Y6988410D01*
X13861611Y6991760D01*
X13863074Y7051635D01*
X13863074Y7051639D01*
X13863156Y7055000D01*
X13844852Y7277639D01*
X13790431Y7494298D01*
X13701354Y7699160D01*
X13580014Y7886723D01*
X13429670Y8051949D01*
X13425619Y8055148D01*
X13425615Y8055152D01*
X13258414Y8187200D01*
X13258410Y8187202D01*
X13254359Y8190402D01*
X13058789Y8298362D01*
X13053920Y8300086D01*
X13053916Y8300088D01*
X12853087Y8371205D01*
X12853083Y8371206D01*
X12848212Y8372931D01*
X12843119Y8373838D01*
X12843116Y8373839D01*
X12633373Y8411200D01*
X12633367Y8411201D01*
X12628284Y8412106D01*
X12554452Y8413008D01*
X12410081Y8414772D01*
X12410079Y8414772D01*
X12404911Y8414835D01*
X12184091Y8381045D01*
X11971756Y8311643D01*
X11773607Y8208493D01*
X11771470Y8206888D01*
X11703868Y8187714D01*
X11635934Y8208344D01*
X11615935Y8224614D01*
X9211946Y10628603D01*
X9177920Y10690915D01*
X9182985Y10761730D01*
X9225532Y10818566D01*
X9292052Y10843377D01*
X9312019Y10843219D01*
X9410000Y10834647D01*
X9631463Y10854022D01*
X9698399Y10871958D01*
X9769376Y10870268D01*
X9820105Y10839346D01*
X11055685Y9603766D01*
X11066552Y9591375D01*
X11086013Y9566013D01*
X11092563Y9560987D01*
X11117921Y9541529D01*
X11117937Y9541515D01*
X11167305Y9503634D01*
X11213124Y9468476D01*
X11361149Y9407162D01*
X11520000Y9386249D01*
X11551699Y9390422D01*
X11568144Y9391500D01*
X13765761Y9391500D01*
X13833882Y9371498D01*
X13854856Y9354595D01*
X15657454Y7551997D01*
X15691480Y7489685D01*
X15689776Y7429231D01*
X15660989Y7325430D01*
X15660441Y7320300D01*
X15660440Y7320296D01*
X15656418Y7282658D01*
X15637251Y7103305D01*
X15637548Y7098152D01*
X15637548Y7098149D01*
X15643876Y6988410D01*
X15650110Y6880285D01*
X15651247Y6875239D01*
X15651248Y6875233D01*
X15653490Y6865285D01*
X15699222Y6662361D01*
X15737461Y6568189D01*
X15779231Y6465322D01*
X15783266Y6455384D01*
X15899987Y6264912D01*
X16046250Y6096062D01*
X16218126Y5953368D01*
X16248262Y5935758D01*
X16291445Y5910524D01*
X16340169Y5858886D01*
X16353240Y5789103D01*
X16326509Y5723331D01*
X16286055Y5689973D01*
X16273607Y5683493D01*
X16269474Y5680390D01*
X16269471Y5680388D01*
X16099100Y5552470D01*
X16094965Y5549365D01*
X15940629Y5387862D01*
X15937715Y5383590D01*
X15937714Y5383589D01*
X15892970Y5317996D01*
X15814743Y5203320D01*
X15799003Y5169410D01*
X15734011Y5029396D01*
X15720688Y5000695D01*
X15660989Y4785430D01*
X15637251Y4563305D01*
X15637548Y4558152D01*
X15637548Y4558149D01*
X15644885Y4430907D01*
X15650110Y4340285D01*
X15651247Y4335239D01*
X15651248Y4335233D01*
X15667939Y4261172D01*
X15699222Y4122361D01*
X15783266Y3915384D01*
X15899987Y3724912D01*
X15903367Y3721010D01*
X15907795Y3715898D01*
X16046250Y3556062D01*
X16050225Y3552762D01*
X16050231Y3552756D01*
X16055425Y3548444D01*
X16095059Y3489540D01*
X16096555Y3418559D01*
X16059439Y3358038D01*
X16019168Y3333520D01*
X15911946Y3293324D01*
X15896351Y3284786D01*
X15794276Y3208285D01*
X15781715Y3195724D01*
X15705214Y3093649D01*
X15696676Y3078054D01*
X15651522Y2957606D01*
X15647895Y2942351D01*
X15642369Y2891486D01*
X15642000Y2884672D01*
X15642000Y2262115D01*
X15646475Y2246876D01*
X15647865Y2245671D01*
X15655548Y2244000D01*
X18339884Y2244000D01*
X18355123Y2248475D01*
X18356328Y2249865D01*
X18357999Y2257548D01*
X18357999Y2884669D01*
X18357629Y2891490D01*
X18352105Y2942352D01*
X18348479Y2957604D01*
X18303324Y3078054D01*
X18294786Y3093649D01*
X18218285Y3195724D01*
X18205724Y3208285D01*
X18103649Y3284786D01*
X18088054Y3293324D01*
X17977813Y3334652D01*
X17921049Y3377294D01*
X17896349Y3443855D01*
X17911557Y3513204D01*
X17933104Y3541885D01*
X18034430Y3642856D01*
X18034440Y3642868D01*
X18038096Y3646511D01*
X18097594Y3729311D01*
X18165435Y3823723D01*
X18168453Y3827923D01*
X18182412Y3856166D01*
X18265136Y4023547D01*
X18265137Y4023549D01*
X18267430Y4028189D01*
X18308966Y4164898D01*
X18330865Y4236977D01*
X18330865Y4236979D01*
X18332370Y4241931D01*
X18361529Y4463410D01*
X18361865Y4477154D01*
X18363074Y4526635D01*
X18363074Y4526639D01*
X18363156Y4530000D01*
X18344852Y4752639D01*
X18290431Y4969298D01*
X18201354Y5174160D01*
X18139745Y5269393D01*
X18082822Y5357383D01*
X18082820Y5357386D01*
X18080014Y5361723D01*
X17929670Y5526949D01*
X17925619Y5530148D01*
X17925615Y5530152D01*
X17758414Y5662200D01*
X17758410Y5662202D01*
X17754359Y5665402D01*
X17713053Y5688204D01*
X17663084Y5738636D01*
X17648312Y5808079D01*
X17673428Y5874484D01*
X17700780Y5901091D01*
X17757674Y5941673D01*
X17879860Y6028827D01*
X17934452Y6083228D01*
X18034435Y6182863D01*
X18038096Y6186511D01*
X18097594Y6269311D01*
X18165435Y6363723D01*
X18168453Y6367923D01*
X18197403Y6426498D01*
X18265136Y6563547D01*
X18265137Y6563549D01*
X18267430Y6568189D01*
X18299900Y6675060D01*
X18330865Y6776977D01*
X18330865Y6776979D01*
X18332370Y6781931D01*
X18361529Y7003410D01*
X18361681Y7009642D01*
X18363074Y7066631D01*
X18363074Y7066637D01*
X18363156Y7070000D01*
X18363364Y7069995D01*
X18381046Y7137336D01*
X18433339Y7185356D01*
X18503293Y7197480D01*
X18568697Y7169861D01*
X18578058Y7161393D01*
X19080685Y6658766D01*
X19091552Y6646375D01*
X19111013Y6621013D01*
X19117563Y6615987D01*
X19142921Y6596529D01*
X19142937Y6596515D01*
X19173397Y6573143D01*
X19238124Y6523476D01*
X19386149Y6462162D01*
X19545000Y6441249D01*
X19576699Y6445422D01*
X19593144Y6446500D01*
X20208954Y6446500D01*
X20277075Y6426498D01*
X20316387Y6386335D01*
X20399987Y6249912D01*
X20546250Y6081062D01*
X20718126Y5938368D01*
X20769489Y5908354D01*
X20791445Y5895524D01*
X20840169Y5843886D01*
X20853240Y5774103D01*
X20826509Y5708331D01*
X20786055Y5674973D01*
X20781737Y5672725D01*
X20773607Y5668493D01*
X20769474Y5665390D01*
X20769471Y5665388D01*
X20599100Y5537470D01*
X20594965Y5534365D01*
X20591393Y5530627D01*
X20458535Y5391599D01*
X20440629Y5372862D01*
X20437715Y5368590D01*
X20437714Y5368589D01*
X20362134Y5257792D01*
X20314743Y5188320D01*
X20285773Y5125909D01*
X20225334Y4995703D01*
X20220688Y4985695D01*
X20160989Y4770430D01*
X20137251Y4548305D01*
X20137548Y4543152D01*
X20137548Y4543149D01*
X20144020Y4430907D01*
X20150110Y4325285D01*
X20151247Y4320239D01*
X20151248Y4320233D01*
X20167590Y4247720D01*
X20199222Y4107361D01*
X20239346Y4008547D01*
X20280995Y3905978D01*
X20283266Y3900384D01*
X20319175Y3841785D01*
X20396319Y3715898D01*
X20399987Y3709912D01*
X20546250Y3541062D01*
X20550225Y3537762D01*
X20550231Y3537756D01*
X20555425Y3533444D01*
X20595059Y3474540D01*
X20596555Y3403559D01*
X20559439Y3343038D01*
X20519168Y3318520D01*
X20411946Y3278324D01*
X20396351Y3269786D01*
X20294276Y3193285D01*
X20281715Y3180724D01*
X20205214Y3078649D01*
X20196676Y3063054D01*
X20151522Y2942606D01*
X20147895Y2927351D01*
X20142369Y2876486D01*
X20142000Y2869672D01*
X20142000Y2247115D01*
X20146475Y2231876D01*
X20147865Y2230671D01*
X20155548Y2229000D01*
X22839884Y2229000D01*
X22855123Y2233475D01*
X22856328Y2234865D01*
X22857999Y2242548D01*
X22857999Y2729807D01*
X27147289Y2729807D01*
X27156124Y2625675D01*
X27157914Y2615203D01*
X27213130Y2402465D01*
X27216665Y2392425D01*
X27306937Y2192030D01*
X27312106Y2182744D01*
X27434850Y2000425D01*
X27441519Y1992130D01*
X27593228Y1833100D01*
X27601186Y1826059D01*
X27777525Y1694859D01*
X27786562Y1689255D01*
X27982484Y1589643D01*
X27992335Y1585643D01*
X28202240Y1520466D01*
X28212624Y1518183D01*
X28228043Y1516139D01*
X28242207Y1518335D01*
X28246000Y1531522D01*
X28246000Y2727885D01*
X28241525Y2743124D01*
X28240135Y2744329D01*
X28232452Y2746000D01*
X27164030Y2746000D01*
X27149352Y2741690D01*
X27147289Y2729807D01*
X22857999Y2729807D01*
X22857999Y2869669D01*
X22857629Y2876490D01*
X22852105Y2927352D01*
X22848479Y2942604D01*
X22803324Y3063054D01*
X22794786Y3078649D01*
X22718285Y3180724D01*
X22705724Y3193285D01*
X22603649Y3269786D01*
X22588054Y3278324D01*
X22477813Y3319652D01*
X22421049Y3362294D01*
X22396349Y3428855D01*
X22411557Y3498204D01*
X22433104Y3526885D01*
X22534430Y3627856D01*
X22534440Y3627868D01*
X22538096Y3631511D01*
X22551891Y3650708D01*
X22665435Y3808723D01*
X22668453Y3812923D01*
X22674727Y3825616D01*
X22765136Y4008547D01*
X22765137Y4008549D01*
X22767430Y4013189D01*
X22816026Y4173138D01*
X22830865Y4221977D01*
X22830865Y4221979D01*
X22832370Y4226931D01*
X22861529Y4448410D01*
X22861611Y4451760D01*
X22863074Y4511635D01*
X22863074Y4511639D01*
X22863156Y4515000D01*
X22844852Y4737639D01*
X22790431Y4954298D01*
X22701354Y5159160D01*
X22653719Y5232792D01*
X22582822Y5342383D01*
X22582820Y5342386D01*
X22580014Y5346723D01*
X22429670Y5511949D01*
X22425619Y5515148D01*
X22425615Y5515152D01*
X22258414Y5647200D01*
X22258410Y5647202D01*
X22254359Y5650402D01*
X22213053Y5673204D01*
X22163084Y5723636D01*
X22148312Y5793079D01*
X22173428Y5859484D01*
X22200780Y5886091D01*
X22269862Y5935367D01*
X22379860Y6013827D01*
X22395428Y6029340D01*
X22534435Y6167863D01*
X22538096Y6171511D01*
X22551891Y6190708D01*
X22665435Y6348723D01*
X22668453Y6352923D01*
X22675867Y6367923D01*
X22765136Y6548547D01*
X22765137Y6548549D01*
X22767430Y6553189D01*
X22832370Y6766931D01*
X22861529Y6988410D01*
X22861611Y6991760D01*
X22863074Y7051635D01*
X22863074Y7051639D01*
X22863156Y7055000D01*
X22844852Y7277639D01*
X22790431Y7494298D01*
X22701354Y7699160D01*
X22580014Y7886723D01*
X22429670Y8051949D01*
X22425619Y8055148D01*
X22425615Y8055152D01*
X22258414Y8187200D01*
X22258410Y8187202D01*
X22254359Y8190402D01*
X22058789Y8298362D01*
X22053920Y8300086D01*
X22053916Y8300088D01*
X21853087Y8371205D01*
X21853083Y8371206D01*
X21848212Y8372931D01*
X21843119Y8373838D01*
X21843116Y8373839D01*
X21633373Y8411200D01*
X21633367Y8411201D01*
X21628284Y8412106D01*
X21554452Y8413008D01*
X21410081Y8414772D01*
X21410079Y8414772D01*
X21404911Y8414835D01*
X21184091Y8381045D01*
X20971756Y8311643D01*
X20773607Y8208493D01*
X20769474Y8205390D01*
X20769471Y8205388D01*
X20745247Y8187200D01*
X20594965Y8074365D01*
X20440629Y7912862D01*
X20314743Y7728320D01*
X20313945Y7726600D01*
X20263589Y7677912D01*
X20205074Y7663500D01*
X19849239Y7663500D01*
X19781118Y7683502D01*
X19760144Y7700405D01*
X16831946Y10628603D01*
X16797920Y10690915D01*
X16802985Y10761730D01*
X16845532Y10818566D01*
X16912052Y10843377D01*
X16932019Y10843219D01*
X17030000Y10834647D01*
X17251463Y10854022D01*
X17318399Y10871958D01*
X17389376Y10870268D01*
X17440105Y10839346D01*
X18175685Y10103766D01*
X18186552Y10091375D01*
X18206013Y10066013D01*
X18212563Y10060987D01*
X18237921Y10041529D01*
X18237937Y10041515D01*
X18287305Y10003634D01*
X18333124Y9968476D01*
X18481149Y9907162D01*
X18489336Y9906084D01*
X18489337Y9906084D01*
X18500542Y9904609D01*
X18519790Y9902075D01*
X18600115Y9891500D01*
X18600118Y9891500D01*
X18600126Y9891499D01*
X18631811Y9887328D01*
X18640000Y9886250D01*
X18671693Y9890422D01*
X18688136Y9891500D01*
X23195761Y9891500D01*
X23263882Y9871498D01*
X23284856Y9854595D01*
X28421570Y4717881D01*
X28455596Y4655569D01*
X28450531Y4584754D01*
X28407984Y4527918D01*
X28344309Y4505387D01*
X28344528Y4503601D01*
X28328685Y4501656D01*
X28113580Y4456523D01*
X28103383Y4453463D01*
X27898971Y4372737D01*
X27889439Y4368006D01*
X27701538Y4253984D01*
X27692948Y4247720D01*
X27526948Y4103673D01*
X27519528Y4096042D01*
X27380174Y3926089D01*
X27374150Y3917322D01*
X27265424Y3726318D01*
X27260959Y3716654D01*
X27185969Y3510059D01*
X27183198Y3499792D01*
X27143877Y3282345D01*
X27142944Y3274116D01*
X27142732Y3269624D01*
X27146475Y3256876D01*
X27147865Y3255671D01*
X27155548Y3254000D01*
X28628000Y3254000D01*
X28696121Y3233998D01*
X28742614Y3180342D01*
X28754000Y3128000D01*
X28754000Y1533808D01*
X28757973Y1520277D01*
X28768580Y1518752D01*
X28886421Y1543477D01*
X28896617Y1546537D01*
X29101029Y1627263D01*
X29110561Y1631994D01*
X29298462Y1746016D01*
X29307052Y1752280D01*
X29473052Y1896327D01*
X29480470Y1903956D01*
X29506391Y1935569D01*
X29565051Y1975564D01*
X29636021Y1977496D01*
X29696770Y1940752D01*
X29710969Y1921983D01*
X29801522Y1775652D01*
X29926697Y1650695D01*
X29932927Y1646855D01*
X29932928Y1646854D01*
X30070976Y1561760D01*
X30077262Y1557885D01*
X30120701Y1543477D01*
X30238611Y1504368D01*
X30238613Y1504368D01*
X30245139Y1502203D01*
X30251975Y1501503D01*
X30251978Y1501502D01*
X30295031Y1497091D01*
X30349600Y1491500D01*
X31650400Y1491500D01*
X31653646Y1491837D01*
X31653650Y1491837D01*
X31749308Y1501762D01*
X31749312Y1501763D01*
X31756166Y1502474D01*
X31762702Y1504655D01*
X31762704Y1504655D01*
X31908390Y1553260D01*
X31923946Y1558450D01*
X32074348Y1651522D01*
X32199305Y1776697D01*
X32229732Y1826059D01*
X32288275Y1921032D01*
X32288276Y1921034D01*
X32292115Y1927262D01*
X32347797Y2095139D01*
X32358500Y2199600D01*
X32358500Y3766005D01*
X32378502Y3834126D01*
X32432158Y3880619D01*
X32491239Y3889774D01*
X32491337Y3891772D01*
X32495357Y3891575D01*
X32495374Y3891575D01*
X32496899Y3891500D01*
X32652846Y3891500D01*
X32810566Y3906548D01*
X33013534Y3966092D01*
X33073565Y3997010D01*
X33196249Y4060196D01*
X33196252Y4060198D01*
X33201580Y4062942D01*
X33367920Y4193604D01*
X33371852Y4198135D01*
X33371855Y4198138D01*
X33502621Y4348833D01*
X33506552Y4353363D01*
X33509552Y4358549D01*
X33509555Y4358553D01*
X33609467Y4531258D01*
X33612473Y4536454D01*
X33621401Y4562164D01*
X33662642Y4619954D01*
X33728580Y4646274D01*
X33798280Y4632766D01*
X33829524Y4609927D01*
X35860685Y2578766D01*
X35871552Y2566375D01*
X35891013Y2541013D01*
X35897563Y2535987D01*
X35922921Y2516529D01*
X35922937Y2516515D01*
X35955504Y2491526D01*
X36018124Y2443476D01*
X36166149Y2382162D01*
X36174336Y2381084D01*
X36174337Y2381084D01*
X36185542Y2379609D01*
X36216738Y2375502D01*
X36285115Y2366500D01*
X36285118Y2366500D01*
X36285126Y2366499D01*
X36316811Y2362328D01*
X36325000Y2361250D01*
X36356693Y2365422D01*
X36373136Y2366500D01*
X37885099Y2366500D01*
X37953220Y2346498D01*
X37999981Y2292250D01*
X38058688Y2161925D01*
X38187441Y1970681D01*
X38191120Y1966824D01*
X38191122Y1966822D01*
X38251094Y1903956D01*
X38346576Y1803865D01*
X38350854Y1800682D01*
X38390053Y1771517D01*
X38531542Y1666246D01*
X38536293Y1663830D01*
X38536297Y1663828D01*
X38599481Y1631704D01*
X38737051Y1561760D01*
X38742145Y1560178D01*
X38742148Y1560177D01*
X38920958Y1504655D01*
X38957227Y1493393D01*
X38962516Y1492692D01*
X39180489Y1463802D01*
X39180494Y1463802D01*
X39185774Y1463102D01*
X39191103Y1463302D01*
X39191105Y1463302D01*
X39308038Y1467692D01*
X39416158Y1471751D01*
X39438802Y1476502D01*
X39572979Y1504655D01*
X39641791Y1519093D01*
X39646750Y1521051D01*
X39646752Y1521052D01*
X39851256Y1601815D01*
X39851258Y1601816D01*
X39856221Y1603776D01*
X39861047Y1606704D01*
X40048757Y1720610D01*
X40048756Y1720610D01*
X40053317Y1723377D01*
X40064324Y1732928D01*
X40223412Y1870977D01*
X40223414Y1870979D01*
X40227445Y1874477D01*
X40256670Y1910120D01*
X40315329Y1950114D01*
X40386299Y1952046D01*
X40447048Y1915302D01*
X40461248Y1896532D01*
X40516206Y1807722D01*
X40551522Y1750652D01*
X40676697Y1625695D01*
X40682927Y1621855D01*
X40682928Y1621854D01*
X40820976Y1536760D01*
X40827262Y1532885D01*
X40872145Y1517998D01*
X40988611Y1479368D01*
X40988613Y1479368D01*
X40995139Y1477203D01*
X41001975Y1476503D01*
X41001978Y1476502D01*
X41037663Y1472846D01*
X41099600Y1466500D01*
X42400400Y1466500D01*
X42403646Y1466837D01*
X42403650Y1466837D01*
X42499308Y1476762D01*
X42499312Y1476763D01*
X42506166Y1477474D01*
X42512702Y1479655D01*
X42512704Y1479655D01*
X42644806Y1523728D01*
X42673946Y1533450D01*
X42824348Y1626522D01*
X42949305Y1751697D01*
X42953146Y1757928D01*
X43038275Y1896032D01*
X43038276Y1896034D01*
X43042115Y1902262D01*
X43097797Y2070139D01*
X43100359Y2095139D01*
X43105611Y2146402D01*
X43108500Y2174600D01*
X43108500Y3741005D01*
X43128502Y3809126D01*
X43182158Y3855619D01*
X43241239Y3864774D01*
X43241337Y3866772D01*
X43245357Y3866575D01*
X43245374Y3866575D01*
X43246899Y3866500D01*
X43402846Y3866500D01*
X43560566Y3881548D01*
X43763534Y3941092D01*
X43817222Y3968743D01*
X43946249Y4035196D01*
X43946252Y4035198D01*
X43951580Y4037942D01*
X44117920Y4168604D01*
X44121852Y4173135D01*
X44121855Y4173138D01*
X44252621Y4323833D01*
X44256552Y4328363D01*
X44259552Y4333549D01*
X44259555Y4333553D01*
X44359467Y4506258D01*
X44362473Y4511454D01*
X44431861Y4711271D01*
X44432722Y4717208D01*
X44461352Y4914664D01*
X44461352Y4914667D01*
X44462213Y4920604D01*
X44452433Y5131899D01*
X44402875Y5337534D01*
X44396961Y5350543D01*
X44348084Y5458041D01*
X44315326Y5530087D01*
X44192946Y5702611D01*
X44040150Y5848881D01*
X43862452Y5963620D01*
X43802354Y5987840D01*
X43671832Y6040442D01*
X43671829Y6040443D01*
X43666263Y6042686D01*
X43458663Y6083228D01*
X43453101Y6083500D01*
X43297154Y6083500D01*
X43139434Y6068452D01*
X42936466Y6008908D01*
X42931139Y6006164D01*
X42931138Y6006164D01*
X42753751Y5914804D01*
X42753748Y5914802D01*
X42748420Y5912058D01*
X42582080Y5781396D01*
X42578148Y5776865D01*
X42578145Y5776862D01*
X42481425Y5665402D01*
X42443448Y5621637D01*
X42440448Y5616451D01*
X42440445Y5616447D01*
X42381845Y5515152D01*
X42337527Y5438546D01*
X42268139Y5238729D01*
X42267278Y5232794D01*
X42267278Y5232792D01*
X42246684Y5090755D01*
X42237787Y5029396D01*
X42247567Y4818101D01*
X42248971Y4812276D01*
X42248971Y4812275D01*
X42290725Y4639021D01*
X42287240Y4568110D01*
X42245970Y4510340D01*
X42180020Y4484053D01*
X42168232Y4483500D01*
X41154239Y4483500D01*
X41086118Y4503502D01*
X41065144Y4520405D01*
X35689315Y9896234D01*
X35678448Y9908625D01*
X35664013Y9927437D01*
X35658987Y9933987D01*
X35627075Y9958474D01*
X35627072Y9958477D01*
X35544061Y10022174D01*
X35538429Y10026496D01*
X35538427Y10026497D01*
X35531876Y10031524D01*
X35383851Y10092838D01*
X35375664Y10093916D01*
X35375663Y10093916D01*
X35364458Y10095391D01*
X35333262Y10099498D01*
X35264885Y10108500D01*
X35264882Y10108500D01*
X35264874Y10108501D01*
X35233189Y10112672D01*
X35225000Y10113750D01*
X35193307Y10109578D01*
X35176864Y10108500D01*
X32644239Y10108500D01*
X32576118Y10128502D01*
X32555144Y10145405D01*
X32071946Y10628603D01*
X32037920Y10690915D01*
X32042985Y10761730D01*
X32085532Y10818566D01*
X32152052Y10843377D01*
X32172019Y10843219D01*
X32270000Y10834647D01*
X32491463Y10854022D01*
X32670798Y10902075D01*
X32700886Y10910137D01*
X32700888Y10910138D01*
X32706196Y10911560D01*
X32754291Y10933987D01*
X32902690Y11003186D01*
X32902695Y11003189D01*
X32907677Y11005512D01*
X33036037Y11095391D01*
X33085270Y11129864D01*
X33085273Y11129866D01*
X33089781Y11133023D01*
X33246977Y11290219D01*
X33334894Y11415777D01*
X33371331Y11467815D01*
X33371332Y11467817D01*
X33374488Y11472324D01*
X33376811Y11477306D01*
X33376814Y11477311D01*
X33425805Y11582373D01*
X33472723Y11635658D01*
X33541000Y11655119D01*
X33608960Y11634577D01*
X33654195Y11582373D01*
X33703186Y11477311D01*
X33703189Y11477306D01*
X33705512Y11472324D01*
X33708668Y11467817D01*
X33708669Y11467815D01*
X33745107Y11415777D01*
X33833023Y11290219D01*
X33990219Y11133023D01*
X33994727Y11129866D01*
X33994730Y11129864D01*
X34043963Y11095391D01*
X34172323Y11005512D01*
X34177305Y11003189D01*
X34177310Y11003186D01*
X34325709Y10933987D01*
X34373804Y10911560D01*
X34379112Y10910138D01*
X34379114Y10910137D01*
X34409202Y10902075D01*
X34588537Y10854022D01*
X34810000Y10834647D01*
X35031463Y10854022D01*
X35210798Y10902075D01*
X35240886Y10910137D01*
X35240888Y10910138D01*
X35246196Y10911560D01*
X35294291Y10933987D01*
X35442690Y11003186D01*
X35442695Y11003189D01*
X35447677Y11005512D01*
X35512959Y11051223D01*
X36655777Y11051223D01*
X36665074Y11039207D01*
X36708069Y11009102D01*
X36717555Y11003624D01*
X36908993Y10914355D01*
X36919285Y10910609D01*
X37123309Y10855941D01*
X37134104Y10854038D01*
X37344525Y10835628D01*
X37355475Y10835628D01*
X37565896Y10854038D01*
X37576691Y10855941D01*
X37780715Y10910609D01*
X37791007Y10914355D01*
X37982445Y11003624D01*
X37991931Y11009102D01*
X38035764Y11039793D01*
X38044139Y11050271D01*
X38037071Y11063719D01*
X37362812Y11737978D01*
X37348868Y11745592D01*
X37347035Y11745461D01*
X37340420Y11741210D01*
X36662207Y11062997D01*
X36655777Y11051223D01*
X35512959Y11051223D01*
X35576037Y11095391D01*
X35625270Y11129864D01*
X35625273Y11129866D01*
X35629781Y11133023D01*
X35786977Y11290219D01*
X35874894Y11415777D01*
X35911331Y11467815D01*
X35911332Y11467817D01*
X35914488Y11472324D01*
X35916811Y11477306D01*
X35916814Y11477311D01*
X35966081Y11582965D01*
X36012999Y11636250D01*
X36081276Y11655711D01*
X36149236Y11635169D01*
X36194471Y11582965D01*
X36243623Y11477559D01*
X36249103Y11468068D01*
X36279794Y11424235D01*
X36290271Y11415860D01*
X36303718Y11422928D01*
X36977978Y12097188D01*
X36985592Y12111132D01*
X36985461Y12112965D01*
X36981210Y12119580D01*
X36302997Y12797793D01*
X36291223Y12804223D01*
X36279207Y12794926D01*
X36249103Y12751932D01*
X36243623Y12742441D01*
X36194471Y12637035D01*
X36147553Y12583750D01*
X36079276Y12564289D01*
X36011316Y12584831D01*
X35966081Y12637035D01*
X35916814Y12742689D01*
X35916811Y12742694D01*
X35914488Y12747676D01*
X35911331Y12752185D01*
X35790136Y12925270D01*
X35790134Y12925273D01*
X35786977Y12929781D01*
X35629781Y13086977D01*
X35625273Y13090134D01*
X35625270Y13090136D01*
X35549505Y13143187D01*
X35511599Y13169729D01*
X36655860Y13169729D01*
X36662928Y13156282D01*
X37337188Y12482022D01*
X37351132Y12474408D01*
X37352965Y12474539D01*
X37359580Y12478790D01*
X38037793Y13157003D01*
X38044223Y13168777D01*
X38034926Y13180793D01*
X37991931Y13210898D01*
X37982445Y13216376D01*
X37791007Y13305645D01*
X37780715Y13309391D01*
X37576691Y13364059D01*
X37565896Y13365962D01*
X37355475Y13384372D01*
X37344525Y13384372D01*
X37134104Y13365962D01*
X37123309Y13364059D01*
X36919285Y13309391D01*
X36908993Y13305645D01*
X36717559Y13216377D01*
X36708068Y13210897D01*
X36664235Y13180206D01*
X36655860Y13169729D01*
X35511599Y13169729D01*
X35447677Y13214488D01*
X35442695Y13216811D01*
X35442690Y13216814D01*
X35251178Y13306117D01*
X35251177Y13306118D01*
X35246196Y13308440D01*
X35240888Y13309862D01*
X35240886Y13309863D01*
X35140781Y13336686D01*
X35031463Y13365978D01*
X34810000Y13385353D01*
X34588537Y13365978D01*
X34479219Y13336686D01*
X34379114Y13309863D01*
X34379112Y13309862D01*
X34373804Y13308440D01*
X34368823Y13306118D01*
X34368822Y13306117D01*
X34177311Y13216814D01*
X34177306Y13216811D01*
X34172324Y13214488D01*
X34167817Y13211332D01*
X34167815Y13211331D01*
X33994730Y13090136D01*
X33994727Y13090134D01*
X33990219Y13086977D01*
X33833023Y12929781D01*
X33829866Y12925273D01*
X33829864Y12925270D01*
X33708669Y12752185D01*
X33705512Y12747676D01*
X33703189Y12742694D01*
X33703186Y12742689D01*
X33654195Y12637627D01*
X33607277Y12584342D01*
X33539000Y12564881D01*
X33471040Y12585423D01*
X33425805Y12637627D01*
X33376814Y12742689D01*
X33376811Y12742694D01*
X33374488Y12747676D01*
X33371331Y12752185D01*
X33250136Y12925270D01*
X33250134Y12925273D01*
X33246977Y12929781D01*
X33089781Y13086977D01*
X33085273Y13090134D01*
X33085270Y13090136D01*
X33009505Y13143187D01*
X32907677Y13214488D01*
X32902695Y13216811D01*
X32902690Y13216814D01*
X32711178Y13306117D01*
X32711177Y13306118D01*
X32706196Y13308440D01*
X32700888Y13309862D01*
X32700886Y13309863D01*
X32600781Y13336686D01*
X32491463Y13365978D01*
X32270000Y13385353D01*
X32048537Y13365978D01*
X31939219Y13336686D01*
X31839114Y13309863D01*
X31839112Y13309862D01*
X31833804Y13308440D01*
X31828823Y13306118D01*
X31828822Y13306117D01*
X31637311Y13216814D01*
X31637306Y13216811D01*
X31632324Y13214488D01*
X31627817Y13211332D01*
X31627815Y13211331D01*
X31454730Y13090136D01*
X31454727Y13090134D01*
X31450219Y13086977D01*
X31293023Y12929781D01*
X31289866Y12925273D01*
X31289864Y12925270D01*
X31168669Y12752185D01*
X31165512Y12747676D01*
X31163189Y12742694D01*
X31163186Y12742689D01*
X31114195Y12637627D01*
X31067277Y12584342D01*
X30999000Y12564881D01*
X30931040Y12585423D01*
X30885805Y12637627D01*
X30836814Y12742689D01*
X30836811Y12742694D01*
X30834488Y12747676D01*
X30831331Y12752185D01*
X30710136Y12925270D01*
X30710134Y12925273D01*
X30706977Y12929781D01*
X30549781Y13086977D01*
X30545273Y13090134D01*
X30545270Y13090136D01*
X30469505Y13143187D01*
X30367677Y13214488D01*
X30362695Y13216811D01*
X30362690Y13216814D01*
X30171178Y13306117D01*
X30171177Y13306118D01*
X30166196Y13308440D01*
X30160888Y13309862D01*
X30160886Y13309863D01*
X30060781Y13336686D01*
X29951463Y13365978D01*
X29730000Y13385353D01*
X29508537Y13365978D01*
X29399219Y13336686D01*
X29299114Y13309863D01*
X29299112Y13309862D01*
X29293804Y13308440D01*
X29288823Y13306118D01*
X29288822Y13306117D01*
X29097311Y13216814D01*
X29097306Y13216811D01*
X29092324Y13214488D01*
X29087817Y13211332D01*
X29087815Y13211331D01*
X28914730Y13090136D01*
X28914727Y13090134D01*
X28910219Y13086977D01*
X28753023Y12929781D01*
X28749866Y12925273D01*
X28749864Y12925270D01*
X28628669Y12752185D01*
X28625512Y12747676D01*
X28623189Y12742694D01*
X28623186Y12742689D01*
X28574195Y12637627D01*
X28527277Y12584342D01*
X28459000Y12564881D01*
X28391040Y12585423D01*
X28345805Y12637627D01*
X28296814Y12742689D01*
X28296811Y12742694D01*
X28294488Y12747676D01*
X28291331Y12752185D01*
X28170136Y12925270D01*
X28170134Y12925273D01*
X28166977Y12929781D01*
X28009781Y13086977D01*
X28005273Y13090134D01*
X28005270Y13090136D01*
X27929505Y13143187D01*
X27827677Y13214488D01*
X27822695Y13216811D01*
X27822690Y13216814D01*
X27631178Y13306117D01*
X27631177Y13306118D01*
X27626196Y13308440D01*
X27620888Y13309862D01*
X27620886Y13309863D01*
X27520781Y13336686D01*
X27411463Y13365978D01*
X27190000Y13385353D01*
X26968537Y13365978D01*
X26859219Y13336686D01*
X26759114Y13309863D01*
X26759112Y13309862D01*
X26753804Y13308440D01*
X26748823Y13306118D01*
X26748822Y13306117D01*
X26557311Y13216814D01*
X26557306Y13216811D01*
X26552324Y13214488D01*
X26547817Y13211332D01*
X26547815Y13211331D01*
X26374730Y13090136D01*
X26374727Y13090134D01*
X26370219Y13086977D01*
X26213023Y12929781D01*
X26209866Y12925273D01*
X26209864Y12925270D01*
X26088669Y12752185D01*
X26085512Y12747676D01*
X26083189Y12742694D01*
X26083186Y12742689D01*
X26033919Y12637035D01*
X25987001Y12583750D01*
X25918724Y12564289D01*
X25850764Y12584831D01*
X25805529Y12637035D01*
X25756377Y12742441D01*
X25750897Y12751932D01*
X25720206Y12795765D01*
X25709729Y12804140D01*
X25696282Y12797072D01*
X25022022Y12122812D01*
X25014408Y12108868D01*
X25014539Y12107035D01*
X25018790Y12100420D01*
X25697003Y11422207D01*
X25708777Y11415777D01*
X25720793Y11425074D01*
X25750897Y11468068D01*
X25756377Y11477559D01*
X25805529Y11582965D01*
X25852447Y11636250D01*
X25920724Y11655711D01*
X25988684Y11635169D01*
X26033919Y11582965D01*
X26083186Y11477311D01*
X26083189Y11477306D01*
X26085512Y11472324D01*
X26088668Y11467817D01*
X26088669Y11467815D01*
X26125107Y11415777D01*
X26213023Y11290219D01*
X26370219Y11133023D01*
X26374727Y11129866D01*
X26374730Y11129864D01*
X26423963Y11095391D01*
X26552323Y11005512D01*
X26557305Y11003189D01*
X26557310Y11003186D01*
X26705709Y10933987D01*
X26753804Y10911560D01*
X26759112Y10910138D01*
X26759114Y10910137D01*
X26789202Y10902075D01*
X26968537Y10854022D01*
X27190000Y10834647D01*
X27411463Y10854022D01*
X27478399Y10871958D01*
X27549376Y10870268D01*
X27600105Y10839346D01*
X32209000Y6230451D01*
X32243026Y6168139D01*
X32237961Y6097324D01*
X32195414Y6040488D01*
X32177599Y6029341D01*
X32132598Y6006164D01*
X32003751Y5939804D01*
X32003748Y5939802D01*
X31998420Y5937058D01*
X31832080Y5806396D01*
X31828148Y5801865D01*
X31828145Y5801862D01*
X31760264Y5723636D01*
X31693448Y5646637D01*
X31690448Y5641451D01*
X31690445Y5641447D01*
X31611559Y5505087D01*
X31587527Y5463546D01*
X31518139Y5263729D01*
X31517278Y5257794D01*
X31517278Y5257792D01*
X31495400Y5106899D01*
X31487787Y5054396D01*
X31497567Y4843101D01*
X31498971Y4837276D01*
X31498971Y4837275D01*
X31540725Y4664021D01*
X31537240Y4593110D01*
X31495970Y4535340D01*
X31430020Y4509053D01*
X31418232Y4508500D01*
X30404239Y4508500D01*
X30336118Y4528502D01*
X30315144Y4545405D01*
X24183861Y10676688D01*
X24149835Y10739000D01*
X24154900Y10809815D01*
X24197447Y10866651D01*
X24263967Y10891462D01*
X24305567Y10887490D01*
X24423309Y10855941D01*
X24434104Y10854038D01*
X24644525Y10835628D01*
X24655475Y10835628D01*
X24865896Y10854038D01*
X24876691Y10855941D01*
X25080715Y10910609D01*
X25091007Y10914355D01*
X25282445Y11003624D01*
X25291931Y11009102D01*
X25335764Y11039793D01*
X25344139Y11050271D01*
X25337071Y11063719D01*
X23602997Y12797793D01*
X23591223Y12804223D01*
X23579207Y12794926D01*
X23549103Y12751932D01*
X23543623Y12742441D01*
X23494471Y12637035D01*
X23447553Y12583750D01*
X23379276Y12564289D01*
X23311316Y12584831D01*
X23266081Y12637035D01*
X23216814Y12742689D01*
X23216811Y12742694D01*
X23214488Y12747676D01*
X23211331Y12752185D01*
X23090136Y12925270D01*
X23090134Y12925273D01*
X23086977Y12929781D01*
X22929781Y13086977D01*
X22925273Y13090134D01*
X22925270Y13090136D01*
X22849505Y13143187D01*
X22811599Y13169729D01*
X23955860Y13169729D01*
X23962928Y13156282D01*
X24637188Y12482022D01*
X24651132Y12474408D01*
X24652965Y12474539D01*
X24659580Y12478790D01*
X25337793Y13157003D01*
X25344223Y13168777D01*
X25334926Y13180793D01*
X25291931Y13210898D01*
X25282445Y13216376D01*
X25091007Y13305645D01*
X25080715Y13309391D01*
X24876691Y13364059D01*
X24865896Y13365962D01*
X24655475Y13384372D01*
X24644525Y13384372D01*
X24434104Y13365962D01*
X24423309Y13364059D01*
X24219285Y13309391D01*
X24208993Y13305645D01*
X24017559Y13216377D01*
X24008068Y13210897D01*
X23964235Y13180206D01*
X23955860Y13169729D01*
X22811599Y13169729D01*
X22747677Y13214488D01*
X22742695Y13216811D01*
X22742690Y13216814D01*
X22551178Y13306117D01*
X22551177Y13306118D01*
X22546196Y13308440D01*
X22540888Y13309862D01*
X22540886Y13309863D01*
X22440781Y13336686D01*
X22331463Y13365978D01*
X22110000Y13385353D01*
X21888537Y13365978D01*
X21779219Y13336686D01*
X21679114Y13309863D01*
X21679112Y13309862D01*
X21673804Y13308440D01*
X21668823Y13306118D01*
X21668822Y13306117D01*
X21477311Y13216814D01*
X21477306Y13216811D01*
X21472324Y13214488D01*
X21467817Y13211332D01*
X21467815Y13211331D01*
X21294730Y13090136D01*
X21294727Y13090134D01*
X21290219Y13086977D01*
X21133023Y12929781D01*
X21129866Y12925273D01*
X21129864Y12925270D01*
X21008669Y12752185D01*
X21005512Y12747676D01*
X21003189Y12742694D01*
X21003186Y12742689D01*
X20954195Y12637627D01*
X20907277Y12584342D01*
X20839000Y12564881D01*
X20771040Y12585423D01*
X20725805Y12637627D01*
X20676814Y12742689D01*
X20676811Y12742694D01*
X20674488Y12747676D01*
X20671331Y12752185D01*
X20550136Y12925270D01*
X20550134Y12925273D01*
X20546977Y12929781D01*
X20389781Y13086977D01*
X20385273Y13090134D01*
X20385270Y13090136D01*
X20309505Y13143187D01*
X20207677Y13214488D01*
X20202695Y13216811D01*
X20202690Y13216814D01*
X20011178Y13306117D01*
X20011177Y13306118D01*
X20006196Y13308440D01*
X20000888Y13309862D01*
X20000886Y13309863D01*
X19900781Y13336686D01*
X19791463Y13365978D01*
X19570000Y13385353D01*
X19348537Y13365978D01*
X19239219Y13336686D01*
X19139114Y13309863D01*
X19139112Y13309862D01*
X19133804Y13308440D01*
X19128823Y13306118D01*
X19128822Y13306117D01*
X18937311Y13216814D01*
X18937306Y13216811D01*
X18932324Y13214488D01*
X18927817Y13211332D01*
X18927815Y13211331D01*
X18754730Y13090136D01*
X18754727Y13090134D01*
X18750219Y13086977D01*
X18593023Y12929781D01*
X18589866Y12925273D01*
X18589864Y12925270D01*
X18468669Y12752185D01*
X18465512Y12747676D01*
X18463189Y12742694D01*
X18463186Y12742689D01*
X18414195Y12637627D01*
X18367277Y12584342D01*
X18299000Y12564881D01*
X18231040Y12585423D01*
X18185805Y12637627D01*
X18136814Y12742689D01*
X18136811Y12742694D01*
X18134488Y12747676D01*
X18131331Y12752185D01*
X18010136Y12925270D01*
X18010134Y12925273D01*
X18006977Y12929781D01*
X17849781Y13086977D01*
X17845273Y13090134D01*
X17845270Y13090136D01*
X17769505Y13143187D01*
X17667677Y13214488D01*
X17662695Y13216811D01*
X17662690Y13216814D01*
X17471178Y13306117D01*
X17471177Y13306118D01*
X17466196Y13308440D01*
X17460888Y13309862D01*
X17460886Y13309863D01*
X17360781Y13336686D01*
X17251463Y13365978D01*
X17030000Y13385353D01*
X16808537Y13365978D01*
X16699219Y13336686D01*
X16599114Y13309863D01*
X16599112Y13309862D01*
X16593804Y13308440D01*
X16588823Y13306118D01*
X16588822Y13306117D01*
X16397311Y13216814D01*
X16397306Y13216811D01*
X16392324Y13214488D01*
X16387817Y13211332D01*
X16387815Y13211331D01*
X16214730Y13090136D01*
X16214727Y13090134D01*
X16210219Y13086977D01*
X16053023Y12929781D01*
X16049866Y12925273D01*
X16049864Y12925270D01*
X15928669Y12752185D01*
X15925512Y12747676D01*
X15923189Y12742694D01*
X15923186Y12742689D01*
X15874195Y12637627D01*
X15827277Y12584342D01*
X15759000Y12564881D01*
X15691040Y12585423D01*
X15645805Y12637627D01*
X15596814Y12742689D01*
X15596811Y12742694D01*
X15594488Y12747676D01*
X15591331Y12752185D01*
X15470136Y12925270D01*
X15470134Y12925273D01*
X15466977Y12929781D01*
X15309781Y13086977D01*
X15305273Y13090134D01*
X15305270Y13090136D01*
X15229505Y13143187D01*
X15127677Y13214488D01*
X15122695Y13216811D01*
X15122690Y13216814D01*
X14931178Y13306117D01*
X14931177Y13306118D01*
X14926196Y13308440D01*
X14920888Y13309862D01*
X14920886Y13309863D01*
X14820781Y13336686D01*
X14711463Y13365978D01*
X14490000Y13385353D01*
X14268537Y13365978D01*
X14159219Y13336686D01*
X14059114Y13309863D01*
X14059112Y13309862D01*
X14053804Y13308440D01*
X14048823Y13306118D01*
X14048822Y13306117D01*
X13857311Y13216814D01*
X13857306Y13216811D01*
X13852324Y13214488D01*
X13847817Y13211332D01*
X13847815Y13211331D01*
X13674730Y13090136D01*
X13674727Y13090134D01*
X13670219Y13086977D01*
X13513023Y12929781D01*
X13509866Y12925273D01*
X13509864Y12925270D01*
X13388669Y12752185D01*
X13385512Y12747676D01*
X13383189Y12742694D01*
X13383186Y12742689D01*
X13333919Y12637035D01*
X13287001Y12583750D01*
X13218724Y12564289D01*
X13150764Y12584831D01*
X13105529Y12637035D01*
X13056377Y12742441D01*
X13050897Y12751932D01*
X13020206Y12795765D01*
X13009729Y12804140D01*
X12996282Y12797072D01*
X12322022Y12122812D01*
X12314408Y12108868D01*
X12314539Y12107035D01*
X12318790Y12100420D01*
X12997003Y11422207D01*
X13008777Y11415777D01*
X13020793Y11425074D01*
X13050897Y11468068D01*
X13056377Y11477559D01*
X13105529Y11582965D01*
X13152447Y11636250D01*
X13220724Y11655711D01*
X13288684Y11635169D01*
X13333919Y11582965D01*
X13383186Y11477311D01*
X13383189Y11477306D01*
X13385512Y11472324D01*
X13388668Y11467817D01*
X13388669Y11467815D01*
X13425107Y11415777D01*
X13513023Y11290219D01*
X13670219Y11133023D01*
X13674727Y11129866D01*
X13674730Y11129864D01*
X13723963Y11095391D01*
X13852323Y11005512D01*
X13857305Y11003189D01*
X13857310Y11003186D01*
X14005709Y10933987D01*
X14053804Y10911560D01*
X14059112Y10910138D01*
X14059114Y10910137D01*
X14089202Y10902075D01*
X14268537Y10854022D01*
X14490000Y10834647D01*
X14711463Y10854022D01*
X14778399Y10871958D01*
X14849376Y10870268D01*
X14900105Y10839346D01*
X17095754Y8643697D01*
X17129780Y8581385D01*
X17124715Y8510570D01*
X17082168Y8453734D01*
X17015648Y8428923D01*
X17005120Y8428611D01*
X16910081Y8429772D01*
X16910079Y8429772D01*
X16904911Y8429835D01*
X16757627Y8407297D01*
X16689200Y8396827D01*
X16689197Y8396826D01*
X16684091Y8396045D01*
X16679176Y8394438D01*
X16679174Y8394438D01*
X16644890Y8383232D01*
X16573927Y8381079D01*
X16516648Y8413901D01*
X14534315Y10396234D01*
X14523448Y10408625D01*
X14509013Y10427437D01*
X14503987Y10433987D01*
X14472075Y10458474D01*
X14472072Y10458477D01*
X14376876Y10531524D01*
X14228851Y10592838D01*
X14220664Y10593916D01*
X14220663Y10593916D01*
X14209458Y10595391D01*
X14178262Y10599498D01*
X14109885Y10608500D01*
X14109882Y10608500D01*
X14109874Y10608501D01*
X14078189Y10612672D01*
X14070000Y10613750D01*
X14038307Y10609578D01*
X14021864Y10608500D01*
X12210294Y10608500D01*
X12142173Y10628502D01*
X12095680Y10682158D01*
X12085576Y10752432D01*
X12115070Y10817012D01*
X12177683Y10856207D01*
X12380715Y10910609D01*
X12391007Y10914355D01*
X12582445Y11003624D01*
X12591931Y11009102D01*
X12635764Y11039793D01*
X12644139Y11050271D01*
X12637071Y11063719D01*
X10902997Y12797793D01*
X10891223Y12804223D01*
X10879207Y12794926D01*
X10849103Y12751932D01*
X10843623Y12742441D01*
X10794471Y12637035D01*
X10747553Y12583750D01*
X10679276Y12564289D01*
X10611316Y12584831D01*
X10566081Y12637035D01*
X10516814Y12742689D01*
X10516811Y12742694D01*
X10514488Y12747676D01*
X10511331Y12752185D01*
X10390136Y12925270D01*
X10390134Y12925273D01*
X10386977Y12929781D01*
X10229781Y13086977D01*
X10225273Y13090134D01*
X10225270Y13090136D01*
X10149505Y13143187D01*
X10111599Y13169729D01*
X11255860Y13169729D01*
X11262928Y13156282D01*
X11937188Y12482022D01*
X11951132Y12474408D01*
X11952965Y12474539D01*
X11959580Y12478790D01*
X12637793Y13157003D01*
X12644223Y13168777D01*
X12634926Y13180793D01*
X12591931Y13210898D01*
X12582445Y13216376D01*
X12391007Y13305645D01*
X12380715Y13309391D01*
X12176691Y13364059D01*
X12165896Y13365962D01*
X11955475Y13384372D01*
X11944525Y13384372D01*
X11734104Y13365962D01*
X11723309Y13364059D01*
X11519285Y13309391D01*
X11508993Y13305645D01*
X11317559Y13216377D01*
X11308068Y13210897D01*
X11264235Y13180206D01*
X11255860Y13169729D01*
X10111599Y13169729D01*
X10047677Y13214488D01*
X10042695Y13216811D01*
X10042690Y13216814D01*
X9851178Y13306117D01*
X9851177Y13306118D01*
X9846196Y13308440D01*
X9840888Y13309862D01*
X9840886Y13309863D01*
X9740781Y13336686D01*
X9631463Y13365978D01*
X9410000Y13385353D01*
X9188537Y13365978D01*
X9079219Y13336686D01*
X8979114Y13309863D01*
X8979112Y13309862D01*
X8973804Y13308440D01*
X8968823Y13306118D01*
X8968822Y13306117D01*
X8777311Y13216814D01*
X8777306Y13216811D01*
X8772324Y13214488D01*
X8767817Y13211332D01*
X8767815Y13211331D01*
X8594730Y13090136D01*
X8594727Y13090134D01*
X8590219Y13086977D01*
X8433023Y12929781D01*
X8429866Y12925273D01*
X8429864Y12925270D01*
X8308669Y12752185D01*
X8305512Y12747676D01*
X8303189Y12742694D01*
X8303186Y12742689D01*
X8254195Y12637627D01*
X8207277Y12584342D01*
X8139000Y12564881D01*
X8071040Y12585423D01*
X8025805Y12637627D01*
X7976814Y12742689D01*
X7976811Y12742694D01*
X7974488Y12747676D01*
X7971331Y12752185D01*
X7850136Y12925270D01*
X7850134Y12925273D01*
X7846977Y12929781D01*
X7689781Y13086977D01*
X7685273Y13090134D01*
X7685270Y13090136D01*
X7609505Y13143187D01*
X7507677Y13214488D01*
X7502695Y13216811D01*
X7502690Y13216814D01*
X7311178Y13306117D01*
X7311177Y13306118D01*
X7306196Y13308440D01*
X7300888Y13309862D01*
X7300886Y13309863D01*
X7200781Y13336686D01*
X7091463Y13365978D01*
X6870000Y13385353D01*
X6648537Y13365978D01*
X6539219Y13336686D01*
X6439114Y13309863D01*
X6439112Y13309862D01*
X6433804Y13308440D01*
X6428823Y13306118D01*
X6428822Y13306117D01*
X6237311Y13216814D01*
X6237306Y13216811D01*
X6232324Y13214488D01*
X6227817Y13211332D01*
X6227815Y13211331D01*
X6054730Y13090136D01*
X6054727Y13090134D01*
X6050219Y13086977D01*
X5893023Y12929781D01*
X5889866Y12925273D01*
X5889864Y12925270D01*
X5768669Y12752185D01*
X5765512Y12747676D01*
X5763189Y12742694D01*
X5763186Y12742689D01*
X5714195Y12637627D01*
X5671560Y12546196D01*
X5614022Y12331463D01*
X5594647Y12110000D01*
X508500Y12110000D01*
X508500Y25500000D01*
X35586496Y25500000D01*
X35587186Y25493435D01*
X35601730Y25355060D01*
X35606458Y25310072D01*
X35665473Y25128444D01*
X35668776Y25122722D01*
X35668777Y25122721D01*
X35691028Y25084181D01*
X35760960Y24963056D01*
X35834137Y24881785D01*
X35864853Y24817779D01*
X35866500Y24797476D01*
X35866500Y19578767D01*
X35865973Y19567584D01*
X35864298Y19560091D01*
X35864547Y19552165D01*
X35864547Y19552164D01*
X35866438Y19492014D01*
X35866500Y19488055D01*
X35866500Y19460144D01*
X35866997Y19456210D01*
X35866997Y19456209D01*
X35867005Y19456144D01*
X35867938Y19444307D01*
X35869327Y19400111D01*
X35874978Y19380661D01*
X35878987Y19361300D01*
X35881526Y19341203D01*
X35884445Y19333832D01*
X35884445Y19333830D01*
X35897804Y19300088D01*
X35901649Y19288858D01*
X35913982Y19246407D01*
X35918015Y19239588D01*
X35918017Y19239583D01*
X35924293Y19228972D01*
X35932988Y19211224D01*
X35940448Y19192383D01*
X35945110Y19185967D01*
X35945110Y19185966D01*
X35966436Y19156613D01*
X35972952Y19146693D01*
X35995458Y19108638D01*
X36009779Y19094317D01*
X36022619Y19079284D01*
X36034528Y19062893D01*
X36040634Y19057842D01*
X36068605Y19034702D01*
X36077384Y19026712D01*
X40996348Y14107747D01*
X41003888Y14099461D01*
X41008000Y14092982D01*
X41013777Y14087557D01*
X41057651Y14046357D01*
X41060493Y14043602D01*
X41080230Y14023865D01*
X41083427Y14021385D01*
X41092447Y14013682D01*
X41124679Y13983414D01*
X41131625Y13979595D01*
X41131628Y13979593D01*
X41142434Y13973652D01*
X41158953Y13962801D01*
X41174959Y13950386D01*
X41182228Y13947241D01*
X41182232Y13947238D01*
X41215537Y13932826D01*
X41226187Y13927609D01*
X41264940Y13906305D01*
X41272615Y13904334D01*
X41272616Y13904334D01*
X41284562Y13901267D01*
X41303267Y13894863D01*
X41321855Y13886819D01*
X41329678Y13885580D01*
X41329688Y13885577D01*
X41365524Y13879901D01*
X41377144Y13877495D01*
X41412289Y13868472D01*
X41419970Y13866500D01*
X41440224Y13866500D01*
X41459934Y13864949D01*
X41479943Y13861780D01*
X41487835Y13862526D01*
X41523961Y13865941D01*
X41535819Y13866500D01*
X42265406Y13866500D01*
X42333527Y13846498D01*
X42354501Y13829595D01*
X42589309Y13594787D01*
X42623335Y13532475D01*
X42618270Y13461660D01*
X42575723Y13404824D01*
X42509203Y13380013D01*
X42489233Y13380171D01*
X42435475Y13384874D01*
X42430000Y13385353D01*
X42208537Y13365978D01*
X42099219Y13336686D01*
X41999114Y13309863D01*
X41999112Y13309862D01*
X41993804Y13308440D01*
X41988823Y13306118D01*
X41988822Y13306117D01*
X41797311Y13216814D01*
X41797306Y13216811D01*
X41792324Y13214488D01*
X41787817Y13211332D01*
X41787815Y13211331D01*
X41614730Y13090136D01*
X41614727Y13090134D01*
X41610219Y13086977D01*
X41453023Y12929781D01*
X41449866Y12925273D01*
X41449864Y12925270D01*
X41328669Y12752185D01*
X41325512Y12747676D01*
X41323189Y12742694D01*
X41323186Y12742689D01*
X41274195Y12637627D01*
X41227277Y12584342D01*
X41159000Y12564881D01*
X41091040Y12585423D01*
X41045805Y12637627D01*
X40996814Y12742689D01*
X40996811Y12742694D01*
X40994488Y12747676D01*
X40991331Y12752185D01*
X40870136Y12925270D01*
X40870134Y12925273D01*
X40866977Y12929781D01*
X40709781Y13086977D01*
X40705273Y13090134D01*
X40705270Y13090136D01*
X40629505Y13143187D01*
X40527677Y13214488D01*
X40522695Y13216811D01*
X40522690Y13216814D01*
X40331178Y13306117D01*
X40331177Y13306118D01*
X40326196Y13308440D01*
X40320888Y13309862D01*
X40320886Y13309863D01*
X40220781Y13336686D01*
X40111463Y13365978D01*
X39890000Y13385353D01*
X39668537Y13365978D01*
X39559219Y13336686D01*
X39459114Y13309863D01*
X39459112Y13309862D01*
X39453804Y13308440D01*
X39448823Y13306118D01*
X39448822Y13306117D01*
X39257311Y13216814D01*
X39257306Y13216811D01*
X39252324Y13214488D01*
X39247817Y13211332D01*
X39247815Y13211331D01*
X39074730Y13090136D01*
X39074727Y13090134D01*
X39070219Y13086977D01*
X38913023Y12929781D01*
X38909866Y12925273D01*
X38909864Y12925270D01*
X38788669Y12752185D01*
X38785512Y12747676D01*
X38783189Y12742694D01*
X38783186Y12742689D01*
X38733919Y12637035D01*
X38687001Y12583750D01*
X38618724Y12564289D01*
X38550764Y12584831D01*
X38505529Y12637035D01*
X38456377Y12742441D01*
X38450897Y12751932D01*
X38420206Y12795765D01*
X38409729Y12804140D01*
X38396282Y12797072D01*
X37722022Y12122812D01*
X37714408Y12108868D01*
X37714539Y12107035D01*
X37718790Y12100420D01*
X38397003Y11422207D01*
X38408777Y11415777D01*
X38420793Y11425074D01*
X38450897Y11468068D01*
X38456377Y11477559D01*
X38505529Y11582965D01*
X38552447Y11636250D01*
X38620724Y11655711D01*
X38688684Y11635169D01*
X38733919Y11582965D01*
X38783186Y11477311D01*
X38783189Y11477306D01*
X38785512Y11472324D01*
X38788668Y11467817D01*
X38788669Y11467815D01*
X38825107Y11415777D01*
X38913023Y11290219D01*
X39070219Y11133023D01*
X39074727Y11129866D01*
X39074730Y11129864D01*
X39123963Y11095391D01*
X39252323Y11005512D01*
X39257305Y11003189D01*
X39257310Y11003186D01*
X39405709Y10933987D01*
X39453804Y10911560D01*
X39459112Y10910138D01*
X39459114Y10910137D01*
X39489202Y10902075D01*
X39668537Y10854022D01*
X39890000Y10834647D01*
X40111463Y10854022D01*
X40178399Y10871958D01*
X40249376Y10870268D01*
X40300105Y10839346D01*
X48585685Y2553766D01*
X48596552Y2541375D01*
X48616013Y2516013D01*
X48622563Y2510987D01*
X48647925Y2491526D01*
X48647928Y2491523D01*
X48714662Y2440316D01*
X48743124Y2418476D01*
X48804438Y2393079D01*
X48883520Y2360322D01*
X48883523Y2360321D01*
X48891150Y2357162D01*
X48899337Y2356084D01*
X48907314Y2353947D01*
X48906596Y2351269D01*
X48959098Y2328052D01*
X48992620Y2283591D01*
X49015196Y2233475D01*
X49058688Y2136925D01*
X49187441Y1945681D01*
X49191120Y1941824D01*
X49191122Y1941822D01*
X49251428Y1878606D01*
X49346576Y1778865D01*
X49350854Y1775682D01*
X49391448Y1745479D01*
X49531542Y1641246D01*
X49536293Y1638830D01*
X49536297Y1638828D01*
X49568082Y1622668D01*
X49737051Y1536760D01*
X49742145Y1535178D01*
X49742148Y1535177D01*
X49882811Y1491500D01*
X49957227Y1468393D01*
X49962516Y1467692D01*
X50180489Y1438802D01*
X50180494Y1438802D01*
X50185774Y1438102D01*
X50191103Y1438302D01*
X50191105Y1438302D01*
X50300966Y1442427D01*
X50416158Y1446751D01*
X50438802Y1451502D01*
X50636572Y1492998D01*
X50641791Y1494093D01*
X50646750Y1496051D01*
X50646752Y1496052D01*
X50851256Y1576815D01*
X50851258Y1576816D01*
X50856221Y1578776D01*
X50865930Y1584667D01*
X51038284Y1689255D01*
X51053317Y1698377D01*
X51075798Y1717885D01*
X51223412Y1845977D01*
X51223414Y1845979D01*
X51227445Y1849477D01*
X51256670Y1885120D01*
X51315329Y1925114D01*
X51386299Y1927046D01*
X51447048Y1890302D01*
X51461248Y1871532D01*
X51472341Y1853606D01*
X51551522Y1725652D01*
X51676697Y1600695D01*
X51682927Y1596855D01*
X51682928Y1596854D01*
X51820090Y1512306D01*
X51827262Y1507885D01*
X51872145Y1492998D01*
X51988611Y1454368D01*
X51988613Y1454368D01*
X51995139Y1452203D01*
X52001975Y1451503D01*
X52001978Y1451502D01*
X52037663Y1447846D01*
X52099600Y1441500D01*
X53400400Y1441500D01*
X53403646Y1441837D01*
X53403650Y1441837D01*
X53499308Y1451762D01*
X53499312Y1451763D01*
X53506166Y1452474D01*
X53512702Y1454655D01*
X53512704Y1454655D01*
X53653900Y1501762D01*
X53673946Y1508450D01*
X53824348Y1601522D01*
X53949305Y1726697D01*
X53953267Y1733124D01*
X54038275Y1871032D01*
X54038276Y1871034D01*
X54042115Y1877262D01*
X54082966Y2000425D01*
X54095632Y2038611D01*
X54095632Y2038613D01*
X54097797Y2045139D01*
X54098578Y2052755D01*
X54107201Y2136925D01*
X54108500Y2149600D01*
X54108500Y3716005D01*
X54128502Y3784126D01*
X54182158Y3830619D01*
X54241239Y3839774D01*
X54241337Y3841772D01*
X54245357Y3841575D01*
X54245374Y3841575D01*
X54246899Y3841500D01*
X54402846Y3841500D01*
X54560566Y3856548D01*
X54763534Y3916092D01*
X54772697Y3920811D01*
X54946249Y4010196D01*
X54946252Y4010198D01*
X54951580Y4012942D01*
X55117920Y4143604D01*
X55121852Y4148135D01*
X55121855Y4148138D01*
X55252621Y4298833D01*
X55256552Y4303363D01*
X55259552Y4308549D01*
X55259555Y4308553D01*
X55359467Y4481258D01*
X55362473Y4486454D01*
X55431861Y4686271D01*
X55441484Y4752639D01*
X55461352Y4889664D01*
X55461352Y4889667D01*
X55462213Y4895604D01*
X55452433Y5106899D01*
X55402875Y5312534D01*
X55394161Y5331701D01*
X55348084Y5433041D01*
X55315326Y5505087D01*
X55201616Y5665388D01*
X55196412Y5672725D01*
X55196411Y5672726D01*
X55192946Y5677611D01*
X55040150Y5823881D01*
X54862452Y5938620D01*
X54794853Y5965863D01*
X54671832Y6015442D01*
X54671829Y6015443D01*
X54666263Y6017686D01*
X54458663Y6058228D01*
X54453101Y6058500D01*
X54297154Y6058500D01*
X54139434Y6043452D01*
X53936466Y5983908D01*
X53931139Y5981164D01*
X53931138Y5981164D01*
X53753751Y5889804D01*
X53753748Y5889802D01*
X53748420Y5887058D01*
X53582080Y5756396D01*
X53578148Y5751865D01*
X53578145Y5751862D01*
X53503119Y5665402D01*
X53443448Y5596637D01*
X53440448Y5591451D01*
X53440445Y5591447D01*
X53394129Y5511386D01*
X53337527Y5413546D01*
X53268139Y5213729D01*
X53267278Y5207794D01*
X53267278Y5207792D01*
X53241429Y5029511D01*
X53237787Y5004396D01*
X53247567Y4793101D01*
X53248971Y4787276D01*
X53248971Y4787275D01*
X53290725Y4614021D01*
X53287240Y4543110D01*
X53245970Y4485340D01*
X53180020Y4459053D01*
X53168232Y4458500D01*
X52954239Y4458500D01*
X52886118Y4478502D01*
X52865144Y4495405D01*
X47464315Y9896234D01*
X47453448Y9908625D01*
X47439013Y9927437D01*
X47433987Y9933987D01*
X47402075Y9958474D01*
X47402072Y9958477D01*
X47319061Y10022174D01*
X47313429Y10026496D01*
X47313427Y10026497D01*
X47306876Y10031524D01*
X47158851Y10092838D01*
X47150664Y10093916D01*
X47150663Y10093916D01*
X47139458Y10095391D01*
X47108262Y10099498D01*
X47039885Y10108500D01*
X47039882Y10108500D01*
X47039874Y10108501D01*
X47008189Y10112672D01*
X47000000Y10113750D01*
X46968307Y10109578D01*
X46951864Y10108500D01*
X45344239Y10108500D01*
X45276118Y10128502D01*
X45255144Y10145405D01*
X44771946Y10628603D01*
X44737920Y10690915D01*
X44742985Y10761730D01*
X44785532Y10818566D01*
X44852052Y10843377D01*
X44872019Y10843219D01*
X44970000Y10834647D01*
X45191463Y10854022D01*
X45370798Y10902075D01*
X45400886Y10910137D01*
X45400888Y10910138D01*
X45406196Y10911560D01*
X45454291Y10933987D01*
X45602690Y11003186D01*
X45602695Y11003189D01*
X45607677Y11005512D01*
X45736037Y11095391D01*
X45785270Y11129864D01*
X45785273Y11129866D01*
X45789781Y11133023D01*
X45946977Y11290219D01*
X46034894Y11415777D01*
X46071331Y11467815D01*
X46071332Y11467817D01*
X46074488Y11472324D01*
X46076811Y11477306D01*
X46076814Y11477311D01*
X46125805Y11582373D01*
X46172723Y11635658D01*
X46241000Y11655119D01*
X46308960Y11634577D01*
X46354195Y11582373D01*
X46403186Y11477311D01*
X46403189Y11477306D01*
X46405512Y11472324D01*
X46408668Y11467817D01*
X46408669Y11467815D01*
X46445107Y11415777D01*
X46533023Y11290219D01*
X46690219Y11133023D01*
X46694727Y11129866D01*
X46694730Y11129864D01*
X46743963Y11095391D01*
X46872323Y11005512D01*
X46877305Y11003189D01*
X46877310Y11003186D01*
X47025709Y10933987D01*
X47073804Y10911560D01*
X47079112Y10910138D01*
X47079114Y10910137D01*
X47109202Y10902075D01*
X47288537Y10854022D01*
X47510000Y10834647D01*
X47731463Y10854022D01*
X47910798Y10902075D01*
X47940886Y10910137D01*
X47940888Y10910138D01*
X47946196Y10911560D01*
X47994291Y10933987D01*
X48142690Y11003186D01*
X48142695Y11003189D01*
X48147677Y11005512D01*
X48212959Y11051223D01*
X49355777Y11051223D01*
X49365074Y11039207D01*
X49408069Y11009102D01*
X49417555Y11003624D01*
X49608993Y10914355D01*
X49619285Y10910609D01*
X49823309Y10855941D01*
X49834104Y10854038D01*
X50044525Y10835628D01*
X50055475Y10835628D01*
X50265896Y10854038D01*
X50276691Y10855941D01*
X50480715Y10910609D01*
X50491007Y10914355D01*
X50682445Y11003624D01*
X50691931Y11009102D01*
X50735764Y11039793D01*
X50744139Y11050271D01*
X50737071Y11063719D01*
X50062812Y11737978D01*
X50048868Y11745592D01*
X50047035Y11745461D01*
X50040420Y11741210D01*
X49362207Y11062997D01*
X49355777Y11051223D01*
X48212959Y11051223D01*
X48276037Y11095391D01*
X48325270Y11129864D01*
X48325273Y11129866D01*
X48329781Y11133023D01*
X48486977Y11290219D01*
X48574894Y11415777D01*
X48611331Y11467815D01*
X48611332Y11467817D01*
X48614488Y11472324D01*
X48616811Y11477306D01*
X48616814Y11477311D01*
X48666081Y11582965D01*
X48712999Y11636250D01*
X48781276Y11655711D01*
X48849236Y11635169D01*
X48894471Y11582965D01*
X48943623Y11477559D01*
X48949103Y11468068D01*
X48979794Y11424235D01*
X48990271Y11415860D01*
X49003718Y11422928D01*
X49677978Y12097188D01*
X49684356Y12108868D01*
X50414408Y12108868D01*
X50414539Y12107035D01*
X50418790Y12100420D01*
X51097003Y11422207D01*
X51108777Y11415777D01*
X51120793Y11425074D01*
X51150897Y11468068D01*
X51156377Y11477559D01*
X51205529Y11582965D01*
X51252447Y11636250D01*
X51320724Y11655711D01*
X51388684Y11635169D01*
X51433919Y11582965D01*
X51483186Y11477311D01*
X51483189Y11477306D01*
X51485512Y11472324D01*
X51488668Y11467817D01*
X51488669Y11467815D01*
X51525107Y11415777D01*
X51613023Y11290219D01*
X51770219Y11133023D01*
X51774727Y11129866D01*
X51774730Y11129864D01*
X51823963Y11095391D01*
X51952323Y11005512D01*
X51957305Y11003189D01*
X51957310Y11003186D01*
X52105709Y10933987D01*
X52153804Y10911560D01*
X52159112Y10910138D01*
X52159114Y10910137D01*
X52189202Y10902075D01*
X52368537Y10854022D01*
X52590000Y10834647D01*
X52811463Y10854022D01*
X52990798Y10902075D01*
X53020886Y10910137D01*
X53020888Y10910138D01*
X53026196Y10911560D01*
X53074291Y10933987D01*
X53222690Y11003186D01*
X53222695Y11003189D01*
X53227677Y11005512D01*
X53356037Y11095391D01*
X53405270Y11129864D01*
X53405273Y11129866D01*
X53409781Y11133023D01*
X53566977Y11290219D01*
X53654894Y11415777D01*
X53691331Y11467815D01*
X53691332Y11467817D01*
X53694488Y11472324D01*
X53696811Y11477306D01*
X53696814Y11477311D01*
X53745805Y11582373D01*
X53792723Y11635658D01*
X53861000Y11655119D01*
X53928960Y11634577D01*
X53974195Y11582373D01*
X54023186Y11477311D01*
X54023189Y11477306D01*
X54025512Y11472324D01*
X54028668Y11467817D01*
X54028669Y11467815D01*
X54065107Y11415777D01*
X54153023Y11290219D01*
X54310219Y11133023D01*
X54314727Y11129866D01*
X54314730Y11129864D01*
X54363963Y11095391D01*
X54492323Y11005512D01*
X54497305Y11003189D01*
X54497310Y11003186D01*
X54645709Y10933987D01*
X54693804Y10911560D01*
X54699112Y10910138D01*
X54699114Y10910137D01*
X54729202Y10902075D01*
X54908537Y10854022D01*
X55130000Y10834647D01*
X55351463Y10854022D01*
X55530798Y10902075D01*
X55560886Y10910137D01*
X55560888Y10910138D01*
X55566196Y10911560D01*
X55614291Y10933987D01*
X55762690Y11003186D01*
X55762695Y11003189D01*
X55767677Y11005512D01*
X55807369Y11033305D01*
X59137251Y11033305D01*
X59137548Y11028152D01*
X59137548Y11028149D01*
X59147506Y10855446D01*
X59150110Y10810285D01*
X59151247Y10805239D01*
X59151248Y10805233D01*
X59165606Y10741525D01*
X59199222Y10592361D01*
X59260673Y10441024D01*
X59276489Y10402075D01*
X59283266Y10385384D01*
X59310686Y10340638D01*
X59397104Y10199617D01*
X59399987Y10194912D01*
X59546250Y10026062D01*
X59630390Y9956208D01*
X59708329Y9891502D01*
X59718126Y9883368D01*
X59911000Y9770662D01*
X60119692Y9690970D01*
X60124760Y9689939D01*
X60124763Y9689938D01*
X60219862Y9670590D01*
X60338597Y9646433D01*
X60343772Y9646243D01*
X60343774Y9646243D01*
X60556673Y9638436D01*
X60556677Y9638436D01*
X60561837Y9638247D01*
X60566957Y9638903D01*
X60566959Y9638903D01*
X60778288Y9665975D01*
X60778289Y9665975D01*
X60783416Y9666632D01*
X60788366Y9668117D01*
X60992429Y9729339D01*
X60992434Y9729341D01*
X60997384Y9730826D01*
X61197994Y9829104D01*
X61379860Y9958827D01*
X61394590Y9973505D01*
X61462844Y10041522D01*
X61538096Y10116511D01*
X61546713Y10128502D01*
X61668453Y10297923D01*
X61669640Y10297070D01*
X61716960Y10340638D01*
X61786897Y10352855D01*
X61852338Y10325322D01*
X61880166Y10293489D01*
X61937694Y10199612D01*
X61943777Y10191301D01*
X62083213Y10030333D01*
X62090580Y10023117D01*
X62254434Y9887084D01*
X62262881Y9881169D01*
X62446756Y9773721D01*
X62456042Y9769271D01*
X62655001Y9693297D01*
X62664899Y9690421D01*
X62768250Y9669394D01*
X62782299Y9670590D01*
X62786000Y9680935D01*
X62786000Y9681483D01*
X63294000Y9681483D01*
X63298064Y9667641D01*
X63311478Y9665607D01*
X63318184Y9666466D01*
X63328262Y9668608D01*
X63532255Y9729809D01*
X63541842Y9733567D01*
X63733095Y9827261D01*
X63741945Y9832536D01*
X63915328Y9956208D01*
X63923200Y9962861D01*
X64074052Y10113188D01*
X64080730Y10121035D01*
X64208022Y10298181D01*
X64209147Y10297373D01*
X64256669Y10341124D01*
X64326607Y10353339D01*
X64392046Y10325803D01*
X64419870Y10293972D01*
X64477690Y10199617D01*
X64483777Y10191301D01*
X64623213Y10030333D01*
X64630580Y10023117D01*
X64794434Y9887084D01*
X64802881Y9881169D01*
X64986756Y9773721D01*
X64996042Y9769271D01*
X65195001Y9693297D01*
X65204899Y9690421D01*
X65308250Y9669394D01*
X65322299Y9670590D01*
X65326000Y9680935D01*
X65326000Y9681483D01*
X65834000Y9681483D01*
X65838064Y9667641D01*
X65851478Y9665607D01*
X65858184Y9666466D01*
X65868262Y9668608D01*
X66072255Y9729809D01*
X66081842Y9733567D01*
X66273095Y9827261D01*
X66281945Y9832536D01*
X66455328Y9956208D01*
X66463193Y9962855D01*
X66567897Y10067195D01*
X66630268Y10101111D01*
X66701075Y10095923D01*
X66757837Y10053277D01*
X66774819Y10022174D01*
X66819385Y9903295D01*
X66906739Y9786739D01*
X67023295Y9699385D01*
X67159684Y9648255D01*
X67221866Y9641500D01*
X69018134Y9641500D01*
X69080316Y9648255D01*
X69216705Y9699385D01*
X69333261Y9786739D01*
X69420615Y9903295D01*
X69471745Y10039684D01*
X69478500Y10101866D01*
X69478500Y11898134D01*
X69471745Y11960316D01*
X69420615Y12096705D01*
X69333261Y12213261D01*
X69216705Y12300615D01*
X69080316Y12351745D01*
X69018134Y12358500D01*
X67221866Y12358500D01*
X67159684Y12351745D01*
X67023295Y12300615D01*
X66906739Y12213261D01*
X66819385Y12096705D01*
X66816233Y12088297D01*
X66816232Y12088295D01*
X66774722Y11977567D01*
X66732081Y11920802D01*
X66665519Y11896102D01*
X66596170Y11911309D01*
X66563546Y11936996D01*
X66512799Y11992766D01*
X66505273Y11999785D01*
X66338139Y12131778D01*
X66329552Y12137483D01*
X66143117Y12240401D01*
X66133705Y12244631D01*
X65932959Y12315720D01*
X65922988Y12318354D01*
X65851837Y12331028D01*
X65838540Y12329568D01*
X65834000Y12315011D01*
X65834000Y9681483D01*
X65326000Y9681483D01*
X65326000Y10727885D01*
X65321525Y10743124D01*
X65320135Y10744329D01*
X65312452Y10746000D01*
X63312115Y10746000D01*
X63296876Y10741525D01*
X63295671Y10740135D01*
X63294000Y10732452D01*
X63294000Y9681483D01*
X62786000Y9681483D01*
X62786000Y11272115D01*
X63294000Y11272115D01*
X63298475Y11256876D01*
X63299865Y11255671D01*
X63307548Y11254000D01*
X65307885Y11254000D01*
X65323124Y11258475D01*
X65324329Y11259865D01*
X65326000Y11267548D01*
X65326000Y12316898D01*
X65322082Y12330242D01*
X65307806Y12332229D01*
X65269324Y12326340D01*
X65259288Y12323949D01*
X65056868Y12257788D01*
X65047359Y12253791D01*
X64858463Y12155458D01*
X64849738Y12149964D01*
X64679433Y12022095D01*
X64671726Y12015252D01*
X64524590Y11861283D01*
X64518104Y11853273D01*
X64413193Y11699479D01*
X64358282Y11654476D01*
X64287757Y11646305D01*
X64224010Y11677559D01*
X64203313Y11702043D01*
X64122427Y11827074D01*
X64116136Y11835243D01*
X63972806Y11992760D01*
X63965273Y11999785D01*
X63798139Y12131778D01*
X63789552Y12137483D01*
X63603117Y12240401D01*
X63593705Y12244631D01*
X63392959Y12315720D01*
X63382988Y12318354D01*
X63311837Y12331028D01*
X63298540Y12329568D01*
X63294000Y12315011D01*
X63294000Y11272115D01*
X62786000Y11272115D01*
X62786000Y12316898D01*
X62782082Y12330242D01*
X62767806Y12332229D01*
X62729324Y12326340D01*
X62719288Y12323949D01*
X62516868Y12257788D01*
X62507359Y12253791D01*
X62318463Y12155458D01*
X62309738Y12149964D01*
X62139433Y12022095D01*
X62131726Y12015252D01*
X61984590Y11861283D01*
X61978109Y11853278D01*
X61873498Y11699926D01*
X61818587Y11654924D01*
X61748062Y11646753D01*
X61684315Y11678007D01*
X61663618Y11702491D01*
X61582822Y11827383D01*
X61582820Y11827386D01*
X61580014Y11831723D01*
X61429670Y11996949D01*
X61425619Y12000148D01*
X61425615Y12000152D01*
X61258414Y12132200D01*
X61258410Y12132202D01*
X61254359Y12135402D01*
X61218028Y12155458D01*
X61189534Y12171187D01*
X61058789Y12243362D01*
X61053920Y12245086D01*
X61053916Y12245088D01*
X60853087Y12316205D01*
X60853083Y12316206D01*
X60848212Y12317931D01*
X60843119Y12318838D01*
X60843116Y12318839D01*
X60633373Y12356200D01*
X60633367Y12356201D01*
X60628284Y12357106D01*
X60554452Y12358008D01*
X60410081Y12359772D01*
X60410079Y12359772D01*
X60404911Y12359835D01*
X60184091Y12326045D01*
X59971756Y12256643D01*
X59773607Y12153493D01*
X59769474Y12150390D01*
X59769471Y12150388D01*
X59686771Y12088295D01*
X59594965Y12019365D01*
X59591393Y12015627D01*
X59464866Y11883224D01*
X59440629Y11857862D01*
X59437715Y11853590D01*
X59437714Y11853589D01*
X59425404Y11835543D01*
X59314743Y11673320D01*
X59297536Y11636250D01*
X59223873Y11477556D01*
X59220688Y11470695D01*
X59160989Y11255430D01*
X59137251Y11033305D01*
X55807369Y11033305D01*
X55896037Y11095391D01*
X55945270Y11129864D01*
X55945273Y11129866D01*
X55949781Y11133023D01*
X56106977Y11290219D01*
X56194894Y11415777D01*
X56231331Y11467815D01*
X56231332Y11467817D01*
X56234488Y11472324D01*
X56236811Y11477306D01*
X56236814Y11477311D01*
X56326117Y11668822D01*
X56326118Y11668823D01*
X56328440Y11673804D01*
X56335440Y11699926D01*
X56369509Y11827074D01*
X56385978Y11888537D01*
X56405353Y12110000D01*
X56385978Y12331463D01*
X56328440Y12546196D01*
X56285805Y12637627D01*
X56236814Y12742689D01*
X56236811Y12742694D01*
X56234488Y12747676D01*
X56231331Y12752185D01*
X56110136Y12925270D01*
X56110134Y12925273D01*
X56106977Y12929781D01*
X55949781Y13086977D01*
X55945273Y13090134D01*
X55945270Y13090136D01*
X55869505Y13143187D01*
X55767677Y13214488D01*
X55762695Y13216811D01*
X55762690Y13216814D01*
X55571178Y13306117D01*
X55571177Y13306118D01*
X55566196Y13308440D01*
X55560888Y13309862D01*
X55560886Y13309863D01*
X55460781Y13336686D01*
X55351463Y13365978D01*
X55130000Y13385353D01*
X54908537Y13365978D01*
X54799219Y13336686D01*
X54699114Y13309863D01*
X54699112Y13309862D01*
X54693804Y13308440D01*
X54688823Y13306118D01*
X54688822Y13306117D01*
X54497311Y13216814D01*
X54497306Y13216811D01*
X54492324Y13214488D01*
X54487817Y13211332D01*
X54487815Y13211331D01*
X54314730Y13090136D01*
X54314727Y13090134D01*
X54310219Y13086977D01*
X54153023Y12929781D01*
X54149866Y12925273D01*
X54149864Y12925270D01*
X54028669Y12752185D01*
X54025512Y12747676D01*
X54023189Y12742694D01*
X54023186Y12742689D01*
X53974195Y12637627D01*
X53927277Y12584342D01*
X53859000Y12564881D01*
X53791040Y12585423D01*
X53745805Y12637627D01*
X53696814Y12742689D01*
X53696811Y12742694D01*
X53694488Y12747676D01*
X53691331Y12752185D01*
X53570136Y12925270D01*
X53570134Y12925273D01*
X53566977Y12929781D01*
X53409781Y13086977D01*
X53405273Y13090134D01*
X53405270Y13090136D01*
X53329505Y13143187D01*
X53227677Y13214488D01*
X53222695Y13216811D01*
X53222690Y13216814D01*
X53031178Y13306117D01*
X53031177Y13306118D01*
X53026196Y13308440D01*
X53020888Y13309862D01*
X53020886Y13309863D01*
X52920781Y13336686D01*
X52811463Y13365978D01*
X52590000Y13385353D01*
X52368537Y13365978D01*
X52259219Y13336686D01*
X52159114Y13309863D01*
X52159112Y13309862D01*
X52153804Y13308440D01*
X52148823Y13306118D01*
X52148822Y13306117D01*
X51957311Y13216814D01*
X51957306Y13216811D01*
X51952324Y13214488D01*
X51947817Y13211332D01*
X51947815Y13211331D01*
X51774730Y13090136D01*
X51774727Y13090134D01*
X51770219Y13086977D01*
X51613023Y12929781D01*
X51609866Y12925273D01*
X51609864Y12925270D01*
X51488669Y12752185D01*
X51485512Y12747676D01*
X51483189Y12742694D01*
X51483186Y12742689D01*
X51433919Y12637035D01*
X51387001Y12583750D01*
X51318724Y12564289D01*
X51250764Y12584831D01*
X51205529Y12637035D01*
X51156377Y12742441D01*
X51150897Y12751932D01*
X51120206Y12795765D01*
X51109729Y12804140D01*
X51096282Y12797072D01*
X50422022Y12122812D01*
X50414408Y12108868D01*
X49684356Y12108868D01*
X49685592Y12111132D01*
X49685461Y12112965D01*
X49681210Y12119580D01*
X49002997Y12797793D01*
X48991223Y12804223D01*
X48979207Y12794926D01*
X48949103Y12751932D01*
X48943623Y12742441D01*
X48894471Y12637035D01*
X48847553Y12583750D01*
X48779276Y12564289D01*
X48711316Y12584831D01*
X48666081Y12637035D01*
X48616814Y12742689D01*
X48616811Y12742694D01*
X48614488Y12747676D01*
X48611331Y12752185D01*
X48490136Y12925270D01*
X48490134Y12925273D01*
X48486977Y12929781D01*
X48329781Y13086977D01*
X48325273Y13090134D01*
X48325270Y13090136D01*
X48249505Y13143187D01*
X48211599Y13169729D01*
X49355860Y13169729D01*
X49362928Y13156282D01*
X50037188Y12482022D01*
X50051132Y12474408D01*
X50052965Y12474539D01*
X50059580Y12478790D01*
X50737793Y13157003D01*
X50744223Y13168777D01*
X50734926Y13180793D01*
X50691931Y13210898D01*
X50682445Y13216376D01*
X50491007Y13305645D01*
X50480715Y13309391D01*
X50276691Y13364059D01*
X50265896Y13365962D01*
X50055475Y13384372D01*
X50044525Y13384372D01*
X49834104Y13365962D01*
X49823309Y13364059D01*
X49619285Y13309391D01*
X49608993Y13305645D01*
X49417559Y13216377D01*
X49408068Y13210897D01*
X49364235Y13180206D01*
X49355860Y13169729D01*
X48211599Y13169729D01*
X48147677Y13214488D01*
X48142695Y13216811D01*
X48142690Y13216814D01*
X47951178Y13306117D01*
X47951177Y13306118D01*
X47946196Y13308440D01*
X47940888Y13309862D01*
X47940886Y13309863D01*
X47840781Y13336686D01*
X47731463Y13365978D01*
X47510000Y13385353D01*
X47288537Y13365978D01*
X47179219Y13336686D01*
X47079114Y13309863D01*
X47079112Y13309862D01*
X47073804Y13308440D01*
X47068823Y13306118D01*
X47068822Y13306117D01*
X46877311Y13216814D01*
X46877306Y13216811D01*
X46872324Y13214488D01*
X46867817Y13211332D01*
X46867815Y13211331D01*
X46694730Y13090136D01*
X46694727Y13090134D01*
X46690219Y13086977D01*
X46533023Y12929781D01*
X46529866Y12925273D01*
X46529864Y12925270D01*
X46408669Y12752185D01*
X46405512Y12747676D01*
X46403189Y12742694D01*
X46403186Y12742689D01*
X46354195Y12637627D01*
X46307277Y12584342D01*
X46239000Y12564881D01*
X46171040Y12585423D01*
X46125805Y12637627D01*
X46076814Y12742689D01*
X46076811Y12742694D01*
X46074488Y12747676D01*
X46071331Y12752185D01*
X45950136Y12925270D01*
X45950134Y12925273D01*
X45946977Y12929781D01*
X45789781Y13086977D01*
X45785273Y13090134D01*
X45785270Y13090136D01*
X45709505Y13143187D01*
X45607677Y13214488D01*
X45602695Y13216811D01*
X45602690Y13216814D01*
X45411178Y13306117D01*
X45411177Y13306118D01*
X45406196Y13308440D01*
X45400888Y13309862D01*
X45400886Y13309863D01*
X45300781Y13336686D01*
X45191463Y13365978D01*
X44970000Y13385353D01*
X44748537Y13365978D01*
X44743223Y13364554D01*
X44743217Y13364553D01*
X44709486Y13355515D01*
X44638510Y13357204D01*
X44587779Y13388126D01*
X43083652Y14892253D01*
X43076112Y14900539D01*
X43072000Y14907018D01*
X43022348Y14953644D01*
X43019507Y14956398D01*
X42999770Y14976135D01*
X42996573Y14978615D01*
X42987551Y14986320D01*
X42961100Y15011159D01*
X42955321Y15016586D01*
X42948375Y15020405D01*
X42948372Y15020407D01*
X42937566Y15026348D01*
X42921047Y15037199D01*
X42920583Y15037559D01*
X42905041Y15049614D01*
X42897772Y15052759D01*
X42897768Y15052762D01*
X42864463Y15067174D01*
X42853813Y15072391D01*
X42815060Y15093695D01*
X42795437Y15098733D01*
X42776734Y15105137D01*
X42765420Y15110033D01*
X42765419Y15110033D01*
X42758145Y15113181D01*
X42750322Y15114420D01*
X42750312Y15114423D01*
X42714476Y15120099D01*
X42702856Y15122505D01*
X42667711Y15131528D01*
X42667710Y15131528D01*
X42660030Y15133500D01*
X42639776Y15133500D01*
X42620065Y15135051D01*
X42607886Y15136980D01*
X42600057Y15138220D01*
X42592165Y15137474D01*
X42556039Y15134059D01*
X42544181Y15133500D01*
X41814594Y15133500D01*
X41746473Y15153502D01*
X41725499Y15170405D01*
X37170405Y19725500D01*
X37136379Y19787812D01*
X37133500Y19814595D01*
X37133500Y24797476D01*
X37153502Y24865597D01*
X37165858Y24881779D01*
X37239040Y24963056D01*
X37308972Y25084181D01*
X37331223Y25122721D01*
X37331224Y25122722D01*
X37334527Y25128444D01*
X37393542Y25310072D01*
X37398271Y25355060D01*
X37412814Y25493435D01*
X37413504Y25500000D01*
X37402340Y25606223D01*
X37394232Y25683365D01*
X37394232Y25683367D01*
X37393542Y25689928D01*
X37334527Y25871556D01*
X37239040Y26036944D01*
X37111253Y26178866D01*
X36956752Y26291118D01*
X36950724Y26293802D01*
X36950722Y26293803D01*
X36788319Y26366109D01*
X36788318Y26366109D01*
X36782288Y26368794D01*
X36688887Y26388647D01*
X36601944Y26407128D01*
X36601939Y26407128D01*
X36595487Y26408500D01*
X36404513Y26408500D01*
X36398061Y26407128D01*
X36398056Y26407128D01*
X36311113Y26388647D01*
X36217712Y26368794D01*
X36211682Y26366109D01*
X36211681Y26366109D01*
X36049278Y26293803D01*
X36049276Y26293802D01*
X36043248Y26291118D01*
X35888747Y26178866D01*
X35760960Y26036944D01*
X35665473Y25871556D01*
X35606458Y25689928D01*
X35605768Y25683367D01*
X35605768Y25683365D01*
X35597660Y25606223D01*
X35586496Y25500000D01*
X508500Y25500000D01*
X508500Y29890000D01*
X5594647Y29890000D01*
X5614022Y29668537D01*
X5615446Y29663224D01*
X5668372Y29465703D01*
X5671560Y29453804D01*
X5673882Y29448823D01*
X5673883Y29448822D01*
X5763186Y29257311D01*
X5763189Y29257306D01*
X5765512Y29252324D01*
X5768668Y29247817D01*
X5768669Y29247815D01*
X5805107Y29195777D01*
X5893023Y29070219D01*
X6050219Y28913023D01*
X6054727Y28909866D01*
X6054730Y28909864D01*
X6130495Y28856813D01*
X6232323Y28785512D01*
X6237305Y28783189D01*
X6237310Y28783186D01*
X6390118Y28711931D01*
X6433804Y28691560D01*
X6439112Y28690138D01*
X6439114Y28690137D01*
X6504949Y28672497D01*
X6648537Y28634022D01*
X6870000Y28614647D01*
X7091463Y28634022D01*
X7235051Y28672497D01*
X7300886Y28690137D01*
X7300888Y28690138D01*
X7306196Y28691560D01*
X7349882Y28711931D01*
X7502690Y28783186D01*
X7502695Y28783189D01*
X7507677Y28785512D01*
X7609505Y28856813D01*
X7685270Y28909864D01*
X7685273Y28909866D01*
X7689781Y28913023D01*
X7846977Y29070219D01*
X7934894Y29195777D01*
X7971331Y29247815D01*
X7971332Y29247817D01*
X7974488Y29252324D01*
X7976811Y29257306D01*
X7976814Y29257311D01*
X8025805Y29362373D01*
X8072723Y29415658D01*
X8141000Y29435119D01*
X8208960Y29414577D01*
X8254195Y29362373D01*
X8303186Y29257311D01*
X8303189Y29257306D01*
X8305512Y29252324D01*
X8308668Y29247817D01*
X8308669Y29247815D01*
X8345107Y29195777D01*
X8433023Y29070219D01*
X8590219Y28913023D01*
X8594727Y28909866D01*
X8594730Y28909864D01*
X8670495Y28856813D01*
X8772323Y28785512D01*
X8777305Y28783189D01*
X8777310Y28783186D01*
X8930118Y28711931D01*
X8973804Y28691560D01*
X8979112Y28690138D01*
X8979114Y28690137D01*
X9044949Y28672497D01*
X9188537Y28634022D01*
X9410000Y28614647D01*
X9631463Y28634022D01*
X9775051Y28672497D01*
X9840886Y28690137D01*
X9840888Y28690138D01*
X9846196Y28691560D01*
X9889882Y28711931D01*
X10042690Y28783186D01*
X10042695Y28783189D01*
X10047677Y28785512D01*
X10112959Y28831223D01*
X11255777Y28831223D01*
X11265074Y28819207D01*
X11308069Y28789102D01*
X11317555Y28783624D01*
X11508993Y28694355D01*
X11519285Y28690609D01*
X11723309Y28635941D01*
X11734104Y28634038D01*
X11944525Y28615628D01*
X11955475Y28615628D01*
X12165896Y28634038D01*
X12176691Y28635941D01*
X12380715Y28690609D01*
X12391007Y28694355D01*
X12582445Y28783624D01*
X12591931Y28789102D01*
X12635764Y28819793D01*
X12644139Y28830271D01*
X12637071Y28843719D01*
X11962812Y29517978D01*
X11948868Y29525592D01*
X11947035Y29525461D01*
X11940420Y29521210D01*
X11262207Y28842997D01*
X11255777Y28831223D01*
X10112959Y28831223D01*
X10149505Y28856813D01*
X10225270Y28909864D01*
X10225273Y28909866D01*
X10229781Y28913023D01*
X10386977Y29070219D01*
X10474894Y29195777D01*
X10511331Y29247815D01*
X10511332Y29247817D01*
X10514488Y29252324D01*
X10516811Y29257306D01*
X10516814Y29257311D01*
X10566081Y29362965D01*
X10612999Y29416250D01*
X10681276Y29435711D01*
X10749236Y29415169D01*
X10794471Y29362965D01*
X10843623Y29257559D01*
X10849103Y29248068D01*
X10879794Y29204235D01*
X10890271Y29195860D01*
X10903718Y29202928D01*
X11577978Y29877188D01*
X11585592Y29891132D01*
X11585461Y29892965D01*
X11581210Y29899580D01*
X10902997Y30577793D01*
X10891223Y30584223D01*
X10879207Y30574926D01*
X10849103Y30531932D01*
X10843623Y30522441D01*
X10794471Y30417035D01*
X10747553Y30363750D01*
X10679276Y30344289D01*
X10611316Y30364831D01*
X10566081Y30417035D01*
X10516814Y30522689D01*
X10516811Y30522694D01*
X10514488Y30527676D01*
X10511331Y30532185D01*
X10390136Y30705270D01*
X10390134Y30705273D01*
X10386977Y30709781D01*
X10229781Y30866977D01*
X10225273Y30870134D01*
X10225270Y30870136D01*
X10149505Y30923187D01*
X10111599Y30949729D01*
X11255860Y30949729D01*
X11262928Y30936282D01*
X11937188Y30262022D01*
X11951132Y30254408D01*
X11952965Y30254539D01*
X11959580Y30258790D01*
X12637793Y30937003D01*
X12644223Y30948777D01*
X12634926Y30960793D01*
X12591931Y30990898D01*
X12582445Y30996376D01*
X12391007Y31085645D01*
X12380715Y31089391D01*
X12176691Y31144059D01*
X12165896Y31145962D01*
X11955475Y31164372D01*
X11944525Y31164372D01*
X11734104Y31145962D01*
X11723309Y31144059D01*
X11519285Y31089391D01*
X11508993Y31085645D01*
X11317559Y30996377D01*
X11308068Y30990897D01*
X11264235Y30960206D01*
X11255860Y30949729D01*
X10111599Y30949729D01*
X10047677Y30994488D01*
X10042695Y30996811D01*
X10042690Y30996814D01*
X9851178Y31086117D01*
X9851177Y31086118D01*
X9846196Y31088440D01*
X9840888Y31089862D01*
X9840886Y31089863D01*
X9741479Y31116499D01*
X9631463Y31145978D01*
X9410000Y31165353D01*
X9188537Y31145978D01*
X9078521Y31116499D01*
X8979114Y31089863D01*
X8979112Y31089862D01*
X8973804Y31088440D01*
X8968823Y31086118D01*
X8968822Y31086117D01*
X8777311Y30996814D01*
X8777306Y30996811D01*
X8772324Y30994488D01*
X8767817Y30991332D01*
X8767815Y30991331D01*
X8594730Y30870136D01*
X8594727Y30870134D01*
X8590219Y30866977D01*
X8433023Y30709781D01*
X8429866Y30705273D01*
X8429864Y30705270D01*
X8308669Y30532185D01*
X8305512Y30527676D01*
X8303189Y30522694D01*
X8303186Y30522689D01*
X8254195Y30417627D01*
X8207277Y30364342D01*
X8139000Y30344881D01*
X8071040Y30365423D01*
X8025805Y30417627D01*
X7976814Y30522689D01*
X7976811Y30522694D01*
X7974488Y30527676D01*
X7971331Y30532185D01*
X7850136Y30705270D01*
X7850134Y30705273D01*
X7846977Y30709781D01*
X7689781Y30866977D01*
X7685273Y30870134D01*
X7685270Y30870136D01*
X7609505Y30923187D01*
X7507677Y30994488D01*
X7502695Y30996811D01*
X7502690Y30996814D01*
X7311178Y31086117D01*
X7311177Y31086118D01*
X7306196Y31088440D01*
X7300888Y31089862D01*
X7300886Y31089863D01*
X7201479Y31116499D01*
X7091463Y31145978D01*
X6870000Y31165353D01*
X6648537Y31145978D01*
X6538521Y31116499D01*
X6439114Y31089863D01*
X6439112Y31089862D01*
X6433804Y31088440D01*
X6428823Y31086118D01*
X6428822Y31086117D01*
X6237311Y30996814D01*
X6237306Y30996811D01*
X6232324Y30994488D01*
X6227817Y30991332D01*
X6227815Y30991331D01*
X6054730Y30870136D01*
X6054727Y30870134D01*
X6050219Y30866977D01*
X5893023Y30709781D01*
X5889866Y30705273D01*
X5889864Y30705270D01*
X5768669Y30532185D01*
X5765512Y30527676D01*
X5763189Y30522694D01*
X5763186Y30522689D01*
X5680273Y30344881D01*
X5671560Y30326196D01*
X5670138Y30320888D01*
X5670137Y30320886D01*
X5663262Y30295229D01*
X5614022Y30111463D01*
X5594647Y29890000D01*
X508500Y29890000D01*
X508500Y32413938D01*
X1278493Y32413938D01*
X1287789Y32401923D01*
X1338994Y32366069D01*
X1348489Y32360586D01*
X1545947Y32268510D01*
X1556239Y32264764D01*
X1766688Y32208375D01*
X1777481Y32206472D01*
X1994525Y32187483D01*
X2005475Y32187483D01*
X2222519Y32206472D01*
X2233312Y32208375D01*
X2443761Y32264764D01*
X2454053Y32268510D01*
X2651511Y32360586D01*
X2661006Y32366069D01*
X2713048Y32402509D01*
X2721424Y32412988D01*
X2714356Y32426434D01*
X2012812Y33127978D01*
X1998868Y33135592D01*
X1997035Y33135461D01*
X1990420Y33131210D01*
X1284923Y32425713D01*
X1278493Y32413938D01*
X508500Y32413938D01*
X508500Y33055564D01*
X528502Y33123685D01*
X582158Y33170178D01*
X652432Y33180282D01*
X717012Y33150788D01*
X756207Y33088175D01*
X764764Y33056239D01*
X768510Y33045947D01*
X860586Y32848489D01*
X866069Y32838994D01*
X902509Y32786952D01*
X912988Y32778576D01*
X926434Y32785644D01*
X1627978Y33487188D01*
X1634356Y33498868D01*
X2364408Y33498868D01*
X2364539Y33497035D01*
X2368790Y33490420D01*
X2726199Y33133011D01*
X2758811Y33076527D01*
X2765716Y33050757D01*
X2768039Y33045776D01*
X2768039Y33045775D01*
X2860151Y32848238D01*
X2860154Y32848233D01*
X2862477Y32843251D01*
X2930981Y32745417D01*
X2975688Y32681570D01*
X2993802Y32655700D01*
X3155700Y32493802D01*
X3160208Y32490645D01*
X3160211Y32490643D01*
X3194551Y32466598D01*
X3343251Y32362477D01*
X3348233Y32360154D01*
X3348238Y32360151D01*
X3544765Y32268510D01*
X3550757Y32265716D01*
X3556065Y32264294D01*
X3556067Y32264293D01*
X3766598Y32207881D01*
X3766600Y32207881D01*
X3771913Y32206457D01*
X4000000Y32186502D01*
X4228087Y32206457D01*
X4233400Y32207881D01*
X4233402Y32207881D01*
X4443933Y32264293D01*
X4443935Y32264294D01*
X4449243Y32265716D01*
X4455235Y32268510D01*
X4651762Y32360151D01*
X4651767Y32360154D01*
X4656749Y32362477D01*
X4805449Y32466598D01*
X4839789Y32490643D01*
X4839792Y32490645D01*
X4844300Y32493802D01*
X5006198Y32655700D01*
X5024313Y32681570D01*
X5069019Y32745417D01*
X5137523Y32843251D01*
X5139846Y32848233D01*
X5139849Y32848238D01*
X5231961Y33045775D01*
X5231961Y33045776D01*
X5234284Y33050757D01*
X5254976Y33127978D01*
X5292119Y33266598D01*
X5292119Y33266600D01*
X5293543Y33271913D01*
X5313498Y33500000D01*
X5293543Y33728087D01*
X5265527Y33832645D01*
X5235707Y33943933D01*
X5235706Y33943935D01*
X5234284Y33949243D01*
X5231961Y33954225D01*
X5139849Y34151762D01*
X5139846Y34151767D01*
X5137523Y34156749D01*
X5006198Y34344300D01*
X4844300Y34506198D01*
X4839792Y34509355D01*
X4839789Y34509357D01*
X4727135Y34588238D01*
X4656749Y34637523D01*
X4651767Y34639846D01*
X4651762Y34639849D01*
X4454225Y34731961D01*
X4454224Y34731961D01*
X4449243Y34734284D01*
X4443935Y34735706D01*
X4443933Y34735707D01*
X4233402Y34792119D01*
X4233400Y34792119D01*
X4228087Y34793543D01*
X4000000Y34813498D01*
X3771913Y34793543D01*
X3766600Y34792119D01*
X3766598Y34792119D01*
X3556067Y34735707D01*
X3556065Y34735706D01*
X3550757Y34734284D01*
X3545776Y34731961D01*
X3545775Y34731961D01*
X3348238Y34639849D01*
X3348233Y34639846D01*
X3343251Y34637523D01*
X3272865Y34588238D01*
X3160211Y34509357D01*
X3160208Y34509355D01*
X3155700Y34506198D01*
X2993802Y34344300D01*
X2862477Y34156749D01*
X2860154Y34151767D01*
X2860151Y34151762D01*
X2768039Y33954225D01*
X2765716Y33949243D01*
X2764294Y33943935D01*
X2764293Y33943933D01*
X2758811Y33923473D01*
X2726199Y33866989D01*
X2372022Y33512812D01*
X2364408Y33498868D01*
X1634356Y33498868D01*
X1635592Y33501132D01*
X1635461Y33502965D01*
X1631210Y33509580D01*
X925713Y34215077D01*
X913938Y34221507D01*
X901923Y34212211D01*
X866069Y34161006D01*
X860586Y34151511D01*
X768510Y33954053D01*
X764764Y33943761D01*
X756207Y33911825D01*
X719255Y33851202D01*
X655395Y33820181D01*
X584900Y33828609D01*
X530153Y33873812D01*
X508500Y33944436D01*
X508500Y34587012D01*
X1278576Y34587012D01*
X1285644Y34573566D01*
X1987188Y33872022D01*
X2001132Y33864408D01*
X2002965Y33864539D01*
X2009580Y33868790D01*
X2715077Y34574287D01*
X2721507Y34586062D01*
X2712211Y34598077D01*
X2661006Y34633931D01*
X2651511Y34639414D01*
X2454053Y34731490D01*
X2443761Y34735236D01*
X2233312Y34791625D01*
X2222519Y34793528D01*
X2005475Y34812517D01*
X1994525Y34812517D01*
X1777481Y34793528D01*
X1766688Y34791625D01*
X1556239Y34735236D01*
X1545947Y34731490D01*
X1348489Y34639414D01*
X1338994Y34633931D01*
X1286952Y34597491D01*
X1278576Y34587012D01*
X508500Y34587012D01*
X508500Y36231420D01*
X21018752Y36231420D01*
X21043477Y36113579D01*
X21046537Y36103383D01*
X21127263Y35898971D01*
X21131994Y35889439D01*
X21246016Y35701538D01*
X21252280Y35692948D01*
X21396327Y35526948D01*
X21403958Y35519528D01*
X21573911Y35380174D01*
X21582678Y35374150D01*
X21773682Y35265424D01*
X21783346Y35260959D01*
X21989941Y35185969D01*
X22000208Y35183198D01*
X22217655Y35143877D01*
X22225884Y35142944D01*
X22230376Y35142732D01*
X22243124Y35146475D01*
X22244329Y35147865D01*
X22246000Y35155548D01*
X22246000Y35164030D01*
X22754000Y35164030D01*
X22758310Y35149352D01*
X22770193Y35147289D01*
X22874325Y35156124D01*
X22884797Y35157914D01*
X23097535Y35213130D01*
X23107575Y35216665D01*
X23224932Y35269531D01*
X40087095Y35269531D01*
X40087392Y35264378D01*
X40087392Y35264375D01*
X40093634Y35156124D01*
X40100427Y35038303D01*
X40101564Y35033257D01*
X40101565Y35033251D01*
X40133741Y34890477D01*
X40151346Y34812358D01*
X40153288Y34807576D01*
X40153289Y34807572D01*
X40236540Y34602550D01*
X40238484Y34597763D01*
X40359501Y34400281D01*
X40511147Y34225216D01*
X40689349Y34077270D01*
X40889322Y33960416D01*
X40894147Y33958574D01*
X40894148Y33958573D01*
X40931169Y33944436D01*
X41105694Y33877791D01*
X41110760Y33876760D01*
X41110761Y33876760D01*
X41149935Y33868790D01*
X41332656Y33831615D01*
X41463324Y33826824D01*
X41558949Y33823317D01*
X41558953Y33823317D01*
X41564113Y33823128D01*
X41569233Y33823784D01*
X41569235Y33823784D01*
X41651838Y33834366D01*
X41793847Y33852558D01*
X41798795Y33854043D01*
X41798802Y33854044D01*
X42010747Y33917631D01*
X42015690Y33919114D01*
X42067379Y33944436D01*
X42219049Y34018738D01*
X42219052Y34018740D01*
X42223684Y34021009D01*
X42412243Y34155506D01*
X42576303Y34318995D01*
X42594487Y34344300D01*
X42631908Y34396378D01*
X42711458Y34507083D01*
X42746875Y34578743D01*
X42811784Y34710078D01*
X42811785Y34710080D01*
X42814078Y34714720D01*
X42881408Y34936329D01*
X42911640Y35165959D01*
X42913327Y35235000D01*
X42901887Y35374150D01*
X42894773Y35460682D01*
X42894772Y35460688D01*
X42894349Y35465833D01*
X42860351Y35601186D01*
X42839184Y35685456D01*
X42839183Y35685460D01*
X42837925Y35690467D01*
X42833111Y35701538D01*
X42747630Y35898132D01*
X42747628Y35898135D01*
X42745570Y35902869D01*
X42619764Y36097335D01*
X42529486Y36196550D01*
X42498434Y36260395D01*
X42506829Y36330894D01*
X42552005Y36385662D01*
X42578449Y36399331D01*
X42638054Y36421676D01*
X42653649Y36430214D01*
X42755724Y36506715D01*
X42768285Y36519276D01*
X42844786Y36621351D01*
X42853324Y36636946D01*
X42898478Y36757394D01*
X42902105Y36772649D01*
X42907631Y36823514D01*
X42908000Y36830328D01*
X42908000Y37502885D01*
X42903525Y37518124D01*
X42902135Y37519329D01*
X42894452Y37521000D01*
X40110116Y37521000D01*
X40094877Y37516525D01*
X40093672Y37515135D01*
X40092001Y37507452D01*
X40092001Y36830331D01*
X40092371Y36823510D01*
X40097895Y36772648D01*
X40101521Y36757396D01*
X40146676Y36636946D01*
X40155214Y36621351D01*
X40231715Y36519276D01*
X40244276Y36506715D01*
X40346351Y36430214D01*
X40361946Y36421676D01*
X40421540Y36399335D01*
X40478304Y36356693D01*
X40503004Y36290132D01*
X40487796Y36220783D01*
X40468404Y36194302D01*
X40401639Y36124436D01*
X40398725Y36120164D01*
X40398724Y36120163D01*
X40383152Y36097335D01*
X40271119Y35933101D01*
X40173602Y35723019D01*
X40111707Y35499831D01*
X40087095Y35269531D01*
X23224932Y35269531D01*
X23307970Y35306937D01*
X23317256Y35312106D01*
X23499575Y35434850D01*
X23507870Y35441519D01*
X23666900Y35593228D01*
X23673941Y35601186D01*
X23805141Y35777525D01*
X23810745Y35786562D01*
X23910357Y35982484D01*
X23914357Y35992335D01*
X23979534Y36202240D01*
X23981817Y36212624D01*
X23983861Y36228043D01*
X23981665Y36242207D01*
X23968478Y36246000D01*
X22772115Y36246000D01*
X22756876Y36241525D01*
X22755671Y36240135D01*
X22754000Y36232452D01*
X22754000Y35164030D01*
X22246000Y35164030D01*
X22246000Y36227885D01*
X22241525Y36243124D01*
X22240135Y36244329D01*
X22232452Y36246000D01*
X21033808Y36246000D01*
X21020277Y36242027D01*
X21018752Y36231420D01*
X508500Y36231420D01*
X508500Y40654396D01*
X19387787Y40654396D01*
X19397567Y40443101D01*
X19398971Y40437276D01*
X19398971Y40437275D01*
X19433955Y40292115D01*
X19447125Y40237466D01*
X19534674Y40044913D01*
X19657054Y39872389D01*
X19809850Y39726119D01*
X19987548Y39611380D01*
X19993114Y39609137D01*
X20178168Y39534558D01*
X20178171Y39534557D01*
X20183737Y39532314D01*
X20391337Y39491772D01*
X20396899Y39491500D01*
X20552846Y39491500D01*
X20710566Y39506548D01*
X20830031Y39541595D01*
X20901027Y39541578D01*
X20960744Y39503180D01*
X20990222Y39438592D01*
X20991500Y39420690D01*
X20991500Y38349600D01*
X21002474Y38243834D01*
X21004655Y38237298D01*
X21004655Y38237296D01*
X21048728Y38105194D01*
X21058450Y38076054D01*
X21151522Y37925652D01*
X21276697Y37800695D01*
X21422258Y37710970D01*
X21422780Y37710648D01*
X21470273Y37657876D01*
X21481697Y37587804D01*
X21453423Y37522680D01*
X21443636Y37512218D01*
X21333094Y37406766D01*
X21326059Y37398814D01*
X21194859Y37222475D01*
X21189255Y37213438D01*
X21089643Y37017516D01*
X21085643Y37007665D01*
X21020466Y36797760D01*
X21018183Y36787376D01*
X21016139Y36771957D01*
X21018335Y36757793D01*
X21031522Y36754000D01*
X23966192Y36754000D01*
X23979723Y36757973D01*
X23981248Y36768580D01*
X23956523Y36886421D01*
X23953463Y36896617D01*
X23872737Y37101029D01*
X23868006Y37110561D01*
X23753984Y37298462D01*
X23747720Y37307052D01*
X23603673Y37473052D01*
X23596044Y37480470D01*
X23564431Y37506391D01*
X23524436Y37565051D01*
X23522504Y37636021D01*
X23559248Y37696770D01*
X23578018Y37710970D01*
X23680722Y37774525D01*
X23724348Y37801522D01*
X23849305Y37926697D01*
X23923532Y38047115D01*
X40092000Y38047115D01*
X40096475Y38031876D01*
X40097865Y38030671D01*
X40105548Y38029000D01*
X41227885Y38029000D01*
X41243124Y38033475D01*
X41244329Y38034865D01*
X41246000Y38042548D01*
X41246000Y38047115D01*
X41754000Y38047115D01*
X41758475Y38031876D01*
X41759865Y38030671D01*
X41767548Y38029000D01*
X42889884Y38029000D01*
X42905123Y38033475D01*
X42906328Y38034865D01*
X42907999Y38042548D01*
X42907999Y38719669D01*
X42907629Y38726490D01*
X42902105Y38777352D01*
X42898479Y38792604D01*
X42853324Y38913054D01*
X42844786Y38928649D01*
X42768285Y39030724D01*
X42755724Y39043285D01*
X42653649Y39119786D01*
X42638054Y39128324D01*
X42517606Y39173478D01*
X42502351Y39177105D01*
X42451486Y39182631D01*
X42444672Y39183000D01*
X41772115Y39183000D01*
X41756876Y39178525D01*
X41755671Y39177135D01*
X41754000Y39169452D01*
X41754000Y38047115D01*
X41246000Y38047115D01*
X41246000Y39164884D01*
X41241525Y39180123D01*
X41240135Y39181328D01*
X41232452Y39182999D01*
X40555331Y39182999D01*
X40548510Y39182629D01*
X40497648Y39177105D01*
X40482396Y39173479D01*
X40361946Y39128324D01*
X40346351Y39119786D01*
X40244276Y39043285D01*
X40231715Y39030724D01*
X40155214Y38928649D01*
X40146676Y38913054D01*
X40101522Y38792606D01*
X40097895Y38777351D01*
X40092369Y38726486D01*
X40092000Y38719672D01*
X40092000Y38047115D01*
X23923532Y38047115D01*
X23942115Y38077262D01*
X23968564Y38157005D01*
X23995632Y38238611D01*
X23995632Y38238613D01*
X23997797Y38245139D01*
X24008500Y38349600D01*
X24008500Y39650400D01*
X24008163Y39653650D01*
X23998238Y39749308D01*
X23998237Y39749312D01*
X23997526Y39756166D01*
X23941550Y39923946D01*
X23848478Y40074348D01*
X23723303Y40199305D01*
X23572738Y40292115D01*
X23472160Y40325475D01*
X23411389Y40345632D01*
X23411387Y40345632D01*
X23404861Y40347797D01*
X23398025Y40348497D01*
X23398022Y40348498D01*
X23354969Y40352909D01*
X23300400Y40358500D01*
X21730671Y40358500D01*
X21662550Y40378502D01*
X21616057Y40432158D01*
X21605975Y40502580D01*
X21611352Y40539663D01*
X21611352Y40539667D01*
X21612213Y40545604D01*
X21602433Y40756899D01*
X21552875Y40962534D01*
X21548680Y40971762D01*
X21467806Y41149632D01*
X21465326Y41155087D01*
X21342946Y41327611D01*
X21190150Y41473881D01*
X21012452Y41588620D01*
X20949421Y41614022D01*
X20821832Y41665442D01*
X20821829Y41665443D01*
X20816263Y41667686D01*
X20608663Y41708228D01*
X20603101Y41708500D01*
X20447154Y41708500D01*
X20289434Y41693452D01*
X20086466Y41633908D01*
X20081139Y41631164D01*
X20081138Y41631164D01*
X19903751Y41539804D01*
X19903748Y41539802D01*
X19898420Y41537058D01*
X19732080Y41406396D01*
X19728148Y41401865D01*
X19728145Y41401862D01*
X19659474Y41322725D01*
X19593448Y41246637D01*
X19590448Y41241451D01*
X19590445Y41241447D01*
X19503783Y41091646D01*
X19487527Y41063546D01*
X19418139Y40863729D01*
X19387787Y40654396D01*
X508500Y40654396D01*
X508500Y41374000D01*
X528502Y41442121D01*
X582158Y41488614D01*
X634500Y41500000D01*
X5500000Y41500000D01*
X5500000Y42079396D01*
X40537787Y42079396D01*
X40547567Y41868101D01*
X40597125Y41662466D01*
X40599607Y41657008D01*
X40599608Y41657004D01*
X40643053Y41561454D01*
X40684674Y41469913D01*
X40807054Y41297389D01*
X40959850Y41151119D01*
X41137548Y41036380D01*
X41143114Y41034137D01*
X41328168Y40959558D01*
X41328171Y40959557D01*
X41333737Y40957314D01*
X41541337Y40916772D01*
X41546899Y40916500D01*
X41702846Y40916500D01*
X41860566Y40931548D01*
X42063534Y40991092D01*
X42147111Y41034137D01*
X42246249Y41085196D01*
X42246252Y41085198D01*
X42251580Y41087942D01*
X42417920Y41218604D01*
X42421852Y41223135D01*
X42421855Y41223138D01*
X42552621Y41373833D01*
X42556552Y41378363D01*
X42559552Y41383549D01*
X42559555Y41383553D01*
X42659467Y41556258D01*
X42662473Y41561454D01*
X42731861Y41761271D01*
X42748219Y41874091D01*
X42761352Y41964664D01*
X42761352Y41964667D01*
X42762213Y41970604D01*
X42757177Y42079396D01*
X49537787Y42079396D01*
X49547567Y41868101D01*
X49597125Y41662466D01*
X49599607Y41657008D01*
X49599608Y41657004D01*
X49643053Y41561454D01*
X49684674Y41469913D01*
X49807054Y41297389D01*
X49959850Y41151119D01*
X50137548Y41036380D01*
X50143114Y41034137D01*
X50328168Y40959558D01*
X50328171Y40959557D01*
X50333737Y40957314D01*
X50541337Y40916772D01*
X50546899Y40916500D01*
X50702846Y40916500D01*
X50860566Y40931548D01*
X51063534Y40991092D01*
X51147111Y41034137D01*
X51246249Y41085196D01*
X51246252Y41085198D01*
X51251580Y41087942D01*
X51417920Y41218604D01*
X51421852Y41223135D01*
X51421855Y41223138D01*
X51552621Y41373833D01*
X51556552Y41378363D01*
X51559552Y41383549D01*
X51559555Y41383553D01*
X51659467Y41556258D01*
X51662473Y41561454D01*
X51731861Y41761271D01*
X51748219Y41874091D01*
X51761352Y41964664D01*
X51761352Y41964667D01*
X51762213Y41970604D01*
X51752433Y42181899D01*
X51709275Y42360979D01*
X51712760Y42431890D01*
X51754030Y42489660D01*
X51819980Y42515947D01*
X51831768Y42516500D01*
X52900400Y42516500D01*
X52903646Y42516837D01*
X52903650Y42516837D01*
X52999308Y42526762D01*
X52999312Y42526763D01*
X53006166Y42527474D01*
X53012702Y42529655D01*
X53012704Y42529655D01*
X53166998Y42581132D01*
X53173946Y42583450D01*
X53324348Y42676522D01*
X53449305Y42801697D01*
X53539353Y42947780D01*
X53592124Y42995273D01*
X53662196Y43006697D01*
X53727320Y42978423D01*
X53737782Y42968636D01*
X53843234Y42858094D01*
X53851186Y42851059D01*
X54027525Y42719859D01*
X54036562Y42714255D01*
X54232484Y42614643D01*
X54242335Y42610643D01*
X54452240Y42545466D01*
X54462624Y42543183D01*
X54478043Y42541139D01*
X54492207Y42543335D01*
X54496000Y42556522D01*
X54496000Y42558808D01*
X55004000Y42558808D01*
X55007973Y42545277D01*
X55018580Y42543752D01*
X55136421Y42568477D01*
X55146617Y42571537D01*
X55351029Y42652263D01*
X55360561Y42656994D01*
X55548462Y42771016D01*
X55557052Y42777280D01*
X55723052Y42921327D01*
X55730472Y42928958D01*
X55869826Y43098911D01*
X55875850Y43107678D01*
X55984576Y43298682D01*
X55989041Y43308346D01*
X56064031Y43514941D01*
X56066802Y43525208D01*
X56106123Y43742655D01*
X56107056Y43750884D01*
X56107268Y43755376D01*
X56103525Y43768124D01*
X56102135Y43769329D01*
X56094452Y43771000D01*
X55022115Y43771000D01*
X55006876Y43766525D01*
X55005671Y43765135D01*
X55004000Y43757452D01*
X55004000Y42558808D01*
X54496000Y42558808D01*
X54496000Y44297115D01*
X55004000Y44297115D01*
X55008475Y44281876D01*
X55009865Y44280671D01*
X55017548Y44279000D01*
X56085970Y44279000D01*
X56100648Y44283310D01*
X56102711Y44295193D01*
X56093876Y44399325D01*
X56092086Y44409797D01*
X56036870Y44622535D01*
X56033335Y44632575D01*
X55943063Y44832970D01*
X55937894Y44842256D01*
X55815150Y45024575D01*
X55808481Y45032870D01*
X55656772Y45191900D01*
X55648814Y45198941D01*
X55472475Y45330141D01*
X55463438Y45335745D01*
X55267516Y45435357D01*
X55257665Y45439357D01*
X55047760Y45504534D01*
X55037376Y45506817D01*
X55021957Y45508861D01*
X55007793Y45506665D01*
X55004000Y45493478D01*
X55004000Y44297115D01*
X54496000Y44297115D01*
X54496000Y45491192D01*
X54492027Y45504723D01*
X54481420Y45506248D01*
X54363579Y45481523D01*
X54353383Y45478463D01*
X54148971Y45397737D01*
X54139439Y45393006D01*
X53951538Y45278984D01*
X53942948Y45272720D01*
X53776948Y45128673D01*
X53769530Y45121044D01*
X53743609Y45089431D01*
X53684949Y45049436D01*
X53613979Y45047504D01*
X53553230Y45084248D01*
X53539030Y45103018D01*
X53519901Y45133931D01*
X53448478Y45249348D01*
X53323303Y45374305D01*
X53292965Y45393006D01*
X53178968Y45463275D01*
X53178966Y45463276D01*
X53172738Y45467115D01*
X53053498Y45506665D01*
X53011389Y45520632D01*
X53011387Y45520632D01*
X53004861Y45522797D01*
X52998025Y45523497D01*
X52998022Y45523498D01*
X52954969Y45527909D01*
X52900400Y45533500D01*
X51599600Y45533500D01*
X51596354Y45533163D01*
X51596350Y45533163D01*
X51500692Y45523238D01*
X51500688Y45523237D01*
X51493834Y45522526D01*
X51487298Y45520345D01*
X51487296Y45520345D01*
X51355194Y45476272D01*
X51326054Y45466550D01*
X51175652Y45373478D01*
X51050695Y45248303D01*
X51046855Y45242073D01*
X51046854Y45242072D01*
X50963480Y45106814D01*
X50957885Y45097738D01*
X50954012Y45086062D01*
X50917831Y44976977D01*
X50902203Y44929861D01*
X50891500Y44825400D01*
X50891500Y43258995D01*
X50871498Y43190874D01*
X50817842Y43144381D01*
X50758761Y43135226D01*
X50758663Y43133228D01*
X50754643Y43133425D01*
X50754626Y43133425D01*
X50753101Y43133500D01*
X50597154Y43133500D01*
X50439434Y43118452D01*
X50236466Y43058908D01*
X50231139Y43056164D01*
X50231138Y43056164D01*
X50053751Y42964804D01*
X50053748Y42964802D01*
X50048420Y42962058D01*
X49882080Y42831396D01*
X49878148Y42826865D01*
X49878145Y42826862D01*
X49805845Y42743543D01*
X49743448Y42671637D01*
X49740448Y42666451D01*
X49740445Y42666447D01*
X49653894Y42516837D01*
X49637527Y42488546D01*
X49568139Y42288729D01*
X49537787Y42079396D01*
X42757177Y42079396D01*
X42752433Y42181899D01*
X42709275Y42360979D01*
X42712760Y42431890D01*
X42754030Y42489660D01*
X42819980Y42515947D01*
X42831768Y42516500D01*
X43900400Y42516500D01*
X43903646Y42516837D01*
X43903650Y42516837D01*
X43999308Y42526762D01*
X43999312Y42526763D01*
X44006166Y42527474D01*
X44012702Y42529655D01*
X44012704Y42529655D01*
X44166998Y42581132D01*
X44173946Y42583450D01*
X44324348Y42676522D01*
X44449305Y42801697D01*
X44539353Y42947780D01*
X44592124Y42995273D01*
X44662196Y43006697D01*
X44727320Y42978423D01*
X44737782Y42968636D01*
X44843234Y42858094D01*
X44851186Y42851059D01*
X45027525Y42719859D01*
X45036562Y42714255D01*
X45232484Y42614643D01*
X45242335Y42610643D01*
X45452240Y42545466D01*
X45462624Y42543183D01*
X45478043Y42541139D01*
X45492207Y42543335D01*
X45496000Y42556522D01*
X45496000Y42558808D01*
X46004000Y42558808D01*
X46007973Y42545277D01*
X46018580Y42543752D01*
X46136421Y42568477D01*
X46146617Y42571537D01*
X46351029Y42652263D01*
X46360561Y42656994D01*
X46548462Y42771016D01*
X46557052Y42777280D01*
X46723052Y42921327D01*
X46730472Y42928958D01*
X46869826Y43098911D01*
X46875850Y43107678D01*
X46984576Y43298682D01*
X46989041Y43308346D01*
X47064031Y43514941D01*
X47066802Y43525208D01*
X47106123Y43742655D01*
X47107056Y43750884D01*
X47107268Y43755376D01*
X47103525Y43768124D01*
X47102135Y43769329D01*
X47094452Y43771000D01*
X46022115Y43771000D01*
X46006876Y43766525D01*
X46005671Y43765135D01*
X46004000Y43757452D01*
X46004000Y42558808D01*
X45496000Y42558808D01*
X45496000Y44297115D01*
X46004000Y44297115D01*
X46008475Y44281876D01*
X46009865Y44280671D01*
X46017548Y44279000D01*
X47085970Y44279000D01*
X47100648Y44283310D01*
X47102711Y44295193D01*
X47093876Y44399325D01*
X47092086Y44409797D01*
X47036870Y44622535D01*
X47033335Y44632575D01*
X46943063Y44832970D01*
X46937894Y44842256D01*
X46815150Y45024575D01*
X46808481Y45032870D01*
X46656772Y45191900D01*
X46648814Y45198941D01*
X46472475Y45330141D01*
X46463438Y45335745D01*
X46267516Y45435357D01*
X46257665Y45439357D01*
X46047760Y45504534D01*
X46037376Y45506817D01*
X46021957Y45508861D01*
X46007793Y45506665D01*
X46004000Y45493478D01*
X46004000Y44297115D01*
X45496000Y44297115D01*
X45496000Y45491192D01*
X45492027Y45504723D01*
X45481420Y45506248D01*
X45363579Y45481523D01*
X45353383Y45478463D01*
X45148971Y45397737D01*
X45139439Y45393006D01*
X44951538Y45278984D01*
X44942948Y45272720D01*
X44776948Y45128673D01*
X44769530Y45121044D01*
X44743609Y45089431D01*
X44684949Y45049436D01*
X44613979Y45047504D01*
X44553230Y45084248D01*
X44539030Y45103018D01*
X44519901Y45133931D01*
X44448478Y45249348D01*
X44323303Y45374305D01*
X44292965Y45393006D01*
X44178968Y45463275D01*
X44178966Y45463276D01*
X44172738Y45467115D01*
X44053498Y45506665D01*
X44011389Y45520632D01*
X44011387Y45520632D01*
X44004861Y45522797D01*
X43998025Y45523497D01*
X43998022Y45523498D01*
X43954969Y45527909D01*
X43900400Y45533500D01*
X42599600Y45533500D01*
X42596354Y45533163D01*
X42596350Y45533163D01*
X42500692Y45523238D01*
X42500688Y45523237D01*
X42493834Y45522526D01*
X42487298Y45520345D01*
X42487296Y45520345D01*
X42355194Y45476272D01*
X42326054Y45466550D01*
X42175652Y45373478D01*
X42050695Y45248303D01*
X42046855Y45242073D01*
X42046854Y45242072D01*
X41963480Y45106814D01*
X41957885Y45097738D01*
X41954012Y45086062D01*
X41917831Y44976977D01*
X41902203Y44929861D01*
X41891500Y44825400D01*
X41891500Y43258995D01*
X41871498Y43190874D01*
X41817842Y43144381D01*
X41758761Y43135226D01*
X41758663Y43133228D01*
X41754643Y43133425D01*
X41754626Y43133425D01*
X41753101Y43133500D01*
X41597154Y43133500D01*
X41439434Y43118452D01*
X41236466Y43058908D01*
X41231139Y43056164D01*
X41231138Y43056164D01*
X41053751Y42964804D01*
X41053748Y42964802D01*
X41048420Y42962058D01*
X40882080Y42831396D01*
X40878148Y42826865D01*
X40878145Y42826862D01*
X40805845Y42743543D01*
X40743448Y42671637D01*
X40740448Y42666451D01*
X40740445Y42666447D01*
X40653894Y42516837D01*
X40637527Y42488546D01*
X40568139Y42288729D01*
X40537787Y42079396D01*
X5500000Y42079396D01*
X5500000Y42913938D01*
X8778493Y42913938D01*
X8787789Y42901923D01*
X8838994Y42866069D01*
X8848489Y42860586D01*
X9045947Y42768510D01*
X9056239Y42764764D01*
X9266688Y42708375D01*
X9277481Y42706472D01*
X9494525Y42687483D01*
X9505475Y42687483D01*
X9722519Y42706472D01*
X9733312Y42708375D01*
X9943761Y42764764D01*
X9954053Y42768510D01*
X10151511Y42860586D01*
X10161006Y42866069D01*
X10213048Y42902509D01*
X10221424Y42912988D01*
X10214356Y42926434D01*
X9512812Y43627978D01*
X9498868Y43635592D01*
X9497035Y43635461D01*
X9490420Y43631210D01*
X8784923Y42925713D01*
X8778493Y42913938D01*
X5500000Y42913938D01*
X5500000Y43994525D01*
X8187483Y43994525D01*
X8206472Y43777481D01*
X8208375Y43766688D01*
X8264764Y43556239D01*
X8268510Y43545947D01*
X8360586Y43348489D01*
X8366069Y43338994D01*
X8402509Y43286952D01*
X8412988Y43278576D01*
X8426434Y43285644D01*
X9127978Y43987188D01*
X9134356Y43998868D01*
X9864408Y43998868D01*
X9864539Y43997035D01*
X9868790Y43990420D01*
X10226199Y43633011D01*
X10258811Y43576527D01*
X10265716Y43550757D01*
X10268039Y43545776D01*
X10268039Y43545775D01*
X10360151Y43348238D01*
X10360154Y43348233D01*
X10362477Y43343251D01*
X10365634Y43338743D01*
X10476634Y43180219D01*
X10493802Y43155700D01*
X10655700Y42993802D01*
X10660208Y42990645D01*
X10660211Y42990643D01*
X10697113Y42964804D01*
X10843251Y42862477D01*
X10848233Y42860154D01*
X10848238Y42860151D01*
X11029277Y42775732D01*
X11050757Y42765716D01*
X11056065Y42764294D01*
X11056067Y42764293D01*
X11266598Y42707881D01*
X11266600Y42707881D01*
X11271913Y42706457D01*
X11500000Y42686502D01*
X11728087Y42706457D01*
X11733400Y42707881D01*
X11733402Y42707881D01*
X11943933Y42764293D01*
X11943935Y42764294D01*
X11949243Y42765716D01*
X11970723Y42775732D01*
X12151762Y42860151D01*
X12151767Y42860154D01*
X12156749Y42862477D01*
X12302887Y42964804D01*
X12339789Y42990643D01*
X12339792Y42990645D01*
X12344300Y42993802D01*
X12506198Y43155700D01*
X12523367Y43180219D01*
X12634366Y43338743D01*
X12637523Y43343251D01*
X12639846Y43348233D01*
X12639849Y43348238D01*
X12731961Y43545775D01*
X12731961Y43545776D01*
X12734284Y43550757D01*
X12754976Y43627978D01*
X12792119Y43766598D01*
X12792119Y43766600D01*
X12793543Y43771913D01*
X12813498Y44000000D01*
X31184647Y44000000D01*
X31204022Y43778537D01*
X31261560Y43563804D01*
X31263882Y43558823D01*
X31263883Y43558822D01*
X31353186Y43367311D01*
X31353189Y43367306D01*
X31355512Y43362324D01*
X31358668Y43357817D01*
X31358669Y43357815D01*
X31427864Y43258995D01*
X31483023Y43180219D01*
X31640219Y43023023D01*
X31644727Y43019866D01*
X31644730Y43019864D01*
X31676385Y42997699D01*
X31822323Y42895512D01*
X31827305Y42893189D01*
X31827310Y42893186D01*
X32018822Y42803883D01*
X32023804Y42801560D01*
X32029112Y42800138D01*
X32029114Y42800137D01*
X32052619Y42793839D01*
X32238537Y42744022D01*
X32460000Y42724647D01*
X32681463Y42744022D01*
X32867381Y42793839D01*
X32890886Y42800137D01*
X32890888Y42800138D01*
X32896196Y42801560D01*
X32901178Y42803883D01*
X33092690Y42893186D01*
X33092695Y42893189D01*
X33097677Y42895512D01*
X33243615Y42997699D01*
X33275270Y43019864D01*
X33275273Y43019866D01*
X33279781Y43023023D01*
X33436977Y43180219D01*
X33492137Y43258995D01*
X33561331Y43357815D01*
X33561332Y43357817D01*
X33564488Y43362324D01*
X33566811Y43367306D01*
X33566814Y43367311D01*
X33615805Y43472373D01*
X33662723Y43525658D01*
X33731000Y43545119D01*
X33798960Y43524577D01*
X33844195Y43472373D01*
X33893186Y43367311D01*
X33893189Y43367306D01*
X33895512Y43362324D01*
X33898668Y43357817D01*
X33898669Y43357815D01*
X33967864Y43258995D01*
X34023023Y43180219D01*
X34180219Y43023023D01*
X34184727Y43019866D01*
X34184730Y43019864D01*
X34216385Y42997699D01*
X34362323Y42895512D01*
X34367305Y42893189D01*
X34367310Y42893186D01*
X34558822Y42803883D01*
X34563804Y42801560D01*
X34569112Y42800138D01*
X34569114Y42800137D01*
X34592619Y42793839D01*
X34778537Y42744022D01*
X35000000Y42724647D01*
X35221463Y42744022D01*
X35407381Y42793839D01*
X35430886Y42800137D01*
X35430888Y42800138D01*
X35436196Y42801560D01*
X35441178Y42803883D01*
X35632690Y42893186D01*
X35632695Y42893189D01*
X35637677Y42895512D01*
X35783615Y42997699D01*
X35815270Y43019864D01*
X35815273Y43019866D01*
X35819781Y43023023D01*
X35976977Y43180219D01*
X36032137Y43258995D01*
X36101331Y43357815D01*
X36101332Y43357817D01*
X36104488Y43362324D01*
X36106811Y43367306D01*
X36106814Y43367311D01*
X36155805Y43472373D01*
X36202723Y43525658D01*
X36271000Y43545119D01*
X36338960Y43524577D01*
X36384195Y43472373D01*
X36433186Y43367311D01*
X36433189Y43367306D01*
X36435512Y43362324D01*
X36438668Y43357817D01*
X36438669Y43357815D01*
X36507864Y43258995D01*
X36563023Y43180219D01*
X36720219Y43023023D01*
X36724727Y43019866D01*
X36724730Y43019864D01*
X36756385Y42997699D01*
X36902323Y42895512D01*
X36907305Y42893189D01*
X36907310Y42893186D01*
X37098822Y42803883D01*
X37103804Y42801560D01*
X37109112Y42800138D01*
X37109114Y42800137D01*
X37132619Y42793839D01*
X37318537Y42744022D01*
X37540000Y42724647D01*
X37761463Y42744022D01*
X37947381Y42793839D01*
X37970886Y42800137D01*
X37970888Y42800138D01*
X37976196Y42801560D01*
X37981178Y42803883D01*
X38172690Y42893186D01*
X38172695Y42893189D01*
X38177677Y42895512D01*
X38323615Y42997699D01*
X38355270Y43019864D01*
X38355273Y43019866D01*
X38359781Y43023023D01*
X38516977Y43180219D01*
X38572137Y43258995D01*
X38641331Y43357815D01*
X38641332Y43357817D01*
X38644488Y43362324D01*
X38646811Y43367306D01*
X38646814Y43367311D01*
X38736117Y43558822D01*
X38736118Y43558823D01*
X38738440Y43563804D01*
X38795978Y43778537D01*
X38815353Y44000000D01*
X38795978Y44221463D01*
X38738440Y44436196D01*
X38736117Y44441178D01*
X38646814Y44632689D01*
X38646811Y44632694D01*
X38644488Y44637676D01*
X38628152Y44661006D01*
X38520136Y44815270D01*
X38520134Y44815273D01*
X38516977Y44819781D01*
X38359781Y44976977D01*
X38355273Y44980134D01*
X38355270Y44980136D01*
X38220808Y45074287D01*
X38177677Y45104488D01*
X38172695Y45106811D01*
X38172690Y45106814D01*
X37981178Y45196117D01*
X37981177Y45196118D01*
X37976196Y45198440D01*
X37970888Y45199862D01*
X37970886Y45199863D01*
X37879805Y45224268D01*
X37761463Y45255978D01*
X37540000Y45275353D01*
X37318537Y45255978D01*
X37200195Y45224268D01*
X37109114Y45199863D01*
X37109112Y45199862D01*
X37103804Y45198440D01*
X37098823Y45196118D01*
X37098822Y45196117D01*
X36907311Y45106814D01*
X36907306Y45106811D01*
X36902324Y45104488D01*
X36897817Y45101332D01*
X36897815Y45101331D01*
X36724730Y44980136D01*
X36724727Y44980134D01*
X36720219Y44976977D01*
X36563023Y44819781D01*
X36559866Y44815273D01*
X36559864Y44815270D01*
X36451848Y44661006D01*
X36435512Y44637676D01*
X36433189Y44632694D01*
X36433186Y44632689D01*
X36384195Y44527627D01*
X36337277Y44474342D01*
X36269000Y44454881D01*
X36201040Y44475423D01*
X36155805Y44527627D01*
X36106814Y44632689D01*
X36106811Y44632694D01*
X36104488Y44637676D01*
X36088152Y44661006D01*
X35980136Y44815270D01*
X35980134Y44815273D01*
X35976977Y44819781D01*
X35819781Y44976977D01*
X35815273Y44980134D01*
X35815270Y44980136D01*
X35680808Y45074287D01*
X35637677Y45104488D01*
X35632695Y45106811D01*
X35632690Y45106814D01*
X35441178Y45196117D01*
X35441177Y45196118D01*
X35436196Y45198440D01*
X35430888Y45199862D01*
X35430886Y45199863D01*
X35339805Y45224268D01*
X35221463Y45255978D01*
X35000000Y45275353D01*
X34778537Y45255978D01*
X34660195Y45224268D01*
X34569114Y45199863D01*
X34569112Y45199862D01*
X34563804Y45198440D01*
X34558823Y45196118D01*
X34558822Y45196117D01*
X34367311Y45106814D01*
X34367306Y45106811D01*
X34362324Y45104488D01*
X34357817Y45101332D01*
X34357815Y45101331D01*
X34184730Y44980136D01*
X34184727Y44980134D01*
X34180219Y44976977D01*
X34023023Y44819781D01*
X34019866Y44815273D01*
X34019864Y44815270D01*
X33911848Y44661006D01*
X33895512Y44637676D01*
X33893189Y44632694D01*
X33893186Y44632689D01*
X33844195Y44527627D01*
X33797277Y44474342D01*
X33729000Y44454881D01*
X33661040Y44475423D01*
X33615805Y44527627D01*
X33566814Y44632689D01*
X33566811Y44632694D01*
X33564488Y44637676D01*
X33548152Y44661006D01*
X33440136Y44815270D01*
X33440134Y44815273D01*
X33436977Y44819781D01*
X33279781Y44976977D01*
X33275273Y44980134D01*
X33275270Y44980136D01*
X33140808Y45074287D01*
X33097677Y45104488D01*
X33092695Y45106811D01*
X33092690Y45106814D01*
X32901178Y45196117D01*
X32901177Y45196118D01*
X32896196Y45198440D01*
X32890888Y45199862D01*
X32890886Y45199863D01*
X32799805Y45224268D01*
X32681463Y45255978D01*
X32460000Y45275353D01*
X32238537Y45255978D01*
X32120195Y45224268D01*
X32029114Y45199863D01*
X32029112Y45199862D01*
X32023804Y45198440D01*
X32018823Y45196118D01*
X32018822Y45196117D01*
X31827311Y45106814D01*
X31827306Y45106811D01*
X31822324Y45104488D01*
X31817817Y45101332D01*
X31817815Y45101331D01*
X31644730Y44980136D01*
X31644727Y44980134D01*
X31640219Y44976977D01*
X31483023Y44819781D01*
X31479866Y44815273D01*
X31479864Y44815270D01*
X31371848Y44661006D01*
X31355512Y44637676D01*
X31353189Y44632694D01*
X31353186Y44632689D01*
X31263883Y44441178D01*
X31261560Y44436196D01*
X31204022Y44221463D01*
X31184647Y44000000D01*
X12813498Y44000000D01*
X12793543Y44228087D01*
X12774189Y44300317D01*
X12735707Y44443933D01*
X12735706Y44443935D01*
X12734284Y44449243D01*
X12665732Y44596255D01*
X12639849Y44651762D01*
X12639846Y44651767D01*
X12637523Y44656749D01*
X12526525Y44815270D01*
X12509357Y44839789D01*
X12509355Y44839792D01*
X12506198Y44844300D01*
X12344300Y45006198D01*
X12339792Y45009355D01*
X12339789Y45009357D01*
X12213920Y45097491D01*
X12156749Y45137523D01*
X12151767Y45139846D01*
X12151762Y45139849D01*
X11954225Y45231961D01*
X11954224Y45231961D01*
X11949243Y45234284D01*
X11943935Y45235706D01*
X11943933Y45235707D01*
X11733402Y45292119D01*
X11733400Y45292119D01*
X11728087Y45293543D01*
X11500000Y45313498D01*
X11271913Y45293543D01*
X11266600Y45292119D01*
X11266598Y45292119D01*
X11056067Y45235707D01*
X11056065Y45235706D01*
X11050757Y45234284D01*
X11045776Y45231961D01*
X11045775Y45231961D01*
X10848238Y45139849D01*
X10848233Y45139846D01*
X10843251Y45137523D01*
X10786080Y45097491D01*
X10660211Y45009357D01*
X10660208Y45009355D01*
X10655700Y45006198D01*
X10493802Y44844300D01*
X10490645Y44839792D01*
X10490643Y44839789D01*
X10473475Y44815270D01*
X10362477Y44656749D01*
X10360154Y44651767D01*
X10360151Y44651762D01*
X10334268Y44596255D01*
X10265716Y44449243D01*
X10264294Y44443935D01*
X10264293Y44443933D01*
X10258811Y44423473D01*
X10226199Y44366989D01*
X9872022Y44012812D01*
X9864408Y43998868D01*
X9134356Y43998868D01*
X9135592Y44001132D01*
X9135461Y44002965D01*
X9131210Y44009580D01*
X8425713Y44715077D01*
X8413938Y44721507D01*
X8401923Y44712211D01*
X8366069Y44661006D01*
X8360586Y44651511D01*
X8268510Y44454053D01*
X8264764Y44443761D01*
X8208375Y44233312D01*
X8206472Y44222519D01*
X8187483Y44005475D01*
X8187483Y43994525D01*
X5500000Y43994525D01*
X5500000Y45087012D01*
X8778576Y45087012D01*
X8785644Y45073566D01*
X9487188Y44372022D01*
X9501132Y44364408D01*
X9502965Y44364539D01*
X9509580Y44368790D01*
X10215077Y45074287D01*
X10221507Y45086062D01*
X10212211Y45098077D01*
X10161006Y45133931D01*
X10151511Y45139414D01*
X9954053Y45231490D01*
X9943761Y45235236D01*
X9733312Y45291625D01*
X9722519Y45293528D01*
X9505475Y45312517D01*
X9494525Y45312517D01*
X9277481Y45293528D01*
X9266688Y45291625D01*
X9056239Y45235236D01*
X9045947Y45231490D01*
X8848489Y45139414D01*
X8838994Y45133931D01*
X8786952Y45097491D01*
X8778576Y45087012D01*
X5500000Y45087012D01*
X5500000Y46365500D01*
X5520002Y46433621D01*
X5573658Y46480114D01*
X5626000Y46491500D01*
X66374000Y46491500D01*
X66442121Y46471498D01*
G37*
%TD.AperFunction*%
%TD*%
M02*
