%TF.GenerationSoftware,KiCad,Pcbnew,6.0.6-3a73a75311~116~ubuntu20.04.1*%
%TF.CreationDate,2023-06-17T23:04:22+09:00*%
%TF.ProjectId,catchrobo2023,63617463-6872-46f6-926f-323032332e6b,rev?*%
%TF.SameCoordinates,Original*%
%TF.FileFunction,Legend,Top*%
%TF.FilePolarity,Positive*%
%FSLAX46Y46*%
G04 Gerber Fmt 4.6, Leading zero omitted, Abs format (unit mm)*
G04 Created by KiCad (PCBNEW 6.0.6-3a73a75311~116~ubuntu20.04.1) date 2023-06-17 23:04:22*
%MOMM*%
%LPD*%
G01*
G04 APERTURE LIST*
G04 Aperture macros list*
%AMRoundRect*
0 Rectangle with rounded corners*
0 $1 Rounding radius*
0 $2 $3 $4 $5 $6 $7 $8 $9 X,Y pos of 4 corners*
0 Add a 4 corners polygon primitive as box body*
4,1,4,$2,$3,$4,$5,$6,$7,$8,$9,$2,$3,0*
0 Add four circle primitives for the rounded corners*
1,1,$1+$1,$2,$3*
1,1,$1+$1,$4,$5*
1,1,$1+$1,$6,$7*
1,1,$1+$1,$8,$9*
0 Add four rect primitives between the rounded corners*
20,1,$1+$1,$2,$3,$4,$5,0*
20,1,$1+$1,$4,$5,$6,$7,0*
20,1,$1+$1,$6,$7,$8,$9,0*
20,1,$1+$1,$8,$9,$2,$3,0*%
G04 Aperture macros list end*
%ADD10C,0.150000*%
%ADD11C,0.120000*%
%ADD12RoundRect,0.200000X0.275000X-0.200000X0.275000X0.200000X-0.275000X0.200000X-0.275000X-0.200000X0*%
%ADD13RoundRect,0.150000X0.587500X0.150000X-0.587500X0.150000X-0.587500X-0.150000X0.587500X-0.150000X0*%
%ADD14C,1.200000*%
%ADD15RoundRect,0.250000X0.600000X0.750000X-0.600000X0.750000X-0.600000X-0.750000X0.600000X-0.750000X0*%
%ADD16O,1.700000X2.000000*%
%ADD17R,1.700000X1.700000*%
%ADD18O,1.700000X1.700000*%
%ADD19C,1.600000*%
%ADD20C,3.200000*%
%ADD21RoundRect,0.137500X-0.612500X-0.137500X0.612500X-0.137500X0.612500X0.137500X-0.612500X0.137500X0*%
%ADD22RoundRect,0.200000X-0.275000X0.200000X-0.275000X-0.200000X0.275000X-0.200000X0.275000X0.200000X0*%
%ADD23R,2.200000X1.200000*%
%ADD24R,6.400000X5.800000*%
%ADD25RoundRect,0.135000X-0.185000X0.135000X-0.185000X-0.135000X0.185000X-0.135000X0.185000X0.135000X0*%
%ADD26RoundRect,0.250000X-0.600000X-0.750000X0.600000X-0.750000X0.600000X0.750000X-0.600000X0.750000X0*%
%ADD27R,1.600000X1.600000*%
%ADD28O,1.600000X1.600000*%
%ADD29RoundRect,0.250000X-0.750000X0.600000X-0.750000X-0.600000X0.750000X-0.600000X0.750000X0.600000X0*%
%ADD30O,2.000000X1.700000*%
%ADD31R,1.800000X1.800000*%
%ADD32C,1.800000*%
%ADD33C,1.524000*%
%ADD34R,2.500000X1.800000*%
G04 APERTURE END LIST*
D10*
X13875000Y46500000D02*
X23125000Y46500000D01*
X23125000Y46500000D02*
X23125000Y42000000D01*
X23125000Y42000000D02*
X13875000Y42000000D01*
X13875000Y42000000D02*
X13875000Y46500000D01*
X70283333Y25533334D02*
X70316666Y25633334D01*
X70316666Y25800000D01*
X70283333Y25866667D01*
X70250000Y25900000D01*
X70183333Y25933334D01*
X70116666Y25933334D01*
X70050000Y25900000D01*
X70016666Y25866667D01*
X69983333Y25800000D01*
X69950000Y25666667D01*
X69916666Y25600000D01*
X69883333Y25566667D01*
X69816666Y25533334D01*
X69750000Y25533334D01*
X69683333Y25566667D01*
X69650000Y25600000D01*
X69616666Y25666667D01*
X69616666Y25833334D01*
X69650000Y25933334D01*
X70283333Y26500000D02*
X70316666Y26433334D01*
X70316666Y26300000D01*
X70283333Y26233334D01*
X70216666Y26200000D01*
X69950000Y26200000D01*
X69883333Y26233334D01*
X69850000Y26300000D01*
X69850000Y26433334D01*
X69883333Y26500000D01*
X69950000Y26533334D01*
X70016666Y26533334D01*
X70083333Y26200000D01*
X69850000Y26833334D02*
X70316666Y26833334D01*
X69916666Y26833334D02*
X69883333Y26866667D01*
X69850000Y26933334D01*
X69850000Y27033334D01*
X69883333Y27100000D01*
X69950000Y27133334D01*
X70316666Y27133334D01*
X70283333Y27433334D02*
X70316666Y27500000D01*
X70316666Y27633334D01*
X70283333Y27700000D01*
X70216666Y27733334D01*
X70183333Y27733334D01*
X70116666Y27700000D01*
X70083333Y27633334D01*
X70083333Y27533334D01*
X70050000Y27466667D01*
X69983333Y27433334D01*
X69950000Y27433334D01*
X69883333Y27466667D01*
X69850000Y27533334D01*
X69850000Y27633334D01*
X69883333Y27700000D01*
X70316666Y28133334D02*
X70283333Y28066667D01*
X70250000Y28033334D01*
X70183333Y28000000D01*
X69983333Y28000000D01*
X69916666Y28033334D01*
X69883333Y28066667D01*
X69850000Y28133334D01*
X69850000Y28233334D01*
X69883333Y28300000D01*
X69916666Y28333334D01*
X69983333Y28366667D01*
X70183333Y28366667D01*
X70250000Y28333334D01*
X70283333Y28300000D01*
X70316666Y28233334D01*
X70316666Y28133334D01*
X70316666Y28666667D02*
X69850000Y28666667D01*
X69983333Y28666667D02*
X69916666Y28700000D01*
X69883333Y28733334D01*
X69850000Y28800000D01*
X69850000Y28866667D01*
X69616666Y29233334D02*
X69616666Y29300000D01*
X69650000Y29366667D01*
X69683333Y29400000D01*
X69750000Y29433334D01*
X69883333Y29466667D01*
X70050000Y29466667D01*
X70183333Y29433334D01*
X70250000Y29400000D01*
X70283333Y29366667D01*
X70316666Y29300000D01*
X70316666Y29233334D01*
X70283333Y29166667D01*
X70250000Y29133334D01*
X70183333Y29100000D01*
X70050000Y29066667D01*
X69883333Y29066667D01*
X69750000Y29100000D01*
X69683333Y29133334D01*
X69650000Y29166667D01*
X69616666Y29233334D01*
X8885714Y4828572D02*
X8600000Y4828572D01*
X8571428Y4542858D01*
X8600000Y4571429D01*
X8657142Y4600000D01*
X8800000Y4600000D01*
X8857142Y4571429D01*
X8885714Y4542858D01*
X8914285Y4485715D01*
X8914285Y4342858D01*
X8885714Y4285715D01*
X8857142Y4257143D01*
X8800000Y4228572D01*
X8657142Y4228572D01*
X8600000Y4257143D01*
X8571428Y4285715D01*
X9085714Y4828572D02*
X9285714Y4228572D01*
X9485714Y4828572D01*
X2782095Y29476191D02*
X3582095Y29476191D01*
X3010666Y29209524D01*
X3582095Y28942858D01*
X2782095Y28942858D01*
X2782095Y28219048D02*
X3201142Y28219048D01*
X3277333Y28257143D01*
X3315428Y28333334D01*
X3315428Y28485715D01*
X3277333Y28561905D01*
X2820190Y28219048D02*
X2782095Y28295239D01*
X2782095Y28485715D01*
X2820190Y28561905D01*
X2896380Y28600000D01*
X2972571Y28600000D01*
X3048761Y28561905D01*
X3086857Y28485715D01*
X3086857Y28295239D01*
X3124952Y28219048D01*
X2782095Y27838096D02*
X3315428Y27838096D01*
X3582095Y27838096D02*
X3544000Y27876191D01*
X3505904Y27838096D01*
X3544000Y27800000D01*
X3582095Y27838096D01*
X3505904Y27838096D01*
X3315428Y27457143D02*
X2782095Y27457143D01*
X3239238Y27457143D02*
X3277333Y27419048D01*
X3315428Y27342858D01*
X3315428Y27228572D01*
X3277333Y27152381D01*
X3201142Y27114286D01*
X2782095Y27114286D01*
X2820190Y26161905D02*
X2782095Y26047620D01*
X2782095Y25857143D01*
X2820190Y25780953D01*
X2858285Y25742858D01*
X2934476Y25704762D01*
X3010666Y25704762D01*
X3086857Y25742858D01*
X3124952Y25780953D01*
X3163047Y25857143D01*
X3201142Y26009524D01*
X3239238Y26085715D01*
X3277333Y26123810D01*
X3353523Y26161905D01*
X3429714Y26161905D01*
X3505904Y26123810D01*
X3544000Y26085715D01*
X3582095Y26009524D01*
X3582095Y25819048D01*
X3544000Y25704762D01*
X3315428Y25019048D02*
X2782095Y25019048D01*
X3315428Y25361905D02*
X2896380Y25361905D01*
X2820190Y25323810D01*
X2782095Y25247620D01*
X2782095Y25133334D01*
X2820190Y25057143D01*
X2858285Y25019048D01*
X2782095Y24638096D02*
X3582095Y24638096D01*
X3277333Y24638096D02*
X3315428Y24561905D01*
X3315428Y24409524D01*
X3277333Y24333334D01*
X3239238Y24295239D01*
X3163047Y24257143D01*
X2934476Y24257143D01*
X2858285Y24295239D01*
X2820190Y24333334D01*
X2782095Y24409524D01*
X2782095Y24561905D01*
X2820190Y24638096D01*
X2820190Y23952381D02*
X2782095Y23876191D01*
X2782095Y23723810D01*
X2820190Y23647620D01*
X2896380Y23609524D01*
X2934476Y23609524D01*
X3010666Y23647620D01*
X3048761Y23723810D01*
X3048761Y23838096D01*
X3086857Y23914286D01*
X3163047Y23952381D01*
X3201142Y23952381D01*
X3277333Y23914286D01*
X3315428Y23838096D01*
X3315428Y23723810D01*
X3277333Y23647620D01*
X3315428Y23380953D02*
X3315428Y23076191D01*
X3582095Y23266667D02*
X2896380Y23266667D01*
X2820190Y23228572D01*
X2782095Y23152381D01*
X2782095Y23076191D01*
X2782095Y22809524D02*
X3315428Y22809524D01*
X3163047Y22809524D02*
X3239238Y22771429D01*
X3277333Y22733334D01*
X3315428Y22657143D01*
X3315428Y22580953D01*
X2782095Y21971429D02*
X3201142Y21971429D01*
X3277333Y22009524D01*
X3315428Y22085715D01*
X3315428Y22238096D01*
X3277333Y22314286D01*
X2820190Y21971429D02*
X2782095Y22047620D01*
X2782095Y22238096D01*
X2820190Y22314286D01*
X2896380Y22352381D01*
X2972571Y22352381D01*
X3048761Y22314286D01*
X3086857Y22238096D01*
X3086857Y22047620D01*
X3124952Y21971429D01*
X3315428Y21704762D02*
X3315428Y21400000D01*
X3582095Y21590477D02*
X2896380Y21590477D01*
X2820190Y21552381D01*
X2782095Y21476191D01*
X2782095Y21400000D01*
X2820190Y20828572D02*
X2782095Y20904762D01*
X2782095Y21057143D01*
X2820190Y21133334D01*
X2896380Y21171429D01*
X3201142Y21171429D01*
X3277333Y21133334D01*
X3315428Y21057143D01*
X3315428Y20904762D01*
X3277333Y20828572D01*
X3201142Y20790477D01*
X3124952Y20790477D01*
X3048761Y21171429D01*
X3315428Y19952381D02*
X3315428Y19647620D01*
X2782095Y19838096D02*
X3467809Y19838096D01*
X3544000Y19800000D01*
X3582095Y19723810D01*
X3582095Y19647620D01*
X2782095Y19266667D02*
X2820190Y19342858D01*
X2858285Y19380953D01*
X2934476Y19419048D01*
X3163047Y19419048D01*
X3239238Y19380953D01*
X3277333Y19342858D01*
X3315428Y19266667D01*
X3315428Y19152381D01*
X3277333Y19076191D01*
X3239238Y19038096D01*
X3163047Y19000000D01*
X2934476Y19000000D01*
X2858285Y19038096D01*
X2820190Y19076191D01*
X2782095Y19152381D01*
X2782095Y19266667D01*
X2782095Y18657143D02*
X3315428Y18657143D01*
X3163047Y18657143D02*
X3239238Y18619048D01*
X3277333Y18580953D01*
X3315428Y18504762D01*
X3315428Y18428572D01*
X2858285Y17095239D02*
X2820190Y17133334D01*
X2782095Y17247620D01*
X2782095Y17323810D01*
X2820190Y17438096D01*
X2896380Y17514286D01*
X2972571Y17552381D01*
X3124952Y17590477D01*
X3239238Y17590477D01*
X3391619Y17552381D01*
X3467809Y17514286D01*
X3544000Y17438096D01*
X3582095Y17323810D01*
X3582095Y17247620D01*
X3544000Y17133334D01*
X3505904Y17095239D01*
X2782095Y16409524D02*
X3201142Y16409524D01*
X3277333Y16447620D01*
X3315428Y16523810D01*
X3315428Y16676191D01*
X3277333Y16752381D01*
X2820190Y16409524D02*
X2782095Y16485715D01*
X2782095Y16676191D01*
X2820190Y16752381D01*
X2896380Y16790477D01*
X2972571Y16790477D01*
X3048761Y16752381D01*
X3086857Y16676191D01*
X3086857Y16485715D01*
X3124952Y16409524D01*
X3315428Y16142858D02*
X3315428Y15838096D01*
X3582095Y16028572D02*
X2896380Y16028572D01*
X2820190Y15990477D01*
X2782095Y15914286D01*
X2782095Y15838096D01*
X2820190Y15228572D02*
X2782095Y15304762D01*
X2782095Y15457143D01*
X2820190Y15533334D01*
X2858285Y15571429D01*
X2934476Y15609524D01*
X3163047Y15609524D01*
X3239238Y15571429D01*
X3277333Y15533334D01*
X3315428Y15457143D01*
X3315428Y15304762D01*
X3277333Y15228572D01*
X2782095Y14885715D02*
X3582095Y14885715D01*
X2782095Y14542858D02*
X3201142Y14542858D01*
X3277333Y14580953D01*
X3315428Y14657143D01*
X3315428Y14771429D01*
X3277333Y14847620D01*
X3239238Y14885715D01*
X2782095Y13704762D02*
X3163047Y13971429D01*
X2782095Y14161905D02*
X3582095Y14161905D01*
X3582095Y13857143D01*
X3544000Y13780953D01*
X3505904Y13742858D01*
X3429714Y13704762D01*
X3315428Y13704762D01*
X3239238Y13742858D01*
X3201142Y13780953D01*
X3163047Y13857143D01*
X3163047Y14161905D01*
X2782095Y13247620D02*
X2820190Y13323810D01*
X2858285Y13361905D01*
X2934476Y13400000D01*
X3163047Y13400000D01*
X3239238Y13361905D01*
X3277333Y13323810D01*
X3315428Y13247620D01*
X3315428Y13133334D01*
X3277333Y13057143D01*
X3239238Y13019048D01*
X3163047Y12980953D01*
X2934476Y12980953D01*
X2858285Y13019048D01*
X2820190Y13057143D01*
X2782095Y13133334D01*
X2782095Y13247620D01*
X2782095Y12638096D02*
X3582095Y12638096D01*
X3277333Y12638096D02*
X3315428Y12561905D01*
X3315428Y12409524D01*
X3277333Y12333334D01*
X3239238Y12295239D01*
X3163047Y12257143D01*
X2934476Y12257143D01*
X2858285Y12295239D01*
X2820190Y12333334D01*
X2782095Y12409524D01*
X2782095Y12561905D01*
X2820190Y12638096D01*
X2782095Y11800001D02*
X2820190Y11876191D01*
X2858285Y11914286D01*
X2934476Y11952381D01*
X3163047Y11952381D01*
X3239238Y11914286D01*
X3277333Y11876191D01*
X3315428Y11800001D01*
X3315428Y11685715D01*
X3277333Y11609524D01*
X3239238Y11571429D01*
X3163047Y11533334D01*
X2934476Y11533334D01*
X2858285Y11571429D01*
X2820190Y11609524D01*
X2782095Y11685715D01*
X2782095Y11800001D01*
X3505904Y11228572D02*
X3544000Y11190477D01*
X3582095Y11114286D01*
X3582095Y10923810D01*
X3544000Y10847620D01*
X3505904Y10809524D01*
X3429714Y10771429D01*
X3353523Y10771429D01*
X3239238Y10809524D01*
X2782095Y11266667D01*
X2782095Y10771429D01*
X3582095Y10276191D02*
X3582095Y10200001D01*
X3544000Y10123810D01*
X3505904Y10085715D01*
X3429714Y10047620D01*
X3277333Y10009524D01*
X3086857Y10009524D01*
X2934476Y10047620D01*
X2858285Y10085715D01*
X2820190Y10123810D01*
X2782095Y10200001D01*
X2782095Y10276191D01*
X2820190Y10352381D01*
X2858285Y10390477D01*
X2934476Y10428572D01*
X3086857Y10466667D01*
X3277333Y10466667D01*
X3429714Y10428572D01*
X3505904Y10390477D01*
X3544000Y10352381D01*
X3582095Y10276191D01*
X3505904Y9704762D02*
X3544000Y9666667D01*
X3582095Y9590477D01*
X3582095Y9400001D01*
X3544000Y9323810D01*
X3505904Y9285715D01*
X3429714Y9247620D01*
X3353523Y9247620D01*
X3239238Y9285715D01*
X2782095Y9742858D01*
X2782095Y9247620D01*
X3582095Y8980953D02*
X3582095Y8485715D01*
X3277333Y8752381D01*
X3277333Y8638096D01*
X3239238Y8561905D01*
X3201142Y8523810D01*
X3124952Y8485715D01*
X2934476Y8485715D01*
X2858285Y8523810D01*
X2820190Y8561905D01*
X2782095Y8638096D01*
X2782095Y8866667D01*
X2820190Y8942858D01*
X2858285Y8980953D01*
X1570285Y25361905D02*
X1532190Y25400000D01*
X1494095Y25514286D01*
X1494095Y25590477D01*
X1532190Y25704762D01*
X1608380Y25780953D01*
X1684571Y25819048D01*
X1836952Y25857143D01*
X1951238Y25857143D01*
X2103619Y25819048D01*
X2179809Y25780953D01*
X2256000Y25704762D01*
X2294095Y25590477D01*
X2294095Y25514286D01*
X2256000Y25400000D01*
X2217904Y25361905D01*
X1494095Y25019048D02*
X2027428Y25019048D01*
X1875047Y25019048D02*
X1951238Y24980953D01*
X1989333Y24942858D01*
X2027428Y24866667D01*
X2027428Y24790477D01*
X1532190Y24219048D02*
X1494095Y24295239D01*
X1494095Y24447620D01*
X1532190Y24523810D01*
X1608380Y24561905D01*
X1913142Y24561905D01*
X1989333Y24523810D01*
X2027428Y24447620D01*
X2027428Y24295239D01*
X1989333Y24219048D01*
X1913142Y24180953D01*
X1836952Y24180953D01*
X1760761Y24561905D01*
X1494095Y23495239D02*
X1913142Y23495239D01*
X1989333Y23533334D01*
X2027428Y23609524D01*
X2027428Y23761905D01*
X1989333Y23838096D01*
X1532190Y23495239D02*
X1494095Y23571429D01*
X1494095Y23761905D01*
X1532190Y23838096D01*
X1608380Y23876191D01*
X1684571Y23876191D01*
X1760761Y23838096D01*
X1798857Y23761905D01*
X1798857Y23571429D01*
X1836952Y23495239D01*
X2027428Y23228572D02*
X2027428Y22923810D01*
X2294095Y23114286D02*
X1608380Y23114286D01*
X1532190Y23076191D01*
X1494095Y23000000D01*
X1494095Y22923810D01*
X1532190Y22352381D02*
X1494095Y22428572D01*
X1494095Y22580953D01*
X1532190Y22657143D01*
X1608380Y22695239D01*
X1913142Y22695239D01*
X1989333Y22657143D01*
X2027428Y22580953D01*
X2027428Y22428572D01*
X1989333Y22352381D01*
X1913142Y22314286D01*
X1836952Y22314286D01*
X1760761Y22695239D01*
X1494095Y21628572D02*
X2294095Y21628572D01*
X1532190Y21628572D02*
X1494095Y21704762D01*
X1494095Y21857143D01*
X1532190Y21933334D01*
X1570285Y21971429D01*
X1646476Y22009524D01*
X1875047Y22009524D01*
X1951238Y21971429D01*
X1989333Y21933334D01*
X2027428Y21857143D01*
X2027428Y21704762D01*
X1989333Y21628572D01*
X1494095Y20638096D02*
X2294095Y20638096D01*
X1989333Y20638096D02*
X2027428Y20561905D01*
X2027428Y20409524D01*
X1989333Y20333334D01*
X1951238Y20295239D01*
X1875047Y20257143D01*
X1646476Y20257143D01*
X1570285Y20295239D01*
X1532190Y20333334D01*
X1494095Y20409524D01*
X1494095Y20561905D01*
X1532190Y20638096D01*
X2027428Y19990477D02*
X1494095Y19800000D01*
X2027428Y19609524D02*
X1494095Y19800000D01*
X1303619Y19876191D01*
X1265523Y19914286D01*
X1227428Y19990477D01*
X1494095Y18695239D02*
X2294095Y18695239D01*
X2294095Y18504762D01*
X2256000Y18390477D01*
X2179809Y18314286D01*
X2103619Y18276191D01*
X1951238Y18238096D01*
X1836952Y18238096D01*
X1684571Y18276191D01*
X1608380Y18314286D01*
X1532190Y18390477D01*
X1494095Y18504762D01*
X1494095Y18695239D01*
X1532190Y17590477D02*
X1494095Y17666667D01*
X1494095Y17819048D01*
X1532190Y17895239D01*
X1608380Y17933334D01*
X1913142Y17933334D01*
X1989333Y17895239D01*
X2027428Y17819048D01*
X2027428Y17666667D01*
X1989333Y17590477D01*
X1913142Y17552381D01*
X1836952Y17552381D01*
X1760761Y17933334D01*
X1494095Y17209524D02*
X2027428Y17209524D01*
X2294095Y17209524D02*
X2256000Y17247620D01*
X2217904Y17209524D01*
X2256000Y17171429D01*
X2294095Y17209524D01*
X2217904Y17209524D01*
X2027428Y16828572D02*
X1341714Y16828572D01*
X1265523Y16866667D01*
X1227428Y16942858D01*
X1227428Y16980953D01*
X2294095Y16828572D02*
X2256000Y16866667D01*
X2217904Y16828572D01*
X2256000Y16790477D01*
X2294095Y16828572D01*
X2217904Y16828572D01*
X1494095Y16447620D02*
X2027428Y16447620D01*
X2294095Y16447620D02*
X2256000Y16485715D01*
X2217904Y16447620D01*
X2256000Y16409524D01*
X2294095Y16447620D01*
X2217904Y16447620D01*
X1494095Y16066667D02*
X2027428Y16066667D01*
X1875047Y16066667D02*
X1951238Y16028572D01*
X1989333Y15990477D01*
X2027428Y15914286D01*
X2027428Y15838096D01*
X1494095Y15457143D02*
X1532190Y15533334D01*
X1570285Y15571429D01*
X1646476Y15609524D01*
X1875047Y15609524D01*
X1951238Y15571429D01*
X1989333Y15533334D01*
X2027428Y15457143D01*
X2027428Y15342858D01*
X1989333Y15266667D01*
X1951238Y15228572D01*
X1875047Y15190477D01*
X1646476Y15190477D01*
X1570285Y15228572D01*
X1532190Y15266667D01*
X1494095Y15342858D01*
X1494095Y15457143D01*
X2294095Y14695239D02*
X2294095Y14619048D01*
X2256000Y14542858D01*
X2217904Y14504762D01*
X2141714Y14466667D01*
X1989333Y14428572D01*
X1798857Y14428572D01*
X1646476Y14466667D01*
X1570285Y14504762D01*
X1532190Y14542858D01*
X1494095Y14619048D01*
X1494095Y14695239D01*
X1532190Y14771429D01*
X1570285Y14809524D01*
X1646476Y14847620D01*
X1798857Y14885715D01*
X1989333Y14885715D01*
X2141714Y14847620D01*
X2217904Y14809524D01*
X2256000Y14771429D01*
X2294095Y14695239D01*
X1494095Y13666667D02*
X1494095Y14123810D01*
X1494095Y13895239D02*
X2294095Y13895239D01*
X2179809Y13971429D01*
X2103619Y14047620D01*
X2065523Y14123810D01*
X2294095Y13400000D02*
X2294095Y12904762D01*
X1989333Y13171429D01*
X1989333Y13057143D01*
X1951238Y12980953D01*
X1913142Y12942858D01*
X1836952Y12904762D01*
X1646476Y12904762D01*
X1570285Y12942858D01*
X1532190Y12980953D01*
X1494095Y13057143D01*
X1494095Y13285715D01*
X1532190Y13361905D01*
X1570285Y13400000D01*
X1951238Y12447620D02*
X1989333Y12523810D01*
X2027428Y12561905D01*
X2103619Y12600000D01*
X2141714Y12600000D01*
X2217904Y12561905D01*
X2256000Y12523810D01*
X2294095Y12447620D01*
X2294095Y12295239D01*
X2256000Y12219048D01*
X2217904Y12180953D01*
X2141714Y12142858D01*
X2103619Y12142858D01*
X2027428Y12180953D01*
X1989333Y12219048D01*
X1951238Y12295239D01*
X1951238Y12447620D01*
X1913142Y12523810D01*
X1875047Y12561905D01*
X1798857Y12600000D01*
X1646476Y12600000D01*
X1570285Y12561905D01*
X1532190Y12523810D01*
X1494095Y12447620D01*
X1494095Y12295239D01*
X1532190Y12219048D01*
X1570285Y12180953D01*
X1646476Y12142858D01*
X1798857Y12142858D01*
X1875047Y12180953D01*
X1913142Y12219048D01*
X1951238Y12295239D01*
X66171428Y43271429D02*
X66171428Y42671429D01*
X65971428Y43100000D01*
X65771428Y42671429D01*
X65771428Y43271429D01*
X65400000Y43271429D02*
X65457142Y43242858D01*
X65485714Y43214286D01*
X65514285Y43157143D01*
X65514285Y42985715D01*
X65485714Y42928572D01*
X65457142Y42900000D01*
X65400000Y42871429D01*
X65314285Y42871429D01*
X65257142Y42900000D01*
X65228571Y42928572D01*
X65200000Y42985715D01*
X65200000Y43157143D01*
X65228571Y43214286D01*
X65257142Y43242858D01*
X65314285Y43271429D01*
X65400000Y43271429D01*
X64685714Y43271429D02*
X64685714Y42671429D01*
X64685714Y43242858D02*
X64742857Y43271429D01*
X64857142Y43271429D01*
X64914285Y43242858D01*
X64942857Y43214286D01*
X64971428Y43157143D01*
X64971428Y42985715D01*
X64942857Y42928572D01*
X64914285Y42900000D01*
X64857142Y42871429D01*
X64742857Y42871429D01*
X64685714Y42900000D01*
X64171428Y43242858D02*
X64228571Y43271429D01*
X64342857Y43271429D01*
X64400000Y43242858D01*
X64428571Y43185715D01*
X64428571Y42957143D01*
X64400000Y42900000D01*
X64342857Y42871429D01*
X64228571Y42871429D01*
X64171428Y42900000D01*
X64142857Y42957143D01*
X64142857Y43014286D01*
X64428571Y43071429D01*
X63457142Y43242858D02*
X63371428Y43271429D01*
X63228571Y43271429D01*
X63171428Y43242858D01*
X63142857Y43214286D01*
X63114285Y43157143D01*
X63114285Y43100000D01*
X63142857Y43042858D01*
X63171428Y43014286D01*
X63228571Y42985715D01*
X63342857Y42957143D01*
X63400000Y42928572D01*
X63428571Y42900000D01*
X63457142Y42842858D01*
X63457142Y42785715D01*
X63428571Y42728572D01*
X63400000Y42700000D01*
X63342857Y42671429D01*
X63200000Y42671429D01*
X63114285Y42700000D01*
X62914285Y42871429D02*
X62800000Y43271429D01*
X62685714Y42985715D01*
X62571428Y43271429D01*
X62457142Y42871429D01*
X62228571Y43271429D02*
X62228571Y42871429D01*
X62228571Y42671429D02*
X62257142Y42700000D01*
X62228571Y42728572D01*
X62200000Y42700000D01*
X62228571Y42671429D01*
X62228571Y42728572D01*
X62028571Y42871429D02*
X61800000Y42871429D01*
X61942857Y42671429D02*
X61942857Y43185715D01*
X61914285Y43242858D01*
X61857142Y43271429D01*
X61800000Y43271429D01*
X61342857Y43242858D02*
X61400000Y43271429D01*
X61514285Y43271429D01*
X61571428Y43242858D01*
X61600000Y43214286D01*
X61628571Y43157143D01*
X61628571Y42985715D01*
X61600000Y42928572D01*
X61571428Y42900000D01*
X61514285Y42871429D01*
X61400000Y42871429D01*
X61342857Y42900000D01*
X61085714Y43271429D02*
X61085714Y42671429D01*
X60828571Y43271429D02*
X60828571Y42957143D01*
X60857142Y42900000D01*
X60914285Y42871429D01*
X61000000Y42871429D01*
X61057142Y42900000D01*
X61085714Y42928572D01*
X20100000Y9740143D02*
X20185714Y9711572D01*
X20328571Y9711572D01*
X20385714Y9740143D01*
X20414285Y9768715D01*
X20442857Y9825858D01*
X20442857Y9883000D01*
X20414285Y9940143D01*
X20385714Y9968715D01*
X20328571Y9997286D01*
X20214285Y10025858D01*
X20157142Y10054429D01*
X20128571Y10083000D01*
X20100000Y10140143D01*
X20100000Y10197286D01*
X20128571Y10254429D01*
X20157142Y10283000D01*
X20214285Y10311572D01*
X20357142Y10311572D01*
X20442857Y10283000D01*
X20928571Y9740143D02*
X20871428Y9711572D01*
X20757142Y9711572D01*
X20700000Y9740143D01*
X20671428Y9797286D01*
X20671428Y10025858D01*
X20700000Y10083000D01*
X20757142Y10111572D01*
X20871428Y10111572D01*
X20928571Y10083000D01*
X20957142Y10025858D01*
X20957142Y9968715D01*
X20671428Y9911572D01*
X21214285Y9711572D02*
X21214285Y10111572D01*
X21214285Y9997286D02*
X21242857Y10054429D01*
X21271428Y10083000D01*
X21328571Y10111572D01*
X21385714Y10111572D01*
X21528571Y10111572D02*
X21671428Y9711572D01*
X21814285Y10111572D01*
X22128571Y9711572D02*
X22071428Y9740143D01*
X22042857Y9768715D01*
X22014285Y9825858D01*
X22014285Y9997286D01*
X22042857Y10054429D01*
X22071428Y10083000D01*
X22128571Y10111572D01*
X22214285Y10111572D01*
X22271428Y10083000D01*
X22300000Y10054429D01*
X22328571Y9997286D01*
X22328571Y9825858D01*
X22300000Y9768715D01*
X22271428Y9740143D01*
X22214285Y9711572D01*
X22128571Y9711572D01*
X22528571Y10311572D02*
X22900000Y10311572D01*
X22700000Y10083000D01*
X22785714Y10083000D01*
X22842857Y10054429D01*
X22871428Y10025858D01*
X22900000Y9968715D01*
X22900000Y9825858D01*
X22871428Y9768715D01*
X22842857Y9740143D01*
X22785714Y9711572D01*
X22614285Y9711572D01*
X22557142Y9740143D01*
X22528571Y9768715D01*
X20528571Y8517000D02*
X20500000Y8545572D01*
X20442857Y8631286D01*
X20414285Y8688429D01*
X20385714Y8774143D01*
X20357142Y8917000D01*
X20357142Y9031286D01*
X20385714Y9174143D01*
X20414285Y9259858D01*
X20442857Y9317000D01*
X20500000Y9402715D01*
X20528571Y9431286D01*
X21071428Y9317000D02*
X21014285Y9345572D01*
X20928571Y9345572D01*
X20842857Y9317000D01*
X20785714Y9259858D01*
X20757142Y9202715D01*
X20728571Y9088429D01*
X20728571Y9002715D01*
X20757142Y8888429D01*
X20785714Y8831286D01*
X20842857Y8774143D01*
X20928571Y8745572D01*
X20985714Y8745572D01*
X21071428Y8774143D01*
X21100000Y8802715D01*
X21100000Y9002715D01*
X20985714Y9002715D01*
X21357142Y8745572D02*
X21357142Y9345572D01*
X21585714Y9345572D01*
X21642857Y9317000D01*
X21671428Y9288429D01*
X21700000Y9231286D01*
X21700000Y9145572D01*
X21671428Y9088429D01*
X21642857Y9059858D01*
X21585714Y9031286D01*
X21357142Y9031286D01*
X21928571Y9288429D02*
X21957142Y9317000D01*
X22014285Y9345572D01*
X22157142Y9345572D01*
X22214285Y9317000D01*
X22242857Y9288429D01*
X22271428Y9231286D01*
X22271428Y9174143D01*
X22242857Y9088429D01*
X21900000Y8745572D01*
X22271428Y8745572D01*
X22471428Y8517000D02*
X22500000Y8545572D01*
X22557142Y8631286D01*
X22585714Y8688429D01*
X22614285Y8774143D01*
X22642857Y8917000D01*
X22642857Y9031286D01*
X22614285Y9174143D01*
X22585714Y9259858D01*
X22557142Y9317000D01*
X22500000Y9402715D01*
X22471428Y9431286D01*
X69700000Y39785715D02*
X69671428Y39728572D01*
X69671428Y39642858D01*
X69700000Y39557143D01*
X69757142Y39500000D01*
X69814285Y39471429D01*
X69928571Y39442858D01*
X70014285Y39442858D01*
X70128571Y39471429D01*
X70185714Y39500000D01*
X70242857Y39557143D01*
X70271428Y39642858D01*
X70271428Y39700000D01*
X70242857Y39785715D01*
X70214285Y39814286D01*
X70014285Y39814286D01*
X70014285Y39700000D01*
X70271428Y40071429D02*
X69671428Y40071429D01*
X69671428Y40300000D01*
X69700000Y40357143D01*
X69728571Y40385715D01*
X69785714Y40414286D01*
X69871428Y40414286D01*
X69928571Y40385715D01*
X69957142Y40357143D01*
X69985714Y40300000D01*
X69985714Y40071429D01*
X69728571Y40642858D02*
X69700000Y40671429D01*
X69671428Y40728572D01*
X69671428Y40871429D01*
X69700000Y40928572D01*
X69728571Y40957143D01*
X69785714Y40985715D01*
X69842857Y40985715D01*
X69928571Y40957143D01*
X70271428Y40614286D01*
X70271428Y40985715D01*
X70271428Y41557143D02*
X70271428Y41214286D01*
X70271428Y41385715D02*
X69671428Y41385715D01*
X69757142Y41328572D01*
X69814285Y41271429D01*
X69842857Y41214286D01*
X25228571Y40328572D02*
X25828571Y40328572D01*
X25828571Y40100000D01*
X25800000Y40042858D01*
X25771428Y40014286D01*
X25714285Y39985715D01*
X25628571Y39985715D01*
X25571428Y40014286D01*
X25542857Y40042858D01*
X25514285Y40100000D01*
X25514285Y40328572D01*
X25228571Y39642858D02*
X25257142Y39700000D01*
X25285714Y39728572D01*
X25342857Y39757143D01*
X25514285Y39757143D01*
X25571428Y39728572D01*
X25600000Y39700000D01*
X25628571Y39642858D01*
X25628571Y39557143D01*
X25600000Y39500000D01*
X25571428Y39471429D01*
X25514285Y39442858D01*
X25342857Y39442858D01*
X25285714Y39471429D01*
X25257142Y39500000D01*
X25228571Y39557143D01*
X25228571Y39642858D01*
X25628571Y39242858D02*
X25228571Y39128572D01*
X25514285Y39014286D01*
X25228571Y38900000D01*
X25628571Y38785715D01*
X25257142Y38328572D02*
X25228571Y38385715D01*
X25228571Y38500000D01*
X25257142Y38557143D01*
X25314285Y38585715D01*
X25542857Y38585715D01*
X25600000Y38557143D01*
X25628571Y38500000D01*
X25628571Y38385715D01*
X25600000Y38328572D01*
X25542857Y38300000D01*
X25485714Y38300000D01*
X25428571Y38585715D01*
X25228571Y38042858D02*
X25628571Y38042858D01*
X25514285Y38042858D02*
X25571428Y38014286D01*
X25600000Y37985715D01*
X25628571Y37928572D01*
X25628571Y37871429D01*
X25628571Y37300000D02*
X25628571Y37071429D01*
X25828571Y37214286D02*
X25314285Y37214286D01*
X25257142Y37185715D01*
X25228571Y37128572D01*
X25228571Y37071429D01*
X25228571Y36785715D02*
X25257142Y36842858D01*
X25285714Y36871429D01*
X25342857Y36900000D01*
X25514285Y36900000D01*
X25571428Y36871429D01*
X25600000Y36842858D01*
X25628571Y36785715D01*
X25628571Y36700000D01*
X25600000Y36642858D01*
X25571428Y36614286D01*
X25514285Y36585715D01*
X25342857Y36585715D01*
X25285714Y36614286D01*
X25257142Y36642858D01*
X25228571Y36700000D01*
X25228571Y36785715D01*
X25228571Y35871429D02*
X25828571Y35871429D01*
X25400000Y35671429D01*
X25828571Y35471429D01*
X25228571Y35471429D01*
X25228571Y35100000D02*
X25257142Y35157143D01*
X25285714Y35185715D01*
X25342857Y35214286D01*
X25514285Y35214286D01*
X25571428Y35185715D01*
X25600000Y35157143D01*
X25628571Y35100000D01*
X25628571Y35014286D01*
X25600000Y34957143D01*
X25571428Y34928572D01*
X25514285Y34900000D01*
X25342857Y34900000D01*
X25285714Y34928572D01*
X25257142Y34957143D01*
X25228571Y35014286D01*
X25228571Y35100000D01*
X25628571Y34728572D02*
X25628571Y34500000D01*
X25828571Y34642858D02*
X25314285Y34642858D01*
X25257142Y34614286D01*
X25228571Y34557143D01*
X25228571Y34500000D01*
X25228571Y34214286D02*
X25257142Y34271429D01*
X25285714Y34300000D01*
X25342857Y34328572D01*
X25514285Y34328572D01*
X25571428Y34300000D01*
X25600000Y34271429D01*
X25628571Y34214286D01*
X25628571Y34128572D01*
X25600000Y34071429D01*
X25571428Y34042858D01*
X25514285Y34014286D01*
X25342857Y34014286D01*
X25285714Y34042858D01*
X25257142Y34071429D01*
X25228571Y34128572D01*
X25228571Y34214286D01*
X25228571Y33757143D02*
X25628571Y33757143D01*
X25514285Y33757143D02*
X25571428Y33728572D01*
X25600000Y33700000D01*
X25628571Y33642858D01*
X25628571Y33585715D01*
X69700000Y32285715D02*
X69671428Y32228572D01*
X69671428Y32142858D01*
X69700000Y32057143D01*
X69757142Y32000000D01*
X69814285Y31971429D01*
X69928571Y31942858D01*
X70014285Y31942858D01*
X70128571Y31971429D01*
X70185714Y32000000D01*
X70242857Y32057143D01*
X70271428Y32142858D01*
X70271428Y32200000D01*
X70242857Y32285715D01*
X70214285Y32314286D01*
X70014285Y32314286D01*
X70014285Y32200000D01*
X70271428Y32571429D02*
X69671428Y32571429D01*
X69671428Y32800000D01*
X69700000Y32857143D01*
X69728571Y32885715D01*
X69785714Y32914286D01*
X69871428Y32914286D01*
X69928571Y32885715D01*
X69957142Y32857143D01*
X69985714Y32800000D01*
X69985714Y32571429D01*
X70271428Y33485715D02*
X70271428Y33142858D01*
X70271428Y33314286D02*
X69671428Y33314286D01*
X69757142Y33257143D01*
X69814285Y33200000D01*
X69842857Y33142858D01*
X69928571Y33828572D02*
X69900000Y33771429D01*
X69871428Y33742858D01*
X69814285Y33714286D01*
X69785714Y33714286D01*
X69728571Y33742858D01*
X69700000Y33771429D01*
X69671428Y33828572D01*
X69671428Y33942858D01*
X69700000Y34000000D01*
X69728571Y34028572D01*
X69785714Y34057143D01*
X69814285Y34057143D01*
X69871428Y34028572D01*
X69900000Y34000000D01*
X69928571Y33942858D01*
X69928571Y33828572D01*
X69957142Y33771429D01*
X69985714Y33742858D01*
X70042857Y33714286D01*
X70157142Y33714286D01*
X70214285Y33742858D01*
X70242857Y33771429D01*
X70271428Y33828572D01*
X70271428Y33942858D01*
X70242857Y34000000D01*
X70214285Y34028572D01*
X70157142Y34057143D01*
X70042857Y34057143D01*
X69985714Y34028572D01*
X69957142Y34000000D01*
X69928571Y33942858D01*
X56985714Y39671429D02*
X56785714Y40271429D01*
X56585714Y39671429D01*
X56300000Y40271429D02*
X56357142Y40242858D01*
X56385714Y40214286D01*
X56414285Y40157143D01*
X56414285Y39985715D01*
X56385714Y39928572D01*
X56357142Y39900000D01*
X56300000Y39871429D01*
X56214285Y39871429D01*
X56157142Y39900000D01*
X56128571Y39928572D01*
X56100000Y39985715D01*
X56100000Y40157143D01*
X56128571Y40214286D01*
X56157142Y40242858D01*
X56214285Y40271429D01*
X56300000Y40271429D01*
X55757142Y40271429D02*
X55814285Y40242858D01*
X55842857Y40185715D01*
X55842857Y39671429D01*
X55614285Y39871429D02*
X55385714Y39871429D01*
X55528571Y39671429D02*
X55528571Y40185715D01*
X55500000Y40242858D01*
X55442857Y40271429D01*
X55385714Y40271429D01*
X54928571Y40271429D02*
X54928571Y39957143D01*
X54957142Y39900000D01*
X55014285Y39871429D01*
X55128571Y39871429D01*
X55185714Y39900000D01*
X54928571Y40242858D02*
X54985714Y40271429D01*
X55128571Y40271429D01*
X55185714Y40242858D01*
X55214285Y40185715D01*
X55214285Y40128572D01*
X55185714Y40071429D01*
X55128571Y40042858D01*
X54985714Y40042858D01*
X54928571Y40014286D01*
X54385714Y39871429D02*
X54385714Y40357143D01*
X54414285Y40414286D01*
X54442857Y40442858D01*
X54500000Y40471429D01*
X54585714Y40471429D01*
X54642857Y40442858D01*
X54385714Y40242858D02*
X54442857Y40271429D01*
X54557142Y40271429D01*
X54614285Y40242858D01*
X54642857Y40214286D01*
X54671428Y40157143D01*
X54671428Y39985715D01*
X54642857Y39928572D01*
X54614285Y39900000D01*
X54557142Y39871429D01*
X54442857Y39871429D01*
X54385714Y39900000D01*
X53871428Y40242858D02*
X53928571Y40271429D01*
X54042857Y40271429D01*
X54100000Y40242858D01*
X54128571Y40185715D01*
X54128571Y39957143D01*
X54100000Y39900000D01*
X54042857Y39871429D01*
X53928571Y39871429D01*
X53871428Y39900000D01*
X53842857Y39957143D01*
X53842857Y40014286D01*
X54128571Y40071429D01*
X53128571Y40271429D02*
X53128571Y39671429D01*
X52928571Y40100000D01*
X52728571Y39671429D01*
X52728571Y40271429D01*
X52357142Y40271429D02*
X52414285Y40242858D01*
X52442857Y40214286D01*
X52471428Y40157143D01*
X52471428Y39985715D01*
X52442857Y39928572D01*
X52414285Y39900000D01*
X52357142Y39871429D01*
X52271428Y39871429D01*
X52214285Y39900000D01*
X52185714Y39928572D01*
X52157142Y39985715D01*
X52157142Y40157143D01*
X52185714Y40214286D01*
X52214285Y40242858D01*
X52271428Y40271429D01*
X52357142Y40271429D01*
X51900000Y39871429D02*
X51900000Y40271429D01*
X51900000Y39928572D02*
X51871428Y39900000D01*
X51814285Y39871429D01*
X51728571Y39871429D01*
X51671428Y39900000D01*
X51642857Y39957143D01*
X51642857Y40271429D01*
X51357142Y40271429D02*
X51357142Y39871429D01*
X51357142Y39671429D02*
X51385714Y39700000D01*
X51357142Y39728572D01*
X51328571Y39700000D01*
X51357142Y39671429D01*
X51357142Y39728572D01*
X51157142Y39871429D02*
X50928571Y39871429D01*
X51071428Y39671429D02*
X51071428Y40185715D01*
X51042857Y40242858D01*
X50985714Y40271429D01*
X50928571Y40271429D01*
X50642857Y40271429D02*
X50700000Y40242858D01*
X50728571Y40214286D01*
X50757142Y40157143D01*
X50757142Y39985715D01*
X50728571Y39928572D01*
X50700000Y39900000D01*
X50642857Y39871429D01*
X50557142Y39871429D01*
X50500000Y39900000D01*
X50471428Y39928572D01*
X50442857Y39985715D01*
X50442857Y40157143D01*
X50471428Y40214286D01*
X50500000Y40242858D01*
X50557142Y40271429D01*
X50642857Y40271429D01*
X50185714Y40271429D02*
X50185714Y39871429D01*
X50185714Y39985715D02*
X50157142Y39928572D01*
X50128571Y39900000D01*
X50071428Y39871429D01*
X50014285Y39871429D01*
X27238095Y8900239D02*
X27380952Y8852620D01*
X27619047Y8852620D01*
X27714285Y8900239D01*
X27761904Y8947858D01*
X27809523Y9043096D01*
X27809523Y9138334D01*
X27761904Y9233572D01*
X27714285Y9281191D01*
X27619047Y9328810D01*
X27428571Y9376429D01*
X27333333Y9424048D01*
X27285714Y9471667D01*
X27238095Y9566905D01*
X27238095Y9662143D01*
X27285714Y9757381D01*
X27333333Y9805000D01*
X27428571Y9852620D01*
X27666666Y9852620D01*
X27809523Y9805000D01*
X28238095Y9519286D02*
X28238095Y8519286D01*
X28238095Y9471667D02*
X28333333Y9519286D01*
X28523809Y9519286D01*
X28619047Y9471667D01*
X28666666Y9424048D01*
X28714285Y9328810D01*
X28714285Y9043096D01*
X28666666Y8947858D01*
X28619047Y8900239D01*
X28523809Y8852620D01*
X28333333Y8852620D01*
X28238095Y8900239D01*
X29523809Y8900239D02*
X29428571Y8852620D01*
X29238095Y8852620D01*
X29142857Y8900239D01*
X29095238Y8995477D01*
X29095238Y9376429D01*
X29142857Y9471667D01*
X29238095Y9519286D01*
X29428571Y9519286D01*
X29523809Y9471667D01*
X29571428Y9376429D01*
X29571428Y9281191D01*
X29095238Y9185953D01*
X30428571Y8852620D02*
X30428571Y9376429D01*
X30380952Y9471667D01*
X30285714Y9519286D01*
X30095238Y9519286D01*
X30000000Y9471667D01*
X30428571Y8900239D02*
X30333333Y8852620D01*
X30095238Y8852620D01*
X30000000Y8900239D01*
X29952380Y8995477D01*
X29952380Y9090715D01*
X30000000Y9185953D01*
X30095238Y9233572D01*
X30333333Y9233572D01*
X30428571Y9281191D01*
X30904761Y8852620D02*
X30904761Y9852620D01*
X31000000Y9233572D02*
X31285714Y8852620D01*
X31285714Y9519286D02*
X30904761Y9138334D01*
X32095238Y8900239D02*
X32000000Y8852620D01*
X31809523Y8852620D01*
X31714285Y8900239D01*
X31666666Y8995477D01*
X31666666Y9376429D01*
X31714285Y9471667D01*
X31809523Y9519286D01*
X32000000Y9519286D01*
X32095238Y9471667D01*
X32142857Y9376429D01*
X32142857Y9281191D01*
X31666666Y9185953D01*
X32571428Y8852620D02*
X32571428Y9519286D01*
X32571428Y9328810D02*
X32619047Y9424048D01*
X32666666Y9471667D01*
X32761904Y9519286D01*
X32857142Y9519286D01*
X28380952Y6861667D02*
X28333333Y6909286D01*
X28238095Y7052143D01*
X28190476Y7147381D01*
X28142857Y7290239D01*
X28095238Y7528334D01*
X28095238Y7718810D01*
X28142857Y7956905D01*
X28190476Y8099762D01*
X28238095Y8195000D01*
X28333333Y8337858D01*
X28380952Y8385477D01*
X29285714Y8195000D02*
X29190476Y8242620D01*
X29047619Y8242620D01*
X28904761Y8195000D01*
X28809523Y8099762D01*
X28761904Y8004524D01*
X28714285Y7814048D01*
X28714285Y7671191D01*
X28761904Y7480715D01*
X28809523Y7385477D01*
X28904761Y7290239D01*
X29047619Y7242620D01*
X29142857Y7242620D01*
X29285714Y7290239D01*
X29333333Y7337858D01*
X29333333Y7671191D01*
X29142857Y7671191D01*
X29761904Y7242620D02*
X29761904Y8242620D01*
X30142857Y8242620D01*
X30238095Y8195000D01*
X30285714Y8147381D01*
X30333333Y8052143D01*
X30333333Y7909286D01*
X30285714Y7814048D01*
X30238095Y7766429D01*
X30142857Y7718810D01*
X29761904Y7718810D01*
X30666666Y8242620D02*
X31285714Y8242620D01*
X30952380Y7861667D01*
X31095238Y7861667D01*
X31190476Y7814048D01*
X31238095Y7766429D01*
X31285714Y7671191D01*
X31285714Y7433096D01*
X31238095Y7337858D01*
X31190476Y7290239D01*
X31095238Y7242620D01*
X30809523Y7242620D01*
X30714285Y7290239D01*
X30666666Y7337858D01*
X31619047Y6861667D02*
X31666666Y6909286D01*
X31761904Y7052143D01*
X31809523Y7147381D01*
X31857142Y7290239D01*
X31904761Y7528334D01*
X31904761Y7718810D01*
X31857142Y7956905D01*
X31809523Y8099762D01*
X31761904Y8195000D01*
X31666666Y8337858D01*
X31619047Y8385477D01*
X46211571Y38214286D02*
X46497285Y38414286D01*
X46211571Y38557143D02*
X46811571Y38557143D01*
X46811571Y38328572D01*
X46783000Y38271429D01*
X46754428Y38242858D01*
X46697285Y38214286D01*
X46611571Y38214286D01*
X46554428Y38242858D01*
X46525857Y38271429D01*
X46497285Y38328572D01*
X46497285Y38557143D01*
X46240142Y37728572D02*
X46211571Y37785715D01*
X46211571Y37900000D01*
X46240142Y37957143D01*
X46297285Y37985715D01*
X46525857Y37985715D01*
X46583000Y37957143D01*
X46611571Y37900000D01*
X46611571Y37785715D01*
X46583000Y37728572D01*
X46525857Y37700000D01*
X46468714Y37700000D01*
X46411571Y37985715D01*
X46211571Y37442858D02*
X46611571Y37442858D01*
X46554428Y37442858D02*
X46583000Y37414286D01*
X46611571Y37357143D01*
X46611571Y37271429D01*
X46583000Y37214286D01*
X46525857Y37185715D01*
X46211571Y37185715D01*
X46525857Y37185715D02*
X46583000Y37157143D01*
X46611571Y37100000D01*
X46611571Y37014286D01*
X46583000Y36957143D01*
X46525857Y36928572D01*
X46211571Y36928572D01*
X46211571Y36557143D02*
X46240142Y36614286D01*
X46268714Y36642858D01*
X46325857Y36671429D01*
X46497285Y36671429D01*
X46554428Y36642858D01*
X46583000Y36614286D01*
X46611571Y36557143D01*
X46611571Y36471429D01*
X46583000Y36414286D01*
X46554428Y36385715D01*
X46497285Y36357143D01*
X46325857Y36357143D01*
X46268714Y36385715D01*
X46240142Y36414286D01*
X46211571Y36471429D01*
X46211571Y36557143D01*
X46611571Y36185715D02*
X46611571Y35957143D01*
X46811571Y36100000D02*
X46297285Y36100000D01*
X46240142Y36071429D01*
X46211571Y36014286D01*
X46211571Y35957143D01*
X46240142Y35528572D02*
X46211571Y35585715D01*
X46211571Y35700000D01*
X46240142Y35757143D01*
X46297285Y35785715D01*
X46525857Y35785715D01*
X46583000Y35757143D01*
X46611571Y35700000D01*
X46611571Y35585715D01*
X46583000Y35528572D01*
X46525857Y35500000D01*
X46468714Y35500000D01*
X46411571Y35785715D01*
X46211571Y34500000D02*
X46211571Y34785715D01*
X46811571Y34785715D01*
X46525857Y34300000D02*
X46525857Y34100000D01*
X46211571Y34014286D02*
X46211571Y34300000D01*
X46811571Y34300000D01*
X46811571Y34014286D01*
X46211571Y33757143D02*
X46811571Y33757143D01*
X46811571Y33614286D01*
X46783000Y33528572D01*
X46725857Y33471429D01*
X46668714Y33442858D01*
X46554428Y33414286D01*
X46468714Y33414286D01*
X46354428Y33442858D01*
X46297285Y33471429D01*
X46240142Y33528572D01*
X46211571Y33614286D01*
X46211571Y33757143D01*
X45017000Y37257143D02*
X45045571Y37285715D01*
X45131285Y37342858D01*
X45188428Y37371429D01*
X45274142Y37400000D01*
X45417000Y37428572D01*
X45531285Y37428572D01*
X45674142Y37400000D01*
X45759857Y37371429D01*
X45817000Y37342858D01*
X45902714Y37285715D01*
X45931285Y37257143D01*
X45817000Y36714286D02*
X45845571Y36771429D01*
X45845571Y36857143D01*
X45817000Y36942858D01*
X45759857Y37000000D01*
X45702714Y37028572D01*
X45588428Y37057143D01*
X45502714Y37057143D01*
X45388428Y37028572D01*
X45331285Y37000000D01*
X45274142Y36942858D01*
X45245571Y36857143D01*
X45245571Y36800000D01*
X45274142Y36714286D01*
X45302714Y36685715D01*
X45502714Y36685715D01*
X45502714Y36800000D01*
X45245571Y36428572D02*
X45845571Y36428572D01*
X45845571Y36200000D01*
X45817000Y36142858D01*
X45788428Y36114286D01*
X45731285Y36085715D01*
X45645571Y36085715D01*
X45588428Y36114286D01*
X45559857Y36142858D01*
X45531285Y36200000D01*
X45531285Y36428572D01*
X45245571Y35514286D02*
X45245571Y35857143D01*
X45245571Y35685715D02*
X45845571Y35685715D01*
X45759857Y35742858D01*
X45702714Y35800000D01*
X45674142Y35857143D01*
X45788428Y35285715D02*
X45817000Y35257143D01*
X45845571Y35200000D01*
X45845571Y35057143D01*
X45817000Y35000000D01*
X45788428Y34971429D01*
X45731285Y34942858D01*
X45674142Y34942858D01*
X45588428Y34971429D01*
X45245571Y35314286D01*
X45245571Y34942858D01*
X45017000Y34742858D02*
X45045571Y34714286D01*
X45131285Y34657143D01*
X45188428Y34628572D01*
X45274142Y34600000D01*
X45417000Y34571429D01*
X45531285Y34571429D01*
X45674142Y34600000D01*
X45759857Y34628572D01*
X45817000Y34657143D01*
X45902714Y34714286D01*
X45931285Y34742858D01*
X11100000Y9740143D02*
X11185714Y9711572D01*
X11328571Y9711572D01*
X11385714Y9740143D01*
X11414285Y9768715D01*
X11442857Y9825858D01*
X11442857Y9883000D01*
X11414285Y9940143D01*
X11385714Y9968715D01*
X11328571Y9997286D01*
X11214285Y10025858D01*
X11157142Y10054429D01*
X11128571Y10083000D01*
X11100000Y10140143D01*
X11100000Y10197286D01*
X11128571Y10254429D01*
X11157142Y10283000D01*
X11214285Y10311572D01*
X11357142Y10311572D01*
X11442857Y10283000D01*
X11928571Y9740143D02*
X11871428Y9711572D01*
X11757142Y9711572D01*
X11700000Y9740143D01*
X11671428Y9797286D01*
X11671428Y10025858D01*
X11700000Y10083000D01*
X11757142Y10111572D01*
X11871428Y10111572D01*
X11928571Y10083000D01*
X11957142Y10025858D01*
X11957142Y9968715D01*
X11671428Y9911572D01*
X12214285Y9711572D02*
X12214285Y10111572D01*
X12214285Y9997286D02*
X12242857Y10054429D01*
X12271428Y10083000D01*
X12328571Y10111572D01*
X12385714Y10111572D01*
X12528571Y10111572D02*
X12671428Y9711572D01*
X12814285Y10111572D01*
X13128571Y9711572D02*
X13071428Y9740143D01*
X13042857Y9768715D01*
X13014285Y9825858D01*
X13014285Y9997286D01*
X13042857Y10054429D01*
X13071428Y10083000D01*
X13128571Y10111572D01*
X13214285Y10111572D01*
X13271428Y10083000D01*
X13300000Y10054429D01*
X13328571Y9997286D01*
X13328571Y9825858D01*
X13300000Y9768715D01*
X13271428Y9740143D01*
X13214285Y9711572D01*
X13128571Y9711572D01*
X13900000Y9711572D02*
X13557142Y9711572D01*
X13728571Y9711572D02*
X13728571Y10311572D01*
X13671428Y10225858D01*
X13614285Y10168715D01*
X13557142Y10140143D01*
X11528571Y8517000D02*
X11500000Y8545572D01*
X11442857Y8631286D01*
X11414285Y8688429D01*
X11385714Y8774143D01*
X11357142Y8917000D01*
X11357142Y9031286D01*
X11385714Y9174143D01*
X11414285Y9259858D01*
X11442857Y9317000D01*
X11500000Y9402715D01*
X11528571Y9431286D01*
X12071428Y9317000D02*
X12014285Y9345572D01*
X11928571Y9345572D01*
X11842857Y9317000D01*
X11785714Y9259858D01*
X11757142Y9202715D01*
X11728571Y9088429D01*
X11728571Y9002715D01*
X11757142Y8888429D01*
X11785714Y8831286D01*
X11842857Y8774143D01*
X11928571Y8745572D01*
X11985714Y8745572D01*
X12071428Y8774143D01*
X12100000Y8802715D01*
X12100000Y9002715D01*
X11985714Y9002715D01*
X12357142Y8745572D02*
X12357142Y9345572D01*
X12585714Y9345572D01*
X12642857Y9317000D01*
X12671428Y9288429D01*
X12700000Y9231286D01*
X12700000Y9145572D01*
X12671428Y9088429D01*
X12642857Y9059858D01*
X12585714Y9031286D01*
X12357142Y9031286D01*
X13071428Y9345572D02*
X13128571Y9345572D01*
X13185714Y9317000D01*
X13214285Y9288429D01*
X13242857Y9231286D01*
X13271428Y9117000D01*
X13271428Y8974143D01*
X13242857Y8859858D01*
X13214285Y8802715D01*
X13185714Y8774143D01*
X13128571Y8745572D01*
X13071428Y8745572D01*
X13014285Y8774143D01*
X12985714Y8802715D01*
X12957142Y8859858D01*
X12928571Y8974143D01*
X12928571Y9117000D01*
X12957142Y9231286D01*
X12985714Y9288429D01*
X13014285Y9317000D01*
X13071428Y9345572D01*
X13471428Y8517000D02*
X13500000Y8545572D01*
X13557142Y8631286D01*
X13585714Y8688429D01*
X13614285Y8774143D01*
X13642857Y8917000D01*
X13642857Y9031286D01*
X13614285Y9174143D01*
X13585714Y9259858D01*
X13557142Y9317000D01*
X13500000Y9402715D01*
X13471428Y9431286D01*
X6547619Y45547620D02*
X6547619Y46119048D01*
X6547619Y45833334D02*
X7547619Y45833334D01*
X7404761Y45928572D01*
X7309523Y46023810D01*
X7261904Y46119048D01*
X7547619Y44928572D02*
X7547619Y44833334D01*
X7500000Y44738096D01*
X7452380Y44690477D01*
X7357142Y44642858D01*
X7166666Y44595239D01*
X6928571Y44595239D01*
X6738095Y44642858D01*
X6642857Y44690477D01*
X6595238Y44738096D01*
X6547619Y44833334D01*
X6547619Y44928572D01*
X6595238Y45023810D01*
X6642857Y45071429D01*
X6738095Y45119048D01*
X6928571Y45166667D01*
X7166666Y45166667D01*
X7357142Y45119048D01*
X7452380Y45071429D01*
X7500000Y45023810D01*
X7547619Y44928572D01*
X7547619Y43976191D02*
X7547619Y43880953D01*
X7500000Y43785715D01*
X7452380Y43738096D01*
X7357142Y43690477D01*
X7166666Y43642858D01*
X6928571Y43642858D01*
X6738095Y43690477D01*
X6642857Y43738096D01*
X6595238Y43785715D01*
X6547619Y43880953D01*
X6547619Y43976191D01*
X6595238Y44071429D01*
X6642857Y44119048D01*
X6738095Y44166667D01*
X6928571Y44214286D01*
X7166666Y44214286D01*
X7357142Y44166667D01*
X7452380Y44119048D01*
X7500000Y44071429D01*
X7547619Y43976191D01*
X7214285Y42785715D02*
X6547619Y42785715D01*
X7214285Y43214286D02*
X6690476Y43214286D01*
X6595238Y43166667D01*
X6547619Y43071429D01*
X6547619Y42928572D01*
X6595238Y42833334D01*
X6642857Y42785715D01*
X7071428Y41976191D02*
X7071428Y42309524D01*
X6547619Y42309524D02*
X7547619Y42309524D01*
X7547619Y41833334D01*
X45523809Y8900239D02*
X45666666Y8852620D01*
X45904761Y8852620D01*
X46000000Y8900239D01*
X46047619Y8947858D01*
X46095238Y9043096D01*
X46095238Y9138334D01*
X46047619Y9233572D01*
X46000000Y9281191D01*
X45904761Y9328810D01*
X45714285Y9376429D01*
X45619047Y9424048D01*
X45571428Y9471667D01*
X45523809Y9566905D01*
X45523809Y9662143D01*
X45571428Y9757381D01*
X45619047Y9805000D01*
X45714285Y9852620D01*
X45952380Y9852620D01*
X46095238Y9805000D01*
X46380952Y9519286D02*
X46761904Y9519286D01*
X46523809Y9852620D02*
X46523809Y8995477D01*
X46571428Y8900239D01*
X46666666Y8852620D01*
X46761904Y8852620D01*
X47476190Y8900239D02*
X47380952Y8852620D01*
X47190476Y8852620D01*
X47095238Y8900239D01*
X47047619Y8995477D01*
X47047619Y9376429D01*
X47095238Y9471667D01*
X47190476Y9519286D01*
X47380952Y9519286D01*
X47476190Y9471667D01*
X47523809Y9376429D01*
X47523809Y9281191D01*
X47047619Y9185953D01*
X47952380Y9519286D02*
X47952380Y8519286D01*
X47952380Y9471667D02*
X48047619Y9519286D01*
X48238095Y9519286D01*
X48333333Y9471667D01*
X48380952Y9424048D01*
X48428571Y9328810D01*
X48428571Y9043096D01*
X48380952Y8947858D01*
X48333333Y8900239D01*
X48238095Y8852620D01*
X48047619Y8852620D01*
X47952380Y8900239D01*
X48809523Y9757381D02*
X48857142Y9805000D01*
X48952380Y9852620D01*
X49190476Y9852620D01*
X49285714Y9805000D01*
X49333333Y9757381D01*
X49380952Y9662143D01*
X49380952Y9566905D01*
X49333333Y9424048D01*
X48761904Y8852620D01*
X49380952Y8852620D01*
X50523809Y9900239D02*
X49666666Y8614524D01*
X50857142Y8852620D02*
X50857142Y9852620D01*
X51095238Y9852620D01*
X51238095Y9805000D01*
X51333333Y9709762D01*
X51380952Y9614524D01*
X51428571Y9424048D01*
X51428571Y9281191D01*
X51380952Y9090715D01*
X51333333Y8995477D01*
X51238095Y8900239D01*
X51095238Y8852620D01*
X50857142Y8852620D01*
X51857142Y8852620D02*
X51857142Y9519286D01*
X51857142Y9852620D02*
X51809523Y9805000D01*
X51857142Y9757381D01*
X51904761Y9805000D01*
X51857142Y9852620D01*
X51857142Y9757381D01*
X52333333Y8852620D02*
X52333333Y9519286D01*
X52333333Y9328810D02*
X52380952Y9424048D01*
X52428571Y9471667D01*
X52523809Y9519286D01*
X52619047Y9519286D01*
X52904761Y9757381D02*
X52952380Y9805000D01*
X53047619Y9852620D01*
X53285714Y9852620D01*
X53380952Y9805000D01*
X53428571Y9757381D01*
X53476190Y9662143D01*
X53476190Y9566905D01*
X53428571Y9424048D01*
X52857142Y8852620D01*
X53476190Y8852620D01*
X44928571Y6861667D02*
X44880952Y6909286D01*
X44785714Y7052143D01*
X44738095Y7147381D01*
X44690476Y7290239D01*
X44642857Y7528334D01*
X44642857Y7718810D01*
X44690476Y7956905D01*
X44738095Y8099762D01*
X44785714Y8195000D01*
X44880952Y8337858D01*
X44928571Y8385477D01*
X45833333Y8195000D02*
X45738095Y8242620D01*
X45595238Y8242620D01*
X45452380Y8195000D01*
X45357142Y8099762D01*
X45309523Y8004524D01*
X45261904Y7814048D01*
X45261904Y7671191D01*
X45309523Y7480715D01*
X45357142Y7385477D01*
X45452380Y7290239D01*
X45595238Y7242620D01*
X45690476Y7242620D01*
X45833333Y7290239D01*
X45880952Y7337858D01*
X45880952Y7671191D01*
X45690476Y7671191D01*
X46309523Y7242620D02*
X46309523Y8242620D01*
X46690476Y8242620D01*
X46785714Y8195000D01*
X46833333Y8147381D01*
X46880952Y8052143D01*
X46880952Y7909286D01*
X46833333Y7814048D01*
X46785714Y7766429D01*
X46690476Y7718810D01*
X46309523Y7718810D01*
X47833333Y7242620D02*
X47261904Y7242620D01*
X47547619Y7242620D02*
X47547619Y8242620D01*
X47452380Y8099762D01*
X47357142Y8004524D01*
X47261904Y7956905D01*
X48452380Y8242620D02*
X48547619Y8242620D01*
X48642857Y8195000D01*
X48690476Y8147381D01*
X48738095Y8052143D01*
X48785714Y7861667D01*
X48785714Y7623572D01*
X48738095Y7433096D01*
X48690476Y7337858D01*
X48642857Y7290239D01*
X48547619Y7242620D01*
X48452380Y7242620D01*
X48357142Y7290239D01*
X48309523Y7337858D01*
X48261904Y7433096D01*
X48214285Y7623572D01*
X48214285Y7861667D01*
X48261904Y8052143D01*
X48309523Y8147381D01*
X48357142Y8195000D01*
X48452380Y8242620D01*
X49928571Y8290239D02*
X49071428Y7004524D01*
X50785714Y8195000D02*
X50690476Y8242620D01*
X50547619Y8242620D01*
X50404761Y8195000D01*
X50309523Y8099762D01*
X50261904Y8004524D01*
X50214285Y7814048D01*
X50214285Y7671191D01*
X50261904Y7480715D01*
X50309523Y7385477D01*
X50404761Y7290239D01*
X50547619Y7242620D01*
X50642857Y7242620D01*
X50785714Y7290239D01*
X50833333Y7337858D01*
X50833333Y7671191D01*
X50642857Y7671191D01*
X51261904Y7242620D02*
X51261904Y8242620D01*
X51642857Y8242620D01*
X51738095Y8195000D01*
X51785714Y8147381D01*
X51833333Y8052143D01*
X51833333Y7909286D01*
X51785714Y7814048D01*
X51738095Y7766429D01*
X51642857Y7718810D01*
X51261904Y7718810D01*
X52785714Y7242620D02*
X52214285Y7242620D01*
X52500000Y7242620D02*
X52500000Y8242620D01*
X52404761Y8099762D01*
X52309523Y8004524D01*
X52214285Y7956905D01*
X53738095Y7242620D02*
X53166666Y7242620D01*
X53452380Y7242620D02*
X53452380Y8242620D01*
X53357142Y8099762D01*
X53261904Y8004524D01*
X53166666Y7956905D01*
X54071428Y6861667D02*
X54119047Y6909286D01*
X54214285Y7052143D01*
X54261904Y7147381D01*
X54309523Y7290239D01*
X54357142Y7528334D01*
X54357142Y7718810D01*
X54309523Y7956905D01*
X54261904Y8099762D01*
X54214285Y8195000D01*
X54119047Y8337858D01*
X54071428Y8385477D01*
X4547619Y37952381D02*
X5119047Y37952381D01*
X4833333Y37952381D02*
X4833333Y36952381D01*
X4928571Y37095239D01*
X5023809Y37190477D01*
X5119047Y37238096D01*
X3928571Y36952381D02*
X3833333Y36952381D01*
X3738095Y37000000D01*
X3690476Y37047620D01*
X3642857Y37142858D01*
X3595238Y37333334D01*
X3595238Y37571429D01*
X3642857Y37761905D01*
X3690476Y37857143D01*
X3738095Y37904762D01*
X3833333Y37952381D01*
X3928571Y37952381D01*
X4023809Y37904762D01*
X4071428Y37857143D01*
X4119047Y37761905D01*
X4166666Y37571429D01*
X4166666Y37333334D01*
X4119047Y37142858D01*
X4071428Y37047620D01*
X4023809Y37000000D01*
X3928571Y36952381D01*
X2976190Y36952381D02*
X2880952Y36952381D01*
X2785714Y37000000D01*
X2738095Y37047620D01*
X2690476Y37142858D01*
X2642857Y37333334D01*
X2642857Y37571429D01*
X2690476Y37761905D01*
X2738095Y37857143D01*
X2785714Y37904762D01*
X2880952Y37952381D01*
X2976190Y37952381D01*
X3071428Y37904762D01*
X3119047Y37857143D01*
X3166666Y37761905D01*
X3214285Y37571429D01*
X3214285Y37333334D01*
X3166666Y37142858D01*
X3119047Y37047620D01*
X3071428Y37000000D01*
X2976190Y36952381D01*
X1785714Y37285715D02*
X1785714Y37952381D01*
X2214285Y37285715D02*
X2214285Y37809524D01*
X2166666Y37904762D01*
X2071428Y37952381D01*
X1928571Y37952381D01*
X1833333Y37904762D01*
X1785714Y37857143D01*
X976190Y37428572D02*
X1309523Y37428572D01*
X1309523Y37952381D02*
X1309523Y36952381D01*
X833333Y36952381D01*
X8542857Y2300000D02*
X8485714Y2328572D01*
X8400000Y2328572D01*
X8314285Y2300000D01*
X8257142Y2242858D01*
X8228571Y2185715D01*
X8200000Y2071429D01*
X8200000Y1985715D01*
X8228571Y1871429D01*
X8257142Y1814286D01*
X8314285Y1757143D01*
X8400000Y1728572D01*
X8457142Y1728572D01*
X8542857Y1757143D01*
X8571428Y1785715D01*
X8571428Y1985715D01*
X8457142Y1985715D01*
X8828571Y1728572D02*
X8828571Y2328572D01*
X9171428Y1728572D01*
X9171428Y2328572D01*
X9457142Y1728572D02*
X9457142Y2328572D01*
X9600000Y2328572D01*
X9685714Y2300000D01*
X9742857Y2242858D01*
X9771428Y2185715D01*
X9800000Y2071429D01*
X9800000Y1985715D01*
X9771428Y1871429D01*
X9742857Y1814286D01*
X9685714Y1757143D01*
X9600000Y1728572D01*
X9457142Y1728572D01*
X69700000Y34785715D02*
X69671428Y34728572D01*
X69671428Y34642858D01*
X69700000Y34557143D01*
X69757142Y34500000D01*
X69814285Y34471429D01*
X69928571Y34442858D01*
X70014285Y34442858D01*
X70128571Y34471429D01*
X70185714Y34500000D01*
X70242857Y34557143D01*
X70271428Y34642858D01*
X70271428Y34700000D01*
X70242857Y34785715D01*
X70214285Y34814286D01*
X70014285Y34814286D01*
X70014285Y34700000D01*
X70271428Y35071429D02*
X69671428Y35071429D01*
X69671428Y35300000D01*
X69700000Y35357143D01*
X69728571Y35385715D01*
X69785714Y35414286D01*
X69871428Y35414286D01*
X69928571Y35385715D01*
X69957142Y35357143D01*
X69985714Y35300000D01*
X69985714Y35071429D01*
X70271428Y35985715D02*
X70271428Y35642858D01*
X70271428Y35814286D02*
X69671428Y35814286D01*
X69757142Y35757143D01*
X69814285Y35700000D01*
X69842857Y35642858D01*
X70271428Y36271429D02*
X70271428Y36385715D01*
X70242857Y36442858D01*
X70214285Y36471429D01*
X70128571Y36528572D01*
X70014285Y36557143D01*
X69785714Y36557143D01*
X69728571Y36528572D01*
X69700000Y36500000D01*
X69671428Y36442858D01*
X69671428Y36328572D01*
X69700000Y36271429D01*
X69728571Y36242858D01*
X69785714Y36214286D01*
X69928571Y36214286D01*
X69985714Y36242858D01*
X70014285Y36271429D01*
X70042857Y36328572D01*
X70042857Y36442858D01*
X70014285Y36500000D01*
X69985714Y36528572D01*
X69928571Y36557143D01*
X47400000Y40271429D02*
X47400000Y39671429D01*
X47171428Y39671429D01*
X47114285Y39700000D01*
X47085714Y39728572D01*
X47057142Y39785715D01*
X47057142Y39871429D01*
X47085714Y39928572D01*
X47114285Y39957143D01*
X47171428Y39985715D01*
X47400000Y39985715D01*
X46714285Y40271429D02*
X46771428Y40242858D01*
X46800000Y40214286D01*
X46828571Y40157143D01*
X46828571Y39985715D01*
X46800000Y39928572D01*
X46771428Y39900000D01*
X46714285Y39871429D01*
X46628571Y39871429D01*
X46571428Y39900000D01*
X46542857Y39928572D01*
X46514285Y39985715D01*
X46514285Y40157143D01*
X46542857Y40214286D01*
X46571428Y40242858D01*
X46628571Y40271429D01*
X46714285Y40271429D01*
X46314285Y39871429D02*
X46200000Y40271429D01*
X46085714Y39985715D01*
X45971428Y40271429D01*
X45857142Y39871429D01*
X45400000Y40242858D02*
X45457142Y40271429D01*
X45571428Y40271429D01*
X45628571Y40242858D01*
X45657142Y40185715D01*
X45657142Y39957143D01*
X45628571Y39900000D01*
X45571428Y39871429D01*
X45457142Y39871429D01*
X45400000Y39900000D01*
X45371428Y39957143D01*
X45371428Y40014286D01*
X45657142Y40071429D01*
X45114285Y40271429D02*
X45114285Y39871429D01*
X45114285Y39985715D02*
X45085714Y39928572D01*
X45057142Y39900000D01*
X45000000Y39871429D01*
X44942857Y39871429D01*
X44314285Y40242858D02*
X44228571Y40271429D01*
X44085714Y40271429D01*
X44028571Y40242858D01*
X44000000Y40214286D01*
X43971428Y40157143D01*
X43971428Y40100000D01*
X44000000Y40042858D01*
X44028571Y40014286D01*
X44085714Y39985715D01*
X44200000Y39957143D01*
X44257142Y39928572D01*
X44285714Y39900000D01*
X44314285Y39842858D01*
X44314285Y39785715D01*
X44285714Y39728572D01*
X44257142Y39700000D01*
X44200000Y39671429D01*
X44057142Y39671429D01*
X43971428Y39700000D01*
X43457142Y39871429D02*
X43457142Y40271429D01*
X43714285Y39871429D02*
X43714285Y40185715D01*
X43685714Y40242858D01*
X43628571Y40271429D01*
X43542857Y40271429D01*
X43485714Y40242858D01*
X43457142Y40214286D01*
X43171428Y39871429D02*
X43171428Y40471429D01*
X43171428Y39900000D02*
X43114285Y39871429D01*
X43000000Y39871429D01*
X42942857Y39900000D01*
X42914285Y39928572D01*
X42885714Y39985715D01*
X42885714Y40157143D01*
X42914285Y40214286D01*
X42942857Y40242858D01*
X43000000Y40271429D01*
X43114285Y40271429D01*
X43171428Y40242858D01*
X42628571Y39871429D02*
X42628571Y40471429D01*
X42628571Y39900000D02*
X42571428Y39871429D01*
X42457142Y39871429D01*
X42400000Y39900000D01*
X42371428Y39928572D01*
X42342857Y39985715D01*
X42342857Y40157143D01*
X42371428Y40214286D01*
X42400000Y40242858D01*
X42457142Y40271429D01*
X42571428Y40271429D01*
X42628571Y40242858D01*
X42000000Y40271429D02*
X42057142Y40242858D01*
X42085714Y40185715D01*
X42085714Y39671429D01*
X41828571Y39871429D02*
X41685714Y40271429D01*
X41542857Y39871429D02*
X41685714Y40271429D01*
X41742857Y40414286D01*
X41771428Y40442858D01*
X41828571Y40471429D01*
X70283333Y19713334D02*
X70316666Y19813334D01*
X70316666Y19980000D01*
X70283333Y20046667D01*
X70250000Y20080000D01*
X70183333Y20113334D01*
X70116666Y20113334D01*
X70050000Y20080000D01*
X70016666Y20046667D01*
X69983333Y19980000D01*
X69950000Y19846667D01*
X69916666Y19780000D01*
X69883333Y19746667D01*
X69816666Y19713334D01*
X69750000Y19713334D01*
X69683333Y19746667D01*
X69650000Y19780000D01*
X69616666Y19846667D01*
X69616666Y20013334D01*
X69650000Y20113334D01*
X70283333Y20680000D02*
X70316666Y20613334D01*
X70316666Y20480000D01*
X70283333Y20413334D01*
X70216666Y20380000D01*
X69950000Y20380000D01*
X69883333Y20413334D01*
X69850000Y20480000D01*
X69850000Y20613334D01*
X69883333Y20680000D01*
X69950000Y20713334D01*
X70016666Y20713334D01*
X70083333Y20380000D01*
X69850000Y21013334D02*
X70316666Y21013334D01*
X69916666Y21013334D02*
X69883333Y21046667D01*
X69850000Y21113334D01*
X69850000Y21213334D01*
X69883333Y21280000D01*
X69950000Y21313334D01*
X70316666Y21313334D01*
X70283333Y21613334D02*
X70316666Y21680000D01*
X70316666Y21813334D01*
X70283333Y21880000D01*
X70216666Y21913334D01*
X70183333Y21913334D01*
X70116666Y21880000D01*
X70083333Y21813334D01*
X70083333Y21713334D01*
X70050000Y21646667D01*
X69983333Y21613334D01*
X69950000Y21613334D01*
X69883333Y21646667D01*
X69850000Y21713334D01*
X69850000Y21813334D01*
X69883333Y21880000D01*
X70316666Y22313334D02*
X70283333Y22246667D01*
X70250000Y22213334D01*
X70183333Y22180000D01*
X69983333Y22180000D01*
X69916666Y22213334D01*
X69883333Y22246667D01*
X69850000Y22313334D01*
X69850000Y22413334D01*
X69883333Y22480000D01*
X69916666Y22513334D01*
X69983333Y22546667D01*
X70183333Y22546667D01*
X70250000Y22513334D01*
X70283333Y22480000D01*
X70316666Y22413334D01*
X70316666Y22313334D01*
X70316666Y22846667D02*
X69850000Y22846667D01*
X69983333Y22846667D02*
X69916666Y22880000D01*
X69883333Y22913334D01*
X69850000Y22980000D01*
X69850000Y23046667D01*
X70316666Y23646667D02*
X70316666Y23246667D01*
X70316666Y23446667D02*
X69616666Y23446667D01*
X69716666Y23380000D01*
X69783333Y23313334D01*
X69816666Y23246667D01*
X70283333Y7533334D02*
X70316666Y7633334D01*
X70316666Y7800000D01*
X70283333Y7866667D01*
X70250000Y7900000D01*
X70183333Y7933334D01*
X70116666Y7933334D01*
X70050000Y7900000D01*
X70016666Y7866667D01*
X69983333Y7800000D01*
X69950000Y7666667D01*
X69916666Y7600000D01*
X69883333Y7566667D01*
X69816666Y7533334D01*
X69750000Y7533334D01*
X69683333Y7566667D01*
X69650000Y7600000D01*
X69616666Y7666667D01*
X69616666Y7833334D01*
X69650000Y7933334D01*
X70283333Y8500000D02*
X70316666Y8433334D01*
X70316666Y8300000D01*
X70283333Y8233334D01*
X70216666Y8200000D01*
X69950000Y8200000D01*
X69883333Y8233334D01*
X69850000Y8300000D01*
X69850000Y8433334D01*
X69883333Y8500000D01*
X69950000Y8533334D01*
X70016666Y8533334D01*
X70083333Y8200000D01*
X69850000Y8833334D02*
X70316666Y8833334D01*
X69916666Y8833334D02*
X69883333Y8866667D01*
X69850000Y8933334D01*
X69850000Y9033334D01*
X69883333Y9100000D01*
X69950000Y9133334D01*
X70316666Y9133334D01*
X70283333Y9433334D02*
X70316666Y9500000D01*
X70316666Y9633334D01*
X70283333Y9700000D01*
X70216666Y9733334D01*
X70183333Y9733334D01*
X70116666Y9700000D01*
X70083333Y9633334D01*
X70083333Y9533334D01*
X70050000Y9466667D01*
X69983333Y9433334D01*
X69950000Y9433334D01*
X69883333Y9466667D01*
X69850000Y9533334D01*
X69850000Y9633334D01*
X69883333Y9700000D01*
X70316666Y10133334D02*
X70283333Y10066667D01*
X70250000Y10033334D01*
X70183333Y10000000D01*
X69983333Y10000000D01*
X69916666Y10033334D01*
X69883333Y10066667D01*
X69850000Y10133334D01*
X69850000Y10233334D01*
X69883333Y10300000D01*
X69916666Y10333334D01*
X69983333Y10366667D01*
X70183333Y10366667D01*
X70250000Y10333334D01*
X70283333Y10300000D01*
X70316666Y10233334D01*
X70316666Y10133334D01*
X70316666Y10666667D02*
X69850000Y10666667D01*
X69983333Y10666667D02*
X69916666Y10700000D01*
X69883333Y10733334D01*
X69850000Y10800000D01*
X69850000Y10866667D01*
X69616666Y11033334D02*
X69616666Y11466667D01*
X69883333Y11233334D01*
X69883333Y11333334D01*
X69916666Y11400000D01*
X69950000Y11433334D01*
X70016666Y11466667D01*
X70183333Y11466667D01*
X70250000Y11433334D01*
X70283333Y11400000D01*
X70316666Y11333334D01*
X70316666Y11133334D01*
X70283333Y11066667D01*
X70250000Y11033334D01*
X21266666Y43753167D02*
X21266666Y43286500D01*
X21266666Y43353167D02*
X21233333Y43319834D01*
X21166666Y43286500D01*
X21066666Y43286500D01*
X21000000Y43319834D01*
X20966666Y43386500D01*
X20966666Y43753167D01*
X20966666Y43386500D02*
X20933333Y43319834D01*
X20866666Y43286500D01*
X20766666Y43286500D01*
X20700000Y43319834D01*
X20666666Y43386500D01*
X20666666Y43753167D01*
X20033333Y43286500D02*
X20033333Y43753167D01*
X20333333Y43286500D02*
X20333333Y43653167D01*
X20300000Y43719834D01*
X20233333Y43753167D01*
X20133333Y43753167D01*
X20066666Y43719834D01*
X20033333Y43686500D01*
X19600000Y43753167D02*
X19666666Y43719834D01*
X19700000Y43653167D01*
X19700000Y43053167D01*
X19433333Y43286500D02*
X19166666Y43286500D01*
X19333333Y43053167D02*
X19333333Y43653167D01*
X19300000Y43719834D01*
X19233333Y43753167D01*
X19166666Y43753167D01*
X18933333Y43753167D02*
X18933333Y43286500D01*
X18933333Y43053167D02*
X18966666Y43086500D01*
X18933333Y43119834D01*
X18900000Y43086500D01*
X18933333Y43053167D01*
X18933333Y43119834D01*
X18600000Y43286500D02*
X18600000Y43986500D01*
X18600000Y43319834D02*
X18533333Y43286500D01*
X18400000Y43286500D01*
X18333333Y43319834D01*
X18300000Y43353167D01*
X18266666Y43419834D01*
X18266666Y43619834D01*
X18300000Y43686500D01*
X18333333Y43719834D01*
X18400000Y43753167D01*
X18533333Y43753167D01*
X18600000Y43719834D01*
X17866666Y43753167D02*
X17933333Y43719834D01*
X17966666Y43653167D01*
X17966666Y43053167D01*
X17333333Y43719834D02*
X17400000Y43753167D01*
X17533333Y43753167D01*
X17600000Y43719834D01*
X17633333Y43653167D01*
X17633333Y43386500D01*
X17600000Y43319834D01*
X17533333Y43286500D01*
X17400000Y43286500D01*
X17333333Y43319834D01*
X17300000Y43386500D01*
X17300000Y43453167D01*
X17633333Y43519834D01*
X17066666Y43753167D02*
X16700000Y43286500D01*
X17066666Y43286500D02*
X16700000Y43753167D01*
X16166666Y43719834D02*
X16233333Y43753167D01*
X16366666Y43753167D01*
X16433333Y43719834D01*
X16466666Y43653167D01*
X16466666Y43386500D01*
X16433333Y43319834D01*
X16366666Y43286500D01*
X16233333Y43286500D01*
X16166666Y43319834D01*
X16133333Y43386500D01*
X16133333Y43453167D01*
X16466666Y43519834D01*
X15833333Y43753167D02*
X15833333Y43286500D01*
X15833333Y43419834D02*
X15800000Y43353167D01*
X15766666Y43319834D01*
X15700000Y43286500D01*
X15633333Y43286500D01*
X22516666Y44680167D02*
X22183333Y44680167D01*
X22583333Y44880167D02*
X22350000Y44180167D01*
X22116666Y44880167D01*
X21883333Y44813500D02*
X21850000Y44846834D01*
X21883333Y44880167D01*
X21916666Y44846834D01*
X21883333Y44813500D01*
X21883333Y44880167D01*
X21883333Y44446834D02*
X21850000Y44480167D01*
X21883333Y44513500D01*
X21916666Y44480167D01*
X21883333Y44446834D01*
X21883333Y44513500D01*
X21183333Y44213500D02*
X21250000Y44180167D01*
X21350000Y44180167D01*
X21450000Y44213500D01*
X21516666Y44280167D01*
X21550000Y44346834D01*
X21583333Y44480167D01*
X21583333Y44580167D01*
X21550000Y44713500D01*
X21516666Y44780167D01*
X21450000Y44846834D01*
X21350000Y44880167D01*
X21283333Y44880167D01*
X21183333Y44846834D01*
X21150000Y44813500D01*
X21150000Y44580167D01*
X21283333Y44580167D01*
X20850000Y44880167D02*
X20850000Y44180167D01*
X20583333Y44180167D01*
X20516666Y44213500D01*
X20483333Y44246834D01*
X20450000Y44313500D01*
X20450000Y44413500D01*
X20483333Y44480167D01*
X20516666Y44513500D01*
X20583333Y44546834D01*
X20850000Y44546834D01*
X19783333Y44880167D02*
X20183333Y44880167D01*
X19983333Y44880167D02*
X19983333Y44180167D01*
X20050000Y44280167D01*
X20116666Y44346834D01*
X20183333Y44380167D01*
X19183333Y44413500D02*
X19183333Y44880167D01*
X19350000Y44146834D02*
X19516666Y44646834D01*
X19083333Y44646834D01*
X18783333Y44846834D02*
X18783333Y44880167D01*
X18816666Y44946834D01*
X18850000Y44980167D01*
X17716666Y44513500D02*
X17616666Y44546834D01*
X17583333Y44580167D01*
X17550000Y44646834D01*
X17550000Y44746834D01*
X17583333Y44813500D01*
X17616666Y44846834D01*
X17683333Y44880167D01*
X17950000Y44880167D01*
X17950000Y44180167D01*
X17716666Y44180167D01*
X17650000Y44213500D01*
X17616666Y44246834D01*
X17583333Y44313500D01*
X17583333Y44380167D01*
X17616666Y44446834D01*
X17650000Y44480167D01*
X17716666Y44513500D01*
X17950000Y44513500D01*
X17250000Y44813500D02*
X17216666Y44846834D01*
X17250000Y44880167D01*
X17283333Y44846834D01*
X17250000Y44813500D01*
X17250000Y44880167D01*
X17250000Y44446834D02*
X17216666Y44480167D01*
X17250000Y44513500D01*
X17283333Y44480167D01*
X17250000Y44446834D01*
X17250000Y44513500D01*
X16550000Y44213500D02*
X16616666Y44180167D01*
X16716666Y44180167D01*
X16816666Y44213500D01*
X16883333Y44280167D01*
X16916666Y44346834D01*
X16950000Y44480167D01*
X16950000Y44580167D01*
X16916666Y44713500D01*
X16883333Y44780167D01*
X16816666Y44846834D01*
X16716666Y44880167D01*
X16650000Y44880167D01*
X16550000Y44846834D01*
X16516666Y44813500D01*
X16516666Y44580167D01*
X16650000Y44580167D01*
X16216666Y44880167D02*
X16216666Y44180167D01*
X15950000Y44180167D01*
X15883333Y44213500D01*
X15850000Y44246834D01*
X15816666Y44313500D01*
X15816666Y44413500D01*
X15850000Y44480167D01*
X15883333Y44513500D01*
X15950000Y44546834D01*
X16216666Y44546834D01*
X15150000Y44880167D02*
X15550000Y44880167D01*
X15350000Y44880167D02*
X15350000Y44180167D01*
X15416666Y44280167D01*
X15483333Y44346834D01*
X15550000Y44380167D01*
X14516666Y44180167D02*
X14850000Y44180167D01*
X14883333Y44513500D01*
X14850000Y44480167D01*
X14783333Y44446834D01*
X14616666Y44446834D01*
X14550000Y44480167D01*
X14516666Y44513500D01*
X14483333Y44580167D01*
X14483333Y44746834D01*
X14516666Y44813500D01*
X14550000Y44846834D01*
X14616666Y44880167D01*
X14783333Y44880167D01*
X14850000Y44846834D01*
X14883333Y44813500D01*
X35523809Y8900239D02*
X35666666Y8852620D01*
X35904761Y8852620D01*
X36000000Y8900239D01*
X36047619Y8947858D01*
X36095238Y9043096D01*
X36095238Y9138334D01*
X36047619Y9233572D01*
X36000000Y9281191D01*
X35904761Y9328810D01*
X35714285Y9376429D01*
X35619047Y9424048D01*
X35571428Y9471667D01*
X35523809Y9566905D01*
X35523809Y9662143D01*
X35571428Y9757381D01*
X35619047Y9805000D01*
X35714285Y9852620D01*
X35952380Y9852620D01*
X36095238Y9805000D01*
X36380952Y9519286D02*
X36761904Y9519286D01*
X36523809Y9852620D02*
X36523809Y8995477D01*
X36571428Y8900239D01*
X36666666Y8852620D01*
X36761904Y8852620D01*
X37476190Y8900239D02*
X37380952Y8852620D01*
X37190476Y8852620D01*
X37095238Y8900239D01*
X37047619Y8995477D01*
X37047619Y9376429D01*
X37095238Y9471667D01*
X37190476Y9519286D01*
X37380952Y9519286D01*
X37476190Y9471667D01*
X37523809Y9376429D01*
X37523809Y9281191D01*
X37047619Y9185953D01*
X37952380Y9519286D02*
X37952380Y8519286D01*
X37952380Y9471667D02*
X38047619Y9519286D01*
X38238095Y9519286D01*
X38333333Y9471667D01*
X38380952Y9424048D01*
X38428571Y9328810D01*
X38428571Y9043096D01*
X38380952Y8947858D01*
X38333333Y8900239D01*
X38238095Y8852620D01*
X38047619Y8852620D01*
X37952380Y8900239D01*
X39380952Y8852620D02*
X38809523Y8852620D01*
X39095238Y8852620D02*
X39095238Y9852620D01*
X39000000Y9709762D01*
X38904761Y9614524D01*
X38809523Y9566905D01*
X40523809Y9900239D02*
X39666666Y8614524D01*
X40857142Y8852620D02*
X40857142Y9852620D01*
X41095238Y9852620D01*
X41238095Y9805000D01*
X41333333Y9709762D01*
X41380952Y9614524D01*
X41428571Y9424048D01*
X41428571Y9281191D01*
X41380952Y9090715D01*
X41333333Y8995477D01*
X41238095Y8900239D01*
X41095238Y8852620D01*
X40857142Y8852620D01*
X41857142Y8852620D02*
X41857142Y9519286D01*
X41857142Y9852620D02*
X41809523Y9805000D01*
X41857142Y9757381D01*
X41904761Y9805000D01*
X41857142Y9852620D01*
X41857142Y9757381D01*
X42333333Y8852620D02*
X42333333Y9519286D01*
X42333333Y9328810D02*
X42380952Y9424048D01*
X42428571Y9471667D01*
X42523809Y9519286D01*
X42619047Y9519286D01*
X43476190Y8852620D02*
X42904761Y8852620D01*
X43190476Y8852620D02*
X43190476Y9852620D01*
X43095238Y9709762D01*
X43000000Y9614524D01*
X42904761Y9566905D01*
X35880952Y6861667D02*
X35833333Y6909286D01*
X35738095Y7052143D01*
X35690476Y7147381D01*
X35642857Y7290239D01*
X35595238Y7528334D01*
X35595238Y7718810D01*
X35642857Y7956905D01*
X35690476Y8099762D01*
X35738095Y8195000D01*
X35833333Y8337858D01*
X35880952Y8385477D01*
X36785714Y8195000D02*
X36690476Y8242620D01*
X36547619Y8242620D01*
X36404761Y8195000D01*
X36309523Y8099762D01*
X36261904Y8004524D01*
X36214285Y7814048D01*
X36214285Y7671191D01*
X36261904Y7480715D01*
X36309523Y7385477D01*
X36404761Y7290239D01*
X36547619Y7242620D01*
X36642857Y7242620D01*
X36785714Y7290239D01*
X36833333Y7337858D01*
X36833333Y7671191D01*
X36642857Y7671191D01*
X37261904Y7242620D02*
X37261904Y8242620D01*
X37642857Y8242620D01*
X37738095Y8195000D01*
X37785714Y8147381D01*
X37833333Y8052143D01*
X37833333Y7909286D01*
X37785714Y7814048D01*
X37738095Y7766429D01*
X37642857Y7718810D01*
X37261904Y7718810D01*
X38690476Y8242620D02*
X38500000Y8242620D01*
X38404761Y8195000D01*
X38357142Y8147381D01*
X38261904Y8004524D01*
X38214285Y7814048D01*
X38214285Y7433096D01*
X38261904Y7337858D01*
X38309523Y7290239D01*
X38404761Y7242620D01*
X38595238Y7242620D01*
X38690476Y7290239D01*
X38738095Y7337858D01*
X38785714Y7433096D01*
X38785714Y7671191D01*
X38738095Y7766429D01*
X38690476Y7814048D01*
X38595238Y7861667D01*
X38404761Y7861667D01*
X38309523Y7814048D01*
X38261904Y7766429D01*
X38214285Y7671191D01*
X39928571Y8290239D02*
X39071428Y7004524D01*
X40785714Y8195000D02*
X40690476Y8242620D01*
X40547619Y8242620D01*
X40404761Y8195000D01*
X40309523Y8099762D01*
X40261904Y8004524D01*
X40214285Y7814048D01*
X40214285Y7671191D01*
X40261904Y7480715D01*
X40309523Y7385477D01*
X40404761Y7290239D01*
X40547619Y7242620D01*
X40642857Y7242620D01*
X40785714Y7290239D01*
X40833333Y7337858D01*
X40833333Y7671191D01*
X40642857Y7671191D01*
X41261904Y7242620D02*
X41261904Y8242620D01*
X41642857Y8242620D01*
X41738095Y8195000D01*
X41785714Y8147381D01*
X41833333Y8052143D01*
X41833333Y7909286D01*
X41785714Y7814048D01*
X41738095Y7766429D01*
X41642857Y7718810D01*
X41261904Y7718810D01*
X42166666Y8242620D02*
X42833333Y8242620D01*
X42404761Y7242620D01*
X43119047Y6861667D02*
X43166666Y6909286D01*
X43261904Y7052143D01*
X43309523Y7147381D01*
X43357142Y7290239D01*
X43404761Y7528334D01*
X43404761Y7718810D01*
X43357142Y7956905D01*
X43309523Y8099762D01*
X43261904Y8195000D01*
X43166666Y8337858D01*
X43119047Y8385477D01*
X15600000Y9740143D02*
X15685714Y9711572D01*
X15828571Y9711572D01*
X15885714Y9740143D01*
X15914285Y9768715D01*
X15942857Y9825858D01*
X15942857Y9883000D01*
X15914285Y9940143D01*
X15885714Y9968715D01*
X15828571Y9997286D01*
X15714285Y10025858D01*
X15657142Y10054429D01*
X15628571Y10083000D01*
X15600000Y10140143D01*
X15600000Y10197286D01*
X15628571Y10254429D01*
X15657142Y10283000D01*
X15714285Y10311572D01*
X15857142Y10311572D01*
X15942857Y10283000D01*
X16428571Y9740143D02*
X16371428Y9711572D01*
X16257142Y9711572D01*
X16200000Y9740143D01*
X16171428Y9797286D01*
X16171428Y10025858D01*
X16200000Y10083000D01*
X16257142Y10111572D01*
X16371428Y10111572D01*
X16428571Y10083000D01*
X16457142Y10025858D01*
X16457142Y9968715D01*
X16171428Y9911572D01*
X16714285Y9711572D02*
X16714285Y10111572D01*
X16714285Y9997286D02*
X16742857Y10054429D01*
X16771428Y10083000D01*
X16828571Y10111572D01*
X16885714Y10111572D01*
X17028571Y10111572D02*
X17171428Y9711572D01*
X17314285Y10111572D01*
X17628571Y9711572D02*
X17571428Y9740143D01*
X17542857Y9768715D01*
X17514285Y9825858D01*
X17514285Y9997286D01*
X17542857Y10054429D01*
X17571428Y10083000D01*
X17628571Y10111572D01*
X17714285Y10111572D01*
X17771428Y10083000D01*
X17800000Y10054429D01*
X17828571Y9997286D01*
X17828571Y9825858D01*
X17800000Y9768715D01*
X17771428Y9740143D01*
X17714285Y9711572D01*
X17628571Y9711572D01*
X18057142Y10254429D02*
X18085714Y10283000D01*
X18142857Y10311572D01*
X18285714Y10311572D01*
X18342857Y10283000D01*
X18371428Y10254429D01*
X18400000Y10197286D01*
X18400000Y10140143D01*
X18371428Y10054429D01*
X18028571Y9711572D01*
X18400000Y9711572D01*
X16028571Y8517000D02*
X16000000Y8545572D01*
X15942857Y8631286D01*
X15914285Y8688429D01*
X15885714Y8774143D01*
X15857142Y8917000D01*
X15857142Y9031286D01*
X15885714Y9174143D01*
X15914285Y9259858D01*
X15942857Y9317000D01*
X16000000Y9402715D01*
X16028571Y9431286D01*
X16571428Y9317000D02*
X16514285Y9345572D01*
X16428571Y9345572D01*
X16342857Y9317000D01*
X16285714Y9259858D01*
X16257142Y9202715D01*
X16228571Y9088429D01*
X16228571Y9002715D01*
X16257142Y8888429D01*
X16285714Y8831286D01*
X16342857Y8774143D01*
X16428571Y8745572D01*
X16485714Y8745572D01*
X16571428Y8774143D01*
X16600000Y8802715D01*
X16600000Y9002715D01*
X16485714Y9002715D01*
X16857142Y8745572D02*
X16857142Y9345572D01*
X17085714Y9345572D01*
X17142857Y9317000D01*
X17171428Y9288429D01*
X17200000Y9231286D01*
X17200000Y9145572D01*
X17171428Y9088429D01*
X17142857Y9059858D01*
X17085714Y9031286D01*
X16857142Y9031286D01*
X17771428Y8745572D02*
X17428571Y8745572D01*
X17600000Y8745572D02*
X17600000Y9345572D01*
X17542857Y9259858D01*
X17485714Y9202715D01*
X17428571Y9174143D01*
X17971428Y8517000D02*
X18000000Y8545572D01*
X18057142Y8631286D01*
X18085714Y8688429D01*
X18114285Y8774143D01*
X18142857Y8917000D01*
X18142857Y9031286D01*
X18114285Y9174143D01*
X18085714Y9259858D01*
X18057142Y9317000D01*
X18000000Y9402715D01*
X17971428Y9431286D01*
X70283333Y13533334D02*
X70316666Y13633334D01*
X70316666Y13800000D01*
X70283333Y13866667D01*
X70250000Y13900000D01*
X70183333Y13933334D01*
X70116666Y13933334D01*
X70050000Y13900000D01*
X70016666Y13866667D01*
X69983333Y13800000D01*
X69950000Y13666667D01*
X69916666Y13600000D01*
X69883333Y13566667D01*
X69816666Y13533334D01*
X69750000Y13533334D01*
X69683333Y13566667D01*
X69650000Y13600000D01*
X69616666Y13666667D01*
X69616666Y13833334D01*
X69650000Y13933334D01*
X70283333Y14500000D02*
X70316666Y14433334D01*
X70316666Y14300000D01*
X70283333Y14233334D01*
X70216666Y14200000D01*
X69950000Y14200000D01*
X69883333Y14233334D01*
X69850000Y14300000D01*
X69850000Y14433334D01*
X69883333Y14500000D01*
X69950000Y14533334D01*
X70016666Y14533334D01*
X70083333Y14200000D01*
X69850000Y14833334D02*
X70316666Y14833334D01*
X69916666Y14833334D02*
X69883333Y14866667D01*
X69850000Y14933334D01*
X69850000Y15033334D01*
X69883333Y15100000D01*
X69950000Y15133334D01*
X70316666Y15133334D01*
X70283333Y15433334D02*
X70316666Y15500000D01*
X70316666Y15633334D01*
X70283333Y15700000D01*
X70216666Y15733334D01*
X70183333Y15733334D01*
X70116666Y15700000D01*
X70083333Y15633334D01*
X70083333Y15533334D01*
X70050000Y15466667D01*
X69983333Y15433334D01*
X69950000Y15433334D01*
X69883333Y15466667D01*
X69850000Y15533334D01*
X69850000Y15633334D01*
X69883333Y15700000D01*
X70316666Y16133334D02*
X70283333Y16066667D01*
X70250000Y16033334D01*
X70183333Y16000000D01*
X69983333Y16000000D01*
X69916666Y16033334D01*
X69883333Y16066667D01*
X69850000Y16133334D01*
X69850000Y16233334D01*
X69883333Y16300000D01*
X69916666Y16333334D01*
X69983333Y16366667D01*
X70183333Y16366667D01*
X70250000Y16333334D01*
X70283333Y16300000D01*
X70316666Y16233334D01*
X70316666Y16133334D01*
X70316666Y16666667D02*
X69850000Y16666667D01*
X69983333Y16666667D02*
X69916666Y16700000D01*
X69883333Y16733334D01*
X69850000Y16800000D01*
X69850000Y16866667D01*
X69683333Y17066667D02*
X69650000Y17100000D01*
X69616666Y17166667D01*
X69616666Y17333334D01*
X69650000Y17400000D01*
X69683333Y17433334D01*
X69750000Y17466667D01*
X69816666Y17466667D01*
X69916666Y17433334D01*
X70316666Y17033334D01*
X70316666Y17466667D01*
X64809523Y3547620D02*
X64333333Y3547620D01*
X64285714Y3071429D01*
X64333333Y3119048D01*
X64428571Y3166667D01*
X64666666Y3166667D01*
X64761904Y3119048D01*
X64809523Y3071429D01*
X64857142Y2976191D01*
X64857142Y2738096D01*
X64809523Y2642858D01*
X64761904Y2595239D01*
X64666666Y2547620D01*
X64428571Y2547620D01*
X64333333Y2595239D01*
X64285714Y2642858D01*
X65142857Y3547620D02*
X65476190Y2547620D01*
X65809523Y3547620D01*
X7714285Y6757143D02*
X7800000Y6728572D01*
X7942857Y6728572D01*
X8000000Y6757143D01*
X8028571Y6785715D01*
X8057142Y6842858D01*
X8057142Y6900000D01*
X8028571Y6957143D01*
X8000000Y6985715D01*
X7942857Y7014286D01*
X7828571Y7042858D01*
X7771428Y7071429D01*
X7742857Y7100000D01*
X7714285Y7157143D01*
X7714285Y7214286D01*
X7742857Y7271429D01*
X7771428Y7300000D01*
X7828571Y7328572D01*
X7971428Y7328572D01*
X8057142Y7300000D01*
X8314285Y6728572D02*
X8314285Y7128572D01*
X8314285Y7328572D02*
X8285714Y7300000D01*
X8314285Y7271429D01*
X8342857Y7300000D01*
X8314285Y7328572D01*
X8314285Y7271429D01*
X8857142Y7128572D02*
X8857142Y6642858D01*
X8828571Y6585715D01*
X8800000Y6557143D01*
X8742857Y6528572D01*
X8657142Y6528572D01*
X8600000Y6557143D01*
X8857142Y6757143D02*
X8800000Y6728572D01*
X8685714Y6728572D01*
X8628571Y6757143D01*
X8600000Y6785715D01*
X8571428Y6842858D01*
X8571428Y7014286D01*
X8600000Y7071429D01*
X8628571Y7100000D01*
X8685714Y7128572D01*
X8800000Y7128572D01*
X8857142Y7100000D01*
X9142857Y7128572D02*
X9142857Y6728572D01*
X9142857Y7071429D02*
X9171428Y7100000D01*
X9228571Y7128572D01*
X9314285Y7128572D01*
X9371428Y7100000D01*
X9400000Y7042858D01*
X9400000Y6728572D01*
X9942857Y6728572D02*
X9942857Y7042858D01*
X9914285Y7100000D01*
X9857142Y7128572D01*
X9742857Y7128572D01*
X9685714Y7100000D01*
X9942857Y6757143D02*
X9885714Y6728572D01*
X9742857Y6728572D01*
X9685714Y6757143D01*
X9657142Y6814286D01*
X9657142Y6871429D01*
X9685714Y6928572D01*
X9742857Y6957143D01*
X9885714Y6957143D01*
X9942857Y6985715D01*
X10314285Y6728572D02*
X10257142Y6757143D01*
X10228571Y6814286D01*
X10228571Y7328572D01*
X37857142Y41271429D02*
X37857142Y40671429D01*
X37628571Y40671429D01*
X37571428Y40700000D01*
X37542857Y40728572D01*
X37514285Y40785715D01*
X37514285Y40871429D01*
X37542857Y40928572D01*
X37571428Y40957143D01*
X37628571Y40985715D01*
X37857142Y40985715D01*
X37171428Y41271429D02*
X37228571Y41242858D01*
X37257142Y41214286D01*
X37285714Y41157143D01*
X37285714Y40985715D01*
X37257142Y40928572D01*
X37228571Y40900000D01*
X37171428Y40871429D01*
X37085714Y40871429D01*
X37028571Y40900000D01*
X37000000Y40928572D01*
X36971428Y40985715D01*
X36971428Y41157143D01*
X37000000Y41214286D01*
X37028571Y41242858D01*
X37085714Y41271429D01*
X37171428Y41271429D01*
X36771428Y40871429D02*
X36657142Y41271429D01*
X36542857Y40985715D01*
X36428571Y41271429D01*
X36314285Y40871429D01*
X35857142Y41242858D02*
X35914285Y41271429D01*
X36028571Y41271429D01*
X36085714Y41242858D01*
X36114285Y41185715D01*
X36114285Y40957143D01*
X36085714Y40900000D01*
X36028571Y40871429D01*
X35914285Y40871429D01*
X35857142Y40900000D01*
X35828571Y40957143D01*
X35828571Y41014286D01*
X36114285Y41071429D01*
X35571428Y41271429D02*
X35571428Y40871429D01*
X35571428Y40985715D02*
X35542857Y40928572D01*
X35514285Y40900000D01*
X35457142Y40871429D01*
X35400000Y40871429D01*
X34771428Y41242858D02*
X34685714Y41271429D01*
X34542857Y41271429D01*
X34485714Y41242858D01*
X34457142Y41214286D01*
X34428571Y41157143D01*
X34428571Y41100000D01*
X34457142Y41042858D01*
X34485714Y41014286D01*
X34542857Y40985715D01*
X34657142Y40957143D01*
X34714285Y40928572D01*
X34742857Y40900000D01*
X34771428Y40842858D01*
X34771428Y40785715D01*
X34742857Y40728572D01*
X34714285Y40700000D01*
X34657142Y40671429D01*
X34514285Y40671429D01*
X34428571Y40700000D01*
X34228571Y40871429D02*
X34114285Y41271429D01*
X34000000Y40985715D01*
X33885714Y41271429D01*
X33771428Y40871429D01*
X33542857Y41271429D02*
X33542857Y40871429D01*
X33542857Y40671429D02*
X33571428Y40700000D01*
X33542857Y40728572D01*
X33514285Y40700000D01*
X33542857Y40671429D01*
X33542857Y40728572D01*
X33342857Y40871429D02*
X33114285Y40871429D01*
X33257142Y40671429D02*
X33257142Y41185715D01*
X33228571Y41242858D01*
X33171428Y41271429D01*
X33114285Y41271429D01*
X32657142Y41242858D02*
X32714285Y41271429D01*
X32828571Y41271429D01*
X32885714Y41242858D01*
X32914285Y41214286D01*
X32942857Y41157143D01*
X32942857Y40985715D01*
X32914285Y40928572D01*
X32885714Y40900000D01*
X32828571Y40871429D01*
X32714285Y40871429D01*
X32657142Y40900000D01*
X32400000Y41271429D02*
X32400000Y40671429D01*
X32142857Y41271429D02*
X32142857Y40957143D01*
X32171428Y40900000D01*
X32228571Y40871429D01*
X32314285Y40871429D01*
X32371428Y40900000D01*
X32400000Y40928572D01*
X69700000Y37285715D02*
X69671428Y37228572D01*
X69671428Y37142858D01*
X69700000Y37057143D01*
X69757142Y37000000D01*
X69814285Y36971429D01*
X69928571Y36942858D01*
X70014285Y36942858D01*
X70128571Y36971429D01*
X70185714Y37000000D01*
X70242857Y37057143D01*
X70271428Y37142858D01*
X70271428Y37200000D01*
X70242857Y37285715D01*
X70214285Y37314286D01*
X70014285Y37314286D01*
X70014285Y37200000D01*
X70271428Y37571429D02*
X69671428Y37571429D01*
X69671428Y37800000D01*
X69700000Y37857143D01*
X69728571Y37885715D01*
X69785714Y37914286D01*
X69871428Y37914286D01*
X69928571Y37885715D01*
X69957142Y37857143D01*
X69985714Y37800000D01*
X69985714Y37571429D01*
X69728571Y38142858D02*
X69700000Y38171429D01*
X69671428Y38228572D01*
X69671428Y38371429D01*
X69700000Y38428572D01*
X69728571Y38457143D01*
X69785714Y38485715D01*
X69842857Y38485715D01*
X69928571Y38457143D01*
X70271428Y38114286D01*
X70271428Y38485715D01*
X69671428Y38857143D02*
X69671428Y38914286D01*
X69700000Y38971429D01*
X69728571Y39000000D01*
X69785714Y39028572D01*
X69900000Y39057143D01*
X70042857Y39057143D01*
X70157142Y39028572D01*
X70214285Y39000000D01*
X70242857Y38971429D01*
X70271428Y38914286D01*
X70271428Y38857143D01*
X70242857Y38800000D01*
X70214285Y38771429D01*
X70157142Y38742858D01*
X70042857Y38714286D01*
X69900000Y38714286D01*
X69785714Y38742858D01*
X69728571Y38771429D01*
X69700000Y38800000D01*
X69671428Y38857143D01*
%TO.C,R5*%
X67022380Y19833334D02*
X66546190Y19500000D01*
X67022380Y19261905D02*
X66022380Y19261905D01*
X66022380Y19642858D01*
X66070000Y19738096D01*
X66117619Y19785715D01*
X66212857Y19833334D01*
X66355714Y19833334D01*
X66450952Y19785715D01*
X66498571Y19738096D01*
X66546190Y19642858D01*
X66546190Y19261905D01*
X66022380Y20738096D02*
X66022380Y20261905D01*
X66498571Y20214286D01*
X66450952Y20261905D01*
X66403333Y20357143D01*
X66403333Y20595239D01*
X66450952Y20690477D01*
X66498571Y20738096D01*
X66593809Y20785715D01*
X66831904Y20785715D01*
X66927142Y20738096D01*
X66974761Y20690477D01*
X67022380Y20595239D01*
X67022380Y20357143D01*
X66974761Y20261905D01*
X66927142Y20214286D01*
%TO.C,Q1*%
X28595238Y36647620D02*
X28690476Y36600000D01*
X28785714Y36504762D01*
X28928571Y36361905D01*
X29023809Y36314286D01*
X29119047Y36314286D01*
X29071428Y36552381D02*
X29166666Y36504762D01*
X29261904Y36409524D01*
X29309523Y36219048D01*
X29309523Y35885715D01*
X29261904Y35695239D01*
X29166666Y35600000D01*
X29071428Y35552381D01*
X28880952Y35552381D01*
X28785714Y35600000D01*
X28690476Y35695239D01*
X28642857Y35885715D01*
X28642857Y36219048D01*
X28690476Y36409524D01*
X28785714Y36504762D01*
X28880952Y36552381D01*
X29071428Y36552381D01*
X27690476Y36552381D02*
X28261904Y36552381D01*
X27976190Y36552381D02*
X27976190Y35552381D01*
X28071428Y35695239D01*
X28166666Y35790477D01*
X28261904Y35838096D01*
%TO.C,U7*%
X50761904Y26452381D02*
X50761904Y27261905D01*
X50714285Y27357143D01*
X50666666Y27404762D01*
X50571428Y27452381D01*
X50380952Y27452381D01*
X50285714Y27404762D01*
X50238095Y27357143D01*
X50190476Y27261905D01*
X50190476Y26452381D01*
X49809523Y26452381D02*
X49142857Y26452381D01*
X49571428Y27452381D01*
%TO.C,R3*%
X32166666Y37452381D02*
X32500000Y36976191D01*
X32738095Y37452381D02*
X32738095Y36452381D01*
X32357142Y36452381D01*
X32261904Y36500000D01*
X32214285Y36547620D01*
X32166666Y36642858D01*
X32166666Y36785715D01*
X32214285Y36880953D01*
X32261904Y36928572D01*
X32357142Y36976191D01*
X32738095Y36976191D01*
X31833333Y36452381D02*
X31214285Y36452381D01*
X31547619Y36833334D01*
X31404761Y36833334D01*
X31309523Y36880953D01*
X31261904Y36928572D01*
X31214285Y37023810D01*
X31214285Y37261905D01*
X31261904Y37357143D01*
X31309523Y37404762D01*
X31404761Y37452381D01*
X31690476Y37452381D01*
X31785714Y37404762D01*
X31833333Y37357143D01*
%TO.C,U2*%
X18047619Y38261905D02*
X17238095Y38261905D01*
X17142857Y38214286D01*
X17095238Y38166667D01*
X17047619Y38071429D01*
X17047619Y37880953D01*
X17095238Y37785715D01*
X17142857Y37738096D01*
X17238095Y37690477D01*
X18047619Y37690477D01*
X17952380Y37261905D02*
X18000000Y37214286D01*
X18047619Y37119048D01*
X18047619Y36880953D01*
X18000000Y36785715D01*
X17952380Y36738096D01*
X17857142Y36690477D01*
X17761904Y36690477D01*
X17619047Y36738096D01*
X17047619Y37309524D01*
X17047619Y36690477D01*
%TO.C,R2*%
X32522380Y33833334D02*
X32046190Y33500000D01*
X32522380Y33261905D02*
X31522380Y33261905D01*
X31522380Y33642858D01*
X31570000Y33738096D01*
X31617619Y33785715D01*
X31712857Y33833334D01*
X31855714Y33833334D01*
X31950952Y33785715D01*
X31998571Y33738096D01*
X32046190Y33642858D01*
X32046190Y33261905D01*
X31617619Y34214286D02*
X31570000Y34261905D01*
X31522380Y34357143D01*
X31522380Y34595239D01*
X31570000Y34690477D01*
X31617619Y34738096D01*
X31712857Y34785715D01*
X31808095Y34785715D01*
X31950952Y34738096D01*
X32522380Y34166667D01*
X32522380Y34785715D01*
%TO.C,R9*%
X59832380Y19833334D02*
X59356190Y19500000D01*
X59832380Y19261905D02*
X58832380Y19261905D01*
X58832380Y19642858D01*
X58880000Y19738096D01*
X58927619Y19785715D01*
X59022857Y19833334D01*
X59165714Y19833334D01*
X59260952Y19785715D01*
X59308571Y19738096D01*
X59356190Y19642858D01*
X59356190Y19261905D01*
X59832380Y20309524D02*
X59832380Y20500000D01*
X59784761Y20595239D01*
X59737142Y20642858D01*
X59594285Y20738096D01*
X59403809Y20785715D01*
X59022857Y20785715D01*
X58927619Y20738096D01*
X58880000Y20690477D01*
X58832380Y20595239D01*
X58832380Y20404762D01*
X58880000Y20309524D01*
X58927619Y20261905D01*
X59022857Y20214286D01*
X59260952Y20214286D01*
X59356190Y20261905D01*
X59403809Y20309524D01*
X59451428Y20404762D01*
X59451428Y20595239D01*
X59403809Y20690477D01*
X59356190Y20738096D01*
X59260952Y20785715D01*
%TO.C,R6*%
X67022380Y13833334D02*
X66546190Y13500000D01*
X67022380Y13261905D02*
X66022380Y13261905D01*
X66022380Y13642858D01*
X66070000Y13738096D01*
X66117619Y13785715D01*
X66212857Y13833334D01*
X66355714Y13833334D01*
X66450952Y13785715D01*
X66498571Y13738096D01*
X66546190Y13642858D01*
X66546190Y13261905D01*
X66022380Y14690477D02*
X66022380Y14500000D01*
X66070000Y14404762D01*
X66117619Y14357143D01*
X66260476Y14261905D01*
X66450952Y14214286D01*
X66831904Y14214286D01*
X66927142Y14261905D01*
X66974761Y14309524D01*
X67022380Y14404762D01*
X67022380Y14595239D01*
X66974761Y14690477D01*
X66927142Y14738096D01*
X66831904Y14785715D01*
X66593809Y14785715D01*
X66498571Y14738096D01*
X66450952Y14690477D01*
X66403333Y14595239D01*
X66403333Y14404762D01*
X66450952Y14309524D01*
X66498571Y14261905D01*
X66593809Y14214286D01*
%TO.C,R4*%
X67022380Y25833334D02*
X66546190Y25500000D01*
X67022380Y25261905D02*
X66022380Y25261905D01*
X66022380Y25642858D01*
X66070000Y25738096D01*
X66117619Y25785715D01*
X66212857Y25833334D01*
X66355714Y25833334D01*
X66450952Y25785715D01*
X66498571Y25738096D01*
X66546190Y25642858D01*
X66546190Y25261905D01*
X66355714Y26690477D02*
X67022380Y26690477D01*
X65974761Y26452381D02*
X66689047Y26214286D01*
X66689047Y26833334D01*
%TO.C,R8*%
X59952380Y25679693D02*
X59476190Y25346359D01*
X59952380Y25108264D02*
X58952380Y25108264D01*
X58952380Y25489217D01*
X59000000Y25584455D01*
X59047619Y25632074D01*
X59142857Y25679693D01*
X59285714Y25679693D01*
X59380952Y25632074D01*
X59428571Y25584455D01*
X59476190Y25489217D01*
X59476190Y25108264D01*
X59380952Y26251121D02*
X59333333Y26155883D01*
X59285714Y26108264D01*
X59190476Y26060645D01*
X59142857Y26060645D01*
X59047619Y26108264D01*
X59000000Y26155883D01*
X58952380Y26251121D01*
X58952380Y26441598D01*
X59000000Y26536836D01*
X59047619Y26584455D01*
X59142857Y26632074D01*
X59190476Y26632074D01*
X59285714Y26584455D01*
X59333333Y26536836D01*
X59380952Y26441598D01*
X59380952Y26251121D01*
X59428571Y26155883D01*
X59476190Y26108264D01*
X59571428Y26060645D01*
X59761904Y26060645D01*
X59857142Y26108264D01*
X59904761Y26155883D01*
X59952380Y26251121D01*
X59952380Y26441598D01*
X59904761Y26536836D01*
X59857142Y26584455D01*
X59761904Y26632074D01*
X59571428Y26632074D01*
X59476190Y26584455D01*
X59428571Y26536836D01*
X59380952Y26441598D01*
%TO.C,U1*%
X56952380Y20238096D02*
X57761904Y20238096D01*
X57857142Y20285715D01*
X57904761Y20333334D01*
X57952380Y20428572D01*
X57952380Y20619048D01*
X57904761Y20714286D01*
X57857142Y20761905D01*
X57761904Y20809524D01*
X56952380Y20809524D01*
X57952380Y21809524D02*
X57952380Y21238096D01*
X57952380Y21523810D02*
X56952380Y21523810D01*
X57095238Y21428572D01*
X57190476Y21333334D01*
X57238095Y21238096D01*
%TO.C,R7*%
X67022380Y7833334D02*
X66546190Y7500000D01*
X67022380Y7261905D02*
X66022380Y7261905D01*
X66022380Y7642858D01*
X66070000Y7738096D01*
X66117619Y7785715D01*
X66212857Y7833334D01*
X66355714Y7833334D01*
X66450952Y7785715D01*
X66498571Y7738096D01*
X66546190Y7642858D01*
X66546190Y7261905D01*
X66022380Y8166667D02*
X66022380Y8833334D01*
X67022380Y8404762D01*
%TO.C,R1*%
X37217619Y34166667D02*
X37693809Y34500000D01*
X37217619Y34738096D02*
X38217619Y34738096D01*
X38217619Y34357143D01*
X38170000Y34261905D01*
X38122380Y34214286D01*
X38027142Y34166667D01*
X37884285Y34166667D01*
X37789047Y34214286D01*
X37741428Y34261905D01*
X37693809Y34357143D01*
X37693809Y34738096D01*
X37217619Y33214286D02*
X37217619Y33785715D01*
X37217619Y33500000D02*
X38217619Y33500000D01*
X38074761Y33595239D01*
X37979523Y33690477D01*
X37931904Y33785715D01*
%TO.C,D2*%
X27738095Y42452381D02*
X27738095Y41452381D01*
X27500000Y41452381D01*
X27357142Y41500000D01*
X27261904Y41595239D01*
X27214285Y41690477D01*
X27166666Y41880953D01*
X27166666Y42023810D01*
X27214285Y42214286D01*
X27261904Y42309524D01*
X27357142Y42404762D01*
X27500000Y42452381D01*
X27738095Y42452381D01*
X26785714Y41547620D02*
X26738095Y41500000D01*
X26642857Y41452381D01*
X26404761Y41452381D01*
X26309523Y41500000D01*
X26261904Y41547620D01*
X26214285Y41642858D01*
X26214285Y41738096D01*
X26261904Y41880953D01*
X26833333Y42452381D01*
X26214285Y42452381D01*
%TO.C,R10*%
X59832380Y13510784D02*
X59356190Y13177451D01*
X59832380Y12939356D02*
X58832380Y12939356D01*
X58832380Y13320308D01*
X58880000Y13415546D01*
X58927619Y13463165D01*
X59022857Y13510784D01*
X59165714Y13510784D01*
X59260952Y13463165D01*
X59308571Y13415546D01*
X59356190Y13320308D01*
X59356190Y12939356D01*
X59832380Y14463165D02*
X59832380Y13891737D01*
X59832380Y14177451D02*
X58832380Y14177451D01*
X58975238Y14082213D01*
X59070476Y13986975D01*
X59118095Y13891737D01*
X58832380Y15082213D02*
X58832380Y15177451D01*
X58880000Y15272689D01*
X58927619Y15320308D01*
X59022857Y15367927D01*
X59213333Y15415546D01*
X59451428Y15415546D01*
X59641904Y15367927D01*
X59737142Y15320308D01*
X59784761Y15272689D01*
X59832380Y15177451D01*
X59832380Y15082213D01*
X59784761Y14986975D01*
X59737142Y14939356D01*
X59641904Y14891737D01*
X59451428Y14844118D01*
X59213333Y14844118D01*
X59022857Y14891737D01*
X58927619Y14939356D01*
X58880000Y14986975D01*
X58832380Y15082213D01*
%TO.C,R11*%
X59832380Y7357143D02*
X59356190Y7023810D01*
X59832380Y6785715D02*
X58832380Y6785715D01*
X58832380Y7166667D01*
X58880000Y7261905D01*
X58927619Y7309524D01*
X59022857Y7357143D01*
X59165714Y7357143D01*
X59260952Y7309524D01*
X59308571Y7261905D01*
X59356190Y7166667D01*
X59356190Y6785715D01*
X59832380Y8309524D02*
X59832380Y7738096D01*
X59832380Y8023810D02*
X58832380Y8023810D01*
X58975238Y7928572D01*
X59070476Y7833334D01*
X59118095Y7738096D01*
X59832380Y9261905D02*
X59832380Y8690477D01*
X59832380Y8976191D02*
X58832380Y8976191D01*
X58975238Y8880953D01*
X59070476Y8785715D01*
X59118095Y8690477D01*
D11*
%TO.C,R5*%
X68522500Y19762742D02*
X68522500Y20237258D01*
X67477500Y19762742D02*
X67477500Y20237258D01*
%TO.C,Q1*%
X28500000Y36940000D02*
X30175000Y36940000D01*
X28500000Y36940000D02*
X27850000Y36940000D01*
X28500000Y40060000D02*
X29150000Y40060000D01*
X28500000Y40060000D02*
X27850000Y40060000D01*
%TO.C,U8*%
X33550000Y1300000D02*
X31750000Y1300000D01*
X25950000Y550000D02*
X27750000Y550000D01*
X29250000Y550000D02*
X30250000Y550000D01*
X25940000Y540000D02*
X33560000Y540000D01*
X25950000Y2800000D02*
X26700000Y2800000D01*
X29250000Y1300000D02*
X29250000Y550000D01*
X33560000Y540000D02*
X33560000Y6510000D01*
X25940000Y6510000D02*
X25940000Y540000D01*
X25950000Y1300000D02*
X25950000Y550000D01*
X32600000Y250000D02*
X33850000Y250000D01*
X26700000Y5750000D02*
X29750000Y5750000D01*
X27750000Y1300000D02*
X25950000Y1300000D01*
X27750000Y550000D02*
X27750000Y1300000D01*
X33850000Y250000D02*
X33850000Y1500000D01*
X32800000Y2800000D02*
X32800000Y4140000D01*
X30250000Y1300000D02*
X29250000Y1300000D01*
X30250000Y550000D02*
X30250000Y1300000D01*
X26700000Y2800000D02*
X26700000Y5750000D01*
X31750000Y1300000D02*
X31750000Y550000D01*
X29750000Y5750000D02*
X31740000Y5750000D01*
X33560000Y6510000D02*
X25940000Y6510000D01*
X33550000Y2800000D02*
X32800000Y2800000D01*
X33550000Y550000D02*
X33550000Y1300000D01*
X31750000Y550000D02*
X33550000Y550000D01*
%TO.C,J8*%
X18330000Y8400000D02*
X15670000Y8400000D01*
X18330000Y3260000D02*
X18330000Y8400000D01*
X18330000Y3260000D02*
X15670000Y3260000D01*
X15670000Y3260000D02*
X15670000Y8400000D01*
X18330000Y660000D02*
X17000000Y660000D01*
X18330000Y1990000D02*
X18330000Y660000D01*
%TO.C,C1*%
X13120000Y44000000D02*
G75*
G03*
X13120000Y44000000I-2620000J0D01*
G01*
%TO.C,U4*%
X66850000Y24330000D02*
X66850000Y21670000D01*
X68120000Y24330000D02*
X69450000Y24330000D01*
X59170000Y24330000D02*
X59170000Y21670000D01*
X66850000Y21670000D02*
X59170000Y21670000D01*
X66850000Y24330000D02*
X59170000Y24330000D01*
X69450000Y24330000D02*
X69450000Y23000000D01*
%TO.C,R3*%
X32022500Y39392258D02*
X32022500Y38917742D01*
X30977500Y39392258D02*
X30977500Y38917742D01*
%TO.C,U3*%
X66730000Y30330000D02*
X66730000Y27670000D01*
X69330000Y30330000D02*
X69330000Y29000000D01*
X66730000Y27670000D02*
X59050000Y27670000D01*
X59050000Y30330000D02*
X59050000Y27670000D01*
X68000000Y30330000D02*
X69330000Y30330000D01*
X66730000Y30330000D02*
X59050000Y30330000D01*
%TO.C,U6*%
X68120000Y12330000D02*
X69450000Y12330000D01*
X66850000Y12330000D02*
X66850000Y9670000D01*
X69450000Y12330000D02*
X69450000Y11000000D01*
X59170000Y12330000D02*
X59170000Y9670000D01*
X66850000Y9670000D02*
X59170000Y9670000D01*
X66850000Y12330000D02*
X59170000Y12330000D01*
%TO.C,U2*%
X12470000Y34050000D02*
X13970000Y34050000D01*
X13970000Y40950000D02*
X13970000Y40680000D01*
X13970000Y40680000D02*
X15070000Y40680000D01*
X13970000Y34320000D02*
X16800000Y34320000D01*
X12470000Y40950000D02*
X13970000Y40950000D01*
X13970000Y34050000D02*
X13970000Y34320000D01*
%TO.C,J9*%
X22830000Y645000D02*
X21500000Y645000D01*
X22830000Y1975000D02*
X22830000Y645000D01*
X22830000Y8385000D02*
X20170000Y8385000D01*
X20170000Y3245000D02*
X20170000Y8385000D01*
X22830000Y3245000D02*
X20170000Y3245000D01*
X22830000Y3245000D02*
X22830000Y8385000D01*
%TO.C,J4*%
X43310000Y6485000D02*
X35690000Y6485000D01*
X35700000Y1275000D02*
X35700000Y525000D01*
X40000000Y1275000D02*
X39000000Y1275000D01*
X40000000Y525000D02*
X40000000Y1275000D01*
X35690000Y515000D02*
X43310000Y515000D01*
X43600000Y225000D02*
X43600000Y1475000D01*
X43300000Y2775000D02*
X42550000Y2775000D01*
X43310000Y515000D02*
X43310000Y6485000D01*
X42550000Y2775000D02*
X42550000Y4115000D01*
X36450000Y2775000D02*
X36450000Y5725000D01*
X39000000Y1275000D02*
X39000000Y525000D01*
X39000000Y525000D02*
X40000000Y525000D01*
X39500000Y5725000D02*
X41490000Y5725000D01*
X35690000Y6485000D02*
X35690000Y515000D01*
X35700000Y525000D02*
X37500000Y525000D01*
X41500000Y525000D02*
X43300000Y525000D01*
X36450000Y5725000D02*
X39500000Y5725000D01*
X35700000Y2775000D02*
X36450000Y2775000D01*
X37500000Y525000D02*
X37500000Y1275000D01*
X41500000Y1275000D02*
X41500000Y525000D01*
X43300000Y525000D02*
X43300000Y1275000D01*
X43300000Y1275000D02*
X41500000Y1275000D01*
X37500000Y1275000D02*
X35700000Y1275000D01*
X42350000Y225000D02*
X43600000Y225000D01*
%TO.C,R2*%
X34022500Y33762742D02*
X34022500Y34237258D01*
X32977500Y33762742D02*
X32977500Y34237258D01*
%TO.C,R9*%
X60880000Y20153641D02*
X60880000Y19846359D01*
X60120000Y20153641D02*
X60120000Y19846359D01*
%TO.C,J6*%
X61750000Y550000D02*
X63550000Y550000D01*
X55950000Y1300000D02*
X55950000Y550000D01*
X63560000Y6510000D02*
X55940000Y6510000D01*
X63550000Y1300000D02*
X61750000Y1300000D01*
X55950000Y550000D02*
X57750000Y550000D01*
X59250000Y1300000D02*
X59250000Y550000D01*
X59750000Y5750000D02*
X61740000Y5750000D01*
X59250000Y550000D02*
X60250000Y550000D01*
X55950000Y2800000D02*
X56700000Y2800000D01*
X61750000Y1300000D02*
X61750000Y550000D01*
X55940000Y540000D02*
X63560000Y540000D01*
X63550000Y2800000D02*
X62800000Y2800000D01*
X63850000Y250000D02*
X63850000Y1500000D01*
X57750000Y550000D02*
X57750000Y1300000D01*
X60250000Y1300000D02*
X59250000Y1300000D01*
X60250000Y550000D02*
X60250000Y1300000D01*
X55940000Y6510000D02*
X55940000Y540000D01*
X56700000Y5750000D02*
X59750000Y5750000D01*
X63550000Y550000D02*
X63550000Y1300000D01*
X62800000Y2800000D02*
X62800000Y4140000D01*
X63560000Y540000D02*
X63560000Y6510000D01*
X56700000Y2800000D02*
X56700000Y5750000D01*
X57750000Y1300000D02*
X55950000Y1300000D01*
X62600000Y250000D02*
X63850000Y250000D01*
%TO.C,R6*%
X67477500Y13762742D02*
X67477500Y14237258D01*
X68522500Y13762742D02*
X68522500Y14237258D01*
%TO.C,R4*%
X67477500Y25762742D02*
X67477500Y26237258D01*
X68522500Y25762742D02*
X68522500Y26237258D01*
%TO.C,J2*%
X44000000Y46475000D02*
X44000000Y45725000D01*
X48310000Y46485000D02*
X40690000Y46485000D01*
X48300000Y45725000D02*
X48300000Y46475000D01*
X40700000Y45725000D02*
X42500000Y45725000D01*
X44500000Y41275000D02*
X42510000Y41275000D01*
X42500000Y46475000D02*
X40700000Y46475000D01*
X42500000Y45725000D02*
X42500000Y46475000D01*
X47550000Y44225000D02*
X47550000Y41275000D01*
X47550000Y41275000D02*
X44500000Y41275000D01*
X48300000Y46475000D02*
X46500000Y46475000D01*
X41450000Y44225000D02*
X41450000Y42885000D01*
X40690000Y46485000D02*
X40690000Y40515000D01*
X40700000Y46475000D02*
X40700000Y45725000D01*
X48300000Y44225000D02*
X47550000Y44225000D01*
X46500000Y46475000D02*
X46500000Y45725000D01*
X41650000Y46775000D02*
X40400000Y46775000D01*
X40690000Y40515000D02*
X48310000Y40515000D01*
X45000000Y45725000D02*
X45000000Y46475000D01*
X45000000Y46475000D02*
X44000000Y46475000D01*
X48310000Y40515000D02*
X48310000Y46485000D01*
X40700000Y44225000D02*
X41450000Y44225000D01*
X40400000Y46775000D02*
X40400000Y45525000D01*
X46500000Y45725000D02*
X48300000Y45725000D01*
X44000000Y45725000D02*
X45000000Y45725000D01*
%TO.C,SW2*%
X66140000Y41650000D02*
X60840000Y41650000D01*
X60840000Y31370000D02*
X62490000Y31370000D01*
X66140000Y31370000D02*
X66140000Y41650000D01*
X60840000Y41650000D02*
X60840000Y31370000D01*
X64490000Y31370000D02*
X66140000Y31370000D01*
X64490000Y31370000D02*
G75*
G03*
X62490000Y31370000I-1000000J0D01*
G01*
%TO.C,R8*%
X60880000Y26153641D02*
X60880000Y25846359D01*
X60120000Y26153641D02*
X60120000Y25846359D01*
%TO.C,J1*%
X22700000Y34700000D02*
X19750000Y34700000D01*
X19750000Y34700000D02*
X19750000Y37750000D01*
X19750000Y37750000D02*
X19750000Y39740000D01*
X24950000Y38250000D02*
X24200000Y38250000D01*
X24200000Y33950000D02*
X24950000Y33950000D01*
X24950000Y35750000D02*
X24200000Y35750000D01*
X22700000Y33950000D02*
X22700000Y34700000D01*
X24960000Y33940000D02*
X24960000Y41560000D01*
X24200000Y35750000D02*
X24200000Y33950000D01*
X24200000Y41550000D02*
X24200000Y39750000D01*
X18990000Y41560000D02*
X18990000Y33940000D01*
X24950000Y41550000D02*
X24200000Y41550000D01*
X24960000Y41560000D02*
X18990000Y41560000D01*
X24950000Y33950000D02*
X24950000Y35750000D01*
X24200000Y37250000D02*
X24950000Y37250000D01*
X24950000Y39750000D02*
X24950000Y41550000D01*
X25250000Y40600000D02*
X25250000Y41850000D01*
X22700000Y41550000D02*
X22700000Y40800000D01*
X25250000Y41850000D02*
X24000000Y41850000D01*
X24200000Y38250000D02*
X24200000Y37250000D01*
X22700000Y40800000D02*
X21360000Y40800000D01*
X18990000Y33940000D02*
X24960000Y33940000D01*
X24200000Y39750000D02*
X24950000Y39750000D01*
X24950000Y37250000D02*
X24950000Y38250000D01*
%TO.C,D1*%
X43045000Y39065000D02*
X39955000Y39065000D01*
X39955170Y39065000D02*
G75*
G03*
X41500462Y33515000I1544830J-2560000D01*
G01*
X41499538Y33515000D02*
G75*
G03*
X43044830Y39065000I462J2990000D01*
G01*
X44000000Y36505000D02*
G75*
G03*
X44000000Y36505000I-2500000J0D01*
G01*
%TO.C,U1*%
X5500000Y10500000D02*
X56500000Y10500000D01*
X56500000Y10500000D02*
X56500000Y31500000D01*
X56500000Y31500000D02*
X5500000Y31500000D01*
X5500000Y31500000D02*
X5500000Y10500000D01*
%TO.C,R7*%
X67477500Y7762742D02*
X67477500Y8237258D01*
X68522500Y7762742D02*
X68522500Y8237258D01*
%TO.C,J5*%
X46450000Y5700000D02*
X49500000Y5700000D01*
X49000000Y1250000D02*
X49000000Y500000D01*
X45700000Y500000D02*
X47500000Y500000D01*
X53600000Y200000D02*
X53600000Y1450000D01*
X49500000Y5700000D02*
X51490000Y5700000D01*
X47500000Y1250000D02*
X45700000Y1250000D01*
X47500000Y500000D02*
X47500000Y1250000D01*
X49000000Y500000D02*
X50000000Y500000D01*
X45700000Y1250000D02*
X45700000Y500000D01*
X52550000Y2750000D02*
X52550000Y4090000D01*
X53300000Y1250000D02*
X51500000Y1250000D01*
X51500000Y500000D02*
X53300000Y500000D01*
X50000000Y500000D02*
X50000000Y1250000D01*
X53300000Y2750000D02*
X52550000Y2750000D01*
X45700000Y2750000D02*
X46450000Y2750000D01*
X51500000Y1250000D02*
X51500000Y500000D01*
X45690000Y490000D02*
X53310000Y490000D01*
X50000000Y1250000D02*
X49000000Y1250000D01*
X53300000Y500000D02*
X53300000Y1250000D01*
X53310000Y490000D02*
X53310000Y6460000D01*
X53310000Y6460000D02*
X45690000Y6460000D01*
X45690000Y6460000D02*
X45690000Y490000D01*
X46450000Y2750000D02*
X46450000Y5700000D01*
X52350000Y200000D02*
X53600000Y200000D01*
%TO.C,J3*%
X57310000Y46485000D02*
X49690000Y46485000D01*
X55500000Y46475000D02*
X55500000Y45725000D01*
X49690000Y46485000D02*
X49690000Y40515000D01*
X57300000Y45725000D02*
X57300000Y46475000D01*
X56550000Y41275000D02*
X53500000Y41275000D01*
X49400000Y46775000D02*
X49400000Y45525000D01*
X53000000Y46475000D02*
X53000000Y45725000D01*
X57300000Y46475000D02*
X55500000Y46475000D01*
X55500000Y45725000D02*
X57300000Y45725000D01*
X49690000Y40515000D02*
X57310000Y40515000D01*
X51500000Y45725000D02*
X51500000Y46475000D01*
X51500000Y46475000D02*
X49700000Y46475000D01*
X56550000Y44225000D02*
X56550000Y41275000D01*
X54000000Y46475000D02*
X53000000Y46475000D01*
X49700000Y46475000D02*
X49700000Y45725000D01*
X49700000Y45725000D02*
X51500000Y45725000D01*
X50650000Y46775000D02*
X49400000Y46775000D01*
X54000000Y45725000D02*
X54000000Y46475000D01*
X57300000Y44225000D02*
X56550000Y44225000D01*
X53000000Y45725000D02*
X54000000Y45725000D01*
X53500000Y41275000D02*
X51510000Y41275000D01*
X50450000Y44225000D02*
X50450000Y42885000D01*
X57310000Y40515000D02*
X57310000Y46485000D01*
X49700000Y44225000D02*
X50450000Y44225000D01*
%TO.C,R1*%
X36120000Y34153641D02*
X36120000Y33846359D01*
X36880000Y34153641D02*
X36880000Y33846359D01*
%TO.C,D2*%
X23600000Y46150000D02*
X23600000Y42850000D01*
X23600000Y46150000D02*
X29000000Y46150000D01*
X23600000Y42850000D02*
X29000000Y42850000D01*
%TO.C,U5*%
X68120000Y18330000D02*
X69450000Y18330000D01*
X66850000Y15670000D02*
X59170000Y15670000D01*
X66850000Y18330000D02*
X66850000Y15670000D01*
X66850000Y18330000D02*
X59170000Y18330000D01*
X59170000Y18330000D02*
X59170000Y15670000D01*
X69450000Y18330000D02*
X69450000Y17000000D01*
%TO.C,SW1*%
X39065000Y41460000D02*
X30935000Y41460000D01*
X30935000Y41460000D02*
X30935000Y46540000D01*
X30935000Y46540000D02*
X39065000Y46540000D01*
X39065000Y46540000D02*
X39065000Y41460000D01*
%TO.C,R10*%
X60120000Y14153641D02*
X60120000Y13846359D01*
X60880000Y14153641D02*
X60880000Y13846359D01*
%TO.C,C2*%
X5620000Y33500000D02*
G75*
G03*
X5620000Y33500000I-2620000J0D01*
G01*
%TO.C,R11*%
X60880000Y8153641D02*
X60880000Y7846359D01*
X60120000Y8153641D02*
X60120000Y7846359D01*
%TO.C,J7*%
X11170000Y3245000D02*
X11170000Y8385000D01*
X13830000Y1975000D02*
X13830000Y645000D01*
X13830000Y3245000D02*
X11170000Y3245000D01*
X13830000Y645000D02*
X12500000Y645000D01*
X13830000Y8385000D02*
X11170000Y8385000D01*
X13830000Y3245000D02*
X13830000Y8385000D01*
%TD*%
%LPC*%
D12*
%TO.C,R5*%
X68000000Y19175000D03*
X68000000Y20825000D03*
%TD*%
D13*
%TO.C,Q1*%
X29437500Y37550000D03*
X29437500Y39450000D03*
X27562500Y38500000D03*
%TD*%
D14*
%TO.C,U8*%
X32600000Y5000000D03*
D15*
X31000000Y3000000D03*
D16*
X28500000Y3000000D03*
%TD*%
D17*
%TO.C,J8*%
X17000000Y1990000D03*
D18*
X17000000Y4530000D03*
X17000000Y7070000D03*
%TD*%
D19*
%TO.C,C1*%
X11500000Y44000000D03*
X9500000Y44000000D03*
%TD*%
D17*
%TO.C,U4*%
X68120000Y23000000D03*
D18*
X65580000Y23000000D03*
X63040000Y23000000D03*
X60500000Y23000000D03*
%TD*%
D20*
%TO.C,REF\u002A\u002A*%
X69000000Y3000000D03*
%TD*%
D21*
%TO.C,U7*%
X47300000Y25445000D03*
X47300000Y24175000D03*
X47300000Y22905000D03*
X47300000Y21635000D03*
X47300000Y20365000D03*
X47300000Y19095000D03*
X47300000Y17825000D03*
X47300000Y16555000D03*
X52700000Y16555000D03*
X52700000Y17825000D03*
X52700000Y19095000D03*
X52700000Y20365000D03*
X52700000Y21635000D03*
X52700000Y22905000D03*
X52700000Y24175000D03*
X52700000Y25445000D03*
%TD*%
D22*
%TO.C,R3*%
X31500000Y39980000D03*
X31500000Y38330000D03*
%TD*%
D17*
%TO.C,U3*%
X68000000Y29000000D03*
D18*
X65460000Y29000000D03*
X62920000Y29000000D03*
X60380000Y29000000D03*
%TD*%
D17*
%TO.C,U6*%
X68120000Y11000000D03*
D18*
X65580000Y11000000D03*
X63040000Y11000000D03*
X60500000Y11000000D03*
%TD*%
D23*
%TO.C,U2*%
X15700000Y35220000D03*
D24*
X9400000Y37500000D03*
D23*
X15700000Y39780000D03*
%TD*%
D17*
%TO.C,J9*%
X21500000Y1975000D03*
D18*
X21500000Y4515000D03*
X21500000Y7055000D03*
%TD*%
D14*
%TO.C,J4*%
X42350000Y4975000D03*
D15*
X40750000Y2975000D03*
D16*
X38250000Y2975000D03*
%TD*%
D12*
%TO.C,R2*%
X33500000Y33175000D03*
X33500000Y34825000D03*
%TD*%
D25*
%TO.C,R9*%
X60500000Y20510000D03*
X60500000Y19490000D03*
%TD*%
D14*
%TO.C,J6*%
X62600000Y5000000D03*
D15*
X61000000Y3000000D03*
D16*
X58500000Y3000000D03*
%TD*%
D12*
%TO.C,R6*%
X68000000Y13175000D03*
X68000000Y14825000D03*
%TD*%
%TO.C,R4*%
X68000000Y25175000D03*
X68000000Y26825000D03*
%TD*%
D20*
%TO.C,REF\u002A\u002A*%
X3000000Y44000000D03*
X3000000Y44000000D03*
%TD*%
D14*
%TO.C,J2*%
X41650000Y42025000D03*
D26*
X43250000Y44025000D03*
D16*
X45750000Y44025000D03*
%TD*%
D27*
%TO.C,SW2*%
X67300000Y32700000D03*
D28*
X67300000Y35240000D03*
X67300000Y37780000D03*
X67300000Y40320000D03*
X59680000Y40320000D03*
X59680000Y37780000D03*
X59680000Y35240000D03*
X59680000Y32700000D03*
%TD*%
D25*
%TO.C,R8*%
X60500000Y26510000D03*
X60500000Y25490000D03*
%TD*%
D14*
%TO.C,J1*%
X20500000Y40600000D03*
D29*
X22500000Y39000000D03*
D30*
X22500000Y36500000D03*
%TD*%
D31*
%TO.C,D1*%
X41500000Y37775000D03*
D32*
X41500000Y35235000D03*
%TD*%
D33*
%TO.C,U1*%
X6870000Y12110000D03*
X9410000Y12110000D03*
X11950000Y12110000D03*
X14490000Y12110000D03*
X17030000Y12110000D03*
X19570000Y12110000D03*
X22110000Y12110000D03*
X24650000Y12110000D03*
X27190000Y12110000D03*
X29730000Y12110000D03*
X32270000Y12110000D03*
X34810000Y12110000D03*
X37350000Y12110000D03*
X39890000Y12110000D03*
X42430000Y12110000D03*
X44970000Y12110000D03*
X47510000Y12110000D03*
X50050000Y12110000D03*
X52590000Y12110000D03*
X55130000Y12110000D03*
X55130000Y29890000D03*
X52590000Y29890000D03*
X50050000Y29890000D03*
X47510000Y29890000D03*
X44970000Y29890000D03*
X42430000Y29890000D03*
X39890000Y29890000D03*
X37350000Y29890000D03*
X34810000Y29890000D03*
X32270000Y29890000D03*
X29730000Y29890000D03*
X27190000Y29890000D03*
X24650000Y29890000D03*
X22110000Y29890000D03*
X19570000Y29890000D03*
X17030000Y29890000D03*
X14490000Y29890000D03*
X11950000Y29890000D03*
X9410000Y29890000D03*
X6870000Y29890000D03*
%TD*%
D12*
%TO.C,R7*%
X68000000Y7175000D03*
X68000000Y8825000D03*
%TD*%
D14*
%TO.C,J5*%
X52350000Y4950000D03*
D15*
X50750000Y2950000D03*
D16*
X48250000Y2950000D03*
%TD*%
D14*
%TO.C,J3*%
X50650000Y42025000D03*
D26*
X52250000Y44025000D03*
D16*
X54750000Y44025000D03*
%TD*%
D20*
%TO.C,REF\u002A\u002A*%
X3000000Y3000000D03*
%TD*%
D25*
%TO.C,R1*%
X36500000Y34510000D03*
X36500000Y33490000D03*
%TD*%
D34*
%TO.C,D2*%
X25000000Y44500000D03*
X29000000Y44500000D03*
%TD*%
D17*
%TO.C,U5*%
X68120000Y17000000D03*
D18*
X65580000Y17000000D03*
X63040000Y17000000D03*
X60500000Y17000000D03*
%TD*%
D33*
%TO.C,SW1*%
X37540000Y44000000D03*
X35000000Y44000000D03*
X32460000Y44000000D03*
%TD*%
D20*
%TO.C,REF\u002A\u002A*%
X69000000Y44000000D03*
%TD*%
D25*
%TO.C,R10*%
X60500000Y14510000D03*
X60500000Y13490000D03*
%TD*%
D19*
%TO.C,C2*%
X4000000Y33500000D03*
X2000000Y33500000D03*
%TD*%
D25*
%TO.C,R11*%
X60500000Y8510000D03*
X60500000Y7490000D03*
%TD*%
D17*
%TO.C,J7*%
X12500000Y1975000D03*
D18*
X12500000Y4515000D03*
X12500000Y7055000D03*
%TD*%
M02*
