%TF.GenerationSoftware,KiCad,Pcbnew,6.0.6-3a73a75311~116~ubuntu20.04.1*%
%TF.CreationDate,2023-07-29T16:30:59+09:00*%
%TF.ProjectId,catchrobo2023,63617463-6872-46f6-926f-323032332e6b,rev?*%
%TF.SameCoordinates,Original*%
%TF.FileFunction,Legend,Top*%
%TF.FilePolarity,Positive*%
%FSLAX46Y46*%
G04 Gerber Fmt 4.6, Leading zero omitted, Abs format (unit mm)*
G04 Created by KiCad (PCBNEW 6.0.6-3a73a75311~116~ubuntu20.04.1) date 2023-07-29 16:30:59*
%MOMM*%
%LPD*%
G01*
G04 APERTURE LIST*
G04 Aperture macros list*
%AMRoundRect*
0 Rectangle with rounded corners*
0 $1 Rounding radius*
0 $2 $3 $4 $5 $6 $7 $8 $9 X,Y pos of 4 corners*
0 Add a 4 corners polygon primitive as box body*
4,1,4,$2,$3,$4,$5,$6,$7,$8,$9,$2,$3,0*
0 Add four circle primitives for the rounded corners*
1,1,$1+$1,$2,$3*
1,1,$1+$1,$4,$5*
1,1,$1+$1,$6,$7*
1,1,$1+$1,$8,$9*
0 Add four rect primitives between the rounded corners*
20,1,$1+$1,$2,$3,$4,$5,0*
20,1,$1+$1,$4,$5,$6,$7,0*
20,1,$1+$1,$6,$7,$8,$9,0*
20,1,$1+$1,$8,$9,$2,$3,0*%
G04 Aperture macros list end*
%ADD10C,0.150000*%
%ADD11C,0.120000*%
%ADD12C,1.200000*%
%ADD13RoundRect,0.250000X-0.750000X0.600000X-0.750000X-0.600000X0.750000X-0.600000X0.750000X0.600000X0*%
%ADD14O,2.000000X1.700000*%
%ADD15RoundRect,0.250000X-0.600000X-0.725000X0.600000X-0.725000X0.600000X0.725000X-0.600000X0.725000X0*%
%ADD16O,1.700000X1.950000*%
%ADD17C,3.200000*%
%ADD18RoundRect,0.250000X0.600000X0.750000X-0.600000X0.750000X-0.600000X-0.750000X0.600000X-0.750000X0*%
%ADD19O,1.700000X2.000000*%
%ADD20C,1.524000*%
%ADD21RoundRect,0.225000X-0.225000X-0.250000X0.225000X-0.250000X0.225000X0.250000X-0.225000X0.250000X0*%
%ADD22R,1.700000X1.700000*%
%ADD23O,1.700000X1.700000*%
%ADD24C,1.600000*%
%ADD25R,2.200000X1.200000*%
%ADD26R,6.400000X5.800000*%
%ADD27C,1.700000*%
%ADD28RoundRect,0.200000X-0.200000X-0.275000X0.200000X-0.275000X0.200000X0.275000X-0.200000X0.275000X0*%
%ADD29RoundRect,0.150000X0.587500X0.150000X-0.587500X0.150000X-0.587500X-0.150000X0.587500X-0.150000X0*%
%ADD30R,2.500000X1.800000*%
%ADD31C,2.000000*%
%ADD32RoundRect,0.200000X0.200000X0.275000X-0.200000X0.275000X-0.200000X-0.275000X0.200000X-0.275000X0*%
G04 APERTURE END LIST*
D10*
X39261904Y40952381D02*
X39261904Y39952381D01*
X38880952Y39952381D01*
X38785714Y40000000D01*
X38738095Y40047620D01*
X38690476Y40142858D01*
X38690476Y40285715D01*
X38738095Y40380953D01*
X38785714Y40428572D01*
X38880952Y40476191D01*
X39261904Y40476191D01*
X38119047Y40952381D02*
X38214285Y40904762D01*
X38261904Y40857143D01*
X38309523Y40761905D01*
X38309523Y40476191D01*
X38261904Y40380953D01*
X38214285Y40333334D01*
X38119047Y40285715D01*
X37976190Y40285715D01*
X37880952Y40333334D01*
X37833333Y40380953D01*
X37785714Y40476191D01*
X37785714Y40761905D01*
X37833333Y40857143D01*
X37880952Y40904762D01*
X37976190Y40952381D01*
X38119047Y40952381D01*
X37452380Y40285715D02*
X37261904Y40952381D01*
X37071428Y40476191D01*
X36880952Y40952381D01*
X36690476Y40285715D01*
X35928571Y40904762D02*
X36023809Y40952381D01*
X36214285Y40952381D01*
X36309523Y40904762D01*
X36357142Y40809524D01*
X36357142Y40428572D01*
X36309523Y40333334D01*
X36214285Y40285715D01*
X36023809Y40285715D01*
X35928571Y40333334D01*
X35880952Y40428572D01*
X35880952Y40523810D01*
X36357142Y40619048D01*
X35452380Y40952381D02*
X35452380Y40285715D01*
X35452380Y40476191D02*
X35404761Y40380953D01*
X35357142Y40333334D01*
X35261904Y40285715D01*
X35166666Y40285715D01*
X34119047Y40904762D02*
X33976190Y40952381D01*
X33738095Y40952381D01*
X33642857Y40904762D01*
X33595238Y40857143D01*
X33547619Y40761905D01*
X33547619Y40666667D01*
X33595238Y40571429D01*
X33642857Y40523810D01*
X33738095Y40476191D01*
X33928571Y40428572D01*
X34023809Y40380953D01*
X34071428Y40333334D01*
X34119047Y40238096D01*
X34119047Y40142858D01*
X34071428Y40047620D01*
X34023809Y40000000D01*
X33928571Y39952381D01*
X33690476Y39952381D01*
X33547619Y40000000D01*
X33214285Y40285715D02*
X33023809Y40952381D01*
X32833333Y40476191D01*
X32642857Y40952381D01*
X32452380Y40285715D01*
X32071428Y40952381D02*
X32071428Y40285715D01*
X32071428Y39952381D02*
X32119047Y40000000D01*
X32071428Y40047620D01*
X32023809Y40000000D01*
X32071428Y39952381D01*
X32071428Y40047620D01*
X31738095Y40285715D02*
X31357142Y40285715D01*
X31595238Y39952381D02*
X31595238Y40809524D01*
X31547619Y40904762D01*
X31452380Y40952381D01*
X31357142Y40952381D01*
X30595238Y40904762D02*
X30690476Y40952381D01*
X30880952Y40952381D01*
X30976190Y40904762D01*
X31023809Y40857143D01*
X31071428Y40761905D01*
X31071428Y40476191D01*
X31023809Y40380953D01*
X30976190Y40333334D01*
X30880952Y40285715D01*
X30690476Y40285715D01*
X30595238Y40333334D01*
X30166666Y40952381D02*
X30166666Y39952381D01*
X29738095Y40952381D02*
X29738095Y40428572D01*
X29785714Y40333334D01*
X29880952Y40285715D01*
X30023809Y40285715D01*
X30119047Y40333334D01*
X30166666Y40380953D01*
X7385714Y5328572D02*
X7100000Y5328572D01*
X7071428Y5042858D01*
X7100000Y5071429D01*
X7157142Y5100000D01*
X7300000Y5100000D01*
X7357142Y5071429D01*
X7385714Y5042858D01*
X7414285Y4985715D01*
X7414285Y4842858D01*
X7385714Y4785715D01*
X7357142Y4757143D01*
X7300000Y4728572D01*
X7157142Y4728572D01*
X7100000Y4757143D01*
X7071428Y4785715D01*
X7585714Y5328572D02*
X7785714Y4728572D01*
X7985714Y5328572D01*
X69717904Y10461905D02*
X68917904Y10461905D01*
X69489333Y10728572D01*
X68917904Y10995239D01*
X69717904Y10995239D01*
X69717904Y11719048D02*
X69298857Y11719048D01*
X69222666Y11680953D01*
X69184571Y11604762D01*
X69184571Y11452381D01*
X69222666Y11376191D01*
X69679809Y11719048D02*
X69717904Y11642858D01*
X69717904Y11452381D01*
X69679809Y11376191D01*
X69603619Y11338096D01*
X69527428Y11338096D01*
X69451238Y11376191D01*
X69413142Y11452381D01*
X69413142Y11642858D01*
X69375047Y11719048D01*
X69717904Y12100000D02*
X69184571Y12100000D01*
X68917904Y12100000D02*
X68956000Y12061905D01*
X68994095Y12100000D01*
X68956000Y12138096D01*
X68917904Y12100000D01*
X68994095Y12100000D01*
X69184571Y12480953D02*
X69717904Y12480953D01*
X69260761Y12480953D02*
X69222666Y12519048D01*
X69184571Y12595239D01*
X69184571Y12709524D01*
X69222666Y12785715D01*
X69298857Y12823810D01*
X69717904Y12823810D01*
X69679809Y13776191D02*
X69717904Y13890477D01*
X69717904Y14080953D01*
X69679809Y14157143D01*
X69641714Y14195239D01*
X69565523Y14233334D01*
X69489333Y14233334D01*
X69413142Y14195239D01*
X69375047Y14157143D01*
X69336952Y14080953D01*
X69298857Y13928572D01*
X69260761Y13852381D01*
X69222666Y13814286D01*
X69146476Y13776191D01*
X69070285Y13776191D01*
X68994095Y13814286D01*
X68956000Y13852381D01*
X68917904Y13928572D01*
X68917904Y14119048D01*
X68956000Y14233334D01*
X69184571Y14919048D02*
X69717904Y14919048D01*
X69184571Y14576191D02*
X69603619Y14576191D01*
X69679809Y14614286D01*
X69717904Y14690477D01*
X69717904Y14804762D01*
X69679809Y14880953D01*
X69641714Y14919048D01*
X69717904Y15300000D02*
X68917904Y15300000D01*
X69222666Y15300000D02*
X69184571Y15376191D01*
X69184571Y15528572D01*
X69222666Y15604762D01*
X69260761Y15642858D01*
X69336952Y15680953D01*
X69565523Y15680953D01*
X69641714Y15642858D01*
X69679809Y15604762D01*
X69717904Y15528572D01*
X69717904Y15376191D01*
X69679809Y15300000D01*
X69679809Y15985715D02*
X69717904Y16061905D01*
X69717904Y16214286D01*
X69679809Y16290477D01*
X69603619Y16328572D01*
X69565523Y16328572D01*
X69489333Y16290477D01*
X69451238Y16214286D01*
X69451238Y16100000D01*
X69413142Y16023810D01*
X69336952Y15985715D01*
X69298857Y15985715D01*
X69222666Y16023810D01*
X69184571Y16100000D01*
X69184571Y16214286D01*
X69222666Y16290477D01*
X69184571Y16557143D02*
X69184571Y16861905D01*
X68917904Y16671429D02*
X69603619Y16671429D01*
X69679809Y16709524D01*
X69717904Y16785715D01*
X69717904Y16861905D01*
X69717904Y17128572D02*
X69184571Y17128572D01*
X69336952Y17128572D02*
X69260761Y17166667D01*
X69222666Y17204762D01*
X69184571Y17280953D01*
X69184571Y17357143D01*
X69717904Y17966667D02*
X69298857Y17966667D01*
X69222666Y17928572D01*
X69184571Y17852381D01*
X69184571Y17700000D01*
X69222666Y17623810D01*
X69679809Y17966667D02*
X69717904Y17890477D01*
X69717904Y17700000D01*
X69679809Y17623810D01*
X69603619Y17585715D01*
X69527428Y17585715D01*
X69451238Y17623810D01*
X69413142Y17700000D01*
X69413142Y17890477D01*
X69375047Y17966667D01*
X69184571Y18233334D02*
X69184571Y18538096D01*
X68917904Y18347620D02*
X69603619Y18347620D01*
X69679809Y18385715D01*
X69717904Y18461905D01*
X69717904Y18538096D01*
X69679809Y19109524D02*
X69717904Y19033334D01*
X69717904Y18880953D01*
X69679809Y18804762D01*
X69603619Y18766667D01*
X69298857Y18766667D01*
X69222666Y18804762D01*
X69184571Y18880953D01*
X69184571Y19033334D01*
X69222666Y19109524D01*
X69298857Y19147620D01*
X69375047Y19147620D01*
X69451238Y18766667D01*
X69184571Y19985715D02*
X69184571Y20290477D01*
X69717904Y20100000D02*
X69032190Y20100000D01*
X68956000Y20138096D01*
X68917904Y20214286D01*
X68917904Y20290477D01*
X69717904Y20671429D02*
X69679809Y20595239D01*
X69641714Y20557143D01*
X69565523Y20519048D01*
X69336952Y20519048D01*
X69260761Y20557143D01*
X69222666Y20595239D01*
X69184571Y20671429D01*
X69184571Y20785715D01*
X69222666Y20861905D01*
X69260761Y20900000D01*
X69336952Y20938096D01*
X69565523Y20938096D01*
X69641714Y20900000D01*
X69679809Y20861905D01*
X69717904Y20785715D01*
X69717904Y20671429D01*
X69717904Y21280953D02*
X69184571Y21280953D01*
X69336952Y21280953D02*
X69260761Y21319048D01*
X69222666Y21357143D01*
X69184571Y21433334D01*
X69184571Y21509524D01*
X69641714Y22842858D02*
X69679809Y22804762D01*
X69717904Y22690477D01*
X69717904Y22614286D01*
X69679809Y22500000D01*
X69603619Y22423810D01*
X69527428Y22385715D01*
X69375047Y22347620D01*
X69260761Y22347620D01*
X69108380Y22385715D01*
X69032190Y22423810D01*
X68956000Y22500000D01*
X68917904Y22614286D01*
X68917904Y22690477D01*
X68956000Y22804762D01*
X68994095Y22842858D01*
X69717904Y23528572D02*
X69298857Y23528572D01*
X69222666Y23490477D01*
X69184571Y23414286D01*
X69184571Y23261905D01*
X69222666Y23185715D01*
X69679809Y23528572D02*
X69717904Y23452381D01*
X69717904Y23261905D01*
X69679809Y23185715D01*
X69603619Y23147620D01*
X69527428Y23147620D01*
X69451238Y23185715D01*
X69413142Y23261905D01*
X69413142Y23452381D01*
X69375047Y23528572D01*
X69184571Y23795239D02*
X69184571Y24100000D01*
X68917904Y23909524D02*
X69603619Y23909524D01*
X69679809Y23947620D01*
X69717904Y24023810D01*
X69717904Y24100000D01*
X69679809Y24709524D02*
X69717904Y24633334D01*
X69717904Y24480953D01*
X69679809Y24404762D01*
X69641714Y24366667D01*
X69565523Y24328572D01*
X69336952Y24328572D01*
X69260761Y24366667D01*
X69222666Y24404762D01*
X69184571Y24480953D01*
X69184571Y24633334D01*
X69222666Y24709524D01*
X69717904Y25052381D02*
X68917904Y25052381D01*
X69717904Y25395239D02*
X69298857Y25395239D01*
X69222666Y25357143D01*
X69184571Y25280953D01*
X69184571Y25166667D01*
X69222666Y25090477D01*
X69260761Y25052381D01*
X69717904Y26233334D02*
X69336952Y25966667D01*
X69717904Y25776191D02*
X68917904Y25776191D01*
X68917904Y26080953D01*
X68956000Y26157143D01*
X68994095Y26195239D01*
X69070285Y26233334D01*
X69184571Y26233334D01*
X69260761Y26195239D01*
X69298857Y26157143D01*
X69336952Y26080953D01*
X69336952Y25776191D01*
X69717904Y26690477D02*
X69679809Y26614286D01*
X69641714Y26576191D01*
X69565523Y26538096D01*
X69336952Y26538096D01*
X69260761Y26576191D01*
X69222666Y26614286D01*
X69184571Y26690477D01*
X69184571Y26804762D01*
X69222666Y26880953D01*
X69260761Y26919048D01*
X69336952Y26957143D01*
X69565523Y26957143D01*
X69641714Y26919048D01*
X69679809Y26880953D01*
X69717904Y26804762D01*
X69717904Y26690477D01*
X69717904Y27300000D02*
X68917904Y27300000D01*
X69222666Y27300000D02*
X69184571Y27376191D01*
X69184571Y27528572D01*
X69222666Y27604762D01*
X69260761Y27642858D01*
X69336952Y27680953D01*
X69565523Y27680953D01*
X69641714Y27642858D01*
X69679809Y27604762D01*
X69717904Y27528572D01*
X69717904Y27376191D01*
X69679809Y27300000D01*
X69717904Y28138096D02*
X69679809Y28061905D01*
X69641714Y28023810D01*
X69565523Y27985715D01*
X69336952Y27985715D01*
X69260761Y28023810D01*
X69222666Y28061905D01*
X69184571Y28138096D01*
X69184571Y28252381D01*
X69222666Y28328572D01*
X69260761Y28366667D01*
X69336952Y28404762D01*
X69565523Y28404762D01*
X69641714Y28366667D01*
X69679809Y28328572D01*
X69717904Y28252381D01*
X69717904Y28138096D01*
X68994095Y28709524D02*
X68956000Y28747620D01*
X68917904Y28823810D01*
X68917904Y29014286D01*
X68956000Y29090477D01*
X68994095Y29128572D01*
X69070285Y29166667D01*
X69146476Y29166667D01*
X69260761Y29128572D01*
X69717904Y28671429D01*
X69717904Y29166667D01*
X68917904Y29661905D02*
X68917904Y29738096D01*
X68956000Y29814286D01*
X68994095Y29852381D01*
X69070285Y29890477D01*
X69222666Y29928572D01*
X69413142Y29928572D01*
X69565523Y29890477D01*
X69641714Y29852381D01*
X69679809Y29814286D01*
X69717904Y29738096D01*
X69717904Y29661905D01*
X69679809Y29585715D01*
X69641714Y29547620D01*
X69565523Y29509524D01*
X69413142Y29471429D01*
X69222666Y29471429D01*
X69070285Y29509524D01*
X68994095Y29547620D01*
X68956000Y29585715D01*
X68917904Y29661905D01*
X68994095Y30233334D02*
X68956000Y30271429D01*
X68917904Y30347620D01*
X68917904Y30538096D01*
X68956000Y30614286D01*
X68994095Y30652381D01*
X69070285Y30690477D01*
X69146476Y30690477D01*
X69260761Y30652381D01*
X69717904Y30195239D01*
X69717904Y30690477D01*
X68917904Y30957143D02*
X68917904Y31452381D01*
X69222666Y31185715D01*
X69222666Y31300000D01*
X69260761Y31376191D01*
X69298857Y31414286D01*
X69375047Y31452381D01*
X69565523Y31452381D01*
X69641714Y31414286D01*
X69679809Y31376191D01*
X69717904Y31300000D01*
X69717904Y31071429D01*
X69679809Y30995239D01*
X69641714Y30957143D01*
X69184571Y32328572D02*
X69717904Y32519048D01*
X69184571Y32709524D01*
X68994095Y32976191D02*
X68956000Y33014286D01*
X68917904Y33090477D01*
X68917904Y33280953D01*
X68956000Y33357143D01*
X68994095Y33395239D01*
X69070285Y33433334D01*
X69146476Y33433334D01*
X69260761Y33395239D01*
X69717904Y32938096D01*
X69717904Y33433334D01*
X69641714Y33776191D02*
X69679809Y33814286D01*
X69717904Y33776191D01*
X69679809Y33738096D01*
X69641714Y33776191D01*
X69717904Y33776191D01*
X68917904Y34309524D02*
X68917904Y34385715D01*
X68956000Y34461905D01*
X68994095Y34500000D01*
X69070285Y34538096D01*
X69222666Y34576191D01*
X69413142Y34576191D01*
X69565523Y34538096D01*
X69641714Y34500000D01*
X69679809Y34461905D01*
X69717904Y34385715D01*
X69717904Y34309524D01*
X69679809Y34233334D01*
X69641714Y34195239D01*
X69565523Y34157143D01*
X69413142Y34119048D01*
X69222666Y34119048D01*
X69070285Y34157143D01*
X68994095Y34195239D01*
X68956000Y34233334D01*
X68917904Y34309524D01*
X70929714Y16138096D02*
X70967809Y16100000D01*
X71005904Y15985715D01*
X71005904Y15909524D01*
X70967809Y15795239D01*
X70891619Y15719048D01*
X70815428Y15680953D01*
X70663047Y15642858D01*
X70548761Y15642858D01*
X70396380Y15680953D01*
X70320190Y15719048D01*
X70244000Y15795239D01*
X70205904Y15909524D01*
X70205904Y15985715D01*
X70244000Y16100000D01*
X70282095Y16138096D01*
X71005904Y16480953D02*
X70472571Y16480953D01*
X70624952Y16480953D02*
X70548761Y16519048D01*
X70510666Y16557143D01*
X70472571Y16633334D01*
X70472571Y16709524D01*
X70967809Y17280953D02*
X71005904Y17204762D01*
X71005904Y17052381D01*
X70967809Y16976191D01*
X70891619Y16938096D01*
X70586857Y16938096D01*
X70510666Y16976191D01*
X70472571Y17052381D01*
X70472571Y17204762D01*
X70510666Y17280953D01*
X70586857Y17319048D01*
X70663047Y17319048D01*
X70739238Y16938096D01*
X71005904Y18004762D02*
X70586857Y18004762D01*
X70510666Y17966667D01*
X70472571Y17890477D01*
X70472571Y17738096D01*
X70510666Y17661905D01*
X70967809Y18004762D02*
X71005904Y17928572D01*
X71005904Y17738096D01*
X70967809Y17661905D01*
X70891619Y17623810D01*
X70815428Y17623810D01*
X70739238Y17661905D01*
X70701142Y17738096D01*
X70701142Y17928572D01*
X70663047Y18004762D01*
X70472571Y18271429D02*
X70472571Y18576191D01*
X70205904Y18385715D02*
X70891619Y18385715D01*
X70967809Y18423810D01*
X71005904Y18500000D01*
X71005904Y18576191D01*
X70967809Y19147620D02*
X71005904Y19071429D01*
X71005904Y18919048D01*
X70967809Y18842858D01*
X70891619Y18804762D01*
X70586857Y18804762D01*
X70510666Y18842858D01*
X70472571Y18919048D01*
X70472571Y19071429D01*
X70510666Y19147620D01*
X70586857Y19185715D01*
X70663047Y19185715D01*
X70739238Y18804762D01*
X71005904Y19871429D02*
X70205904Y19871429D01*
X70967809Y19871429D02*
X71005904Y19795239D01*
X71005904Y19642858D01*
X70967809Y19566667D01*
X70929714Y19528572D01*
X70853523Y19490477D01*
X70624952Y19490477D01*
X70548761Y19528572D01*
X70510666Y19566667D01*
X70472571Y19642858D01*
X70472571Y19795239D01*
X70510666Y19871429D01*
X71005904Y20861905D02*
X70205904Y20861905D01*
X70510666Y20861905D02*
X70472571Y20938096D01*
X70472571Y21090477D01*
X70510666Y21166667D01*
X70548761Y21204762D01*
X70624952Y21242858D01*
X70853523Y21242858D01*
X70929714Y21204762D01*
X70967809Y21166667D01*
X71005904Y21090477D01*
X71005904Y20938096D01*
X70967809Y20861905D01*
X70472571Y21509524D02*
X71005904Y21700000D01*
X70472571Y21890477D02*
X71005904Y21700000D01*
X71196380Y21623810D01*
X71234476Y21585715D01*
X71272571Y21509524D01*
X71005904Y22804762D02*
X70205904Y22804762D01*
X70205904Y22995239D01*
X70244000Y23109524D01*
X70320190Y23185715D01*
X70396380Y23223810D01*
X70548761Y23261905D01*
X70663047Y23261905D01*
X70815428Y23223810D01*
X70891619Y23185715D01*
X70967809Y23109524D01*
X71005904Y22995239D01*
X71005904Y22804762D01*
X70967809Y23909524D02*
X71005904Y23833334D01*
X71005904Y23680953D01*
X70967809Y23604762D01*
X70891619Y23566667D01*
X70586857Y23566667D01*
X70510666Y23604762D01*
X70472571Y23680953D01*
X70472571Y23833334D01*
X70510666Y23909524D01*
X70586857Y23947620D01*
X70663047Y23947620D01*
X70739238Y23566667D01*
X71005904Y24290477D02*
X70472571Y24290477D01*
X70205904Y24290477D02*
X70244000Y24252381D01*
X70282095Y24290477D01*
X70244000Y24328572D01*
X70205904Y24290477D01*
X70282095Y24290477D01*
X70472571Y24671429D02*
X71158285Y24671429D01*
X71234476Y24633334D01*
X71272571Y24557143D01*
X71272571Y24519048D01*
X70205904Y24671429D02*
X70244000Y24633334D01*
X70282095Y24671429D01*
X70244000Y24709524D01*
X70205904Y24671429D01*
X70282095Y24671429D01*
X71005904Y25052381D02*
X70472571Y25052381D01*
X70205904Y25052381D02*
X70244000Y25014286D01*
X70282095Y25052381D01*
X70244000Y25090477D01*
X70205904Y25052381D01*
X70282095Y25052381D01*
X71005904Y25433334D02*
X70472571Y25433334D01*
X70624952Y25433334D02*
X70548761Y25471429D01*
X70510666Y25509524D01*
X70472571Y25585715D01*
X70472571Y25661905D01*
X71005904Y26042858D02*
X70967809Y25966667D01*
X70929714Y25928572D01*
X70853523Y25890477D01*
X70624952Y25890477D01*
X70548761Y25928572D01*
X70510666Y25966667D01*
X70472571Y26042858D01*
X70472571Y26157143D01*
X70510666Y26233334D01*
X70548761Y26271429D01*
X70624952Y26309524D01*
X70853523Y26309524D01*
X70929714Y26271429D01*
X70967809Y26233334D01*
X71005904Y26157143D01*
X71005904Y26042858D01*
X70205904Y26804762D02*
X70205904Y26880953D01*
X70244000Y26957143D01*
X70282095Y26995239D01*
X70358285Y27033334D01*
X70510666Y27071429D01*
X70701142Y27071429D01*
X70853523Y27033334D01*
X70929714Y26995239D01*
X70967809Y26957143D01*
X71005904Y26880953D01*
X71005904Y26804762D01*
X70967809Y26728572D01*
X70929714Y26690477D01*
X70853523Y26652381D01*
X70701142Y26614286D01*
X70510666Y26614286D01*
X70358285Y26652381D01*
X70282095Y26690477D01*
X70244000Y26728572D01*
X70205904Y26804762D01*
X71005904Y27833334D02*
X71005904Y27376191D01*
X71005904Y27604762D02*
X70205904Y27604762D01*
X70320190Y27528572D01*
X70396380Y27452381D01*
X70434476Y27376191D01*
X70205904Y28100000D02*
X70205904Y28595239D01*
X70510666Y28328572D01*
X70510666Y28442858D01*
X70548761Y28519048D01*
X70586857Y28557143D01*
X70663047Y28595239D01*
X70853523Y28595239D01*
X70929714Y28557143D01*
X70967809Y28519048D01*
X71005904Y28442858D01*
X71005904Y28214286D01*
X70967809Y28138096D01*
X70929714Y28100000D01*
X70548761Y29052381D02*
X70510666Y28976191D01*
X70472571Y28938096D01*
X70396380Y28900000D01*
X70358285Y28900000D01*
X70282095Y28938096D01*
X70244000Y28976191D01*
X70205904Y29052381D01*
X70205904Y29204762D01*
X70244000Y29280953D01*
X70282095Y29319048D01*
X70358285Y29357143D01*
X70396380Y29357143D01*
X70472571Y29319048D01*
X70510666Y29280953D01*
X70548761Y29204762D01*
X70548761Y29052381D01*
X70586857Y28976191D01*
X70624952Y28938096D01*
X70701142Y28900000D01*
X70853523Y28900000D01*
X70929714Y28938096D01*
X70967809Y28976191D01*
X71005904Y29052381D01*
X71005904Y29204762D01*
X70967809Y29280953D01*
X70929714Y29319048D01*
X70853523Y29357143D01*
X70701142Y29357143D01*
X70624952Y29319048D01*
X70586857Y29280953D01*
X70548761Y29204762D01*
X15600000Y10740143D02*
X15685714Y10711572D01*
X15828571Y10711572D01*
X15885714Y10740143D01*
X15914285Y10768715D01*
X15942857Y10825858D01*
X15942857Y10883000D01*
X15914285Y10940143D01*
X15885714Y10968715D01*
X15828571Y10997286D01*
X15714285Y11025858D01*
X15657142Y11054429D01*
X15628571Y11083000D01*
X15600000Y11140143D01*
X15600000Y11197286D01*
X15628571Y11254429D01*
X15657142Y11283000D01*
X15714285Y11311572D01*
X15857142Y11311572D01*
X15942857Y11283000D01*
X16428571Y10740143D02*
X16371428Y10711572D01*
X16257142Y10711572D01*
X16200000Y10740143D01*
X16171428Y10797286D01*
X16171428Y11025858D01*
X16200000Y11083000D01*
X16257142Y11111572D01*
X16371428Y11111572D01*
X16428571Y11083000D01*
X16457142Y11025858D01*
X16457142Y10968715D01*
X16171428Y10911572D01*
X16714285Y10711572D02*
X16714285Y11111572D01*
X16714285Y10997286D02*
X16742857Y11054429D01*
X16771428Y11083000D01*
X16828571Y11111572D01*
X16885714Y11111572D01*
X17028571Y11111572D02*
X17171428Y10711572D01*
X17314285Y11111572D01*
X17628571Y10711572D02*
X17571428Y10740143D01*
X17542857Y10768715D01*
X17514285Y10825858D01*
X17514285Y10997286D01*
X17542857Y11054429D01*
X17571428Y11083000D01*
X17628571Y11111572D01*
X17714285Y11111572D01*
X17771428Y11083000D01*
X17800000Y11054429D01*
X17828571Y10997286D01*
X17828571Y10825858D01*
X17800000Y10768715D01*
X17771428Y10740143D01*
X17714285Y10711572D01*
X17628571Y10711572D01*
X18028571Y11311572D02*
X18400000Y11311572D01*
X18200000Y11083000D01*
X18285714Y11083000D01*
X18342857Y11054429D01*
X18371428Y11025858D01*
X18400000Y10968715D01*
X18400000Y10825858D01*
X18371428Y10768715D01*
X18342857Y10740143D01*
X18285714Y10711572D01*
X18114285Y10711572D01*
X18057142Y10740143D01*
X18028571Y10768715D01*
X16028571Y9517000D02*
X16000000Y9545572D01*
X15942857Y9631286D01*
X15914285Y9688429D01*
X15885714Y9774143D01*
X15857142Y9917000D01*
X15857142Y10031286D01*
X15885714Y10174143D01*
X15914285Y10259858D01*
X15942857Y10317000D01*
X16000000Y10402715D01*
X16028571Y10431286D01*
X16571428Y10317000D02*
X16514285Y10345572D01*
X16428571Y10345572D01*
X16342857Y10317000D01*
X16285714Y10259858D01*
X16257142Y10202715D01*
X16228571Y10088429D01*
X16228571Y10002715D01*
X16257142Y9888429D01*
X16285714Y9831286D01*
X16342857Y9774143D01*
X16428571Y9745572D01*
X16485714Y9745572D01*
X16571428Y9774143D01*
X16600000Y9802715D01*
X16600000Y10002715D01*
X16485714Y10002715D01*
X16857142Y9745572D02*
X16857142Y10345572D01*
X17085714Y10345572D01*
X17142857Y10317000D01*
X17171428Y10288429D01*
X17200000Y10231286D01*
X17200000Y10145572D01*
X17171428Y10088429D01*
X17142857Y10059858D01*
X17085714Y10031286D01*
X16857142Y10031286D01*
X17428571Y10288429D02*
X17457142Y10317000D01*
X17514285Y10345572D01*
X17657142Y10345572D01*
X17714285Y10317000D01*
X17742857Y10288429D01*
X17771428Y10231286D01*
X17771428Y10174143D01*
X17742857Y10088429D01*
X17400000Y9745572D01*
X17771428Y9745572D01*
X17971428Y9517000D02*
X18000000Y9545572D01*
X18057142Y9631286D01*
X18085714Y9688429D01*
X18114285Y9774143D01*
X18142857Y9917000D01*
X18142857Y10031286D01*
X18114285Y10174143D01*
X18085714Y10259858D01*
X18057142Y10317000D01*
X18000000Y10402715D01*
X17971428Y10431286D01*
X24599761Y20238096D02*
X24647380Y20380953D01*
X24647380Y20619048D01*
X24599761Y20714286D01*
X24552142Y20761905D01*
X24456904Y20809524D01*
X24361666Y20809524D01*
X24266428Y20761905D01*
X24218809Y20714286D01*
X24171190Y20619048D01*
X24123571Y20428572D01*
X24075952Y20333334D01*
X24028333Y20285715D01*
X23933095Y20238096D01*
X23837857Y20238096D01*
X23742619Y20285715D01*
X23695000Y20333334D01*
X23647380Y20428572D01*
X23647380Y20666667D01*
X23695000Y20809524D01*
X23980714Y21238096D02*
X24980714Y21238096D01*
X24028333Y21238096D02*
X23980714Y21333334D01*
X23980714Y21523810D01*
X24028333Y21619048D01*
X24075952Y21666667D01*
X24171190Y21714286D01*
X24456904Y21714286D01*
X24552142Y21666667D01*
X24599761Y21619048D01*
X24647380Y21523810D01*
X24647380Y21333334D01*
X24599761Y21238096D01*
X24599761Y22523810D02*
X24647380Y22428572D01*
X24647380Y22238096D01*
X24599761Y22142858D01*
X24504523Y22095239D01*
X24123571Y22095239D01*
X24028333Y22142858D01*
X23980714Y22238096D01*
X23980714Y22428572D01*
X24028333Y22523810D01*
X24123571Y22571429D01*
X24218809Y22571429D01*
X24314047Y22095239D01*
X24647380Y23428572D02*
X24123571Y23428572D01*
X24028333Y23380953D01*
X23980714Y23285715D01*
X23980714Y23095239D01*
X24028333Y23000000D01*
X24599761Y23428572D02*
X24647380Y23333334D01*
X24647380Y23095239D01*
X24599761Y23000000D01*
X24504523Y22952381D01*
X24409285Y22952381D01*
X24314047Y23000000D01*
X24266428Y23095239D01*
X24266428Y23333334D01*
X24218809Y23428572D01*
X24647380Y23904762D02*
X23647380Y23904762D01*
X24266428Y24000000D02*
X24647380Y24285715D01*
X23980714Y24285715D02*
X24361666Y23904762D01*
X24599761Y25095239D02*
X24647380Y25000000D01*
X24647380Y24809524D01*
X24599761Y24714286D01*
X24504523Y24666667D01*
X24123571Y24666667D01*
X24028333Y24714286D01*
X23980714Y24809524D01*
X23980714Y25000000D01*
X24028333Y25095239D01*
X24123571Y25142858D01*
X24218809Y25142858D01*
X24314047Y24666667D01*
X24647380Y25571429D02*
X23980714Y25571429D01*
X24171190Y25571429D02*
X24075952Y25619048D01*
X24028333Y25666667D01*
X23980714Y25761905D01*
X23980714Y25857143D01*
X26638333Y21380953D02*
X26590714Y21333334D01*
X26447857Y21238096D01*
X26352619Y21190477D01*
X26209761Y21142858D01*
X25971666Y21095239D01*
X25781190Y21095239D01*
X25543095Y21142858D01*
X25400238Y21190477D01*
X25305000Y21238096D01*
X25162142Y21333334D01*
X25114523Y21380953D01*
X25305000Y22285715D02*
X25257380Y22190477D01*
X25257380Y22047620D01*
X25305000Y21904762D01*
X25400238Y21809524D01*
X25495476Y21761905D01*
X25685952Y21714286D01*
X25828809Y21714286D01*
X26019285Y21761905D01*
X26114523Y21809524D01*
X26209761Y21904762D01*
X26257380Y22047620D01*
X26257380Y22142858D01*
X26209761Y22285715D01*
X26162142Y22333334D01*
X25828809Y22333334D01*
X25828809Y22142858D01*
X26257380Y22761905D02*
X25257380Y22761905D01*
X25257380Y23142858D01*
X25305000Y23238096D01*
X25352619Y23285715D01*
X25447857Y23333334D01*
X25590714Y23333334D01*
X25685952Y23285715D01*
X25733571Y23238096D01*
X25781190Y23142858D01*
X25781190Y22761905D01*
X25257380Y23666667D02*
X25257380Y24285715D01*
X25638333Y23952381D01*
X25638333Y24095239D01*
X25685952Y24190477D01*
X25733571Y24238096D01*
X25828809Y24285715D01*
X26066904Y24285715D01*
X26162142Y24238096D01*
X26209761Y24190477D01*
X26257380Y24095239D01*
X26257380Y23809524D01*
X26209761Y23714286D01*
X26162142Y23666667D01*
X26638333Y24619048D02*
X26590714Y24666667D01*
X26447857Y24761905D01*
X26352619Y24809524D01*
X26209761Y24857143D01*
X25971666Y24904762D01*
X25781190Y24904762D01*
X25543095Y24857143D01*
X25400238Y24809524D01*
X25305000Y24761905D01*
X25162142Y24666667D01*
X25114523Y24619048D01*
X8600000Y10740143D02*
X8685714Y10711572D01*
X8828571Y10711572D01*
X8885714Y10740143D01*
X8914285Y10768715D01*
X8942857Y10825858D01*
X8942857Y10883000D01*
X8914285Y10940143D01*
X8885714Y10968715D01*
X8828571Y10997286D01*
X8714285Y11025858D01*
X8657142Y11054429D01*
X8628571Y11083000D01*
X8600000Y11140143D01*
X8600000Y11197286D01*
X8628571Y11254429D01*
X8657142Y11283000D01*
X8714285Y11311572D01*
X8857142Y11311572D01*
X8942857Y11283000D01*
X9428571Y10740143D02*
X9371428Y10711572D01*
X9257142Y10711572D01*
X9200000Y10740143D01*
X9171428Y10797286D01*
X9171428Y11025858D01*
X9200000Y11083000D01*
X9257142Y11111572D01*
X9371428Y11111572D01*
X9428571Y11083000D01*
X9457142Y11025858D01*
X9457142Y10968715D01*
X9171428Y10911572D01*
X9714285Y10711572D02*
X9714285Y11111572D01*
X9714285Y10997286D02*
X9742857Y11054429D01*
X9771428Y11083000D01*
X9828571Y11111572D01*
X9885714Y11111572D01*
X10028571Y11111572D02*
X10171428Y10711572D01*
X10314285Y11111572D01*
X10628571Y10711572D02*
X10571428Y10740143D01*
X10542857Y10768715D01*
X10514285Y10825858D01*
X10514285Y10997286D01*
X10542857Y11054429D01*
X10571428Y11083000D01*
X10628571Y11111572D01*
X10714285Y11111572D01*
X10771428Y11083000D01*
X10800000Y11054429D01*
X10828571Y10997286D01*
X10828571Y10825858D01*
X10800000Y10768715D01*
X10771428Y10740143D01*
X10714285Y10711572D01*
X10628571Y10711572D01*
X11400000Y10711572D02*
X11057142Y10711572D01*
X11228571Y10711572D02*
X11228571Y11311572D01*
X11171428Y11225858D01*
X11114285Y11168715D01*
X11057142Y11140143D01*
X9028571Y9517000D02*
X9000000Y9545572D01*
X8942857Y9631286D01*
X8914285Y9688429D01*
X8885714Y9774143D01*
X8857142Y9917000D01*
X8857142Y10031286D01*
X8885714Y10174143D01*
X8914285Y10259858D01*
X8942857Y10317000D01*
X9000000Y10402715D01*
X9028571Y10431286D01*
X9571428Y10317000D02*
X9514285Y10345572D01*
X9428571Y10345572D01*
X9342857Y10317000D01*
X9285714Y10259858D01*
X9257142Y10202715D01*
X9228571Y10088429D01*
X9228571Y10002715D01*
X9257142Y9888429D01*
X9285714Y9831286D01*
X9342857Y9774143D01*
X9428571Y9745572D01*
X9485714Y9745572D01*
X9571428Y9774143D01*
X9600000Y9802715D01*
X9600000Y10002715D01*
X9485714Y10002715D01*
X9857142Y9745572D02*
X9857142Y10345572D01*
X10085714Y10345572D01*
X10142857Y10317000D01*
X10171428Y10288429D01*
X10200000Y10231286D01*
X10200000Y10145572D01*
X10171428Y10088429D01*
X10142857Y10059858D01*
X10085714Y10031286D01*
X9857142Y10031286D01*
X10571428Y10345572D02*
X10628571Y10345572D01*
X10685714Y10317000D01*
X10714285Y10288429D01*
X10742857Y10231286D01*
X10771428Y10117000D01*
X10771428Y9974143D01*
X10742857Y9859858D01*
X10714285Y9802715D01*
X10685714Y9774143D01*
X10628571Y9745572D01*
X10571428Y9745572D01*
X10514285Y9774143D01*
X10485714Y9802715D01*
X10457142Y9859858D01*
X10428571Y9974143D01*
X10428571Y10117000D01*
X10457142Y10231286D01*
X10485714Y10288429D01*
X10514285Y10317000D01*
X10571428Y10345572D01*
X10971428Y9517000D02*
X11000000Y9545572D01*
X11057142Y9631286D01*
X11085714Y9688429D01*
X11114285Y9774143D01*
X11142857Y9917000D01*
X11142857Y10031286D01*
X11114285Y10174143D01*
X11085714Y10259858D01*
X11057142Y10317000D01*
X11000000Y10402715D01*
X10971428Y10431286D01*
X50095238Y10142858D02*
X50047619Y10095239D01*
X49904761Y10047620D01*
X49809523Y10047620D01*
X49666666Y10095239D01*
X49571428Y10190477D01*
X49523809Y10285715D01*
X49476190Y10476191D01*
X49476190Y10619048D01*
X49523809Y10809524D01*
X49571428Y10904762D01*
X49666666Y11000000D01*
X49809523Y11047620D01*
X49904761Y11047620D01*
X50047619Y11000000D01*
X50095238Y10952381D01*
X50666666Y10047620D02*
X50571428Y10095239D01*
X50523809Y10142858D01*
X50476190Y10238096D01*
X50476190Y10523810D01*
X50523809Y10619048D01*
X50571428Y10666667D01*
X50666666Y10714286D01*
X50809523Y10714286D01*
X50904761Y10666667D01*
X50952380Y10619048D01*
X51000000Y10523810D01*
X51000000Y10238096D01*
X50952380Y10142858D01*
X50904761Y10095239D01*
X50809523Y10047620D01*
X50666666Y10047620D01*
X51428571Y10714286D02*
X51428571Y10047620D01*
X51428571Y10619048D02*
X51476190Y10666667D01*
X51571428Y10714286D01*
X51714285Y10714286D01*
X51809523Y10666667D01*
X51857142Y10571429D01*
X51857142Y10047620D01*
X52190476Y10714286D02*
X52571428Y10714286D01*
X52333333Y11047620D02*
X52333333Y10190477D01*
X52380952Y10095239D01*
X52476190Y10047620D01*
X52571428Y10047620D01*
X52904761Y10047620D02*
X52904761Y10714286D01*
X52904761Y10523810D02*
X52952380Y10619048D01*
X53000000Y10666667D01*
X53095238Y10714286D01*
X53190476Y10714286D01*
X53666666Y10047620D02*
X53571428Y10095239D01*
X53523809Y10142858D01*
X53476190Y10238096D01*
X53476190Y10523810D01*
X53523809Y10619048D01*
X53571428Y10666667D01*
X53666666Y10714286D01*
X53809523Y10714286D01*
X53904761Y10666667D01*
X53952380Y10619048D01*
X54000000Y10523810D01*
X54000000Y10238096D01*
X53952380Y10142858D01*
X53904761Y10095239D01*
X53809523Y10047620D01*
X53666666Y10047620D01*
X54571428Y10047620D02*
X54476190Y10095239D01*
X54428571Y10190477D01*
X54428571Y11047620D01*
X55095238Y10047620D02*
X55000000Y10095239D01*
X54952380Y10190477D01*
X54952380Y11047620D01*
X55857142Y10095239D02*
X55761904Y10047620D01*
X55571428Y10047620D01*
X55476190Y10095239D01*
X55428571Y10190477D01*
X55428571Y10571429D01*
X55476190Y10666667D01*
X55571428Y10714286D01*
X55761904Y10714286D01*
X55857142Y10666667D01*
X55904761Y10571429D01*
X55904761Y10476191D01*
X55428571Y10380953D01*
X56333333Y10047620D02*
X56333333Y10714286D01*
X56333333Y10523810D02*
X56380952Y10619048D01*
X56428571Y10666667D01*
X56523809Y10714286D01*
X56619047Y10714286D01*
X56452380Y37452381D02*
X56119047Y38452381D01*
X55785714Y37452381D01*
X55309523Y38452381D02*
X55404761Y38404762D01*
X55452380Y38357143D01*
X55500000Y38261905D01*
X55500000Y37976191D01*
X55452380Y37880953D01*
X55404761Y37833334D01*
X55309523Y37785715D01*
X55166666Y37785715D01*
X55071428Y37833334D01*
X55023809Y37880953D01*
X54976190Y37976191D01*
X54976190Y38261905D01*
X55023809Y38357143D01*
X55071428Y38404762D01*
X55166666Y38452381D01*
X55309523Y38452381D01*
X54404761Y38452381D02*
X54500000Y38404762D01*
X54547619Y38309524D01*
X54547619Y37452381D01*
X54166666Y37785715D02*
X53785714Y37785715D01*
X54023809Y37452381D02*
X54023809Y38309524D01*
X53976190Y38404762D01*
X53880952Y38452381D01*
X53785714Y38452381D01*
X53452380Y38452381D02*
X53452380Y37785715D01*
X53452380Y37880953D02*
X53404761Y37833334D01*
X53309523Y37785715D01*
X53166666Y37785715D01*
X53071428Y37833334D01*
X53023809Y37928572D01*
X53023809Y38452381D01*
X53023809Y37928572D02*
X52976190Y37833334D01*
X52880952Y37785715D01*
X52738095Y37785715D01*
X52642857Y37833334D01*
X52595238Y37928572D01*
X52595238Y38452381D01*
X51738095Y38404762D02*
X51833333Y38452381D01*
X52023809Y38452381D01*
X52119047Y38404762D01*
X52166666Y38309524D01*
X52166666Y37928572D01*
X52119047Y37833334D01*
X52023809Y37785715D01*
X51833333Y37785715D01*
X51738095Y37833334D01*
X51690476Y37928572D01*
X51690476Y38023810D01*
X52166666Y38119048D01*
X51404761Y37785715D02*
X51023809Y37785715D01*
X51261904Y37452381D02*
X51261904Y38309524D01*
X51214285Y38404762D01*
X51119047Y38452381D01*
X51023809Y38452381D01*
X50309523Y38404762D02*
X50404761Y38452381D01*
X50595238Y38452381D01*
X50690476Y38404762D01*
X50738095Y38309524D01*
X50738095Y37928572D01*
X50690476Y37833334D01*
X50595238Y37785715D01*
X50404761Y37785715D01*
X50309523Y37833334D01*
X50261904Y37928572D01*
X50261904Y38023810D01*
X50738095Y38119048D01*
X49833333Y38452381D02*
X49833333Y37785715D01*
X49833333Y37976191D02*
X49785714Y37880953D01*
X49738095Y37833334D01*
X49642857Y37785715D01*
X49547619Y37785715D01*
X25619047Y10047620D02*
X25619047Y11047620D01*
X25952380Y10333334D01*
X26285714Y11047620D01*
X26285714Y10047620D01*
X26904761Y10047620D02*
X26809523Y10095239D01*
X26761904Y10142858D01*
X26714285Y10238096D01*
X26714285Y10523810D01*
X26761904Y10619048D01*
X26809523Y10666667D01*
X26904761Y10714286D01*
X27047619Y10714286D01*
X27142857Y10666667D01*
X27190476Y10619048D01*
X27238095Y10523810D01*
X27238095Y10238096D01*
X27190476Y10142858D01*
X27142857Y10095239D01*
X27047619Y10047620D01*
X26904761Y10047620D01*
X27523809Y10714286D02*
X27904761Y10714286D01*
X27666666Y11047620D02*
X27666666Y10190477D01*
X27714285Y10095239D01*
X27809523Y10047620D01*
X27904761Y10047620D01*
X28380952Y10047620D02*
X28285714Y10095239D01*
X28238095Y10142858D01*
X28190476Y10238096D01*
X28190476Y10523810D01*
X28238095Y10619048D01*
X28285714Y10666667D01*
X28380952Y10714286D01*
X28523809Y10714286D01*
X28619047Y10666667D01*
X28666666Y10619048D01*
X28714285Y10523810D01*
X28714285Y10238096D01*
X28666666Y10142858D01*
X28619047Y10095239D01*
X28523809Y10047620D01*
X28380952Y10047620D01*
X29142857Y10047620D02*
X29142857Y10714286D01*
X29142857Y10523810D02*
X29190476Y10619048D01*
X29238095Y10666667D01*
X29333333Y10714286D01*
X29428571Y10714286D01*
X30523809Y10047620D02*
X30523809Y11047620D01*
X30761904Y11047620D01*
X30904761Y11000000D01*
X31000000Y10904762D01*
X31047619Y10809524D01*
X31095238Y10619048D01*
X31095238Y10476191D01*
X31047619Y10285715D01*
X31000000Y10190477D01*
X30904761Y10095239D01*
X30761904Y10047620D01*
X30523809Y10047620D01*
X31523809Y10047620D02*
X31523809Y10714286D01*
X31523809Y10523810D02*
X31571428Y10619048D01*
X31619047Y10666667D01*
X31714285Y10714286D01*
X31809523Y10714286D01*
X32142857Y10047620D02*
X32142857Y10714286D01*
X32142857Y11047620D02*
X32095238Y11000000D01*
X32142857Y10952381D01*
X32190476Y11000000D01*
X32142857Y11047620D01*
X32142857Y10952381D01*
X32523809Y10714286D02*
X32761904Y10047620D01*
X33000000Y10714286D01*
X33761904Y10095239D02*
X33666666Y10047620D01*
X33476190Y10047620D01*
X33380952Y10095239D01*
X33333333Y10190477D01*
X33333333Y10571429D01*
X33380952Y10666667D01*
X33476190Y10714286D01*
X33666666Y10714286D01*
X33761904Y10666667D01*
X33809523Y10571429D01*
X33809523Y10476191D01*
X33333333Y10380953D01*
X34238095Y10047620D02*
X34238095Y10714286D01*
X34238095Y10523810D02*
X34285714Y10619048D01*
X34333333Y10666667D01*
X34428571Y10714286D01*
X34523809Y10714286D01*
X7042857Y2800000D02*
X6985714Y2828572D01*
X6900000Y2828572D01*
X6814285Y2800000D01*
X6757142Y2742858D01*
X6728571Y2685715D01*
X6700000Y2571429D01*
X6700000Y2485715D01*
X6728571Y2371429D01*
X6757142Y2314286D01*
X6814285Y2257143D01*
X6900000Y2228572D01*
X6957142Y2228572D01*
X7042857Y2257143D01*
X7071428Y2285715D01*
X7071428Y2485715D01*
X6957142Y2485715D01*
X7328571Y2228572D02*
X7328571Y2828572D01*
X7671428Y2228572D01*
X7671428Y2828572D01*
X7957142Y2228572D02*
X7957142Y2828572D01*
X8100000Y2828572D01*
X8185714Y2800000D01*
X8242857Y2742858D01*
X8271428Y2685715D01*
X8300000Y2571429D01*
X8300000Y2485715D01*
X8271428Y2371429D01*
X8242857Y2314286D01*
X8185714Y2257143D01*
X8100000Y2228572D01*
X7957142Y2228572D01*
X45976190Y38452381D02*
X45976190Y37452381D01*
X45595238Y37452381D01*
X45500000Y37500000D01*
X45452380Y37547620D01*
X45404761Y37642858D01*
X45404761Y37785715D01*
X45452380Y37880953D01*
X45500000Y37928572D01*
X45595238Y37976191D01*
X45976190Y37976191D01*
X44833333Y38452381D02*
X44928571Y38404762D01*
X44976190Y38357143D01*
X45023809Y38261905D01*
X45023809Y37976191D01*
X44976190Y37880953D01*
X44928571Y37833334D01*
X44833333Y37785715D01*
X44690476Y37785715D01*
X44595238Y37833334D01*
X44547619Y37880953D01*
X44500000Y37976191D01*
X44500000Y38261905D01*
X44547619Y38357143D01*
X44595238Y38404762D01*
X44690476Y38452381D01*
X44833333Y38452381D01*
X44166666Y37785715D02*
X43976190Y38452381D01*
X43785714Y37976191D01*
X43595238Y38452381D01*
X43404761Y37785715D01*
X42642857Y38404762D02*
X42738095Y38452381D01*
X42928571Y38452381D01*
X43023809Y38404762D01*
X43071428Y38309524D01*
X43071428Y37928572D01*
X43023809Y37833334D01*
X42928571Y37785715D01*
X42738095Y37785715D01*
X42642857Y37833334D01*
X42595238Y37928572D01*
X42595238Y38023810D01*
X43071428Y38119048D01*
X42166666Y38452381D02*
X42166666Y37785715D01*
X42166666Y37976191D02*
X42119047Y37880953D01*
X42071428Y37833334D01*
X41976190Y37785715D01*
X41880952Y37785715D01*
X12100000Y10740143D02*
X12185714Y10711572D01*
X12328571Y10711572D01*
X12385714Y10740143D01*
X12414285Y10768715D01*
X12442857Y10825858D01*
X12442857Y10883000D01*
X12414285Y10940143D01*
X12385714Y10968715D01*
X12328571Y10997286D01*
X12214285Y11025858D01*
X12157142Y11054429D01*
X12128571Y11083000D01*
X12100000Y11140143D01*
X12100000Y11197286D01*
X12128571Y11254429D01*
X12157142Y11283000D01*
X12214285Y11311572D01*
X12357142Y11311572D01*
X12442857Y11283000D01*
X12928571Y10740143D02*
X12871428Y10711572D01*
X12757142Y10711572D01*
X12700000Y10740143D01*
X12671428Y10797286D01*
X12671428Y11025858D01*
X12700000Y11083000D01*
X12757142Y11111572D01*
X12871428Y11111572D01*
X12928571Y11083000D01*
X12957142Y11025858D01*
X12957142Y10968715D01*
X12671428Y10911572D01*
X13214285Y10711572D02*
X13214285Y11111572D01*
X13214285Y10997286D02*
X13242857Y11054429D01*
X13271428Y11083000D01*
X13328571Y11111572D01*
X13385714Y11111572D01*
X13528571Y11111572D02*
X13671428Y10711572D01*
X13814285Y11111572D01*
X14128571Y10711572D02*
X14071428Y10740143D01*
X14042857Y10768715D01*
X14014285Y10825858D01*
X14014285Y10997286D01*
X14042857Y11054429D01*
X14071428Y11083000D01*
X14128571Y11111572D01*
X14214285Y11111572D01*
X14271428Y11083000D01*
X14300000Y11054429D01*
X14328571Y10997286D01*
X14328571Y10825858D01*
X14300000Y10768715D01*
X14271428Y10740143D01*
X14214285Y10711572D01*
X14128571Y10711572D01*
X14557142Y11254429D02*
X14585714Y11283000D01*
X14642857Y11311572D01*
X14785714Y11311572D01*
X14842857Y11283000D01*
X14871428Y11254429D01*
X14900000Y11197286D01*
X14900000Y11140143D01*
X14871428Y11054429D01*
X14528571Y10711572D01*
X14900000Y10711572D01*
X12528571Y9517000D02*
X12500000Y9545572D01*
X12442857Y9631286D01*
X12414285Y9688429D01*
X12385714Y9774143D01*
X12357142Y9917000D01*
X12357142Y10031286D01*
X12385714Y10174143D01*
X12414285Y10259858D01*
X12442857Y10317000D01*
X12500000Y10402715D01*
X12528571Y10431286D01*
X13071428Y10317000D02*
X13014285Y10345572D01*
X12928571Y10345572D01*
X12842857Y10317000D01*
X12785714Y10259858D01*
X12757142Y10202715D01*
X12728571Y10088429D01*
X12728571Y10002715D01*
X12757142Y9888429D01*
X12785714Y9831286D01*
X12842857Y9774143D01*
X12928571Y9745572D01*
X12985714Y9745572D01*
X13071428Y9774143D01*
X13100000Y9802715D01*
X13100000Y10002715D01*
X12985714Y10002715D01*
X13357142Y9745572D02*
X13357142Y10345572D01*
X13585714Y10345572D01*
X13642857Y10317000D01*
X13671428Y10288429D01*
X13700000Y10231286D01*
X13700000Y10145572D01*
X13671428Y10088429D01*
X13642857Y10059858D01*
X13585714Y10031286D01*
X13357142Y10031286D01*
X14271428Y9745572D02*
X13928571Y9745572D01*
X14100000Y9745572D02*
X14100000Y10345572D01*
X14042857Y10259858D01*
X13985714Y10202715D01*
X13928571Y10174143D01*
X14471428Y9517000D02*
X14500000Y9545572D01*
X14557142Y9631286D01*
X14585714Y9688429D01*
X14614285Y9774143D01*
X14642857Y9917000D01*
X14642857Y10031286D01*
X14614285Y10174143D01*
X14585714Y10259858D01*
X14557142Y10317000D01*
X14500000Y10402715D01*
X14471428Y10431286D01*
X7047619Y45547620D02*
X7047619Y46119048D01*
X7047619Y45833334D02*
X8047619Y45833334D01*
X7904761Y45928572D01*
X7809523Y46023810D01*
X7761904Y46119048D01*
X8047619Y44928572D02*
X8047619Y44833334D01*
X8000000Y44738096D01*
X7952380Y44690477D01*
X7857142Y44642858D01*
X7666666Y44595239D01*
X7428571Y44595239D01*
X7238095Y44642858D01*
X7142857Y44690477D01*
X7095238Y44738096D01*
X7047619Y44833334D01*
X7047619Y44928572D01*
X7095238Y45023810D01*
X7142857Y45071429D01*
X7238095Y45119048D01*
X7428571Y45166667D01*
X7666666Y45166667D01*
X7857142Y45119048D01*
X7952380Y45071429D01*
X8000000Y45023810D01*
X8047619Y44928572D01*
X8047619Y43976191D02*
X8047619Y43880953D01*
X8000000Y43785715D01*
X7952380Y43738096D01*
X7857142Y43690477D01*
X7666666Y43642858D01*
X7428571Y43642858D01*
X7238095Y43690477D01*
X7142857Y43738096D01*
X7095238Y43785715D01*
X7047619Y43880953D01*
X7047619Y43976191D01*
X7095238Y44071429D01*
X7142857Y44119048D01*
X7238095Y44166667D01*
X7428571Y44214286D01*
X7666666Y44214286D01*
X7857142Y44166667D01*
X7952380Y44119048D01*
X8000000Y44071429D01*
X8047619Y43976191D01*
X7714285Y42785715D02*
X7047619Y42785715D01*
X7714285Y43214286D02*
X7190476Y43214286D01*
X7095238Y43166667D01*
X7047619Y43071429D01*
X7047619Y42928572D01*
X7095238Y42833334D01*
X7142857Y42785715D01*
X7571428Y41976191D02*
X7571428Y42309524D01*
X7047619Y42309524D02*
X8047619Y42309524D01*
X8047619Y41833334D01*
X5714285Y7257143D02*
X5800000Y7228572D01*
X5942857Y7228572D01*
X6000000Y7257143D01*
X6028571Y7285715D01*
X6057142Y7342858D01*
X6057142Y7400000D01*
X6028571Y7457143D01*
X6000000Y7485715D01*
X5942857Y7514286D01*
X5828571Y7542858D01*
X5771428Y7571429D01*
X5742857Y7600000D01*
X5714285Y7657143D01*
X5714285Y7714286D01*
X5742857Y7771429D01*
X5771428Y7800000D01*
X5828571Y7828572D01*
X5971428Y7828572D01*
X6057142Y7800000D01*
X6314285Y7228572D02*
X6314285Y7628572D01*
X6314285Y7828572D02*
X6285714Y7800000D01*
X6314285Y7771429D01*
X6342857Y7800000D01*
X6314285Y7828572D01*
X6314285Y7771429D01*
X6857142Y7628572D02*
X6857142Y7142858D01*
X6828571Y7085715D01*
X6800000Y7057143D01*
X6742857Y7028572D01*
X6657142Y7028572D01*
X6600000Y7057143D01*
X6857142Y7257143D02*
X6800000Y7228572D01*
X6685714Y7228572D01*
X6628571Y7257143D01*
X6600000Y7285715D01*
X6571428Y7342858D01*
X6571428Y7514286D01*
X6600000Y7571429D01*
X6628571Y7600000D01*
X6685714Y7628572D01*
X6800000Y7628572D01*
X6857142Y7600000D01*
X7142857Y7628572D02*
X7142857Y7228572D01*
X7142857Y7571429D02*
X7171428Y7600000D01*
X7228571Y7628572D01*
X7314285Y7628572D01*
X7371428Y7600000D01*
X7400000Y7542858D01*
X7400000Y7228572D01*
X7942857Y7228572D02*
X7942857Y7542858D01*
X7914285Y7600000D01*
X7857142Y7628572D01*
X7742857Y7628572D01*
X7685714Y7600000D01*
X7942857Y7257143D02*
X7885714Y7228572D01*
X7742857Y7228572D01*
X7685714Y7257143D01*
X7657142Y7314286D01*
X7657142Y7371429D01*
X7685714Y7428572D01*
X7742857Y7457143D01*
X7885714Y7457143D01*
X7942857Y7485715D01*
X8314285Y7228572D02*
X8257142Y7257143D01*
X8228571Y7314286D01*
X8228571Y7828572D01*
X60452380Y37476191D02*
X59976190Y37142858D01*
X60452380Y36904762D02*
X59452380Y36904762D01*
X59452380Y37285715D01*
X59500000Y37380953D01*
X59547619Y37428572D01*
X59642857Y37476191D01*
X59785714Y37476191D01*
X59880952Y37428572D01*
X59928571Y37380953D01*
X59976190Y37285715D01*
X59976190Y36904762D01*
X60404761Y38285715D02*
X60452380Y38190477D01*
X60452380Y38000000D01*
X60404761Y37904762D01*
X60309523Y37857143D01*
X59928571Y37857143D01*
X59833333Y37904762D01*
X59785714Y38000000D01*
X59785714Y38190477D01*
X59833333Y38285715D01*
X59928571Y38333334D01*
X60023809Y38333334D01*
X60119047Y37857143D01*
X60404761Y38714286D02*
X60452380Y38809524D01*
X60452380Y39000000D01*
X60404761Y39095239D01*
X60309523Y39142858D01*
X60261904Y39142858D01*
X60166666Y39095239D01*
X60119047Y39000000D01*
X60119047Y38857143D01*
X60071428Y38761905D01*
X59976190Y38714286D01*
X59928571Y38714286D01*
X59833333Y38761905D01*
X59785714Y38857143D01*
X59785714Y39000000D01*
X59833333Y39095239D01*
X60404761Y39952381D02*
X60452380Y39857143D01*
X60452380Y39666667D01*
X60404761Y39571429D01*
X60309523Y39523810D01*
X59928571Y39523810D01*
X59833333Y39571429D01*
X59785714Y39666667D01*
X59785714Y39857143D01*
X59833333Y39952381D01*
X59928571Y40000000D01*
X60023809Y40000000D01*
X60119047Y39523810D01*
X59785714Y40285715D02*
X59785714Y40666667D01*
X59452380Y40428572D02*
X60309523Y40428572D01*
X60404761Y40476191D01*
X60452380Y40571429D01*
X60452380Y40666667D01*
X60404761Y41714286D02*
X60452380Y41857143D01*
X60452380Y42095239D01*
X60404761Y42190477D01*
X60357142Y42238096D01*
X60261904Y42285715D01*
X60166666Y42285715D01*
X60071428Y42238096D01*
X60023809Y42190477D01*
X59976190Y42095239D01*
X59928571Y41904762D01*
X59880952Y41809524D01*
X59833333Y41761905D01*
X59738095Y41714286D01*
X59642857Y41714286D01*
X59547619Y41761905D01*
X59500000Y41809524D01*
X59452380Y41904762D01*
X59452380Y42142858D01*
X59500000Y42285715D01*
X59785714Y42619048D02*
X60452380Y42809524D01*
X59976190Y43000000D01*
X60452380Y43190477D01*
X59785714Y43380953D01*
X60452380Y43761905D02*
X59785714Y43761905D01*
X59452380Y43761905D02*
X59500000Y43714286D01*
X59547619Y43761905D01*
X59500000Y43809524D01*
X59452380Y43761905D01*
X59547619Y43761905D01*
X59785714Y44095239D02*
X59785714Y44476191D01*
X59452380Y44238096D02*
X60309523Y44238096D01*
X60404761Y44285715D01*
X60452380Y44380953D01*
X60452380Y44476191D01*
X60404761Y45238096D02*
X60452380Y45142858D01*
X60452380Y44952381D01*
X60404761Y44857143D01*
X60357142Y44809524D01*
X60261904Y44761905D01*
X59976190Y44761905D01*
X59880952Y44809524D01*
X59833333Y44857143D01*
X59785714Y44952381D01*
X59785714Y45142858D01*
X59833333Y45238096D01*
X60452380Y45666667D02*
X59452380Y45666667D01*
X60452380Y46095239D02*
X59928571Y46095239D01*
X59833333Y46047620D01*
X59785714Y45952381D01*
X59785714Y45809524D01*
X59833333Y45714286D01*
X59880952Y45666667D01*
X4547619Y34452381D02*
X5119047Y34452381D01*
X4833333Y34452381D02*
X4833333Y33452381D01*
X4928571Y33595239D01*
X5023809Y33690477D01*
X5119047Y33738096D01*
X3928571Y33452381D02*
X3833333Y33452381D01*
X3738095Y33500000D01*
X3690476Y33547620D01*
X3642857Y33642858D01*
X3595238Y33833334D01*
X3595238Y34071429D01*
X3642857Y34261905D01*
X3690476Y34357143D01*
X3738095Y34404762D01*
X3833333Y34452381D01*
X3928571Y34452381D01*
X4023809Y34404762D01*
X4071428Y34357143D01*
X4119047Y34261905D01*
X4166666Y34071429D01*
X4166666Y33833334D01*
X4119047Y33642858D01*
X4071428Y33547620D01*
X4023809Y33500000D01*
X3928571Y33452381D01*
X2976190Y33452381D02*
X2880952Y33452381D01*
X2785714Y33500000D01*
X2738095Y33547620D01*
X2690476Y33642858D01*
X2642857Y33833334D01*
X2642857Y34071429D01*
X2690476Y34261905D01*
X2738095Y34357143D01*
X2785714Y34404762D01*
X2880952Y34452381D01*
X2976190Y34452381D01*
X3071428Y34404762D01*
X3119047Y34357143D01*
X3166666Y34261905D01*
X3214285Y34071429D01*
X3214285Y33833334D01*
X3166666Y33642858D01*
X3119047Y33547620D01*
X3071428Y33500000D01*
X2976190Y33452381D01*
X1785714Y33785715D02*
X1785714Y34452381D01*
X2214285Y33785715D02*
X2214285Y34309524D01*
X2166666Y34404762D01*
X2071428Y34452381D01*
X1928571Y34452381D01*
X1833333Y34404762D01*
X1785714Y34357143D01*
X976190Y33928572D02*
X1309523Y33928572D01*
X1309523Y34452381D02*
X1309523Y33452381D01*
X833333Y33452381D01*
X3547619Y28000000D02*
X4023809Y28333334D01*
X3547619Y28571429D02*
X4547619Y28571429D01*
X4547619Y28190477D01*
X4500000Y28095239D01*
X4452380Y28047620D01*
X4357142Y28000000D01*
X4214285Y28000000D01*
X4119047Y28047620D01*
X4071428Y28095239D01*
X4023809Y28190477D01*
X4023809Y28571429D01*
X3547619Y27142858D02*
X4071428Y27142858D01*
X4166666Y27190477D01*
X4214285Y27285715D01*
X4214285Y27476191D01*
X4166666Y27571429D01*
X3595238Y27142858D02*
X3547619Y27238096D01*
X3547619Y27476191D01*
X3595238Y27571429D01*
X3690476Y27619048D01*
X3785714Y27619048D01*
X3880952Y27571429D01*
X3928571Y27476191D01*
X3928571Y27238096D01*
X3976190Y27142858D01*
X3595238Y26714286D02*
X3547619Y26619048D01*
X3547619Y26428572D01*
X3595238Y26333334D01*
X3690476Y26285715D01*
X3738095Y26285715D01*
X3833333Y26333334D01*
X3880952Y26428572D01*
X3880952Y26571429D01*
X3928571Y26666667D01*
X4023809Y26714286D01*
X4071428Y26714286D01*
X4166666Y26666667D01*
X4214285Y26571429D01*
X4214285Y26428572D01*
X4166666Y26333334D01*
X4214285Y25857143D02*
X3214285Y25857143D01*
X4166666Y25857143D02*
X4214285Y25761905D01*
X4214285Y25571429D01*
X4166666Y25476191D01*
X4119047Y25428572D01*
X4023809Y25380953D01*
X3738095Y25380953D01*
X3642857Y25428572D01*
X3595238Y25476191D01*
X3547619Y25571429D01*
X3547619Y25761905D01*
X3595238Y25857143D01*
X3547619Y24952381D02*
X4547619Y24952381D01*
X4166666Y24952381D02*
X4214285Y24857143D01*
X4214285Y24666667D01*
X4166666Y24571429D01*
X4119047Y24523810D01*
X4023809Y24476191D01*
X3738095Y24476191D01*
X3642857Y24523810D01*
X3595238Y24571429D01*
X3547619Y24666667D01*
X3547619Y24857143D01*
X3595238Y24952381D01*
X3595238Y23666667D02*
X3547619Y23761905D01*
X3547619Y23952381D01*
X3595238Y24047620D01*
X3690476Y24095239D01*
X4071428Y24095239D01*
X4166666Y24047620D01*
X4214285Y23952381D01*
X4214285Y23761905D01*
X4166666Y23666667D01*
X4071428Y23619048D01*
X3976190Y23619048D01*
X3880952Y24095239D01*
X3547619Y23190477D02*
X4214285Y23190477D01*
X4023809Y23190477D02*
X4119047Y23142858D01*
X4166666Y23095239D01*
X4214285Y23000000D01*
X4214285Y22904762D01*
X3547619Y22571429D02*
X4214285Y22571429D01*
X4023809Y22571429D02*
X4119047Y22523810D01*
X4166666Y22476191D01*
X4214285Y22380953D01*
X4214285Y22285715D01*
X4214285Y22047620D02*
X3547619Y21809524D01*
X4214285Y21571429D02*
X3547619Y21809524D01*
X3309523Y21904762D01*
X3261904Y21952381D01*
X3214285Y22047620D01*
X3547619Y20428572D02*
X4547619Y20428572D01*
X4547619Y20047620D01*
X4500000Y19952381D01*
X4452380Y19904762D01*
X4357142Y19857143D01*
X4214285Y19857143D01*
X4119047Y19904762D01*
X4071428Y19952381D01*
X4023809Y20047620D01*
X4023809Y20428572D01*
X3547619Y19428572D02*
X4214285Y19428572D01*
X4547619Y19428572D02*
X4500000Y19476191D01*
X4452380Y19428572D01*
X4500000Y19380953D01*
X4547619Y19428572D01*
X4452380Y19428572D01*
X3547619Y18190477D02*
X4547619Y18190477D01*
X4547619Y17809524D01*
X4500000Y17714286D01*
X4452380Y17666667D01*
X4357142Y17619048D01*
X4214285Y17619048D01*
X4119047Y17666667D01*
X4071428Y17714286D01*
X4023809Y17809524D01*
X4023809Y18190477D01*
X3547619Y17190477D02*
X4214285Y17190477D01*
X4547619Y17190477D02*
X4500000Y17238096D01*
X4452380Y17190477D01*
X4500000Y17142858D01*
X4547619Y17190477D01*
X4452380Y17190477D01*
X3595238Y16285715D02*
X3547619Y16380953D01*
X3547619Y16571429D01*
X3595238Y16666667D01*
X3642857Y16714286D01*
X3738095Y16761905D01*
X4023809Y16761905D01*
X4119047Y16714286D01*
X4166666Y16666667D01*
X4214285Y16571429D01*
X4214285Y16380953D01*
X4166666Y16285715D01*
X3547619Y15714286D02*
X3595238Y15809524D01*
X3642857Y15857143D01*
X3738095Y15904762D01*
X4023809Y15904762D01*
X4119047Y15857143D01*
X4166666Y15809524D01*
X4214285Y15714286D01*
X4214285Y15571429D01*
X4166666Y15476191D01*
X4119047Y15428572D01*
X4023809Y15380953D01*
X3738095Y15380953D01*
X3642857Y15428572D01*
X3595238Y15476191D01*
X3547619Y15571429D01*
X3547619Y15714286D01*
%TO.C,J1*%
X26502380Y38416667D02*
X27216666Y38416667D01*
X27359523Y38369048D01*
X27454761Y38273810D01*
X27502380Y38130953D01*
X27502380Y38035715D01*
X27502380Y39416667D02*
X27502380Y38845239D01*
X27502380Y39130953D02*
X26502380Y39130953D01*
X26645238Y39035715D01*
X26740476Y38940477D01*
X26788095Y38845239D01*
%TO.C,C3*%
X70857142Y38333334D02*
X70904761Y38285715D01*
X70952380Y38142858D01*
X70952380Y38047620D01*
X70904761Y37904762D01*
X70809523Y37809524D01*
X70714285Y37761905D01*
X70523809Y37714286D01*
X70380952Y37714286D01*
X70190476Y37761905D01*
X70095238Y37809524D01*
X70000000Y37904762D01*
X69952380Y38047620D01*
X69952380Y38142858D01*
X70000000Y38285715D01*
X70047619Y38333334D01*
X69952380Y38666667D02*
X69952380Y39285715D01*
X70333333Y38952381D01*
X70333333Y39095239D01*
X70380952Y39190477D01*
X70428571Y39238096D01*
X70523809Y39285715D01*
X70761904Y39285715D01*
X70857142Y39238096D01*
X70904761Y39190477D01*
X70952380Y39095239D01*
X70952380Y38809524D01*
X70904761Y38714286D01*
X70857142Y38666667D01*
%TO.C,U2*%
X14738095Y38047620D02*
X14738095Y37238096D01*
X14785714Y37142858D01*
X14833333Y37095239D01*
X14928571Y37047620D01*
X15119047Y37047620D01*
X15214285Y37095239D01*
X15261904Y37142858D01*
X15309523Y37238096D01*
X15309523Y38047620D01*
X15738095Y37952381D02*
X15785714Y38000000D01*
X15880952Y38047620D01*
X16119047Y38047620D01*
X16214285Y38000000D01*
X16261904Y37952381D01*
X16309523Y37857143D01*
X16309523Y37761905D01*
X16261904Y37619048D01*
X15690476Y37047620D01*
X16309523Y37047620D01*
%TO.C,R2*%
X37166666Y34952381D02*
X37500000Y34476191D01*
X37738095Y34952381D02*
X37738095Y33952381D01*
X37357142Y33952381D01*
X37261904Y34000000D01*
X37214285Y34047620D01*
X37166666Y34142858D01*
X37166666Y34285715D01*
X37214285Y34380953D01*
X37261904Y34428572D01*
X37357142Y34476191D01*
X37738095Y34476191D01*
X36785714Y34047620D02*
X36738095Y34000000D01*
X36642857Y33952381D01*
X36404761Y33952381D01*
X36309523Y34000000D01*
X36261904Y34047620D01*
X36214285Y34142858D01*
X36214285Y34238096D01*
X36261904Y34380953D01*
X36833333Y34952381D01*
X36214285Y34952381D01*
%TO.C,Q1*%
X32595238Y35147620D02*
X32690476Y35100000D01*
X32785714Y35004762D01*
X32928571Y34861905D01*
X33023809Y34814286D01*
X33119047Y34814286D01*
X33071428Y35052381D02*
X33166666Y35004762D01*
X33261904Y34909524D01*
X33309523Y34719048D01*
X33309523Y34385715D01*
X33261904Y34195239D01*
X33166666Y34100000D01*
X33071428Y34052381D01*
X32880952Y34052381D01*
X32785714Y34100000D01*
X32690476Y34195239D01*
X32642857Y34385715D01*
X32642857Y34719048D01*
X32690476Y34909524D01*
X32785714Y35004762D01*
X32880952Y35052381D01*
X33071428Y35052381D01*
X31690476Y35052381D02*
X32261904Y35052381D01*
X31976190Y35052381D02*
X31976190Y34052381D01*
X32071428Y34195239D01*
X32166666Y34290477D01*
X32261904Y34338096D01*
%TO.C,D1*%
X19238095Y42952381D02*
X19238095Y41952381D01*
X19000000Y41952381D01*
X18857142Y42000000D01*
X18761904Y42095239D01*
X18714285Y42190477D01*
X18666666Y42380953D01*
X18666666Y42523810D01*
X18714285Y42714286D01*
X18761904Y42809524D01*
X18857142Y42904762D01*
X19000000Y42952381D01*
X19238095Y42952381D01*
X17714285Y42952381D02*
X18285714Y42952381D01*
X18000000Y42952381D02*
X18000000Y41952381D01*
X18095238Y42095239D01*
X18190476Y42190477D01*
X18285714Y42238096D01*
%TO.C,R1*%
X41429408Y34952381D02*
X41762742Y34476191D01*
X42000837Y34952381D02*
X42000837Y33952381D01*
X41619884Y33952381D01*
X41524646Y34000000D01*
X41477027Y34047620D01*
X41429408Y34142858D01*
X41429408Y34285715D01*
X41477027Y34380953D01*
X41524646Y34428572D01*
X41619884Y34476191D01*
X42000837Y34476191D01*
X40477027Y34952381D02*
X41048456Y34952381D01*
X40762742Y34952381D02*
X40762742Y33952381D01*
X40857980Y34095239D01*
X40953218Y34190477D01*
X41048456Y34238096D01*
D11*
%TO.C,J1*%
X25950000Y36750000D02*
X25200000Y36750000D01*
X25950000Y38250000D02*
X25950000Y39250000D01*
X26250000Y42850000D02*
X25000000Y42850000D01*
X25200000Y42550000D02*
X25200000Y40750000D01*
X25200000Y40750000D02*
X25950000Y40750000D01*
X19990000Y34940000D02*
X25960000Y34940000D01*
X23700000Y42550000D02*
X23700000Y41800000D01*
X25960000Y34940000D02*
X25960000Y42560000D01*
X20750000Y38750000D02*
X20750000Y40740000D01*
X25950000Y40750000D02*
X25950000Y42550000D01*
X25960000Y42560000D02*
X19990000Y42560000D01*
X25200000Y34950000D02*
X25950000Y34950000D01*
X25200000Y38250000D02*
X25950000Y38250000D01*
X23700000Y41800000D02*
X22360000Y41800000D01*
X26250000Y41600000D02*
X26250000Y42850000D01*
X20750000Y35700000D02*
X20750000Y38750000D01*
X25200000Y36750000D02*
X25200000Y34950000D01*
X25950000Y34950000D02*
X25950000Y36750000D01*
X19990000Y42560000D02*
X19990000Y34940000D01*
X23700000Y34950000D02*
X23700000Y35700000D01*
X25950000Y39250000D02*
X25200000Y39250000D01*
X25950000Y42550000D02*
X25200000Y42550000D01*
X23700000Y35700000D02*
X20750000Y35700000D01*
X25200000Y39250000D02*
X25200000Y38250000D01*
%TO.C,J2*%
X51000000Y4750000D02*
X51000000Y-750000D01*
X40950000Y10050000D02*
X41550000Y10050000D01*
X38690000Y-1360000D02*
X38690000Y10360000D01*
X41500000Y4750000D02*
X41000000Y4750000D01*
X51000000Y-750000D02*
X51500000Y-750000D01*
X56500000Y4750000D02*
X56000000Y4750000D01*
X56000000Y-750000D02*
X56500000Y-750000D01*
X64890000Y10360000D02*
X64890000Y5860000D01*
X59000000Y-750000D02*
X59000000Y4750000D01*
X53500000Y-750000D02*
X54000000Y-750000D01*
X54000000Y4750000D02*
X53500000Y4750000D01*
X41500000Y-750000D02*
X41500000Y4750000D01*
X48500000Y-750000D02*
X49000000Y-750000D01*
X41250000Y9450000D02*
X40950000Y10050000D01*
X64000000Y4750000D02*
X63500000Y4750000D01*
X56000000Y4750000D02*
X56000000Y-750000D01*
X58500000Y4750000D02*
X58500000Y-750000D01*
X53500000Y4750000D02*
X53500000Y-750000D01*
X58500000Y-750000D02*
X59000000Y-750000D01*
X61500000Y-750000D02*
X61500000Y4750000D01*
X63500000Y-750000D02*
X64000000Y-750000D01*
X56500000Y-750000D02*
X56500000Y4750000D01*
X64000000Y-750000D02*
X64000000Y4750000D01*
X63500000Y4750000D02*
X63500000Y-750000D01*
X52500000Y-1360000D02*
X38690000Y-1360000D01*
X46000000Y4750000D02*
X46000000Y-750000D01*
X51500000Y-750000D02*
X51500000Y4750000D01*
X51500000Y4750000D02*
X51000000Y4750000D01*
X44000000Y4750000D02*
X43500000Y4750000D01*
X61500000Y4750000D02*
X61000000Y4750000D01*
X49000000Y4750000D02*
X48500000Y4750000D01*
X43500000Y4750000D02*
X43500000Y-750000D01*
X38690000Y10360000D02*
X40110000Y10360000D01*
X61000000Y4750000D02*
X61000000Y-750000D01*
X46500000Y4750000D02*
X46000000Y4750000D01*
X49000000Y-750000D02*
X49000000Y4750000D01*
X59000000Y4750000D02*
X58500000Y4750000D01*
X41550000Y10050000D02*
X41250000Y9450000D01*
X40110000Y5860000D02*
X52500000Y5860000D01*
X54000000Y-750000D02*
X54000000Y4750000D01*
X66310000Y-1360000D02*
X66310000Y10360000D01*
X61000000Y-750000D02*
X61500000Y-750000D01*
X40110000Y10360000D02*
X40110000Y5860000D01*
X46500000Y-750000D02*
X46500000Y4750000D01*
X64890000Y5860000D02*
X52500000Y5860000D01*
X43500000Y-750000D02*
X44000000Y-750000D01*
X41000000Y4750000D02*
X41000000Y-750000D01*
X48500000Y4750000D02*
X48500000Y-750000D01*
X66310000Y10360000D02*
X64890000Y10360000D01*
X44000000Y-750000D02*
X44000000Y4750000D01*
X46000000Y-750000D02*
X46500000Y-750000D01*
X52500000Y-1360000D02*
X66310000Y-1360000D01*
X41000000Y-750000D02*
X41500000Y-750000D01*
%TO.C,J4*%
X39990000Y39090000D02*
X41410000Y39090000D01*
X42800000Y50200000D02*
X42300000Y50200000D01*
X42300000Y50200000D02*
X42300000Y44700000D01*
X47610000Y50810000D02*
X47610000Y39090000D01*
X46190000Y43590000D02*
X43800000Y43590000D01*
X43800000Y50810000D02*
X47610000Y50810000D01*
X41410000Y39090000D02*
X41410000Y43590000D01*
X45050000Y40000000D02*
X45350000Y39400000D01*
X39990000Y50810000D02*
X39990000Y39090000D01*
X43800000Y50810000D02*
X39990000Y50810000D01*
X41410000Y43590000D02*
X43800000Y43590000D01*
X44800000Y50200000D02*
X44800000Y44700000D01*
X42300000Y44700000D02*
X42800000Y44700000D01*
X44750000Y39400000D02*
X45050000Y40000000D01*
X44800000Y44700000D02*
X45300000Y44700000D01*
X45300000Y50200000D02*
X44800000Y50200000D01*
X46190000Y39090000D02*
X46190000Y43590000D01*
X45350000Y39400000D02*
X44750000Y39400000D01*
X47610000Y39090000D02*
X46190000Y39090000D01*
X42800000Y44700000D02*
X42800000Y50200000D01*
X45300000Y44700000D02*
X45300000Y50200000D01*
%TO.C,U3*%
X23400000Y22500000D02*
G75*
G03*
X23400000Y22500000I-6400000J0D01*
G01*
%TO.C,C3*%
X68134420Y39010000D02*
X68415580Y39010000D01*
X68134420Y37990000D02*
X68415580Y37990000D01*
%TO.C,J6*%
X11330000Y1145000D02*
X10000000Y1145000D01*
X11330000Y8885000D02*
X8670000Y8885000D01*
X8670000Y3745000D02*
X8670000Y8885000D01*
X11330000Y3745000D02*
X8670000Y3745000D01*
X11330000Y2475000D02*
X11330000Y1145000D01*
X11330000Y3745000D02*
X11330000Y8885000D01*
%TO.C,J5*%
X24500000Y-750000D02*
X25000000Y-750000D01*
X27500000Y-750000D02*
X27500000Y4750000D01*
X35000000Y4750000D02*
X34500000Y4750000D01*
X25000000Y-750000D02*
X25000000Y4750000D01*
X19690000Y10360000D02*
X21110000Y10360000D01*
X32500000Y-750000D02*
X32500000Y4750000D01*
X21950000Y10050000D02*
X22550000Y10050000D01*
X29500000Y-750000D02*
X30000000Y-750000D01*
X35890000Y5860000D02*
X28500000Y5860000D01*
X29500000Y4750000D02*
X29500000Y-750000D01*
X37310000Y10360000D02*
X35890000Y10360000D01*
X19690000Y-1360000D02*
X19690000Y10360000D01*
X37310000Y-1360000D02*
X37310000Y10360000D01*
X35890000Y10360000D02*
X35890000Y5860000D01*
X22500000Y-750000D02*
X22500000Y4750000D01*
X25000000Y4750000D02*
X24500000Y4750000D01*
X22000000Y4750000D02*
X22000000Y-750000D01*
X32500000Y4750000D02*
X32000000Y4750000D01*
X21110000Y10360000D02*
X21110000Y5860000D01*
X32000000Y-750000D02*
X32500000Y-750000D01*
X35000000Y-750000D02*
X35000000Y4750000D01*
X27000000Y4750000D02*
X27000000Y-750000D01*
X27000000Y-750000D02*
X27500000Y-750000D01*
X28500000Y-1360000D02*
X19690000Y-1360000D01*
X30000000Y4750000D02*
X29500000Y4750000D01*
X22500000Y4750000D02*
X22000000Y4750000D01*
X30000000Y-750000D02*
X30000000Y4750000D01*
X34500000Y-750000D02*
X35000000Y-750000D01*
X22000000Y-750000D02*
X22500000Y-750000D01*
X24500000Y4750000D02*
X24500000Y-750000D01*
X27500000Y4750000D02*
X27000000Y4750000D01*
X34500000Y4750000D02*
X34500000Y-750000D01*
X22550000Y10050000D02*
X22250000Y9450000D01*
X28500000Y-1360000D02*
X37310000Y-1360000D01*
X32000000Y4750000D02*
X32000000Y-750000D01*
X22250000Y9450000D02*
X21950000Y10050000D01*
X21110000Y5860000D02*
X28500000Y5860000D01*
%TO.C,C1*%
X13620000Y44000000D02*
G75*
G03*
X13620000Y44000000I-2620000J0D01*
G01*
%TO.C,U2*%
X13970000Y40950000D02*
X13970000Y40680000D01*
X13970000Y40680000D02*
X15070000Y40680000D01*
X12470000Y34050000D02*
X13970000Y34050000D01*
X13970000Y34320000D02*
X16800000Y34320000D01*
X13970000Y34050000D02*
X13970000Y34320000D01*
X12470000Y40950000D02*
X13970000Y40950000D01*
%TO.C,J7*%
X14830000Y8885000D02*
X12170000Y8885000D01*
X14830000Y2475000D02*
X14830000Y1145000D01*
X14830000Y3745000D02*
X14830000Y8885000D01*
X14830000Y1145000D02*
X13500000Y1145000D01*
X12170000Y3745000D02*
X12170000Y8885000D01*
X14830000Y3745000D02*
X12170000Y3745000D01*
%TO.C,U1*%
X5500000Y12000000D02*
X56500000Y12000000D01*
X56500000Y12000000D02*
X56500000Y33000000D01*
X56500000Y33000000D02*
X5500000Y33000000D01*
X5500000Y33000000D02*
X5500000Y12000000D01*
%TO.C,SW1*%
X38565000Y41460000D02*
X30435000Y41460000D01*
X30435000Y41460000D02*
X30435000Y46540000D01*
X30435000Y46540000D02*
X38565000Y46540000D01*
X38565000Y46540000D02*
X38565000Y41460000D01*
%TO.C,J3*%
X49440000Y50810000D02*
X49440000Y39090000D01*
X52250000Y44700000D02*
X52250000Y50200000D01*
X54250000Y50200000D02*
X54250000Y44700000D01*
X57060000Y39090000D02*
X55640000Y39090000D01*
X49440000Y39090000D02*
X50860000Y39090000D01*
X54750000Y50200000D02*
X54250000Y50200000D01*
X51750000Y44700000D02*
X52250000Y44700000D01*
X54750000Y44700000D02*
X54750000Y50200000D01*
X52250000Y50200000D02*
X51750000Y50200000D01*
X53250000Y50810000D02*
X49440000Y50810000D01*
X55640000Y43590000D02*
X53250000Y43590000D01*
X54250000Y44700000D02*
X54750000Y44700000D01*
X50860000Y43590000D02*
X53250000Y43590000D01*
X54200000Y39400000D02*
X54500000Y40000000D01*
X54800000Y39400000D02*
X54200000Y39400000D01*
X51750000Y50200000D02*
X51750000Y44700000D01*
X54500000Y40000000D02*
X54800000Y39400000D01*
X55640000Y39090000D02*
X55640000Y43590000D01*
X53250000Y50810000D02*
X57060000Y50810000D01*
X50860000Y39090000D02*
X50860000Y43590000D01*
X57060000Y50810000D02*
X57060000Y39090000D01*
%TO.C,R2*%
X36762742Y35477500D02*
X37237258Y35477500D01*
X36762742Y36522500D02*
X37237258Y36522500D01*
%TO.C,C2*%
X5620000Y37500000D02*
G75*
G03*
X5620000Y37500000I-2620000J0D01*
G01*
%TO.C,Q1*%
X32500000Y35440000D02*
X31850000Y35440000D01*
X32500000Y38560000D02*
X33150000Y38560000D01*
X32500000Y38560000D02*
X31850000Y38560000D01*
X32500000Y35440000D02*
X34175000Y35440000D01*
%TO.C,D1*%
X16100000Y46650000D02*
X16100000Y43350000D01*
X16100000Y46650000D02*
X21500000Y46650000D01*
X16100000Y43350000D02*
X21500000Y43350000D01*
%TO.C,J8*%
X18330000Y8885000D02*
X15670000Y8885000D01*
X15670000Y3745000D02*
X15670000Y8885000D01*
X18330000Y3745000D02*
X18330000Y8885000D01*
X18330000Y3745000D02*
X15670000Y3745000D01*
X18330000Y2475000D02*
X18330000Y1145000D01*
X18330000Y1145000D02*
X17000000Y1145000D01*
%TO.C,R1*%
X41737258Y36522500D02*
X41262742Y36522500D01*
X41737258Y35477500D02*
X41262742Y35477500D01*
%TD*%
%LPC*%
D12*
%TO.C,J1*%
X21500000Y41600000D03*
D13*
X23500000Y40000000D03*
D14*
X23500000Y37500000D03*
%TD*%
D15*
%TO.C,J2*%
X41250000Y7950000D03*
D16*
X43750000Y7950000D03*
X46250000Y7950000D03*
X48750000Y7950000D03*
X51250000Y7950000D03*
X53750000Y7950000D03*
X56250000Y7950000D03*
X58750000Y7950000D03*
X61250000Y7950000D03*
X63750000Y7950000D03*
%TD*%
D17*
%TO.C,REF\u002A\u002A*%
X69000000Y3000000D03*
%TD*%
D18*
%TO.C,J4*%
X45050000Y41500000D03*
D19*
X42550000Y41500000D03*
%TD*%
D20*
%TO.C,U3*%
X19500000Y22500000D03*
X14500000Y22500000D03*
%TD*%
D21*
%TO.C,C3*%
X67500000Y38500000D03*
X69050000Y38500000D03*
%TD*%
D22*
%TO.C,J6*%
X10000000Y2475000D03*
D23*
X10000000Y5015000D03*
X10000000Y7555000D03*
%TD*%
D15*
%TO.C,J5*%
X22250000Y7950000D03*
D16*
X24750000Y7950000D03*
X27250000Y7950000D03*
X29750000Y7950000D03*
X32250000Y7950000D03*
X34750000Y7950000D03*
%TD*%
D24*
%TO.C,C1*%
X12000000Y44000000D03*
X10000000Y44000000D03*
%TD*%
D17*
%TO.C,REF\u002A\u002A*%
X3000000Y44000000D03*
X3000000Y44000000D03*
%TD*%
D25*
%TO.C,U2*%
X15700000Y35220000D03*
D26*
X9400000Y37500000D03*
D25*
X15700000Y39780000D03*
%TD*%
D22*
%TO.C,J7*%
X13500000Y2475000D03*
D23*
X13500000Y5015000D03*
X13500000Y7555000D03*
%TD*%
D20*
%TO.C,U1*%
X6870000Y13610000D03*
X9410000Y13610000D03*
X11950000Y13610000D03*
X14490000Y13610000D03*
X17030000Y13610000D03*
X19570000Y13610000D03*
X22110000Y13610000D03*
X24650000Y13610000D03*
X27190000Y13610000D03*
X29730000Y13610000D03*
X32270000Y13610000D03*
X34810000Y13610000D03*
X37350000Y13610000D03*
X39890000Y13610000D03*
X42430000Y13610000D03*
X44970000Y13610000D03*
X47510000Y13610000D03*
X50050000Y13610000D03*
X52590000Y13610000D03*
X55130000Y13610000D03*
X55130000Y31390000D03*
X52590000Y31390000D03*
X50050000Y31390000D03*
X47510000Y31390000D03*
X44970000Y31390000D03*
X42430000Y31390000D03*
X39890000Y31390000D03*
X37350000Y31390000D03*
X34810000Y31390000D03*
X32270000Y31390000D03*
X29730000Y31390000D03*
X27190000Y31390000D03*
X24650000Y31390000D03*
X22110000Y31390000D03*
X19570000Y31390000D03*
X17030000Y31390000D03*
X14490000Y31390000D03*
X11950000Y31390000D03*
X9410000Y31390000D03*
X6870000Y31390000D03*
%TD*%
D27*
%TO.C,SW1*%
X37040000Y44000000D03*
X34500000Y44000000D03*
X31960000Y44000000D03*
%TD*%
D18*
%TO.C,J3*%
X54500000Y41500000D03*
D19*
X52000000Y41500000D03*
%TD*%
D28*
%TO.C,R2*%
X36175000Y36000000D03*
X37825000Y36000000D03*
%TD*%
D24*
%TO.C,C2*%
X4000000Y37500000D03*
X2000000Y37500000D03*
%TD*%
D17*
%TO.C,REF\u002A\u002A*%
X3000000Y3000000D03*
%TD*%
D29*
%TO.C,Q1*%
X33437500Y36050000D03*
X33437500Y37950000D03*
X31562500Y37000000D03*
%TD*%
D30*
%TO.C,D1*%
X17500000Y45000000D03*
X21500000Y45000000D03*
%TD*%
D17*
%TO.C,REF\u002A\u002A*%
X69000000Y44000000D03*
%TD*%
D22*
%TO.C,J8*%
X17000000Y2475000D03*
D23*
X17000000Y5015000D03*
X17000000Y7555000D03*
%TD*%
D31*
%TO.C,SW2*%
X63500000Y37750000D03*
X63500000Y44250000D03*
%TD*%
D32*
%TO.C,R1*%
X42325000Y36000000D03*
X40675000Y36000000D03*
%TD*%
M02*
