M48
; DRILL file {KiCad 6.0.6-3a73a75311~116~ubuntu20.04.1} date 2023年07月29日 16時30分59秒
; FORMAT={-:-/ absolute / inch / decimal}
; #@! TF.CreationDate,2023-07-29T16:30:59+09:00
; #@! TF.GenerationSoftware,Kicad,Pcbnew,6.0.6-3a73a75311~116~ubuntu20.04.1
; #@! TF.FileFunction,Plated,1,2,PTH
FMAT,2
INCH
; #@! TA.AperFunction,Plated,PTH,ViaDrill
T1C0.0118
; #@! TA.AperFunction,Plated,PTH,ComponentDrill
T2C0.0300
; #@! TA.AperFunction,Plated,PTH,ComponentDrill
T3C0.0315
; #@! TA.AperFunction,Plated,PTH,ComponentDrill
T4C0.0374
; #@! TA.AperFunction,Plated,PTH,ComponentDrill
T5C0.0394
; #@! TA.AperFunction,Plated,PTH,ComponentDrill
T6C0.0512
%
G90
G05
T1
X0.4134Y1.1614
X0.4134Y1.0236
X0.4134Y0.8858
X0.4134Y0.748
X0.4134Y0.6102
X0.5709Y1.1614
X0.5709Y1.0236
X0.5709Y0.748
X0.5709Y0.6102
X0.7283Y1.0236
X0.7283Y0.748
X0.8268Y1.1614
X0.9252Y1.063
X0.9252Y0.8268
X0.9252Y0.6496
X0.9646Y0.1378
X0.9646Y0.0394
X0.9843Y0.4134
X1.0236Y0.9646
X1.0827Y1.1614
X1.0827Y0.8268
X1.0827Y0.6496
X1.128Y0.1378
X1.128Y0.0394
X1.1811Y1.063
X1.2402Y0.8268
X1.2402Y0.6496
X1.2795Y0.9646
X1.2913Y0.1378
X1.2913Y0.0394
X1.3583Y1.3681
X1.3583Y1.1614
X1.3976Y1.5157
X1.3976Y0.8268
X1.3976Y0.6496
X1.4547Y0.1378
X1.4547Y0.0394
X1.4567Y1.063
X1.5157Y0.2953
X1.5354Y1.1614
X1.5551Y1.5157
X1.5551Y0.8268
X1.5551Y0.6496
X1.6181Y0.1378
X1.6181Y0.0394
X1.6535Y1.063
X1.6929Y0.4528
X1.6929Y0.3937
X1.7126Y1.5157
X1.7126Y0.8268
X1.7126Y0.6496
X1.7421Y1.3681
X1.7717Y0.9646
X1.7717Y0.4528
X1.7717Y0.3937
X1.7815Y0.1378
X1.7815Y0.0394
X1.8504Y1.0039
X1.8701Y1.5157
X1.8701Y0.748
X1.9449Y0.1378
X1.9449Y0.0394
X1.9587Y1.3681
X1.9685Y0.748
X1.9882Y0.9055
X2.0079Y1.4173
X2.0079Y0.9843
X2.0276Y1.5157
X2.0669Y0.748
X2.1083Y0.1378
X2.1083Y0.0394
X2.185Y1.5157
X2.185Y1.378
X2.185Y0.9646
X2.185Y0.7087
X2.185Y0.4528
X2.2244Y1.063
X2.2717Y0.1378
X2.2717Y0.0394
X2.2835Y1.2598
X2.2835Y1.1024
X2.3228Y1.811
X2.3228Y1.6732
X2.3228Y1.5157
X2.3622Y1.0827
X2.3622Y0.7677
X2.3622Y0.3937
X2.3819Y1.1417
X2.435Y0.1378
X2.435Y0.0394
X2.4606Y1.811
X2.4606Y1.6142
X2.4606Y1.1811
X2.4606Y1.1024
X2.4606Y0.7677
X2.4606Y0.3937
X2.4803Y1.2992
X2.5984Y1.811
X2.5984Y1.6142
X2.5984Y0.2362
X2.5984Y0.0394
X2.6378Y1.2992
X2.6378Y1.1417
X2.6378Y0.9843
X2.6378Y0.8268
X2.6378Y0.6693
X2.6378Y0.5118
X2.6378Y0.3543
X2.7953Y1.6142
X2.7953Y1.4567
X2.7953Y1.2992
X2.7953Y1.1417
X2.7953Y0.9843
X2.7953Y0.8268
X2.7953Y0.6693
X2.7953Y0.5118
X2.7953Y0.3543
X2.7953Y0.2362
T2
X0.2705Y1.2358
X0.2705Y0.5358
X0.3705Y1.2358
X0.3705Y0.5358
X0.4705Y1.2358
X0.4705Y0.5358
X0.5705Y1.2358
X0.5705Y0.5358
X0.5709Y0.8858
X0.6705Y1.2358
X0.6705Y0.5358
X0.7677Y0.8858
X0.7705Y1.2358
X0.7705Y0.5358
X0.8705Y1.2358
X0.8705Y0.5358
X0.9705Y1.2358
X0.9705Y0.5358
X1.0705Y1.2358
X1.0705Y0.5358
X1.1705Y1.2358
X1.1705Y0.5358
X1.2705Y1.2358
X1.2705Y0.5358
X1.3705Y1.2358
X1.3705Y0.5358
X1.4705Y1.2358
X1.4705Y0.5358
X1.5705Y1.2358
X1.5705Y0.5358
X1.6705Y1.2358
X1.6705Y0.5358
X1.7705Y1.2358
X1.7705Y0.5358
X1.8705Y1.2358
X1.8705Y0.5358
X1.9705Y1.2358
X1.9705Y0.5358
X2.0705Y1.2358
X2.0705Y0.5358
X2.1705Y1.2358
X2.1705Y0.5358
T3
X0.0787Y1.4764
X0.1575Y1.4764
X0.3937Y1.7323
X0.4724Y1.7323
T4
X0.876Y0.313
X0.9744Y0.313
X1.0728Y0.313
X1.1713Y0.313
X1.2697Y0.313
X1.3681Y0.313
X1.624Y0.313
X1.7224Y0.313
X1.8209Y0.313
X1.9193Y0.313
X2.0177Y0.313
X2.1161Y0.313
X2.2146Y0.313
X2.313Y0.313
X2.4114Y0.313
X2.5098Y0.313
T5
X0.3937Y0.2974
X0.3937Y0.1974
X0.3937Y0.0974
X0.5315Y0.2974
X0.5315Y0.1974
X0.5315Y0.0974
X0.6693Y0.2974
X0.6693Y0.1974
X0.6693Y0.0974
X0.9252Y1.5748
X0.9252Y1.4764
X1.2583Y1.7323
X1.3583Y1.7323
X1.4583Y1.7323
X1.6752Y1.6339
X1.7736Y1.6339
X2.0472Y1.6339
X2.1457Y1.6339
T6
X2.5Y1.7421
X2.5Y1.4862
T0
M30
