%TF.GenerationSoftware,KiCad,Pcbnew,6.0.6-3a73a75311~116~ubuntu20.04.1*%
%TF.CreationDate,2023-07-29T16:30:59+09:00*%
%TF.ProjectId,catchrobo2023,63617463-6872-46f6-926f-323032332e6b,rev?*%
%TF.SameCoordinates,Original*%
%TF.FileFunction,Soldermask,Top*%
%TF.FilePolarity,Negative*%
%FSLAX46Y46*%
G04 Gerber Fmt 4.6, Leading zero omitted, Abs format (unit mm)*
G04 Created by KiCad (PCBNEW 6.0.6-3a73a75311~116~ubuntu20.04.1) date 2023-07-29 16:30:59*
%MOMM*%
%LPD*%
G01*
G04 APERTURE LIST*
G04 Aperture macros list*
%AMRoundRect*
0 Rectangle with rounded corners*
0 $1 Rounding radius*
0 $2 $3 $4 $5 $6 $7 $8 $9 X,Y pos of 4 corners*
0 Add a 4 corners polygon primitive as box body*
4,1,4,$2,$3,$4,$5,$6,$7,$8,$9,$2,$3,0*
0 Add four circle primitives for the rounded corners*
1,1,$1+$1,$2,$3*
1,1,$1+$1,$4,$5*
1,1,$1+$1,$6,$7*
1,1,$1+$1,$8,$9*
0 Add four rect primitives between the rounded corners*
20,1,$1+$1,$2,$3,$4,$5,0*
20,1,$1+$1,$4,$5,$6,$7,0*
20,1,$1+$1,$6,$7,$8,$9,0*
20,1,$1+$1,$8,$9,$2,$3,0*%
G04 Aperture macros list end*
%ADD10C,1.200000*%
%ADD11RoundRect,0.250000X-0.750000X0.600000X-0.750000X-0.600000X0.750000X-0.600000X0.750000X0.600000X0*%
%ADD12O,2.000000X1.700000*%
%ADD13RoundRect,0.250000X-0.600000X-0.725000X0.600000X-0.725000X0.600000X0.725000X-0.600000X0.725000X0*%
%ADD14O,1.700000X1.950000*%
%ADD15C,3.200000*%
%ADD16RoundRect,0.250000X0.600000X0.750000X-0.600000X0.750000X-0.600000X-0.750000X0.600000X-0.750000X0*%
%ADD17O,1.700000X2.000000*%
%ADD18C,1.524000*%
%ADD19RoundRect,0.225000X-0.225000X-0.250000X0.225000X-0.250000X0.225000X0.250000X-0.225000X0.250000X0*%
%ADD20R,1.700000X1.700000*%
%ADD21O,1.700000X1.700000*%
%ADD22C,1.600000*%
%ADD23R,2.200000X1.200000*%
%ADD24R,6.400000X5.800000*%
%ADD25C,1.700000*%
%ADD26RoundRect,0.200000X-0.200000X-0.275000X0.200000X-0.275000X0.200000X0.275000X-0.200000X0.275000X0*%
%ADD27RoundRect,0.150000X0.587500X0.150000X-0.587500X0.150000X-0.587500X-0.150000X0.587500X-0.150000X0*%
%ADD28R,2.500000X1.800000*%
%ADD29C,2.000000*%
%ADD30RoundRect,0.200000X0.200000X0.275000X-0.200000X0.275000X-0.200000X-0.275000X0.200000X-0.275000X0*%
G04 APERTURE END LIST*
D10*
%TO.C,J1*%
X21500000Y41600000D03*
D11*
X23500000Y40000000D03*
D12*
X23500000Y37500000D03*
%TD*%
D13*
%TO.C,J2*%
X41250000Y7950000D03*
D14*
X43750000Y7950000D03*
X46250000Y7950000D03*
X48750000Y7950000D03*
X51250000Y7950000D03*
X53750000Y7950000D03*
X56250000Y7950000D03*
X58750000Y7950000D03*
X61250000Y7950000D03*
X63750000Y7950000D03*
%TD*%
D15*
%TO.C,REF\u002A\u002A*%
X69000000Y3000000D03*
%TD*%
D16*
%TO.C,J4*%
X45050000Y41500000D03*
D17*
X42550000Y41500000D03*
%TD*%
D18*
%TO.C,U3*%
X19500000Y22500000D03*
X14500000Y22500000D03*
%TD*%
D19*
%TO.C,C3*%
X67500000Y38500000D03*
X69050000Y38500000D03*
%TD*%
D20*
%TO.C,J6*%
X10000000Y2475000D03*
D21*
X10000000Y5015000D03*
X10000000Y7555000D03*
%TD*%
D13*
%TO.C,J5*%
X22250000Y7950000D03*
D14*
X24750000Y7950000D03*
X27250000Y7950000D03*
X29750000Y7950000D03*
X32250000Y7950000D03*
X34750000Y7950000D03*
%TD*%
D22*
%TO.C,C1*%
X12000000Y44000000D03*
X10000000Y44000000D03*
%TD*%
D15*
%TO.C,REF\u002A\u002A*%
X3000000Y44000000D03*
X3000000Y44000000D03*
%TD*%
D23*
%TO.C,U2*%
X15700000Y35220000D03*
D24*
X9400000Y37500000D03*
D23*
X15700000Y39780000D03*
%TD*%
D20*
%TO.C,J7*%
X13500000Y2475000D03*
D21*
X13500000Y5015000D03*
X13500000Y7555000D03*
%TD*%
D18*
%TO.C,U1*%
X6870000Y13610000D03*
X9410000Y13610000D03*
X11950000Y13610000D03*
X14490000Y13610000D03*
X17030000Y13610000D03*
X19570000Y13610000D03*
X22110000Y13610000D03*
X24650000Y13610000D03*
X27190000Y13610000D03*
X29730000Y13610000D03*
X32270000Y13610000D03*
X34810000Y13610000D03*
X37350000Y13610000D03*
X39890000Y13610000D03*
X42430000Y13610000D03*
X44970000Y13610000D03*
X47510000Y13610000D03*
X50050000Y13610000D03*
X52590000Y13610000D03*
X55130000Y13610000D03*
X55130000Y31390000D03*
X52590000Y31390000D03*
X50050000Y31390000D03*
X47510000Y31390000D03*
X44970000Y31390000D03*
X42430000Y31390000D03*
X39890000Y31390000D03*
X37350000Y31390000D03*
X34810000Y31390000D03*
X32270000Y31390000D03*
X29730000Y31390000D03*
X27190000Y31390000D03*
X24650000Y31390000D03*
X22110000Y31390000D03*
X19570000Y31390000D03*
X17030000Y31390000D03*
X14490000Y31390000D03*
X11950000Y31390000D03*
X9410000Y31390000D03*
X6870000Y31390000D03*
%TD*%
D25*
%TO.C,SW1*%
X37040000Y44000000D03*
X34500000Y44000000D03*
X31960000Y44000000D03*
%TD*%
D16*
%TO.C,J3*%
X54500000Y41500000D03*
D17*
X52000000Y41500000D03*
%TD*%
D26*
%TO.C,R2*%
X36175000Y36000000D03*
X37825000Y36000000D03*
%TD*%
D22*
%TO.C,C2*%
X4000000Y37500000D03*
X2000000Y37500000D03*
%TD*%
D15*
%TO.C,REF\u002A\u002A*%
X3000000Y3000000D03*
%TD*%
D27*
%TO.C,Q1*%
X33437500Y36050000D03*
X33437500Y37950000D03*
X31562500Y37000000D03*
%TD*%
D28*
%TO.C,D1*%
X17500000Y45000000D03*
X21500000Y45000000D03*
%TD*%
D15*
%TO.C,REF\u002A\u002A*%
X69000000Y44000000D03*
%TD*%
D20*
%TO.C,J8*%
X17000000Y2475000D03*
D21*
X17000000Y5015000D03*
X17000000Y7555000D03*
%TD*%
D29*
%TO.C,SW2*%
X63500000Y37750000D03*
X63500000Y44250000D03*
%TD*%
D30*
%TO.C,R1*%
X42325000Y36000000D03*
X40675000Y36000000D03*
%TD*%
M02*
