%TF.GenerationSoftware,KiCad,Pcbnew,6.0.6-3a73a75311~116~ubuntu20.04.1*%
%TF.CreationDate,2023-08-16T22:08:07+09:00*%
%TF.ProjectId,catchrobo2023,63617463-6872-46f6-926f-323032332e6b,rev?*%
%TF.SameCoordinates,Original*%
%TF.FileFunction,Legend,Top*%
%TF.FilePolarity,Positive*%
%FSLAX46Y46*%
G04 Gerber Fmt 4.6, Leading zero omitted, Abs format (unit mm)*
G04 Created by KiCad (PCBNEW 6.0.6-3a73a75311~116~ubuntu20.04.1) date 2023-08-16 22:08:07*
%MOMM*%
%LPD*%
G01*
G04 APERTURE LIST*
G04 Aperture macros list*
%AMRoundRect*
0 Rectangle with rounded corners*
0 $1 Rounding radius*
0 $2 $3 $4 $5 $6 $7 $8 $9 X,Y pos of 4 corners*
0 Add a 4 corners polygon primitive as box body*
4,1,4,$2,$3,$4,$5,$6,$7,$8,$9,$2,$3,0*
0 Add four circle primitives for the rounded corners*
1,1,$1+$1,$2,$3*
1,1,$1+$1,$4,$5*
1,1,$1+$1,$6,$7*
1,1,$1+$1,$8,$9*
0 Add four rect primitives between the rounded corners*
20,1,$1+$1,$2,$3,$4,$5,0*
20,1,$1+$1,$4,$5,$6,$7,0*
20,1,$1+$1,$6,$7,$8,$9,0*
20,1,$1+$1,$8,$9,$2,$3,0*%
G04 Aperture macros list end*
%ADD10C,0.150000*%
%ADD11C,0.120000*%
%ADD12C,3.200000*%
%ADD13RoundRect,0.250000X0.600000X0.750000X-0.600000X0.750000X-0.600000X-0.750000X0.600000X-0.750000X0*%
%ADD14O,1.700000X2.000000*%
%ADD15RoundRect,0.225000X-0.225000X-0.250000X0.225000X-0.250000X0.225000X0.250000X-0.225000X0.250000X0*%
%ADD16R,1.700000X1.700000*%
%ADD17O,1.700000X1.700000*%
%ADD18RoundRect,0.250000X-0.600000X-0.725000X0.600000X-0.725000X0.600000X0.725000X-0.600000X0.725000X0*%
%ADD19O,1.700000X1.950000*%
%ADD20C,1.600000*%
%ADD21R,2.200000X1.200000*%
%ADD22R,6.400000X5.800000*%
%ADD23C,1.524000*%
%ADD24R,2.500000X1.800000*%
%ADD25RoundRect,0.150000X0.587500X0.150000X-0.587500X0.150000X-0.587500X-0.150000X0.587500X-0.150000X0*%
%ADD26C,2.000000*%
%ADD27RoundRect,0.200000X-0.200000X-0.275000X0.200000X-0.275000X0.200000X0.275000X-0.200000X0.275000X0*%
G04 APERTURE END LIST*
D10*
X7385714Y5328572D02*
X7100000Y5328572D01*
X7071428Y5042858D01*
X7100000Y5071429D01*
X7157142Y5100000D01*
X7300000Y5100000D01*
X7357142Y5071429D01*
X7385714Y5042858D01*
X7414285Y4985715D01*
X7414285Y4842858D01*
X7385714Y4785715D01*
X7357142Y4757143D01*
X7300000Y4728572D01*
X7157142Y4728572D01*
X7100000Y4757143D01*
X7071428Y4785715D01*
X7585714Y5328572D02*
X7785714Y4728572D01*
X7985714Y5328572D01*
X68717904Y10461905D02*
X67917904Y10461905D01*
X68489333Y10728572D01*
X67917904Y10995239D01*
X68717904Y10995239D01*
X68717904Y11719048D02*
X68298857Y11719048D01*
X68222666Y11680953D01*
X68184571Y11604762D01*
X68184571Y11452381D01*
X68222666Y11376191D01*
X68679809Y11719048D02*
X68717904Y11642858D01*
X68717904Y11452381D01*
X68679809Y11376191D01*
X68603619Y11338096D01*
X68527428Y11338096D01*
X68451238Y11376191D01*
X68413142Y11452381D01*
X68413142Y11642858D01*
X68375047Y11719048D01*
X68717904Y12100000D02*
X68184571Y12100000D01*
X67917904Y12100000D02*
X67956000Y12061905D01*
X67994095Y12100000D01*
X67956000Y12138096D01*
X67917904Y12100000D01*
X67994095Y12100000D01*
X68184571Y12480953D02*
X68717904Y12480953D01*
X68260761Y12480953D02*
X68222666Y12519048D01*
X68184571Y12595239D01*
X68184571Y12709524D01*
X68222666Y12785715D01*
X68298857Y12823810D01*
X68717904Y12823810D01*
X68679809Y13776191D02*
X68717904Y13890477D01*
X68717904Y14080953D01*
X68679809Y14157143D01*
X68641714Y14195239D01*
X68565523Y14233334D01*
X68489333Y14233334D01*
X68413142Y14195239D01*
X68375047Y14157143D01*
X68336952Y14080953D01*
X68298857Y13928572D01*
X68260761Y13852381D01*
X68222666Y13814286D01*
X68146476Y13776191D01*
X68070285Y13776191D01*
X67994095Y13814286D01*
X67956000Y13852381D01*
X67917904Y13928572D01*
X67917904Y14119048D01*
X67956000Y14233334D01*
X68184571Y14919048D02*
X68717904Y14919048D01*
X68184571Y14576191D02*
X68603619Y14576191D01*
X68679809Y14614286D01*
X68717904Y14690477D01*
X68717904Y14804762D01*
X68679809Y14880953D01*
X68641714Y14919048D01*
X68717904Y15300000D02*
X67917904Y15300000D01*
X68222666Y15300000D02*
X68184571Y15376191D01*
X68184571Y15528572D01*
X68222666Y15604762D01*
X68260761Y15642858D01*
X68336952Y15680953D01*
X68565523Y15680953D01*
X68641714Y15642858D01*
X68679809Y15604762D01*
X68717904Y15528572D01*
X68717904Y15376191D01*
X68679809Y15300000D01*
X68679809Y15985715D02*
X68717904Y16061905D01*
X68717904Y16214286D01*
X68679809Y16290477D01*
X68603619Y16328572D01*
X68565523Y16328572D01*
X68489333Y16290477D01*
X68451238Y16214286D01*
X68451238Y16100000D01*
X68413142Y16023810D01*
X68336952Y15985715D01*
X68298857Y15985715D01*
X68222666Y16023810D01*
X68184571Y16100000D01*
X68184571Y16214286D01*
X68222666Y16290477D01*
X68184571Y16557143D02*
X68184571Y16861905D01*
X67917904Y16671429D02*
X68603619Y16671429D01*
X68679809Y16709524D01*
X68717904Y16785715D01*
X68717904Y16861905D01*
X68717904Y17128572D02*
X68184571Y17128572D01*
X68336952Y17128572D02*
X68260761Y17166667D01*
X68222666Y17204762D01*
X68184571Y17280953D01*
X68184571Y17357143D01*
X68717904Y17966667D02*
X68298857Y17966667D01*
X68222666Y17928572D01*
X68184571Y17852381D01*
X68184571Y17700000D01*
X68222666Y17623810D01*
X68679809Y17966667D02*
X68717904Y17890477D01*
X68717904Y17700000D01*
X68679809Y17623810D01*
X68603619Y17585715D01*
X68527428Y17585715D01*
X68451238Y17623810D01*
X68413142Y17700000D01*
X68413142Y17890477D01*
X68375047Y17966667D01*
X68184571Y18233334D02*
X68184571Y18538096D01*
X67917904Y18347620D02*
X68603619Y18347620D01*
X68679809Y18385715D01*
X68717904Y18461905D01*
X68717904Y18538096D01*
X68679809Y19109524D02*
X68717904Y19033334D01*
X68717904Y18880953D01*
X68679809Y18804762D01*
X68603619Y18766667D01*
X68298857Y18766667D01*
X68222666Y18804762D01*
X68184571Y18880953D01*
X68184571Y19033334D01*
X68222666Y19109524D01*
X68298857Y19147620D01*
X68375047Y19147620D01*
X68451238Y18766667D01*
X68184571Y19985715D02*
X68184571Y20290477D01*
X68717904Y20100000D02*
X68032190Y20100000D01*
X67956000Y20138096D01*
X67917904Y20214286D01*
X67917904Y20290477D01*
X68717904Y20671429D02*
X68679809Y20595239D01*
X68641714Y20557143D01*
X68565523Y20519048D01*
X68336952Y20519048D01*
X68260761Y20557143D01*
X68222666Y20595239D01*
X68184571Y20671429D01*
X68184571Y20785715D01*
X68222666Y20861905D01*
X68260761Y20900000D01*
X68336952Y20938096D01*
X68565523Y20938096D01*
X68641714Y20900000D01*
X68679809Y20861905D01*
X68717904Y20785715D01*
X68717904Y20671429D01*
X68717904Y21280953D02*
X68184571Y21280953D01*
X68336952Y21280953D02*
X68260761Y21319048D01*
X68222666Y21357143D01*
X68184571Y21433334D01*
X68184571Y21509524D01*
X68641714Y22842858D02*
X68679809Y22804762D01*
X68717904Y22690477D01*
X68717904Y22614286D01*
X68679809Y22500000D01*
X68603619Y22423810D01*
X68527428Y22385715D01*
X68375047Y22347620D01*
X68260761Y22347620D01*
X68108380Y22385715D01*
X68032190Y22423810D01*
X67956000Y22500000D01*
X67917904Y22614286D01*
X67917904Y22690477D01*
X67956000Y22804762D01*
X67994095Y22842858D01*
X68717904Y23528572D02*
X68298857Y23528572D01*
X68222666Y23490477D01*
X68184571Y23414286D01*
X68184571Y23261905D01*
X68222666Y23185715D01*
X68679809Y23528572D02*
X68717904Y23452381D01*
X68717904Y23261905D01*
X68679809Y23185715D01*
X68603619Y23147620D01*
X68527428Y23147620D01*
X68451238Y23185715D01*
X68413142Y23261905D01*
X68413142Y23452381D01*
X68375047Y23528572D01*
X68184571Y23795239D02*
X68184571Y24100000D01*
X67917904Y23909524D02*
X68603619Y23909524D01*
X68679809Y23947620D01*
X68717904Y24023810D01*
X68717904Y24100000D01*
X68679809Y24709524D02*
X68717904Y24633334D01*
X68717904Y24480953D01*
X68679809Y24404762D01*
X68641714Y24366667D01*
X68565523Y24328572D01*
X68336952Y24328572D01*
X68260761Y24366667D01*
X68222666Y24404762D01*
X68184571Y24480953D01*
X68184571Y24633334D01*
X68222666Y24709524D01*
X68717904Y25052381D02*
X67917904Y25052381D01*
X68717904Y25395239D02*
X68298857Y25395239D01*
X68222666Y25357143D01*
X68184571Y25280953D01*
X68184571Y25166667D01*
X68222666Y25090477D01*
X68260761Y25052381D01*
X68717904Y26233334D02*
X68336952Y25966667D01*
X68717904Y25776191D02*
X67917904Y25776191D01*
X67917904Y26080953D01*
X67956000Y26157143D01*
X67994095Y26195239D01*
X68070285Y26233334D01*
X68184571Y26233334D01*
X68260761Y26195239D01*
X68298857Y26157143D01*
X68336952Y26080953D01*
X68336952Y25776191D01*
X68717904Y26690477D02*
X68679809Y26614286D01*
X68641714Y26576191D01*
X68565523Y26538096D01*
X68336952Y26538096D01*
X68260761Y26576191D01*
X68222666Y26614286D01*
X68184571Y26690477D01*
X68184571Y26804762D01*
X68222666Y26880953D01*
X68260761Y26919048D01*
X68336952Y26957143D01*
X68565523Y26957143D01*
X68641714Y26919048D01*
X68679809Y26880953D01*
X68717904Y26804762D01*
X68717904Y26690477D01*
X68717904Y27300000D02*
X67917904Y27300000D01*
X68222666Y27300000D02*
X68184571Y27376191D01*
X68184571Y27528572D01*
X68222666Y27604762D01*
X68260761Y27642858D01*
X68336952Y27680953D01*
X68565523Y27680953D01*
X68641714Y27642858D01*
X68679809Y27604762D01*
X68717904Y27528572D01*
X68717904Y27376191D01*
X68679809Y27300000D01*
X68717904Y28138096D02*
X68679809Y28061905D01*
X68641714Y28023810D01*
X68565523Y27985715D01*
X68336952Y27985715D01*
X68260761Y28023810D01*
X68222666Y28061905D01*
X68184571Y28138096D01*
X68184571Y28252381D01*
X68222666Y28328572D01*
X68260761Y28366667D01*
X68336952Y28404762D01*
X68565523Y28404762D01*
X68641714Y28366667D01*
X68679809Y28328572D01*
X68717904Y28252381D01*
X68717904Y28138096D01*
X67994095Y28709524D02*
X67956000Y28747620D01*
X67917904Y28823810D01*
X67917904Y29014286D01*
X67956000Y29090477D01*
X67994095Y29128572D01*
X68070285Y29166667D01*
X68146476Y29166667D01*
X68260761Y29128572D01*
X68717904Y28671429D01*
X68717904Y29166667D01*
X67917904Y29661905D02*
X67917904Y29738096D01*
X67956000Y29814286D01*
X67994095Y29852381D01*
X68070285Y29890477D01*
X68222666Y29928572D01*
X68413142Y29928572D01*
X68565523Y29890477D01*
X68641714Y29852381D01*
X68679809Y29814286D01*
X68717904Y29738096D01*
X68717904Y29661905D01*
X68679809Y29585715D01*
X68641714Y29547620D01*
X68565523Y29509524D01*
X68413142Y29471429D01*
X68222666Y29471429D01*
X68070285Y29509524D01*
X67994095Y29547620D01*
X67956000Y29585715D01*
X67917904Y29661905D01*
X67994095Y30233334D02*
X67956000Y30271429D01*
X67917904Y30347620D01*
X67917904Y30538096D01*
X67956000Y30614286D01*
X67994095Y30652381D01*
X68070285Y30690477D01*
X68146476Y30690477D01*
X68260761Y30652381D01*
X68717904Y30195239D01*
X68717904Y30690477D01*
X67917904Y30957143D02*
X67917904Y31452381D01*
X68222666Y31185715D01*
X68222666Y31300000D01*
X68260761Y31376191D01*
X68298857Y31414286D01*
X68375047Y31452381D01*
X68565523Y31452381D01*
X68641714Y31414286D01*
X68679809Y31376191D01*
X68717904Y31300000D01*
X68717904Y31071429D01*
X68679809Y30995239D01*
X68641714Y30957143D01*
X68184571Y32328572D02*
X68717904Y32519048D01*
X68184571Y32709524D01*
X67917904Y32938096D02*
X67917904Y33433334D01*
X68222666Y33166667D01*
X68222666Y33280953D01*
X68260761Y33357143D01*
X68298857Y33395239D01*
X68375047Y33433334D01*
X68565523Y33433334D01*
X68641714Y33395239D01*
X68679809Y33357143D01*
X68717904Y33280953D01*
X68717904Y33052381D01*
X68679809Y32976191D01*
X68641714Y32938096D01*
X68641714Y33776191D02*
X68679809Y33814286D01*
X68717904Y33776191D01*
X68679809Y33738096D01*
X68641714Y33776191D01*
X68717904Y33776191D01*
X67917904Y34309524D02*
X67917904Y34385715D01*
X67956000Y34461905D01*
X67994095Y34500000D01*
X68070285Y34538096D01*
X68222666Y34576191D01*
X68413142Y34576191D01*
X68565523Y34538096D01*
X68641714Y34500000D01*
X68679809Y34461905D01*
X68717904Y34385715D01*
X68717904Y34309524D01*
X68679809Y34233334D01*
X68641714Y34195239D01*
X68565523Y34157143D01*
X68413142Y34119048D01*
X68222666Y34119048D01*
X68070285Y34157143D01*
X67994095Y34195239D01*
X67956000Y34233334D01*
X67917904Y34309524D01*
X69929714Y16138096D02*
X69967809Y16100000D01*
X70005904Y15985715D01*
X70005904Y15909524D01*
X69967809Y15795239D01*
X69891619Y15719048D01*
X69815428Y15680953D01*
X69663047Y15642858D01*
X69548761Y15642858D01*
X69396380Y15680953D01*
X69320190Y15719048D01*
X69244000Y15795239D01*
X69205904Y15909524D01*
X69205904Y15985715D01*
X69244000Y16100000D01*
X69282095Y16138096D01*
X70005904Y16480953D02*
X69472571Y16480953D01*
X69624952Y16480953D02*
X69548761Y16519048D01*
X69510666Y16557143D01*
X69472571Y16633334D01*
X69472571Y16709524D01*
X69967809Y17280953D02*
X70005904Y17204762D01*
X70005904Y17052381D01*
X69967809Y16976191D01*
X69891619Y16938096D01*
X69586857Y16938096D01*
X69510666Y16976191D01*
X69472571Y17052381D01*
X69472571Y17204762D01*
X69510666Y17280953D01*
X69586857Y17319048D01*
X69663047Y17319048D01*
X69739238Y16938096D01*
X70005904Y18004762D02*
X69586857Y18004762D01*
X69510666Y17966667D01*
X69472571Y17890477D01*
X69472571Y17738096D01*
X69510666Y17661905D01*
X69967809Y18004762D02*
X70005904Y17928572D01*
X70005904Y17738096D01*
X69967809Y17661905D01*
X69891619Y17623810D01*
X69815428Y17623810D01*
X69739238Y17661905D01*
X69701142Y17738096D01*
X69701142Y17928572D01*
X69663047Y18004762D01*
X69472571Y18271429D02*
X69472571Y18576191D01*
X69205904Y18385715D02*
X69891619Y18385715D01*
X69967809Y18423810D01*
X70005904Y18500000D01*
X70005904Y18576191D01*
X69967809Y19147620D02*
X70005904Y19071429D01*
X70005904Y18919048D01*
X69967809Y18842858D01*
X69891619Y18804762D01*
X69586857Y18804762D01*
X69510666Y18842858D01*
X69472571Y18919048D01*
X69472571Y19071429D01*
X69510666Y19147620D01*
X69586857Y19185715D01*
X69663047Y19185715D01*
X69739238Y18804762D01*
X70005904Y19871429D02*
X69205904Y19871429D01*
X69967809Y19871429D02*
X70005904Y19795239D01*
X70005904Y19642858D01*
X69967809Y19566667D01*
X69929714Y19528572D01*
X69853523Y19490477D01*
X69624952Y19490477D01*
X69548761Y19528572D01*
X69510666Y19566667D01*
X69472571Y19642858D01*
X69472571Y19795239D01*
X69510666Y19871429D01*
X70005904Y20861905D02*
X69205904Y20861905D01*
X69510666Y20861905D02*
X69472571Y20938096D01*
X69472571Y21090477D01*
X69510666Y21166667D01*
X69548761Y21204762D01*
X69624952Y21242858D01*
X69853523Y21242858D01*
X69929714Y21204762D01*
X69967809Y21166667D01*
X70005904Y21090477D01*
X70005904Y20938096D01*
X69967809Y20861905D01*
X69472571Y21509524D02*
X70005904Y21700000D01*
X69472571Y21890477D02*
X70005904Y21700000D01*
X70196380Y21623810D01*
X70234476Y21585715D01*
X70272571Y21509524D01*
X70005904Y22804762D02*
X69205904Y22804762D01*
X69205904Y22995239D01*
X69244000Y23109524D01*
X69320190Y23185715D01*
X69396380Y23223810D01*
X69548761Y23261905D01*
X69663047Y23261905D01*
X69815428Y23223810D01*
X69891619Y23185715D01*
X69967809Y23109524D01*
X70005904Y22995239D01*
X70005904Y22804762D01*
X69967809Y23909524D02*
X70005904Y23833334D01*
X70005904Y23680953D01*
X69967809Y23604762D01*
X69891619Y23566667D01*
X69586857Y23566667D01*
X69510666Y23604762D01*
X69472571Y23680953D01*
X69472571Y23833334D01*
X69510666Y23909524D01*
X69586857Y23947620D01*
X69663047Y23947620D01*
X69739238Y23566667D01*
X70005904Y24290477D02*
X69472571Y24290477D01*
X69205904Y24290477D02*
X69244000Y24252381D01*
X69282095Y24290477D01*
X69244000Y24328572D01*
X69205904Y24290477D01*
X69282095Y24290477D01*
X69472571Y24671429D02*
X70158285Y24671429D01*
X70234476Y24633334D01*
X70272571Y24557143D01*
X70272571Y24519048D01*
X69205904Y24671429D02*
X69244000Y24633334D01*
X69282095Y24671429D01*
X69244000Y24709524D01*
X69205904Y24671429D01*
X69282095Y24671429D01*
X70005904Y25052381D02*
X69472571Y25052381D01*
X69205904Y25052381D02*
X69244000Y25014286D01*
X69282095Y25052381D01*
X69244000Y25090477D01*
X69205904Y25052381D01*
X69282095Y25052381D01*
X70005904Y25433334D02*
X69472571Y25433334D01*
X69624952Y25433334D02*
X69548761Y25471429D01*
X69510666Y25509524D01*
X69472571Y25585715D01*
X69472571Y25661905D01*
X70005904Y26042858D02*
X69967809Y25966667D01*
X69929714Y25928572D01*
X69853523Y25890477D01*
X69624952Y25890477D01*
X69548761Y25928572D01*
X69510666Y25966667D01*
X69472571Y26042858D01*
X69472571Y26157143D01*
X69510666Y26233334D01*
X69548761Y26271429D01*
X69624952Y26309524D01*
X69853523Y26309524D01*
X69929714Y26271429D01*
X69967809Y26233334D01*
X70005904Y26157143D01*
X70005904Y26042858D01*
X69205904Y26804762D02*
X69205904Y26880953D01*
X69244000Y26957143D01*
X69282095Y26995239D01*
X69358285Y27033334D01*
X69510666Y27071429D01*
X69701142Y27071429D01*
X69853523Y27033334D01*
X69929714Y26995239D01*
X69967809Y26957143D01*
X70005904Y26880953D01*
X70005904Y26804762D01*
X69967809Y26728572D01*
X69929714Y26690477D01*
X69853523Y26652381D01*
X69701142Y26614286D01*
X69510666Y26614286D01*
X69358285Y26652381D01*
X69282095Y26690477D01*
X69244000Y26728572D01*
X69205904Y26804762D01*
X70005904Y27833334D02*
X70005904Y27376191D01*
X70005904Y27604762D02*
X69205904Y27604762D01*
X69320190Y27528572D01*
X69396380Y27452381D01*
X69434476Y27376191D01*
X69205904Y28100000D02*
X69205904Y28595239D01*
X69510666Y28328572D01*
X69510666Y28442858D01*
X69548761Y28519048D01*
X69586857Y28557143D01*
X69663047Y28595239D01*
X69853523Y28595239D01*
X69929714Y28557143D01*
X69967809Y28519048D01*
X70005904Y28442858D01*
X70005904Y28214286D01*
X69967809Y28138096D01*
X69929714Y28100000D01*
X69548761Y29052381D02*
X69510666Y28976191D01*
X69472571Y28938096D01*
X69396380Y28900000D01*
X69358285Y28900000D01*
X69282095Y28938096D01*
X69244000Y28976191D01*
X69205904Y29052381D01*
X69205904Y29204762D01*
X69244000Y29280953D01*
X69282095Y29319048D01*
X69358285Y29357143D01*
X69396380Y29357143D01*
X69472571Y29319048D01*
X69510666Y29280953D01*
X69548761Y29204762D01*
X69548761Y29052381D01*
X69586857Y28976191D01*
X69624952Y28938096D01*
X69701142Y28900000D01*
X69853523Y28900000D01*
X69929714Y28938096D01*
X69967809Y28976191D01*
X70005904Y29052381D01*
X70005904Y29204762D01*
X69967809Y29280953D01*
X69929714Y29319048D01*
X69853523Y29357143D01*
X69701142Y29357143D01*
X69624952Y29319048D01*
X69586857Y29280953D01*
X69548761Y29204762D01*
X15600000Y10740143D02*
X15685714Y10711572D01*
X15828571Y10711572D01*
X15885714Y10740143D01*
X15914285Y10768715D01*
X15942857Y10825858D01*
X15942857Y10883000D01*
X15914285Y10940143D01*
X15885714Y10968715D01*
X15828571Y10997286D01*
X15714285Y11025858D01*
X15657142Y11054429D01*
X15628571Y11083000D01*
X15600000Y11140143D01*
X15600000Y11197286D01*
X15628571Y11254429D01*
X15657142Y11283000D01*
X15714285Y11311572D01*
X15857142Y11311572D01*
X15942857Y11283000D01*
X16428571Y10740143D02*
X16371428Y10711572D01*
X16257142Y10711572D01*
X16200000Y10740143D01*
X16171428Y10797286D01*
X16171428Y11025858D01*
X16200000Y11083000D01*
X16257142Y11111572D01*
X16371428Y11111572D01*
X16428571Y11083000D01*
X16457142Y11025858D01*
X16457142Y10968715D01*
X16171428Y10911572D01*
X16714285Y10711572D02*
X16714285Y11111572D01*
X16714285Y10997286D02*
X16742857Y11054429D01*
X16771428Y11083000D01*
X16828571Y11111572D01*
X16885714Y11111572D01*
X17028571Y11111572D02*
X17171428Y10711572D01*
X17314285Y11111572D01*
X17628571Y10711572D02*
X17571428Y10740143D01*
X17542857Y10768715D01*
X17514285Y10825858D01*
X17514285Y10997286D01*
X17542857Y11054429D01*
X17571428Y11083000D01*
X17628571Y11111572D01*
X17714285Y11111572D01*
X17771428Y11083000D01*
X17800000Y11054429D01*
X17828571Y10997286D01*
X17828571Y10825858D01*
X17800000Y10768715D01*
X17771428Y10740143D01*
X17714285Y10711572D01*
X17628571Y10711572D01*
X18028571Y11311572D02*
X18400000Y11311572D01*
X18200000Y11083000D01*
X18285714Y11083000D01*
X18342857Y11054429D01*
X18371428Y11025858D01*
X18400000Y10968715D01*
X18400000Y10825858D01*
X18371428Y10768715D01*
X18342857Y10740143D01*
X18285714Y10711572D01*
X18114285Y10711572D01*
X18057142Y10740143D01*
X18028571Y10768715D01*
X16028571Y9517000D02*
X16000000Y9545572D01*
X15942857Y9631286D01*
X15914285Y9688429D01*
X15885714Y9774143D01*
X15857142Y9917000D01*
X15857142Y10031286D01*
X15885714Y10174143D01*
X15914285Y10259858D01*
X15942857Y10317000D01*
X16000000Y10402715D01*
X16028571Y10431286D01*
X16571428Y10317000D02*
X16514285Y10345572D01*
X16428571Y10345572D01*
X16342857Y10317000D01*
X16285714Y10259858D01*
X16257142Y10202715D01*
X16228571Y10088429D01*
X16228571Y10002715D01*
X16257142Y9888429D01*
X16285714Y9831286D01*
X16342857Y9774143D01*
X16428571Y9745572D01*
X16485714Y9745572D01*
X16571428Y9774143D01*
X16600000Y9802715D01*
X16600000Y10002715D01*
X16485714Y10002715D01*
X16857142Y9745572D02*
X16857142Y10345572D01*
X17085714Y10345572D01*
X17142857Y10317000D01*
X17171428Y10288429D01*
X17200000Y10231286D01*
X17200000Y10145572D01*
X17171428Y10088429D01*
X17142857Y10059858D01*
X17085714Y10031286D01*
X16857142Y10031286D01*
X17428571Y10288429D02*
X17457142Y10317000D01*
X17514285Y10345572D01*
X17657142Y10345572D01*
X17714285Y10317000D01*
X17742857Y10288429D01*
X17771428Y10231286D01*
X17771428Y10174143D01*
X17742857Y10088429D01*
X17400000Y9745572D01*
X17771428Y9745572D01*
X17971428Y9517000D02*
X18000000Y9545572D01*
X18057142Y9631286D01*
X18085714Y9688429D01*
X18114285Y9774143D01*
X18142857Y9917000D01*
X18142857Y10031286D01*
X18114285Y10174143D01*
X18085714Y10259858D01*
X18057142Y10317000D01*
X18000000Y10402715D01*
X17971428Y10431286D01*
X8600000Y10740143D02*
X8685714Y10711572D01*
X8828571Y10711572D01*
X8885714Y10740143D01*
X8914285Y10768715D01*
X8942857Y10825858D01*
X8942857Y10883000D01*
X8914285Y10940143D01*
X8885714Y10968715D01*
X8828571Y10997286D01*
X8714285Y11025858D01*
X8657142Y11054429D01*
X8628571Y11083000D01*
X8600000Y11140143D01*
X8600000Y11197286D01*
X8628571Y11254429D01*
X8657142Y11283000D01*
X8714285Y11311572D01*
X8857142Y11311572D01*
X8942857Y11283000D01*
X9428571Y10740143D02*
X9371428Y10711572D01*
X9257142Y10711572D01*
X9200000Y10740143D01*
X9171428Y10797286D01*
X9171428Y11025858D01*
X9200000Y11083000D01*
X9257142Y11111572D01*
X9371428Y11111572D01*
X9428571Y11083000D01*
X9457142Y11025858D01*
X9457142Y10968715D01*
X9171428Y10911572D01*
X9714285Y10711572D02*
X9714285Y11111572D01*
X9714285Y10997286D02*
X9742857Y11054429D01*
X9771428Y11083000D01*
X9828571Y11111572D01*
X9885714Y11111572D01*
X10028571Y11111572D02*
X10171428Y10711572D01*
X10314285Y11111572D01*
X10628571Y10711572D02*
X10571428Y10740143D01*
X10542857Y10768715D01*
X10514285Y10825858D01*
X10514285Y10997286D01*
X10542857Y11054429D01*
X10571428Y11083000D01*
X10628571Y11111572D01*
X10714285Y11111572D01*
X10771428Y11083000D01*
X10800000Y11054429D01*
X10828571Y10997286D01*
X10828571Y10825858D01*
X10800000Y10768715D01*
X10771428Y10740143D01*
X10714285Y10711572D01*
X10628571Y10711572D01*
X11400000Y10711572D02*
X11057142Y10711572D01*
X11228571Y10711572D02*
X11228571Y11311572D01*
X11171428Y11225858D01*
X11114285Y11168715D01*
X11057142Y11140143D01*
X9028571Y9517000D02*
X9000000Y9545572D01*
X8942857Y9631286D01*
X8914285Y9688429D01*
X8885714Y9774143D01*
X8857142Y9917000D01*
X8857142Y10031286D01*
X8885714Y10174143D01*
X8914285Y10259858D01*
X8942857Y10317000D01*
X9000000Y10402715D01*
X9028571Y10431286D01*
X9571428Y10317000D02*
X9514285Y10345572D01*
X9428571Y10345572D01*
X9342857Y10317000D01*
X9285714Y10259858D01*
X9257142Y10202715D01*
X9228571Y10088429D01*
X9228571Y10002715D01*
X9257142Y9888429D01*
X9285714Y9831286D01*
X9342857Y9774143D01*
X9428571Y9745572D01*
X9485714Y9745572D01*
X9571428Y9774143D01*
X9600000Y9802715D01*
X9600000Y10002715D01*
X9485714Y10002715D01*
X9857142Y9745572D02*
X9857142Y10345572D01*
X10085714Y10345572D01*
X10142857Y10317000D01*
X10171428Y10288429D01*
X10200000Y10231286D01*
X10200000Y10145572D01*
X10171428Y10088429D01*
X10142857Y10059858D01*
X10085714Y10031286D01*
X9857142Y10031286D01*
X10571428Y10345572D02*
X10628571Y10345572D01*
X10685714Y10317000D01*
X10714285Y10288429D01*
X10742857Y10231286D01*
X10771428Y10117000D01*
X10771428Y9974143D01*
X10742857Y9859858D01*
X10714285Y9802715D01*
X10685714Y9774143D01*
X10628571Y9745572D01*
X10571428Y9745572D01*
X10514285Y9774143D01*
X10485714Y9802715D01*
X10457142Y9859858D01*
X10428571Y9974143D01*
X10428571Y10117000D01*
X10457142Y10231286D01*
X10485714Y10288429D01*
X10514285Y10317000D01*
X10571428Y10345572D01*
X10971428Y9517000D02*
X11000000Y9545572D01*
X11057142Y9631286D01*
X11085714Y9688429D01*
X11114285Y9774143D01*
X11142857Y9917000D01*
X11142857Y10031286D01*
X11114285Y10174143D01*
X11085714Y10259858D01*
X11057142Y10317000D01*
X11000000Y10402715D01*
X10971428Y10431286D01*
X50095238Y10142858D02*
X50047619Y10095239D01*
X49904761Y10047620D01*
X49809523Y10047620D01*
X49666666Y10095239D01*
X49571428Y10190477D01*
X49523809Y10285715D01*
X49476190Y10476191D01*
X49476190Y10619048D01*
X49523809Y10809524D01*
X49571428Y10904762D01*
X49666666Y11000000D01*
X49809523Y11047620D01*
X49904761Y11047620D01*
X50047619Y11000000D01*
X50095238Y10952381D01*
X50666666Y10047620D02*
X50571428Y10095239D01*
X50523809Y10142858D01*
X50476190Y10238096D01*
X50476190Y10523810D01*
X50523809Y10619048D01*
X50571428Y10666667D01*
X50666666Y10714286D01*
X50809523Y10714286D01*
X50904761Y10666667D01*
X50952380Y10619048D01*
X51000000Y10523810D01*
X51000000Y10238096D01*
X50952380Y10142858D01*
X50904761Y10095239D01*
X50809523Y10047620D01*
X50666666Y10047620D01*
X51428571Y10714286D02*
X51428571Y10047620D01*
X51428571Y10619048D02*
X51476190Y10666667D01*
X51571428Y10714286D01*
X51714285Y10714286D01*
X51809523Y10666667D01*
X51857142Y10571429D01*
X51857142Y10047620D01*
X52190476Y10714286D02*
X52571428Y10714286D01*
X52333333Y11047620D02*
X52333333Y10190477D01*
X52380952Y10095239D01*
X52476190Y10047620D01*
X52571428Y10047620D01*
X52904761Y10047620D02*
X52904761Y10714286D01*
X52904761Y10523810D02*
X52952380Y10619048D01*
X53000000Y10666667D01*
X53095238Y10714286D01*
X53190476Y10714286D01*
X53666666Y10047620D02*
X53571428Y10095239D01*
X53523809Y10142858D01*
X53476190Y10238096D01*
X53476190Y10523810D01*
X53523809Y10619048D01*
X53571428Y10666667D01*
X53666666Y10714286D01*
X53809523Y10714286D01*
X53904761Y10666667D01*
X53952380Y10619048D01*
X54000000Y10523810D01*
X54000000Y10238096D01*
X53952380Y10142858D01*
X53904761Y10095239D01*
X53809523Y10047620D01*
X53666666Y10047620D01*
X54571428Y10047620D02*
X54476190Y10095239D01*
X54428571Y10190477D01*
X54428571Y11047620D01*
X55095238Y10047620D02*
X55000000Y10095239D01*
X54952380Y10190477D01*
X54952380Y11047620D01*
X55857142Y10095239D02*
X55761904Y10047620D01*
X55571428Y10047620D01*
X55476190Y10095239D01*
X55428571Y10190477D01*
X55428571Y10571429D01*
X55476190Y10666667D01*
X55571428Y10714286D01*
X55761904Y10714286D01*
X55857142Y10666667D01*
X55904761Y10571429D01*
X55904761Y10476191D01*
X55428571Y10380953D01*
X56333333Y10047620D02*
X56333333Y10714286D01*
X56333333Y10523810D02*
X56380952Y10619048D01*
X56428571Y10666667D01*
X56523809Y10714286D01*
X56619047Y10714286D01*
X56452380Y38952381D02*
X56119047Y39952381D01*
X55785714Y38952381D01*
X55309523Y39952381D02*
X55404761Y39904762D01*
X55452380Y39857143D01*
X55500000Y39761905D01*
X55500000Y39476191D01*
X55452380Y39380953D01*
X55404761Y39333334D01*
X55309523Y39285715D01*
X55166666Y39285715D01*
X55071428Y39333334D01*
X55023809Y39380953D01*
X54976190Y39476191D01*
X54976190Y39761905D01*
X55023809Y39857143D01*
X55071428Y39904762D01*
X55166666Y39952381D01*
X55309523Y39952381D01*
X54404761Y39952381D02*
X54500000Y39904762D01*
X54547619Y39809524D01*
X54547619Y38952381D01*
X54166666Y39285715D02*
X53785714Y39285715D01*
X54023809Y38952381D02*
X54023809Y39809524D01*
X53976190Y39904762D01*
X53880952Y39952381D01*
X53785714Y39952381D01*
X53452380Y39952381D02*
X53452380Y39285715D01*
X53452380Y39380953D02*
X53404761Y39333334D01*
X53309523Y39285715D01*
X53166666Y39285715D01*
X53071428Y39333334D01*
X53023809Y39428572D01*
X53023809Y39952381D01*
X53023809Y39428572D02*
X52976190Y39333334D01*
X52880952Y39285715D01*
X52738095Y39285715D01*
X52642857Y39333334D01*
X52595238Y39428572D01*
X52595238Y39952381D01*
X51738095Y39904762D02*
X51833333Y39952381D01*
X52023809Y39952381D01*
X52119047Y39904762D01*
X52166666Y39809524D01*
X52166666Y39428572D01*
X52119047Y39333334D01*
X52023809Y39285715D01*
X51833333Y39285715D01*
X51738095Y39333334D01*
X51690476Y39428572D01*
X51690476Y39523810D01*
X52166666Y39619048D01*
X51404761Y39285715D02*
X51023809Y39285715D01*
X51261904Y38952381D02*
X51261904Y39809524D01*
X51214285Y39904762D01*
X51119047Y39952381D01*
X51023809Y39952381D01*
X50309523Y39904762D02*
X50404761Y39952381D01*
X50595238Y39952381D01*
X50690476Y39904762D01*
X50738095Y39809524D01*
X50738095Y39428572D01*
X50690476Y39333334D01*
X50595238Y39285715D01*
X50404761Y39285715D01*
X50309523Y39333334D01*
X50261904Y39428572D01*
X50261904Y39523810D01*
X50738095Y39619048D01*
X49833333Y39952381D02*
X49833333Y39285715D01*
X49833333Y39476191D02*
X49785714Y39380953D01*
X49738095Y39333334D01*
X49642857Y39285715D01*
X49547619Y39285715D01*
X24619047Y10047620D02*
X24619047Y11047620D01*
X24952380Y10333334D01*
X25285714Y11047620D01*
X25285714Y10047620D01*
X25904761Y10047620D02*
X25809523Y10095239D01*
X25761904Y10142858D01*
X25714285Y10238096D01*
X25714285Y10523810D01*
X25761904Y10619048D01*
X25809523Y10666667D01*
X25904761Y10714286D01*
X26047619Y10714286D01*
X26142857Y10666667D01*
X26190476Y10619048D01*
X26238095Y10523810D01*
X26238095Y10238096D01*
X26190476Y10142858D01*
X26142857Y10095239D01*
X26047619Y10047620D01*
X25904761Y10047620D01*
X26523809Y10714286D02*
X26904761Y10714286D01*
X26666666Y11047620D02*
X26666666Y10190477D01*
X26714285Y10095239D01*
X26809523Y10047620D01*
X26904761Y10047620D01*
X27380952Y10047620D02*
X27285714Y10095239D01*
X27238095Y10142858D01*
X27190476Y10238096D01*
X27190476Y10523810D01*
X27238095Y10619048D01*
X27285714Y10666667D01*
X27380952Y10714286D01*
X27523809Y10714286D01*
X27619047Y10666667D01*
X27666666Y10619048D01*
X27714285Y10523810D01*
X27714285Y10238096D01*
X27666666Y10142858D01*
X27619047Y10095239D01*
X27523809Y10047620D01*
X27380952Y10047620D01*
X28142857Y10047620D02*
X28142857Y10714286D01*
X28142857Y10523810D02*
X28190476Y10619048D01*
X28238095Y10666667D01*
X28333333Y10714286D01*
X28428571Y10714286D01*
X29523809Y10047620D02*
X29523809Y11047620D01*
X29761904Y11047620D01*
X29904761Y11000000D01*
X30000000Y10904762D01*
X30047619Y10809524D01*
X30095238Y10619048D01*
X30095238Y10476191D01*
X30047619Y10285715D01*
X30000000Y10190477D01*
X29904761Y10095239D01*
X29761904Y10047620D01*
X29523809Y10047620D01*
X30523809Y10047620D02*
X30523809Y10714286D01*
X30523809Y10523810D02*
X30571428Y10619048D01*
X30619047Y10666667D01*
X30714285Y10714286D01*
X30809523Y10714286D01*
X31142857Y10047620D02*
X31142857Y10714286D01*
X31142857Y11047620D02*
X31095238Y11000000D01*
X31142857Y10952381D01*
X31190476Y11000000D01*
X31142857Y11047620D01*
X31142857Y10952381D01*
X31523809Y10714286D02*
X31761904Y10047620D01*
X32000000Y10714286D01*
X32761904Y10095239D02*
X32666666Y10047620D01*
X32476190Y10047620D01*
X32380952Y10095239D01*
X32333333Y10190477D01*
X32333333Y10571429D01*
X32380952Y10666667D01*
X32476190Y10714286D01*
X32666666Y10714286D01*
X32761904Y10666667D01*
X32809523Y10571429D01*
X32809523Y10476191D01*
X32333333Y10380953D01*
X33238095Y10047620D02*
X33238095Y10714286D01*
X33238095Y10523810D02*
X33285714Y10619048D01*
X33333333Y10666667D01*
X33428571Y10714286D01*
X33523809Y10714286D01*
X7042857Y2800000D02*
X6985714Y2828572D01*
X6900000Y2828572D01*
X6814285Y2800000D01*
X6757142Y2742858D01*
X6728571Y2685715D01*
X6700000Y2571429D01*
X6700000Y2485715D01*
X6728571Y2371429D01*
X6757142Y2314286D01*
X6814285Y2257143D01*
X6900000Y2228572D01*
X6957142Y2228572D01*
X7042857Y2257143D01*
X7071428Y2285715D01*
X7071428Y2485715D01*
X6957142Y2485715D01*
X7328571Y2228572D02*
X7328571Y2828572D01*
X7671428Y2228572D01*
X7671428Y2828572D01*
X7957142Y2228572D02*
X7957142Y2828572D01*
X8100000Y2828572D01*
X8185714Y2800000D01*
X8242857Y2742858D01*
X8271428Y2685715D01*
X8300000Y2571429D01*
X8300000Y2485715D01*
X8271428Y2371429D01*
X8242857Y2314286D01*
X8185714Y2257143D01*
X8100000Y2228572D01*
X7957142Y2228572D01*
X45976190Y39952381D02*
X45976190Y38952381D01*
X45595238Y38952381D01*
X45500000Y39000000D01*
X45452380Y39047620D01*
X45404761Y39142858D01*
X45404761Y39285715D01*
X45452380Y39380953D01*
X45500000Y39428572D01*
X45595238Y39476191D01*
X45976190Y39476191D01*
X44833333Y39952381D02*
X44928571Y39904762D01*
X44976190Y39857143D01*
X45023809Y39761905D01*
X45023809Y39476191D01*
X44976190Y39380953D01*
X44928571Y39333334D01*
X44833333Y39285715D01*
X44690476Y39285715D01*
X44595238Y39333334D01*
X44547619Y39380953D01*
X44500000Y39476191D01*
X44500000Y39761905D01*
X44547619Y39857143D01*
X44595238Y39904762D01*
X44690476Y39952381D01*
X44833333Y39952381D01*
X44166666Y39285715D02*
X43976190Y39952381D01*
X43785714Y39476191D01*
X43595238Y39952381D01*
X43404761Y39285715D01*
X42642857Y39904762D02*
X42738095Y39952381D01*
X42928571Y39952381D01*
X43023809Y39904762D01*
X43071428Y39809524D01*
X43071428Y39428572D01*
X43023809Y39333334D01*
X42928571Y39285715D01*
X42738095Y39285715D01*
X42642857Y39333334D01*
X42595238Y39428572D01*
X42595238Y39523810D01*
X43071428Y39619048D01*
X42166666Y39952381D02*
X42166666Y39285715D01*
X42166666Y39476191D02*
X42119047Y39380953D01*
X42071428Y39333334D01*
X41976190Y39285715D01*
X41880952Y39285715D01*
X12100000Y10740143D02*
X12185714Y10711572D01*
X12328571Y10711572D01*
X12385714Y10740143D01*
X12414285Y10768715D01*
X12442857Y10825858D01*
X12442857Y10883000D01*
X12414285Y10940143D01*
X12385714Y10968715D01*
X12328571Y10997286D01*
X12214285Y11025858D01*
X12157142Y11054429D01*
X12128571Y11083000D01*
X12100000Y11140143D01*
X12100000Y11197286D01*
X12128571Y11254429D01*
X12157142Y11283000D01*
X12214285Y11311572D01*
X12357142Y11311572D01*
X12442857Y11283000D01*
X12928571Y10740143D02*
X12871428Y10711572D01*
X12757142Y10711572D01*
X12700000Y10740143D01*
X12671428Y10797286D01*
X12671428Y11025858D01*
X12700000Y11083000D01*
X12757142Y11111572D01*
X12871428Y11111572D01*
X12928571Y11083000D01*
X12957142Y11025858D01*
X12957142Y10968715D01*
X12671428Y10911572D01*
X13214285Y10711572D02*
X13214285Y11111572D01*
X13214285Y10997286D02*
X13242857Y11054429D01*
X13271428Y11083000D01*
X13328571Y11111572D01*
X13385714Y11111572D01*
X13528571Y11111572D02*
X13671428Y10711572D01*
X13814285Y11111572D01*
X14128571Y10711572D02*
X14071428Y10740143D01*
X14042857Y10768715D01*
X14014285Y10825858D01*
X14014285Y10997286D01*
X14042857Y11054429D01*
X14071428Y11083000D01*
X14128571Y11111572D01*
X14214285Y11111572D01*
X14271428Y11083000D01*
X14300000Y11054429D01*
X14328571Y10997286D01*
X14328571Y10825858D01*
X14300000Y10768715D01*
X14271428Y10740143D01*
X14214285Y10711572D01*
X14128571Y10711572D01*
X14557142Y11254429D02*
X14585714Y11283000D01*
X14642857Y11311572D01*
X14785714Y11311572D01*
X14842857Y11283000D01*
X14871428Y11254429D01*
X14900000Y11197286D01*
X14900000Y11140143D01*
X14871428Y11054429D01*
X14528571Y10711572D01*
X14900000Y10711572D01*
X12528571Y9517000D02*
X12500000Y9545572D01*
X12442857Y9631286D01*
X12414285Y9688429D01*
X12385714Y9774143D01*
X12357142Y9917000D01*
X12357142Y10031286D01*
X12385714Y10174143D01*
X12414285Y10259858D01*
X12442857Y10317000D01*
X12500000Y10402715D01*
X12528571Y10431286D01*
X13071428Y10317000D02*
X13014285Y10345572D01*
X12928571Y10345572D01*
X12842857Y10317000D01*
X12785714Y10259858D01*
X12757142Y10202715D01*
X12728571Y10088429D01*
X12728571Y10002715D01*
X12757142Y9888429D01*
X12785714Y9831286D01*
X12842857Y9774143D01*
X12928571Y9745572D01*
X12985714Y9745572D01*
X13071428Y9774143D01*
X13100000Y9802715D01*
X13100000Y10002715D01*
X12985714Y10002715D01*
X13357142Y9745572D02*
X13357142Y10345572D01*
X13585714Y10345572D01*
X13642857Y10317000D01*
X13671428Y10288429D01*
X13700000Y10231286D01*
X13700000Y10145572D01*
X13671428Y10088429D01*
X13642857Y10059858D01*
X13585714Y10031286D01*
X13357142Y10031286D01*
X14271428Y9745572D02*
X13928571Y9745572D01*
X14100000Y9745572D02*
X14100000Y10345572D01*
X14042857Y10259858D01*
X13985714Y10202715D01*
X13928571Y10174143D01*
X14471428Y9517000D02*
X14500000Y9545572D01*
X14557142Y9631286D01*
X14585714Y9688429D01*
X14614285Y9774143D01*
X14642857Y9917000D01*
X14642857Y10031286D01*
X14614285Y10174143D01*
X14585714Y10259858D01*
X14557142Y10317000D01*
X14500000Y10402715D01*
X14471428Y10431286D01*
X7047619Y45547620D02*
X7047619Y46119048D01*
X7047619Y45833334D02*
X8047619Y45833334D01*
X7904761Y45928572D01*
X7809523Y46023810D01*
X7761904Y46119048D01*
X8047619Y44928572D02*
X8047619Y44833334D01*
X8000000Y44738096D01*
X7952380Y44690477D01*
X7857142Y44642858D01*
X7666666Y44595239D01*
X7428571Y44595239D01*
X7238095Y44642858D01*
X7142857Y44690477D01*
X7095238Y44738096D01*
X7047619Y44833334D01*
X7047619Y44928572D01*
X7095238Y45023810D01*
X7142857Y45071429D01*
X7238095Y45119048D01*
X7428571Y45166667D01*
X7666666Y45166667D01*
X7857142Y45119048D01*
X7952380Y45071429D01*
X8000000Y45023810D01*
X8047619Y44928572D01*
X8047619Y43976191D02*
X8047619Y43880953D01*
X8000000Y43785715D01*
X7952380Y43738096D01*
X7857142Y43690477D01*
X7666666Y43642858D01*
X7428571Y43642858D01*
X7238095Y43690477D01*
X7142857Y43738096D01*
X7095238Y43785715D01*
X7047619Y43880953D01*
X7047619Y43976191D01*
X7095238Y44071429D01*
X7142857Y44119048D01*
X7238095Y44166667D01*
X7428571Y44214286D01*
X7666666Y44214286D01*
X7857142Y44166667D01*
X7952380Y44119048D01*
X8000000Y44071429D01*
X8047619Y43976191D01*
X7714285Y42785715D02*
X7047619Y42785715D01*
X7714285Y43214286D02*
X7190476Y43214286D01*
X7095238Y43166667D01*
X7047619Y43071429D01*
X7047619Y42928572D01*
X7095238Y42833334D01*
X7142857Y42785715D01*
X7571428Y41976191D02*
X7571428Y42309524D01*
X7047619Y42309524D02*
X8047619Y42309524D01*
X8047619Y41833334D01*
X5714285Y7257143D02*
X5800000Y7228572D01*
X5942857Y7228572D01*
X6000000Y7257143D01*
X6028571Y7285715D01*
X6057142Y7342858D01*
X6057142Y7400000D01*
X6028571Y7457143D01*
X6000000Y7485715D01*
X5942857Y7514286D01*
X5828571Y7542858D01*
X5771428Y7571429D01*
X5742857Y7600000D01*
X5714285Y7657143D01*
X5714285Y7714286D01*
X5742857Y7771429D01*
X5771428Y7800000D01*
X5828571Y7828572D01*
X5971428Y7828572D01*
X6057142Y7800000D01*
X6314285Y7228572D02*
X6314285Y7628572D01*
X6314285Y7828572D02*
X6285714Y7800000D01*
X6314285Y7771429D01*
X6342857Y7800000D01*
X6314285Y7828572D01*
X6314285Y7771429D01*
X6857142Y7628572D02*
X6857142Y7142858D01*
X6828571Y7085715D01*
X6800000Y7057143D01*
X6742857Y7028572D01*
X6657142Y7028572D01*
X6600000Y7057143D01*
X6857142Y7257143D02*
X6800000Y7228572D01*
X6685714Y7228572D01*
X6628571Y7257143D01*
X6600000Y7285715D01*
X6571428Y7342858D01*
X6571428Y7514286D01*
X6600000Y7571429D01*
X6628571Y7600000D01*
X6685714Y7628572D01*
X6800000Y7628572D01*
X6857142Y7600000D01*
X7142857Y7628572D02*
X7142857Y7228572D01*
X7142857Y7571429D02*
X7171428Y7600000D01*
X7228571Y7628572D01*
X7314285Y7628572D01*
X7371428Y7600000D01*
X7400000Y7542858D01*
X7400000Y7228572D01*
X7942857Y7228572D02*
X7942857Y7542858D01*
X7914285Y7600000D01*
X7857142Y7628572D01*
X7742857Y7628572D01*
X7685714Y7600000D01*
X7942857Y7257143D02*
X7885714Y7228572D01*
X7742857Y7228572D01*
X7685714Y7257143D01*
X7657142Y7314286D01*
X7657142Y7371429D01*
X7685714Y7428572D01*
X7742857Y7457143D01*
X7885714Y7457143D01*
X7942857Y7485715D01*
X8314285Y7228572D02*
X8257142Y7257143D01*
X8228571Y7314286D01*
X8228571Y7828572D01*
X60452380Y37476191D02*
X59976190Y37142858D01*
X60452380Y36904762D02*
X59452380Y36904762D01*
X59452380Y37285715D01*
X59500000Y37380953D01*
X59547619Y37428572D01*
X59642857Y37476191D01*
X59785714Y37476191D01*
X59880952Y37428572D01*
X59928571Y37380953D01*
X59976190Y37285715D01*
X59976190Y36904762D01*
X60404761Y38285715D02*
X60452380Y38190477D01*
X60452380Y38000000D01*
X60404761Y37904762D01*
X60309523Y37857143D01*
X59928571Y37857143D01*
X59833333Y37904762D01*
X59785714Y38000000D01*
X59785714Y38190477D01*
X59833333Y38285715D01*
X59928571Y38333334D01*
X60023809Y38333334D01*
X60119047Y37857143D01*
X60404761Y38714286D02*
X60452380Y38809524D01*
X60452380Y39000000D01*
X60404761Y39095239D01*
X60309523Y39142858D01*
X60261904Y39142858D01*
X60166666Y39095239D01*
X60119047Y39000000D01*
X60119047Y38857143D01*
X60071428Y38761905D01*
X59976190Y38714286D01*
X59928571Y38714286D01*
X59833333Y38761905D01*
X59785714Y38857143D01*
X59785714Y39000000D01*
X59833333Y39095239D01*
X60404761Y39952381D02*
X60452380Y39857143D01*
X60452380Y39666667D01*
X60404761Y39571429D01*
X60309523Y39523810D01*
X59928571Y39523810D01*
X59833333Y39571429D01*
X59785714Y39666667D01*
X59785714Y39857143D01*
X59833333Y39952381D01*
X59928571Y40000000D01*
X60023809Y40000000D01*
X60119047Y39523810D01*
X59785714Y40285715D02*
X59785714Y40666667D01*
X59452380Y40428572D02*
X60309523Y40428572D01*
X60404761Y40476191D01*
X60452380Y40571429D01*
X60452380Y40666667D01*
X60404761Y41714286D02*
X60452380Y41857143D01*
X60452380Y42095239D01*
X60404761Y42190477D01*
X60357142Y42238096D01*
X60261904Y42285715D01*
X60166666Y42285715D01*
X60071428Y42238096D01*
X60023809Y42190477D01*
X59976190Y42095239D01*
X59928571Y41904762D01*
X59880952Y41809524D01*
X59833333Y41761905D01*
X59738095Y41714286D01*
X59642857Y41714286D01*
X59547619Y41761905D01*
X59500000Y41809524D01*
X59452380Y41904762D01*
X59452380Y42142858D01*
X59500000Y42285715D01*
X59785714Y42619048D02*
X60452380Y42809524D01*
X59976190Y43000000D01*
X60452380Y43190477D01*
X59785714Y43380953D01*
X60452380Y43761905D02*
X59785714Y43761905D01*
X59452380Y43761905D02*
X59500000Y43714286D01*
X59547619Y43761905D01*
X59500000Y43809524D01*
X59452380Y43761905D01*
X59547619Y43761905D01*
X59785714Y44095239D02*
X59785714Y44476191D01*
X59452380Y44238096D02*
X60309523Y44238096D01*
X60404761Y44285715D01*
X60452380Y44380953D01*
X60452380Y44476191D01*
X60404761Y45238096D02*
X60452380Y45142858D01*
X60452380Y44952381D01*
X60404761Y44857143D01*
X60357142Y44809524D01*
X60261904Y44761905D01*
X59976190Y44761905D01*
X59880952Y44809524D01*
X59833333Y44857143D01*
X59785714Y44952381D01*
X59785714Y45142858D01*
X59833333Y45238096D01*
X60452380Y45666667D02*
X59452380Y45666667D01*
X60452380Y46095239D02*
X59928571Y46095239D01*
X59833333Y46047620D01*
X59785714Y45952381D01*
X59785714Y45809524D01*
X59833333Y45714286D01*
X59880952Y45666667D01*
X32428571Y39952381D02*
X32428571Y38952381D01*
X32095238Y39666667D01*
X31761904Y38952381D01*
X31761904Y39952381D01*
X31142857Y39952381D02*
X31238095Y39904762D01*
X31285714Y39857143D01*
X31333333Y39761905D01*
X31333333Y39476191D01*
X31285714Y39380953D01*
X31238095Y39333334D01*
X31142857Y39285715D01*
X31000000Y39285715D01*
X30904761Y39333334D01*
X30857142Y39380953D01*
X30809523Y39476191D01*
X30809523Y39761905D01*
X30857142Y39857143D01*
X30904761Y39904762D01*
X31000000Y39952381D01*
X31142857Y39952381D01*
X30523809Y39285715D02*
X30142857Y39285715D01*
X30380952Y38952381D02*
X30380952Y39809524D01*
X30333333Y39904762D01*
X30238095Y39952381D01*
X30142857Y39952381D01*
X29666666Y39952381D02*
X29761904Y39904762D01*
X29809523Y39857143D01*
X29857142Y39761905D01*
X29857142Y39476191D01*
X29809523Y39380953D01*
X29761904Y39333334D01*
X29666666Y39285715D01*
X29523809Y39285715D01*
X29428571Y39333334D01*
X29380952Y39380953D01*
X29333333Y39476191D01*
X29333333Y39761905D01*
X29380952Y39857143D01*
X29428571Y39904762D01*
X29523809Y39952381D01*
X29666666Y39952381D01*
X28904761Y39952381D02*
X28904761Y39285715D01*
X28904761Y39476191D02*
X28857142Y39380953D01*
X28809523Y39333334D01*
X28714285Y39285715D01*
X28619047Y39285715D01*
X27523809Y39952381D02*
X27523809Y38952381D01*
X27142857Y38952381D01*
X27047619Y39000000D01*
X27000000Y39047620D01*
X26952380Y39142858D01*
X26952380Y39285715D01*
X27000000Y39380953D01*
X27047619Y39428572D01*
X27142857Y39476191D01*
X27523809Y39476191D01*
X26380952Y39952381D02*
X26476190Y39904762D01*
X26523809Y39857143D01*
X26571428Y39761905D01*
X26571428Y39476191D01*
X26523809Y39380953D01*
X26476190Y39333334D01*
X26380952Y39285715D01*
X26238095Y39285715D01*
X26142857Y39333334D01*
X26095238Y39380953D01*
X26047619Y39476191D01*
X26047619Y39761905D01*
X26095238Y39857143D01*
X26142857Y39904762D01*
X26238095Y39952381D01*
X26380952Y39952381D01*
X25714285Y39285715D02*
X25523809Y39952381D01*
X25333333Y39476191D01*
X25142857Y39952381D01*
X24952380Y39285715D01*
X24190476Y39904762D02*
X24285714Y39952381D01*
X24476190Y39952381D01*
X24571428Y39904762D01*
X24619047Y39809524D01*
X24619047Y39428572D01*
X24571428Y39333334D01*
X24476190Y39285715D01*
X24285714Y39285715D01*
X24190476Y39333334D01*
X24142857Y39428572D01*
X24142857Y39523810D01*
X24619047Y39619048D01*
X23714285Y39952381D02*
X23714285Y39285715D01*
X23714285Y39476191D02*
X23666666Y39380953D01*
X23619047Y39333334D01*
X23523809Y39285715D01*
X23428571Y39285715D01*
X4547619Y34452381D02*
X5119047Y34452381D01*
X4833333Y34452381D02*
X4833333Y33452381D01*
X4928571Y33595239D01*
X5023809Y33690477D01*
X5119047Y33738096D01*
X3928571Y33452381D02*
X3833333Y33452381D01*
X3738095Y33500000D01*
X3690476Y33547620D01*
X3642857Y33642858D01*
X3595238Y33833334D01*
X3595238Y34071429D01*
X3642857Y34261905D01*
X3690476Y34357143D01*
X3738095Y34404762D01*
X3833333Y34452381D01*
X3928571Y34452381D01*
X4023809Y34404762D01*
X4071428Y34357143D01*
X4119047Y34261905D01*
X4166666Y34071429D01*
X4166666Y33833334D01*
X4119047Y33642858D01*
X4071428Y33547620D01*
X4023809Y33500000D01*
X3928571Y33452381D01*
X2976190Y33452381D02*
X2880952Y33452381D01*
X2785714Y33500000D01*
X2738095Y33547620D01*
X2690476Y33642858D01*
X2642857Y33833334D01*
X2642857Y34071429D01*
X2690476Y34261905D01*
X2738095Y34357143D01*
X2785714Y34404762D01*
X2880952Y34452381D01*
X2976190Y34452381D01*
X3071428Y34404762D01*
X3119047Y34357143D01*
X3166666Y34261905D01*
X3214285Y34071429D01*
X3214285Y33833334D01*
X3166666Y33642858D01*
X3119047Y33547620D01*
X3071428Y33500000D01*
X2976190Y33452381D01*
X1785714Y33785715D02*
X1785714Y34452381D01*
X2214285Y33785715D02*
X2214285Y34309524D01*
X2166666Y34404762D01*
X2071428Y34452381D01*
X1928571Y34452381D01*
X1833333Y34404762D01*
X1785714Y34357143D01*
X976190Y33928572D02*
X1309523Y33928572D01*
X1309523Y34452381D02*
X1309523Y33452381D01*
X833333Y33452381D01*
X3547619Y28000000D02*
X4023809Y28333334D01*
X3547619Y28571429D02*
X4547619Y28571429D01*
X4547619Y28190477D01*
X4500000Y28095239D01*
X4452380Y28047620D01*
X4357142Y28000000D01*
X4214285Y28000000D01*
X4119047Y28047620D01*
X4071428Y28095239D01*
X4023809Y28190477D01*
X4023809Y28571429D01*
X3547619Y27142858D02*
X4071428Y27142858D01*
X4166666Y27190477D01*
X4214285Y27285715D01*
X4214285Y27476191D01*
X4166666Y27571429D01*
X3595238Y27142858D02*
X3547619Y27238096D01*
X3547619Y27476191D01*
X3595238Y27571429D01*
X3690476Y27619048D01*
X3785714Y27619048D01*
X3880952Y27571429D01*
X3928571Y27476191D01*
X3928571Y27238096D01*
X3976190Y27142858D01*
X3595238Y26714286D02*
X3547619Y26619048D01*
X3547619Y26428572D01*
X3595238Y26333334D01*
X3690476Y26285715D01*
X3738095Y26285715D01*
X3833333Y26333334D01*
X3880952Y26428572D01*
X3880952Y26571429D01*
X3928571Y26666667D01*
X4023809Y26714286D01*
X4071428Y26714286D01*
X4166666Y26666667D01*
X4214285Y26571429D01*
X4214285Y26428572D01*
X4166666Y26333334D01*
X4214285Y25857143D02*
X3214285Y25857143D01*
X4166666Y25857143D02*
X4214285Y25761905D01*
X4214285Y25571429D01*
X4166666Y25476191D01*
X4119047Y25428572D01*
X4023809Y25380953D01*
X3738095Y25380953D01*
X3642857Y25428572D01*
X3595238Y25476191D01*
X3547619Y25571429D01*
X3547619Y25761905D01*
X3595238Y25857143D01*
X3547619Y24952381D02*
X4547619Y24952381D01*
X4166666Y24952381D02*
X4214285Y24857143D01*
X4214285Y24666667D01*
X4166666Y24571429D01*
X4119047Y24523810D01*
X4023809Y24476191D01*
X3738095Y24476191D01*
X3642857Y24523810D01*
X3595238Y24571429D01*
X3547619Y24666667D01*
X3547619Y24857143D01*
X3595238Y24952381D01*
X3595238Y23666667D02*
X3547619Y23761905D01*
X3547619Y23952381D01*
X3595238Y24047620D01*
X3690476Y24095239D01*
X4071428Y24095239D01*
X4166666Y24047620D01*
X4214285Y23952381D01*
X4214285Y23761905D01*
X4166666Y23666667D01*
X4071428Y23619048D01*
X3976190Y23619048D01*
X3880952Y24095239D01*
X3547619Y23190477D02*
X4214285Y23190477D01*
X4023809Y23190477D02*
X4119047Y23142858D01*
X4166666Y23095239D01*
X4214285Y23000000D01*
X4214285Y22904762D01*
X3547619Y22571429D02*
X4214285Y22571429D01*
X4023809Y22571429D02*
X4119047Y22523810D01*
X4166666Y22476191D01*
X4214285Y22380953D01*
X4214285Y22285715D01*
X4214285Y22047620D02*
X3547619Y21809524D01*
X4214285Y21571429D02*
X3547619Y21809524D01*
X3309523Y21904762D01*
X3261904Y21952381D01*
X3214285Y22047620D01*
X3547619Y20428572D02*
X4547619Y20428572D01*
X4547619Y20047620D01*
X4500000Y19952381D01*
X4452380Y19904762D01*
X4357142Y19857143D01*
X4214285Y19857143D01*
X4119047Y19904762D01*
X4071428Y19952381D01*
X4023809Y20047620D01*
X4023809Y20428572D01*
X3547619Y19428572D02*
X4214285Y19428572D01*
X4547619Y19428572D02*
X4500000Y19476191D01*
X4452380Y19428572D01*
X4500000Y19380953D01*
X4547619Y19428572D01*
X4452380Y19428572D01*
X3547619Y18190477D02*
X4547619Y18190477D01*
X4547619Y17809524D01*
X4500000Y17714286D01*
X4452380Y17666667D01*
X4357142Y17619048D01*
X4214285Y17619048D01*
X4119047Y17666667D01*
X4071428Y17714286D01*
X4023809Y17809524D01*
X4023809Y18190477D01*
X3547619Y17190477D02*
X4214285Y17190477D01*
X4547619Y17190477D02*
X4500000Y17238096D01*
X4452380Y17190477D01*
X4500000Y17142858D01*
X4547619Y17190477D01*
X4452380Y17190477D01*
X3595238Y16285715D02*
X3547619Y16380953D01*
X3547619Y16571429D01*
X3595238Y16666667D01*
X3642857Y16714286D01*
X3738095Y16761905D01*
X4023809Y16761905D01*
X4119047Y16714286D01*
X4166666Y16666667D01*
X4214285Y16571429D01*
X4214285Y16380953D01*
X4166666Y16285715D01*
X3547619Y15714286D02*
X3595238Y15809524D01*
X3642857Y15857143D01*
X3738095Y15904762D01*
X4023809Y15904762D01*
X4119047Y15857143D01*
X4166666Y15809524D01*
X4214285Y15714286D01*
X4214285Y15571429D01*
X4166666Y15476191D01*
X4119047Y15428572D01*
X4023809Y15380953D01*
X3738095Y15380953D01*
X3642857Y15428572D01*
X3595238Y15476191D01*
X3547619Y15571429D01*
X3547619Y15714286D01*
%TO.C,C3*%
X70857142Y38333334D02*
X70904761Y38285715D01*
X70952380Y38142858D01*
X70952380Y38047620D01*
X70904761Y37904762D01*
X70809523Y37809524D01*
X70714285Y37761905D01*
X70523809Y37714286D01*
X70380952Y37714286D01*
X70190476Y37761905D01*
X70095238Y37809524D01*
X70000000Y37904762D01*
X69952380Y38047620D01*
X69952380Y38142858D01*
X70000000Y38285715D01*
X70047619Y38333334D01*
X69952380Y38666667D02*
X69952380Y39285715D01*
X70333333Y38952381D01*
X70333333Y39095239D01*
X70380952Y39190477D01*
X70428571Y39238096D01*
X70523809Y39285715D01*
X70761904Y39285715D01*
X70857142Y39238096D01*
X70904761Y39190477D01*
X70952380Y39095239D01*
X70952380Y38809524D01*
X70904761Y38714286D01*
X70857142Y38666667D01*
%TO.C,U2*%
X18547619Y38261905D02*
X17738095Y38261905D01*
X17642857Y38214286D01*
X17595238Y38166667D01*
X17547619Y38071429D01*
X17547619Y37880953D01*
X17595238Y37785715D01*
X17642857Y37738096D01*
X17738095Y37690477D01*
X18547619Y37690477D01*
X18452380Y37261905D02*
X18500000Y37214286D01*
X18547619Y37119048D01*
X18547619Y36880953D01*
X18500000Y36785715D01*
X18452380Y36738096D01*
X18357142Y36690477D01*
X18261904Y36690477D01*
X18119047Y36738096D01*
X17547619Y37309524D01*
X17547619Y36690477D01*
%TO.C,D1*%
X19238095Y41952381D02*
X19238095Y40952381D01*
X19000000Y40952381D01*
X18857142Y41000000D01*
X18761904Y41095239D01*
X18714285Y41190477D01*
X18666666Y41380953D01*
X18666666Y41523810D01*
X18714285Y41714286D01*
X18761904Y41809524D01*
X18857142Y41904762D01*
X19000000Y41952381D01*
X19238095Y41952381D01*
X17714285Y41952381D02*
X18285714Y41952381D01*
X18000000Y41952381D02*
X18000000Y40952381D01*
X18095238Y41095239D01*
X18190476Y41190477D01*
X18285714Y41238096D01*
%TO.C,Q1*%
X32595238Y35047620D02*
X32690476Y35000000D01*
X32785714Y34904762D01*
X32928571Y34761905D01*
X33023809Y34714286D01*
X33119047Y34714286D01*
X33071428Y34952381D02*
X33166666Y34904762D01*
X33261904Y34809524D01*
X33309523Y34619048D01*
X33309523Y34285715D01*
X33261904Y34095239D01*
X33166666Y34000000D01*
X33071428Y33952381D01*
X32880952Y33952381D01*
X32785714Y34000000D01*
X32690476Y34095239D01*
X32642857Y34285715D01*
X32642857Y34619048D01*
X32690476Y34809524D01*
X32785714Y34904762D01*
X32880952Y34952381D01*
X33071428Y34952381D01*
X31690476Y34952381D02*
X32261904Y34952381D01*
X31976190Y34952381D02*
X31976190Y33952381D01*
X32071428Y34095239D01*
X32166666Y34190477D01*
X32261904Y34238096D01*
%TO.C,R1*%
X40341666Y35952381D02*
X40675000Y35476191D01*
X40913095Y35952381D02*
X40913095Y34952381D01*
X40532142Y34952381D01*
X40436904Y35000000D01*
X40389285Y35047620D01*
X40341666Y35142858D01*
X40341666Y35285715D01*
X40389285Y35380953D01*
X40436904Y35428572D01*
X40532142Y35476191D01*
X40913095Y35476191D01*
X39389285Y35952381D02*
X39960714Y35952381D01*
X39675000Y35952381D02*
X39675000Y34952381D01*
X39770238Y35095239D01*
X39865476Y35190477D01*
X39960714Y35238096D01*
D11*
%TO.C,J4*%
X39990000Y40640000D02*
X41410000Y40640000D01*
X42800000Y51750000D02*
X42300000Y51750000D01*
X42300000Y51750000D02*
X42300000Y46250000D01*
X47610000Y52360000D02*
X47610000Y40640000D01*
X46190000Y45140000D02*
X43800000Y45140000D01*
X43800000Y52360000D02*
X47610000Y52360000D01*
X41410000Y40640000D02*
X41410000Y45140000D01*
X45050000Y41550000D02*
X45350000Y40950000D01*
X39990000Y52360000D02*
X39990000Y40640000D01*
X43800000Y52360000D02*
X39990000Y52360000D01*
X41410000Y45140000D02*
X43800000Y45140000D01*
X44800000Y51750000D02*
X44800000Y46250000D01*
X42300000Y46250000D02*
X42800000Y46250000D01*
X44750000Y40950000D02*
X45050000Y41550000D01*
X44800000Y46250000D02*
X45300000Y46250000D01*
X45300000Y51750000D02*
X44800000Y51750000D01*
X46190000Y40640000D02*
X46190000Y45140000D01*
X45350000Y40950000D02*
X44750000Y40950000D01*
X47610000Y40640000D02*
X46190000Y40640000D01*
X42800000Y46250000D02*
X42800000Y51750000D01*
X45300000Y46250000D02*
X45300000Y51750000D01*
%TO.C,J1*%
X28950000Y40950000D02*
X29250000Y41550000D01*
X24190000Y40640000D02*
X25610000Y40640000D01*
X24190000Y52360000D02*
X24190000Y40640000D01*
X28000000Y52360000D02*
X24190000Y52360000D01*
X27000000Y51750000D02*
X26500000Y51750000D01*
X29000000Y51750000D02*
X29000000Y46250000D01*
X28000000Y52360000D02*
X31810000Y52360000D01*
X25610000Y45140000D02*
X28000000Y45140000D01*
X30390000Y40640000D02*
X30390000Y45140000D01*
X29550000Y40950000D02*
X28950000Y40950000D01*
X29000000Y46250000D02*
X29500000Y46250000D01*
X31810000Y40640000D02*
X30390000Y40640000D01*
X29500000Y46250000D02*
X29500000Y51750000D01*
X26500000Y46250000D02*
X27000000Y46250000D01*
X29500000Y51750000D02*
X29000000Y51750000D01*
X26500000Y51750000D02*
X26500000Y46250000D01*
X25610000Y40640000D02*
X25610000Y45140000D01*
X27000000Y46250000D02*
X27000000Y51750000D01*
X30390000Y45140000D02*
X28000000Y45140000D01*
X29250000Y41550000D02*
X29550000Y40950000D01*
X31810000Y52360000D02*
X31810000Y40640000D01*
%TO.C,C3*%
X68134420Y39010000D02*
X68415580Y39010000D01*
X68134420Y37990000D02*
X68415580Y37990000D01*
%TO.C,J6*%
X11330000Y1145000D02*
X10000000Y1145000D01*
X11330000Y8885000D02*
X8670000Y8885000D01*
X8670000Y3745000D02*
X8670000Y8885000D01*
X11330000Y3745000D02*
X8670000Y3745000D01*
X11330000Y2475000D02*
X11330000Y1145000D01*
X11330000Y3745000D02*
X11330000Y8885000D01*
%TO.C,J5*%
X24500000Y-750000D02*
X25000000Y-750000D01*
X27500000Y-750000D02*
X27500000Y4750000D01*
X35000000Y4750000D02*
X34500000Y4750000D01*
X25000000Y-750000D02*
X25000000Y4750000D01*
X19690000Y10360000D02*
X21110000Y10360000D01*
X32500000Y-750000D02*
X32500000Y4750000D01*
X21950000Y10050000D02*
X22550000Y10050000D01*
X29500000Y-750000D02*
X30000000Y-750000D01*
X35890000Y5860000D02*
X28500000Y5860000D01*
X29500000Y4750000D02*
X29500000Y-750000D01*
X37310000Y10360000D02*
X35890000Y10360000D01*
X19690000Y-1360000D02*
X19690000Y10360000D01*
X37310000Y-1360000D02*
X37310000Y10360000D01*
X35890000Y10360000D02*
X35890000Y5860000D01*
X22500000Y-750000D02*
X22500000Y4750000D01*
X25000000Y4750000D02*
X24500000Y4750000D01*
X22000000Y4750000D02*
X22000000Y-750000D01*
X32500000Y4750000D02*
X32000000Y4750000D01*
X21110000Y10360000D02*
X21110000Y5860000D01*
X32000000Y-750000D02*
X32500000Y-750000D01*
X35000000Y-750000D02*
X35000000Y4750000D01*
X27000000Y4750000D02*
X27000000Y-750000D01*
X27000000Y-750000D02*
X27500000Y-750000D01*
X28500000Y-1360000D02*
X19690000Y-1360000D01*
X30000000Y4750000D02*
X29500000Y4750000D01*
X22500000Y4750000D02*
X22000000Y4750000D01*
X30000000Y-750000D02*
X30000000Y4750000D01*
X34500000Y-750000D02*
X35000000Y-750000D01*
X22000000Y-750000D02*
X22500000Y-750000D01*
X24500000Y4750000D02*
X24500000Y-750000D01*
X27500000Y4750000D02*
X27000000Y4750000D01*
X34500000Y4750000D02*
X34500000Y-750000D01*
X22550000Y10050000D02*
X22250000Y9450000D01*
X28500000Y-1360000D02*
X37310000Y-1360000D01*
X32000000Y4750000D02*
X32000000Y-750000D01*
X22250000Y9450000D02*
X21950000Y10050000D01*
X21110000Y5860000D02*
X28500000Y5860000D01*
%TO.C,C1*%
X13620000Y44000000D02*
G75*
G03*
X13620000Y44000000I-2620000J0D01*
G01*
%TO.C,U2*%
X13970000Y40950000D02*
X13970000Y40680000D01*
X13970000Y40680000D02*
X15070000Y40680000D01*
X12470000Y34050000D02*
X13970000Y34050000D01*
X13970000Y34320000D02*
X16800000Y34320000D01*
X13970000Y34050000D02*
X13970000Y34320000D01*
X12470000Y40950000D02*
X13970000Y40950000D01*
%TO.C,J7*%
X14830000Y8885000D02*
X12170000Y8885000D01*
X14830000Y2475000D02*
X14830000Y1145000D01*
X14830000Y3745000D02*
X14830000Y8885000D01*
X14830000Y1145000D02*
X13500000Y1145000D01*
X12170000Y3745000D02*
X12170000Y8885000D01*
X14830000Y3745000D02*
X12170000Y3745000D01*
%TO.C,U1*%
X5500000Y12000000D02*
X56500000Y12000000D01*
X56500000Y12000000D02*
X56500000Y33000000D01*
X56500000Y33000000D02*
X5500000Y33000000D01*
X5500000Y33000000D02*
X5500000Y12000000D01*
%TO.C,J2*%
X52750000Y4900000D02*
X52250000Y4900000D01*
X50250000Y-600000D02*
X50250000Y4900000D01*
X52750000Y-600000D02*
X52750000Y4900000D01*
X42200000Y8600000D02*
X42800000Y8600000D01*
X52500000Y-1210000D02*
X65060000Y-1210000D01*
X52250000Y-600000D02*
X52750000Y-600000D01*
X42750000Y-600000D02*
X42750000Y4900000D01*
X57250000Y-600000D02*
X57750000Y-600000D01*
X65060000Y10510000D02*
X63640000Y10510000D01*
X41360000Y10510000D02*
X41360000Y6010000D01*
X57750000Y-600000D02*
X57750000Y4900000D01*
X59750000Y4900000D02*
X59750000Y-600000D01*
X55250000Y4900000D02*
X54750000Y4900000D01*
X42800000Y8600000D02*
X42500000Y8000000D01*
X39940000Y-1210000D02*
X39940000Y10510000D01*
X60250000Y4900000D02*
X59750000Y4900000D01*
X42750000Y4900000D02*
X42250000Y4900000D01*
X57750000Y4900000D02*
X57250000Y4900000D01*
X45250000Y4900000D02*
X44750000Y4900000D01*
X42500000Y8000000D02*
X42200000Y8600000D01*
X39940000Y10510000D02*
X41360000Y10510000D01*
X52250000Y4900000D02*
X52250000Y-600000D01*
X45250000Y-600000D02*
X45250000Y4900000D01*
X59750000Y-600000D02*
X60250000Y-600000D01*
X57250000Y4900000D02*
X57250000Y-600000D01*
X54750000Y4900000D02*
X54750000Y-600000D01*
X44750000Y-600000D02*
X45250000Y-600000D01*
X47750000Y-600000D02*
X47750000Y4900000D01*
X47250000Y-600000D02*
X47750000Y-600000D01*
X55250000Y-600000D02*
X55250000Y4900000D01*
X50250000Y4900000D02*
X49750000Y4900000D01*
X60250000Y-600000D02*
X60250000Y4900000D01*
X62250000Y-600000D02*
X62750000Y-600000D01*
X47750000Y4900000D02*
X47250000Y4900000D01*
X63640000Y10510000D02*
X63640000Y6010000D01*
X42250000Y-600000D02*
X42750000Y-600000D01*
X47250000Y4900000D02*
X47250000Y-600000D01*
X44750000Y4900000D02*
X44750000Y-600000D01*
X42250000Y4900000D02*
X42250000Y-600000D01*
X49750000Y4900000D02*
X49750000Y-600000D01*
X49750000Y-600000D02*
X50250000Y-600000D01*
X54750000Y-600000D02*
X55250000Y-600000D01*
X52500000Y-1210000D02*
X39940000Y-1210000D01*
X62250000Y4900000D02*
X62250000Y-600000D01*
X62750000Y-600000D02*
X62750000Y4900000D01*
X65060000Y-1210000D02*
X65060000Y10510000D01*
X62750000Y4900000D02*
X62250000Y4900000D01*
%TO.C,J3*%
X49440000Y52360000D02*
X49440000Y40640000D01*
X52250000Y46250000D02*
X52250000Y51750000D01*
X54250000Y51750000D02*
X54250000Y46250000D01*
X57060000Y40640000D02*
X55640000Y40640000D01*
X49440000Y40640000D02*
X50860000Y40640000D01*
X54750000Y51750000D02*
X54250000Y51750000D01*
X51750000Y46250000D02*
X52250000Y46250000D01*
X54750000Y46250000D02*
X54750000Y51750000D01*
X52250000Y51750000D02*
X51750000Y51750000D01*
X53250000Y52360000D02*
X49440000Y52360000D01*
X55640000Y45140000D02*
X53250000Y45140000D01*
X54250000Y46250000D02*
X54750000Y46250000D01*
X50860000Y45140000D02*
X53250000Y45140000D01*
X54200000Y40950000D02*
X54500000Y41550000D01*
X54800000Y40950000D02*
X54200000Y40950000D01*
X51750000Y51750000D02*
X51750000Y46250000D01*
X54500000Y41550000D02*
X54800000Y40950000D01*
X55640000Y40640000D02*
X55640000Y45140000D01*
X53250000Y52360000D02*
X57060000Y52360000D01*
X50860000Y40640000D02*
X50860000Y45140000D01*
X57060000Y52360000D02*
X57060000Y40640000D01*
%TO.C,C2*%
X5620000Y37500000D02*
G75*
G03*
X5620000Y37500000I-2620000J0D01*
G01*
%TO.C,D1*%
X16100000Y45650000D02*
X16100000Y42350000D01*
X16100000Y45650000D02*
X21500000Y45650000D01*
X16100000Y42350000D02*
X21500000Y42350000D01*
%TO.C,Q1*%
X31500000Y38560000D02*
X30850000Y38560000D01*
X31500000Y35440000D02*
X33175000Y35440000D01*
X31500000Y35440000D02*
X30850000Y35440000D01*
X31500000Y38560000D02*
X32150000Y38560000D01*
%TO.C,J8*%
X18330000Y8885000D02*
X15670000Y8885000D01*
X15670000Y3745000D02*
X15670000Y8885000D01*
X18330000Y3745000D02*
X18330000Y8885000D01*
X18330000Y3745000D02*
X15670000Y3745000D01*
X18330000Y2475000D02*
X18330000Y1145000D01*
X18330000Y1145000D02*
X17000000Y1145000D01*
%TO.C,R1*%
X39937742Y37522500D02*
X40412258Y37522500D01*
X39937742Y36477500D02*
X40412258Y36477500D01*
%TD*%
%LPC*%
D12*
%TO.C,REF\u002A\u002A*%
X69000000Y3000000D03*
%TD*%
D13*
%TO.C,J4*%
X45050000Y43050000D03*
D14*
X42550000Y43050000D03*
%TD*%
D13*
%TO.C,J1*%
X29250000Y43050000D03*
D14*
X26750000Y43050000D03*
%TD*%
D15*
%TO.C,C3*%
X67500000Y38500000D03*
X69050000Y38500000D03*
%TD*%
D16*
%TO.C,J6*%
X10000000Y2475000D03*
D17*
X10000000Y5015000D03*
X10000000Y7555000D03*
%TD*%
D18*
%TO.C,J5*%
X22250000Y7950000D03*
D19*
X24750000Y7950000D03*
X27250000Y7950000D03*
X29750000Y7950000D03*
X32250000Y7950000D03*
X34750000Y7950000D03*
%TD*%
D20*
%TO.C,C1*%
X12000000Y44000000D03*
X10000000Y44000000D03*
%TD*%
D12*
%TO.C,REF\u002A\u002A*%
X3000000Y44000000D03*
X3000000Y44000000D03*
%TD*%
D21*
%TO.C,U2*%
X15700000Y35220000D03*
D22*
X9400000Y37500000D03*
D21*
X15700000Y39780000D03*
%TD*%
D16*
%TO.C,J7*%
X13500000Y2475000D03*
D17*
X13500000Y5015000D03*
X13500000Y7555000D03*
%TD*%
D23*
%TO.C,U1*%
X6870000Y13610000D03*
X9410000Y13610000D03*
X11950000Y13610000D03*
X14490000Y13610000D03*
X17030000Y13610000D03*
X19570000Y13610000D03*
X22110000Y13610000D03*
X24650000Y13610000D03*
X27190000Y13610000D03*
X29730000Y13610000D03*
X32270000Y13610000D03*
X34810000Y13610000D03*
X37350000Y13610000D03*
X39890000Y13610000D03*
X42430000Y13610000D03*
X44970000Y13610000D03*
X47510000Y13610000D03*
X50050000Y13610000D03*
X52590000Y13610000D03*
X55130000Y13610000D03*
X55130000Y31390000D03*
X52590000Y31390000D03*
X50050000Y31390000D03*
X47510000Y31390000D03*
X44970000Y31390000D03*
X42430000Y31390000D03*
X39890000Y31390000D03*
X37350000Y31390000D03*
X34810000Y31390000D03*
X32270000Y31390000D03*
X29730000Y31390000D03*
X27190000Y31390000D03*
X24650000Y31390000D03*
X22110000Y31390000D03*
X19570000Y31390000D03*
X17030000Y31390000D03*
X14490000Y31390000D03*
X11950000Y31390000D03*
X9410000Y31390000D03*
X6870000Y31390000D03*
%TD*%
D18*
%TO.C,J2*%
X42500000Y6500000D03*
D19*
X45000000Y6500000D03*
X47500000Y6500000D03*
X50000000Y6500000D03*
X52500000Y6500000D03*
X55000000Y6500000D03*
X57500000Y6500000D03*
X60000000Y6500000D03*
X62500000Y6500000D03*
%TD*%
D13*
%TO.C,J3*%
X54500000Y43050000D03*
D14*
X52000000Y43050000D03*
%TD*%
D20*
%TO.C,C2*%
X4000000Y37500000D03*
X2000000Y37500000D03*
%TD*%
D12*
%TO.C,REF\u002A\u002A*%
X3000000Y3000000D03*
%TD*%
D24*
%TO.C,D1*%
X17500000Y44000000D03*
X21500000Y44000000D03*
%TD*%
D25*
%TO.C,Q1*%
X32437500Y36050000D03*
X32437500Y37950000D03*
X30562500Y37000000D03*
%TD*%
D12*
%TO.C,REF\u002A\u002A*%
X69000000Y44000000D03*
%TD*%
D16*
%TO.C,J8*%
X17000000Y2475000D03*
D17*
X17000000Y5015000D03*
X17000000Y7555000D03*
%TD*%
D26*
%TO.C,SW2*%
X63500000Y37750000D03*
X63500000Y44250000D03*
%TD*%
D27*
%TO.C,R1*%
X39350000Y37000000D03*
X41000000Y37000000D03*
%TD*%
M02*
