%TF.GenerationSoftware,KiCad,Pcbnew,6.0.6-3a73a75311~116~ubuntu20.04.1*%
%TF.CreationDate,2023-07-29T16:30:59+09:00*%
%TF.ProjectId,catchrobo2023,63617463-6872-46f6-926f-323032332e6b,rev?*%
%TF.SameCoordinates,Original*%
%TF.FileFunction,Copper,L2,Bot*%
%TF.FilePolarity,Positive*%
%FSLAX46Y46*%
G04 Gerber Fmt 4.6, Leading zero omitted, Abs format (unit mm)*
G04 Created by KiCad (PCBNEW 6.0.6-3a73a75311~116~ubuntu20.04.1) date 2023-07-29 16:30:59*
%MOMM*%
%LPD*%
G01*
G04 APERTURE LIST*
G04 Aperture macros list*
%AMRoundRect*
0 Rectangle with rounded corners*
0 $1 Rounding radius*
0 $2 $3 $4 $5 $6 $7 $8 $9 X,Y pos of 4 corners*
0 Add a 4 corners polygon primitive as box body*
4,1,4,$2,$3,$4,$5,$6,$7,$8,$9,$2,$3,0*
0 Add four circle primitives for the rounded corners*
1,1,$1+$1,$2,$3*
1,1,$1+$1,$4,$5*
1,1,$1+$1,$6,$7*
1,1,$1+$1,$8,$9*
0 Add four rect primitives between the rounded corners*
20,1,$1+$1,$2,$3,$4,$5,0*
20,1,$1+$1,$4,$5,$6,$7,0*
20,1,$1+$1,$6,$7,$8,$9,0*
20,1,$1+$1,$8,$9,$2,$3,0*%
G04 Aperture macros list end*
%TA.AperFunction,ComponentPad*%
%ADD10RoundRect,0.250000X-0.750000X0.600000X-0.750000X-0.600000X0.750000X-0.600000X0.750000X0.600000X0*%
%TD*%
%TA.AperFunction,ComponentPad*%
%ADD11O,2.000000X1.700000*%
%TD*%
%TA.AperFunction,ComponentPad*%
%ADD12RoundRect,0.250000X-0.600000X-0.725000X0.600000X-0.725000X0.600000X0.725000X-0.600000X0.725000X0*%
%TD*%
%TA.AperFunction,ComponentPad*%
%ADD13O,1.700000X1.950000*%
%TD*%
%TA.AperFunction,ComponentPad*%
%ADD14RoundRect,0.250000X0.600000X0.750000X-0.600000X0.750000X-0.600000X-0.750000X0.600000X-0.750000X0*%
%TD*%
%TA.AperFunction,ComponentPad*%
%ADD15O,1.700000X2.000000*%
%TD*%
%TA.AperFunction,ComponentPad*%
%ADD16C,1.524000*%
%TD*%
%TA.AperFunction,ComponentPad*%
%ADD17R,1.700000X1.700000*%
%TD*%
%TA.AperFunction,ComponentPad*%
%ADD18O,1.700000X1.700000*%
%TD*%
%TA.AperFunction,ComponentPad*%
%ADD19C,1.600000*%
%TD*%
%TA.AperFunction,ComponentPad*%
%ADD20C,1.700000*%
%TD*%
%TA.AperFunction,ComponentPad*%
%ADD21C,2.000000*%
%TD*%
%TA.AperFunction,ViaPad*%
%ADD22C,0.600000*%
%TD*%
%TA.AperFunction,Conductor*%
%ADD23C,0.250000*%
%TD*%
G04 APERTURE END LIST*
D10*
%TO.P,J1,1,Pin_1*%
%TO.N,Net-(D1-Pad2)*%
X23500000Y40000000D03*
D11*
%TO.P,J1,2,Pin_2*%
%TO.N,Net-(J1-Pad2)*%
X23500000Y37500000D03*
%TD*%
D12*
%TO.P,J2,1,Pin_1*%
%TO.N,GND*%
X41250000Y7950000D03*
D13*
%TO.P,J2,2,Pin_2*%
%TO.N,+5V*%
X43750000Y7950000D03*
%TO.P,J2,3,Pin_3*%
%TO.N,/JoyY*%
X46250000Y7950000D03*
%TO.P,J2,4,Pin_4*%
%TO.N,/JoyX*%
X48750000Y7950000D03*
%TO.P,J2,5,Pin_5*%
%TO.N,+3.3V*%
X51250000Y7950000D03*
%TO.P,J2,6,Pin_6*%
%TO.N,/Stopper*%
X53750000Y7950000D03*
%TO.P,J2,7,Pin_7*%
%TO.N,/SW3*%
X56250000Y7950000D03*
%TO.P,J2,8,Pin_8*%
%TO.N,/SW2*%
X58750000Y7950000D03*
%TO.P,J2,9,Pin_9*%
%TO.N,/SW1*%
X61250000Y7950000D03*
%TO.P,J2,10,Pin_10*%
%TO.N,/SW0*%
X63750000Y7950000D03*
%TD*%
D14*
%TO.P,J4,1,Pin_1*%
%TO.N,+BATT*%
X45050000Y41500000D03*
D15*
%TO.P,J4,2,Pin_2*%
%TO.N,GND*%
X42550000Y41500000D03*
%TD*%
D16*
%TO.P,U3,1,IN*%
%TO.N,/Speaker*%
X19500000Y22500000D03*
%TO.P,U3,2,OUT*%
%TO.N,GND*%
X14500000Y22500000D03*
%TD*%
D17*
%TO.P,J6,1,Pin_1*%
%TO.N,GND*%
X10000000Y2475000D03*
D18*
%TO.P,J6,2,Pin_2*%
%TO.N,+5V*%
X10000000Y5015000D03*
%TO.P,J6,3,Pin_3*%
%TO.N,/Servo1*%
X10000000Y7555000D03*
%TD*%
D12*
%TO.P,J5,1,Pin_1*%
%TO.N,+5V*%
X22250000Y7950000D03*
D13*
%TO.P,J5,2,Pin_2*%
%TO.N,GND*%
X24750000Y7950000D03*
%TO.P,J5,3,Pin_3*%
%TO.N,/STEP1*%
X27250000Y7950000D03*
%TO.P,J5,4,Pin_4*%
%TO.N,/DIR1*%
X29750000Y7950000D03*
%TO.P,J5,5,Pin_5*%
%TO.N,/STEP2*%
X32250000Y7950000D03*
%TO.P,J5,6,Pin_6*%
%TO.N,/DIR2*%
X34750000Y7950000D03*
%TD*%
D19*
%TO.P,C1,1*%
%TO.N,+7.5V*%
X12000000Y44000000D03*
%TO.P,C1,2*%
%TO.N,GND*%
X10000000Y44000000D03*
%TD*%
D17*
%TO.P,J7,1,Pin_1*%
%TO.N,GND*%
X13500000Y2475000D03*
D18*
%TO.P,J7,2,Pin_2*%
%TO.N,+5V*%
X13500000Y5015000D03*
%TO.P,J7,3,Pin_3*%
%TO.N,/Servo2*%
X13500000Y7555000D03*
%TD*%
D16*
%TO.P,U1,1,GP0*%
%TO.N,/Servo1*%
X6870000Y13610000D03*
%TO.P,U1,2,GP1*%
%TO.N,/Servo2*%
X9410000Y13610000D03*
%TO.P,U1,3,GND*%
%TO.N,GND*%
X11950000Y13610000D03*
%TO.P,U1,4,GP2*%
%TO.N,/Servo3*%
X14490000Y13610000D03*
%TO.P,U1,5,GP3*%
%TO.N,/Speaker*%
X17030000Y13610000D03*
%TO.P,U1,6,GP4*%
%TO.N,unconnected-(U1-Pad6)*%
X19570000Y13610000D03*
%TO.P,U1,7,GP5*%
%TO.N,unconnected-(U1-Pad7)*%
X22110000Y13610000D03*
%TO.P,U1,8,GND*%
%TO.N,GND*%
X24650000Y13610000D03*
%TO.P,U1,9,GP6*%
%TO.N,/STEP1*%
X27190000Y13610000D03*
%TO.P,U1,10,GP7*%
%TO.N,/DIR1*%
X29730000Y13610000D03*
%TO.P,U1,11,GP8*%
%TO.N,unconnected-(U1-Pad11)*%
X32270000Y13610000D03*
%TO.P,U1,12,GP9*%
%TO.N,unconnected-(U1-Pad12)*%
X34810000Y13610000D03*
%TO.P,U1,13,GND*%
%TO.N,GND*%
X37350000Y13610000D03*
%TO.P,U1,14,GP10*%
%TO.N,/STEP2*%
X39890000Y13610000D03*
%TO.P,U1,15,GP11*%
%TO.N,/DIR2*%
X42430000Y13610000D03*
%TO.P,U1,16,GP12*%
%TO.N,unconnected-(U1-Pad16)*%
X44970000Y13610000D03*
%TO.P,U1,17,GP13*%
%TO.N,unconnected-(U1-Pad17)*%
X47510000Y13610000D03*
%TO.P,U1,18,GND*%
%TO.N,GND*%
X50050000Y13610000D03*
%TO.P,U1,19,GP14*%
%TO.N,unconnected-(U1-Pad19)*%
X52590000Y13610000D03*
%TO.P,U1,20,GP15*%
%TO.N,unconnected-(U1-Pad20)*%
X55130000Y13610000D03*
%TO.P,U1,21,GP16*%
%TO.N,unconnected-(U1-Pad21)*%
X55130000Y31390000D03*
%TO.P,U1,22,GP17*%
%TO.N,unconnected-(U1-Pad22)*%
X52590000Y31390000D03*
%TO.P,U1,23,GND*%
%TO.N,GND*%
X50050000Y31390000D03*
%TO.P,U1,24,GP18*%
%TO.N,/SW0*%
X47510000Y31390000D03*
%TO.P,U1,25,GP19*%
%TO.N,/SW1*%
X44970000Y31390000D03*
%TO.P,U1,26,GP20*%
%TO.N,/SW2*%
X42430000Y31390000D03*
%TO.P,U1,27,GP21*%
%TO.N,/SW3*%
X39890000Y31390000D03*
%TO.P,U1,28,GND*%
%TO.N,GND*%
X37350000Y31390000D03*
%TO.P,U1,29,GP22*%
%TO.N,unconnected-(U1-Pad29)*%
X34810000Y31390000D03*
%TO.P,U1,30,RUN*%
%TO.N,Net-(C3-Pad1)*%
X32270000Y31390000D03*
%TO.P,U1,31,GP26*%
%TO.N,/JoyX*%
X29730000Y31390000D03*
%TO.P,U1,32,GP27*%
%TO.N,/JoyY*%
X27190000Y31390000D03*
%TO.P,U1,33,GND*%
%TO.N,GND*%
X24650000Y31390000D03*
%TO.P,U1,34,GP28*%
%TO.N,unconnected-(U1-Pad34)*%
X22110000Y31390000D03*
%TO.P,U1,35,ADC_VREF*%
%TO.N,unconnected-(U1-Pad35)*%
X19570000Y31390000D03*
%TO.P,U1,36,3V3*%
%TO.N,+3.3V*%
X17030000Y31390000D03*
%TO.P,U1,37,3V3_EN*%
%TO.N,unconnected-(U1-Pad37)*%
X14490000Y31390000D03*
%TO.P,U1,38,GND*%
%TO.N,GND*%
X11950000Y31390000D03*
%TO.P,U1,39,VSYS*%
%TO.N,unconnected-(U1-Pad39)*%
X9410000Y31390000D03*
%TO.P,U1,40,VBUS*%
%TO.N,+5V*%
X6870000Y31390000D03*
%TD*%
D20*
%TO.P,SW1,1,A*%
%TO.N,unconnected-(SW1-Pad1)*%
X37040000Y44000000D03*
%TO.P,SW1,2,B*%
%TO.N,+BATT*%
X34500000Y44000000D03*
%TO.P,SW1,3,C*%
%TO.N,Net-(D1-Pad2)*%
X31960000Y44000000D03*
%TD*%
D14*
%TO.P,J3,1,Pin_1*%
%TO.N,+BATT*%
X54500000Y41500000D03*
D15*
%TO.P,J3,2,Pin_2*%
%TO.N,GND*%
X52000000Y41500000D03*
%TD*%
D19*
%TO.P,C2,1*%
%TO.N,+5V*%
X4000000Y37500000D03*
%TO.P,C2,2*%
%TO.N,GND*%
X2000000Y37500000D03*
%TD*%
D17*
%TO.P,J8,1,Pin_1*%
%TO.N,GND*%
X17000000Y2475000D03*
D18*
%TO.P,J8,2,Pin_2*%
%TO.N,+5V*%
X17000000Y5015000D03*
%TO.P,J8,3,Pin_3*%
%TO.N,/Servo3*%
X17000000Y7555000D03*
%TD*%
D21*
%TO.P,SW2,1,1*%
%TO.N,Net-(C3-Pad1)*%
X63500000Y37750000D03*
%TO.P,SW2,2,2*%
%TO.N,GND*%
X63500000Y44250000D03*
%TD*%
D22*
%TO.N,GND*%
X35500000Y38500000D03*
X62500000Y28000000D03*
X62500000Y19500000D03*
X71000000Y13000000D03*
X55500000Y35000000D03*
X51500000Y38500000D03*
X43000000Y10000000D03*
X43500000Y16500000D03*
X59000000Y38500000D03*
X39500000Y21000000D03*
X55500000Y11500000D03*
X18500000Y26000000D03*
X41100000Y1000000D03*
X23500000Y16500000D03*
X45000000Y10000000D03*
X24500000Y3500000D03*
X62500000Y46000000D03*
X57700000Y1000000D03*
X14500000Y29500000D03*
X44250000Y34750000D03*
X43000000Y11500000D03*
X42000000Y27000000D03*
X28650000Y1000000D03*
X67000000Y9000000D03*
X10500000Y15500000D03*
X26000000Y24500000D03*
X62500000Y41000000D03*
X59000000Y46000000D03*
X60000000Y27500000D03*
X27500000Y21000000D03*
X14500000Y15500000D03*
X39500000Y38500000D03*
X24500000Y1000000D03*
X61850000Y1000000D03*
X35500000Y21000000D03*
X10500000Y22500000D03*
X37000000Y27000000D03*
X47500000Y38500000D03*
X67000000Y21000000D03*
X60000000Y10000000D03*
X43500000Y38500000D03*
X71000000Y6000000D03*
X67000000Y29000000D03*
X45000000Y11500000D03*
X10500000Y19000000D03*
X32800000Y3500000D03*
X50000000Y19000000D03*
X59000000Y42500000D03*
X36950000Y1000000D03*
X31500000Y16500000D03*
X55500000Y18000000D03*
X10500000Y26000000D03*
X67000000Y25000000D03*
X66000000Y41000000D03*
X30000000Y27000000D03*
X67000000Y13000000D03*
X14500000Y26000000D03*
X71000000Y25000000D03*
X71000000Y21000000D03*
X58000000Y32000000D03*
X60000000Y19500000D03*
X61850000Y3500000D03*
X66000000Y6000000D03*
X10500000Y29500000D03*
X25000000Y10500000D03*
X36950000Y3500000D03*
X18500000Y19000000D03*
X71000000Y37000000D03*
X39500000Y16500000D03*
X62500000Y10000000D03*
X55500000Y24500000D03*
X47500000Y19000000D03*
X51000000Y25000000D03*
X27500000Y29500000D03*
X32500000Y24500000D03*
X71000000Y33000000D03*
X57700000Y3500000D03*
X32800000Y1000000D03*
X45250000Y1000000D03*
X71000000Y41000000D03*
X21000000Y29500000D03*
X66000000Y46000000D03*
X34500000Y29500000D03*
X43500000Y21000000D03*
X31500000Y21000000D03*
X52500000Y19000000D03*
X63000000Y33000000D03*
X53550000Y3500000D03*
X41100000Y3500000D03*
X39000000Y29500000D03*
X38500000Y7500000D03*
X49400000Y3500000D03*
X23500000Y27000000D03*
X71000000Y9000000D03*
X34500000Y34750000D03*
X66000000Y1000000D03*
X27500000Y16500000D03*
X23500000Y21000000D03*
X67000000Y33000000D03*
X28650000Y3500000D03*
X71000000Y17000000D03*
X49750000Y34750000D03*
X55500000Y38500000D03*
X49400000Y1000000D03*
X71000000Y29000000D03*
X53550000Y1000000D03*
X67000000Y17000000D03*
X35500000Y16500000D03*
X14500000Y19000000D03*
X45250000Y3500000D03*
%TO.N,/Stopper*%
X51000000Y36000000D03*
%TO.N,/JoyY*%
X45000000Y24500000D03*
%TO.N,/JoyX*%
X47000000Y25500000D03*
%TO.N,/SW3*%
X56500000Y27000000D03*
%TO.N,/SW2*%
X58000000Y28000000D03*
%TO.N,/SW1*%
X60500000Y29000000D03*
%TO.N,/SW0*%
X62500000Y30000000D03*
%TO.N,+3.3V*%
X50500000Y23000000D03*
%TD*%
D23*
%TO.N,/Servo1*%
X6870000Y13610000D02*
X6870000Y12130000D01*
X10000000Y9000000D02*
X10000000Y7555000D01*
X6870000Y12130000D02*
X10000000Y9000000D01*
%TO.N,/Servo2*%
X9410000Y13610000D02*
X13500000Y9520000D01*
X13500000Y9520000D02*
X13500000Y7555000D01*
%TO.N,/Servo3*%
X17000000Y11100000D02*
X17000000Y7555000D01*
X14490000Y13610000D02*
X17000000Y11100000D01*
%TO.N,/Stopper*%
X51000000Y36000000D02*
X53750000Y33250000D01*
X53750000Y33250000D02*
X53750000Y7950000D01*
%TO.N,/JoyY*%
X45000000Y24500000D02*
X46250000Y23250000D01*
X46250000Y23250000D02*
X46250000Y7950000D01*
%TO.N,/JoyX*%
X47000000Y25500000D02*
X48750000Y23750000D01*
X48750000Y23750000D02*
X48750000Y7950000D01*
%TO.N,/SW3*%
X56500000Y27000000D02*
X57500000Y26000000D01*
X57500000Y26000000D02*
X57500000Y9200000D01*
X57500000Y9200000D02*
X56250000Y7950000D01*
%TO.N,/SW2*%
X58750000Y27250000D02*
X58750000Y7950000D01*
X58000000Y28000000D02*
X58750000Y27250000D01*
%TO.N,/SW1*%
X61250000Y28250000D02*
X61250000Y7950000D01*
X60500000Y29000000D02*
X61250000Y28250000D01*
%TO.N,/SW0*%
X63750000Y28750000D02*
X63750000Y7950000D01*
X62500000Y30000000D02*
X63750000Y28750000D01*
%TO.N,+3.3V*%
X51250000Y22250000D02*
X51250000Y7950000D01*
X50500000Y23000000D02*
X51250000Y22250000D01*
%TD*%
%TA.AperFunction,Conductor*%
%TO.N,GND*%
G36*
X66442121Y46471498D02*
G01*
X66488614Y46417842D01*
X66500000Y46365500D01*
X66500000Y41500000D01*
X71365500Y41500000D01*
X71433621Y41479998D01*
X71480114Y41426342D01*
X71491500Y41374000D01*
X71491500Y5626000D01*
X71471498Y5557879D01*
X71417842Y5511386D01*
X71365500Y5500000D01*
X66500000Y5500000D01*
X66500000Y634500D01*
X66479998Y566379D01*
X66426342Y519886D01*
X66374000Y508500D01*
X5626000Y508500D01*
X5557879Y528502D01*
X5511386Y582158D01*
X5500000Y634500D01*
X5500000Y1580331D01*
X8642001Y1580331D01*
X8642371Y1573510D01*
X8647895Y1522648D01*
X8651521Y1507396D01*
X8696676Y1386946D01*
X8705214Y1371351D01*
X8781715Y1269276D01*
X8794276Y1256715D01*
X8896351Y1180214D01*
X8911946Y1171676D01*
X9032394Y1126522D01*
X9047649Y1122895D01*
X9098514Y1117369D01*
X9105328Y1117000D01*
X9727885Y1117000D01*
X9743124Y1121475D01*
X9744329Y1122865D01*
X9746000Y1130548D01*
X9746000Y1135116D01*
X10254000Y1135116D01*
X10258475Y1119877D01*
X10259865Y1118672D01*
X10267548Y1117001D01*
X10894669Y1117001D01*
X10901490Y1117371D01*
X10952352Y1122895D01*
X10967604Y1126521D01*
X11088054Y1171676D01*
X11103649Y1180214D01*
X11205724Y1256715D01*
X11218285Y1269276D01*
X11294786Y1371351D01*
X11303324Y1386946D01*
X11348478Y1507394D01*
X11352105Y1522649D01*
X11357631Y1573514D01*
X11358000Y1580328D01*
X11358000Y1580331D01*
X12142001Y1580331D01*
X12142371Y1573510D01*
X12147895Y1522648D01*
X12151521Y1507396D01*
X12196676Y1386946D01*
X12205214Y1371351D01*
X12281715Y1269276D01*
X12294276Y1256715D01*
X12396351Y1180214D01*
X12411946Y1171676D01*
X12532394Y1126522D01*
X12547649Y1122895D01*
X12598514Y1117369D01*
X12605328Y1117000D01*
X13227885Y1117000D01*
X13243124Y1121475D01*
X13244329Y1122865D01*
X13246000Y1130548D01*
X13246000Y1135116D01*
X13754000Y1135116D01*
X13758475Y1119877D01*
X13759865Y1118672D01*
X13767548Y1117001D01*
X14394669Y1117001D01*
X14401490Y1117371D01*
X14452352Y1122895D01*
X14467604Y1126521D01*
X14588054Y1171676D01*
X14603649Y1180214D01*
X14705724Y1256715D01*
X14718285Y1269276D01*
X14794786Y1371351D01*
X14803324Y1386946D01*
X14848478Y1507394D01*
X14852105Y1522649D01*
X14857631Y1573514D01*
X14858000Y1580328D01*
X14858000Y1580331D01*
X15642001Y1580331D01*
X15642371Y1573510D01*
X15647895Y1522648D01*
X15651521Y1507396D01*
X15696676Y1386946D01*
X15705214Y1371351D01*
X15781715Y1269276D01*
X15794276Y1256715D01*
X15896351Y1180214D01*
X15911946Y1171676D01*
X16032394Y1126522D01*
X16047649Y1122895D01*
X16098514Y1117369D01*
X16105328Y1117000D01*
X16727885Y1117000D01*
X16743124Y1121475D01*
X16744329Y1122865D01*
X16746000Y1130548D01*
X16746000Y1135116D01*
X17254000Y1135116D01*
X17258475Y1119877D01*
X17259865Y1118672D01*
X17267548Y1117001D01*
X17894669Y1117001D01*
X17901490Y1117371D01*
X17952352Y1122895D01*
X17967604Y1126521D01*
X18088054Y1171676D01*
X18103649Y1180214D01*
X18205724Y1256715D01*
X18218285Y1269276D01*
X18294786Y1371351D01*
X18303324Y1386946D01*
X18348478Y1507394D01*
X18352105Y1522649D01*
X18357631Y1573514D01*
X18358000Y1580328D01*
X18358000Y2202885D01*
X18353525Y2218124D01*
X18352135Y2219329D01*
X18344452Y2221000D01*
X17272115Y2221000D01*
X17256876Y2216525D01*
X17255671Y2215135D01*
X17254000Y2207452D01*
X17254000Y1135116D01*
X16746000Y1135116D01*
X16746000Y2202885D01*
X16741525Y2218124D01*
X16740135Y2219329D01*
X16732452Y2221000D01*
X15660116Y2221000D01*
X15644877Y2216525D01*
X15643672Y2215135D01*
X15642001Y2207452D01*
X15642001Y1580331D01*
X14858000Y1580331D01*
X14858000Y2202885D01*
X14853525Y2218124D01*
X14852135Y2219329D01*
X14844452Y2221000D01*
X13772115Y2221000D01*
X13756876Y2216525D01*
X13755671Y2215135D01*
X13754000Y2207452D01*
X13754000Y1135116D01*
X13246000Y1135116D01*
X13246000Y2202885D01*
X13241525Y2218124D01*
X13240135Y2219329D01*
X13232452Y2221000D01*
X12160116Y2221000D01*
X12144877Y2216525D01*
X12143672Y2215135D01*
X12142001Y2207452D01*
X12142001Y1580331D01*
X11358000Y1580331D01*
X11358000Y2202885D01*
X11353525Y2218124D01*
X11352135Y2219329D01*
X11344452Y2221000D01*
X10272115Y2221000D01*
X10256876Y2216525D01*
X10255671Y2215135D01*
X10254000Y2207452D01*
X10254000Y1135116D01*
X9746000Y1135116D01*
X9746000Y2202885D01*
X9741525Y2218124D01*
X9740135Y2219329D01*
X9732452Y2221000D01*
X8660116Y2221000D01*
X8644877Y2216525D01*
X8643672Y2215135D01*
X8642001Y2207452D01*
X8642001Y1580331D01*
X5500000Y1580331D01*
X5500000Y5500000D01*
X634500Y5500000D01*
X566379Y5520002D01*
X519886Y5573658D01*
X508500Y5626000D01*
X508500Y13610000D01*
X5594647Y13610000D01*
X5614022Y13388537D01*
X5671560Y13173804D01*
X5673882Y13168823D01*
X5673883Y13168822D01*
X5763186Y12977311D01*
X5763189Y12977306D01*
X5765512Y12972324D01*
X5768668Y12967817D01*
X5768669Y12967815D01*
X5805107Y12915777D01*
X5893023Y12790219D01*
X6050219Y12633023D01*
X6054727Y12629866D01*
X6054730Y12629864D01*
X6123500Y12581711D01*
X6163500Y12553703D01*
X6182771Y12540209D01*
X6227099Y12484752D01*
X6236500Y12436996D01*
X6236500Y12208767D01*
X6235973Y12197584D01*
X6234298Y12190091D01*
X6234547Y12182165D01*
X6234547Y12182164D01*
X6236438Y12122014D01*
X6236500Y12118055D01*
X6236500Y12090144D01*
X6236997Y12086210D01*
X6236997Y12086209D01*
X6237005Y12086144D01*
X6237938Y12074307D01*
X6239327Y12030111D01*
X6244978Y12010661D01*
X6248987Y11991300D01*
X6251526Y11971203D01*
X6254445Y11963832D01*
X6254445Y11963830D01*
X6267804Y11930088D01*
X6271649Y11918858D01*
X6283982Y11876407D01*
X6288015Y11869588D01*
X6288017Y11869583D01*
X6294293Y11858972D01*
X6302988Y11841224D01*
X6310448Y11822383D01*
X6315110Y11815967D01*
X6315110Y11815966D01*
X6336436Y11786613D01*
X6342952Y11776693D01*
X6365458Y11738638D01*
X6379779Y11724317D01*
X6392619Y11709284D01*
X6404528Y11692893D01*
X6410634Y11687842D01*
X6438605Y11664702D01*
X6447384Y11656712D01*
X9240613Y8863483D01*
X9274639Y8801171D01*
X9269574Y8730356D01*
X9227171Y8673628D01*
X9142540Y8610085D01*
X9094965Y8574365D01*
X8940629Y8412862D01*
X8814743Y8228320D01*
X8720688Y8025695D01*
X8660989Y7810430D01*
X8637251Y7588305D01*
X8637548Y7583152D01*
X8637548Y7583149D01*
X8649715Y7372128D01*
X8650110Y7365285D01*
X8651247Y7360239D01*
X8651248Y7360233D01*
X8671119Y7272061D01*
X8699222Y7147361D01*
X8739346Y7048547D01*
X8781308Y6945207D01*
X8783266Y6940384D01*
X8809374Y6897780D01*
X8894882Y6758243D01*
X8899987Y6749912D01*
X9046250Y6581062D01*
X9218126Y6438368D01*
X9288595Y6397189D01*
X9291445Y6395524D01*
X9340169Y6343886D01*
X9353240Y6274103D01*
X9326509Y6208331D01*
X9286055Y6174973D01*
X9273607Y6168493D01*
X9269474Y6165390D01*
X9269471Y6165388D01*
X9245247Y6147200D01*
X9094965Y6034365D01*
X8940629Y5872862D01*
X8814743Y5688320D01*
X8799003Y5654410D01*
X8736613Y5520002D01*
X8720688Y5485695D01*
X8660989Y5270430D01*
X8637251Y5048305D01*
X8637548Y5043152D01*
X8637548Y5043149D01*
X8643011Y4948410D01*
X8650110Y4825285D01*
X8651247Y4820239D01*
X8651248Y4820233D01*
X8671119Y4732061D01*
X8699222Y4607361D01*
X8783266Y4400384D01*
X8785965Y4395980D01*
X8891190Y4224268D01*
X8899987Y4209912D01*
X9046250Y4041062D01*
X9050225Y4037762D01*
X9050231Y4037756D01*
X9055425Y4033444D01*
X9095059Y3974540D01*
X9096555Y3903559D01*
X9059439Y3843038D01*
X9019168Y3818520D01*
X8911946Y3778324D01*
X8896351Y3769786D01*
X8794276Y3693285D01*
X8781715Y3680724D01*
X8705214Y3578649D01*
X8696676Y3563054D01*
X8651522Y3442606D01*
X8647895Y3427351D01*
X8642369Y3376486D01*
X8642000Y3369672D01*
X8642000Y2747115D01*
X8646475Y2731876D01*
X8647865Y2730671D01*
X8655548Y2729000D01*
X11339884Y2729000D01*
X11355123Y2733475D01*
X11356328Y2734865D01*
X11357999Y2742548D01*
X11357999Y3369669D01*
X11357629Y3376490D01*
X11352105Y3427352D01*
X11348479Y3442604D01*
X11303324Y3563054D01*
X11294786Y3578649D01*
X11218285Y3680724D01*
X11205724Y3693285D01*
X11103649Y3769786D01*
X11088054Y3778324D01*
X10977813Y3819652D01*
X10921049Y3862294D01*
X10896349Y3928855D01*
X10911557Y3998204D01*
X10933104Y4026885D01*
X11034430Y4127856D01*
X11034440Y4127868D01*
X11038096Y4131511D01*
X11097594Y4214311D01*
X11165435Y4308723D01*
X11168453Y4312923D01*
X11267430Y4513189D01*
X11332370Y4726931D01*
X11361529Y4948410D01*
X11363156Y5015000D01*
X11344852Y5237639D01*
X11290431Y5454298D01*
X11201354Y5659160D01*
X11080014Y5846723D01*
X10929670Y6011949D01*
X10925619Y6015148D01*
X10925615Y6015152D01*
X10758414Y6147200D01*
X10758410Y6147202D01*
X10754359Y6150402D01*
X10713053Y6173204D01*
X10663084Y6223636D01*
X10648312Y6293079D01*
X10673428Y6359484D01*
X10700780Y6386091D01*
X10744603Y6417350D01*
X10879860Y6513827D01*
X10884527Y6518477D01*
X10988265Y6621854D01*
X11038096Y6671511D01*
X11097594Y6754311D01*
X11165435Y6848723D01*
X11168453Y6852923D01*
X11181148Y6878608D01*
X11265136Y7048547D01*
X11265137Y7048549D01*
X11267430Y7053189D01*
X11305322Y7177905D01*
X11330865Y7261977D01*
X11330865Y7261979D01*
X11332370Y7266931D01*
X11361529Y7488410D01*
X11363156Y7555000D01*
X11344852Y7777639D01*
X11290431Y7994298D01*
X11201354Y8199160D01*
X11080014Y8386723D01*
X10929670Y8551949D01*
X10925619Y8555148D01*
X10925615Y8555152D01*
X10758414Y8687200D01*
X10758410Y8687202D01*
X10754359Y8690402D01*
X10749835Y8692899D01*
X10749831Y8692902D01*
X10698608Y8721178D01*
X10648636Y8771610D01*
X10633500Y8831487D01*
X10633500Y8921237D01*
X10634027Y8932421D01*
X10635701Y8939909D01*
X10633562Y9007968D01*
X10633500Y9011925D01*
X10633500Y9039856D01*
X10632994Y9043862D01*
X10632061Y9055708D01*
X10630922Y9091963D01*
X10630673Y9099890D01*
X10625022Y9119342D01*
X10621014Y9138694D01*
X10619468Y9150932D01*
X10619467Y9150934D01*
X10618474Y9158797D01*
X10602194Y9199914D01*
X10598359Y9211115D01*
X10586018Y9253594D01*
X10581985Y9260413D01*
X10581983Y9260418D01*
X10575707Y9271029D01*
X10567010Y9288779D01*
X10559552Y9307617D01*
X10533571Y9343377D01*
X10527053Y9353299D01*
X10508578Y9384540D01*
X10508574Y9384545D01*
X10504542Y9391363D01*
X10490218Y9405687D01*
X10477376Y9420722D01*
X10465472Y9437107D01*
X10431406Y9465289D01*
X10422627Y9473278D01*
X7544875Y12351030D01*
X7510849Y12413342D01*
X7515914Y12484157D01*
X7561699Y12543338D01*
X7685270Y12629864D01*
X7685273Y12629866D01*
X7689781Y12633023D01*
X7846977Y12790219D01*
X7934894Y12915777D01*
X7971331Y12967815D01*
X7971332Y12967817D01*
X7974488Y12972324D01*
X7976811Y12977306D01*
X7976814Y12977311D01*
X8025805Y13082373D01*
X8072723Y13135658D01*
X8141000Y13155119D01*
X8208960Y13134577D01*
X8254195Y13082373D01*
X8303186Y12977311D01*
X8303189Y12977306D01*
X8305512Y12972324D01*
X8308668Y12967817D01*
X8308669Y12967815D01*
X8345107Y12915777D01*
X8433023Y12790219D01*
X8590219Y12633023D01*
X8594727Y12629866D01*
X8594730Y12629864D01*
X8663500Y12581711D01*
X8772323Y12505512D01*
X8777305Y12503189D01*
X8777310Y12503186D01*
X8967810Y12414355D01*
X8973804Y12411560D01*
X8979112Y12410138D01*
X8979114Y12410137D01*
X9000178Y12404493D01*
X9188537Y12354022D01*
X9410000Y12334647D01*
X9631463Y12354022D01*
X9648086Y12358476D01*
X9670516Y12364486D01*
X9741493Y12362796D01*
X9792222Y12331874D01*
X12829595Y9294501D01*
X12863621Y9232189D01*
X12866500Y9205406D01*
X12866500Y8833308D01*
X12846498Y8765187D01*
X12798683Y8721547D01*
X12773607Y8708493D01*
X12769474Y8705390D01*
X12769471Y8705388D01*
X12599100Y8577470D01*
X12594965Y8574365D01*
X12440629Y8412862D01*
X12314743Y8228320D01*
X12220688Y8025695D01*
X12160989Y7810430D01*
X12137251Y7588305D01*
X12137548Y7583152D01*
X12137548Y7583149D01*
X12149715Y7372128D01*
X12150110Y7365285D01*
X12151247Y7360239D01*
X12151248Y7360233D01*
X12171119Y7272061D01*
X12199222Y7147361D01*
X12239346Y7048547D01*
X12281308Y6945207D01*
X12283266Y6940384D01*
X12309374Y6897780D01*
X12394882Y6758243D01*
X12399987Y6749912D01*
X12546250Y6581062D01*
X12718126Y6438368D01*
X12788595Y6397189D01*
X12791445Y6395524D01*
X12840169Y6343886D01*
X12853240Y6274103D01*
X12826509Y6208331D01*
X12786055Y6174973D01*
X12773607Y6168493D01*
X12769474Y6165390D01*
X12769471Y6165388D01*
X12745247Y6147200D01*
X12594965Y6034365D01*
X12440629Y5872862D01*
X12314743Y5688320D01*
X12299003Y5654410D01*
X12236613Y5520002D01*
X12220688Y5485695D01*
X12160989Y5270430D01*
X12137251Y5048305D01*
X12137548Y5043152D01*
X12137548Y5043149D01*
X12143011Y4948410D01*
X12150110Y4825285D01*
X12151247Y4820239D01*
X12151248Y4820233D01*
X12171119Y4732061D01*
X12199222Y4607361D01*
X12283266Y4400384D01*
X12285965Y4395980D01*
X12391190Y4224268D01*
X12399987Y4209912D01*
X12546250Y4041062D01*
X12550225Y4037762D01*
X12550231Y4037756D01*
X12555425Y4033444D01*
X12595059Y3974540D01*
X12596555Y3903559D01*
X12559439Y3843038D01*
X12519168Y3818520D01*
X12411946Y3778324D01*
X12396351Y3769786D01*
X12294276Y3693285D01*
X12281715Y3680724D01*
X12205214Y3578649D01*
X12196676Y3563054D01*
X12151522Y3442606D01*
X12147895Y3427351D01*
X12142369Y3376486D01*
X12142000Y3369672D01*
X12142000Y2747115D01*
X12146475Y2731876D01*
X12147865Y2730671D01*
X12155548Y2729000D01*
X14839884Y2729000D01*
X14855123Y2733475D01*
X14856328Y2734865D01*
X14857999Y2742548D01*
X14857999Y3369669D01*
X14857629Y3376490D01*
X14852105Y3427352D01*
X14848479Y3442604D01*
X14803324Y3563054D01*
X14794786Y3578649D01*
X14718285Y3680724D01*
X14705724Y3693285D01*
X14603649Y3769786D01*
X14588054Y3778324D01*
X14477813Y3819652D01*
X14421049Y3862294D01*
X14396349Y3928855D01*
X14411557Y3998204D01*
X14433104Y4026885D01*
X14534430Y4127856D01*
X14534440Y4127868D01*
X14538096Y4131511D01*
X14597594Y4214311D01*
X14665435Y4308723D01*
X14668453Y4312923D01*
X14767430Y4513189D01*
X14832370Y4726931D01*
X14861529Y4948410D01*
X14863156Y5015000D01*
X14844852Y5237639D01*
X14790431Y5454298D01*
X14701354Y5659160D01*
X14580014Y5846723D01*
X14429670Y6011949D01*
X14425619Y6015148D01*
X14425615Y6015152D01*
X14258414Y6147200D01*
X14258410Y6147202D01*
X14254359Y6150402D01*
X14213053Y6173204D01*
X14163084Y6223636D01*
X14148312Y6293079D01*
X14173428Y6359484D01*
X14200780Y6386091D01*
X14244603Y6417350D01*
X14379860Y6513827D01*
X14384527Y6518477D01*
X14488265Y6621854D01*
X14538096Y6671511D01*
X14597594Y6754311D01*
X14665435Y6848723D01*
X14668453Y6852923D01*
X14681148Y6878608D01*
X14765136Y7048547D01*
X14765137Y7048549D01*
X14767430Y7053189D01*
X14805322Y7177905D01*
X14830865Y7261977D01*
X14830865Y7261979D01*
X14832370Y7266931D01*
X14861529Y7488410D01*
X14863156Y7555000D01*
X14844852Y7777639D01*
X14790431Y7994298D01*
X14701354Y8199160D01*
X14580014Y8386723D01*
X14429670Y8551949D01*
X14425619Y8555148D01*
X14425615Y8555152D01*
X14258414Y8687200D01*
X14258410Y8687202D01*
X14254359Y8690402D01*
X14249835Y8692899D01*
X14249831Y8692902D01*
X14198608Y8721178D01*
X14148636Y8771610D01*
X14133500Y8831487D01*
X14133500Y9441237D01*
X14134027Y9452421D01*
X14135701Y9459909D01*
X14133562Y9527968D01*
X14133500Y9531925D01*
X14133500Y9559856D01*
X14132994Y9563862D01*
X14132061Y9575708D01*
X14130922Y9611963D01*
X14130673Y9619890D01*
X14125022Y9639342D01*
X14121014Y9658694D01*
X14119468Y9670932D01*
X14119467Y9670934D01*
X14118474Y9678797D01*
X14102194Y9719914D01*
X14098359Y9731115D01*
X14086018Y9773594D01*
X14081985Y9780413D01*
X14081983Y9780418D01*
X14075707Y9791029D01*
X14067010Y9808779D01*
X14059552Y9827617D01*
X14033571Y9863377D01*
X14027053Y9873299D01*
X14008578Y9904540D01*
X14008574Y9904545D01*
X14004542Y9911363D01*
X13990218Y9925687D01*
X13977376Y9940722D01*
X13965472Y9957107D01*
X13931406Y9985289D01*
X13922627Y9993278D01*
X11790142Y12125763D01*
X11756116Y12188075D01*
X11761181Y12258890D01*
X11803728Y12315726D01*
X11870248Y12340537D01*
X11890218Y12340379D01*
X11944524Y12335628D01*
X11955475Y12335628D01*
X12165896Y12354038D01*
X12176691Y12355941D01*
X12380715Y12410609D01*
X12391007Y12414355D01*
X12582445Y12503624D01*
X12591931Y12509102D01*
X12635764Y12539793D01*
X12644139Y12550271D01*
X12637071Y12563719D01*
X11591922Y13608868D01*
X12314408Y13608868D01*
X12314539Y13607035D01*
X12318790Y13600420D01*
X12997003Y12922207D01*
X13008777Y12915777D01*
X13020793Y12925074D01*
X13050897Y12968068D01*
X13056377Y12977559D01*
X13105529Y13082965D01*
X13152447Y13136250D01*
X13220724Y13155711D01*
X13288684Y13135169D01*
X13333919Y13082965D01*
X13383186Y12977311D01*
X13383189Y12977306D01*
X13385512Y12972324D01*
X13388668Y12967817D01*
X13388669Y12967815D01*
X13425107Y12915777D01*
X13513023Y12790219D01*
X13670219Y12633023D01*
X13674727Y12629866D01*
X13674730Y12629864D01*
X13743500Y12581711D01*
X13852323Y12505512D01*
X13857305Y12503189D01*
X13857310Y12503186D01*
X14047810Y12414355D01*
X14053804Y12411560D01*
X14059112Y12410138D01*
X14059114Y12410137D01*
X14080178Y12404493D01*
X14268537Y12354022D01*
X14490000Y12334647D01*
X14711463Y12354022D01*
X14728086Y12358476D01*
X14750516Y12364486D01*
X14821493Y12362796D01*
X14872222Y12331874D01*
X16329595Y10874500D01*
X16363621Y10812188D01*
X16366500Y10785405D01*
X16366500Y8833308D01*
X16346498Y8765187D01*
X16298683Y8721547D01*
X16273607Y8708493D01*
X16269474Y8705390D01*
X16269471Y8705388D01*
X16099100Y8577470D01*
X16094965Y8574365D01*
X15940629Y8412862D01*
X15814743Y8228320D01*
X15720688Y8025695D01*
X15660989Y7810430D01*
X15637251Y7588305D01*
X15637548Y7583152D01*
X15637548Y7583149D01*
X15649715Y7372128D01*
X15650110Y7365285D01*
X15651247Y7360239D01*
X15651248Y7360233D01*
X15671119Y7272061D01*
X15699222Y7147361D01*
X15739346Y7048547D01*
X15781308Y6945207D01*
X15783266Y6940384D01*
X15809374Y6897780D01*
X15894882Y6758243D01*
X15899987Y6749912D01*
X16046250Y6581062D01*
X16218126Y6438368D01*
X16288595Y6397189D01*
X16291445Y6395524D01*
X16340169Y6343886D01*
X16353240Y6274103D01*
X16326509Y6208331D01*
X16286055Y6174973D01*
X16273607Y6168493D01*
X16269474Y6165390D01*
X16269471Y6165388D01*
X16245247Y6147200D01*
X16094965Y6034365D01*
X15940629Y5872862D01*
X15814743Y5688320D01*
X15799003Y5654410D01*
X15736613Y5520002D01*
X15720688Y5485695D01*
X15660989Y5270430D01*
X15637251Y5048305D01*
X15637548Y5043152D01*
X15637548Y5043149D01*
X15643011Y4948410D01*
X15650110Y4825285D01*
X15651247Y4820239D01*
X15651248Y4820233D01*
X15671119Y4732061D01*
X15699222Y4607361D01*
X15783266Y4400384D01*
X15785965Y4395980D01*
X15891190Y4224268D01*
X15899987Y4209912D01*
X16046250Y4041062D01*
X16050225Y4037762D01*
X16050231Y4037756D01*
X16055425Y4033444D01*
X16095059Y3974540D01*
X16096555Y3903559D01*
X16059439Y3843038D01*
X16019168Y3818520D01*
X15911946Y3778324D01*
X15896351Y3769786D01*
X15794276Y3693285D01*
X15781715Y3680724D01*
X15705214Y3578649D01*
X15696676Y3563054D01*
X15651522Y3442606D01*
X15647895Y3427351D01*
X15642369Y3376486D01*
X15642000Y3369672D01*
X15642000Y2747115D01*
X15646475Y2731876D01*
X15647865Y2730671D01*
X15655548Y2729000D01*
X18339884Y2729000D01*
X18355123Y2733475D01*
X18356328Y2734865D01*
X18357999Y2742548D01*
X18357999Y3369669D01*
X18357629Y3376490D01*
X18352105Y3427352D01*
X18348479Y3442604D01*
X18303324Y3563054D01*
X18294786Y3578649D01*
X18218285Y3680724D01*
X18205724Y3693285D01*
X18103649Y3769786D01*
X18088054Y3778324D01*
X17977813Y3819652D01*
X17921049Y3862294D01*
X17896349Y3928855D01*
X17911557Y3998204D01*
X17933104Y4026885D01*
X18034430Y4127856D01*
X18034440Y4127868D01*
X18038096Y4131511D01*
X18097594Y4214311D01*
X18165435Y4308723D01*
X18168453Y4312923D01*
X18267430Y4513189D01*
X18332370Y4726931D01*
X18361529Y4948410D01*
X18363156Y5015000D01*
X18344852Y5237639D01*
X18290431Y5454298D01*
X18201354Y5659160D01*
X18080014Y5846723D01*
X17929670Y6011949D01*
X17925619Y6015148D01*
X17925615Y6015152D01*
X17758414Y6147200D01*
X17758410Y6147202D01*
X17754359Y6150402D01*
X17713053Y6173204D01*
X17663084Y6223636D01*
X17648312Y6293079D01*
X17673428Y6359484D01*
X17700780Y6386091D01*
X17744603Y6417350D01*
X17879860Y6513827D01*
X17884527Y6518477D01*
X17988265Y6621854D01*
X18038096Y6671511D01*
X18097594Y6754311D01*
X18165435Y6848723D01*
X18168453Y6852923D01*
X18181148Y6878608D01*
X18265136Y7048547D01*
X18265137Y7048549D01*
X18267430Y7053189D01*
X18304318Y7174600D01*
X20891500Y7174600D01*
X20891837Y7171354D01*
X20891837Y7171350D01*
X20901752Y7075794D01*
X20902474Y7068834D01*
X20904655Y7062298D01*
X20904655Y7062296D01*
X20936508Y6966822D01*
X20958450Y6901054D01*
X21051522Y6750652D01*
X21176697Y6625695D01*
X21182927Y6621855D01*
X21182928Y6621854D01*
X21320288Y6537184D01*
X21327262Y6532885D01*
X21393759Y6510829D01*
X21488611Y6479368D01*
X21488613Y6479368D01*
X21495139Y6477203D01*
X21501975Y6476503D01*
X21501978Y6476502D01*
X21537663Y6472846D01*
X21599600Y6466500D01*
X22900400Y6466500D01*
X22903646Y6466837D01*
X22903650Y6466837D01*
X22999308Y6476762D01*
X22999312Y6476763D01*
X23006166Y6477474D01*
X23012702Y6479655D01*
X23012704Y6479655D01*
X23144806Y6523728D01*
X23173946Y6533450D01*
X23324348Y6626522D01*
X23449305Y6751697D01*
X23539353Y6897780D01*
X23592124Y6945273D01*
X23662196Y6956697D01*
X23727320Y6928423D01*
X23737782Y6918636D01*
X23843234Y6808094D01*
X23851186Y6801059D01*
X24027525Y6669859D01*
X24036562Y6664255D01*
X24232484Y6564643D01*
X24242335Y6560643D01*
X24452240Y6495466D01*
X24462624Y6493183D01*
X24478043Y6491139D01*
X24492207Y6493335D01*
X24496000Y6506522D01*
X24496000Y6508808D01*
X25004000Y6508808D01*
X25007973Y6495277D01*
X25018580Y6493752D01*
X25136421Y6518477D01*
X25146617Y6521537D01*
X25351029Y6602263D01*
X25360561Y6606994D01*
X25548462Y6721016D01*
X25557052Y6727280D01*
X25723052Y6871327D01*
X25730472Y6878958D01*
X25869826Y7048911D01*
X25875848Y7057674D01*
X25891238Y7084711D01*
X25942320Y7134018D01*
X26011951Y7147880D01*
X26078022Y7121897D01*
X26105261Y7092747D01*
X26141131Y7039468D01*
X26187441Y6970681D01*
X26191120Y6966824D01*
X26191122Y6966822D01*
X26247030Y6908216D01*
X26346576Y6803865D01*
X26531542Y6666246D01*
X26536293Y6663830D01*
X26536297Y6663828D01*
X26598704Y6632099D01*
X26737051Y6561760D01*
X26742145Y6560178D01*
X26742148Y6560177D01*
X26891419Y6513827D01*
X26957227Y6493393D01*
X26962516Y6492692D01*
X27180489Y6463802D01*
X27180494Y6463802D01*
X27185774Y6463102D01*
X27191103Y6463302D01*
X27191105Y6463302D01*
X27300966Y6467426D01*
X27416158Y6471751D01*
X27421468Y6472865D01*
X27592772Y6508808D01*
X27641791Y6519093D01*
X27646750Y6521051D01*
X27646752Y6521052D01*
X27851256Y6601815D01*
X27851258Y6601816D01*
X27856221Y6603776D01*
X27861525Y6606994D01*
X28048757Y6720610D01*
X28048756Y6720610D01*
X28053317Y6723377D01*
X28085953Y6751697D01*
X28223412Y6870977D01*
X28223414Y6870979D01*
X28227445Y6874477D01*
X28277874Y6935980D01*
X28370240Y7048627D01*
X28370244Y7048633D01*
X28373624Y7052755D01*
X28391552Y7084250D01*
X28442632Y7133555D01*
X28512262Y7147417D01*
X28578333Y7121434D01*
X28605573Y7092284D01*
X28610983Y7084248D01*
X28687441Y6970681D01*
X28691120Y6966824D01*
X28691122Y6966822D01*
X28747030Y6908216D01*
X28846576Y6803865D01*
X29031542Y6666246D01*
X29036293Y6663830D01*
X29036297Y6663828D01*
X29098704Y6632099D01*
X29237051Y6561760D01*
X29242145Y6560178D01*
X29242148Y6560177D01*
X29391419Y6513827D01*
X29457227Y6493393D01*
X29462516Y6492692D01*
X29680489Y6463802D01*
X29680494Y6463802D01*
X29685774Y6463102D01*
X29691103Y6463302D01*
X29691105Y6463302D01*
X29800966Y6467426D01*
X29916158Y6471751D01*
X29921468Y6472865D01*
X30092772Y6508808D01*
X30141791Y6519093D01*
X30146750Y6521051D01*
X30146752Y6521052D01*
X30351256Y6601815D01*
X30351258Y6601816D01*
X30356221Y6603776D01*
X30361525Y6606994D01*
X30548757Y6720610D01*
X30548756Y6720610D01*
X30553317Y6723377D01*
X30585953Y6751697D01*
X30723412Y6870977D01*
X30723414Y6870979D01*
X30727445Y6874477D01*
X30777874Y6935980D01*
X30870240Y7048627D01*
X30870244Y7048633D01*
X30873624Y7052755D01*
X30891552Y7084250D01*
X30942632Y7133555D01*
X31012262Y7147417D01*
X31078333Y7121434D01*
X31105573Y7092284D01*
X31110983Y7084248D01*
X31187441Y6970681D01*
X31191120Y6966824D01*
X31191122Y6966822D01*
X31247030Y6908216D01*
X31346576Y6803865D01*
X31531542Y6666246D01*
X31536293Y6663830D01*
X31536297Y6663828D01*
X31598704Y6632099D01*
X31737051Y6561760D01*
X31742145Y6560178D01*
X31742148Y6560177D01*
X31891419Y6513827D01*
X31957227Y6493393D01*
X31962516Y6492692D01*
X32180489Y6463802D01*
X32180494Y6463802D01*
X32185774Y6463102D01*
X32191103Y6463302D01*
X32191105Y6463302D01*
X32300966Y6467426D01*
X32416158Y6471751D01*
X32421468Y6472865D01*
X32592772Y6508808D01*
X32641791Y6519093D01*
X32646750Y6521051D01*
X32646752Y6521052D01*
X32851256Y6601815D01*
X32851258Y6601816D01*
X32856221Y6603776D01*
X32861525Y6606994D01*
X33048757Y6720610D01*
X33048756Y6720610D01*
X33053317Y6723377D01*
X33085953Y6751697D01*
X33223412Y6870977D01*
X33223414Y6870979D01*
X33227445Y6874477D01*
X33277874Y6935980D01*
X33370240Y7048627D01*
X33370244Y7048633D01*
X33373624Y7052755D01*
X33391552Y7084250D01*
X33442632Y7133555D01*
X33512262Y7147417D01*
X33578333Y7121434D01*
X33605573Y7092284D01*
X33610983Y7084248D01*
X33687441Y6970681D01*
X33691120Y6966824D01*
X33691122Y6966822D01*
X33747030Y6908216D01*
X33846576Y6803865D01*
X34031542Y6666246D01*
X34036293Y6663830D01*
X34036297Y6663828D01*
X34098704Y6632099D01*
X34237051Y6561760D01*
X34242145Y6560178D01*
X34242148Y6560177D01*
X34391419Y6513827D01*
X34457227Y6493393D01*
X34462516Y6492692D01*
X34680489Y6463802D01*
X34680494Y6463802D01*
X34685774Y6463102D01*
X34691103Y6463302D01*
X34691105Y6463302D01*
X34800966Y6467426D01*
X34916158Y6471751D01*
X34921468Y6472865D01*
X35092772Y6508808D01*
X35141791Y6519093D01*
X35146750Y6521051D01*
X35146752Y6521052D01*
X35351256Y6601815D01*
X35351258Y6601816D01*
X35356221Y6603776D01*
X35361525Y6606994D01*
X35548757Y6720610D01*
X35548756Y6720610D01*
X35553317Y6723377D01*
X35585953Y6751697D01*
X35723412Y6870977D01*
X35723414Y6870979D01*
X35727445Y6874477D01*
X35777874Y6935980D01*
X35870240Y7048627D01*
X35870244Y7048633D01*
X35873624Y7052755D01*
X35879115Y7062400D01*
X35944864Y7177905D01*
X39892001Y7177905D01*
X39892338Y7171386D01*
X39902257Y7075794D01*
X39905149Y7062400D01*
X39956588Y6908216D01*
X39962761Y6895038D01*
X40048063Y6757193D01*
X40057099Y6745792D01*
X40171829Y6631261D01*
X40183240Y6622249D01*
X40321243Y6537184D01*
X40334424Y6531037D01*
X40488710Y6479862D01*
X40502086Y6476995D01*
X40596438Y6467328D01*
X40602854Y6467000D01*
X40977885Y6467000D01*
X40993124Y6471475D01*
X40994329Y6472865D01*
X40996000Y6480548D01*
X40996000Y7677885D01*
X40991525Y7693124D01*
X40990135Y7694329D01*
X40982452Y7696000D01*
X39910116Y7696000D01*
X39894877Y7691525D01*
X39893672Y7690135D01*
X39892001Y7682452D01*
X39892001Y7177905D01*
X35944864Y7177905D01*
X35985032Y7248471D01*
X35987675Y7253114D01*
X36066337Y7469825D01*
X36069698Y7488410D01*
X36106623Y7692608D01*
X36106624Y7692615D01*
X36107361Y7696692D01*
X36108500Y7720844D01*
X36108500Y8132890D01*
X36100929Y8222115D01*
X39892000Y8222115D01*
X39896475Y8206876D01*
X39897865Y8205671D01*
X39905548Y8204000D01*
X40977885Y8204000D01*
X40993124Y8208475D01*
X40994329Y8209865D01*
X40996000Y8217548D01*
X40996000Y9414884D01*
X40991525Y9430123D01*
X40990135Y9431328D01*
X40982452Y9432999D01*
X40602905Y9432999D01*
X40596386Y9432662D01*
X40500794Y9422743D01*
X40487400Y9419851D01*
X40333216Y9368412D01*
X40320038Y9362239D01*
X40182193Y9276937D01*
X40170792Y9267901D01*
X40056261Y9153171D01*
X40047249Y9141760D01*
X39962184Y9003757D01*
X39956037Y8990576D01*
X39904862Y8836290D01*
X39901995Y8822914D01*
X39892328Y8728562D01*
X39892000Y8722145D01*
X39892000Y8222115D01*
X36100929Y8222115D01*
X36093920Y8304720D01*
X36092582Y8309875D01*
X36092581Y8309881D01*
X36037343Y8522703D01*
X36037342Y8522707D01*
X36036001Y8527872D01*
X36026876Y8548130D01*
X35943507Y8733202D01*
X35941312Y8738075D01*
X35812559Y8929319D01*
X35795212Y8947504D01*
X35717446Y9029023D01*
X35653424Y9096135D01*
X35468458Y9233754D01*
X35463707Y9236170D01*
X35463703Y9236172D01*
X35345588Y9296224D01*
X35262949Y9338240D01*
X35257855Y9339822D01*
X35257852Y9339823D01*
X35047871Y9405024D01*
X35042773Y9406607D01*
X35037484Y9407308D01*
X34819511Y9436198D01*
X34819506Y9436198D01*
X34814226Y9436898D01*
X34808897Y9436698D01*
X34808895Y9436698D01*
X34710368Y9432999D01*
X34583842Y9428249D01*
X34578623Y9427154D01*
X34557600Y9422743D01*
X34358209Y9380907D01*
X34353250Y9378949D01*
X34353248Y9378948D01*
X34148744Y9298185D01*
X34148742Y9298184D01*
X34143779Y9296224D01*
X34139220Y9293457D01*
X34139217Y9293456D01*
X34044113Y9235745D01*
X33946683Y9176623D01*
X33942653Y9173126D01*
X33784515Y9035901D01*
X33772555Y9025523D01*
X33761405Y9011925D01*
X33629760Y8851373D01*
X33629756Y8851367D01*
X33626376Y8847245D01*
X33608448Y8815750D01*
X33557368Y8766445D01*
X33487738Y8752583D01*
X33421667Y8778566D01*
X33394427Y8807716D01*
X33318000Y8921237D01*
X33312559Y8929319D01*
X33295212Y8947504D01*
X33217446Y9029023D01*
X33153424Y9096135D01*
X32968458Y9233754D01*
X32963707Y9236170D01*
X32963703Y9236172D01*
X32845588Y9296224D01*
X32762949Y9338240D01*
X32757855Y9339822D01*
X32757852Y9339823D01*
X32547871Y9405024D01*
X32542773Y9406607D01*
X32537484Y9407308D01*
X32319511Y9436198D01*
X32319506Y9436198D01*
X32314226Y9436898D01*
X32308897Y9436698D01*
X32308895Y9436698D01*
X32210368Y9432999D01*
X32083842Y9428249D01*
X32078623Y9427154D01*
X32057600Y9422743D01*
X31858209Y9380907D01*
X31853250Y9378949D01*
X31853248Y9378948D01*
X31648744Y9298185D01*
X31648742Y9298184D01*
X31643779Y9296224D01*
X31639220Y9293457D01*
X31639217Y9293456D01*
X31544113Y9235745D01*
X31446683Y9176623D01*
X31442653Y9173126D01*
X31284515Y9035901D01*
X31272555Y9025523D01*
X31261405Y9011925D01*
X31129760Y8851373D01*
X31129756Y8851367D01*
X31126376Y8847245D01*
X31108448Y8815750D01*
X31057368Y8766445D01*
X30987738Y8752583D01*
X30921667Y8778566D01*
X30894427Y8807716D01*
X30818000Y8921237D01*
X30812559Y8929319D01*
X30795212Y8947504D01*
X30717446Y9029023D01*
X30653424Y9096135D01*
X30468458Y9233754D01*
X30463707Y9236170D01*
X30463703Y9236172D01*
X30345588Y9296224D01*
X30262949Y9338240D01*
X30257855Y9339822D01*
X30257852Y9339823D01*
X30047871Y9405024D01*
X30042773Y9406607D01*
X30037484Y9407308D01*
X29819511Y9436198D01*
X29819506Y9436198D01*
X29814226Y9436898D01*
X29808897Y9436698D01*
X29808895Y9436698D01*
X29710368Y9432999D01*
X29583842Y9428249D01*
X29578623Y9427154D01*
X29557600Y9422743D01*
X29358209Y9380907D01*
X29353250Y9378949D01*
X29353248Y9378948D01*
X29148744Y9298185D01*
X29148742Y9298184D01*
X29143779Y9296224D01*
X29139220Y9293457D01*
X29139217Y9293456D01*
X29044113Y9235745D01*
X28946683Y9176623D01*
X28942653Y9173126D01*
X28784515Y9035901D01*
X28772555Y9025523D01*
X28761405Y9011925D01*
X28629760Y8851373D01*
X28629756Y8851367D01*
X28626376Y8847245D01*
X28608448Y8815750D01*
X28557368Y8766445D01*
X28487738Y8752583D01*
X28421667Y8778566D01*
X28394427Y8807716D01*
X28318000Y8921237D01*
X28312559Y8929319D01*
X28295212Y8947504D01*
X28217446Y9029023D01*
X28153424Y9096135D01*
X27968458Y9233754D01*
X27963707Y9236170D01*
X27963703Y9236172D01*
X27845588Y9296224D01*
X27762949Y9338240D01*
X27757855Y9339822D01*
X27757852Y9339823D01*
X27547871Y9405024D01*
X27542773Y9406607D01*
X27537484Y9407308D01*
X27319511Y9436198D01*
X27319506Y9436198D01*
X27314226Y9436898D01*
X27308897Y9436698D01*
X27308895Y9436698D01*
X27210368Y9432999D01*
X27083842Y9428249D01*
X27078623Y9427154D01*
X27057600Y9422743D01*
X26858209Y9380907D01*
X26853250Y9378949D01*
X26853248Y9378948D01*
X26648744Y9298185D01*
X26648742Y9298184D01*
X26643779Y9296224D01*
X26639220Y9293457D01*
X26639217Y9293456D01*
X26544113Y9235745D01*
X26446683Y9176623D01*
X26442653Y9173126D01*
X26284515Y9035901D01*
X26272555Y9025523D01*
X26261405Y9011925D01*
X26129760Y8851373D01*
X26129756Y8851367D01*
X26126376Y8847245D01*
X26123738Y8842610D01*
X26123733Y8842602D01*
X26108171Y8815265D01*
X26057088Y8765959D01*
X25987458Y8752098D01*
X25921387Y8778082D01*
X25894149Y8807232D01*
X25815148Y8924578D01*
X25808481Y8932870D01*
X25656772Y9091900D01*
X25648814Y9098941D01*
X25472475Y9230141D01*
X25463438Y9235745D01*
X25267516Y9335357D01*
X25257665Y9339357D01*
X25047760Y9404534D01*
X25037376Y9406817D01*
X25021957Y9408861D01*
X25007793Y9406665D01*
X25004000Y9393478D01*
X25004000Y6508808D01*
X24496000Y6508808D01*
X24496000Y9391192D01*
X24492027Y9404723D01*
X24481420Y9406248D01*
X24363579Y9381523D01*
X24353383Y9378463D01*
X24148971Y9297737D01*
X24139439Y9293006D01*
X23951538Y9178984D01*
X23942948Y9172720D01*
X23776948Y9028673D01*
X23769530Y9021044D01*
X23743609Y8989431D01*
X23684949Y8949436D01*
X23613979Y8947504D01*
X23553230Y8984248D01*
X23539030Y9003018D01*
X23535968Y9007967D01*
X23448478Y9149348D01*
X23323303Y9274305D01*
X23310049Y9282475D01*
X23178968Y9363275D01*
X23178966Y9363276D01*
X23172738Y9367115D01*
X23082869Y9396923D01*
X23011389Y9420632D01*
X23011387Y9420632D01*
X23004861Y9422797D01*
X22998025Y9423497D01*
X22998022Y9423498D01*
X22954969Y9427909D01*
X22900400Y9433500D01*
X21599600Y9433500D01*
X21596354Y9433163D01*
X21596350Y9433163D01*
X21500692Y9423238D01*
X21500688Y9423237D01*
X21493834Y9422526D01*
X21487298Y9420345D01*
X21487296Y9420345D01*
X21355194Y9376272D01*
X21326054Y9366550D01*
X21175652Y9273478D01*
X21050695Y9148303D01*
X21046855Y9142073D01*
X21046854Y9142072D01*
X20972466Y9021392D01*
X20957885Y8997738D01*
X20955143Y8989471D01*
X20906432Y8842610D01*
X20902203Y8829861D01*
X20901503Y8823025D01*
X20901502Y8823022D01*
X20899934Y8807716D01*
X20891500Y8725400D01*
X20891500Y7174600D01*
X18304318Y7174600D01*
X18305322Y7177905D01*
X18330865Y7261977D01*
X18330865Y7261979D01*
X18332370Y7266931D01*
X18361529Y7488410D01*
X18363156Y7555000D01*
X18344852Y7777639D01*
X18290431Y7994298D01*
X18201354Y8199160D01*
X18080014Y8386723D01*
X17929670Y8551949D01*
X17925619Y8555148D01*
X17925615Y8555152D01*
X17758414Y8687200D01*
X17758410Y8687202D01*
X17754359Y8690402D01*
X17749835Y8692899D01*
X17749831Y8692902D01*
X17698608Y8721178D01*
X17648636Y8771610D01*
X17633500Y8831487D01*
X17633500Y11021233D01*
X17634027Y11032416D01*
X17635702Y11039909D01*
X17633562Y11107986D01*
X17633500Y11111945D01*
X17633500Y11139856D01*
X17632995Y11143856D01*
X17632062Y11155699D01*
X17630922Y11191970D01*
X17630673Y11199889D01*
X17625021Y11219343D01*
X17621013Y11238700D01*
X17619468Y11250930D01*
X17619468Y11250931D01*
X17618474Y11258797D01*
X17615555Y11266170D01*
X17602196Y11299912D01*
X17598351Y11311142D01*
X17588229Y11345983D01*
X17588229Y11345984D01*
X17586018Y11353593D01*
X17581985Y11360412D01*
X17581983Y11360417D01*
X17575707Y11371028D01*
X17567012Y11388776D01*
X17559552Y11407617D01*
X17533564Y11443387D01*
X17527048Y11453307D01*
X17508580Y11484535D01*
X17508578Y11484538D01*
X17504542Y11491362D01*
X17490221Y11505683D01*
X17477380Y11520717D01*
X17470131Y11530694D01*
X17465472Y11537107D01*
X17431395Y11565298D01*
X17422616Y11573288D01*
X16870691Y12125213D01*
X16836665Y12187525D01*
X16841730Y12258340D01*
X16884277Y12315176D01*
X16950797Y12339987D01*
X16970767Y12339829D01*
X17024525Y12335126D01*
X17030000Y12334647D01*
X17251463Y12354022D01*
X17439822Y12404493D01*
X17460886Y12410137D01*
X17460888Y12410138D01*
X17466196Y12411560D01*
X17472190Y12414355D01*
X17662690Y12503186D01*
X17662695Y12503189D01*
X17667677Y12505512D01*
X17776500Y12581711D01*
X17845270Y12629864D01*
X17845273Y12629866D01*
X17849781Y12633023D01*
X18006977Y12790219D01*
X18094894Y12915777D01*
X18131331Y12967815D01*
X18131332Y12967817D01*
X18134488Y12972324D01*
X18136811Y12977306D01*
X18136814Y12977311D01*
X18185805Y13082373D01*
X18232723Y13135658D01*
X18301000Y13155119D01*
X18368960Y13134577D01*
X18414195Y13082373D01*
X18463186Y12977311D01*
X18463189Y12977306D01*
X18465512Y12972324D01*
X18468668Y12967817D01*
X18468669Y12967815D01*
X18505107Y12915777D01*
X18593023Y12790219D01*
X18750219Y12633023D01*
X18754727Y12629866D01*
X18754730Y12629864D01*
X18823500Y12581711D01*
X18932323Y12505512D01*
X18937305Y12503189D01*
X18937310Y12503186D01*
X19127810Y12414355D01*
X19133804Y12411560D01*
X19139112Y12410138D01*
X19139114Y12410137D01*
X19160178Y12404493D01*
X19348537Y12354022D01*
X19570000Y12334647D01*
X19791463Y12354022D01*
X19979822Y12404493D01*
X20000886Y12410137D01*
X20000888Y12410138D01*
X20006196Y12411560D01*
X20012190Y12414355D01*
X20202690Y12503186D01*
X20202695Y12503189D01*
X20207677Y12505512D01*
X20316500Y12581711D01*
X20385270Y12629864D01*
X20385273Y12629866D01*
X20389781Y12633023D01*
X20546977Y12790219D01*
X20634894Y12915777D01*
X20671331Y12967815D01*
X20671332Y12967817D01*
X20674488Y12972324D01*
X20676811Y12977306D01*
X20676814Y12977311D01*
X20725805Y13082373D01*
X20772723Y13135658D01*
X20841000Y13155119D01*
X20908960Y13134577D01*
X20954195Y13082373D01*
X21003186Y12977311D01*
X21003189Y12977306D01*
X21005512Y12972324D01*
X21008668Y12967817D01*
X21008669Y12967815D01*
X21045107Y12915777D01*
X21133023Y12790219D01*
X21290219Y12633023D01*
X21294727Y12629866D01*
X21294730Y12629864D01*
X21363500Y12581711D01*
X21472323Y12505512D01*
X21477305Y12503189D01*
X21477310Y12503186D01*
X21667810Y12414355D01*
X21673804Y12411560D01*
X21679112Y12410138D01*
X21679114Y12410137D01*
X21700178Y12404493D01*
X21888537Y12354022D01*
X22110000Y12334647D01*
X22331463Y12354022D01*
X22519822Y12404493D01*
X22540886Y12410137D01*
X22540888Y12410138D01*
X22546196Y12411560D01*
X22552190Y12414355D01*
X22742690Y12503186D01*
X22742695Y12503189D01*
X22747677Y12505512D01*
X22812959Y12551223D01*
X23955777Y12551223D01*
X23965074Y12539207D01*
X24008069Y12509102D01*
X24017555Y12503624D01*
X24208993Y12414355D01*
X24219285Y12410609D01*
X24423309Y12355941D01*
X24434104Y12354038D01*
X24644525Y12335628D01*
X24655475Y12335628D01*
X24865896Y12354038D01*
X24876691Y12355941D01*
X25080715Y12410609D01*
X25091007Y12414355D01*
X25282445Y12503624D01*
X25291931Y12509102D01*
X25335764Y12539793D01*
X25344139Y12550271D01*
X25337071Y12563719D01*
X24662812Y13237978D01*
X24648868Y13245592D01*
X24647035Y13245461D01*
X24640420Y13241210D01*
X23962207Y12562997D01*
X23955777Y12551223D01*
X22812959Y12551223D01*
X22856500Y12581711D01*
X22925270Y12629864D01*
X22925273Y12629866D01*
X22929781Y12633023D01*
X23086977Y12790219D01*
X23174894Y12915777D01*
X23211331Y12967815D01*
X23211332Y12967817D01*
X23214488Y12972324D01*
X23216811Y12977306D01*
X23216814Y12977311D01*
X23266081Y13082965D01*
X23312999Y13136250D01*
X23381276Y13155711D01*
X23449236Y13135169D01*
X23494471Y13082965D01*
X23543623Y12977559D01*
X23549103Y12968068D01*
X23579794Y12924235D01*
X23590271Y12915860D01*
X23603718Y12922928D01*
X24277978Y13597188D01*
X24284356Y13608868D01*
X25014408Y13608868D01*
X25014539Y13607035D01*
X25018790Y13600420D01*
X25697003Y12922207D01*
X25708777Y12915777D01*
X25720793Y12925074D01*
X25750897Y12968068D01*
X25756377Y12977559D01*
X25805529Y13082965D01*
X25852447Y13136250D01*
X25920724Y13155711D01*
X25988684Y13135169D01*
X26033919Y13082965D01*
X26083186Y12977311D01*
X26083189Y12977306D01*
X26085512Y12972324D01*
X26088668Y12967817D01*
X26088669Y12967815D01*
X26125107Y12915777D01*
X26213023Y12790219D01*
X26370219Y12633023D01*
X26374727Y12629866D01*
X26374730Y12629864D01*
X26443500Y12581711D01*
X26552323Y12505512D01*
X26557305Y12503189D01*
X26557310Y12503186D01*
X26747810Y12414355D01*
X26753804Y12411560D01*
X26759112Y12410138D01*
X26759114Y12410137D01*
X26780178Y12404493D01*
X26968537Y12354022D01*
X27190000Y12334647D01*
X27411463Y12354022D01*
X27599822Y12404493D01*
X27620886Y12410137D01*
X27620888Y12410138D01*
X27626196Y12411560D01*
X27632190Y12414355D01*
X27822690Y12503186D01*
X27822695Y12503189D01*
X27827677Y12505512D01*
X27936500Y12581711D01*
X28005270Y12629864D01*
X28005273Y12629866D01*
X28009781Y12633023D01*
X28166977Y12790219D01*
X28254894Y12915777D01*
X28291331Y12967815D01*
X28291332Y12967817D01*
X28294488Y12972324D01*
X28296811Y12977306D01*
X28296814Y12977311D01*
X28345805Y13082373D01*
X28392723Y13135658D01*
X28461000Y13155119D01*
X28528960Y13134577D01*
X28574195Y13082373D01*
X28623186Y12977311D01*
X28623189Y12977306D01*
X28625512Y12972324D01*
X28628668Y12967817D01*
X28628669Y12967815D01*
X28665107Y12915777D01*
X28753023Y12790219D01*
X28910219Y12633023D01*
X28914727Y12629866D01*
X28914730Y12629864D01*
X28983500Y12581711D01*
X29092323Y12505512D01*
X29097305Y12503189D01*
X29097310Y12503186D01*
X29287810Y12414355D01*
X29293804Y12411560D01*
X29299112Y12410138D01*
X29299114Y12410137D01*
X29320178Y12404493D01*
X29508537Y12354022D01*
X29730000Y12334647D01*
X29951463Y12354022D01*
X30139822Y12404493D01*
X30160886Y12410137D01*
X30160888Y12410138D01*
X30166196Y12411560D01*
X30172190Y12414355D01*
X30362690Y12503186D01*
X30362695Y12503189D01*
X30367677Y12505512D01*
X30476500Y12581711D01*
X30545270Y12629864D01*
X30545273Y12629866D01*
X30549781Y12633023D01*
X30706977Y12790219D01*
X30794894Y12915777D01*
X30831331Y12967815D01*
X30831332Y12967817D01*
X30834488Y12972324D01*
X30836811Y12977306D01*
X30836814Y12977311D01*
X30885805Y13082373D01*
X30932723Y13135658D01*
X31001000Y13155119D01*
X31068960Y13134577D01*
X31114195Y13082373D01*
X31163186Y12977311D01*
X31163189Y12977306D01*
X31165512Y12972324D01*
X31168668Y12967817D01*
X31168669Y12967815D01*
X31205107Y12915777D01*
X31293023Y12790219D01*
X31450219Y12633023D01*
X31454727Y12629866D01*
X31454730Y12629864D01*
X31523500Y12581711D01*
X31632323Y12505512D01*
X31637305Y12503189D01*
X31637310Y12503186D01*
X31827810Y12414355D01*
X31833804Y12411560D01*
X31839112Y12410138D01*
X31839114Y12410137D01*
X31860178Y12404493D01*
X32048537Y12354022D01*
X32270000Y12334647D01*
X32491463Y12354022D01*
X32679822Y12404493D01*
X32700886Y12410137D01*
X32700888Y12410138D01*
X32706196Y12411560D01*
X32712190Y12414355D01*
X32902690Y12503186D01*
X32902695Y12503189D01*
X32907677Y12505512D01*
X33016500Y12581711D01*
X33085270Y12629864D01*
X33085273Y12629866D01*
X33089781Y12633023D01*
X33246977Y12790219D01*
X33334894Y12915777D01*
X33371331Y12967815D01*
X33371332Y12967817D01*
X33374488Y12972324D01*
X33376811Y12977306D01*
X33376814Y12977311D01*
X33425805Y13082373D01*
X33472723Y13135658D01*
X33541000Y13155119D01*
X33608960Y13134577D01*
X33654195Y13082373D01*
X33703186Y12977311D01*
X33703189Y12977306D01*
X33705512Y12972324D01*
X33708668Y12967817D01*
X33708669Y12967815D01*
X33745107Y12915777D01*
X33833023Y12790219D01*
X33990219Y12633023D01*
X33994727Y12629866D01*
X33994730Y12629864D01*
X34063500Y12581711D01*
X34172323Y12505512D01*
X34177305Y12503189D01*
X34177310Y12503186D01*
X34367810Y12414355D01*
X34373804Y12411560D01*
X34379112Y12410138D01*
X34379114Y12410137D01*
X34400178Y12404493D01*
X34588537Y12354022D01*
X34810000Y12334647D01*
X35031463Y12354022D01*
X35219822Y12404493D01*
X35240886Y12410137D01*
X35240888Y12410138D01*
X35246196Y12411560D01*
X35252190Y12414355D01*
X35442690Y12503186D01*
X35442695Y12503189D01*
X35447677Y12505512D01*
X35512959Y12551223D01*
X36655777Y12551223D01*
X36665074Y12539207D01*
X36708069Y12509102D01*
X36717555Y12503624D01*
X36908993Y12414355D01*
X36919285Y12410609D01*
X37123309Y12355941D01*
X37134104Y12354038D01*
X37344525Y12335628D01*
X37355475Y12335628D01*
X37565896Y12354038D01*
X37576691Y12355941D01*
X37780715Y12410609D01*
X37791007Y12414355D01*
X37982445Y12503624D01*
X37991931Y12509102D01*
X38035764Y12539793D01*
X38044139Y12550271D01*
X38037071Y12563719D01*
X37362812Y13237978D01*
X37348868Y13245592D01*
X37347035Y13245461D01*
X37340420Y13241210D01*
X36662207Y12562997D01*
X36655777Y12551223D01*
X35512959Y12551223D01*
X35556500Y12581711D01*
X35625270Y12629864D01*
X35625273Y12629866D01*
X35629781Y12633023D01*
X35786977Y12790219D01*
X35874894Y12915777D01*
X35911331Y12967815D01*
X35911332Y12967817D01*
X35914488Y12972324D01*
X35916811Y12977306D01*
X35916814Y12977311D01*
X35966081Y13082965D01*
X36012999Y13136250D01*
X36081276Y13155711D01*
X36149236Y13135169D01*
X36194471Y13082965D01*
X36243623Y12977559D01*
X36249103Y12968068D01*
X36279794Y12924235D01*
X36290271Y12915860D01*
X36303718Y12922928D01*
X36977978Y13597188D01*
X36984356Y13608868D01*
X37714408Y13608868D01*
X37714539Y13607035D01*
X37718790Y13600420D01*
X38397003Y12922207D01*
X38408777Y12915777D01*
X38420793Y12925074D01*
X38450897Y12968068D01*
X38456377Y12977559D01*
X38505529Y13082965D01*
X38552447Y13136250D01*
X38620724Y13155711D01*
X38688684Y13135169D01*
X38733919Y13082965D01*
X38783186Y12977311D01*
X38783189Y12977306D01*
X38785512Y12972324D01*
X38788668Y12967817D01*
X38788669Y12967815D01*
X38825107Y12915777D01*
X38913023Y12790219D01*
X39070219Y12633023D01*
X39074727Y12629866D01*
X39074730Y12629864D01*
X39143500Y12581711D01*
X39252323Y12505512D01*
X39257305Y12503189D01*
X39257310Y12503186D01*
X39447810Y12414355D01*
X39453804Y12411560D01*
X39459112Y12410138D01*
X39459114Y12410137D01*
X39480178Y12404493D01*
X39668537Y12354022D01*
X39890000Y12334647D01*
X40111463Y12354022D01*
X40299822Y12404493D01*
X40320886Y12410137D01*
X40320888Y12410138D01*
X40326196Y12411560D01*
X40332190Y12414355D01*
X40522690Y12503186D01*
X40522695Y12503189D01*
X40527677Y12505512D01*
X40636500Y12581711D01*
X40705270Y12629864D01*
X40705273Y12629866D01*
X40709781Y12633023D01*
X40866977Y12790219D01*
X40954894Y12915777D01*
X40991331Y12967815D01*
X40991332Y12967817D01*
X40994488Y12972324D01*
X40996811Y12977306D01*
X40996814Y12977311D01*
X41045805Y13082373D01*
X41092723Y13135658D01*
X41161000Y13155119D01*
X41228960Y13134577D01*
X41274195Y13082373D01*
X41323186Y12977311D01*
X41323189Y12977306D01*
X41325512Y12972324D01*
X41328668Y12967817D01*
X41328669Y12967815D01*
X41365107Y12915777D01*
X41453023Y12790219D01*
X41610219Y12633023D01*
X41614727Y12629866D01*
X41614730Y12629864D01*
X41683500Y12581711D01*
X41792323Y12505512D01*
X41797305Y12503189D01*
X41797310Y12503186D01*
X41987810Y12414355D01*
X41993804Y12411560D01*
X41999112Y12410138D01*
X41999114Y12410137D01*
X42020178Y12404493D01*
X42208537Y12354022D01*
X42430000Y12334647D01*
X42651463Y12354022D01*
X42839822Y12404493D01*
X42860886Y12410137D01*
X42860888Y12410138D01*
X42866196Y12411560D01*
X42872190Y12414355D01*
X43062690Y12503186D01*
X43062695Y12503189D01*
X43067677Y12505512D01*
X43176500Y12581711D01*
X43245270Y12629864D01*
X43245273Y12629866D01*
X43249781Y12633023D01*
X43406977Y12790219D01*
X43494894Y12915777D01*
X43531331Y12967815D01*
X43531332Y12967817D01*
X43534488Y12972324D01*
X43536811Y12977306D01*
X43536814Y12977311D01*
X43585805Y13082373D01*
X43632723Y13135658D01*
X43701000Y13155119D01*
X43768960Y13134577D01*
X43814195Y13082373D01*
X43863186Y12977311D01*
X43863189Y12977306D01*
X43865512Y12972324D01*
X43868668Y12967817D01*
X43868669Y12967815D01*
X43905107Y12915777D01*
X43993023Y12790219D01*
X44150219Y12633023D01*
X44154727Y12629866D01*
X44154730Y12629864D01*
X44223500Y12581711D01*
X44332323Y12505512D01*
X44337305Y12503189D01*
X44337310Y12503186D01*
X44527810Y12414355D01*
X44533804Y12411560D01*
X44539112Y12410138D01*
X44539114Y12410137D01*
X44560178Y12404493D01*
X44748537Y12354022D01*
X44970000Y12334647D01*
X45191463Y12354022D01*
X45379822Y12404493D01*
X45400886Y12410137D01*
X45400888Y12410138D01*
X45406196Y12411560D01*
X45411178Y12413883D01*
X45411183Y12413885D01*
X45437249Y12426040D01*
X45507441Y12436702D01*
X45572254Y12407723D01*
X45611110Y12348303D01*
X45616500Y12311846D01*
X45616500Y9350596D01*
X45596498Y9282475D01*
X45555867Y9242878D01*
X45446683Y9176623D01*
X45442653Y9173126D01*
X45284515Y9035901D01*
X45272555Y9025523D01*
X45261405Y9011925D01*
X45129760Y8851373D01*
X45129756Y8851367D01*
X45126376Y8847245D01*
X45108448Y8815750D01*
X45057368Y8766445D01*
X44987738Y8752583D01*
X44921667Y8778566D01*
X44894427Y8807716D01*
X44818000Y8921237D01*
X44812559Y8929319D01*
X44795212Y8947504D01*
X44717446Y9029023D01*
X44653424Y9096135D01*
X44468458Y9233754D01*
X44463707Y9236170D01*
X44463703Y9236172D01*
X44345588Y9296224D01*
X44262949Y9338240D01*
X44257855Y9339822D01*
X44257852Y9339823D01*
X44047871Y9405024D01*
X44042773Y9406607D01*
X44037484Y9407308D01*
X43819511Y9436198D01*
X43819506Y9436198D01*
X43814226Y9436898D01*
X43808897Y9436698D01*
X43808895Y9436698D01*
X43710368Y9432999D01*
X43583842Y9428249D01*
X43578623Y9427154D01*
X43557600Y9422743D01*
X43358209Y9380907D01*
X43353250Y9378949D01*
X43353248Y9378948D01*
X43148744Y9298185D01*
X43148742Y9298184D01*
X43143779Y9296224D01*
X43139220Y9293457D01*
X43139217Y9293456D01*
X43044113Y9235745D01*
X42946683Y9176623D01*
X42942653Y9173126D01*
X42784515Y9035901D01*
X42772555Y9025523D01*
X42761405Y9011925D01*
X42742994Y8989471D01*
X42684334Y8949476D01*
X42613364Y8947545D01*
X42552616Y8984290D01*
X42538416Y9003059D01*
X42451937Y9142807D01*
X42442901Y9154208D01*
X42328171Y9268739D01*
X42316760Y9277751D01*
X42178757Y9362816D01*
X42165576Y9368963D01*
X42011290Y9420138D01*
X41997914Y9423005D01*
X41903562Y9432672D01*
X41897145Y9433000D01*
X41522115Y9433000D01*
X41506876Y9428525D01*
X41505671Y9427135D01*
X41504000Y9419452D01*
X41504000Y6485116D01*
X41508475Y6469877D01*
X41509865Y6468672D01*
X41517548Y6467001D01*
X41897095Y6467001D01*
X41903614Y6467338D01*
X41999206Y6477257D01*
X42012600Y6480149D01*
X42166784Y6531588D01*
X42179962Y6537761D01*
X42317807Y6623063D01*
X42329208Y6632099D01*
X42443739Y6746829D01*
X42452753Y6758243D01*
X42538723Y6897713D01*
X42591495Y6945207D01*
X42661566Y6956631D01*
X42726690Y6928357D01*
X42737149Y6918574D01*
X42846576Y6803865D01*
X43031542Y6666246D01*
X43036293Y6663830D01*
X43036297Y6663828D01*
X43098704Y6632099D01*
X43237051Y6561760D01*
X43242145Y6560178D01*
X43242148Y6560177D01*
X43391419Y6513827D01*
X43457227Y6493393D01*
X43462516Y6492692D01*
X43680489Y6463802D01*
X43680494Y6463802D01*
X43685774Y6463102D01*
X43691103Y6463302D01*
X43691105Y6463302D01*
X43800966Y6467426D01*
X43916158Y6471751D01*
X43921468Y6472865D01*
X44092772Y6508808D01*
X44141791Y6519093D01*
X44146750Y6521051D01*
X44146752Y6521052D01*
X44351256Y6601815D01*
X44351258Y6601816D01*
X44356221Y6603776D01*
X44361525Y6606994D01*
X44548757Y6720610D01*
X44548756Y6720610D01*
X44553317Y6723377D01*
X44585953Y6751697D01*
X44723412Y6870977D01*
X44723414Y6870979D01*
X44727445Y6874477D01*
X44777874Y6935980D01*
X44870240Y7048627D01*
X44870244Y7048633D01*
X44873624Y7052755D01*
X44891552Y7084250D01*
X44942632Y7133555D01*
X45012262Y7147417D01*
X45078333Y7121434D01*
X45105573Y7092284D01*
X45110983Y7084248D01*
X45187441Y6970681D01*
X45191120Y6966824D01*
X45191122Y6966822D01*
X45247030Y6908216D01*
X45346576Y6803865D01*
X45531542Y6666246D01*
X45536293Y6663830D01*
X45536297Y6663828D01*
X45598704Y6632099D01*
X45737051Y6561760D01*
X45742145Y6560178D01*
X45742148Y6560177D01*
X45891419Y6513827D01*
X45957227Y6493393D01*
X45962516Y6492692D01*
X46180489Y6463802D01*
X46180494Y6463802D01*
X46185774Y6463102D01*
X46191103Y6463302D01*
X46191105Y6463302D01*
X46300966Y6467426D01*
X46416158Y6471751D01*
X46421468Y6472865D01*
X46592772Y6508808D01*
X46641791Y6519093D01*
X46646750Y6521051D01*
X46646752Y6521052D01*
X46851256Y6601815D01*
X46851258Y6601816D01*
X46856221Y6603776D01*
X46861525Y6606994D01*
X47048757Y6720610D01*
X47048756Y6720610D01*
X47053317Y6723377D01*
X47085953Y6751697D01*
X47223412Y6870977D01*
X47223414Y6870979D01*
X47227445Y6874477D01*
X47277874Y6935980D01*
X47370240Y7048627D01*
X47370244Y7048633D01*
X47373624Y7052755D01*
X47391552Y7084250D01*
X47442632Y7133555D01*
X47512262Y7147417D01*
X47578333Y7121434D01*
X47605573Y7092284D01*
X47610983Y7084248D01*
X47687441Y6970681D01*
X47691120Y6966824D01*
X47691122Y6966822D01*
X47747030Y6908216D01*
X47846576Y6803865D01*
X48031542Y6666246D01*
X48036293Y6663830D01*
X48036297Y6663828D01*
X48098704Y6632099D01*
X48237051Y6561760D01*
X48242145Y6560178D01*
X48242148Y6560177D01*
X48391419Y6513827D01*
X48457227Y6493393D01*
X48462516Y6492692D01*
X48680489Y6463802D01*
X48680494Y6463802D01*
X48685774Y6463102D01*
X48691103Y6463302D01*
X48691105Y6463302D01*
X48800966Y6467426D01*
X48916158Y6471751D01*
X48921468Y6472865D01*
X49092772Y6508808D01*
X49141791Y6519093D01*
X49146750Y6521051D01*
X49146752Y6521052D01*
X49351256Y6601815D01*
X49351258Y6601816D01*
X49356221Y6603776D01*
X49361525Y6606994D01*
X49548757Y6720610D01*
X49548756Y6720610D01*
X49553317Y6723377D01*
X49585953Y6751697D01*
X49723412Y6870977D01*
X49723414Y6870979D01*
X49727445Y6874477D01*
X49777874Y6935980D01*
X49870240Y7048627D01*
X49870244Y7048633D01*
X49873624Y7052755D01*
X49891552Y7084250D01*
X49942632Y7133555D01*
X50012262Y7147417D01*
X50078333Y7121434D01*
X50105573Y7092284D01*
X50110983Y7084248D01*
X50187441Y6970681D01*
X50191120Y6966824D01*
X50191122Y6966822D01*
X50247030Y6908216D01*
X50346576Y6803865D01*
X50531542Y6666246D01*
X50536293Y6663830D01*
X50536297Y6663828D01*
X50598704Y6632099D01*
X50737051Y6561760D01*
X50742145Y6560178D01*
X50742148Y6560177D01*
X50891419Y6513827D01*
X50957227Y6493393D01*
X50962516Y6492692D01*
X51180489Y6463802D01*
X51180494Y6463802D01*
X51185774Y6463102D01*
X51191103Y6463302D01*
X51191105Y6463302D01*
X51300966Y6467426D01*
X51416158Y6471751D01*
X51421468Y6472865D01*
X51592772Y6508808D01*
X51641791Y6519093D01*
X51646750Y6521051D01*
X51646752Y6521052D01*
X51851256Y6601815D01*
X51851258Y6601816D01*
X51856221Y6603776D01*
X51861525Y6606994D01*
X52048757Y6720610D01*
X52048756Y6720610D01*
X52053317Y6723377D01*
X52085953Y6751697D01*
X52223412Y6870977D01*
X52223414Y6870979D01*
X52227445Y6874477D01*
X52277874Y6935980D01*
X52370240Y7048627D01*
X52370244Y7048633D01*
X52373624Y7052755D01*
X52391552Y7084250D01*
X52442632Y7133555D01*
X52512262Y7147417D01*
X52578333Y7121434D01*
X52605573Y7092284D01*
X52610983Y7084248D01*
X52687441Y6970681D01*
X52691120Y6966824D01*
X52691122Y6966822D01*
X52747030Y6908216D01*
X52846576Y6803865D01*
X53031542Y6666246D01*
X53036293Y6663830D01*
X53036297Y6663828D01*
X53098704Y6632099D01*
X53237051Y6561760D01*
X53242145Y6560178D01*
X53242148Y6560177D01*
X53391419Y6513827D01*
X53457227Y6493393D01*
X53462516Y6492692D01*
X53680489Y6463802D01*
X53680494Y6463802D01*
X53685774Y6463102D01*
X53691103Y6463302D01*
X53691105Y6463302D01*
X53800966Y6467426D01*
X53916158Y6471751D01*
X53921468Y6472865D01*
X54092772Y6508808D01*
X54141791Y6519093D01*
X54146750Y6521051D01*
X54146752Y6521052D01*
X54351256Y6601815D01*
X54351258Y6601816D01*
X54356221Y6603776D01*
X54361525Y6606994D01*
X54548757Y6720610D01*
X54548756Y6720610D01*
X54553317Y6723377D01*
X54585953Y6751697D01*
X54723412Y6870977D01*
X54723414Y6870979D01*
X54727445Y6874477D01*
X54777874Y6935980D01*
X54870240Y7048627D01*
X54870244Y7048633D01*
X54873624Y7052755D01*
X54891552Y7084250D01*
X54942632Y7133555D01*
X55012262Y7147417D01*
X55078333Y7121434D01*
X55105573Y7092284D01*
X55110983Y7084248D01*
X55187441Y6970681D01*
X55191120Y6966824D01*
X55191122Y6966822D01*
X55247030Y6908216D01*
X55346576Y6803865D01*
X55531542Y6666246D01*
X55536293Y6663830D01*
X55536297Y6663828D01*
X55598704Y6632099D01*
X55737051Y6561760D01*
X55742145Y6560178D01*
X55742148Y6560177D01*
X55891419Y6513827D01*
X55957227Y6493393D01*
X55962516Y6492692D01*
X56180489Y6463802D01*
X56180494Y6463802D01*
X56185774Y6463102D01*
X56191103Y6463302D01*
X56191105Y6463302D01*
X56300966Y6467426D01*
X56416158Y6471751D01*
X56421468Y6472865D01*
X56592772Y6508808D01*
X56641791Y6519093D01*
X56646750Y6521051D01*
X56646752Y6521052D01*
X56851256Y6601815D01*
X56851258Y6601816D01*
X56856221Y6603776D01*
X56861525Y6606994D01*
X57048757Y6720610D01*
X57048756Y6720610D01*
X57053317Y6723377D01*
X57085953Y6751697D01*
X57223412Y6870977D01*
X57223414Y6870979D01*
X57227445Y6874477D01*
X57277874Y6935980D01*
X57370240Y7048627D01*
X57370244Y7048633D01*
X57373624Y7052755D01*
X57391552Y7084250D01*
X57442632Y7133555D01*
X57512262Y7147417D01*
X57578333Y7121434D01*
X57605573Y7092284D01*
X57610983Y7084248D01*
X57687441Y6970681D01*
X57691120Y6966824D01*
X57691122Y6966822D01*
X57747030Y6908216D01*
X57846576Y6803865D01*
X58031542Y6666246D01*
X58036293Y6663830D01*
X58036297Y6663828D01*
X58098704Y6632099D01*
X58237051Y6561760D01*
X58242145Y6560178D01*
X58242148Y6560177D01*
X58391419Y6513827D01*
X58457227Y6493393D01*
X58462516Y6492692D01*
X58680489Y6463802D01*
X58680494Y6463802D01*
X58685774Y6463102D01*
X58691103Y6463302D01*
X58691105Y6463302D01*
X58800966Y6467426D01*
X58916158Y6471751D01*
X58921468Y6472865D01*
X59092772Y6508808D01*
X59141791Y6519093D01*
X59146750Y6521051D01*
X59146752Y6521052D01*
X59351256Y6601815D01*
X59351258Y6601816D01*
X59356221Y6603776D01*
X59361525Y6606994D01*
X59548757Y6720610D01*
X59548756Y6720610D01*
X59553317Y6723377D01*
X59585953Y6751697D01*
X59723412Y6870977D01*
X59723414Y6870979D01*
X59727445Y6874477D01*
X59777874Y6935980D01*
X59870240Y7048627D01*
X59870244Y7048633D01*
X59873624Y7052755D01*
X59891552Y7084250D01*
X59942632Y7133555D01*
X60012262Y7147417D01*
X60078333Y7121434D01*
X60105573Y7092284D01*
X60110983Y7084248D01*
X60187441Y6970681D01*
X60191120Y6966824D01*
X60191122Y6966822D01*
X60247030Y6908216D01*
X60346576Y6803865D01*
X60531542Y6666246D01*
X60536293Y6663830D01*
X60536297Y6663828D01*
X60598704Y6632099D01*
X60737051Y6561760D01*
X60742145Y6560178D01*
X60742148Y6560177D01*
X60891419Y6513827D01*
X60957227Y6493393D01*
X60962516Y6492692D01*
X61180489Y6463802D01*
X61180494Y6463802D01*
X61185774Y6463102D01*
X61191103Y6463302D01*
X61191105Y6463302D01*
X61300966Y6467426D01*
X61416158Y6471751D01*
X61421468Y6472865D01*
X61592772Y6508808D01*
X61641791Y6519093D01*
X61646750Y6521051D01*
X61646752Y6521052D01*
X61851256Y6601815D01*
X61851258Y6601816D01*
X61856221Y6603776D01*
X61861525Y6606994D01*
X62048757Y6720610D01*
X62048756Y6720610D01*
X62053317Y6723377D01*
X62085953Y6751697D01*
X62223412Y6870977D01*
X62223414Y6870979D01*
X62227445Y6874477D01*
X62277874Y6935980D01*
X62370240Y7048627D01*
X62370244Y7048633D01*
X62373624Y7052755D01*
X62391552Y7084250D01*
X62442632Y7133555D01*
X62512262Y7147417D01*
X62578333Y7121434D01*
X62605573Y7092284D01*
X62610983Y7084248D01*
X62687441Y6970681D01*
X62691120Y6966824D01*
X62691122Y6966822D01*
X62747030Y6908216D01*
X62846576Y6803865D01*
X63031542Y6666246D01*
X63036293Y6663830D01*
X63036297Y6663828D01*
X63098704Y6632099D01*
X63237051Y6561760D01*
X63242145Y6560178D01*
X63242148Y6560177D01*
X63391419Y6513827D01*
X63457227Y6493393D01*
X63462516Y6492692D01*
X63680489Y6463802D01*
X63680494Y6463802D01*
X63685774Y6463102D01*
X63691103Y6463302D01*
X63691105Y6463302D01*
X63800966Y6467426D01*
X63916158Y6471751D01*
X63921468Y6472865D01*
X64092772Y6508808D01*
X64141791Y6519093D01*
X64146750Y6521051D01*
X64146752Y6521052D01*
X64351256Y6601815D01*
X64351258Y6601816D01*
X64356221Y6603776D01*
X64361525Y6606994D01*
X64548757Y6720610D01*
X64548756Y6720610D01*
X64553317Y6723377D01*
X64585953Y6751697D01*
X64723412Y6870977D01*
X64723414Y6870979D01*
X64727445Y6874477D01*
X64777874Y6935980D01*
X64870240Y7048627D01*
X64870244Y7048633D01*
X64873624Y7052755D01*
X64879115Y7062400D01*
X64985032Y7248471D01*
X64987675Y7253114D01*
X65066337Y7469825D01*
X65069698Y7488410D01*
X65106623Y7692608D01*
X65106624Y7692615D01*
X65107361Y7696692D01*
X65108500Y7720844D01*
X65108500Y8132890D01*
X65093920Y8304720D01*
X65092582Y8309875D01*
X65092581Y8309881D01*
X65037343Y8522703D01*
X65037342Y8522707D01*
X65036001Y8527872D01*
X65026876Y8548130D01*
X64943507Y8733202D01*
X64941312Y8738075D01*
X64812559Y8929319D01*
X64795212Y8947504D01*
X64717446Y9029023D01*
X64653424Y9096135D01*
X64468458Y9233754D01*
X64463706Y9236170D01*
X64463698Y9236175D01*
X64452394Y9241922D01*
X64400737Y9290625D01*
X64383500Y9354238D01*
X64383500Y28671233D01*
X64384027Y28682416D01*
X64385702Y28689909D01*
X64384786Y28719072D01*
X64383562Y28757999D01*
X64383500Y28761957D01*
X64383500Y28789856D01*
X64382996Y28793847D01*
X64382063Y28805689D01*
X64380923Y28841964D01*
X64380674Y28849889D01*
X64378462Y28857503D01*
X64378461Y28857508D01*
X64375023Y28869341D01*
X64371012Y28888705D01*
X64369467Y28900936D01*
X64368474Y28908797D01*
X64365557Y28916164D01*
X64365556Y28916169D01*
X64352198Y28949908D01*
X64348354Y28961135D01*
X64338230Y28995978D01*
X64336018Y29003593D01*
X64331697Y29010900D01*
X64325707Y29021028D01*
X64317012Y29038776D01*
X64309552Y29057617D01*
X64283564Y29093387D01*
X64277048Y29103307D01*
X64258580Y29134535D01*
X64258578Y29134538D01*
X64254542Y29141362D01*
X64240221Y29155683D01*
X64227380Y29170717D01*
X64220131Y29180694D01*
X64215472Y29187107D01*
X64209368Y29192157D01*
X64209363Y29192162D01*
X64181402Y29215293D01*
X64172621Y29223283D01*
X63334420Y30061485D01*
X63300395Y30123797D01*
X63298301Y30136535D01*
X63294182Y30173257D01*
X63293397Y30180255D01*
X63255643Y30288669D01*
X63236064Y30344894D01*
X63236062Y30344897D01*
X63233745Y30351552D01*
X63137626Y30505376D01*
X63073234Y30570219D01*
X63014778Y30629085D01*
X63014774Y30629088D01*
X63009815Y30634082D01*
X62998697Y30641138D01*
X62912468Y30695860D01*
X62856666Y30731273D01*
X62783543Y30757311D01*
X62692425Y30789757D01*
X62692420Y30789758D01*
X62685790Y30792119D01*
X62678802Y30792952D01*
X62678799Y30792953D01*
X62555698Y30807632D01*
X62505680Y30813596D01*
X62498677Y30812860D01*
X62498676Y30812860D01*
X62332288Y30795372D01*
X62332286Y30795371D01*
X62325288Y30794636D01*
X62153579Y30736182D01*
X62147575Y30732488D01*
X62005095Y30644834D01*
X62005092Y30644832D01*
X61999088Y30641138D01*
X61994053Y30636207D01*
X61994050Y30636205D01*
X61874525Y30519157D01*
X61869493Y30514229D01*
X61771235Y30361762D01*
X61768826Y30355142D01*
X61768824Y30355139D01*
X61714759Y30206597D01*
X61709197Y30191315D01*
X61686463Y30011360D01*
X61704163Y29830840D01*
X61761418Y29658727D01*
X61765065Y29652705D01*
X61765066Y29652703D01*
X61851264Y29510373D01*
X61855380Y29503576D01*
X61981382Y29373098D01*
X62133159Y29273778D01*
X62139763Y29271322D01*
X62139765Y29271321D01*
X62296558Y29213010D01*
X62296560Y29213010D01*
X62303168Y29210552D01*
X62310153Y29209620D01*
X62310157Y29209619D01*
X62347824Y29204593D01*
X62365186Y29202277D01*
X62430062Y29173441D01*
X62437616Y29166479D01*
X63079595Y28524500D01*
X63113621Y28462188D01*
X63116500Y28435405D01*
X63116500Y9350596D01*
X63096498Y9282475D01*
X63055867Y9242878D01*
X62946683Y9176623D01*
X62942653Y9173126D01*
X62784515Y9035901D01*
X62772555Y9025523D01*
X62761405Y9011925D01*
X62629760Y8851373D01*
X62629756Y8851367D01*
X62626376Y8847245D01*
X62608448Y8815750D01*
X62557368Y8766445D01*
X62487738Y8752583D01*
X62421667Y8778566D01*
X62394427Y8807716D01*
X62318000Y8921237D01*
X62312559Y8929319D01*
X62295212Y8947504D01*
X62217446Y9029023D01*
X62153424Y9096135D01*
X61968458Y9233754D01*
X61963706Y9236170D01*
X61963698Y9236175D01*
X61952394Y9241922D01*
X61900737Y9290625D01*
X61883500Y9354238D01*
X61883500Y28171233D01*
X61884027Y28182416D01*
X61885702Y28189909D01*
X61885083Y28209619D01*
X61883562Y28257986D01*
X61883500Y28261945D01*
X61883500Y28289856D01*
X61882995Y28293856D01*
X61882062Y28305699D01*
X61880922Y28341971D01*
X61880673Y28349890D01*
X61875022Y28369342D01*
X61871014Y28388694D01*
X61869467Y28400937D01*
X61868474Y28408797D01*
X61865556Y28416168D01*
X61852200Y28449903D01*
X61848355Y28461130D01*
X61847721Y28463313D01*
X61836018Y28503593D01*
X61831984Y28510415D01*
X61831981Y28510421D01*
X61825706Y28521032D01*
X61817010Y28538782D01*
X61812472Y28550244D01*
X61812469Y28550249D01*
X61809552Y28557617D01*
X61783573Y28593375D01*
X61777057Y28603293D01*
X61758575Y28634543D01*
X61754542Y28641363D01*
X61740218Y28655687D01*
X61727376Y28670722D01*
X61720593Y28680058D01*
X61715472Y28687107D01*
X61681406Y28715289D01*
X61672627Y28723278D01*
X61334421Y29061484D01*
X61300395Y29123796D01*
X61298301Y29136535D01*
X61296153Y29155683D01*
X61293397Y29180255D01*
X61233745Y29351552D01*
X61137626Y29505376D01*
X61123941Y29519157D01*
X61014778Y29629085D01*
X61014774Y29629088D01*
X61009815Y29634082D01*
X60998697Y29641138D01*
X60950538Y29671700D01*
X60856666Y29731273D01*
X60827463Y29741672D01*
X60692425Y29789757D01*
X60692420Y29789758D01*
X60685790Y29792119D01*
X60678802Y29792952D01*
X60678799Y29792953D01*
X60555698Y29807632D01*
X60505680Y29813596D01*
X60498677Y29812860D01*
X60498676Y29812860D01*
X60332288Y29795372D01*
X60332286Y29795371D01*
X60325288Y29794636D01*
X60153579Y29736182D01*
X60147575Y29732488D01*
X60005095Y29644834D01*
X60005092Y29644832D01*
X59999088Y29641138D01*
X59994053Y29636207D01*
X59994050Y29636205D01*
X59874525Y29519157D01*
X59869493Y29514229D01*
X59771235Y29361762D01*
X59768826Y29355142D01*
X59768824Y29355139D01*
X59717924Y29215293D01*
X59709197Y29191315D01*
X59686463Y29011360D01*
X59704163Y28830840D01*
X59761418Y28658727D01*
X59765065Y28652705D01*
X59765066Y28652703D01*
X59851264Y28510373D01*
X59855380Y28503576D01*
X59860269Y28498513D01*
X59860270Y28498512D01*
X59870813Y28487595D01*
X59981382Y28373098D01*
X60008826Y28355139D01*
X60102477Y28293856D01*
X60133159Y28273778D01*
X60139763Y28271322D01*
X60139765Y28271321D01*
X60296558Y28213010D01*
X60296560Y28213010D01*
X60303168Y28210552D01*
X60310153Y28209620D01*
X60310157Y28209619D01*
X60345087Y28204959D01*
X60365187Y28202277D01*
X60430063Y28173442D01*
X60437617Y28166479D01*
X60579595Y28024501D01*
X60613621Y27962189D01*
X60616500Y27935406D01*
X60616500Y9350596D01*
X60596498Y9282475D01*
X60555867Y9242878D01*
X60446683Y9176623D01*
X60442653Y9173126D01*
X60284515Y9035901D01*
X60272555Y9025523D01*
X60261405Y9011925D01*
X60129760Y8851373D01*
X60129756Y8851367D01*
X60126376Y8847245D01*
X60108448Y8815750D01*
X60057368Y8766445D01*
X59987738Y8752583D01*
X59921667Y8778566D01*
X59894427Y8807716D01*
X59818000Y8921237D01*
X59812559Y8929319D01*
X59795212Y8947504D01*
X59717446Y9029023D01*
X59653424Y9096135D01*
X59468458Y9233754D01*
X59463706Y9236170D01*
X59463698Y9236175D01*
X59452394Y9241922D01*
X59400737Y9290625D01*
X59383500Y9354238D01*
X59383500Y27171233D01*
X59384027Y27182416D01*
X59385702Y27189909D01*
X59385083Y27209619D01*
X59383562Y27257986D01*
X59383500Y27261945D01*
X59383500Y27289856D01*
X59382995Y27293856D01*
X59382062Y27305699D01*
X59380922Y27341971D01*
X59380673Y27349890D01*
X59375022Y27369342D01*
X59371014Y27388694D01*
X59369467Y27400937D01*
X59368474Y27408797D01*
X59365556Y27416168D01*
X59352200Y27449903D01*
X59348355Y27461130D01*
X59347721Y27463313D01*
X59336018Y27503593D01*
X59331984Y27510415D01*
X59331981Y27510421D01*
X59325706Y27521032D01*
X59317010Y27538782D01*
X59312472Y27550244D01*
X59312469Y27550249D01*
X59309552Y27557617D01*
X59283573Y27593375D01*
X59277057Y27603293D01*
X59258575Y27634543D01*
X59254542Y27641363D01*
X59240218Y27655687D01*
X59227376Y27670722D01*
X59215472Y27687107D01*
X59181406Y27715289D01*
X59172627Y27723278D01*
X58834421Y28061484D01*
X58800395Y28123796D01*
X58798301Y28136535D01*
X58794182Y28173254D01*
X58793397Y28180255D01*
X58749713Y28305699D01*
X58736064Y28344894D01*
X58736062Y28344897D01*
X58733745Y28351552D01*
X58637626Y28505376D01*
X58618635Y28524500D01*
X58514778Y28629085D01*
X58514774Y28629088D01*
X58509815Y28634082D01*
X58498697Y28641138D01*
X58432586Y28683093D01*
X58356666Y28731273D01*
X58327463Y28741672D01*
X58192425Y28789757D01*
X58192420Y28789758D01*
X58185790Y28792119D01*
X58178802Y28792952D01*
X58178799Y28792953D01*
X58055698Y28807632D01*
X58005680Y28813596D01*
X57998677Y28812860D01*
X57998676Y28812860D01*
X57832288Y28795372D01*
X57832286Y28795371D01*
X57825288Y28794636D01*
X57653579Y28736182D01*
X57591249Y28697836D01*
X57505095Y28644834D01*
X57505092Y28644832D01*
X57499088Y28641138D01*
X57494053Y28636207D01*
X57494050Y28636205D01*
X57379981Y28524500D01*
X57369493Y28514229D01*
X57271235Y28361762D01*
X57268826Y28355142D01*
X57268824Y28355139D01*
X57248668Y28299760D01*
X57209197Y28191315D01*
X57186463Y28011360D01*
X57204163Y27830840D01*
X57216961Y27792367D01*
X57230917Y27750415D01*
X57233440Y27679463D01*
X57197203Y27618411D01*
X57133711Y27586641D01*
X57063123Y27594242D01*
X57021953Y27621859D01*
X57014778Y27629085D01*
X57014774Y27629088D01*
X57009815Y27634082D01*
X56998697Y27641138D01*
X56936364Y27680695D01*
X56856666Y27731273D01*
X56802909Y27750415D01*
X56692425Y27789757D01*
X56692420Y27789758D01*
X56685790Y27792119D01*
X56678802Y27792952D01*
X56678799Y27792953D01*
X56555698Y27807632D01*
X56505680Y27813596D01*
X56498677Y27812860D01*
X56498676Y27812860D01*
X56332288Y27795372D01*
X56332286Y27795371D01*
X56325288Y27794636D01*
X56153579Y27736182D01*
X56091109Y27697750D01*
X56005095Y27644834D01*
X56005092Y27644832D01*
X55999088Y27641138D01*
X55994053Y27636207D01*
X55994050Y27636205D01*
X55876440Y27521032D01*
X55869493Y27514229D01*
X55771235Y27361762D01*
X55768826Y27355142D01*
X55768824Y27355139D01*
X55748668Y27299760D01*
X55709197Y27191315D01*
X55686463Y27011360D01*
X55704163Y26830840D01*
X55761418Y26658727D01*
X55855380Y26503576D01*
X55860269Y26498513D01*
X55860270Y26498512D01*
X55919569Y26437107D01*
X55981382Y26373098D01*
X56057271Y26323438D01*
X56108741Y26289757D01*
X56133159Y26273778D01*
X56139763Y26271322D01*
X56139765Y26271321D01*
X56296558Y26213010D01*
X56296560Y26213010D01*
X56303168Y26210552D01*
X56310153Y26209620D01*
X56310157Y26209619D01*
X56345087Y26204959D01*
X56365187Y26202277D01*
X56430063Y26173442D01*
X56437617Y26166479D01*
X56829595Y25774501D01*
X56863621Y25712189D01*
X56866500Y25685406D01*
X56866500Y9514594D01*
X56846498Y9446473D01*
X56829595Y9425499D01*
X56801019Y9396923D01*
X56738707Y9362897D01*
X56674559Y9365686D01*
X56671777Y9366550D01*
X56542773Y9406607D01*
X56537484Y9407308D01*
X56319511Y9436198D01*
X56319506Y9436198D01*
X56314226Y9436898D01*
X56308897Y9436698D01*
X56308895Y9436698D01*
X56210368Y9432999D01*
X56083842Y9428249D01*
X56078623Y9427154D01*
X56057600Y9422743D01*
X55858209Y9380907D01*
X55853250Y9378949D01*
X55853248Y9378948D01*
X55648744Y9298185D01*
X55648742Y9298184D01*
X55643779Y9296224D01*
X55639220Y9293457D01*
X55639217Y9293456D01*
X55544113Y9235745D01*
X55446683Y9176623D01*
X55442653Y9173126D01*
X55284515Y9035901D01*
X55272555Y9025523D01*
X55261405Y9011925D01*
X55129760Y8851373D01*
X55129756Y8851367D01*
X55126376Y8847245D01*
X55108448Y8815750D01*
X55057368Y8766445D01*
X54987738Y8752583D01*
X54921667Y8778566D01*
X54894427Y8807716D01*
X54818000Y8921237D01*
X54812559Y8929319D01*
X54795212Y8947504D01*
X54717446Y9029023D01*
X54653424Y9096135D01*
X54468458Y9233754D01*
X54463706Y9236170D01*
X54463698Y9236175D01*
X54452394Y9241922D01*
X54400737Y9290625D01*
X54383500Y9354238D01*
X54383500Y12358476D01*
X54403502Y12426597D01*
X54457158Y12473090D01*
X54527432Y12483194D01*
X54562750Y12472671D01*
X54687810Y12414355D01*
X54693804Y12411560D01*
X54699112Y12410138D01*
X54699114Y12410137D01*
X54720178Y12404493D01*
X54908537Y12354022D01*
X55130000Y12334647D01*
X55351463Y12354022D01*
X55539822Y12404493D01*
X55560886Y12410137D01*
X55560888Y12410138D01*
X55566196Y12411560D01*
X55572190Y12414355D01*
X55762690Y12503186D01*
X55762695Y12503189D01*
X55767677Y12505512D01*
X55876500Y12581711D01*
X55945270Y12629864D01*
X55945273Y12629866D01*
X55949781Y12633023D01*
X56106977Y12790219D01*
X56194894Y12915777D01*
X56231331Y12967815D01*
X56231332Y12967817D01*
X56234488Y12972324D01*
X56236811Y12977306D01*
X56236814Y12977311D01*
X56326117Y13168822D01*
X56326118Y13168823D01*
X56328440Y13173804D01*
X56385978Y13388537D01*
X56405353Y13610000D01*
X56385978Y13831463D01*
X56328440Y14046196D01*
X56285805Y14137627D01*
X56236814Y14242689D01*
X56236811Y14242694D01*
X56234488Y14247676D01*
X56231331Y14252185D01*
X56110136Y14425270D01*
X56110134Y14425273D01*
X56106977Y14429781D01*
X55949781Y14586977D01*
X55945273Y14590134D01*
X55945270Y14590136D01*
X55869505Y14643187D01*
X55767677Y14714488D01*
X55762695Y14716811D01*
X55762690Y14716814D01*
X55571178Y14806117D01*
X55571177Y14806118D01*
X55566196Y14808440D01*
X55560888Y14809862D01*
X55560886Y14809863D01*
X55495051Y14827503D01*
X55351463Y14865978D01*
X55130000Y14885353D01*
X54908537Y14865978D01*
X54764949Y14827503D01*
X54699114Y14809863D01*
X54699112Y14809862D01*
X54693804Y14808440D01*
X54688823Y14806118D01*
X54688822Y14806117D01*
X54646201Y14786242D01*
X54562749Y14747328D01*
X54492559Y14736667D01*
X54427746Y14765647D01*
X54388889Y14825066D01*
X54383500Y14861523D01*
X54383500Y30138476D01*
X54403502Y30206597D01*
X54457158Y30253090D01*
X54527432Y30263194D01*
X54562750Y30252671D01*
X54661557Y30206597D01*
X54693804Y30191560D01*
X54699112Y30190138D01*
X54699114Y30190137D01*
X54720805Y30184325D01*
X54908537Y30134022D01*
X55130000Y30114647D01*
X55351463Y30134022D01*
X55539195Y30184325D01*
X55560886Y30190137D01*
X55560888Y30190138D01*
X55566196Y30191560D01*
X55598443Y30206597D01*
X55762690Y30283186D01*
X55762695Y30283189D01*
X55767677Y30285512D01*
X55885036Y30367688D01*
X55945270Y30409864D01*
X55945273Y30409866D01*
X55949781Y30413023D01*
X56106977Y30570219D01*
X56148196Y30629085D01*
X56231331Y30747815D01*
X56231332Y30747817D01*
X56234488Y30752324D01*
X56236811Y30757306D01*
X56236814Y30757311D01*
X56326117Y30948822D01*
X56326118Y30948823D01*
X56328440Y30953804D01*
X56385978Y31168537D01*
X56405353Y31390000D01*
X56385978Y31611463D01*
X56328440Y31826196D01*
X56285805Y31917627D01*
X56236814Y32022689D01*
X56236811Y32022694D01*
X56234488Y32027676D01*
X56231331Y32032185D01*
X56110136Y32205270D01*
X56110134Y32205273D01*
X56106977Y32209781D01*
X55949781Y32366977D01*
X55945273Y32370134D01*
X55945270Y32370136D01*
X55869505Y32423187D01*
X55767677Y32494488D01*
X55762695Y32496811D01*
X55762690Y32496814D01*
X55571178Y32586117D01*
X55571177Y32586118D01*
X55566196Y32588440D01*
X55560888Y32589862D01*
X55560886Y32589863D01*
X55495051Y32607503D01*
X55351463Y32645978D01*
X55130000Y32665353D01*
X54908537Y32645978D01*
X54764949Y32607503D01*
X54699114Y32589863D01*
X54699112Y32589862D01*
X54693804Y32588440D01*
X54562749Y32527328D01*
X54492559Y32516667D01*
X54427746Y32545647D01*
X54388889Y32605066D01*
X54383500Y32641523D01*
X54383500Y33171233D01*
X54384027Y33182416D01*
X54385702Y33189909D01*
X54383562Y33257986D01*
X54383500Y33261945D01*
X54383500Y33289856D01*
X54382995Y33293856D01*
X54382062Y33305699D01*
X54380922Y33341971D01*
X54380673Y33349890D01*
X54375022Y33369342D01*
X54371014Y33388694D01*
X54369467Y33400937D01*
X54368474Y33408797D01*
X54365556Y33416168D01*
X54352200Y33449903D01*
X54348355Y33461130D01*
X54347721Y33463313D01*
X54336018Y33503593D01*
X54331984Y33510415D01*
X54331981Y33510421D01*
X54325706Y33521032D01*
X54317010Y33538782D01*
X54312472Y33550244D01*
X54312469Y33550249D01*
X54309552Y33557617D01*
X54283573Y33593375D01*
X54277057Y33603293D01*
X54258575Y33634543D01*
X54254542Y33641363D01*
X54240218Y33655687D01*
X54227376Y33670722D01*
X54215472Y33687107D01*
X54181406Y33715289D01*
X54172627Y33723278D01*
X51834421Y36061484D01*
X51800395Y36123796D01*
X51798301Y36136535D01*
X51797638Y36142444D01*
X51793397Y36180255D01*
X51748672Y36308688D01*
X51736064Y36344894D01*
X51736062Y36344897D01*
X51733745Y36351552D01*
X51694762Y36413938D01*
X51641359Y36499402D01*
X51637626Y36505376D01*
X51623930Y36519168D01*
X51514778Y36629085D01*
X51514774Y36629088D01*
X51509815Y36634082D01*
X51498697Y36641138D01*
X51431492Y36683787D01*
X51356666Y36731273D01*
X51327463Y36741672D01*
X51192425Y36789757D01*
X51192420Y36789758D01*
X51185790Y36792119D01*
X51178802Y36792952D01*
X51178799Y36792953D01*
X51055698Y36807632D01*
X51005680Y36813596D01*
X50998677Y36812860D01*
X50998676Y36812860D01*
X50832288Y36795372D01*
X50832286Y36795371D01*
X50825288Y36794636D01*
X50653579Y36736182D01*
X50647575Y36732488D01*
X50505095Y36644834D01*
X50505092Y36644832D01*
X50499088Y36641138D01*
X50494053Y36636207D01*
X50494050Y36636205D01*
X50374525Y36519157D01*
X50369493Y36514229D01*
X50271235Y36361762D01*
X50268826Y36355142D01*
X50268824Y36355139D01*
X50214714Y36206472D01*
X50209197Y36191315D01*
X50186463Y36011360D01*
X50204163Y35830840D01*
X50261418Y35658727D01*
X50355380Y35503576D01*
X50481382Y35373098D01*
X50633159Y35273778D01*
X50639763Y35271322D01*
X50639765Y35271321D01*
X50796558Y35213010D01*
X50796560Y35213010D01*
X50803168Y35210552D01*
X50810153Y35209620D01*
X50810157Y35209619D01*
X50845087Y35204959D01*
X50865187Y35202277D01*
X50930063Y35173442D01*
X50937617Y35166479D01*
X53079595Y33024501D01*
X53113621Y32962189D01*
X53116500Y32935406D01*
X53116500Y32728450D01*
X53096498Y32660329D01*
X53042842Y32613836D01*
X52972568Y32603732D01*
X52957889Y32606743D01*
X52942372Y32610901D01*
X52811463Y32645978D01*
X52590000Y32665353D01*
X52368537Y32645978D01*
X52224949Y32607503D01*
X52159114Y32589863D01*
X52159112Y32589862D01*
X52153804Y32588440D01*
X52148823Y32586118D01*
X52148822Y32586117D01*
X51957311Y32496814D01*
X51957306Y32496811D01*
X51952324Y32494488D01*
X51947817Y32491332D01*
X51947815Y32491331D01*
X51774730Y32370136D01*
X51774727Y32370134D01*
X51770219Y32366977D01*
X51613023Y32209781D01*
X51609866Y32205273D01*
X51609864Y32205270D01*
X51488669Y32032185D01*
X51485512Y32027676D01*
X51483189Y32022694D01*
X51483186Y32022689D01*
X51433919Y31917035D01*
X51387001Y31863750D01*
X51318724Y31844289D01*
X51250764Y31864831D01*
X51205529Y31917035D01*
X51156377Y32022441D01*
X51150897Y32031932D01*
X51120206Y32075765D01*
X51109729Y32084140D01*
X51096282Y32077072D01*
X50422022Y31402812D01*
X50414408Y31388868D01*
X50414539Y31387035D01*
X50418790Y31380420D01*
X51097003Y30702207D01*
X51108777Y30695777D01*
X51120793Y30705074D01*
X51150897Y30748068D01*
X51156377Y30757559D01*
X51205529Y30862965D01*
X51252447Y30916250D01*
X51320724Y30935711D01*
X51388684Y30915169D01*
X51433919Y30862965D01*
X51483186Y30757311D01*
X51483189Y30757306D01*
X51485512Y30752324D01*
X51488668Y30747817D01*
X51488669Y30747815D01*
X51571805Y30629085D01*
X51613023Y30570219D01*
X51770219Y30413023D01*
X51774727Y30409866D01*
X51774730Y30409864D01*
X51834964Y30367688D01*
X51952323Y30285512D01*
X51957305Y30283189D01*
X51957310Y30283186D01*
X52121557Y30206597D01*
X52153804Y30191560D01*
X52159112Y30190138D01*
X52159114Y30190137D01*
X52180805Y30184325D01*
X52368537Y30134022D01*
X52590000Y30114647D01*
X52811463Y30134022D01*
X52957889Y30173257D01*
X53028865Y30171567D01*
X53087661Y30131773D01*
X53115609Y30066509D01*
X53116500Y30051550D01*
X53116500Y14948450D01*
X53096498Y14880329D01*
X53042842Y14833836D01*
X52972568Y14823732D01*
X52957889Y14826743D01*
X52942372Y14830901D01*
X52811463Y14865978D01*
X52590000Y14885353D01*
X52368537Y14865978D01*
X52224949Y14827503D01*
X52159114Y14809863D01*
X52159112Y14809862D01*
X52153804Y14808440D01*
X52148823Y14806118D01*
X52148822Y14806117D01*
X52062750Y14765981D01*
X51992558Y14755320D01*
X51927745Y14784300D01*
X51888889Y14843720D01*
X51883500Y14880176D01*
X51883500Y22171233D01*
X51884027Y22182416D01*
X51885702Y22189909D01*
X51885083Y22209619D01*
X51883562Y22257986D01*
X51883500Y22261945D01*
X51883500Y22289856D01*
X51882995Y22293856D01*
X51882062Y22305699D01*
X51880922Y22341971D01*
X51880673Y22349890D01*
X51875022Y22369342D01*
X51871014Y22388694D01*
X51869467Y22400937D01*
X51868474Y22408797D01*
X51865556Y22416168D01*
X51852200Y22449903D01*
X51848355Y22461130D01*
X51839845Y22490420D01*
X51836018Y22503593D01*
X51831984Y22510415D01*
X51831981Y22510421D01*
X51825706Y22521032D01*
X51817010Y22538782D01*
X51812472Y22550244D01*
X51812469Y22550249D01*
X51809552Y22557617D01*
X51783573Y22593375D01*
X51777057Y22603293D01*
X51758575Y22634543D01*
X51754542Y22641363D01*
X51740218Y22655687D01*
X51727376Y22670722D01*
X51715472Y22687107D01*
X51681406Y22715289D01*
X51672627Y22723278D01*
X51334421Y23061484D01*
X51300395Y23123796D01*
X51298301Y23136535D01*
X51294182Y23173254D01*
X51293397Y23180255D01*
X51253860Y23293789D01*
X51236064Y23344894D01*
X51236062Y23344897D01*
X51233745Y23351552D01*
X51222629Y23369341D01*
X51141359Y23499402D01*
X51137626Y23505376D01*
X51118635Y23524500D01*
X51014778Y23629085D01*
X51014774Y23629088D01*
X51009815Y23634082D01*
X50998697Y23641138D01*
X50932587Y23683092D01*
X50856666Y23731273D01*
X50827463Y23741672D01*
X50692425Y23789757D01*
X50692420Y23789758D01*
X50685790Y23792119D01*
X50678802Y23792952D01*
X50678799Y23792953D01*
X50555698Y23807632D01*
X50505680Y23813596D01*
X50498677Y23812860D01*
X50498676Y23812860D01*
X50332288Y23795372D01*
X50332286Y23795371D01*
X50325288Y23794636D01*
X50153579Y23736182D01*
X50119625Y23715293D01*
X50005095Y23644834D01*
X50005092Y23644832D01*
X49999088Y23641138D01*
X49994053Y23636207D01*
X49994050Y23636205D01*
X49879981Y23524500D01*
X49869493Y23514229D01*
X49771235Y23361762D01*
X49768826Y23355142D01*
X49768824Y23355139D01*
X49734186Y23259972D01*
X49709197Y23191315D01*
X49686463Y23011360D01*
X49704163Y22830840D01*
X49761418Y22658727D01*
X49765065Y22652705D01*
X49765066Y22652703D01*
X49851235Y22510421D01*
X49855380Y22503576D01*
X49860269Y22498513D01*
X49860270Y22498512D01*
X49871206Y22487188D01*
X49981382Y22373098D01*
X50016848Y22349890D01*
X50117514Y22284016D01*
X50133159Y22273778D01*
X50139763Y22271322D01*
X50139765Y22271321D01*
X50296558Y22213010D01*
X50296560Y22213010D01*
X50303168Y22210552D01*
X50310153Y22209620D01*
X50310157Y22209619D01*
X50345087Y22204959D01*
X50365187Y22202277D01*
X50430063Y22173442D01*
X50437617Y22166479D01*
X50579595Y22024501D01*
X50613621Y21962189D01*
X50616500Y21935406D01*
X50616500Y14937214D01*
X50596498Y14869093D01*
X50542842Y14822600D01*
X50472568Y14812496D01*
X50457889Y14815507D01*
X50276691Y14864059D01*
X50265896Y14865962D01*
X50055475Y14884372D01*
X50044525Y14884372D01*
X49834104Y14865962D01*
X49823309Y14864059D01*
X49619285Y14809391D01*
X49608988Y14805643D01*
X49562751Y14784082D01*
X49492559Y14773420D01*
X49427746Y14802399D01*
X49388890Y14861819D01*
X49383500Y14898276D01*
X49383500Y23671232D01*
X49384027Y23682415D01*
X49385702Y23689908D01*
X49383562Y23757999D01*
X49383500Y23761956D01*
X49383500Y23789856D01*
X49382996Y23793847D01*
X49382063Y23805689D01*
X49380923Y23841964D01*
X49380674Y23849889D01*
X49378462Y23857503D01*
X49378461Y23857508D01*
X49375023Y23869341D01*
X49371012Y23888705D01*
X49369467Y23900936D01*
X49368474Y23908797D01*
X49365557Y23916164D01*
X49365556Y23916169D01*
X49352198Y23949908D01*
X49348354Y23961135D01*
X49338230Y23995978D01*
X49336018Y24003593D01*
X49325707Y24021028D01*
X49317012Y24038776D01*
X49309552Y24057617D01*
X49283564Y24093387D01*
X49277048Y24103307D01*
X49258580Y24134535D01*
X49258578Y24134538D01*
X49254542Y24141362D01*
X49240221Y24155683D01*
X49227380Y24170717D01*
X49220131Y24180694D01*
X49215472Y24187107D01*
X49181395Y24215298D01*
X49172616Y24223288D01*
X48517738Y24878166D01*
X47834420Y25561485D01*
X47800395Y25623795D01*
X47798301Y25636534D01*
X47794182Y25673254D01*
X47793397Y25680255D01*
X47733745Y25851552D01*
X47637626Y26005376D01*
X47623941Y26019157D01*
X47514778Y26129085D01*
X47514774Y26129088D01*
X47509815Y26134082D01*
X47498697Y26141138D01*
X47411245Y26196636D01*
X47356666Y26231273D01*
X47293984Y26253593D01*
X47192425Y26289757D01*
X47192420Y26289758D01*
X47185790Y26292119D01*
X47178802Y26292952D01*
X47178799Y26292953D01*
X47055698Y26307632D01*
X47005680Y26313596D01*
X46998677Y26312860D01*
X46998676Y26312860D01*
X46832288Y26295372D01*
X46832286Y26295371D01*
X46825288Y26294636D01*
X46653579Y26236182D01*
X46647575Y26232488D01*
X46505095Y26144834D01*
X46505092Y26144832D01*
X46499088Y26141138D01*
X46494053Y26136207D01*
X46494050Y26136205D01*
X46374525Y26019157D01*
X46369493Y26014229D01*
X46271235Y25861762D01*
X46268826Y25855142D01*
X46268824Y25855139D01*
X46211606Y25697934D01*
X46209197Y25691315D01*
X46186463Y25511360D01*
X46204163Y25330840D01*
X46261418Y25158727D01*
X46265065Y25152705D01*
X46265066Y25152703D01*
X46351264Y25010373D01*
X46355380Y25003576D01*
X46481382Y24873098D01*
X46633159Y24773778D01*
X46639763Y24771322D01*
X46639765Y24771321D01*
X46796558Y24713010D01*
X46796560Y24713010D01*
X46803168Y24710552D01*
X46810153Y24709620D01*
X46810157Y24709619D01*
X46845087Y24704959D01*
X46865187Y24702277D01*
X46930063Y24673442D01*
X46937617Y24666479D01*
X48079595Y23524500D01*
X48113621Y23462188D01*
X48116500Y23435405D01*
X48116500Y14925891D01*
X48096498Y14857770D01*
X48042842Y14811277D01*
X47972568Y14801173D01*
X47949199Y14807040D01*
X47946196Y14808440D01*
X47940888Y14809862D01*
X47940886Y14809863D01*
X47875051Y14827503D01*
X47731463Y14865978D01*
X47510000Y14885353D01*
X47288537Y14865978D01*
X47144949Y14827503D01*
X47079114Y14809863D01*
X47079112Y14809862D01*
X47073804Y14808440D01*
X47062753Y14803287D01*
X46992562Y14792624D01*
X46927749Y14821601D01*
X46888890Y14881020D01*
X46883500Y14917480D01*
X46883500Y23171233D01*
X46884027Y23182416D01*
X46885702Y23189909D01*
X46883562Y23258000D01*
X46883500Y23261957D01*
X46883500Y23289856D01*
X46882996Y23293847D01*
X46882063Y23305689D01*
X46880923Y23341964D01*
X46880674Y23349889D01*
X46878462Y23357503D01*
X46878461Y23357508D01*
X46875023Y23369341D01*
X46871012Y23388705D01*
X46869467Y23400936D01*
X46868474Y23408797D01*
X46865557Y23416164D01*
X46865556Y23416169D01*
X46852198Y23449908D01*
X46848354Y23461135D01*
X46838230Y23495978D01*
X46836018Y23503593D01*
X46825707Y23521028D01*
X46817012Y23538776D01*
X46809552Y23557617D01*
X46783564Y23593387D01*
X46777048Y23603307D01*
X46758580Y23634535D01*
X46758578Y23634538D01*
X46754542Y23641362D01*
X46740221Y23655683D01*
X46727380Y23670717D01*
X46720131Y23680694D01*
X46715472Y23687107D01*
X46709368Y23692157D01*
X46709363Y23692162D01*
X46681402Y23715293D01*
X46672621Y23723283D01*
X45834420Y24561485D01*
X45800395Y24623797D01*
X45798301Y24636535D01*
X45794182Y24673255D01*
X45793397Y24680255D01*
X45733745Y24851552D01*
X45637626Y25005376D01*
X45623941Y25019157D01*
X45514778Y25129085D01*
X45514774Y25129088D01*
X45509815Y25134082D01*
X45498697Y25141138D01*
X45450538Y25171700D01*
X45356666Y25231273D01*
X45327463Y25241672D01*
X45192425Y25289757D01*
X45192420Y25289758D01*
X45185790Y25292119D01*
X45178802Y25292952D01*
X45178799Y25292953D01*
X45055698Y25307632D01*
X45005680Y25313596D01*
X44998677Y25312860D01*
X44998676Y25312860D01*
X44832288Y25295372D01*
X44832286Y25295371D01*
X44825288Y25294636D01*
X44653579Y25236182D01*
X44647575Y25232488D01*
X44505095Y25144834D01*
X44505092Y25144832D01*
X44499088Y25141138D01*
X44494053Y25136207D01*
X44494050Y25136205D01*
X44374525Y25019157D01*
X44369493Y25014229D01*
X44271235Y24861762D01*
X44268826Y24855142D01*
X44268824Y24855139D01*
X44240615Y24777636D01*
X44209197Y24691315D01*
X44186463Y24511360D01*
X44204163Y24330840D01*
X44261418Y24158727D01*
X44265065Y24152705D01*
X44265066Y24152703D01*
X44351236Y24010419D01*
X44355380Y24003576D01*
X44481382Y23873098D01*
X44487278Y23869240D01*
X44608741Y23789757D01*
X44633159Y23773778D01*
X44639763Y23771322D01*
X44639765Y23771321D01*
X44796558Y23713010D01*
X44796560Y23713010D01*
X44803168Y23710552D01*
X44810153Y23709620D01*
X44810157Y23709619D01*
X44847824Y23704593D01*
X44865186Y23702277D01*
X44930062Y23673441D01*
X44937616Y23666479D01*
X45579595Y23024500D01*
X45613621Y22962188D01*
X45616500Y22935405D01*
X45616500Y14908154D01*
X45596498Y14840033D01*
X45542842Y14793540D01*
X45472568Y14783436D01*
X45437249Y14793960D01*
X45411183Y14806115D01*
X45411178Y14806117D01*
X45406196Y14808440D01*
X45400888Y14809862D01*
X45400886Y14809863D01*
X45335051Y14827503D01*
X45191463Y14865978D01*
X44970000Y14885353D01*
X44748537Y14865978D01*
X44604949Y14827503D01*
X44539114Y14809863D01*
X44539112Y14809862D01*
X44533804Y14808440D01*
X44528823Y14806118D01*
X44528822Y14806117D01*
X44337311Y14716814D01*
X44337306Y14716811D01*
X44332324Y14714488D01*
X44327817Y14711332D01*
X44327815Y14711331D01*
X44154730Y14590136D01*
X44154727Y14590134D01*
X44150219Y14586977D01*
X43993023Y14429781D01*
X43989866Y14425273D01*
X43989864Y14425270D01*
X43868669Y14252185D01*
X43865512Y14247676D01*
X43863189Y14242694D01*
X43863186Y14242689D01*
X43814195Y14137627D01*
X43767277Y14084342D01*
X43699000Y14064881D01*
X43631040Y14085423D01*
X43585805Y14137627D01*
X43536814Y14242689D01*
X43536811Y14242694D01*
X43534488Y14247676D01*
X43531331Y14252185D01*
X43410136Y14425270D01*
X43410134Y14425273D01*
X43406977Y14429781D01*
X43249781Y14586977D01*
X43245273Y14590134D01*
X43245270Y14590136D01*
X43169505Y14643187D01*
X43067677Y14714488D01*
X43062695Y14716811D01*
X43062690Y14716814D01*
X42871178Y14806117D01*
X42871177Y14806118D01*
X42866196Y14808440D01*
X42860888Y14809862D01*
X42860886Y14809863D01*
X42795051Y14827503D01*
X42651463Y14865978D01*
X42430000Y14885353D01*
X42208537Y14865978D01*
X42064949Y14827503D01*
X41999114Y14809863D01*
X41999112Y14809862D01*
X41993804Y14808440D01*
X41988823Y14806118D01*
X41988822Y14806117D01*
X41797311Y14716814D01*
X41797306Y14716811D01*
X41792324Y14714488D01*
X41787817Y14711332D01*
X41787815Y14711331D01*
X41614730Y14590136D01*
X41614727Y14590134D01*
X41610219Y14586977D01*
X41453023Y14429781D01*
X41449866Y14425273D01*
X41449864Y14425270D01*
X41328669Y14252185D01*
X41325512Y14247676D01*
X41323189Y14242694D01*
X41323186Y14242689D01*
X41274195Y14137627D01*
X41227277Y14084342D01*
X41159000Y14064881D01*
X41091040Y14085423D01*
X41045805Y14137627D01*
X40996814Y14242689D01*
X40996811Y14242694D01*
X40994488Y14247676D01*
X40991331Y14252185D01*
X40870136Y14425270D01*
X40870134Y14425273D01*
X40866977Y14429781D01*
X40709781Y14586977D01*
X40705273Y14590134D01*
X40705270Y14590136D01*
X40629505Y14643187D01*
X40527677Y14714488D01*
X40522695Y14716811D01*
X40522690Y14716814D01*
X40331178Y14806117D01*
X40331177Y14806118D01*
X40326196Y14808440D01*
X40320888Y14809862D01*
X40320886Y14809863D01*
X40255051Y14827503D01*
X40111463Y14865978D01*
X39890000Y14885353D01*
X39668537Y14865978D01*
X39524949Y14827503D01*
X39459114Y14809863D01*
X39459112Y14809862D01*
X39453804Y14808440D01*
X39448823Y14806118D01*
X39448822Y14806117D01*
X39257311Y14716814D01*
X39257306Y14716811D01*
X39252324Y14714488D01*
X39247817Y14711332D01*
X39247815Y14711331D01*
X39074730Y14590136D01*
X39074727Y14590134D01*
X39070219Y14586977D01*
X38913023Y14429781D01*
X38909866Y14425273D01*
X38909864Y14425270D01*
X38788669Y14252185D01*
X38785512Y14247676D01*
X38783189Y14242694D01*
X38783186Y14242689D01*
X38733919Y14137035D01*
X38687001Y14083750D01*
X38618724Y14064289D01*
X38550764Y14084831D01*
X38505529Y14137035D01*
X38456377Y14242441D01*
X38450897Y14251932D01*
X38420206Y14295765D01*
X38409729Y14304140D01*
X38396282Y14297072D01*
X37722022Y13622812D01*
X37714408Y13608868D01*
X36984356Y13608868D01*
X36985592Y13611132D01*
X36985461Y13612965D01*
X36981210Y13619580D01*
X36302997Y14297793D01*
X36291223Y14304223D01*
X36279207Y14294926D01*
X36249103Y14251932D01*
X36243623Y14242441D01*
X36194471Y14137035D01*
X36147553Y14083750D01*
X36079276Y14064289D01*
X36011316Y14084831D01*
X35966081Y14137035D01*
X35916814Y14242689D01*
X35916811Y14242694D01*
X35914488Y14247676D01*
X35911331Y14252185D01*
X35790136Y14425270D01*
X35790134Y14425273D01*
X35786977Y14429781D01*
X35629781Y14586977D01*
X35625273Y14590134D01*
X35625270Y14590136D01*
X35549505Y14643187D01*
X35511599Y14669729D01*
X36655860Y14669729D01*
X36662928Y14656282D01*
X37337188Y13982022D01*
X37351132Y13974408D01*
X37352965Y13974539D01*
X37359580Y13978790D01*
X38037793Y14657003D01*
X38044223Y14668777D01*
X38034926Y14680793D01*
X37991931Y14710898D01*
X37982445Y14716376D01*
X37791007Y14805645D01*
X37780715Y14809391D01*
X37576691Y14864059D01*
X37565896Y14865962D01*
X37355475Y14884372D01*
X37344525Y14884372D01*
X37134104Y14865962D01*
X37123309Y14864059D01*
X36919285Y14809391D01*
X36908993Y14805645D01*
X36717559Y14716377D01*
X36708068Y14710897D01*
X36664235Y14680206D01*
X36655860Y14669729D01*
X35511599Y14669729D01*
X35447677Y14714488D01*
X35442695Y14716811D01*
X35442690Y14716814D01*
X35251178Y14806117D01*
X35251177Y14806118D01*
X35246196Y14808440D01*
X35240888Y14809862D01*
X35240886Y14809863D01*
X35175051Y14827503D01*
X35031463Y14865978D01*
X34810000Y14885353D01*
X34588537Y14865978D01*
X34444949Y14827503D01*
X34379114Y14809863D01*
X34379112Y14809862D01*
X34373804Y14808440D01*
X34368823Y14806118D01*
X34368822Y14806117D01*
X34177311Y14716814D01*
X34177306Y14716811D01*
X34172324Y14714488D01*
X34167817Y14711332D01*
X34167815Y14711331D01*
X33994730Y14590136D01*
X33994727Y14590134D01*
X33990219Y14586977D01*
X33833023Y14429781D01*
X33829866Y14425273D01*
X33829864Y14425270D01*
X33708669Y14252185D01*
X33705512Y14247676D01*
X33703189Y14242694D01*
X33703186Y14242689D01*
X33654195Y14137627D01*
X33607277Y14084342D01*
X33539000Y14064881D01*
X33471040Y14085423D01*
X33425805Y14137627D01*
X33376814Y14242689D01*
X33376811Y14242694D01*
X33374488Y14247676D01*
X33371331Y14252185D01*
X33250136Y14425270D01*
X33250134Y14425273D01*
X33246977Y14429781D01*
X33089781Y14586977D01*
X33085273Y14590134D01*
X33085270Y14590136D01*
X33009505Y14643187D01*
X32907677Y14714488D01*
X32902695Y14716811D01*
X32902690Y14716814D01*
X32711178Y14806117D01*
X32711177Y14806118D01*
X32706196Y14808440D01*
X32700888Y14809862D01*
X32700886Y14809863D01*
X32635051Y14827503D01*
X32491463Y14865978D01*
X32270000Y14885353D01*
X32048537Y14865978D01*
X31904949Y14827503D01*
X31839114Y14809863D01*
X31839112Y14809862D01*
X31833804Y14808440D01*
X31828823Y14806118D01*
X31828822Y14806117D01*
X31637311Y14716814D01*
X31637306Y14716811D01*
X31632324Y14714488D01*
X31627817Y14711332D01*
X31627815Y14711331D01*
X31454730Y14590136D01*
X31454727Y14590134D01*
X31450219Y14586977D01*
X31293023Y14429781D01*
X31289866Y14425273D01*
X31289864Y14425270D01*
X31168669Y14252185D01*
X31165512Y14247676D01*
X31163189Y14242694D01*
X31163186Y14242689D01*
X31114195Y14137627D01*
X31067277Y14084342D01*
X30999000Y14064881D01*
X30931040Y14085423D01*
X30885805Y14137627D01*
X30836814Y14242689D01*
X30836811Y14242694D01*
X30834488Y14247676D01*
X30831331Y14252185D01*
X30710136Y14425270D01*
X30710134Y14425273D01*
X30706977Y14429781D01*
X30549781Y14586977D01*
X30545273Y14590134D01*
X30545270Y14590136D01*
X30469505Y14643187D01*
X30367677Y14714488D01*
X30362695Y14716811D01*
X30362690Y14716814D01*
X30171178Y14806117D01*
X30171177Y14806118D01*
X30166196Y14808440D01*
X30160888Y14809862D01*
X30160886Y14809863D01*
X30095051Y14827503D01*
X29951463Y14865978D01*
X29730000Y14885353D01*
X29508537Y14865978D01*
X29364949Y14827503D01*
X29299114Y14809863D01*
X29299112Y14809862D01*
X29293804Y14808440D01*
X29288823Y14806118D01*
X29288822Y14806117D01*
X29097311Y14716814D01*
X29097306Y14716811D01*
X29092324Y14714488D01*
X29087817Y14711332D01*
X29087815Y14711331D01*
X28914730Y14590136D01*
X28914727Y14590134D01*
X28910219Y14586977D01*
X28753023Y14429781D01*
X28749866Y14425273D01*
X28749864Y14425270D01*
X28628669Y14252185D01*
X28625512Y14247676D01*
X28623189Y14242694D01*
X28623186Y14242689D01*
X28574195Y14137627D01*
X28527277Y14084342D01*
X28459000Y14064881D01*
X28391040Y14085423D01*
X28345805Y14137627D01*
X28296814Y14242689D01*
X28296811Y14242694D01*
X28294488Y14247676D01*
X28291331Y14252185D01*
X28170136Y14425270D01*
X28170134Y14425273D01*
X28166977Y14429781D01*
X28009781Y14586977D01*
X28005273Y14590134D01*
X28005270Y14590136D01*
X27929505Y14643187D01*
X27827677Y14714488D01*
X27822695Y14716811D01*
X27822690Y14716814D01*
X27631178Y14806117D01*
X27631177Y14806118D01*
X27626196Y14808440D01*
X27620888Y14809862D01*
X27620886Y14809863D01*
X27555051Y14827503D01*
X27411463Y14865978D01*
X27190000Y14885353D01*
X26968537Y14865978D01*
X26824949Y14827503D01*
X26759114Y14809863D01*
X26759112Y14809862D01*
X26753804Y14808440D01*
X26748823Y14806118D01*
X26748822Y14806117D01*
X26557311Y14716814D01*
X26557306Y14716811D01*
X26552324Y14714488D01*
X26547817Y14711332D01*
X26547815Y14711331D01*
X26374730Y14590136D01*
X26374727Y14590134D01*
X26370219Y14586977D01*
X26213023Y14429781D01*
X26209866Y14425273D01*
X26209864Y14425270D01*
X26088669Y14252185D01*
X26085512Y14247676D01*
X26083189Y14242694D01*
X26083186Y14242689D01*
X26033919Y14137035D01*
X25987001Y14083750D01*
X25918724Y14064289D01*
X25850764Y14084831D01*
X25805529Y14137035D01*
X25756377Y14242441D01*
X25750897Y14251932D01*
X25720206Y14295765D01*
X25709729Y14304140D01*
X25696282Y14297072D01*
X25022022Y13622812D01*
X25014408Y13608868D01*
X24284356Y13608868D01*
X24285592Y13611132D01*
X24285461Y13612965D01*
X24281210Y13619580D01*
X23602997Y14297793D01*
X23591223Y14304223D01*
X23579207Y14294926D01*
X23549103Y14251932D01*
X23543623Y14242441D01*
X23494471Y14137035D01*
X23447553Y14083750D01*
X23379276Y14064289D01*
X23311316Y14084831D01*
X23266081Y14137035D01*
X23216814Y14242689D01*
X23216811Y14242694D01*
X23214488Y14247676D01*
X23211331Y14252185D01*
X23090136Y14425270D01*
X23090134Y14425273D01*
X23086977Y14429781D01*
X22929781Y14586977D01*
X22925273Y14590134D01*
X22925270Y14590136D01*
X22849505Y14643187D01*
X22811599Y14669729D01*
X23955860Y14669729D01*
X23962928Y14656282D01*
X24637188Y13982022D01*
X24651132Y13974408D01*
X24652965Y13974539D01*
X24659580Y13978790D01*
X25337793Y14657003D01*
X25344223Y14668777D01*
X25334926Y14680793D01*
X25291931Y14710898D01*
X25282445Y14716376D01*
X25091007Y14805645D01*
X25080715Y14809391D01*
X24876691Y14864059D01*
X24865896Y14865962D01*
X24655475Y14884372D01*
X24644525Y14884372D01*
X24434104Y14865962D01*
X24423309Y14864059D01*
X24219285Y14809391D01*
X24208993Y14805645D01*
X24017559Y14716377D01*
X24008068Y14710897D01*
X23964235Y14680206D01*
X23955860Y14669729D01*
X22811599Y14669729D01*
X22747677Y14714488D01*
X22742695Y14716811D01*
X22742690Y14716814D01*
X22551178Y14806117D01*
X22551177Y14806118D01*
X22546196Y14808440D01*
X22540888Y14809862D01*
X22540886Y14809863D01*
X22475051Y14827503D01*
X22331463Y14865978D01*
X22110000Y14885353D01*
X21888537Y14865978D01*
X21744949Y14827503D01*
X21679114Y14809863D01*
X21679112Y14809862D01*
X21673804Y14808440D01*
X21668823Y14806118D01*
X21668822Y14806117D01*
X21477311Y14716814D01*
X21477306Y14716811D01*
X21472324Y14714488D01*
X21467817Y14711332D01*
X21467815Y14711331D01*
X21294730Y14590136D01*
X21294727Y14590134D01*
X21290219Y14586977D01*
X21133023Y14429781D01*
X21129866Y14425273D01*
X21129864Y14425270D01*
X21008669Y14252185D01*
X21005512Y14247676D01*
X21003189Y14242694D01*
X21003186Y14242689D01*
X20954195Y14137627D01*
X20907277Y14084342D01*
X20839000Y14064881D01*
X20771040Y14085423D01*
X20725805Y14137627D01*
X20676814Y14242689D01*
X20676811Y14242694D01*
X20674488Y14247676D01*
X20671331Y14252185D01*
X20550136Y14425270D01*
X20550134Y14425273D01*
X20546977Y14429781D01*
X20389781Y14586977D01*
X20385273Y14590134D01*
X20385270Y14590136D01*
X20309505Y14643187D01*
X20207677Y14714488D01*
X20202695Y14716811D01*
X20202690Y14716814D01*
X20011178Y14806117D01*
X20011177Y14806118D01*
X20006196Y14808440D01*
X20000888Y14809862D01*
X20000886Y14809863D01*
X19935051Y14827503D01*
X19791463Y14865978D01*
X19570000Y14885353D01*
X19348537Y14865978D01*
X19204949Y14827503D01*
X19139114Y14809863D01*
X19139112Y14809862D01*
X19133804Y14808440D01*
X19128823Y14806118D01*
X19128822Y14806117D01*
X18937311Y14716814D01*
X18937306Y14716811D01*
X18932324Y14714488D01*
X18927817Y14711332D01*
X18927815Y14711331D01*
X18754730Y14590136D01*
X18754727Y14590134D01*
X18750219Y14586977D01*
X18593023Y14429781D01*
X18589866Y14425273D01*
X18589864Y14425270D01*
X18468669Y14252185D01*
X18465512Y14247676D01*
X18463189Y14242694D01*
X18463186Y14242689D01*
X18414195Y14137627D01*
X18367277Y14084342D01*
X18299000Y14064881D01*
X18231040Y14085423D01*
X18185805Y14137627D01*
X18136814Y14242689D01*
X18136811Y14242694D01*
X18134488Y14247676D01*
X18131331Y14252185D01*
X18010136Y14425270D01*
X18010134Y14425273D01*
X18006977Y14429781D01*
X17849781Y14586977D01*
X17845273Y14590134D01*
X17845270Y14590136D01*
X17769505Y14643187D01*
X17667677Y14714488D01*
X17662695Y14716811D01*
X17662690Y14716814D01*
X17471178Y14806117D01*
X17471177Y14806118D01*
X17466196Y14808440D01*
X17460888Y14809862D01*
X17460886Y14809863D01*
X17395051Y14827503D01*
X17251463Y14865978D01*
X17030000Y14885353D01*
X16808537Y14865978D01*
X16664949Y14827503D01*
X16599114Y14809863D01*
X16599112Y14809862D01*
X16593804Y14808440D01*
X16588823Y14806118D01*
X16588822Y14806117D01*
X16397311Y14716814D01*
X16397306Y14716811D01*
X16392324Y14714488D01*
X16387817Y14711332D01*
X16387815Y14711331D01*
X16214730Y14590136D01*
X16214727Y14590134D01*
X16210219Y14586977D01*
X16053023Y14429781D01*
X16049866Y14425273D01*
X16049864Y14425270D01*
X15928669Y14252185D01*
X15925512Y14247676D01*
X15923189Y14242694D01*
X15923186Y14242689D01*
X15874195Y14137627D01*
X15827277Y14084342D01*
X15759000Y14064881D01*
X15691040Y14085423D01*
X15645805Y14137627D01*
X15596814Y14242689D01*
X15596811Y14242694D01*
X15594488Y14247676D01*
X15591331Y14252185D01*
X15470136Y14425270D01*
X15470134Y14425273D01*
X15466977Y14429781D01*
X15309781Y14586977D01*
X15305273Y14590134D01*
X15305270Y14590136D01*
X15229505Y14643187D01*
X15127677Y14714488D01*
X15122695Y14716811D01*
X15122690Y14716814D01*
X14931178Y14806117D01*
X14931177Y14806118D01*
X14926196Y14808440D01*
X14920888Y14809862D01*
X14920886Y14809863D01*
X14855051Y14827503D01*
X14711463Y14865978D01*
X14490000Y14885353D01*
X14268537Y14865978D01*
X14124949Y14827503D01*
X14059114Y14809863D01*
X14059112Y14809862D01*
X14053804Y14808440D01*
X14048823Y14806118D01*
X14048822Y14806117D01*
X13857311Y14716814D01*
X13857306Y14716811D01*
X13852324Y14714488D01*
X13847817Y14711332D01*
X13847815Y14711331D01*
X13674730Y14590136D01*
X13674727Y14590134D01*
X13670219Y14586977D01*
X13513023Y14429781D01*
X13509866Y14425273D01*
X13509864Y14425270D01*
X13388669Y14252185D01*
X13385512Y14247676D01*
X13383189Y14242694D01*
X13383186Y14242689D01*
X13333919Y14137035D01*
X13287001Y14083750D01*
X13218724Y14064289D01*
X13150764Y14084831D01*
X13105529Y14137035D01*
X13056377Y14242441D01*
X13050897Y14251932D01*
X13020206Y14295765D01*
X13009729Y14304140D01*
X12996282Y14297072D01*
X12322022Y13622812D01*
X12314408Y13608868D01*
X11591922Y13608868D01*
X10902997Y14297793D01*
X10891223Y14304223D01*
X10879207Y14294926D01*
X10849103Y14251932D01*
X10843623Y14242441D01*
X10794471Y14137035D01*
X10747553Y14083750D01*
X10679276Y14064289D01*
X10611316Y14084831D01*
X10566081Y14137035D01*
X10516814Y14242689D01*
X10516811Y14242694D01*
X10514488Y14247676D01*
X10511331Y14252185D01*
X10390136Y14425270D01*
X10390134Y14425273D01*
X10386977Y14429781D01*
X10229781Y14586977D01*
X10225273Y14590134D01*
X10225270Y14590136D01*
X10149505Y14643187D01*
X10111599Y14669729D01*
X11255860Y14669729D01*
X11262928Y14656282D01*
X11937188Y13982022D01*
X11951132Y13974408D01*
X11952965Y13974539D01*
X11959580Y13978790D01*
X12637793Y14657003D01*
X12644223Y14668777D01*
X12634926Y14680793D01*
X12591931Y14710898D01*
X12582445Y14716376D01*
X12391007Y14805645D01*
X12380715Y14809391D01*
X12176691Y14864059D01*
X12165896Y14865962D01*
X11955475Y14884372D01*
X11944525Y14884372D01*
X11734104Y14865962D01*
X11723309Y14864059D01*
X11519285Y14809391D01*
X11508993Y14805645D01*
X11317559Y14716377D01*
X11308068Y14710897D01*
X11264235Y14680206D01*
X11255860Y14669729D01*
X10111599Y14669729D01*
X10047677Y14714488D01*
X10042695Y14716811D01*
X10042690Y14716814D01*
X9851178Y14806117D01*
X9851177Y14806118D01*
X9846196Y14808440D01*
X9840888Y14809862D01*
X9840886Y14809863D01*
X9775051Y14827503D01*
X9631463Y14865978D01*
X9410000Y14885353D01*
X9188537Y14865978D01*
X9044949Y14827503D01*
X8979114Y14809863D01*
X8979112Y14809862D01*
X8973804Y14808440D01*
X8968823Y14806118D01*
X8968822Y14806117D01*
X8777311Y14716814D01*
X8777306Y14716811D01*
X8772324Y14714488D01*
X8767817Y14711332D01*
X8767815Y14711331D01*
X8594730Y14590136D01*
X8594727Y14590134D01*
X8590219Y14586977D01*
X8433023Y14429781D01*
X8429866Y14425273D01*
X8429864Y14425270D01*
X8308669Y14252185D01*
X8305512Y14247676D01*
X8303189Y14242694D01*
X8303186Y14242689D01*
X8254195Y14137627D01*
X8207277Y14084342D01*
X8139000Y14064881D01*
X8071040Y14085423D01*
X8025805Y14137627D01*
X7976814Y14242689D01*
X7976811Y14242694D01*
X7974488Y14247676D01*
X7971331Y14252185D01*
X7850136Y14425270D01*
X7850134Y14425273D01*
X7846977Y14429781D01*
X7689781Y14586977D01*
X7685273Y14590134D01*
X7685270Y14590136D01*
X7609505Y14643187D01*
X7507677Y14714488D01*
X7502695Y14716811D01*
X7502690Y14716814D01*
X7311178Y14806117D01*
X7311177Y14806118D01*
X7306196Y14808440D01*
X7300888Y14809862D01*
X7300886Y14809863D01*
X7235051Y14827503D01*
X7091463Y14865978D01*
X6870000Y14885353D01*
X6648537Y14865978D01*
X6504949Y14827503D01*
X6439114Y14809863D01*
X6439112Y14809862D01*
X6433804Y14808440D01*
X6428823Y14806118D01*
X6428822Y14806117D01*
X6237311Y14716814D01*
X6237306Y14716811D01*
X6232324Y14714488D01*
X6227817Y14711332D01*
X6227815Y14711331D01*
X6054730Y14590136D01*
X6054727Y14590134D01*
X6050219Y14586977D01*
X5893023Y14429781D01*
X5889866Y14425273D01*
X5889864Y14425270D01*
X5768669Y14252185D01*
X5765512Y14247676D01*
X5763189Y14242694D01*
X5763186Y14242689D01*
X5714195Y14137627D01*
X5671560Y14046196D01*
X5614022Y13831463D01*
X5594647Y13610000D01*
X508500Y13610000D01*
X508500Y21441223D01*
X13805777Y21441223D01*
X13815074Y21429207D01*
X13858069Y21399102D01*
X13867555Y21393624D01*
X14058993Y21304355D01*
X14069285Y21300609D01*
X14273309Y21245941D01*
X14284104Y21244038D01*
X14494525Y21225628D01*
X14505475Y21225628D01*
X14715896Y21244038D01*
X14726691Y21245941D01*
X14930715Y21300609D01*
X14941007Y21304355D01*
X15132445Y21393624D01*
X15141931Y21399102D01*
X15185764Y21429793D01*
X15194139Y21440271D01*
X15187071Y21453719D01*
X14512812Y22127978D01*
X14498868Y22135592D01*
X14497035Y22135461D01*
X14490420Y22131210D01*
X13812207Y21452997D01*
X13805777Y21441223D01*
X508500Y21441223D01*
X508500Y22494525D01*
X13225628Y22494525D01*
X13244038Y22284104D01*
X13245941Y22273309D01*
X13300609Y22069285D01*
X13304355Y22058993D01*
X13393623Y21867559D01*
X13399103Y21858068D01*
X13429794Y21814235D01*
X13440271Y21805860D01*
X13453718Y21812928D01*
X14127978Y22487188D01*
X14134356Y22498868D01*
X14864408Y22498868D01*
X14864539Y22497035D01*
X14868790Y22490420D01*
X15547003Y21812207D01*
X15558777Y21805777D01*
X15570793Y21815074D01*
X15600897Y21858068D01*
X15606377Y21867559D01*
X15695645Y22058993D01*
X15699391Y22069285D01*
X15754059Y22273309D01*
X15755962Y22284104D01*
X15774372Y22494525D01*
X15774372Y22500000D01*
X18224647Y22500000D01*
X18244022Y22278537D01*
X18301560Y22063804D01*
X18303882Y22058823D01*
X18303883Y22058822D01*
X18393186Y21867311D01*
X18393189Y21867306D01*
X18395512Y21862324D01*
X18398668Y21857817D01*
X18398669Y21857815D01*
X18435107Y21805777D01*
X18523023Y21680219D01*
X18680219Y21523023D01*
X18684727Y21519866D01*
X18684730Y21519864D01*
X18760495Y21466813D01*
X18862323Y21395512D01*
X18867305Y21393189D01*
X18867310Y21393186D01*
X19057810Y21304355D01*
X19063804Y21301560D01*
X19069112Y21300138D01*
X19069114Y21300137D01*
X19134949Y21282497D01*
X19278537Y21244022D01*
X19500000Y21224647D01*
X19721463Y21244022D01*
X19865051Y21282497D01*
X19930886Y21300137D01*
X19930888Y21300138D01*
X19936196Y21301560D01*
X19942190Y21304355D01*
X20132690Y21393186D01*
X20132695Y21393189D01*
X20137677Y21395512D01*
X20239505Y21466813D01*
X20315270Y21519864D01*
X20315273Y21519866D01*
X20319781Y21523023D01*
X20476977Y21680219D01*
X20564894Y21805777D01*
X20601331Y21857815D01*
X20601332Y21857817D01*
X20604488Y21862324D01*
X20606811Y21867306D01*
X20606814Y21867311D01*
X20696117Y22058822D01*
X20696118Y22058823D01*
X20698440Y22063804D01*
X20755978Y22278537D01*
X20775353Y22500000D01*
X20755978Y22721463D01*
X20698440Y22936196D01*
X20666661Y23004347D01*
X20606814Y23132689D01*
X20606811Y23132694D01*
X20604488Y23137676D01*
X20571824Y23184325D01*
X20480136Y23315270D01*
X20480134Y23315273D01*
X20476977Y23319781D01*
X20319781Y23476977D01*
X20315273Y23480134D01*
X20315270Y23480136D01*
X20231507Y23538787D01*
X20137677Y23604488D01*
X20132695Y23606811D01*
X20132690Y23606814D01*
X19941178Y23696117D01*
X19941177Y23696118D01*
X19936196Y23698440D01*
X19930888Y23699862D01*
X19930886Y23699863D01*
X19843481Y23723283D01*
X19721463Y23755978D01*
X19500000Y23775353D01*
X19278537Y23755978D01*
X19156519Y23723283D01*
X19069114Y23699863D01*
X19069112Y23699862D01*
X19063804Y23698440D01*
X19058823Y23696118D01*
X19058822Y23696117D01*
X18867311Y23606814D01*
X18867306Y23606811D01*
X18862324Y23604488D01*
X18857817Y23601332D01*
X18857815Y23601331D01*
X18684730Y23480136D01*
X18684727Y23480134D01*
X18680219Y23476977D01*
X18523023Y23319781D01*
X18519866Y23315273D01*
X18519864Y23315270D01*
X18428176Y23184325D01*
X18395512Y23137676D01*
X18393189Y23132694D01*
X18393186Y23132689D01*
X18333339Y23004347D01*
X18301560Y22936196D01*
X18244022Y22721463D01*
X18224647Y22500000D01*
X15774372Y22500000D01*
X15774372Y22505475D01*
X15755962Y22715896D01*
X15754059Y22726691D01*
X15699391Y22930715D01*
X15695645Y22941007D01*
X15606377Y23132441D01*
X15600897Y23141932D01*
X15570206Y23185765D01*
X15559729Y23194140D01*
X15546282Y23187072D01*
X14872022Y22512812D01*
X14864408Y22498868D01*
X14134356Y22498868D01*
X14135592Y22501132D01*
X14135461Y22502965D01*
X14131210Y22509580D01*
X13452997Y23187793D01*
X13441223Y23194223D01*
X13429207Y23184926D01*
X13399103Y23141932D01*
X13393623Y23132441D01*
X13304355Y22941007D01*
X13300609Y22930715D01*
X13245941Y22726691D01*
X13244038Y22715896D01*
X13225628Y22505475D01*
X13225628Y22494525D01*
X508500Y22494525D01*
X508500Y23559729D01*
X13805860Y23559729D01*
X13812928Y23546282D01*
X14487188Y22872022D01*
X14501132Y22864408D01*
X14502965Y22864539D01*
X14509580Y22868790D01*
X15187793Y23547003D01*
X15194223Y23558777D01*
X15184926Y23570793D01*
X15141931Y23600898D01*
X15132445Y23606376D01*
X14941007Y23695645D01*
X14930715Y23699391D01*
X14726691Y23754059D01*
X14715896Y23755962D01*
X14505475Y23774372D01*
X14494525Y23774372D01*
X14284104Y23755962D01*
X14273309Y23754059D01*
X14069285Y23699391D01*
X14058993Y23695645D01*
X13867559Y23606377D01*
X13858068Y23600897D01*
X13814235Y23570206D01*
X13805860Y23559729D01*
X508500Y23559729D01*
X508500Y31390000D01*
X5594647Y31390000D01*
X5614022Y31168537D01*
X5671560Y30953804D01*
X5673882Y30948823D01*
X5673883Y30948822D01*
X5763186Y30757311D01*
X5763189Y30757306D01*
X5765512Y30752324D01*
X5768668Y30747817D01*
X5768669Y30747815D01*
X5851805Y30629085D01*
X5893023Y30570219D01*
X6050219Y30413023D01*
X6054727Y30409866D01*
X6054730Y30409864D01*
X6114964Y30367688D01*
X6232323Y30285512D01*
X6237305Y30283189D01*
X6237310Y30283186D01*
X6401557Y30206597D01*
X6433804Y30191560D01*
X6439112Y30190138D01*
X6439114Y30190137D01*
X6460805Y30184325D01*
X6648537Y30134022D01*
X6870000Y30114647D01*
X7091463Y30134022D01*
X7279195Y30184325D01*
X7300886Y30190137D01*
X7300888Y30190138D01*
X7306196Y30191560D01*
X7338443Y30206597D01*
X7502690Y30283186D01*
X7502695Y30283189D01*
X7507677Y30285512D01*
X7625036Y30367688D01*
X7685270Y30409864D01*
X7685273Y30409866D01*
X7689781Y30413023D01*
X7846977Y30570219D01*
X7888196Y30629085D01*
X7971331Y30747815D01*
X7971332Y30747817D01*
X7974488Y30752324D01*
X7976811Y30757306D01*
X7976814Y30757311D01*
X8025805Y30862373D01*
X8072723Y30915658D01*
X8141000Y30935119D01*
X8208960Y30914577D01*
X8254195Y30862373D01*
X8303186Y30757311D01*
X8303189Y30757306D01*
X8305512Y30752324D01*
X8308668Y30747817D01*
X8308669Y30747815D01*
X8391805Y30629085D01*
X8433023Y30570219D01*
X8590219Y30413023D01*
X8594727Y30409866D01*
X8594730Y30409864D01*
X8654964Y30367688D01*
X8772323Y30285512D01*
X8777305Y30283189D01*
X8777310Y30283186D01*
X8941557Y30206597D01*
X8973804Y30191560D01*
X8979112Y30190138D01*
X8979114Y30190137D01*
X9000805Y30184325D01*
X9188537Y30134022D01*
X9410000Y30114647D01*
X9631463Y30134022D01*
X9819195Y30184325D01*
X9840886Y30190137D01*
X9840888Y30190138D01*
X9846196Y30191560D01*
X9878443Y30206597D01*
X10042690Y30283186D01*
X10042695Y30283189D01*
X10047677Y30285512D01*
X10112959Y30331223D01*
X11255777Y30331223D01*
X11265074Y30319207D01*
X11308069Y30289102D01*
X11317555Y30283624D01*
X11508993Y30194355D01*
X11519285Y30190609D01*
X11723309Y30135941D01*
X11734104Y30134038D01*
X11944525Y30115628D01*
X11955475Y30115628D01*
X12165896Y30134038D01*
X12176691Y30135941D01*
X12380715Y30190609D01*
X12391007Y30194355D01*
X12582445Y30283624D01*
X12591931Y30289102D01*
X12635764Y30319793D01*
X12644139Y30330271D01*
X12637071Y30343719D01*
X11962812Y31017978D01*
X11948868Y31025592D01*
X11947035Y31025461D01*
X11940420Y31021210D01*
X11262207Y30342997D01*
X11255777Y30331223D01*
X10112959Y30331223D01*
X10165036Y30367688D01*
X10225270Y30409864D01*
X10225273Y30409866D01*
X10229781Y30413023D01*
X10386977Y30570219D01*
X10428196Y30629085D01*
X10511331Y30747815D01*
X10511332Y30747817D01*
X10514488Y30752324D01*
X10516811Y30757306D01*
X10516814Y30757311D01*
X10566081Y30862965D01*
X10612999Y30916250D01*
X10681276Y30935711D01*
X10749236Y30915169D01*
X10794471Y30862965D01*
X10843623Y30757559D01*
X10849103Y30748068D01*
X10879794Y30704235D01*
X10890271Y30695860D01*
X10903718Y30702928D01*
X11577978Y31377188D01*
X11584356Y31388868D01*
X12314408Y31388868D01*
X12314539Y31387035D01*
X12318790Y31380420D01*
X12997003Y30702207D01*
X13008777Y30695777D01*
X13020793Y30705074D01*
X13050897Y30748068D01*
X13056377Y30757559D01*
X13105529Y30862965D01*
X13152447Y30916250D01*
X13220724Y30935711D01*
X13288684Y30915169D01*
X13333919Y30862965D01*
X13383186Y30757311D01*
X13383189Y30757306D01*
X13385512Y30752324D01*
X13388668Y30747817D01*
X13388669Y30747815D01*
X13471805Y30629085D01*
X13513023Y30570219D01*
X13670219Y30413023D01*
X13674727Y30409866D01*
X13674730Y30409864D01*
X13734964Y30367688D01*
X13852323Y30285512D01*
X13857305Y30283189D01*
X13857310Y30283186D01*
X14021557Y30206597D01*
X14053804Y30191560D01*
X14059112Y30190138D01*
X14059114Y30190137D01*
X14080805Y30184325D01*
X14268537Y30134022D01*
X14490000Y30114647D01*
X14711463Y30134022D01*
X14899195Y30184325D01*
X14920886Y30190137D01*
X14920888Y30190138D01*
X14926196Y30191560D01*
X14958443Y30206597D01*
X15122690Y30283186D01*
X15122695Y30283189D01*
X15127677Y30285512D01*
X15245036Y30367688D01*
X15305270Y30409864D01*
X15305273Y30409866D01*
X15309781Y30413023D01*
X15466977Y30570219D01*
X15508196Y30629085D01*
X15591331Y30747815D01*
X15591332Y30747817D01*
X15594488Y30752324D01*
X15596811Y30757306D01*
X15596814Y30757311D01*
X15645805Y30862373D01*
X15692723Y30915658D01*
X15761000Y30935119D01*
X15828960Y30914577D01*
X15874195Y30862373D01*
X15923186Y30757311D01*
X15923189Y30757306D01*
X15925512Y30752324D01*
X15928668Y30747817D01*
X15928669Y30747815D01*
X16011805Y30629085D01*
X16053023Y30570219D01*
X16210219Y30413023D01*
X16214727Y30409866D01*
X16214730Y30409864D01*
X16274964Y30367688D01*
X16392323Y30285512D01*
X16397305Y30283189D01*
X16397310Y30283186D01*
X16561557Y30206597D01*
X16593804Y30191560D01*
X16599112Y30190138D01*
X16599114Y30190137D01*
X16620805Y30184325D01*
X16808537Y30134022D01*
X17030000Y30114647D01*
X17251463Y30134022D01*
X17439195Y30184325D01*
X17460886Y30190137D01*
X17460888Y30190138D01*
X17466196Y30191560D01*
X17498443Y30206597D01*
X17662690Y30283186D01*
X17662695Y30283189D01*
X17667677Y30285512D01*
X17785036Y30367688D01*
X17845270Y30409864D01*
X17845273Y30409866D01*
X17849781Y30413023D01*
X18006977Y30570219D01*
X18048196Y30629085D01*
X18131331Y30747815D01*
X18131332Y30747817D01*
X18134488Y30752324D01*
X18136811Y30757306D01*
X18136814Y30757311D01*
X18185805Y30862373D01*
X18232723Y30915658D01*
X18301000Y30935119D01*
X18368960Y30914577D01*
X18414195Y30862373D01*
X18463186Y30757311D01*
X18463189Y30757306D01*
X18465512Y30752324D01*
X18468668Y30747817D01*
X18468669Y30747815D01*
X18551805Y30629085D01*
X18593023Y30570219D01*
X18750219Y30413023D01*
X18754727Y30409866D01*
X18754730Y30409864D01*
X18814964Y30367688D01*
X18932323Y30285512D01*
X18937305Y30283189D01*
X18937310Y30283186D01*
X19101557Y30206597D01*
X19133804Y30191560D01*
X19139112Y30190138D01*
X19139114Y30190137D01*
X19160805Y30184325D01*
X19348537Y30134022D01*
X19570000Y30114647D01*
X19791463Y30134022D01*
X19979195Y30184325D01*
X20000886Y30190137D01*
X20000888Y30190138D01*
X20006196Y30191560D01*
X20038443Y30206597D01*
X20202690Y30283186D01*
X20202695Y30283189D01*
X20207677Y30285512D01*
X20325036Y30367688D01*
X20385270Y30409864D01*
X20385273Y30409866D01*
X20389781Y30413023D01*
X20546977Y30570219D01*
X20588196Y30629085D01*
X20671331Y30747815D01*
X20671332Y30747817D01*
X20674488Y30752324D01*
X20676811Y30757306D01*
X20676814Y30757311D01*
X20725805Y30862373D01*
X20772723Y30915658D01*
X20841000Y30935119D01*
X20908960Y30914577D01*
X20954195Y30862373D01*
X21003186Y30757311D01*
X21003189Y30757306D01*
X21005512Y30752324D01*
X21008668Y30747817D01*
X21008669Y30747815D01*
X21091805Y30629085D01*
X21133023Y30570219D01*
X21290219Y30413023D01*
X21294727Y30409866D01*
X21294730Y30409864D01*
X21354964Y30367688D01*
X21472323Y30285512D01*
X21477305Y30283189D01*
X21477310Y30283186D01*
X21641557Y30206597D01*
X21673804Y30191560D01*
X21679112Y30190138D01*
X21679114Y30190137D01*
X21700805Y30184325D01*
X21888537Y30134022D01*
X22110000Y30114647D01*
X22331463Y30134022D01*
X22519195Y30184325D01*
X22540886Y30190137D01*
X22540888Y30190138D01*
X22546196Y30191560D01*
X22578443Y30206597D01*
X22742690Y30283186D01*
X22742695Y30283189D01*
X22747677Y30285512D01*
X22812959Y30331223D01*
X23955777Y30331223D01*
X23965074Y30319207D01*
X24008069Y30289102D01*
X24017555Y30283624D01*
X24208993Y30194355D01*
X24219285Y30190609D01*
X24423309Y30135941D01*
X24434104Y30134038D01*
X24644525Y30115628D01*
X24655475Y30115628D01*
X24865896Y30134038D01*
X24876691Y30135941D01*
X25080715Y30190609D01*
X25091007Y30194355D01*
X25282445Y30283624D01*
X25291931Y30289102D01*
X25335764Y30319793D01*
X25344139Y30330271D01*
X25337071Y30343719D01*
X24662812Y31017978D01*
X24648868Y31025592D01*
X24647035Y31025461D01*
X24640420Y31021210D01*
X23962207Y30342997D01*
X23955777Y30331223D01*
X22812959Y30331223D01*
X22865036Y30367688D01*
X22925270Y30409864D01*
X22925273Y30409866D01*
X22929781Y30413023D01*
X23086977Y30570219D01*
X23128196Y30629085D01*
X23211331Y30747815D01*
X23211332Y30747817D01*
X23214488Y30752324D01*
X23216811Y30757306D01*
X23216814Y30757311D01*
X23266081Y30862965D01*
X23312999Y30916250D01*
X23381276Y30935711D01*
X23449236Y30915169D01*
X23494471Y30862965D01*
X23543623Y30757559D01*
X23549103Y30748068D01*
X23579794Y30704235D01*
X23590271Y30695860D01*
X23603718Y30702928D01*
X24277978Y31377188D01*
X24284356Y31388868D01*
X25014408Y31388868D01*
X25014539Y31387035D01*
X25018790Y31380420D01*
X25697003Y30702207D01*
X25708777Y30695777D01*
X25720793Y30705074D01*
X25750897Y30748068D01*
X25756377Y30757559D01*
X25805529Y30862965D01*
X25852447Y30916250D01*
X25920724Y30935711D01*
X25988684Y30915169D01*
X26033919Y30862965D01*
X26083186Y30757311D01*
X26083189Y30757306D01*
X26085512Y30752324D01*
X26088668Y30747817D01*
X26088669Y30747815D01*
X26171805Y30629085D01*
X26213023Y30570219D01*
X26370219Y30413023D01*
X26374727Y30409866D01*
X26374730Y30409864D01*
X26434964Y30367688D01*
X26552323Y30285512D01*
X26557305Y30283189D01*
X26557310Y30283186D01*
X26721557Y30206597D01*
X26753804Y30191560D01*
X26759112Y30190138D01*
X26759114Y30190137D01*
X26780805Y30184325D01*
X26968537Y30134022D01*
X27190000Y30114647D01*
X27411463Y30134022D01*
X27599195Y30184325D01*
X27620886Y30190137D01*
X27620888Y30190138D01*
X27626196Y30191560D01*
X27658443Y30206597D01*
X27822690Y30283186D01*
X27822695Y30283189D01*
X27827677Y30285512D01*
X27945036Y30367688D01*
X28005270Y30409864D01*
X28005273Y30409866D01*
X28009781Y30413023D01*
X28166977Y30570219D01*
X28208196Y30629085D01*
X28291331Y30747815D01*
X28291332Y30747817D01*
X28294488Y30752324D01*
X28296811Y30757306D01*
X28296814Y30757311D01*
X28345805Y30862373D01*
X28392723Y30915658D01*
X28461000Y30935119D01*
X28528960Y30914577D01*
X28574195Y30862373D01*
X28623186Y30757311D01*
X28623189Y30757306D01*
X28625512Y30752324D01*
X28628668Y30747817D01*
X28628669Y30747815D01*
X28711805Y30629085D01*
X28753023Y30570219D01*
X28910219Y30413023D01*
X28914727Y30409866D01*
X28914730Y30409864D01*
X28974964Y30367688D01*
X29092323Y30285512D01*
X29097305Y30283189D01*
X29097310Y30283186D01*
X29261557Y30206597D01*
X29293804Y30191560D01*
X29299112Y30190138D01*
X29299114Y30190137D01*
X29320805Y30184325D01*
X29508537Y30134022D01*
X29730000Y30114647D01*
X29951463Y30134022D01*
X30139195Y30184325D01*
X30160886Y30190137D01*
X30160888Y30190138D01*
X30166196Y30191560D01*
X30198443Y30206597D01*
X30362690Y30283186D01*
X30362695Y30283189D01*
X30367677Y30285512D01*
X30485036Y30367688D01*
X30545270Y30409864D01*
X30545273Y30409866D01*
X30549781Y30413023D01*
X30706977Y30570219D01*
X30748196Y30629085D01*
X30831331Y30747815D01*
X30831332Y30747817D01*
X30834488Y30752324D01*
X30836811Y30757306D01*
X30836814Y30757311D01*
X30885805Y30862373D01*
X30932723Y30915658D01*
X31001000Y30935119D01*
X31068960Y30914577D01*
X31114195Y30862373D01*
X31163186Y30757311D01*
X31163189Y30757306D01*
X31165512Y30752324D01*
X31168668Y30747817D01*
X31168669Y30747815D01*
X31251805Y30629085D01*
X31293023Y30570219D01*
X31450219Y30413023D01*
X31454727Y30409866D01*
X31454730Y30409864D01*
X31514964Y30367688D01*
X31632323Y30285512D01*
X31637305Y30283189D01*
X31637310Y30283186D01*
X31801557Y30206597D01*
X31833804Y30191560D01*
X31839112Y30190138D01*
X31839114Y30190137D01*
X31860805Y30184325D01*
X32048537Y30134022D01*
X32270000Y30114647D01*
X32491463Y30134022D01*
X32679195Y30184325D01*
X32700886Y30190137D01*
X32700888Y30190138D01*
X32706196Y30191560D01*
X32738443Y30206597D01*
X32902690Y30283186D01*
X32902695Y30283189D01*
X32907677Y30285512D01*
X33025036Y30367688D01*
X33085270Y30409864D01*
X33085273Y30409866D01*
X33089781Y30413023D01*
X33246977Y30570219D01*
X33288196Y30629085D01*
X33371331Y30747815D01*
X33371332Y30747817D01*
X33374488Y30752324D01*
X33376811Y30757306D01*
X33376814Y30757311D01*
X33425805Y30862373D01*
X33472723Y30915658D01*
X33541000Y30935119D01*
X33608960Y30914577D01*
X33654195Y30862373D01*
X33703186Y30757311D01*
X33703189Y30757306D01*
X33705512Y30752324D01*
X33708668Y30747817D01*
X33708669Y30747815D01*
X33791805Y30629085D01*
X33833023Y30570219D01*
X33990219Y30413023D01*
X33994727Y30409866D01*
X33994730Y30409864D01*
X34054964Y30367688D01*
X34172323Y30285512D01*
X34177305Y30283189D01*
X34177310Y30283186D01*
X34341557Y30206597D01*
X34373804Y30191560D01*
X34379112Y30190138D01*
X34379114Y30190137D01*
X34400805Y30184325D01*
X34588537Y30134022D01*
X34810000Y30114647D01*
X35031463Y30134022D01*
X35219195Y30184325D01*
X35240886Y30190137D01*
X35240888Y30190138D01*
X35246196Y30191560D01*
X35278443Y30206597D01*
X35442690Y30283186D01*
X35442695Y30283189D01*
X35447677Y30285512D01*
X35512959Y30331223D01*
X36655777Y30331223D01*
X36665074Y30319207D01*
X36708069Y30289102D01*
X36717555Y30283624D01*
X36908993Y30194355D01*
X36919285Y30190609D01*
X37123309Y30135941D01*
X37134104Y30134038D01*
X37344525Y30115628D01*
X37355475Y30115628D01*
X37565896Y30134038D01*
X37576691Y30135941D01*
X37780715Y30190609D01*
X37791007Y30194355D01*
X37982445Y30283624D01*
X37991931Y30289102D01*
X38035764Y30319793D01*
X38044139Y30330271D01*
X38037071Y30343719D01*
X37362812Y31017978D01*
X37348868Y31025592D01*
X37347035Y31025461D01*
X37340420Y31021210D01*
X36662207Y30342997D01*
X36655777Y30331223D01*
X35512959Y30331223D01*
X35565036Y30367688D01*
X35625270Y30409864D01*
X35625273Y30409866D01*
X35629781Y30413023D01*
X35786977Y30570219D01*
X35828196Y30629085D01*
X35911331Y30747815D01*
X35911332Y30747817D01*
X35914488Y30752324D01*
X35916811Y30757306D01*
X35916814Y30757311D01*
X35966081Y30862965D01*
X36012999Y30916250D01*
X36081276Y30935711D01*
X36149236Y30915169D01*
X36194471Y30862965D01*
X36243623Y30757559D01*
X36249103Y30748068D01*
X36279794Y30704235D01*
X36290271Y30695860D01*
X36303718Y30702928D01*
X36977978Y31377188D01*
X36984356Y31388868D01*
X37714408Y31388868D01*
X37714539Y31387035D01*
X37718790Y31380420D01*
X38397003Y30702207D01*
X38408777Y30695777D01*
X38420793Y30705074D01*
X38450897Y30748068D01*
X38456377Y30757559D01*
X38505529Y30862965D01*
X38552447Y30916250D01*
X38620724Y30935711D01*
X38688684Y30915169D01*
X38733919Y30862965D01*
X38783186Y30757311D01*
X38783189Y30757306D01*
X38785512Y30752324D01*
X38788668Y30747817D01*
X38788669Y30747815D01*
X38871805Y30629085D01*
X38913023Y30570219D01*
X39070219Y30413023D01*
X39074727Y30409866D01*
X39074730Y30409864D01*
X39134964Y30367688D01*
X39252323Y30285512D01*
X39257305Y30283189D01*
X39257310Y30283186D01*
X39421557Y30206597D01*
X39453804Y30191560D01*
X39459112Y30190138D01*
X39459114Y30190137D01*
X39480805Y30184325D01*
X39668537Y30134022D01*
X39890000Y30114647D01*
X40111463Y30134022D01*
X40299195Y30184325D01*
X40320886Y30190137D01*
X40320888Y30190138D01*
X40326196Y30191560D01*
X40358443Y30206597D01*
X40522690Y30283186D01*
X40522695Y30283189D01*
X40527677Y30285512D01*
X40645036Y30367688D01*
X40705270Y30409864D01*
X40705273Y30409866D01*
X40709781Y30413023D01*
X40866977Y30570219D01*
X40908196Y30629085D01*
X40991331Y30747815D01*
X40991332Y30747817D01*
X40994488Y30752324D01*
X40996811Y30757306D01*
X40996814Y30757311D01*
X41045805Y30862373D01*
X41092723Y30915658D01*
X41161000Y30935119D01*
X41228960Y30914577D01*
X41274195Y30862373D01*
X41323186Y30757311D01*
X41323189Y30757306D01*
X41325512Y30752324D01*
X41328668Y30747817D01*
X41328669Y30747815D01*
X41411805Y30629085D01*
X41453023Y30570219D01*
X41610219Y30413023D01*
X41614727Y30409866D01*
X41614730Y30409864D01*
X41674964Y30367688D01*
X41792323Y30285512D01*
X41797305Y30283189D01*
X41797310Y30283186D01*
X41961557Y30206597D01*
X41993804Y30191560D01*
X41999112Y30190138D01*
X41999114Y30190137D01*
X42020805Y30184325D01*
X42208537Y30134022D01*
X42430000Y30114647D01*
X42651463Y30134022D01*
X42839195Y30184325D01*
X42860886Y30190137D01*
X42860888Y30190138D01*
X42866196Y30191560D01*
X42898443Y30206597D01*
X43062690Y30283186D01*
X43062695Y30283189D01*
X43067677Y30285512D01*
X43185036Y30367688D01*
X43245270Y30409864D01*
X43245273Y30409866D01*
X43249781Y30413023D01*
X43406977Y30570219D01*
X43448196Y30629085D01*
X43531331Y30747815D01*
X43531332Y30747817D01*
X43534488Y30752324D01*
X43536811Y30757306D01*
X43536814Y30757311D01*
X43585805Y30862373D01*
X43632723Y30915658D01*
X43701000Y30935119D01*
X43768960Y30914577D01*
X43814195Y30862373D01*
X43863186Y30757311D01*
X43863189Y30757306D01*
X43865512Y30752324D01*
X43868668Y30747817D01*
X43868669Y30747815D01*
X43951805Y30629085D01*
X43993023Y30570219D01*
X44150219Y30413023D01*
X44154727Y30409866D01*
X44154730Y30409864D01*
X44214964Y30367688D01*
X44332323Y30285512D01*
X44337305Y30283189D01*
X44337310Y30283186D01*
X44501557Y30206597D01*
X44533804Y30191560D01*
X44539112Y30190138D01*
X44539114Y30190137D01*
X44560805Y30184325D01*
X44748537Y30134022D01*
X44970000Y30114647D01*
X45191463Y30134022D01*
X45379195Y30184325D01*
X45400886Y30190137D01*
X45400888Y30190138D01*
X45406196Y30191560D01*
X45438443Y30206597D01*
X45602690Y30283186D01*
X45602695Y30283189D01*
X45607677Y30285512D01*
X45725036Y30367688D01*
X45785270Y30409864D01*
X45785273Y30409866D01*
X45789781Y30413023D01*
X45946977Y30570219D01*
X45988196Y30629085D01*
X46071331Y30747815D01*
X46071332Y30747817D01*
X46074488Y30752324D01*
X46076811Y30757306D01*
X46076814Y30757311D01*
X46125805Y30862373D01*
X46172723Y30915658D01*
X46241000Y30935119D01*
X46308960Y30914577D01*
X46354195Y30862373D01*
X46403186Y30757311D01*
X46403189Y30757306D01*
X46405512Y30752324D01*
X46408668Y30747817D01*
X46408669Y30747815D01*
X46491805Y30629085D01*
X46533023Y30570219D01*
X46690219Y30413023D01*
X46694727Y30409866D01*
X46694730Y30409864D01*
X46754964Y30367688D01*
X46872323Y30285512D01*
X46877305Y30283189D01*
X46877310Y30283186D01*
X47041557Y30206597D01*
X47073804Y30191560D01*
X47079112Y30190138D01*
X47079114Y30190137D01*
X47100805Y30184325D01*
X47288537Y30134022D01*
X47510000Y30114647D01*
X47731463Y30134022D01*
X47919195Y30184325D01*
X47940886Y30190137D01*
X47940888Y30190138D01*
X47946196Y30191560D01*
X47978443Y30206597D01*
X48142690Y30283186D01*
X48142695Y30283189D01*
X48147677Y30285512D01*
X48212959Y30331223D01*
X49355777Y30331223D01*
X49365074Y30319207D01*
X49408069Y30289102D01*
X49417555Y30283624D01*
X49608993Y30194355D01*
X49619285Y30190609D01*
X49823309Y30135941D01*
X49834104Y30134038D01*
X50044525Y30115628D01*
X50055475Y30115628D01*
X50265896Y30134038D01*
X50276691Y30135941D01*
X50480715Y30190609D01*
X50491007Y30194355D01*
X50682445Y30283624D01*
X50691931Y30289102D01*
X50735764Y30319793D01*
X50744139Y30330271D01*
X50737071Y30343719D01*
X50062812Y31017978D01*
X50048868Y31025592D01*
X50047035Y31025461D01*
X50040420Y31021210D01*
X49362207Y30342997D01*
X49355777Y30331223D01*
X48212959Y30331223D01*
X48265036Y30367688D01*
X48325270Y30409864D01*
X48325273Y30409866D01*
X48329781Y30413023D01*
X48486977Y30570219D01*
X48528196Y30629085D01*
X48611331Y30747815D01*
X48611332Y30747817D01*
X48614488Y30752324D01*
X48616811Y30757306D01*
X48616814Y30757311D01*
X48666081Y30862965D01*
X48712999Y30916250D01*
X48781276Y30935711D01*
X48849236Y30915169D01*
X48894471Y30862965D01*
X48943623Y30757559D01*
X48949103Y30748068D01*
X48979794Y30704235D01*
X48990271Y30695860D01*
X49003718Y30702928D01*
X49677978Y31377188D01*
X49685592Y31391132D01*
X49685461Y31392965D01*
X49681210Y31399580D01*
X49002997Y32077793D01*
X48991223Y32084223D01*
X48979207Y32074926D01*
X48949103Y32031932D01*
X48943623Y32022441D01*
X48894471Y31917035D01*
X48847553Y31863750D01*
X48779276Y31844289D01*
X48711316Y31864831D01*
X48666081Y31917035D01*
X48616814Y32022689D01*
X48616811Y32022694D01*
X48614488Y32027676D01*
X48611331Y32032185D01*
X48490136Y32205270D01*
X48490134Y32205273D01*
X48486977Y32209781D01*
X48329781Y32366977D01*
X48325273Y32370134D01*
X48325270Y32370136D01*
X48249505Y32423187D01*
X48211599Y32449729D01*
X49355860Y32449729D01*
X49362928Y32436282D01*
X50037188Y31762022D01*
X50051132Y31754408D01*
X50052965Y31754539D01*
X50059580Y31758790D01*
X50737793Y32437003D01*
X50744223Y32448777D01*
X50734926Y32460793D01*
X50691931Y32490898D01*
X50682445Y32496376D01*
X50491007Y32585645D01*
X50480715Y32589391D01*
X50276691Y32644059D01*
X50265896Y32645962D01*
X50055475Y32664372D01*
X50044525Y32664372D01*
X49834104Y32645962D01*
X49823309Y32644059D01*
X49619285Y32589391D01*
X49608993Y32585645D01*
X49417559Y32496377D01*
X49408068Y32490897D01*
X49364235Y32460206D01*
X49355860Y32449729D01*
X48211599Y32449729D01*
X48147677Y32494488D01*
X48142695Y32496811D01*
X48142690Y32496814D01*
X47951178Y32586117D01*
X47951177Y32586118D01*
X47946196Y32588440D01*
X47940888Y32589862D01*
X47940886Y32589863D01*
X47875051Y32607503D01*
X47731463Y32645978D01*
X47510000Y32665353D01*
X47288537Y32645978D01*
X47144949Y32607503D01*
X47079114Y32589863D01*
X47079112Y32589862D01*
X47073804Y32588440D01*
X47068823Y32586118D01*
X47068822Y32586117D01*
X46877311Y32496814D01*
X46877306Y32496811D01*
X46872324Y32494488D01*
X46867817Y32491332D01*
X46867815Y32491331D01*
X46694730Y32370136D01*
X46694727Y32370134D01*
X46690219Y32366977D01*
X46533023Y32209781D01*
X46529866Y32205273D01*
X46529864Y32205270D01*
X46408669Y32032185D01*
X46405512Y32027676D01*
X46403189Y32022694D01*
X46403186Y32022689D01*
X46354195Y31917627D01*
X46307277Y31864342D01*
X46239000Y31844881D01*
X46171040Y31865423D01*
X46125805Y31917627D01*
X46076814Y32022689D01*
X46076811Y32022694D01*
X46074488Y32027676D01*
X46071331Y32032185D01*
X45950136Y32205270D01*
X45950134Y32205273D01*
X45946977Y32209781D01*
X45789781Y32366977D01*
X45785273Y32370134D01*
X45785270Y32370136D01*
X45709505Y32423187D01*
X45607677Y32494488D01*
X45602695Y32496811D01*
X45602690Y32496814D01*
X45411178Y32586117D01*
X45411177Y32586118D01*
X45406196Y32588440D01*
X45400888Y32589862D01*
X45400886Y32589863D01*
X45335051Y32607503D01*
X45191463Y32645978D01*
X44970000Y32665353D01*
X44748537Y32645978D01*
X44604949Y32607503D01*
X44539114Y32589863D01*
X44539112Y32589862D01*
X44533804Y32588440D01*
X44528823Y32586118D01*
X44528822Y32586117D01*
X44337311Y32496814D01*
X44337306Y32496811D01*
X44332324Y32494488D01*
X44327817Y32491332D01*
X44327815Y32491331D01*
X44154730Y32370136D01*
X44154727Y32370134D01*
X44150219Y32366977D01*
X43993023Y32209781D01*
X43989866Y32205273D01*
X43989864Y32205270D01*
X43868669Y32032185D01*
X43865512Y32027676D01*
X43863189Y32022694D01*
X43863186Y32022689D01*
X43814195Y31917627D01*
X43767277Y31864342D01*
X43699000Y31844881D01*
X43631040Y31865423D01*
X43585805Y31917627D01*
X43536814Y32022689D01*
X43536811Y32022694D01*
X43534488Y32027676D01*
X43531331Y32032185D01*
X43410136Y32205270D01*
X43410134Y32205273D01*
X43406977Y32209781D01*
X43249781Y32366977D01*
X43245273Y32370134D01*
X43245270Y32370136D01*
X43169505Y32423187D01*
X43067677Y32494488D01*
X43062695Y32496811D01*
X43062690Y32496814D01*
X42871178Y32586117D01*
X42871177Y32586118D01*
X42866196Y32588440D01*
X42860888Y32589862D01*
X42860886Y32589863D01*
X42795051Y32607503D01*
X42651463Y32645978D01*
X42430000Y32665353D01*
X42208537Y32645978D01*
X42064949Y32607503D01*
X41999114Y32589863D01*
X41999112Y32589862D01*
X41993804Y32588440D01*
X41988823Y32586118D01*
X41988822Y32586117D01*
X41797311Y32496814D01*
X41797306Y32496811D01*
X41792324Y32494488D01*
X41787817Y32491332D01*
X41787815Y32491331D01*
X41614730Y32370136D01*
X41614727Y32370134D01*
X41610219Y32366977D01*
X41453023Y32209781D01*
X41449866Y32205273D01*
X41449864Y32205270D01*
X41328669Y32032185D01*
X41325512Y32027676D01*
X41323189Y32022694D01*
X41323186Y32022689D01*
X41274195Y31917627D01*
X41227277Y31864342D01*
X41159000Y31844881D01*
X41091040Y31865423D01*
X41045805Y31917627D01*
X40996814Y32022689D01*
X40996811Y32022694D01*
X40994488Y32027676D01*
X40991331Y32032185D01*
X40870136Y32205270D01*
X40870134Y32205273D01*
X40866977Y32209781D01*
X40709781Y32366977D01*
X40705273Y32370134D01*
X40705270Y32370136D01*
X40629505Y32423187D01*
X40527677Y32494488D01*
X40522695Y32496811D01*
X40522690Y32496814D01*
X40331178Y32586117D01*
X40331177Y32586118D01*
X40326196Y32588440D01*
X40320888Y32589862D01*
X40320886Y32589863D01*
X40255051Y32607503D01*
X40111463Y32645978D01*
X39890000Y32665353D01*
X39668537Y32645978D01*
X39524949Y32607503D01*
X39459114Y32589863D01*
X39459112Y32589862D01*
X39453804Y32588440D01*
X39448823Y32586118D01*
X39448822Y32586117D01*
X39257311Y32496814D01*
X39257306Y32496811D01*
X39252324Y32494488D01*
X39247817Y32491332D01*
X39247815Y32491331D01*
X39074730Y32370136D01*
X39074727Y32370134D01*
X39070219Y32366977D01*
X38913023Y32209781D01*
X38909866Y32205273D01*
X38909864Y32205270D01*
X38788669Y32032185D01*
X38785512Y32027676D01*
X38783189Y32022694D01*
X38783186Y32022689D01*
X38733919Y31917035D01*
X38687001Y31863750D01*
X38618724Y31844289D01*
X38550764Y31864831D01*
X38505529Y31917035D01*
X38456377Y32022441D01*
X38450897Y32031932D01*
X38420206Y32075765D01*
X38409729Y32084140D01*
X38396282Y32077072D01*
X37722022Y31402812D01*
X37714408Y31388868D01*
X36984356Y31388868D01*
X36985592Y31391132D01*
X36985461Y31392965D01*
X36981210Y31399580D01*
X36302997Y32077793D01*
X36291223Y32084223D01*
X36279207Y32074926D01*
X36249103Y32031932D01*
X36243623Y32022441D01*
X36194471Y31917035D01*
X36147553Y31863750D01*
X36079276Y31844289D01*
X36011316Y31864831D01*
X35966081Y31917035D01*
X35916814Y32022689D01*
X35916811Y32022694D01*
X35914488Y32027676D01*
X35911331Y32032185D01*
X35790136Y32205270D01*
X35790134Y32205273D01*
X35786977Y32209781D01*
X35629781Y32366977D01*
X35625273Y32370134D01*
X35625270Y32370136D01*
X35549505Y32423187D01*
X35511599Y32449729D01*
X36655860Y32449729D01*
X36662928Y32436282D01*
X37337188Y31762022D01*
X37351132Y31754408D01*
X37352965Y31754539D01*
X37359580Y31758790D01*
X38037793Y32437003D01*
X38044223Y32448777D01*
X38034926Y32460793D01*
X37991931Y32490898D01*
X37982445Y32496376D01*
X37791007Y32585645D01*
X37780715Y32589391D01*
X37576691Y32644059D01*
X37565896Y32645962D01*
X37355475Y32664372D01*
X37344525Y32664372D01*
X37134104Y32645962D01*
X37123309Y32644059D01*
X36919285Y32589391D01*
X36908993Y32585645D01*
X36717559Y32496377D01*
X36708068Y32490897D01*
X36664235Y32460206D01*
X36655860Y32449729D01*
X35511599Y32449729D01*
X35447677Y32494488D01*
X35442695Y32496811D01*
X35442690Y32496814D01*
X35251178Y32586117D01*
X35251177Y32586118D01*
X35246196Y32588440D01*
X35240888Y32589862D01*
X35240886Y32589863D01*
X35175051Y32607503D01*
X35031463Y32645978D01*
X34810000Y32665353D01*
X34588537Y32645978D01*
X34444949Y32607503D01*
X34379114Y32589863D01*
X34379112Y32589862D01*
X34373804Y32588440D01*
X34368823Y32586118D01*
X34368822Y32586117D01*
X34177311Y32496814D01*
X34177306Y32496811D01*
X34172324Y32494488D01*
X34167817Y32491332D01*
X34167815Y32491331D01*
X33994730Y32370136D01*
X33994727Y32370134D01*
X33990219Y32366977D01*
X33833023Y32209781D01*
X33829866Y32205273D01*
X33829864Y32205270D01*
X33708669Y32032185D01*
X33705512Y32027676D01*
X33703189Y32022694D01*
X33703186Y32022689D01*
X33654195Y31917627D01*
X33607277Y31864342D01*
X33539000Y31844881D01*
X33471040Y31865423D01*
X33425805Y31917627D01*
X33376814Y32022689D01*
X33376811Y32022694D01*
X33374488Y32027676D01*
X33371331Y32032185D01*
X33250136Y32205270D01*
X33250134Y32205273D01*
X33246977Y32209781D01*
X33089781Y32366977D01*
X33085273Y32370134D01*
X33085270Y32370136D01*
X33009505Y32423187D01*
X32907677Y32494488D01*
X32902695Y32496811D01*
X32902690Y32496814D01*
X32711178Y32586117D01*
X32711177Y32586118D01*
X32706196Y32588440D01*
X32700888Y32589862D01*
X32700886Y32589863D01*
X32635051Y32607503D01*
X32491463Y32645978D01*
X32270000Y32665353D01*
X32048537Y32645978D01*
X31904949Y32607503D01*
X31839114Y32589863D01*
X31839112Y32589862D01*
X31833804Y32588440D01*
X31828823Y32586118D01*
X31828822Y32586117D01*
X31637311Y32496814D01*
X31637306Y32496811D01*
X31632324Y32494488D01*
X31627817Y32491332D01*
X31627815Y32491331D01*
X31454730Y32370136D01*
X31454727Y32370134D01*
X31450219Y32366977D01*
X31293023Y32209781D01*
X31289866Y32205273D01*
X31289864Y32205270D01*
X31168669Y32032185D01*
X31165512Y32027676D01*
X31163189Y32022694D01*
X31163186Y32022689D01*
X31114195Y31917627D01*
X31067277Y31864342D01*
X30999000Y31844881D01*
X30931040Y31865423D01*
X30885805Y31917627D01*
X30836814Y32022689D01*
X30836811Y32022694D01*
X30834488Y32027676D01*
X30831331Y32032185D01*
X30710136Y32205270D01*
X30710134Y32205273D01*
X30706977Y32209781D01*
X30549781Y32366977D01*
X30545273Y32370134D01*
X30545270Y32370136D01*
X30469505Y32423187D01*
X30367677Y32494488D01*
X30362695Y32496811D01*
X30362690Y32496814D01*
X30171178Y32586117D01*
X30171177Y32586118D01*
X30166196Y32588440D01*
X30160888Y32589862D01*
X30160886Y32589863D01*
X30095051Y32607503D01*
X29951463Y32645978D01*
X29730000Y32665353D01*
X29508537Y32645978D01*
X29364949Y32607503D01*
X29299114Y32589863D01*
X29299112Y32589862D01*
X29293804Y32588440D01*
X29288823Y32586118D01*
X29288822Y32586117D01*
X29097311Y32496814D01*
X29097306Y32496811D01*
X29092324Y32494488D01*
X29087817Y32491332D01*
X29087815Y32491331D01*
X28914730Y32370136D01*
X28914727Y32370134D01*
X28910219Y32366977D01*
X28753023Y32209781D01*
X28749866Y32205273D01*
X28749864Y32205270D01*
X28628669Y32032185D01*
X28625512Y32027676D01*
X28623189Y32022694D01*
X28623186Y32022689D01*
X28574195Y31917627D01*
X28527277Y31864342D01*
X28459000Y31844881D01*
X28391040Y31865423D01*
X28345805Y31917627D01*
X28296814Y32022689D01*
X28296811Y32022694D01*
X28294488Y32027676D01*
X28291331Y32032185D01*
X28170136Y32205270D01*
X28170134Y32205273D01*
X28166977Y32209781D01*
X28009781Y32366977D01*
X28005273Y32370134D01*
X28005270Y32370136D01*
X27929505Y32423187D01*
X27827677Y32494488D01*
X27822695Y32496811D01*
X27822690Y32496814D01*
X27631178Y32586117D01*
X27631177Y32586118D01*
X27626196Y32588440D01*
X27620888Y32589862D01*
X27620886Y32589863D01*
X27555051Y32607503D01*
X27411463Y32645978D01*
X27190000Y32665353D01*
X26968537Y32645978D01*
X26824949Y32607503D01*
X26759114Y32589863D01*
X26759112Y32589862D01*
X26753804Y32588440D01*
X26748823Y32586118D01*
X26748822Y32586117D01*
X26557311Y32496814D01*
X26557306Y32496811D01*
X26552324Y32494488D01*
X26547817Y32491332D01*
X26547815Y32491331D01*
X26374730Y32370136D01*
X26374727Y32370134D01*
X26370219Y32366977D01*
X26213023Y32209781D01*
X26209866Y32205273D01*
X26209864Y32205270D01*
X26088669Y32032185D01*
X26085512Y32027676D01*
X26083189Y32022694D01*
X26083186Y32022689D01*
X26033919Y31917035D01*
X25987001Y31863750D01*
X25918724Y31844289D01*
X25850764Y31864831D01*
X25805529Y31917035D01*
X25756377Y32022441D01*
X25750897Y32031932D01*
X25720206Y32075765D01*
X25709729Y32084140D01*
X25696282Y32077072D01*
X25022022Y31402812D01*
X25014408Y31388868D01*
X24284356Y31388868D01*
X24285592Y31391132D01*
X24285461Y31392965D01*
X24281210Y31399580D01*
X23602997Y32077793D01*
X23591223Y32084223D01*
X23579207Y32074926D01*
X23549103Y32031932D01*
X23543623Y32022441D01*
X23494471Y31917035D01*
X23447553Y31863750D01*
X23379276Y31844289D01*
X23311316Y31864831D01*
X23266081Y31917035D01*
X23216814Y32022689D01*
X23216811Y32022694D01*
X23214488Y32027676D01*
X23211331Y32032185D01*
X23090136Y32205270D01*
X23090134Y32205273D01*
X23086977Y32209781D01*
X22929781Y32366977D01*
X22925273Y32370134D01*
X22925270Y32370136D01*
X22849505Y32423187D01*
X22811599Y32449729D01*
X23955860Y32449729D01*
X23962928Y32436282D01*
X24637188Y31762022D01*
X24651132Y31754408D01*
X24652965Y31754539D01*
X24659580Y31758790D01*
X25337793Y32437003D01*
X25344223Y32448777D01*
X25334926Y32460793D01*
X25291931Y32490898D01*
X25282445Y32496376D01*
X25091007Y32585645D01*
X25080715Y32589391D01*
X24876691Y32644059D01*
X24865896Y32645962D01*
X24655475Y32664372D01*
X24644525Y32664372D01*
X24434104Y32645962D01*
X24423309Y32644059D01*
X24219285Y32589391D01*
X24208993Y32585645D01*
X24017559Y32496377D01*
X24008068Y32490897D01*
X23964235Y32460206D01*
X23955860Y32449729D01*
X22811599Y32449729D01*
X22747677Y32494488D01*
X22742695Y32496811D01*
X22742690Y32496814D01*
X22551178Y32586117D01*
X22551177Y32586118D01*
X22546196Y32588440D01*
X22540888Y32589862D01*
X22540886Y32589863D01*
X22475051Y32607503D01*
X22331463Y32645978D01*
X22110000Y32665353D01*
X21888537Y32645978D01*
X21744949Y32607503D01*
X21679114Y32589863D01*
X21679112Y32589862D01*
X21673804Y32588440D01*
X21668823Y32586118D01*
X21668822Y32586117D01*
X21477311Y32496814D01*
X21477306Y32496811D01*
X21472324Y32494488D01*
X21467817Y32491332D01*
X21467815Y32491331D01*
X21294730Y32370136D01*
X21294727Y32370134D01*
X21290219Y32366977D01*
X21133023Y32209781D01*
X21129866Y32205273D01*
X21129864Y32205270D01*
X21008669Y32032185D01*
X21005512Y32027676D01*
X21003189Y32022694D01*
X21003186Y32022689D01*
X20954195Y31917627D01*
X20907277Y31864342D01*
X20839000Y31844881D01*
X20771040Y31865423D01*
X20725805Y31917627D01*
X20676814Y32022689D01*
X20676811Y32022694D01*
X20674488Y32027676D01*
X20671331Y32032185D01*
X20550136Y32205270D01*
X20550134Y32205273D01*
X20546977Y32209781D01*
X20389781Y32366977D01*
X20385273Y32370134D01*
X20385270Y32370136D01*
X20309505Y32423187D01*
X20207677Y32494488D01*
X20202695Y32496811D01*
X20202690Y32496814D01*
X20011178Y32586117D01*
X20011177Y32586118D01*
X20006196Y32588440D01*
X20000888Y32589862D01*
X20000886Y32589863D01*
X19935051Y32607503D01*
X19791463Y32645978D01*
X19570000Y32665353D01*
X19348537Y32645978D01*
X19204949Y32607503D01*
X19139114Y32589863D01*
X19139112Y32589862D01*
X19133804Y32588440D01*
X19128823Y32586118D01*
X19128822Y32586117D01*
X18937311Y32496814D01*
X18937306Y32496811D01*
X18932324Y32494488D01*
X18927817Y32491332D01*
X18927815Y32491331D01*
X18754730Y32370136D01*
X18754727Y32370134D01*
X18750219Y32366977D01*
X18593023Y32209781D01*
X18589866Y32205273D01*
X18589864Y32205270D01*
X18468669Y32032185D01*
X18465512Y32027676D01*
X18463189Y32022694D01*
X18463186Y32022689D01*
X18414195Y31917627D01*
X18367277Y31864342D01*
X18299000Y31844881D01*
X18231040Y31865423D01*
X18185805Y31917627D01*
X18136814Y32022689D01*
X18136811Y32022694D01*
X18134488Y32027676D01*
X18131331Y32032185D01*
X18010136Y32205270D01*
X18010134Y32205273D01*
X18006977Y32209781D01*
X17849781Y32366977D01*
X17845273Y32370134D01*
X17845270Y32370136D01*
X17769505Y32423187D01*
X17667677Y32494488D01*
X17662695Y32496811D01*
X17662690Y32496814D01*
X17471178Y32586117D01*
X17471177Y32586118D01*
X17466196Y32588440D01*
X17460888Y32589862D01*
X17460886Y32589863D01*
X17395051Y32607503D01*
X17251463Y32645978D01*
X17030000Y32665353D01*
X16808537Y32645978D01*
X16664949Y32607503D01*
X16599114Y32589863D01*
X16599112Y32589862D01*
X16593804Y32588440D01*
X16588823Y32586118D01*
X16588822Y32586117D01*
X16397311Y32496814D01*
X16397306Y32496811D01*
X16392324Y32494488D01*
X16387817Y32491332D01*
X16387815Y32491331D01*
X16214730Y32370136D01*
X16214727Y32370134D01*
X16210219Y32366977D01*
X16053023Y32209781D01*
X16049866Y32205273D01*
X16049864Y32205270D01*
X15928669Y32032185D01*
X15925512Y32027676D01*
X15923189Y32022694D01*
X15923186Y32022689D01*
X15874195Y31917627D01*
X15827277Y31864342D01*
X15759000Y31844881D01*
X15691040Y31865423D01*
X15645805Y31917627D01*
X15596814Y32022689D01*
X15596811Y32022694D01*
X15594488Y32027676D01*
X15591331Y32032185D01*
X15470136Y32205270D01*
X15470134Y32205273D01*
X15466977Y32209781D01*
X15309781Y32366977D01*
X15305273Y32370134D01*
X15305270Y32370136D01*
X15229505Y32423187D01*
X15127677Y32494488D01*
X15122695Y32496811D01*
X15122690Y32496814D01*
X14931178Y32586117D01*
X14931177Y32586118D01*
X14926196Y32588440D01*
X14920888Y32589862D01*
X14920886Y32589863D01*
X14855051Y32607503D01*
X14711463Y32645978D01*
X14490000Y32665353D01*
X14268537Y32645978D01*
X14124949Y32607503D01*
X14059114Y32589863D01*
X14059112Y32589862D01*
X14053804Y32588440D01*
X14048823Y32586118D01*
X14048822Y32586117D01*
X13857311Y32496814D01*
X13857306Y32496811D01*
X13852324Y32494488D01*
X13847817Y32491332D01*
X13847815Y32491331D01*
X13674730Y32370136D01*
X13674727Y32370134D01*
X13670219Y32366977D01*
X13513023Y32209781D01*
X13509866Y32205273D01*
X13509864Y32205270D01*
X13388669Y32032185D01*
X13385512Y32027676D01*
X13383189Y32022694D01*
X13383186Y32022689D01*
X13333919Y31917035D01*
X13287001Y31863750D01*
X13218724Y31844289D01*
X13150764Y31864831D01*
X13105529Y31917035D01*
X13056377Y32022441D01*
X13050897Y32031932D01*
X13020206Y32075765D01*
X13009729Y32084140D01*
X12996282Y32077072D01*
X12322022Y31402812D01*
X12314408Y31388868D01*
X11584356Y31388868D01*
X11585592Y31391132D01*
X11585461Y31392965D01*
X11581210Y31399580D01*
X10902997Y32077793D01*
X10891223Y32084223D01*
X10879207Y32074926D01*
X10849103Y32031932D01*
X10843623Y32022441D01*
X10794471Y31917035D01*
X10747553Y31863750D01*
X10679276Y31844289D01*
X10611316Y31864831D01*
X10566081Y31917035D01*
X10516814Y32022689D01*
X10516811Y32022694D01*
X10514488Y32027676D01*
X10511331Y32032185D01*
X10390136Y32205270D01*
X10390134Y32205273D01*
X10386977Y32209781D01*
X10229781Y32366977D01*
X10225273Y32370134D01*
X10225270Y32370136D01*
X10149505Y32423187D01*
X10111599Y32449729D01*
X11255860Y32449729D01*
X11262928Y32436282D01*
X11937188Y31762022D01*
X11951132Y31754408D01*
X11952965Y31754539D01*
X11959580Y31758790D01*
X12637793Y32437003D01*
X12644223Y32448777D01*
X12634926Y32460793D01*
X12591931Y32490898D01*
X12582445Y32496376D01*
X12391007Y32585645D01*
X12380715Y32589391D01*
X12176691Y32644059D01*
X12165896Y32645962D01*
X11955475Y32664372D01*
X11944525Y32664372D01*
X11734104Y32645962D01*
X11723309Y32644059D01*
X11519285Y32589391D01*
X11508993Y32585645D01*
X11317559Y32496377D01*
X11308068Y32490897D01*
X11264235Y32460206D01*
X11255860Y32449729D01*
X10111599Y32449729D01*
X10047677Y32494488D01*
X10042695Y32496811D01*
X10042690Y32496814D01*
X9851178Y32586117D01*
X9851177Y32586118D01*
X9846196Y32588440D01*
X9840888Y32589862D01*
X9840886Y32589863D01*
X9775051Y32607503D01*
X9631463Y32645978D01*
X9410000Y32665353D01*
X9188537Y32645978D01*
X9044949Y32607503D01*
X8979114Y32589863D01*
X8979112Y32589862D01*
X8973804Y32588440D01*
X8968823Y32586118D01*
X8968822Y32586117D01*
X8777311Y32496814D01*
X8777306Y32496811D01*
X8772324Y32494488D01*
X8767817Y32491332D01*
X8767815Y32491331D01*
X8594730Y32370136D01*
X8594727Y32370134D01*
X8590219Y32366977D01*
X8433023Y32209781D01*
X8429866Y32205273D01*
X8429864Y32205270D01*
X8308669Y32032185D01*
X8305512Y32027676D01*
X8303189Y32022694D01*
X8303186Y32022689D01*
X8254195Y31917627D01*
X8207277Y31864342D01*
X8139000Y31844881D01*
X8071040Y31865423D01*
X8025805Y31917627D01*
X7976814Y32022689D01*
X7976811Y32022694D01*
X7974488Y32027676D01*
X7971331Y32032185D01*
X7850136Y32205270D01*
X7850134Y32205273D01*
X7846977Y32209781D01*
X7689781Y32366977D01*
X7685273Y32370134D01*
X7685270Y32370136D01*
X7609505Y32423187D01*
X7507677Y32494488D01*
X7502695Y32496811D01*
X7502690Y32496814D01*
X7311178Y32586117D01*
X7311177Y32586118D01*
X7306196Y32588440D01*
X7300888Y32589862D01*
X7300886Y32589863D01*
X7235051Y32607503D01*
X7091463Y32645978D01*
X6870000Y32665353D01*
X6648537Y32645978D01*
X6504949Y32607503D01*
X6439114Y32589863D01*
X6439112Y32589862D01*
X6433804Y32588440D01*
X6428823Y32586118D01*
X6428822Y32586117D01*
X6237311Y32496814D01*
X6237306Y32496811D01*
X6232324Y32494488D01*
X6227817Y32491332D01*
X6227815Y32491331D01*
X6054730Y32370136D01*
X6054727Y32370134D01*
X6050219Y32366977D01*
X5893023Y32209781D01*
X5889866Y32205273D01*
X5889864Y32205270D01*
X5768669Y32032185D01*
X5765512Y32027676D01*
X5763189Y32022694D01*
X5763186Y32022689D01*
X5714195Y31917627D01*
X5671560Y31826196D01*
X5614022Y31611463D01*
X5594647Y31390000D01*
X508500Y31390000D01*
X508500Y36413938D01*
X1278493Y36413938D01*
X1287789Y36401923D01*
X1338994Y36366069D01*
X1348489Y36360586D01*
X1545947Y36268510D01*
X1556239Y36264764D01*
X1766688Y36208375D01*
X1777481Y36206472D01*
X1994525Y36187483D01*
X2005475Y36187483D01*
X2222519Y36206472D01*
X2233312Y36208375D01*
X2443761Y36264764D01*
X2454053Y36268510D01*
X2651511Y36360586D01*
X2661006Y36366069D01*
X2713048Y36402509D01*
X2721424Y36412988D01*
X2714356Y36426434D01*
X2012812Y37127978D01*
X1998868Y37135592D01*
X1997035Y37135461D01*
X1990420Y37131210D01*
X1284923Y36425713D01*
X1278493Y36413938D01*
X508500Y36413938D01*
X508500Y37055564D01*
X528502Y37123685D01*
X582158Y37170178D01*
X652432Y37180282D01*
X717012Y37150788D01*
X756207Y37088175D01*
X764764Y37056239D01*
X768510Y37045947D01*
X860586Y36848489D01*
X866069Y36838994D01*
X902509Y36786952D01*
X912988Y36778576D01*
X926434Y36785644D01*
X1627978Y37487188D01*
X1634356Y37498868D01*
X2364408Y37498868D01*
X2364539Y37497035D01*
X2368790Y37490420D01*
X2726199Y37133011D01*
X2758811Y37076527D01*
X2762426Y37063037D01*
X2765716Y37050757D01*
X2768039Y37045776D01*
X2768039Y37045775D01*
X2860151Y36848238D01*
X2860154Y36848233D01*
X2862477Y36843251D01*
X2993802Y36655700D01*
X3155700Y36493802D01*
X3160208Y36490645D01*
X3160211Y36490643D01*
X3230935Y36441122D01*
X3343251Y36362477D01*
X3348233Y36360154D01*
X3348238Y36360151D01*
X3544765Y36268510D01*
X3550757Y36265716D01*
X3556065Y36264294D01*
X3556067Y36264293D01*
X3766598Y36207881D01*
X3766600Y36207881D01*
X3771913Y36206457D01*
X4000000Y36186502D01*
X4228087Y36206457D01*
X4233400Y36207881D01*
X4233402Y36207881D01*
X4443933Y36264293D01*
X4443935Y36264294D01*
X4449243Y36265716D01*
X4455235Y36268510D01*
X4651762Y36360151D01*
X4651767Y36360154D01*
X4656749Y36362477D01*
X4769065Y36441122D01*
X4839789Y36490643D01*
X4839792Y36490645D01*
X4844300Y36493802D01*
X5006198Y36655700D01*
X5137523Y36843251D01*
X5139846Y36848233D01*
X5139849Y36848238D01*
X5231961Y37045775D01*
X5231961Y37045776D01*
X5234284Y37050757D01*
X5237575Y37063037D01*
X5292119Y37266598D01*
X5292119Y37266600D01*
X5293543Y37271913D01*
X5313498Y37500000D01*
X5293543Y37728087D01*
X5292119Y37733402D01*
X5235707Y37943933D01*
X5235706Y37943935D01*
X5234284Y37949243D01*
X5219113Y37981777D01*
X5139849Y38151762D01*
X5139846Y38151767D01*
X5137523Y38156749D01*
X5006198Y38344300D01*
X4844300Y38506198D01*
X4839792Y38509355D01*
X4839789Y38509357D01*
X4713920Y38597491D01*
X4656749Y38637523D01*
X4651767Y38639846D01*
X4651762Y38639849D01*
X4454225Y38731961D01*
X4454224Y38731961D01*
X4449243Y38734284D01*
X4443935Y38735706D01*
X4443933Y38735707D01*
X4233402Y38792119D01*
X4233400Y38792119D01*
X4228087Y38793543D01*
X4000000Y38813498D01*
X3771913Y38793543D01*
X3766600Y38792119D01*
X3766598Y38792119D01*
X3556067Y38735707D01*
X3556065Y38735706D01*
X3550757Y38734284D01*
X3545776Y38731961D01*
X3545775Y38731961D01*
X3348238Y38639849D01*
X3348233Y38639846D01*
X3343251Y38637523D01*
X3286080Y38597491D01*
X3160211Y38509357D01*
X3160208Y38509355D01*
X3155700Y38506198D01*
X2993802Y38344300D01*
X2862477Y38156749D01*
X2860154Y38151767D01*
X2860151Y38151762D01*
X2780887Y37981777D01*
X2765716Y37949243D01*
X2764294Y37943935D01*
X2764293Y37943933D01*
X2758811Y37923473D01*
X2726199Y37866989D01*
X2372022Y37512812D01*
X2364408Y37498868D01*
X1634356Y37498868D01*
X1635592Y37501132D01*
X1635461Y37502965D01*
X1631210Y37509580D01*
X925713Y38215077D01*
X913938Y38221507D01*
X901923Y38212211D01*
X866069Y38161006D01*
X860586Y38151511D01*
X768510Y37954053D01*
X764764Y37943761D01*
X756207Y37911825D01*
X719255Y37851202D01*
X655395Y37820181D01*
X584900Y37828609D01*
X530153Y37873812D01*
X508500Y37944436D01*
X508500Y38587012D01*
X1278576Y38587012D01*
X1285644Y38573566D01*
X1987188Y37872022D01*
X2001132Y37864408D01*
X2002965Y37864539D01*
X2009580Y37868790D01*
X2715077Y38574287D01*
X2721507Y38586062D01*
X2712211Y38598077D01*
X2661006Y38633931D01*
X2651511Y38639414D01*
X2454053Y38731490D01*
X2443761Y38735236D01*
X2233312Y38791625D01*
X2222519Y38793528D01*
X2005475Y38812517D01*
X1994525Y38812517D01*
X1777481Y38793528D01*
X1766688Y38791625D01*
X1556239Y38735236D01*
X1545947Y38731490D01*
X1348489Y38639414D01*
X1338994Y38633931D01*
X1286952Y38597491D01*
X1278576Y38587012D01*
X508500Y38587012D01*
X508500Y41374000D01*
X528502Y41442121D01*
X582158Y41488614D01*
X634500Y41500000D01*
X5500000Y41500000D01*
X5500000Y41654396D01*
X20387787Y41654396D01*
X20397567Y41443101D01*
X20398971Y41437276D01*
X20398971Y41437275D01*
X20433955Y41292115D01*
X20447125Y41237466D01*
X20534674Y41044913D01*
X20657054Y40872389D01*
X20809850Y40726119D01*
X20987548Y40611380D01*
X21044045Y40588611D01*
X21178168Y40534558D01*
X21178171Y40534557D01*
X21183737Y40532314D01*
X21391337Y40491772D01*
X21396899Y40491500D01*
X21552846Y40491500D01*
X21710566Y40506548D01*
X21830031Y40541595D01*
X21901027Y40541578D01*
X21960744Y40503180D01*
X21990222Y40438592D01*
X21991500Y40420690D01*
X21991500Y39349600D01*
X21991837Y39346354D01*
X21991837Y39346350D01*
X22000509Y39262777D01*
X22002474Y39243834D01*
X22058450Y39076054D01*
X22151522Y38925652D01*
X22276697Y38800695D01*
X22282927Y38796855D01*
X22282928Y38796854D01*
X22288324Y38793528D01*
X22422340Y38710919D01*
X22469832Y38658148D01*
X22481256Y38588076D01*
X22452982Y38522952D01*
X22443195Y38512490D01*
X22410007Y38480830D01*
X22328865Y38403424D01*
X22191246Y38218458D01*
X22188830Y38213707D01*
X22188828Y38213703D01*
X22157336Y38151762D01*
X22086760Y38012949D01*
X22085178Y38007855D01*
X22085177Y38007852D01*
X22043556Y37873812D01*
X22018393Y37792773D01*
X22017692Y37787484D01*
X22002304Y37671377D01*
X21988102Y37564226D01*
X21988302Y37558897D01*
X21988302Y37558895D01*
X21990195Y37508476D01*
X21996751Y37333842D01*
X22044093Y37108209D01*
X22046051Y37103250D01*
X22046052Y37103248D01*
X22068750Y37045775D01*
X22128776Y36893779D01*
X22131543Y36889220D01*
X22131544Y36889217D01*
X22189959Y36792953D01*
X22248377Y36696683D01*
X22251874Y36692653D01*
X22338438Y36592897D01*
X22399477Y36522555D01*
X22403608Y36519168D01*
X22573627Y36379760D01*
X22573633Y36379756D01*
X22577755Y36376376D01*
X22582391Y36373737D01*
X22582394Y36373735D01*
X22633061Y36344894D01*
X22778114Y36262325D01*
X22994825Y36183663D01*
X23000074Y36182714D01*
X23000077Y36182713D01*
X23217608Y36143377D01*
X23217615Y36143376D01*
X23221692Y36142639D01*
X23239414Y36141803D01*
X23244356Y36141570D01*
X23244363Y36141570D01*
X23245844Y36141500D01*
X23707890Y36141500D01*
X23774809Y36147178D01*
X23874409Y36155629D01*
X23874413Y36155630D01*
X23879720Y36156080D01*
X23884875Y36157418D01*
X23884881Y36157419D01*
X24097703Y36212657D01*
X24097707Y36212658D01*
X24102872Y36213999D01*
X24107738Y36216191D01*
X24107741Y36216192D01*
X24308202Y36306493D01*
X24313075Y36308688D01*
X24504319Y36437441D01*
X24567486Y36497699D01*
X24577536Y36507287D01*
X24671135Y36596576D01*
X24808754Y36781542D01*
X24815412Y36794636D01*
X24910822Y36982296D01*
X24913240Y36987051D01*
X24931475Y37045775D01*
X24980024Y37202129D01*
X24981607Y37207227D01*
X24992209Y37287218D01*
X25011198Y37430489D01*
X25011198Y37430494D01*
X25011898Y37435774D01*
X25009847Y37490420D01*
X25003449Y37660827D01*
X25003249Y37666158D01*
X24985657Y37750000D01*
X61986835Y37750000D01*
X62005465Y37513289D01*
X62006619Y37508482D01*
X62006620Y37508476D01*
X62025343Y37430489D01*
X62060895Y37282406D01*
X62062788Y37277835D01*
X62062789Y37277833D01*
X62141348Y37088175D01*
X62151760Y37063037D01*
X62154346Y37058817D01*
X62273241Y36864798D01*
X62273245Y36864792D01*
X62275824Y36860584D01*
X62430031Y36680031D01*
X62610584Y36525824D01*
X62614792Y36523245D01*
X62614798Y36523241D01*
X62748804Y36441122D01*
X62813037Y36401760D01*
X62817607Y36399867D01*
X62817611Y36399865D01*
X63027833Y36312789D01*
X63032406Y36310895D01*
X63112609Y36291640D01*
X63258476Y36256620D01*
X63258482Y36256619D01*
X63263289Y36255465D01*
X63500000Y36236835D01*
X63736711Y36255465D01*
X63741518Y36256619D01*
X63741524Y36256620D01*
X63887391Y36291640D01*
X63967594Y36310895D01*
X63972167Y36312789D01*
X64182389Y36399865D01*
X64182393Y36399867D01*
X64186963Y36401760D01*
X64251196Y36441122D01*
X64385202Y36523241D01*
X64385208Y36523245D01*
X64389416Y36525824D01*
X64569969Y36680031D01*
X64724176Y36860584D01*
X64726755Y36864792D01*
X64726759Y36864798D01*
X64845654Y37058817D01*
X64848240Y37063037D01*
X64858653Y37088175D01*
X64937211Y37277833D01*
X64937212Y37277835D01*
X64939105Y37282406D01*
X64974657Y37430489D01*
X64993380Y37508476D01*
X64993381Y37508482D01*
X64994535Y37513289D01*
X65013165Y37750000D01*
X64994535Y37986711D01*
X64987095Y38017704D01*
X64954910Y38151762D01*
X64939105Y38217594D01*
X64937211Y38222167D01*
X64850135Y38432389D01*
X64850133Y38432393D01*
X64848240Y38436963D01*
X64825904Y38473412D01*
X64726759Y38635202D01*
X64726755Y38635208D01*
X64724176Y38639416D01*
X64569969Y38819969D01*
X64389416Y38974176D01*
X64385208Y38976755D01*
X64385202Y38976759D01*
X64191183Y39095654D01*
X64186963Y39098240D01*
X64182393Y39100133D01*
X64182389Y39100135D01*
X63972167Y39187211D01*
X63972165Y39187212D01*
X63967594Y39189105D01*
X63887391Y39208360D01*
X63741524Y39243380D01*
X63741518Y39243381D01*
X63736711Y39244535D01*
X63500000Y39263165D01*
X63263289Y39244535D01*
X63258482Y39243381D01*
X63258476Y39243380D01*
X63112609Y39208360D01*
X63032406Y39189105D01*
X63027835Y39187212D01*
X63027833Y39187211D01*
X62817611Y39100135D01*
X62817607Y39100133D01*
X62813037Y39098240D01*
X62808817Y39095654D01*
X62614798Y38976759D01*
X62614792Y38976755D01*
X62610584Y38974176D01*
X62430031Y38819969D01*
X62275824Y38639416D01*
X62273245Y38635208D01*
X62273241Y38635202D01*
X62174096Y38473412D01*
X62151760Y38436963D01*
X62149867Y38432393D01*
X62149865Y38432389D01*
X62062789Y38222167D01*
X62060895Y38217594D01*
X62045090Y38151762D01*
X62012906Y38017704D01*
X62005465Y37986711D01*
X61986835Y37750000D01*
X24985657Y37750000D01*
X24955907Y37891791D01*
X24935315Y37943933D01*
X24873185Y38101256D01*
X24873184Y38101258D01*
X24871224Y38106221D01*
X24843742Y38151511D01*
X24754390Y38298757D01*
X24751623Y38303317D01*
X24664755Y38403424D01*
X24604023Y38473412D01*
X24604021Y38473414D01*
X24600523Y38477445D01*
X24564880Y38506670D01*
X24524886Y38565329D01*
X24522954Y38636299D01*
X24559698Y38697048D01*
X24578468Y38711248D01*
X24718120Y38797668D01*
X24724348Y38801522D01*
X24849305Y38926697D01*
X24942115Y39077262D01*
X24978583Y39187211D01*
X24995632Y39238611D01*
X24995632Y39238613D01*
X24997797Y39245139D01*
X25008500Y39349600D01*
X25008500Y40650400D01*
X25003395Y40699600D01*
X24998238Y40749308D01*
X24998237Y40749312D01*
X24997526Y40756166D01*
X24941550Y40923946D01*
X24848478Y41074348D01*
X24723303Y41199305D01*
X24673820Y41229807D01*
X41197289Y41229807D01*
X41206124Y41125675D01*
X41207914Y41115203D01*
X41263130Y40902465D01*
X41266665Y40892425D01*
X41356937Y40692030D01*
X41362106Y40682744D01*
X41484850Y40500425D01*
X41491519Y40492130D01*
X41643228Y40333100D01*
X41651186Y40326059D01*
X41827525Y40194859D01*
X41836562Y40189255D01*
X42032484Y40089643D01*
X42042335Y40085643D01*
X42252240Y40020466D01*
X42262624Y40018183D01*
X42278043Y40016139D01*
X42292207Y40018335D01*
X42296000Y40031522D01*
X42296000Y40033808D01*
X42804000Y40033808D01*
X42807973Y40020277D01*
X42818580Y40018752D01*
X42936421Y40043477D01*
X42946617Y40046537D01*
X43151029Y40127263D01*
X43160561Y40131994D01*
X43348462Y40246016D01*
X43357052Y40252280D01*
X43523052Y40396327D01*
X43530470Y40403956D01*
X43556391Y40435569D01*
X43615051Y40475564D01*
X43686021Y40477496D01*
X43746770Y40440752D01*
X43760969Y40421983D01*
X43851522Y40275652D01*
X43976697Y40150695D01*
X43982927Y40146855D01*
X43982928Y40146854D01*
X44120090Y40062306D01*
X44127262Y40057885D01*
X44170701Y40043477D01*
X44288611Y40004368D01*
X44288613Y40004368D01*
X44295139Y40002203D01*
X44301975Y40001503D01*
X44301978Y40001502D01*
X44345031Y39997091D01*
X44399600Y39991500D01*
X45700400Y39991500D01*
X45703646Y39991837D01*
X45703650Y39991837D01*
X45799308Y40001762D01*
X45799312Y40001763D01*
X45806166Y40002474D01*
X45812702Y40004655D01*
X45812704Y40004655D01*
X45944806Y40048728D01*
X45973946Y40058450D01*
X46124348Y40151522D01*
X46249305Y40276697D01*
X46279732Y40326059D01*
X46338275Y40421032D01*
X46338276Y40421034D01*
X46342115Y40427262D01*
X46397797Y40595139D01*
X46399795Y40614633D01*
X46408172Y40696402D01*
X46408500Y40699600D01*
X46408500Y41229807D01*
X50647289Y41229807D01*
X50656124Y41125675D01*
X50657914Y41115203D01*
X50713130Y40902465D01*
X50716665Y40892425D01*
X50806937Y40692030D01*
X50812106Y40682744D01*
X50934850Y40500425D01*
X50941519Y40492130D01*
X51093228Y40333100D01*
X51101186Y40326059D01*
X51277525Y40194859D01*
X51286562Y40189255D01*
X51482484Y40089643D01*
X51492335Y40085643D01*
X51702240Y40020466D01*
X51712624Y40018183D01*
X51728043Y40016139D01*
X51742207Y40018335D01*
X51746000Y40031522D01*
X51746000Y40033808D01*
X52254000Y40033808D01*
X52257973Y40020277D01*
X52268580Y40018752D01*
X52386421Y40043477D01*
X52396617Y40046537D01*
X52601029Y40127263D01*
X52610561Y40131994D01*
X52798462Y40246016D01*
X52807052Y40252280D01*
X52973052Y40396327D01*
X52980470Y40403956D01*
X53006391Y40435569D01*
X53065051Y40475564D01*
X53136021Y40477496D01*
X53196770Y40440752D01*
X53210969Y40421983D01*
X53301522Y40275652D01*
X53426697Y40150695D01*
X53432927Y40146855D01*
X53432928Y40146854D01*
X53570090Y40062306D01*
X53577262Y40057885D01*
X53620701Y40043477D01*
X53738611Y40004368D01*
X53738613Y40004368D01*
X53745139Y40002203D01*
X53751975Y40001503D01*
X53751978Y40001502D01*
X53795031Y39997091D01*
X53849600Y39991500D01*
X55150400Y39991500D01*
X55153646Y39991837D01*
X55153650Y39991837D01*
X55249308Y40001762D01*
X55249312Y40001763D01*
X55256166Y40002474D01*
X55262702Y40004655D01*
X55262704Y40004655D01*
X55394806Y40048728D01*
X55423946Y40058450D01*
X55574348Y40151522D01*
X55699305Y40276697D01*
X55729732Y40326059D01*
X55788275Y40421032D01*
X55788276Y40421034D01*
X55792115Y40427262D01*
X55847797Y40595139D01*
X55849795Y40614633D01*
X55858172Y40696402D01*
X55858500Y40699600D01*
X55858500Y42300400D01*
X55855247Y42331753D01*
X55848238Y42399308D01*
X55848237Y42399312D01*
X55847526Y42406166D01*
X55824935Y42473881D01*
X55793868Y42566998D01*
X55791550Y42573946D01*
X55698478Y42724348D01*
X55657992Y42764764D01*
X55578483Y42844134D01*
X55573303Y42849305D01*
X55542965Y42868006D01*
X55428968Y42938275D01*
X55428966Y42938276D01*
X55422738Y42942115D01*
X55303498Y42981665D01*
X55261389Y42995632D01*
X55261387Y42995632D01*
X55254861Y42997797D01*
X55248025Y42998497D01*
X55248022Y42998498D01*
X55204969Y43002909D01*
X55150400Y43008500D01*
X53849600Y43008500D01*
X53846354Y43008163D01*
X53846350Y43008163D01*
X53750692Y42998238D01*
X53750688Y42998237D01*
X53743834Y42997526D01*
X53737298Y42995345D01*
X53737296Y42995345D01*
X53605194Y42951272D01*
X53576054Y42941550D01*
X53425652Y42848478D01*
X53420479Y42843296D01*
X53406312Y42829104D01*
X53300695Y42723303D01*
X53296855Y42717073D01*
X53296854Y42717072D01*
X53280128Y42689938D01*
X53219058Y42590863D01*
X53210648Y42577220D01*
X53157876Y42529727D01*
X53087804Y42518303D01*
X53022680Y42546577D01*
X53012218Y42556364D01*
X52906766Y42666906D01*
X52898814Y42673941D01*
X52722475Y42805141D01*
X52713438Y42810745D01*
X52517516Y42910357D01*
X52507665Y42914357D01*
X52297760Y42979534D01*
X52287376Y42981817D01*
X52271957Y42983861D01*
X52257793Y42981665D01*
X52254000Y42968478D01*
X52254000Y40033808D01*
X51746000Y40033808D01*
X51746000Y41227885D01*
X51741525Y41243124D01*
X51740135Y41244329D01*
X51732452Y41246000D01*
X50664030Y41246000D01*
X50649352Y41241690D01*
X50647289Y41229807D01*
X46408500Y41229807D01*
X46408500Y41769624D01*
X50642732Y41769624D01*
X50646475Y41756876D01*
X50647865Y41755671D01*
X50655548Y41754000D01*
X51727885Y41754000D01*
X51743124Y41758475D01*
X51744329Y41759865D01*
X51746000Y41767548D01*
X51746000Y42966192D01*
X51742027Y42979723D01*
X51731420Y42981248D01*
X51613579Y42956523D01*
X51603383Y42953463D01*
X51398971Y42872737D01*
X51389439Y42868006D01*
X51201538Y42753984D01*
X51192948Y42747720D01*
X51026948Y42603673D01*
X51019528Y42596042D01*
X50880174Y42426089D01*
X50874150Y42417322D01*
X50765424Y42226318D01*
X50760959Y42216654D01*
X50685969Y42010059D01*
X50683198Y41999792D01*
X50643877Y41782345D01*
X50642944Y41774116D01*
X50642732Y41769624D01*
X46408500Y41769624D01*
X46408500Y42300400D01*
X46405247Y42331753D01*
X46398238Y42399308D01*
X46398237Y42399312D01*
X46397526Y42406166D01*
X46374935Y42473881D01*
X46343868Y42566998D01*
X46341550Y42573946D01*
X46248478Y42724348D01*
X46207992Y42764764D01*
X46128483Y42844134D01*
X46123303Y42849305D01*
X46092965Y42868006D01*
X45978968Y42938275D01*
X45978966Y42938276D01*
X45972738Y42942115D01*
X45853498Y42981665D01*
X45811389Y42995632D01*
X45811387Y42995632D01*
X45804861Y42997797D01*
X45798025Y42998497D01*
X45798022Y42998498D01*
X45754969Y43002909D01*
X45700400Y43008500D01*
X44399600Y43008500D01*
X44396354Y43008163D01*
X44396350Y43008163D01*
X44300692Y42998238D01*
X44300688Y42998237D01*
X44293834Y42997526D01*
X44287298Y42995345D01*
X44287296Y42995345D01*
X44155194Y42951272D01*
X44126054Y42941550D01*
X43975652Y42848478D01*
X43970479Y42843296D01*
X43956312Y42829104D01*
X43850695Y42723303D01*
X43846855Y42717073D01*
X43846854Y42717072D01*
X43830128Y42689938D01*
X43769058Y42590863D01*
X43760648Y42577220D01*
X43707876Y42529727D01*
X43637804Y42518303D01*
X43572680Y42546577D01*
X43562218Y42556364D01*
X43456766Y42666906D01*
X43448814Y42673941D01*
X43272475Y42805141D01*
X43263438Y42810745D01*
X43067516Y42910357D01*
X43057665Y42914357D01*
X42847760Y42979534D01*
X42837376Y42981817D01*
X42821957Y42983861D01*
X42807793Y42981665D01*
X42804000Y42968478D01*
X42804000Y40033808D01*
X42296000Y40033808D01*
X42296000Y41227885D01*
X42291525Y41243124D01*
X42290135Y41244329D01*
X42282452Y41246000D01*
X41214030Y41246000D01*
X41199352Y41241690D01*
X41197289Y41229807D01*
X24673820Y41229807D01*
X24572738Y41292115D01*
X24492995Y41318564D01*
X24411389Y41345632D01*
X24411387Y41345632D01*
X24404861Y41347797D01*
X24398025Y41348497D01*
X24398022Y41348498D01*
X24354969Y41352909D01*
X24300400Y41358500D01*
X22730671Y41358500D01*
X22662550Y41378502D01*
X22616057Y41432158D01*
X22605975Y41502580D01*
X22611352Y41539663D01*
X22611352Y41539667D01*
X22612213Y41545604D01*
X22602433Y41756899D01*
X22599366Y41769624D01*
X41192732Y41769624D01*
X41196475Y41756876D01*
X41197865Y41755671D01*
X41205548Y41754000D01*
X42277885Y41754000D01*
X42293124Y41758475D01*
X42294329Y41759865D01*
X42296000Y41767548D01*
X42296000Y42966192D01*
X42292027Y42979723D01*
X42281420Y42981248D01*
X42163579Y42956523D01*
X42153383Y42953463D01*
X41948971Y42872737D01*
X41939439Y42868006D01*
X41751538Y42753984D01*
X41742948Y42747720D01*
X41576948Y42603673D01*
X41569528Y42596042D01*
X41430174Y42426089D01*
X41424150Y42417322D01*
X41315424Y42226318D01*
X41310959Y42216654D01*
X41235969Y42010059D01*
X41233198Y41999792D01*
X41193877Y41782345D01*
X41192944Y41774116D01*
X41192732Y41769624D01*
X22599366Y41769624D01*
X22552875Y41962534D01*
X22509525Y42057878D01*
X22467806Y42149632D01*
X22465326Y42155087D01*
X22342946Y42327611D01*
X22190150Y42473881D01*
X22012452Y42588620D01*
X21952354Y42612840D01*
X21821832Y42665442D01*
X21821829Y42665443D01*
X21816263Y42667686D01*
X21608663Y42708228D01*
X21603101Y42708500D01*
X21447154Y42708500D01*
X21289434Y42693452D01*
X21086466Y42633908D01*
X21081139Y42631164D01*
X21081138Y42631164D01*
X20903751Y42539804D01*
X20903748Y42539802D01*
X20898420Y42537058D01*
X20732080Y42406396D01*
X20728148Y42401865D01*
X20728145Y42401862D01*
X20659474Y42322725D01*
X20593448Y42246637D01*
X20590448Y42241451D01*
X20590445Y42241447D01*
X20581693Y42226318D01*
X20487527Y42063546D01*
X20418139Y41863729D01*
X20417278Y41857794D01*
X20417278Y41857792D01*
X20405146Y41774116D01*
X20387787Y41654396D01*
X5500000Y41654396D01*
X5500000Y42913938D01*
X9278493Y42913938D01*
X9287789Y42901923D01*
X9338994Y42866069D01*
X9348489Y42860586D01*
X9545947Y42768510D01*
X9556239Y42764764D01*
X9766688Y42708375D01*
X9777481Y42706472D01*
X9994525Y42687483D01*
X10005475Y42687483D01*
X10222519Y42706472D01*
X10233312Y42708375D01*
X10443761Y42764764D01*
X10454053Y42768510D01*
X10651511Y42860586D01*
X10661006Y42866069D01*
X10713048Y42902509D01*
X10721424Y42912988D01*
X10714356Y42926434D01*
X10012812Y43627978D01*
X9998868Y43635592D01*
X9997035Y43635461D01*
X9990420Y43631210D01*
X9284923Y42925713D01*
X9278493Y42913938D01*
X5500000Y42913938D01*
X5500000Y43994525D01*
X8687483Y43994525D01*
X8706472Y43777481D01*
X8708375Y43766688D01*
X8764764Y43556239D01*
X8768510Y43545947D01*
X8860586Y43348489D01*
X8866069Y43338994D01*
X8902509Y43286952D01*
X8912988Y43278576D01*
X8926434Y43285644D01*
X9627978Y43987188D01*
X9634356Y43998868D01*
X10364408Y43998868D01*
X10364539Y43997035D01*
X10368790Y43990420D01*
X10726199Y43633011D01*
X10758811Y43576527D01*
X10765716Y43550757D01*
X10768039Y43545776D01*
X10768039Y43545775D01*
X10860151Y43348238D01*
X10860154Y43348233D01*
X10862477Y43343251D01*
X10889286Y43304964D01*
X10969078Y43191010D01*
X10993802Y43155700D01*
X11155700Y42993802D01*
X11160208Y42990645D01*
X11160211Y42990643D01*
X11191866Y42968478D01*
X11343251Y42862477D01*
X11348233Y42860154D01*
X11348238Y42860151D01*
X11544765Y42768510D01*
X11550757Y42765716D01*
X11556065Y42764294D01*
X11556067Y42764293D01*
X11766598Y42707881D01*
X11766600Y42707881D01*
X11771913Y42706457D01*
X12000000Y42686502D01*
X12228087Y42706457D01*
X12233400Y42707881D01*
X12233402Y42707881D01*
X12443933Y42764293D01*
X12443935Y42764294D01*
X12449243Y42765716D01*
X12455235Y42768510D01*
X12651762Y42860151D01*
X12651767Y42860154D01*
X12656749Y42862477D01*
X12808134Y42968478D01*
X12839789Y42990643D01*
X12839792Y42990645D01*
X12844300Y42993802D01*
X13006198Y43155700D01*
X13030923Y43191010D01*
X13110714Y43304964D01*
X13137523Y43343251D01*
X13139846Y43348233D01*
X13139849Y43348238D01*
X13231961Y43545775D01*
X13231961Y43545776D01*
X13234284Y43550757D01*
X13244150Y43587575D01*
X13292119Y43766598D01*
X13292119Y43766600D01*
X13293543Y43771913D01*
X13313498Y44000000D01*
X13310584Y44033305D01*
X30597251Y44033305D01*
X30597548Y44028152D01*
X30597548Y44028149D01*
X30606207Y43877978D01*
X30610110Y43810285D01*
X30611247Y43805239D01*
X30611248Y43805233D01*
X30619935Y43766688D01*
X30659222Y43592361D01*
X30743266Y43385384D01*
X30792547Y43304964D01*
X30857291Y43199312D01*
X30859987Y43194912D01*
X31006250Y43026062D01*
X31178126Y42883368D01*
X31371000Y42770662D01*
X31375825Y42768820D01*
X31375826Y42768819D01*
X31414675Y42753984D01*
X31579692Y42690970D01*
X31584760Y42689939D01*
X31584763Y42689938D01*
X31688483Y42668836D01*
X31798597Y42646433D01*
X31803772Y42646243D01*
X31803774Y42646243D01*
X32016673Y42638436D01*
X32016677Y42638436D01*
X32021837Y42638247D01*
X32026957Y42638903D01*
X32026959Y42638903D01*
X32238288Y42665975D01*
X32238289Y42665975D01*
X32243416Y42666632D01*
X32248366Y42668117D01*
X32452429Y42729339D01*
X32452434Y42729341D01*
X32457384Y42730826D01*
X32657994Y42829104D01*
X32839860Y42958827D01*
X32860640Y42979534D01*
X32994435Y43112863D01*
X32998096Y43116511D01*
X33029498Y43160211D01*
X33128453Y43297923D01*
X33129776Y43296972D01*
X33176645Y43340143D01*
X33246580Y43352375D01*
X33312026Y43324856D01*
X33339875Y43293006D01*
X33345331Y43284102D01*
X33399987Y43194912D01*
X33546250Y43026062D01*
X33718126Y42883368D01*
X33911000Y42770662D01*
X33915825Y42768820D01*
X33915826Y42768819D01*
X33954675Y42753984D01*
X34119692Y42690970D01*
X34124760Y42689939D01*
X34124763Y42689938D01*
X34228483Y42668836D01*
X34338597Y42646433D01*
X34343772Y42646243D01*
X34343774Y42646243D01*
X34556673Y42638436D01*
X34556677Y42638436D01*
X34561837Y42638247D01*
X34566957Y42638903D01*
X34566959Y42638903D01*
X34778288Y42665975D01*
X34778289Y42665975D01*
X34783416Y42666632D01*
X34788366Y42668117D01*
X34992429Y42729339D01*
X34992434Y42729341D01*
X34997384Y42730826D01*
X35197994Y42829104D01*
X35379860Y42958827D01*
X35400640Y42979534D01*
X35534435Y43112863D01*
X35538096Y43116511D01*
X35569498Y43160211D01*
X35668453Y43297923D01*
X35669776Y43296972D01*
X35716645Y43340143D01*
X35786580Y43352375D01*
X35852026Y43324856D01*
X35879875Y43293006D01*
X35885331Y43284102D01*
X35939987Y43194912D01*
X36086250Y43026062D01*
X36258126Y42883368D01*
X36451000Y42770662D01*
X36455825Y42768820D01*
X36455826Y42768819D01*
X36494675Y42753984D01*
X36659692Y42690970D01*
X36664760Y42689939D01*
X36664763Y42689938D01*
X36768483Y42668836D01*
X36878597Y42646433D01*
X36883772Y42646243D01*
X36883774Y42646243D01*
X37096673Y42638436D01*
X37096677Y42638436D01*
X37101837Y42638247D01*
X37106957Y42638903D01*
X37106959Y42638903D01*
X37318288Y42665975D01*
X37318289Y42665975D01*
X37323416Y42666632D01*
X37328366Y42668117D01*
X37532429Y42729339D01*
X37532434Y42729341D01*
X37537384Y42730826D01*
X37737994Y42829104D01*
X37919860Y42958827D01*
X37940640Y42979534D01*
X37978568Y43017330D01*
X62632160Y43017330D01*
X62637887Y43009680D01*
X62809042Y42904795D01*
X62817837Y42900313D01*
X63027988Y42813266D01*
X63037373Y42810217D01*
X63258554Y42757115D01*
X63268301Y42755572D01*
X63495070Y42737725D01*
X63504930Y42737725D01*
X63731699Y42755572D01*
X63741446Y42757115D01*
X63962627Y42810217D01*
X63972012Y42813266D01*
X64182163Y42900313D01*
X64190958Y42904795D01*
X64358445Y43007432D01*
X64367907Y43017890D01*
X64364124Y43026666D01*
X63512812Y43877978D01*
X63498868Y43885592D01*
X63497035Y43885461D01*
X63490420Y43881210D01*
X62638920Y43029710D01*
X62632160Y43017330D01*
X37978568Y43017330D01*
X38074435Y43112863D01*
X38078096Y43116511D01*
X38109498Y43160211D01*
X38205435Y43293723D01*
X38208453Y43297923D01*
X38228628Y43338743D01*
X38305136Y43493547D01*
X38305137Y43493549D01*
X38307430Y43498189D01*
X38372370Y43711931D01*
X38401529Y43933410D01*
X38402112Y43957277D01*
X38403074Y43996635D01*
X38403074Y43996639D01*
X38403156Y44000000D01*
X38384852Y44222639D01*
X38379218Y44245070D01*
X61987725Y44245070D01*
X62005572Y44018301D01*
X62007115Y44008554D01*
X62060217Y43787373D01*
X62063266Y43777988D01*
X62150313Y43567837D01*
X62154795Y43559042D01*
X62257432Y43391555D01*
X62267890Y43382093D01*
X62276666Y43385876D01*
X63127978Y44237188D01*
X63134356Y44248868D01*
X63864408Y44248868D01*
X63864539Y44247035D01*
X63868790Y44240420D01*
X64720290Y43388920D01*
X64732670Y43382160D01*
X64740320Y43387887D01*
X64845205Y43559042D01*
X64849687Y43567837D01*
X64936734Y43777988D01*
X64939783Y43787373D01*
X64992885Y44008554D01*
X64994428Y44018301D01*
X65012275Y44245070D01*
X65012275Y44254930D01*
X64994428Y44481699D01*
X64992885Y44491446D01*
X64939783Y44712627D01*
X64936734Y44722012D01*
X64849687Y44932163D01*
X64845205Y44940958D01*
X64742568Y45108445D01*
X64732110Y45117907D01*
X64723334Y45114124D01*
X63872022Y44262812D01*
X63864408Y44248868D01*
X63134356Y44248868D01*
X63135592Y44251132D01*
X63135461Y44252965D01*
X63131210Y44259580D01*
X62279710Y45111080D01*
X62267330Y45117840D01*
X62259680Y45112113D01*
X62154795Y44940958D01*
X62150313Y44932163D01*
X62063266Y44722012D01*
X62060217Y44712627D01*
X62007115Y44491446D01*
X62005572Y44481699D01*
X61987725Y44254930D01*
X61987725Y44245070D01*
X38379218Y44245070D01*
X38330431Y44439298D01*
X38241354Y44644160D01*
X38120014Y44831723D01*
X37969670Y44996949D01*
X37965619Y45000148D01*
X37965615Y45000152D01*
X37798414Y45132200D01*
X37798410Y45132202D01*
X37794359Y45135402D01*
X37787092Y45139414D01*
X37742136Y45164231D01*
X37598789Y45243362D01*
X37593920Y45245086D01*
X37593916Y45245088D01*
X37393087Y45316205D01*
X37393083Y45316206D01*
X37388212Y45317931D01*
X37383119Y45318838D01*
X37383116Y45318839D01*
X37173373Y45356200D01*
X37173367Y45356201D01*
X37168284Y45357106D01*
X37094452Y45358008D01*
X36950081Y45359772D01*
X36950079Y45359772D01*
X36944911Y45359835D01*
X36724091Y45326045D01*
X36511756Y45256643D01*
X36313607Y45153493D01*
X36309474Y45150390D01*
X36309471Y45150388D01*
X36239019Y45097491D01*
X36134965Y45019365D01*
X35980629Y44857862D01*
X35873201Y44700379D01*
X35818293Y44655379D01*
X35747768Y44647208D01*
X35684021Y44678462D01*
X35663324Y44702946D01*
X35582822Y44827383D01*
X35582820Y44827386D01*
X35580014Y44831723D01*
X35429670Y44996949D01*
X35425619Y45000148D01*
X35425615Y45000152D01*
X35258414Y45132200D01*
X35258410Y45132202D01*
X35254359Y45135402D01*
X35247092Y45139414D01*
X35202136Y45164231D01*
X35058789Y45243362D01*
X35053920Y45245086D01*
X35053916Y45245088D01*
X34853087Y45316205D01*
X34853083Y45316206D01*
X34848212Y45317931D01*
X34843119Y45318838D01*
X34843116Y45318839D01*
X34633373Y45356200D01*
X34633367Y45356201D01*
X34628284Y45357106D01*
X34554452Y45358008D01*
X34410081Y45359772D01*
X34410079Y45359772D01*
X34404911Y45359835D01*
X34184091Y45326045D01*
X33971756Y45256643D01*
X33773607Y45153493D01*
X33769474Y45150390D01*
X33769471Y45150388D01*
X33699019Y45097491D01*
X33594965Y45019365D01*
X33440629Y44857862D01*
X33333201Y44700379D01*
X33278293Y44655379D01*
X33207768Y44647208D01*
X33144021Y44678462D01*
X33123324Y44702946D01*
X33042822Y44827383D01*
X33042820Y44827386D01*
X33040014Y44831723D01*
X32889670Y44996949D01*
X32885619Y45000148D01*
X32885615Y45000152D01*
X32718414Y45132200D01*
X32718410Y45132202D01*
X32714359Y45135402D01*
X32707092Y45139414D01*
X32662136Y45164231D01*
X32518789Y45243362D01*
X32513920Y45245086D01*
X32513916Y45245088D01*
X32313087Y45316205D01*
X32313083Y45316206D01*
X32308212Y45317931D01*
X32303119Y45318838D01*
X32303116Y45318839D01*
X32093373Y45356200D01*
X32093367Y45356201D01*
X32088284Y45357106D01*
X32014452Y45358008D01*
X31870081Y45359772D01*
X31870079Y45359772D01*
X31864911Y45359835D01*
X31644091Y45326045D01*
X31431756Y45256643D01*
X31233607Y45153493D01*
X31229474Y45150390D01*
X31229471Y45150388D01*
X31159019Y45097491D01*
X31054965Y45019365D01*
X30900629Y44857862D01*
X30897720Y44853597D01*
X30897714Y44853589D01*
X30888300Y44839789D01*
X30774743Y44673320D01*
X30680688Y44470695D01*
X30620989Y44255430D01*
X30597251Y44033305D01*
X13310584Y44033305D01*
X13293543Y44228087D01*
X13292119Y44233402D01*
X13235707Y44443933D01*
X13235706Y44443935D01*
X13234284Y44449243D01*
X13219150Y44481699D01*
X13139849Y44651762D01*
X13139846Y44651767D01*
X13137523Y44656749D01*
X13064098Y44761611D01*
X13009357Y44839789D01*
X13009355Y44839792D01*
X13006198Y44844300D01*
X12844300Y45006198D01*
X12839792Y45009355D01*
X12839789Y45009357D01*
X12713920Y45097491D01*
X12656749Y45137523D01*
X12651767Y45139846D01*
X12651762Y45139849D01*
X12454225Y45231961D01*
X12454224Y45231961D01*
X12449243Y45234284D01*
X12443935Y45235706D01*
X12443933Y45235707D01*
X12233402Y45292119D01*
X12233400Y45292119D01*
X12228087Y45293543D01*
X12000000Y45313498D01*
X11771913Y45293543D01*
X11766600Y45292119D01*
X11766598Y45292119D01*
X11556067Y45235707D01*
X11556065Y45235706D01*
X11550757Y45234284D01*
X11545776Y45231961D01*
X11545775Y45231961D01*
X11348238Y45139849D01*
X11348233Y45139846D01*
X11343251Y45137523D01*
X11286080Y45097491D01*
X11160211Y45009357D01*
X11160208Y45009355D01*
X11155700Y45006198D01*
X10993802Y44844300D01*
X10990645Y44839792D01*
X10990643Y44839789D01*
X10935902Y44761611D01*
X10862477Y44656749D01*
X10860154Y44651767D01*
X10860151Y44651762D01*
X10780850Y44481699D01*
X10765716Y44449243D01*
X10764294Y44443935D01*
X10764293Y44443933D01*
X10758811Y44423473D01*
X10726199Y44366989D01*
X10372022Y44012812D01*
X10364408Y43998868D01*
X9634356Y43998868D01*
X9635592Y44001132D01*
X9635461Y44002965D01*
X9631210Y44009580D01*
X8925713Y44715077D01*
X8913938Y44721507D01*
X8901923Y44712211D01*
X8866069Y44661006D01*
X8860586Y44651511D01*
X8768510Y44454053D01*
X8764764Y44443761D01*
X8708375Y44233312D01*
X8706472Y44222519D01*
X8687483Y44005475D01*
X8687483Y43994525D01*
X5500000Y43994525D01*
X5500000Y45087012D01*
X9278576Y45087012D01*
X9285644Y45073566D01*
X9987188Y44372022D01*
X10001132Y44364408D01*
X10002965Y44364539D01*
X10009580Y44368790D01*
X10715077Y45074287D01*
X10721507Y45086062D01*
X10712211Y45098077D01*
X10661006Y45133931D01*
X10651511Y45139414D01*
X10454053Y45231490D01*
X10443761Y45235236D01*
X10233312Y45291625D01*
X10222519Y45293528D01*
X10005475Y45312517D01*
X9994525Y45312517D01*
X9777481Y45293528D01*
X9766688Y45291625D01*
X9556239Y45235236D01*
X9545947Y45231490D01*
X9348489Y45139414D01*
X9338994Y45133931D01*
X9286952Y45097491D01*
X9278576Y45087012D01*
X5500000Y45087012D01*
X5500000Y45482110D01*
X62632093Y45482110D01*
X62635876Y45473334D01*
X63487188Y44622022D01*
X63501132Y44614408D01*
X63502965Y44614539D01*
X63509580Y44618790D01*
X64361080Y45470290D01*
X64367840Y45482670D01*
X64362113Y45490320D01*
X64190958Y45595205D01*
X64182163Y45599687D01*
X63972012Y45686734D01*
X63962627Y45689783D01*
X63741446Y45742885D01*
X63731699Y45744428D01*
X63504930Y45762275D01*
X63495070Y45762275D01*
X63268301Y45744428D01*
X63258554Y45742885D01*
X63037373Y45689783D01*
X63027988Y45686734D01*
X62817837Y45599687D01*
X62809042Y45595205D01*
X62641555Y45492568D01*
X62632093Y45482110D01*
X5500000Y45482110D01*
X5500000Y46365500D01*
X5520002Y46433621D01*
X5573658Y46480114D01*
X5626000Y46491500D01*
X66374000Y46491500D01*
X66442121Y46471498D01*
G37*
%TD.AperFunction*%
%TD*%
M02*
