%TF.GenerationSoftware,KiCad,Pcbnew,6.0.6-3a73a75311~116~ubuntu20.04.1*%
%TF.CreationDate,2023-06-18T00:08:06+09:00*%
%TF.ProjectId,catchrobo2023_OtherSubstrate,63617463-6872-46f6-926f-323032335f4f,rev?*%
%TF.SameCoordinates,Original*%
%TF.FileFunction,Copper,L1,Top*%
%TF.FilePolarity,Positive*%
%FSLAX46Y46*%
G04 Gerber Fmt 4.6, Leading zero omitted, Abs format (unit mm)*
G04 Created by KiCad (PCBNEW 6.0.6-3a73a75311~116~ubuntu20.04.1) date 2023-06-18 00:08:06*
%MOMM*%
%LPD*%
G01*
G04 APERTURE LIST*
G04 Aperture macros list*
%AMRoundRect*
0 Rectangle with rounded corners*
0 $1 Rounding radius*
0 $2 $3 $4 $5 $6 $7 $8 $9 X,Y pos of 4 corners*
0 Add a 4 corners polygon primitive as box body*
4,1,4,$2,$3,$4,$5,$6,$7,$8,$9,$2,$3,0*
0 Add four circle primitives for the rounded corners*
1,1,$1+$1,$2,$3*
1,1,$1+$1,$4,$5*
1,1,$1+$1,$6,$7*
1,1,$1+$1,$8,$9*
0 Add four rect primitives between the rounded corners*
20,1,$1+$1,$2,$3,$4,$5,0*
20,1,$1+$1,$4,$5,$6,$7,0*
20,1,$1+$1,$6,$7,$8,$9,0*
20,1,$1+$1,$8,$9,$2,$3,0*%
G04 Aperture macros list end*
%TA.AperFunction,ComponentPad*%
%ADD10C,1.524000*%
%TD*%
%TA.AperFunction,ComponentPad*%
%ADD11RoundRect,0.250000X0.600000X0.725000X-0.600000X0.725000X-0.600000X-0.725000X0.600000X-0.725000X0*%
%TD*%
%TA.AperFunction,ComponentPad*%
%ADD12O,1.700000X1.950000*%
%TD*%
%TA.AperFunction,ComponentPad*%
%ADD13RoundRect,0.250000X-0.750000X0.600000X-0.750000X-0.600000X0.750000X-0.600000X0.750000X0.600000X0*%
%TD*%
%TA.AperFunction,ComponentPad*%
%ADD14O,2.000000X1.700000*%
%TD*%
%TA.AperFunction,ComponentPad*%
%ADD15RoundRect,0.250000X-0.600000X-0.750000X0.600000X-0.750000X0.600000X0.750000X-0.600000X0.750000X0*%
%TD*%
%TA.AperFunction,ComponentPad*%
%ADD16O,1.700000X2.000000*%
%TD*%
%TA.AperFunction,ViaPad*%
%ADD17C,0.800000*%
%TD*%
%TA.AperFunction,Conductor*%
%ADD18C,0.250000*%
%TD*%
G04 APERTURE END LIST*
D10*
%TO.P,U2,1,EN*%
%TO.N,unconnected-(U2-Pad1)*%
X22110000Y17650000D03*
%TO.P,U2,2,MODE1*%
%TO.N,unconnected-(U2-Pad2)*%
X24650000Y17650000D03*
%TO.P,U2,3,MODE2*%
%TO.N,unconnected-(U2-Pad3)*%
X27190000Y17650000D03*
%TO.P,U2,4,(1)*%
%TO.N,unconnected-(U2-Pad4)*%
X29730000Y17650000D03*
%TO.P,U2,5,(2)*%
%TO.N,unconnected-(U2-Pad5)*%
X32270000Y17650000D03*
%TO.P,U2,6,STBY*%
%TO.N,unconnected-(U2-Pad6)*%
X34810000Y17650000D03*
%TO.P,U2,7,STEP/MODE3*%
%TO.N,Net-(J2-Pad2)*%
X37350000Y17650000D03*
%TO.P,U2,8,DIR/MODE4*%
%TO.N,Net-(J2-Pad1)*%
X39890000Y17650000D03*
%TO.P,U2,9,GND*%
%TO.N,GND*%
X39780000Y30500000D03*
%TO.P,U2,10,VCC*%
%TO.N,+5V*%
X37240000Y30500000D03*
%TO.P,U2,11,A1*%
%TO.N,Net-(J6-Pad1)*%
X34700000Y30500000D03*
%TO.P,U2,12,A2*%
%TO.N,Net-(J6-Pad2)*%
X32160000Y30500000D03*
%TO.P,U2,13,B2*%
%TO.N,Net-(J6-Pad3)*%
X29620000Y30500000D03*
%TO.P,U2,14,B1*%
%TO.N,Net-(J6-Pad4)*%
X27080000Y30500000D03*
%TO.P,U2,15,GND*%
%TO.N,GND*%
X24540000Y30500000D03*
%TO.P,U2,16,VMOT*%
%TO.N,+7.5V*%
X22000000Y30500000D03*
%TD*%
D11*
%TO.P,J5,1,Pin_1*%
%TO.N,Net-(J5-Pad1)*%
X60000000Y39000000D03*
D12*
%TO.P,J5,2,Pin_2*%
%TO.N,Net-(J5-Pad2)*%
X57500000Y39000000D03*
%TO.P,J5,3,Pin_3*%
%TO.N,Net-(J5-Pad3)*%
X55000000Y39000000D03*
%TO.P,J5,4,Pin_4*%
%TO.N,Net-(J5-Pad4)*%
X52500000Y39000000D03*
%TD*%
D11*
%TO.P,J6,1,Pin_1*%
%TO.N,Net-(J6-Pad1)*%
X34000000Y39150000D03*
D12*
%TO.P,J6,2,Pin_2*%
%TO.N,Net-(J6-Pad2)*%
X31500000Y39150000D03*
%TO.P,J6,3,Pin_3*%
%TO.N,Net-(J6-Pad3)*%
X29000000Y39150000D03*
%TO.P,J6,4,Pin_4*%
%TO.N,Net-(J6-Pad4)*%
X26500000Y39150000D03*
%TD*%
D13*
%TO.P,J4,1,Pin_1*%
%TO.N,+7.5V*%
X9000000Y28000000D03*
D14*
%TO.P,J4,2,Pin_2*%
%TO.N,GND*%
X9000000Y25500000D03*
%TD*%
D10*
%TO.P,U1,1,EN*%
%TO.N,unconnected-(U1-Pad1)*%
X48110000Y17650000D03*
%TO.P,U1,2,MODE1*%
%TO.N,unconnected-(U1-Pad2)*%
X50650000Y17650000D03*
%TO.P,U1,3,MODE2*%
%TO.N,unconnected-(U1-Pad3)*%
X53190000Y17650000D03*
%TO.P,U1,4,(1)*%
%TO.N,unconnected-(U1-Pad4)*%
X55730000Y17650000D03*
%TO.P,U1,5,(2)*%
%TO.N,unconnected-(U1-Pad5)*%
X58270000Y17650000D03*
%TO.P,U1,6,STBY*%
%TO.N,unconnected-(U1-Pad6)*%
X60810000Y17650000D03*
%TO.P,U1,7,STEP/MODE3*%
%TO.N,Net-(J1-Pad2)*%
X63350000Y17650000D03*
%TO.P,U1,8,DIR/MODE4*%
%TO.N,Net-(J1-Pad1)*%
X65890000Y17650000D03*
%TO.P,U1,9,GND*%
%TO.N,GND*%
X65780000Y30500000D03*
%TO.P,U1,10,VCC*%
%TO.N,+5V*%
X63240000Y30500000D03*
%TO.P,U1,11,A1*%
%TO.N,Net-(J5-Pad1)*%
X60700000Y30500000D03*
%TO.P,U1,12,A2*%
%TO.N,Net-(J5-Pad2)*%
X58160000Y30500000D03*
%TO.P,U1,13,B2*%
%TO.N,Net-(J5-Pad3)*%
X55620000Y30500000D03*
%TO.P,U1,14,B1*%
%TO.N,Net-(J5-Pad4)*%
X53080000Y30500000D03*
%TO.P,U1,15,GND*%
%TO.N,GND*%
X50540000Y30500000D03*
%TO.P,U1,16,VMOT*%
%TO.N,+7.5V*%
X48000000Y30500000D03*
%TD*%
D13*
%TO.P,J3,1,Pin_1*%
%TO.N,+5V*%
X8850000Y17250000D03*
D14*
%TO.P,J3,2,Pin_2*%
%TO.N,GND*%
X8850000Y14750000D03*
%TD*%
D15*
%TO.P,J1,1,Pin_1*%
%TO.N,Net-(J1-Pad1)*%
X56750000Y7850000D03*
D16*
%TO.P,J1,2,Pin_2*%
%TO.N,Net-(J1-Pad2)*%
X59250000Y7850000D03*
%TD*%
D15*
%TO.P,J2,1,Pin_1*%
%TO.N,Net-(J2-Pad1)*%
X30750000Y7850000D03*
D16*
%TO.P,J2,2,Pin_2*%
%TO.N,Net-(J2-Pad2)*%
X33250000Y7850000D03*
%TD*%
D17*
%TO.N,GND*%
X71000000Y9000000D03*
X31000000Y20000000D03*
X5000000Y39000000D03*
X43000000Y1000000D03*
X21000000Y20000000D03*
X61000000Y20000000D03*
X71000000Y14000000D03*
X41000000Y20000000D03*
X53000000Y11000000D03*
X63000000Y46000000D03*
X18000000Y11000000D03*
X23000000Y6000000D03*
X28000000Y1000000D03*
X48000000Y41000000D03*
X56000000Y20000000D03*
X66000000Y14000000D03*
X66000000Y9000000D03*
X38000000Y1000000D03*
X58000000Y6000000D03*
X36000000Y20000000D03*
X48000000Y46000000D03*
X1000000Y19000000D03*
X38000000Y41000000D03*
X66000000Y34000000D03*
X26000000Y20000000D03*
X66000000Y24000000D03*
X71000000Y24000000D03*
X13000000Y1000000D03*
X43000000Y41000000D03*
X1000000Y14000000D03*
X23000000Y1000000D03*
X53000000Y1000000D03*
X63000000Y6000000D03*
X18000000Y16000000D03*
X1000000Y9000000D03*
X71000000Y19000000D03*
X6000000Y19000000D03*
X28000000Y11000000D03*
X58000000Y41000000D03*
X63000000Y1000000D03*
X23000000Y46000000D03*
X6000000Y14000000D03*
X46000000Y20000000D03*
X53000000Y46000000D03*
X38000000Y6000000D03*
X71000000Y29000000D03*
X18000000Y1000000D03*
X13000000Y6000000D03*
X66000000Y39000000D03*
X13000000Y41000000D03*
X48000000Y6000000D03*
X53000000Y41000000D03*
X66000000Y20000000D03*
X33000000Y41000000D03*
X28000000Y46000000D03*
X18000000Y6000000D03*
X23000000Y41000000D03*
X56000000Y28000000D03*
X8000000Y41000000D03*
X18000000Y46000000D03*
X53000000Y6000000D03*
X23000000Y11000000D03*
X18000000Y41000000D03*
X71000000Y39000000D03*
X28000000Y6000000D03*
X58000000Y46000000D03*
X43000000Y6000000D03*
X38000000Y11000000D03*
X63000000Y41000000D03*
X8000000Y46000000D03*
X71000000Y34000000D03*
X8000000Y1000000D03*
X38000000Y46000000D03*
X48000000Y11000000D03*
X43000000Y16000000D03*
X6000000Y9000000D03*
X43000000Y11000000D03*
X33000000Y46000000D03*
X28000000Y41000000D03*
X43000000Y46000000D03*
X1000000Y39000000D03*
X1000000Y29000000D03*
X51000000Y20000000D03*
X13000000Y46000000D03*
X1000000Y34000000D03*
X33000000Y6000000D03*
X48000000Y1000000D03*
X13000000Y11000000D03*
X33000000Y1000000D03*
X58000000Y1000000D03*
X61000000Y28000000D03*
X1000000Y24000000D03*
%TD*%
D18*
%TO.N,Net-(J1-Pad1)*%
X56750000Y7850000D02*
X56750000Y8510000D01*
X56750000Y8510000D02*
X65890000Y17650000D01*
%TO.N,Net-(J2-Pad1)*%
X30750000Y7850000D02*
X30750000Y8510000D01*
X30750000Y8510000D02*
X39890000Y17650000D01*
%TD*%
%TA.AperFunction,Conductor*%
%TO.N,+7.5V*%
G36*
X51942121Y35979998D02*
G01*
X51988614Y35926342D01*
X52000000Y35874000D01*
X52000000Y31212377D01*
X51979687Y31147946D01*
X51981418Y31146947D01*
X51978669Y31142185D01*
X51975512Y31137676D01*
X51973189Y31132695D01*
X51973187Y31132691D01*
X51924195Y31027627D01*
X51877277Y30974342D01*
X51809000Y30954881D01*
X51741040Y30975423D01*
X51695805Y31027627D01*
X51646814Y31132689D01*
X51646811Y31132694D01*
X51644488Y31137676D01*
X51641331Y31142185D01*
X51520136Y31315270D01*
X51520134Y31315273D01*
X51516977Y31319781D01*
X51359781Y31476977D01*
X51355273Y31480134D01*
X51355270Y31480136D01*
X51279505Y31533187D01*
X51177677Y31604488D01*
X51172695Y31606811D01*
X51172690Y31606814D01*
X50981178Y31696117D01*
X50981177Y31696118D01*
X50976196Y31698440D01*
X50970888Y31699862D01*
X50970886Y31699863D01*
X50905051Y31717503D01*
X50761463Y31755978D01*
X50540000Y31775353D01*
X50318537Y31755978D01*
X50174949Y31717503D01*
X50109114Y31699863D01*
X50109112Y31699862D01*
X50103804Y31698440D01*
X50098823Y31696118D01*
X50098822Y31696117D01*
X49907311Y31606814D01*
X49907306Y31606811D01*
X49902324Y31604488D01*
X49897817Y31601332D01*
X49897815Y31601331D01*
X49724730Y31480136D01*
X49724727Y31480134D01*
X49720219Y31476977D01*
X49563023Y31319781D01*
X49559866Y31315273D01*
X49559864Y31315270D01*
X49438669Y31142185D01*
X49435512Y31137676D01*
X49433189Y31132694D01*
X49433186Y31132689D01*
X49383919Y31027035D01*
X49337001Y30973750D01*
X49268724Y30954289D01*
X49200764Y30974831D01*
X49155529Y31027035D01*
X49106377Y31132441D01*
X49100897Y31141932D01*
X49070206Y31185765D01*
X49059729Y31194140D01*
X49046282Y31187072D01*
X48372022Y30512812D01*
X48364408Y30498868D01*
X48364539Y30497035D01*
X48368790Y30490420D01*
X49047003Y29812207D01*
X49058777Y29805777D01*
X49070793Y29815074D01*
X49100897Y29858068D01*
X49106377Y29867559D01*
X49155529Y29972965D01*
X49202447Y30026250D01*
X49270724Y30045711D01*
X49338684Y30025169D01*
X49383919Y29972965D01*
X49433186Y29867311D01*
X49433187Y29867309D01*
X49435512Y29862324D01*
X49438668Y29857817D01*
X49438669Y29857815D01*
X49475107Y29805777D01*
X49563023Y29680219D01*
X49720219Y29523023D01*
X49724727Y29519866D01*
X49724730Y29519864D01*
X49800495Y29466813D01*
X49902323Y29395512D01*
X49907305Y29393189D01*
X49907310Y29393186D01*
X50097810Y29304355D01*
X50103804Y29301560D01*
X50109112Y29300138D01*
X50109114Y29300137D01*
X50155097Y29287816D01*
X50318537Y29244022D01*
X50540000Y29224647D01*
X50761463Y29244022D01*
X50924903Y29287816D01*
X50970886Y29300137D01*
X50970888Y29300138D01*
X50976196Y29301560D01*
X50982190Y29304355D01*
X51172690Y29393186D01*
X51172695Y29393189D01*
X51177677Y29395512D01*
X51279505Y29466813D01*
X51355270Y29519864D01*
X51355273Y29519866D01*
X51359781Y29523023D01*
X51516977Y29680219D01*
X51604894Y29805777D01*
X51641331Y29857815D01*
X51641332Y29857817D01*
X51644488Y29862324D01*
X51646813Y29867309D01*
X51646814Y29867311D01*
X51695805Y29972373D01*
X51742723Y30025658D01*
X51811000Y30045119D01*
X51878960Y30024577D01*
X51924195Y29972373D01*
X51973187Y29867311D01*
X51975512Y29862324D01*
X51978665Y29857820D01*
X51981418Y29853053D01*
X51979687Y29852054D01*
X52000000Y29787623D01*
X52000000Y24126000D01*
X51979998Y24057879D01*
X51926342Y24011386D01*
X51874000Y24000000D01*
X9714300Y24000000D01*
X9646179Y24020002D01*
X9599686Y24073658D01*
X9589582Y24143932D01*
X9619076Y24208512D01*
X9662550Y24240882D01*
X9670447Y24244439D01*
X9813075Y24308688D01*
X10004319Y24437441D01*
X10171135Y24596576D01*
X10308754Y24781542D01*
X10413240Y24987051D01*
X10449321Y25103248D01*
X10480024Y25202129D01*
X10481607Y25207227D01*
X10482308Y25212516D01*
X10511198Y25430489D01*
X10511198Y25430494D01*
X10511898Y25435774D01*
X10503249Y25666158D01*
X10455907Y25891791D01*
X10371224Y26106221D01*
X10251623Y26303317D01*
X10164755Y26403424D01*
X10104023Y26473412D01*
X10104021Y26473414D01*
X10100523Y26477445D01*
X10064471Y26507006D01*
X10024476Y26565666D01*
X10022545Y26636636D01*
X10059290Y26697384D01*
X10078059Y26711584D01*
X10217807Y26798063D01*
X10229208Y26807099D01*
X10343739Y26921829D01*
X10352751Y26933240D01*
X10437816Y27071243D01*
X10443963Y27084424D01*
X10495138Y27238710D01*
X10498005Y27252086D01*
X10507672Y27346438D01*
X10508000Y27352854D01*
X10508000Y27727885D01*
X10503525Y27743124D01*
X10502135Y27744329D01*
X10494452Y27746000D01*
X7510116Y27746000D01*
X7494877Y27741525D01*
X7493672Y27740135D01*
X7492001Y27732452D01*
X7492001Y27352905D01*
X7492338Y27346386D01*
X7502257Y27250794D01*
X7505149Y27237400D01*
X7556588Y27083216D01*
X7562761Y27070038D01*
X7648063Y26932193D01*
X7657099Y26920792D01*
X7771829Y26806261D01*
X7783243Y26797247D01*
X7922713Y26711277D01*
X7970207Y26658505D01*
X7981631Y26588434D01*
X7953357Y26523310D01*
X7943574Y26512851D01*
X7828865Y26403424D01*
X7691246Y26218458D01*
X7586760Y26012949D01*
X7585178Y26007855D01*
X7585177Y26007852D01*
X7523115Y25807980D01*
X7518393Y25792773D01*
X7517692Y25787484D01*
X7502304Y25671377D01*
X7488102Y25564226D01*
X7496751Y25333842D01*
X7544093Y25108209D01*
X7628776Y24893779D01*
X7748377Y24696683D01*
X7751874Y24692653D01*
X7838438Y24592897D01*
X7899477Y24522555D01*
X7903608Y24519168D01*
X8073627Y24379760D01*
X8073633Y24379756D01*
X8077755Y24376376D01*
X8082391Y24373737D01*
X8082394Y24373735D01*
X8191422Y24311673D01*
X8278114Y24262325D01*
X8320012Y24247117D01*
X8327389Y24244439D01*
X8384597Y24202394D01*
X8409993Y24136095D01*
X8395513Y24066591D01*
X8345755Y24015948D01*
X8284398Y24000000D01*
X6126000Y24000000D01*
X6057879Y24020002D01*
X6011386Y24073658D01*
X6000000Y24126000D01*
X6000000Y28272115D01*
X7492000Y28272115D01*
X7496475Y28256876D01*
X7497865Y28255671D01*
X7505548Y28254000D01*
X8727885Y28254000D01*
X8743124Y28258475D01*
X8744329Y28259865D01*
X8746000Y28267548D01*
X8746000Y28272115D01*
X9254000Y28272115D01*
X9258475Y28256876D01*
X9259865Y28255671D01*
X9267548Y28254000D01*
X10489884Y28254000D01*
X10505123Y28258475D01*
X10506328Y28259865D01*
X10507999Y28267548D01*
X10507999Y28647095D01*
X10507662Y28653614D01*
X10497743Y28749206D01*
X10494851Y28762600D01*
X10443412Y28916784D01*
X10437239Y28929962D01*
X10351937Y29067807D01*
X10342901Y29079208D01*
X10228171Y29193739D01*
X10216760Y29202751D01*
X10078757Y29287816D01*
X10065576Y29293963D01*
X9911290Y29345138D01*
X9897914Y29348005D01*
X9803562Y29357672D01*
X9797145Y29358000D01*
X9272115Y29358000D01*
X9256876Y29353525D01*
X9255671Y29352135D01*
X9254000Y29344452D01*
X9254000Y28272115D01*
X8746000Y28272115D01*
X8746000Y29339884D01*
X8741525Y29355123D01*
X8740135Y29356328D01*
X8732452Y29357999D01*
X8202905Y29357999D01*
X8196386Y29357662D01*
X8100794Y29347743D01*
X8087400Y29344851D01*
X7933216Y29293412D01*
X7920038Y29287239D01*
X7782193Y29201937D01*
X7770792Y29192901D01*
X7656261Y29078171D01*
X7647249Y29066760D01*
X7562184Y28928757D01*
X7556037Y28915576D01*
X7504862Y28761290D01*
X7501995Y28747914D01*
X7492328Y28653562D01*
X7492000Y28647145D01*
X7492000Y28272115D01*
X6000000Y28272115D01*
X6000000Y29441223D01*
X21305777Y29441223D01*
X21315074Y29429207D01*
X21358069Y29399102D01*
X21367555Y29393624D01*
X21558993Y29304355D01*
X21569285Y29300609D01*
X21773309Y29245941D01*
X21784104Y29244038D01*
X21994525Y29225628D01*
X22005475Y29225628D01*
X22215896Y29244038D01*
X22226691Y29245941D01*
X22430715Y29300609D01*
X22441007Y29304355D01*
X22632445Y29393624D01*
X22641931Y29399102D01*
X22685764Y29429793D01*
X22694139Y29440271D01*
X22687071Y29453719D01*
X22012812Y30127978D01*
X21998868Y30135592D01*
X21997035Y30135461D01*
X21990420Y30131210D01*
X21312207Y29452997D01*
X21305777Y29441223D01*
X6000000Y29441223D01*
X6000000Y30494525D01*
X20725628Y30494525D01*
X20744038Y30284104D01*
X20745941Y30273309D01*
X20800609Y30069285D01*
X20804355Y30058993D01*
X20893623Y29867559D01*
X20899103Y29858068D01*
X20929794Y29814235D01*
X20940271Y29805860D01*
X20953718Y29812928D01*
X21627978Y30487188D01*
X21634356Y30498868D01*
X22364408Y30498868D01*
X22364539Y30497035D01*
X22368790Y30490420D01*
X23047003Y29812207D01*
X23058777Y29805777D01*
X23070793Y29815074D01*
X23100897Y29858068D01*
X23106377Y29867559D01*
X23155529Y29972965D01*
X23202447Y30026250D01*
X23270724Y30045711D01*
X23338684Y30025169D01*
X23383919Y29972965D01*
X23433186Y29867311D01*
X23433187Y29867309D01*
X23435512Y29862324D01*
X23438668Y29857817D01*
X23438669Y29857815D01*
X23475107Y29805777D01*
X23563023Y29680219D01*
X23720219Y29523023D01*
X23724727Y29519866D01*
X23724730Y29519864D01*
X23800495Y29466813D01*
X23902323Y29395512D01*
X23907305Y29393189D01*
X23907310Y29393186D01*
X24097810Y29304355D01*
X24103804Y29301560D01*
X24109112Y29300138D01*
X24109114Y29300137D01*
X24155097Y29287816D01*
X24318537Y29244022D01*
X24540000Y29224647D01*
X24761463Y29244022D01*
X24924903Y29287816D01*
X24970886Y29300137D01*
X24970888Y29300138D01*
X24976196Y29301560D01*
X24982190Y29304355D01*
X25172690Y29393186D01*
X25172695Y29393189D01*
X25177677Y29395512D01*
X25279505Y29466813D01*
X25355270Y29519864D01*
X25355273Y29519866D01*
X25359781Y29523023D01*
X25516977Y29680219D01*
X25604894Y29805777D01*
X25641331Y29857815D01*
X25641332Y29857817D01*
X25644488Y29862324D01*
X25646813Y29867309D01*
X25646814Y29867311D01*
X25695805Y29972373D01*
X25742723Y30025658D01*
X25811000Y30045119D01*
X25878960Y30024577D01*
X25924195Y29972373D01*
X25973186Y29867311D01*
X25973187Y29867309D01*
X25975512Y29862324D01*
X25978668Y29857817D01*
X25978669Y29857815D01*
X26015107Y29805777D01*
X26103023Y29680219D01*
X26260219Y29523023D01*
X26264727Y29519866D01*
X26264730Y29519864D01*
X26340495Y29466813D01*
X26442323Y29395512D01*
X26447305Y29393189D01*
X26447310Y29393186D01*
X26637810Y29304355D01*
X26643804Y29301560D01*
X26649112Y29300138D01*
X26649114Y29300137D01*
X26695097Y29287816D01*
X26858537Y29244022D01*
X27080000Y29224647D01*
X27301463Y29244022D01*
X27464903Y29287816D01*
X27510886Y29300137D01*
X27510888Y29300138D01*
X27516196Y29301560D01*
X27522190Y29304355D01*
X27712690Y29393186D01*
X27712695Y29393189D01*
X27717677Y29395512D01*
X27819505Y29466813D01*
X27895270Y29519864D01*
X27895273Y29519866D01*
X27899781Y29523023D01*
X28056977Y29680219D01*
X28144894Y29805777D01*
X28181331Y29857815D01*
X28181332Y29857817D01*
X28184488Y29862324D01*
X28186813Y29867309D01*
X28186814Y29867311D01*
X28235805Y29972373D01*
X28282723Y30025658D01*
X28351000Y30045119D01*
X28418960Y30024577D01*
X28464195Y29972373D01*
X28513186Y29867311D01*
X28513187Y29867309D01*
X28515512Y29862324D01*
X28518668Y29857817D01*
X28518669Y29857815D01*
X28555107Y29805777D01*
X28643023Y29680219D01*
X28800219Y29523023D01*
X28804727Y29519866D01*
X28804730Y29519864D01*
X28880495Y29466813D01*
X28982323Y29395512D01*
X28987305Y29393189D01*
X28987310Y29393186D01*
X29177810Y29304355D01*
X29183804Y29301560D01*
X29189112Y29300138D01*
X29189114Y29300137D01*
X29235097Y29287816D01*
X29398537Y29244022D01*
X29620000Y29224647D01*
X29841463Y29244022D01*
X30004903Y29287816D01*
X30050886Y29300137D01*
X30050888Y29300138D01*
X30056196Y29301560D01*
X30062190Y29304355D01*
X30252690Y29393186D01*
X30252695Y29393189D01*
X30257677Y29395512D01*
X30359505Y29466813D01*
X30435270Y29519864D01*
X30435273Y29519866D01*
X30439781Y29523023D01*
X30596977Y29680219D01*
X30684894Y29805777D01*
X30721331Y29857815D01*
X30721332Y29857817D01*
X30724488Y29862324D01*
X30726813Y29867309D01*
X30726814Y29867311D01*
X30775805Y29972373D01*
X30822723Y30025658D01*
X30891000Y30045119D01*
X30958960Y30024577D01*
X31004195Y29972373D01*
X31053186Y29867311D01*
X31053187Y29867309D01*
X31055512Y29862324D01*
X31058668Y29857817D01*
X31058669Y29857815D01*
X31095107Y29805777D01*
X31183023Y29680219D01*
X31340219Y29523023D01*
X31344727Y29519866D01*
X31344730Y29519864D01*
X31420495Y29466813D01*
X31522323Y29395512D01*
X31527305Y29393189D01*
X31527310Y29393186D01*
X31717810Y29304355D01*
X31723804Y29301560D01*
X31729112Y29300138D01*
X31729114Y29300137D01*
X31775097Y29287816D01*
X31938537Y29244022D01*
X32160000Y29224647D01*
X32381463Y29244022D01*
X32544903Y29287816D01*
X32590886Y29300137D01*
X32590888Y29300138D01*
X32596196Y29301560D01*
X32602190Y29304355D01*
X32792690Y29393186D01*
X32792695Y29393189D01*
X32797677Y29395512D01*
X32899505Y29466813D01*
X32975270Y29519864D01*
X32975273Y29519866D01*
X32979781Y29523023D01*
X33136977Y29680219D01*
X33224894Y29805777D01*
X33261331Y29857815D01*
X33261332Y29857817D01*
X33264488Y29862324D01*
X33266813Y29867309D01*
X33266814Y29867311D01*
X33315805Y29972373D01*
X33362723Y30025658D01*
X33431000Y30045119D01*
X33498960Y30024577D01*
X33544195Y29972373D01*
X33593186Y29867311D01*
X33593187Y29867309D01*
X33595512Y29862324D01*
X33598668Y29857817D01*
X33598669Y29857815D01*
X33635107Y29805777D01*
X33723023Y29680219D01*
X33880219Y29523023D01*
X33884727Y29519866D01*
X33884730Y29519864D01*
X33960495Y29466813D01*
X34062323Y29395512D01*
X34067305Y29393189D01*
X34067310Y29393186D01*
X34257810Y29304355D01*
X34263804Y29301560D01*
X34269112Y29300138D01*
X34269114Y29300137D01*
X34315097Y29287816D01*
X34478537Y29244022D01*
X34700000Y29224647D01*
X34921463Y29244022D01*
X35084903Y29287816D01*
X35130886Y29300137D01*
X35130888Y29300138D01*
X35136196Y29301560D01*
X35142190Y29304355D01*
X35332690Y29393186D01*
X35332695Y29393189D01*
X35337677Y29395512D01*
X35439505Y29466813D01*
X35515270Y29519864D01*
X35515273Y29519866D01*
X35519781Y29523023D01*
X35676977Y29680219D01*
X35764894Y29805777D01*
X35801331Y29857815D01*
X35801332Y29857817D01*
X35804488Y29862324D01*
X35806813Y29867309D01*
X35806814Y29867311D01*
X35855805Y29972373D01*
X35902723Y30025658D01*
X35971000Y30045119D01*
X36038960Y30024577D01*
X36084195Y29972373D01*
X36133186Y29867311D01*
X36133187Y29867309D01*
X36135512Y29862324D01*
X36138668Y29857817D01*
X36138669Y29857815D01*
X36175107Y29805777D01*
X36263023Y29680219D01*
X36420219Y29523023D01*
X36424727Y29519866D01*
X36424730Y29519864D01*
X36500495Y29466813D01*
X36602323Y29395512D01*
X36607305Y29393189D01*
X36607310Y29393186D01*
X36797810Y29304355D01*
X36803804Y29301560D01*
X36809112Y29300138D01*
X36809114Y29300137D01*
X36855097Y29287816D01*
X37018537Y29244022D01*
X37240000Y29224647D01*
X37461463Y29244022D01*
X37624903Y29287816D01*
X37670886Y29300137D01*
X37670888Y29300138D01*
X37676196Y29301560D01*
X37682190Y29304355D01*
X37872690Y29393186D01*
X37872695Y29393189D01*
X37877677Y29395512D01*
X37979505Y29466813D01*
X38055270Y29519864D01*
X38055273Y29519866D01*
X38059781Y29523023D01*
X38216977Y29680219D01*
X38304894Y29805777D01*
X38341331Y29857815D01*
X38341332Y29857817D01*
X38344488Y29862324D01*
X38346813Y29867309D01*
X38346814Y29867311D01*
X38395805Y29972373D01*
X38442723Y30025658D01*
X38511000Y30045119D01*
X38578960Y30024577D01*
X38624195Y29972373D01*
X38673186Y29867311D01*
X38673187Y29867309D01*
X38675512Y29862324D01*
X38678668Y29857817D01*
X38678669Y29857815D01*
X38715107Y29805777D01*
X38803023Y29680219D01*
X38960219Y29523023D01*
X38964727Y29519866D01*
X38964730Y29519864D01*
X39040495Y29466813D01*
X39142323Y29395512D01*
X39147305Y29393189D01*
X39147310Y29393186D01*
X39337810Y29304355D01*
X39343804Y29301560D01*
X39349112Y29300138D01*
X39349114Y29300137D01*
X39395097Y29287816D01*
X39558537Y29244022D01*
X39780000Y29224647D01*
X40001463Y29244022D01*
X40164903Y29287816D01*
X40210886Y29300137D01*
X40210888Y29300138D01*
X40216196Y29301560D01*
X40222190Y29304355D01*
X40412690Y29393186D01*
X40412695Y29393189D01*
X40417677Y29395512D01*
X40482959Y29441223D01*
X47305777Y29441223D01*
X47315074Y29429207D01*
X47358069Y29399102D01*
X47367555Y29393624D01*
X47558993Y29304355D01*
X47569285Y29300609D01*
X47773309Y29245941D01*
X47784104Y29244038D01*
X47994525Y29225628D01*
X48005475Y29225628D01*
X48215896Y29244038D01*
X48226691Y29245941D01*
X48430715Y29300609D01*
X48441007Y29304355D01*
X48632445Y29393624D01*
X48641931Y29399102D01*
X48685764Y29429793D01*
X48694139Y29440271D01*
X48687071Y29453719D01*
X48012812Y30127978D01*
X47998868Y30135592D01*
X47997035Y30135461D01*
X47990420Y30131210D01*
X47312207Y29452997D01*
X47305777Y29441223D01*
X40482959Y29441223D01*
X40519505Y29466813D01*
X40595270Y29519864D01*
X40595273Y29519866D01*
X40599781Y29523023D01*
X40756977Y29680219D01*
X40844894Y29805777D01*
X40881331Y29857815D01*
X40881332Y29857817D01*
X40884488Y29862324D01*
X40886813Y29867309D01*
X40886814Y29867311D01*
X40976117Y30058822D01*
X40976118Y30058823D01*
X40978440Y30063804D01*
X41035978Y30278537D01*
X41054874Y30494525D01*
X46725628Y30494525D01*
X46744038Y30284104D01*
X46745941Y30273309D01*
X46800609Y30069285D01*
X46804355Y30058993D01*
X46893623Y29867559D01*
X46899103Y29858068D01*
X46929794Y29814235D01*
X46940271Y29805860D01*
X46953718Y29812928D01*
X47627978Y30487188D01*
X47635592Y30501132D01*
X47635461Y30502965D01*
X47631210Y30509580D01*
X46952997Y31187793D01*
X46941223Y31194223D01*
X46929207Y31184926D01*
X46899103Y31141932D01*
X46893623Y31132441D01*
X46804355Y30941007D01*
X46800609Y30930715D01*
X46745941Y30726691D01*
X46744038Y30715896D01*
X46725628Y30505475D01*
X46725628Y30494525D01*
X41054874Y30494525D01*
X41055353Y30500000D01*
X41035978Y30721463D01*
X40978440Y30936196D01*
X40935805Y31027627D01*
X40886814Y31132689D01*
X40886811Y31132694D01*
X40884488Y31137676D01*
X40881331Y31142185D01*
X40760136Y31315270D01*
X40760134Y31315273D01*
X40756977Y31319781D01*
X40599781Y31476977D01*
X40595273Y31480134D01*
X40595270Y31480136D01*
X40519505Y31533187D01*
X40481599Y31559729D01*
X47305860Y31559729D01*
X47312928Y31546282D01*
X47987188Y30872022D01*
X48001132Y30864408D01*
X48002965Y30864539D01*
X48009580Y30868790D01*
X48687793Y31547003D01*
X48694223Y31558777D01*
X48684926Y31570793D01*
X48641931Y31600898D01*
X48632445Y31606376D01*
X48441007Y31695645D01*
X48430715Y31699391D01*
X48226691Y31754059D01*
X48215896Y31755962D01*
X48005475Y31774372D01*
X47994525Y31774372D01*
X47784104Y31755962D01*
X47773309Y31754059D01*
X47569285Y31699391D01*
X47558993Y31695645D01*
X47367559Y31606377D01*
X47358068Y31600897D01*
X47314235Y31570206D01*
X47305860Y31559729D01*
X40481599Y31559729D01*
X40417677Y31604488D01*
X40412695Y31606811D01*
X40412690Y31606814D01*
X40221178Y31696117D01*
X40221177Y31696118D01*
X40216196Y31698440D01*
X40210888Y31699862D01*
X40210886Y31699863D01*
X40145051Y31717503D01*
X40001463Y31755978D01*
X39780000Y31775353D01*
X39558537Y31755978D01*
X39414949Y31717503D01*
X39349114Y31699863D01*
X39349112Y31699862D01*
X39343804Y31698440D01*
X39338823Y31696118D01*
X39338822Y31696117D01*
X39147311Y31606814D01*
X39147306Y31606811D01*
X39142324Y31604488D01*
X39137817Y31601332D01*
X39137815Y31601331D01*
X38964730Y31480136D01*
X38964727Y31480134D01*
X38960219Y31476977D01*
X38803023Y31319781D01*
X38799866Y31315273D01*
X38799864Y31315270D01*
X38678669Y31142185D01*
X38675512Y31137676D01*
X38673189Y31132694D01*
X38673186Y31132689D01*
X38624195Y31027627D01*
X38577277Y30974342D01*
X38509000Y30954881D01*
X38441040Y30975423D01*
X38395805Y31027627D01*
X38346814Y31132689D01*
X38346811Y31132694D01*
X38344488Y31137676D01*
X38341331Y31142185D01*
X38220136Y31315270D01*
X38220134Y31315273D01*
X38216977Y31319781D01*
X38059781Y31476977D01*
X38055273Y31480134D01*
X38055270Y31480136D01*
X37979505Y31533187D01*
X37877677Y31604488D01*
X37872695Y31606811D01*
X37872690Y31606814D01*
X37681178Y31696117D01*
X37681177Y31696118D01*
X37676196Y31698440D01*
X37670888Y31699862D01*
X37670886Y31699863D01*
X37605051Y31717503D01*
X37461463Y31755978D01*
X37240000Y31775353D01*
X37018537Y31755978D01*
X36874949Y31717503D01*
X36809114Y31699863D01*
X36809112Y31699862D01*
X36803804Y31698440D01*
X36798823Y31696118D01*
X36798822Y31696117D01*
X36607311Y31606814D01*
X36607306Y31606811D01*
X36602324Y31604488D01*
X36597817Y31601332D01*
X36597815Y31601331D01*
X36424730Y31480136D01*
X36424727Y31480134D01*
X36420219Y31476977D01*
X36263023Y31319781D01*
X36259866Y31315273D01*
X36259864Y31315270D01*
X36138669Y31142185D01*
X36135512Y31137676D01*
X36133189Y31132694D01*
X36133186Y31132689D01*
X36084195Y31027627D01*
X36037277Y30974342D01*
X35969000Y30954881D01*
X35901040Y30975423D01*
X35855805Y31027627D01*
X35806814Y31132689D01*
X35806811Y31132694D01*
X35804488Y31137676D01*
X35801331Y31142185D01*
X35680136Y31315270D01*
X35680134Y31315273D01*
X35676977Y31319781D01*
X35519781Y31476977D01*
X35515273Y31480134D01*
X35515270Y31480136D01*
X35439505Y31533187D01*
X35337677Y31604488D01*
X35332695Y31606811D01*
X35332690Y31606814D01*
X35141178Y31696117D01*
X35141177Y31696118D01*
X35136196Y31698440D01*
X35130888Y31699862D01*
X35130886Y31699863D01*
X35065051Y31717503D01*
X34921463Y31755978D01*
X34700000Y31775353D01*
X34478537Y31755978D01*
X34334949Y31717503D01*
X34269114Y31699863D01*
X34269112Y31699862D01*
X34263804Y31698440D01*
X34258823Y31696118D01*
X34258822Y31696117D01*
X34067311Y31606814D01*
X34067306Y31606811D01*
X34062324Y31604488D01*
X34057817Y31601332D01*
X34057815Y31601331D01*
X33884730Y31480136D01*
X33884727Y31480134D01*
X33880219Y31476977D01*
X33723023Y31319781D01*
X33719866Y31315273D01*
X33719864Y31315270D01*
X33598669Y31142185D01*
X33595512Y31137676D01*
X33593189Y31132694D01*
X33593186Y31132689D01*
X33544195Y31027627D01*
X33497277Y30974342D01*
X33429000Y30954881D01*
X33361040Y30975423D01*
X33315805Y31027627D01*
X33266814Y31132689D01*
X33266811Y31132694D01*
X33264488Y31137676D01*
X33261331Y31142185D01*
X33140136Y31315270D01*
X33140134Y31315273D01*
X33136977Y31319781D01*
X32979781Y31476977D01*
X32975273Y31480134D01*
X32975270Y31480136D01*
X32899505Y31533187D01*
X32797677Y31604488D01*
X32792695Y31606811D01*
X32792690Y31606814D01*
X32601178Y31696117D01*
X32601177Y31696118D01*
X32596196Y31698440D01*
X32590888Y31699862D01*
X32590886Y31699863D01*
X32525051Y31717503D01*
X32381463Y31755978D01*
X32160000Y31775353D01*
X31938537Y31755978D01*
X31794949Y31717503D01*
X31729114Y31699863D01*
X31729112Y31699862D01*
X31723804Y31698440D01*
X31718823Y31696118D01*
X31718822Y31696117D01*
X31527311Y31606814D01*
X31527306Y31606811D01*
X31522324Y31604488D01*
X31517817Y31601332D01*
X31517815Y31601331D01*
X31344730Y31480136D01*
X31344727Y31480134D01*
X31340219Y31476977D01*
X31183023Y31319781D01*
X31179866Y31315273D01*
X31179864Y31315270D01*
X31058669Y31142185D01*
X31055512Y31137676D01*
X31053189Y31132694D01*
X31053186Y31132689D01*
X31004195Y31027627D01*
X30957277Y30974342D01*
X30889000Y30954881D01*
X30821040Y30975423D01*
X30775805Y31027627D01*
X30726814Y31132689D01*
X30726811Y31132694D01*
X30724488Y31137676D01*
X30721331Y31142185D01*
X30600136Y31315270D01*
X30600134Y31315273D01*
X30596977Y31319781D01*
X30439781Y31476977D01*
X30435273Y31480134D01*
X30435270Y31480136D01*
X30359505Y31533187D01*
X30257677Y31604488D01*
X30252695Y31606811D01*
X30252690Y31606814D01*
X30061178Y31696117D01*
X30061177Y31696118D01*
X30056196Y31698440D01*
X30050888Y31699862D01*
X30050886Y31699863D01*
X29985051Y31717503D01*
X29841463Y31755978D01*
X29620000Y31775353D01*
X29398537Y31755978D01*
X29254949Y31717503D01*
X29189114Y31699863D01*
X29189112Y31699862D01*
X29183804Y31698440D01*
X29178823Y31696118D01*
X29178822Y31696117D01*
X28987311Y31606814D01*
X28987306Y31606811D01*
X28982324Y31604488D01*
X28977817Y31601332D01*
X28977815Y31601331D01*
X28804730Y31480136D01*
X28804727Y31480134D01*
X28800219Y31476977D01*
X28643023Y31319781D01*
X28639866Y31315273D01*
X28639864Y31315270D01*
X28518669Y31142185D01*
X28515512Y31137676D01*
X28513189Y31132694D01*
X28513186Y31132689D01*
X28464195Y31027627D01*
X28417277Y30974342D01*
X28349000Y30954881D01*
X28281040Y30975423D01*
X28235805Y31027627D01*
X28186814Y31132689D01*
X28186811Y31132694D01*
X28184488Y31137676D01*
X28181331Y31142185D01*
X28060136Y31315270D01*
X28060134Y31315273D01*
X28056977Y31319781D01*
X27899781Y31476977D01*
X27895273Y31480134D01*
X27895270Y31480136D01*
X27819505Y31533187D01*
X27717677Y31604488D01*
X27712695Y31606811D01*
X27712690Y31606814D01*
X27521178Y31696117D01*
X27521177Y31696118D01*
X27516196Y31698440D01*
X27510888Y31699862D01*
X27510886Y31699863D01*
X27445051Y31717503D01*
X27301463Y31755978D01*
X27080000Y31775353D01*
X26858537Y31755978D01*
X26714949Y31717503D01*
X26649114Y31699863D01*
X26649112Y31699862D01*
X26643804Y31698440D01*
X26638823Y31696118D01*
X26638822Y31696117D01*
X26447311Y31606814D01*
X26447306Y31606811D01*
X26442324Y31604488D01*
X26437817Y31601332D01*
X26437815Y31601331D01*
X26264730Y31480136D01*
X26264727Y31480134D01*
X26260219Y31476977D01*
X26103023Y31319781D01*
X26099866Y31315273D01*
X26099864Y31315270D01*
X25978669Y31142185D01*
X25975512Y31137676D01*
X25973189Y31132694D01*
X25973186Y31132689D01*
X25924195Y31027627D01*
X25877277Y30974342D01*
X25809000Y30954881D01*
X25741040Y30975423D01*
X25695805Y31027627D01*
X25646814Y31132689D01*
X25646811Y31132694D01*
X25644488Y31137676D01*
X25641331Y31142185D01*
X25520136Y31315270D01*
X25520134Y31315273D01*
X25516977Y31319781D01*
X25359781Y31476977D01*
X25355273Y31480134D01*
X25355270Y31480136D01*
X25279505Y31533187D01*
X25177677Y31604488D01*
X25172695Y31606811D01*
X25172690Y31606814D01*
X24981178Y31696117D01*
X24981177Y31696118D01*
X24976196Y31698440D01*
X24970888Y31699862D01*
X24970886Y31699863D01*
X24905051Y31717503D01*
X24761463Y31755978D01*
X24540000Y31775353D01*
X24318537Y31755978D01*
X24174949Y31717503D01*
X24109114Y31699863D01*
X24109112Y31699862D01*
X24103804Y31698440D01*
X24098823Y31696118D01*
X24098822Y31696117D01*
X23907311Y31606814D01*
X23907306Y31606811D01*
X23902324Y31604488D01*
X23897817Y31601332D01*
X23897815Y31601331D01*
X23724730Y31480136D01*
X23724727Y31480134D01*
X23720219Y31476977D01*
X23563023Y31319781D01*
X23559866Y31315273D01*
X23559864Y31315270D01*
X23438669Y31142185D01*
X23435512Y31137676D01*
X23433189Y31132694D01*
X23433186Y31132689D01*
X23383919Y31027035D01*
X23337001Y30973750D01*
X23268724Y30954289D01*
X23200764Y30974831D01*
X23155529Y31027035D01*
X23106377Y31132441D01*
X23100897Y31141932D01*
X23070206Y31185765D01*
X23059729Y31194140D01*
X23046282Y31187072D01*
X22372022Y30512812D01*
X22364408Y30498868D01*
X21634356Y30498868D01*
X21635592Y30501132D01*
X21635461Y30502965D01*
X21631210Y30509580D01*
X20952997Y31187793D01*
X20941223Y31194223D01*
X20929207Y31184926D01*
X20899103Y31141932D01*
X20893623Y31132441D01*
X20804355Y30941007D01*
X20800609Y30930715D01*
X20745941Y30726691D01*
X20744038Y30715896D01*
X20725628Y30505475D01*
X20725628Y30494525D01*
X6000000Y30494525D01*
X6000000Y31559729D01*
X21305860Y31559729D01*
X21312928Y31546282D01*
X21987188Y30872022D01*
X22001132Y30864408D01*
X22002965Y30864539D01*
X22009580Y30868790D01*
X22687793Y31547003D01*
X22694223Y31558777D01*
X22684926Y31570793D01*
X22641931Y31600898D01*
X22632445Y31606376D01*
X22441007Y31695645D01*
X22430715Y31699391D01*
X22226691Y31754059D01*
X22215896Y31755962D01*
X22005475Y31774372D01*
X21994525Y31774372D01*
X21784104Y31755962D01*
X21773309Y31754059D01*
X21569285Y31699391D01*
X21558993Y31695645D01*
X21367559Y31606377D01*
X21358068Y31600897D01*
X21314235Y31570206D01*
X21305860Y31559729D01*
X6000000Y31559729D01*
X6000000Y35874000D01*
X6020002Y35942121D01*
X6073658Y35988614D01*
X6126000Y36000000D01*
X51874000Y36000000D01*
X51942121Y35979998D01*
G37*
%TD.AperFunction*%
%TD*%
%TA.AperFunction,Conductor*%
%TO.N,GND*%
G36*
X64942121Y46471498D02*
G01*
X64988614Y46417842D01*
X65000000Y46365500D01*
X65000000Y40000000D01*
X71365500Y40000000D01*
X71433621Y39979998D01*
X71480114Y39926342D01*
X71491500Y39874000D01*
X71491500Y7126000D01*
X71471498Y7057879D01*
X71417842Y7011386D01*
X71365500Y7000000D01*
X65000000Y7000000D01*
X65000000Y634500D01*
X64979998Y566379D01*
X64926342Y519886D01*
X64874000Y508500D01*
X7126000Y508500D01*
X7057879Y528502D01*
X7011386Y582158D01*
X7000000Y634500D01*
X7000000Y7000000D01*
X634500Y7000000D01*
X566379Y7020002D01*
X519886Y7073658D01*
X508500Y7126000D01*
X508500Y14481420D01*
X7368752Y14481420D01*
X7393477Y14363579D01*
X7396537Y14353383D01*
X7477263Y14148971D01*
X7481994Y14139439D01*
X7596016Y13951538D01*
X7602280Y13942948D01*
X7746327Y13776948D01*
X7753958Y13769528D01*
X7923911Y13630174D01*
X7932678Y13624150D01*
X8123682Y13515424D01*
X8133346Y13510959D01*
X8339941Y13435969D01*
X8350208Y13433198D01*
X8567655Y13393877D01*
X8575884Y13392944D01*
X8580376Y13392732D01*
X8593124Y13396475D01*
X8594329Y13397865D01*
X8596000Y13405548D01*
X8596000Y13414030D01*
X9104000Y13414030D01*
X9108310Y13399352D01*
X9120193Y13397289D01*
X9224325Y13406124D01*
X9234797Y13407914D01*
X9447535Y13463130D01*
X9457575Y13466665D01*
X9657970Y13556937D01*
X9667256Y13562106D01*
X9849575Y13684850D01*
X9857870Y13691519D01*
X10016900Y13843228D01*
X10023941Y13851186D01*
X10155141Y14027525D01*
X10160745Y14036562D01*
X10260357Y14232484D01*
X10264357Y14242335D01*
X10329534Y14452240D01*
X10331817Y14462624D01*
X10333861Y14478043D01*
X10331665Y14492207D01*
X10318478Y14496000D01*
X9122115Y14496000D01*
X9106876Y14491525D01*
X9105671Y14490135D01*
X9104000Y14482452D01*
X9104000Y13414030D01*
X8596000Y13414030D01*
X8596000Y14477885D01*
X8591525Y14493124D01*
X8590135Y14494329D01*
X8582452Y14496000D01*
X7383808Y14496000D01*
X7370277Y14492027D01*
X7368752Y14481420D01*
X508500Y14481420D01*
X508500Y16599600D01*
X7341500Y16599600D01*
X7352474Y16493834D01*
X7354655Y16487298D01*
X7354655Y16487296D01*
X7376001Y16423314D01*
X7408450Y16326054D01*
X7501522Y16175652D01*
X7626697Y16050695D01*
X7772258Y15960970D01*
X7772780Y15960648D01*
X7820273Y15907876D01*
X7831697Y15837804D01*
X7803423Y15772680D01*
X7793636Y15762218D01*
X7683094Y15656766D01*
X7676059Y15648814D01*
X7544859Y15472475D01*
X7539255Y15463438D01*
X7439643Y15267516D01*
X7435643Y15257665D01*
X7370466Y15047760D01*
X7368183Y15037376D01*
X7366139Y15021957D01*
X7368335Y15007793D01*
X7381522Y15004000D01*
X10316192Y15004000D01*
X10329723Y15007973D01*
X10331248Y15018580D01*
X10306523Y15136421D01*
X10303463Y15146617D01*
X10222737Y15351029D01*
X10218006Y15360561D01*
X10103984Y15548462D01*
X10097720Y15557052D01*
X9953673Y15723052D01*
X9946044Y15730470D01*
X9914431Y15756391D01*
X9874436Y15815051D01*
X9872504Y15886021D01*
X9909248Y15946770D01*
X9928018Y15960970D01*
X10068120Y16047668D01*
X10074348Y16051522D01*
X10199305Y16176697D01*
X10292115Y16327262D01*
X10347797Y16495139D01*
X10358500Y16599600D01*
X10358500Y17650000D01*
X20834647Y17650000D01*
X20854022Y17428537D01*
X20911560Y17213804D01*
X20913882Y17208823D01*
X20913883Y17208822D01*
X21003186Y17017311D01*
X21003189Y17017306D01*
X21005512Y17012324D01*
X21133023Y16830219D01*
X21290219Y16673023D01*
X21294727Y16669866D01*
X21294730Y16669864D01*
X21370495Y16616813D01*
X21472323Y16545512D01*
X21477305Y16543189D01*
X21477310Y16543186D01*
X21668822Y16453883D01*
X21673804Y16451560D01*
X21679112Y16450138D01*
X21679114Y16450137D01*
X21744949Y16432497D01*
X21888537Y16394022D01*
X22110000Y16374647D01*
X22331463Y16394022D01*
X22475051Y16432497D01*
X22540886Y16450137D01*
X22540888Y16450138D01*
X22546196Y16451560D01*
X22551178Y16453883D01*
X22742690Y16543186D01*
X22742695Y16543189D01*
X22747677Y16545512D01*
X22849505Y16616813D01*
X22925270Y16669864D01*
X22925273Y16669866D01*
X22929781Y16673023D01*
X23086977Y16830219D01*
X23214488Y17012324D01*
X23216811Y17017306D01*
X23216814Y17017311D01*
X23265805Y17122373D01*
X23312723Y17175658D01*
X23381000Y17195119D01*
X23448960Y17174577D01*
X23494195Y17122373D01*
X23543186Y17017311D01*
X23543189Y17017306D01*
X23545512Y17012324D01*
X23673023Y16830219D01*
X23830219Y16673023D01*
X23834727Y16669866D01*
X23834730Y16669864D01*
X23910495Y16616813D01*
X24012323Y16545512D01*
X24017305Y16543189D01*
X24017310Y16543186D01*
X24208822Y16453883D01*
X24213804Y16451560D01*
X24219112Y16450138D01*
X24219114Y16450137D01*
X24284949Y16432497D01*
X24428537Y16394022D01*
X24650000Y16374647D01*
X24871463Y16394022D01*
X25015051Y16432497D01*
X25080886Y16450137D01*
X25080888Y16450138D01*
X25086196Y16451560D01*
X25091178Y16453883D01*
X25282690Y16543186D01*
X25282695Y16543189D01*
X25287677Y16545512D01*
X25389505Y16616813D01*
X25465270Y16669864D01*
X25465273Y16669866D01*
X25469781Y16673023D01*
X25626977Y16830219D01*
X25754488Y17012324D01*
X25756811Y17017306D01*
X25756814Y17017311D01*
X25805805Y17122373D01*
X25852723Y17175658D01*
X25921000Y17195119D01*
X25988960Y17174577D01*
X26034195Y17122373D01*
X26083186Y17017311D01*
X26083189Y17017306D01*
X26085512Y17012324D01*
X26213023Y16830219D01*
X26370219Y16673023D01*
X26374727Y16669866D01*
X26374730Y16669864D01*
X26450495Y16616813D01*
X26552323Y16545512D01*
X26557305Y16543189D01*
X26557310Y16543186D01*
X26748822Y16453883D01*
X26753804Y16451560D01*
X26759112Y16450138D01*
X26759114Y16450137D01*
X26824949Y16432497D01*
X26968537Y16394022D01*
X27190000Y16374647D01*
X27411463Y16394022D01*
X27555051Y16432497D01*
X27620886Y16450137D01*
X27620888Y16450138D01*
X27626196Y16451560D01*
X27631178Y16453883D01*
X27822690Y16543186D01*
X27822695Y16543189D01*
X27827677Y16545512D01*
X27929505Y16616813D01*
X28005270Y16669864D01*
X28005273Y16669866D01*
X28009781Y16673023D01*
X28166977Y16830219D01*
X28294488Y17012324D01*
X28296811Y17017306D01*
X28296814Y17017311D01*
X28345805Y17122373D01*
X28392723Y17175658D01*
X28461000Y17195119D01*
X28528960Y17174577D01*
X28574195Y17122373D01*
X28623186Y17017311D01*
X28623189Y17017306D01*
X28625512Y17012324D01*
X28753023Y16830219D01*
X28910219Y16673023D01*
X28914727Y16669866D01*
X28914730Y16669864D01*
X28990495Y16616813D01*
X29092323Y16545512D01*
X29097305Y16543189D01*
X29097310Y16543186D01*
X29288822Y16453883D01*
X29293804Y16451560D01*
X29299112Y16450138D01*
X29299114Y16450137D01*
X29364949Y16432497D01*
X29508537Y16394022D01*
X29730000Y16374647D01*
X29951463Y16394022D01*
X30095051Y16432497D01*
X30160886Y16450137D01*
X30160888Y16450138D01*
X30166196Y16451560D01*
X30171178Y16453883D01*
X30362690Y16543186D01*
X30362695Y16543189D01*
X30367677Y16545512D01*
X30469505Y16616813D01*
X30545270Y16669864D01*
X30545273Y16669866D01*
X30549781Y16673023D01*
X30706977Y16830219D01*
X30834488Y17012324D01*
X30836811Y17017306D01*
X30836814Y17017311D01*
X30885805Y17122373D01*
X30932723Y17175658D01*
X31001000Y17195119D01*
X31068960Y17174577D01*
X31114195Y17122373D01*
X31163186Y17017311D01*
X31163189Y17017306D01*
X31165512Y17012324D01*
X31293023Y16830219D01*
X31450219Y16673023D01*
X31454727Y16669866D01*
X31454730Y16669864D01*
X31530495Y16616813D01*
X31632323Y16545512D01*
X31637305Y16543189D01*
X31637310Y16543186D01*
X31828822Y16453883D01*
X31833804Y16451560D01*
X31839112Y16450138D01*
X31839114Y16450137D01*
X31904949Y16432497D01*
X32048537Y16394022D01*
X32270000Y16374647D01*
X32491463Y16394022D01*
X32635051Y16432497D01*
X32700886Y16450137D01*
X32700888Y16450138D01*
X32706196Y16451560D01*
X32711178Y16453883D01*
X32902690Y16543186D01*
X32902695Y16543189D01*
X32907677Y16545512D01*
X33009505Y16616813D01*
X33085270Y16669864D01*
X33085273Y16669866D01*
X33089781Y16673023D01*
X33246977Y16830219D01*
X33374488Y17012324D01*
X33376811Y17017306D01*
X33376814Y17017311D01*
X33425805Y17122373D01*
X33472723Y17175658D01*
X33541000Y17195119D01*
X33608960Y17174577D01*
X33654195Y17122373D01*
X33703186Y17017311D01*
X33703189Y17017306D01*
X33705512Y17012324D01*
X33833023Y16830219D01*
X33990219Y16673023D01*
X33994727Y16669866D01*
X33994730Y16669864D01*
X34070495Y16616813D01*
X34172323Y16545512D01*
X34177305Y16543189D01*
X34177310Y16543186D01*
X34368822Y16453883D01*
X34373804Y16451560D01*
X34379112Y16450138D01*
X34379114Y16450137D01*
X34444949Y16432497D01*
X34588537Y16394022D01*
X34810000Y16374647D01*
X35031463Y16394022D01*
X35175051Y16432497D01*
X35240886Y16450137D01*
X35240888Y16450138D01*
X35246196Y16451560D01*
X35251178Y16453883D01*
X35442690Y16543186D01*
X35442695Y16543189D01*
X35447677Y16545512D01*
X35549505Y16616813D01*
X35625270Y16669864D01*
X35625273Y16669866D01*
X35629781Y16673023D01*
X35786977Y16830219D01*
X35914488Y17012324D01*
X35916811Y17017306D01*
X35916814Y17017311D01*
X35965805Y17122373D01*
X36012723Y17175658D01*
X36081000Y17195119D01*
X36148960Y17174577D01*
X36194195Y17122373D01*
X36243186Y17017311D01*
X36243189Y17017306D01*
X36245512Y17012324D01*
X36373023Y16830219D01*
X36530219Y16673023D01*
X36534727Y16669866D01*
X36534730Y16669864D01*
X36610495Y16616813D01*
X36712323Y16545512D01*
X36717305Y16543189D01*
X36717310Y16543186D01*
X36908822Y16453883D01*
X36913804Y16451560D01*
X36919112Y16450138D01*
X36919114Y16450137D01*
X36984949Y16432497D01*
X37128537Y16394022D01*
X37350000Y16374647D01*
X37355475Y16375126D01*
X37409233Y16379829D01*
X37478838Y16365839D01*
X37529830Y16316440D01*
X37546020Y16247314D01*
X37522267Y16180409D01*
X37509309Y16165213D01*
X30739500Y9395405D01*
X30677188Y9361379D01*
X30650405Y9358500D01*
X30099600Y9358500D01*
X30096354Y9358163D01*
X30096350Y9358163D01*
X30000692Y9348238D01*
X30000688Y9348237D01*
X29993834Y9347526D01*
X29987298Y9345345D01*
X29987296Y9345345D01*
X29948220Y9332308D01*
X29826054Y9291550D01*
X29675652Y9198478D01*
X29550695Y9073303D01*
X29546855Y9067073D01*
X29546854Y9067072D01*
X29516161Y9017278D01*
X29457885Y8922738D01*
X29402203Y8754861D01*
X29391500Y8650400D01*
X29391500Y7049600D01*
X29402474Y6943834D01*
X29404655Y6937298D01*
X29404655Y6937296D01*
X29440033Y6831256D01*
X29458450Y6776054D01*
X29551522Y6625652D01*
X29676697Y6500695D01*
X29682927Y6496855D01*
X29682928Y6496854D01*
X29820090Y6412306D01*
X29827262Y6407885D01*
X29862938Y6396052D01*
X29988611Y6354368D01*
X29988613Y6354368D01*
X29995139Y6352203D01*
X30001975Y6351503D01*
X30001978Y6351502D01*
X30037663Y6347846D01*
X30099600Y6341500D01*
X31400400Y6341500D01*
X31403646Y6341837D01*
X31403650Y6341837D01*
X31499308Y6351762D01*
X31499312Y6351763D01*
X31506166Y6352474D01*
X31512702Y6354655D01*
X31512704Y6354655D01*
X31644806Y6398728D01*
X31673946Y6408450D01*
X31824348Y6501522D01*
X31949305Y6626697D01*
X32039081Y6772340D01*
X32091852Y6819832D01*
X32161924Y6831256D01*
X32227048Y6802982D01*
X32237510Y6793195D01*
X32279215Y6749477D01*
X32346576Y6678865D01*
X32531542Y6541246D01*
X32536293Y6538830D01*
X32536297Y6538828D01*
X32599481Y6506704D01*
X32737051Y6436760D01*
X32742145Y6435178D01*
X32742148Y6435177D01*
X32942020Y6373115D01*
X32957227Y6368393D01*
X32962516Y6367692D01*
X33180489Y6338802D01*
X33180494Y6338802D01*
X33185774Y6338102D01*
X33191103Y6338302D01*
X33191105Y6338302D01*
X33300966Y6342427D01*
X33416158Y6346751D01*
X33438802Y6351502D01*
X33636572Y6392998D01*
X33641791Y6394093D01*
X33646750Y6396051D01*
X33646752Y6396052D01*
X33851256Y6476815D01*
X33851258Y6476816D01*
X33856221Y6478776D01*
X33892343Y6500695D01*
X34048757Y6595610D01*
X34048756Y6595610D01*
X34053317Y6598377D01*
X34093134Y6632928D01*
X34223412Y6745977D01*
X34223414Y6745979D01*
X34227445Y6749477D01*
X34294500Y6831256D01*
X34370240Y6923627D01*
X34370244Y6923633D01*
X34373624Y6927755D01*
X34487675Y7128114D01*
X34566337Y7344825D01*
X34567287Y7350077D01*
X34606623Y7567608D01*
X34606624Y7567615D01*
X34607361Y7571692D01*
X34608500Y7595844D01*
X34608500Y8057890D01*
X34593920Y8229720D01*
X34592582Y8234875D01*
X34592581Y8234881D01*
X34537343Y8447703D01*
X34537342Y8447707D01*
X34536001Y8452872D01*
X34441312Y8663075D01*
X34312559Y8854319D01*
X34253918Y8915791D01*
X34157103Y9017278D01*
X34153424Y9021135D01*
X33968458Y9158754D01*
X33963707Y9161170D01*
X33963703Y9161172D01*
X33845588Y9221224D01*
X33762949Y9263240D01*
X33757855Y9264822D01*
X33757852Y9264823D01*
X33547871Y9330024D01*
X33542773Y9331607D01*
X33537484Y9332308D01*
X33319511Y9361198D01*
X33319506Y9361198D01*
X33314226Y9361898D01*
X33308897Y9361698D01*
X33308895Y9361698D01*
X33199034Y9357574D01*
X33083842Y9353249D01*
X33078623Y9352154D01*
X32984037Y9332308D01*
X32858209Y9305907D01*
X32853253Y9303950D01*
X32853247Y9303948D01*
X32734698Y9257130D01*
X32663992Y9250712D01*
X32601040Y9283539D01*
X32565830Y9345190D01*
X32569540Y9416089D01*
X32599321Y9463417D01*
X39507779Y16371874D01*
X39570091Y16405900D01*
X39629486Y16404485D01*
X39663217Y16395447D01*
X39663223Y16395446D01*
X39668537Y16394022D01*
X39890000Y16374647D01*
X40111463Y16394022D01*
X40255051Y16432497D01*
X40320886Y16450137D01*
X40320888Y16450138D01*
X40326196Y16451560D01*
X40331178Y16453883D01*
X40522690Y16543186D01*
X40522695Y16543189D01*
X40527677Y16545512D01*
X40629505Y16616813D01*
X40705270Y16669864D01*
X40705273Y16669866D01*
X40709781Y16673023D01*
X40866977Y16830219D01*
X40994488Y17012324D01*
X40996811Y17017306D01*
X40996814Y17017311D01*
X41086117Y17208822D01*
X41086118Y17208823D01*
X41088440Y17213804D01*
X41145978Y17428537D01*
X41165353Y17650000D01*
X46834647Y17650000D01*
X46854022Y17428537D01*
X46911560Y17213804D01*
X46913882Y17208823D01*
X46913883Y17208822D01*
X47003186Y17017311D01*
X47003189Y17017306D01*
X47005512Y17012324D01*
X47133023Y16830219D01*
X47290219Y16673023D01*
X47294727Y16669866D01*
X47294730Y16669864D01*
X47370495Y16616813D01*
X47472323Y16545512D01*
X47477305Y16543189D01*
X47477310Y16543186D01*
X47668822Y16453883D01*
X47673804Y16451560D01*
X47679112Y16450138D01*
X47679114Y16450137D01*
X47744949Y16432497D01*
X47888537Y16394022D01*
X48110000Y16374647D01*
X48331463Y16394022D01*
X48475051Y16432497D01*
X48540886Y16450137D01*
X48540888Y16450138D01*
X48546196Y16451560D01*
X48551178Y16453883D01*
X48742690Y16543186D01*
X48742695Y16543189D01*
X48747677Y16545512D01*
X48849505Y16616813D01*
X48925270Y16669864D01*
X48925273Y16669866D01*
X48929781Y16673023D01*
X49086977Y16830219D01*
X49214488Y17012324D01*
X49216811Y17017306D01*
X49216814Y17017311D01*
X49265805Y17122373D01*
X49312723Y17175658D01*
X49381000Y17195119D01*
X49448960Y17174577D01*
X49494195Y17122373D01*
X49543186Y17017311D01*
X49543189Y17017306D01*
X49545512Y17012324D01*
X49673023Y16830219D01*
X49830219Y16673023D01*
X49834727Y16669866D01*
X49834730Y16669864D01*
X49910495Y16616813D01*
X50012323Y16545512D01*
X50017305Y16543189D01*
X50017310Y16543186D01*
X50208822Y16453883D01*
X50213804Y16451560D01*
X50219112Y16450138D01*
X50219114Y16450137D01*
X50284949Y16432497D01*
X50428537Y16394022D01*
X50650000Y16374647D01*
X50871463Y16394022D01*
X51015051Y16432497D01*
X51080886Y16450137D01*
X51080888Y16450138D01*
X51086196Y16451560D01*
X51091178Y16453883D01*
X51282690Y16543186D01*
X51282695Y16543189D01*
X51287677Y16545512D01*
X51389505Y16616813D01*
X51465270Y16669864D01*
X51465273Y16669866D01*
X51469781Y16673023D01*
X51626977Y16830219D01*
X51754488Y17012324D01*
X51756811Y17017306D01*
X51756814Y17017311D01*
X51805805Y17122373D01*
X51852723Y17175658D01*
X51921000Y17195119D01*
X51988960Y17174577D01*
X52034195Y17122373D01*
X52083186Y17017311D01*
X52083189Y17017306D01*
X52085512Y17012324D01*
X52213023Y16830219D01*
X52370219Y16673023D01*
X52374727Y16669866D01*
X52374730Y16669864D01*
X52450495Y16616813D01*
X52552323Y16545512D01*
X52557305Y16543189D01*
X52557310Y16543186D01*
X52748822Y16453883D01*
X52753804Y16451560D01*
X52759112Y16450138D01*
X52759114Y16450137D01*
X52824949Y16432497D01*
X52968537Y16394022D01*
X53190000Y16374647D01*
X53411463Y16394022D01*
X53555051Y16432497D01*
X53620886Y16450137D01*
X53620888Y16450138D01*
X53626196Y16451560D01*
X53631178Y16453883D01*
X53822690Y16543186D01*
X53822695Y16543189D01*
X53827677Y16545512D01*
X53929505Y16616813D01*
X54005270Y16669864D01*
X54005273Y16669866D01*
X54009781Y16673023D01*
X54166977Y16830219D01*
X54294488Y17012324D01*
X54296811Y17017306D01*
X54296814Y17017311D01*
X54345805Y17122373D01*
X54392723Y17175658D01*
X54461000Y17195119D01*
X54528960Y17174577D01*
X54574195Y17122373D01*
X54623186Y17017311D01*
X54623189Y17017306D01*
X54625512Y17012324D01*
X54753023Y16830219D01*
X54910219Y16673023D01*
X54914727Y16669866D01*
X54914730Y16669864D01*
X54990495Y16616813D01*
X55092323Y16545512D01*
X55097305Y16543189D01*
X55097310Y16543186D01*
X55288822Y16453883D01*
X55293804Y16451560D01*
X55299112Y16450138D01*
X55299114Y16450137D01*
X55364949Y16432497D01*
X55508537Y16394022D01*
X55730000Y16374647D01*
X55951463Y16394022D01*
X56095051Y16432497D01*
X56160886Y16450137D01*
X56160888Y16450138D01*
X56166196Y16451560D01*
X56171178Y16453883D01*
X56362690Y16543186D01*
X56362695Y16543189D01*
X56367677Y16545512D01*
X56469505Y16616813D01*
X56545270Y16669864D01*
X56545273Y16669866D01*
X56549781Y16673023D01*
X56706977Y16830219D01*
X56834488Y17012324D01*
X56836811Y17017306D01*
X56836814Y17017311D01*
X56885805Y17122373D01*
X56932723Y17175658D01*
X57001000Y17195119D01*
X57068960Y17174577D01*
X57114195Y17122373D01*
X57163186Y17017311D01*
X57163189Y17017306D01*
X57165512Y17012324D01*
X57293023Y16830219D01*
X57450219Y16673023D01*
X57454727Y16669866D01*
X57454730Y16669864D01*
X57530495Y16616813D01*
X57632323Y16545512D01*
X57637305Y16543189D01*
X57637310Y16543186D01*
X57828822Y16453883D01*
X57833804Y16451560D01*
X57839112Y16450138D01*
X57839114Y16450137D01*
X57904949Y16432497D01*
X58048537Y16394022D01*
X58270000Y16374647D01*
X58491463Y16394022D01*
X58635051Y16432497D01*
X58700886Y16450137D01*
X58700888Y16450138D01*
X58706196Y16451560D01*
X58711178Y16453883D01*
X58902690Y16543186D01*
X58902695Y16543189D01*
X58907677Y16545512D01*
X59009505Y16616813D01*
X59085270Y16669864D01*
X59085273Y16669866D01*
X59089781Y16673023D01*
X59246977Y16830219D01*
X59374488Y17012324D01*
X59376811Y17017306D01*
X59376814Y17017311D01*
X59425805Y17122373D01*
X59472723Y17175658D01*
X59541000Y17195119D01*
X59608960Y17174577D01*
X59654195Y17122373D01*
X59703186Y17017311D01*
X59703189Y17017306D01*
X59705512Y17012324D01*
X59833023Y16830219D01*
X59990219Y16673023D01*
X59994727Y16669866D01*
X59994730Y16669864D01*
X60070495Y16616813D01*
X60172323Y16545512D01*
X60177305Y16543189D01*
X60177310Y16543186D01*
X60368822Y16453883D01*
X60373804Y16451560D01*
X60379112Y16450138D01*
X60379114Y16450137D01*
X60444949Y16432497D01*
X60588537Y16394022D01*
X60810000Y16374647D01*
X61031463Y16394022D01*
X61175051Y16432497D01*
X61240886Y16450137D01*
X61240888Y16450138D01*
X61246196Y16451560D01*
X61251178Y16453883D01*
X61442690Y16543186D01*
X61442695Y16543189D01*
X61447677Y16545512D01*
X61549505Y16616813D01*
X61625270Y16669864D01*
X61625273Y16669866D01*
X61629781Y16673023D01*
X61786977Y16830219D01*
X61914488Y17012324D01*
X61916811Y17017306D01*
X61916814Y17017311D01*
X61965805Y17122373D01*
X62012723Y17175658D01*
X62081000Y17195119D01*
X62148960Y17174577D01*
X62194195Y17122373D01*
X62243186Y17017311D01*
X62243189Y17017306D01*
X62245512Y17012324D01*
X62373023Y16830219D01*
X62530219Y16673023D01*
X62534727Y16669866D01*
X62534730Y16669864D01*
X62610495Y16616813D01*
X62712323Y16545512D01*
X62717305Y16543189D01*
X62717310Y16543186D01*
X62908822Y16453883D01*
X62913804Y16451560D01*
X62919112Y16450138D01*
X62919114Y16450137D01*
X62984949Y16432497D01*
X63128537Y16394022D01*
X63350000Y16374647D01*
X63355475Y16375126D01*
X63409233Y16379829D01*
X63478838Y16365839D01*
X63529830Y16316440D01*
X63546020Y16247314D01*
X63522267Y16180409D01*
X63509309Y16165213D01*
X56739500Y9395405D01*
X56677188Y9361379D01*
X56650405Y9358500D01*
X56099600Y9358500D01*
X56096354Y9358163D01*
X56096350Y9358163D01*
X56000692Y9348238D01*
X56000688Y9348237D01*
X55993834Y9347526D01*
X55987298Y9345345D01*
X55987296Y9345345D01*
X55948220Y9332308D01*
X55826054Y9291550D01*
X55675652Y9198478D01*
X55550695Y9073303D01*
X55546855Y9067073D01*
X55546854Y9067072D01*
X55516161Y9017278D01*
X55457885Y8922738D01*
X55402203Y8754861D01*
X55391500Y8650400D01*
X55391500Y7049600D01*
X55402474Y6943834D01*
X55404655Y6937298D01*
X55404655Y6937296D01*
X55440033Y6831256D01*
X55458450Y6776054D01*
X55551522Y6625652D01*
X55676697Y6500695D01*
X55682927Y6496855D01*
X55682928Y6496854D01*
X55820090Y6412306D01*
X55827262Y6407885D01*
X55862938Y6396052D01*
X55988611Y6354368D01*
X55988613Y6354368D01*
X55995139Y6352203D01*
X56001975Y6351503D01*
X56001978Y6351502D01*
X56037663Y6347846D01*
X56099600Y6341500D01*
X57400400Y6341500D01*
X57403646Y6341837D01*
X57403650Y6341837D01*
X57499308Y6351762D01*
X57499312Y6351763D01*
X57506166Y6352474D01*
X57512702Y6354655D01*
X57512704Y6354655D01*
X57644806Y6398728D01*
X57673946Y6408450D01*
X57824348Y6501522D01*
X57949305Y6626697D01*
X58039081Y6772340D01*
X58091852Y6819832D01*
X58161924Y6831256D01*
X58227048Y6802982D01*
X58237510Y6793195D01*
X58279215Y6749477D01*
X58346576Y6678865D01*
X58531542Y6541246D01*
X58536293Y6538830D01*
X58536297Y6538828D01*
X58599481Y6506704D01*
X58737051Y6436760D01*
X58742145Y6435178D01*
X58742148Y6435177D01*
X58942020Y6373115D01*
X58957227Y6368393D01*
X58962516Y6367692D01*
X59180489Y6338802D01*
X59180494Y6338802D01*
X59185774Y6338102D01*
X59191103Y6338302D01*
X59191105Y6338302D01*
X59300966Y6342427D01*
X59416158Y6346751D01*
X59438802Y6351502D01*
X59636572Y6392998D01*
X59641791Y6394093D01*
X59646750Y6396051D01*
X59646752Y6396052D01*
X59851256Y6476815D01*
X59851258Y6476816D01*
X59856221Y6478776D01*
X59892343Y6500695D01*
X60048757Y6595610D01*
X60048756Y6595610D01*
X60053317Y6598377D01*
X60093134Y6632928D01*
X60223412Y6745977D01*
X60223414Y6745979D01*
X60227445Y6749477D01*
X60294500Y6831256D01*
X60370240Y6923627D01*
X60370244Y6923633D01*
X60373624Y6927755D01*
X60487675Y7128114D01*
X60566337Y7344825D01*
X60567287Y7350077D01*
X60606623Y7567608D01*
X60606624Y7567615D01*
X60607361Y7571692D01*
X60608500Y7595844D01*
X60608500Y8057890D01*
X60593920Y8229720D01*
X60592582Y8234875D01*
X60592581Y8234881D01*
X60537343Y8447703D01*
X60537342Y8447707D01*
X60536001Y8452872D01*
X60441312Y8663075D01*
X60312559Y8854319D01*
X60253918Y8915791D01*
X60157103Y9017278D01*
X60153424Y9021135D01*
X59968458Y9158754D01*
X59963707Y9161170D01*
X59963703Y9161172D01*
X59845588Y9221224D01*
X59762949Y9263240D01*
X59757855Y9264822D01*
X59757852Y9264823D01*
X59547871Y9330024D01*
X59542773Y9331607D01*
X59537484Y9332308D01*
X59319511Y9361198D01*
X59319506Y9361198D01*
X59314226Y9361898D01*
X59308897Y9361698D01*
X59308895Y9361698D01*
X59199034Y9357574D01*
X59083842Y9353249D01*
X59078623Y9352154D01*
X58984037Y9332308D01*
X58858209Y9305907D01*
X58853253Y9303950D01*
X58853247Y9303948D01*
X58734698Y9257130D01*
X58663992Y9250712D01*
X58601040Y9283539D01*
X58565830Y9345190D01*
X58569540Y9416089D01*
X58599321Y9463417D01*
X65507779Y16371874D01*
X65570091Y16405900D01*
X65629486Y16404485D01*
X65663217Y16395447D01*
X65663223Y16395446D01*
X65668537Y16394022D01*
X65890000Y16374647D01*
X66111463Y16394022D01*
X66255051Y16432497D01*
X66320886Y16450137D01*
X66320888Y16450138D01*
X66326196Y16451560D01*
X66331178Y16453883D01*
X66522690Y16543186D01*
X66522695Y16543189D01*
X66527677Y16545512D01*
X66629505Y16616813D01*
X66705270Y16669864D01*
X66705273Y16669866D01*
X66709781Y16673023D01*
X66866977Y16830219D01*
X66994488Y17012324D01*
X66996811Y17017306D01*
X66996814Y17017311D01*
X67086117Y17208822D01*
X67086118Y17208823D01*
X67088440Y17213804D01*
X67145978Y17428537D01*
X67165353Y17650000D01*
X67145978Y17871463D01*
X67088440Y18086196D01*
X67051324Y18165791D01*
X66996814Y18282689D01*
X66996811Y18282694D01*
X66994488Y18287676D01*
X66885522Y18443296D01*
X66870136Y18465270D01*
X66870134Y18465273D01*
X66866977Y18469781D01*
X66709781Y18626977D01*
X66705273Y18630134D01*
X66705270Y18630136D01*
X66629505Y18683187D01*
X66527677Y18754488D01*
X66522695Y18756811D01*
X66522690Y18756814D01*
X66331178Y18846117D01*
X66331177Y18846118D01*
X66326196Y18848440D01*
X66320888Y18849862D01*
X66320886Y18849863D01*
X66255051Y18867503D01*
X66111463Y18905978D01*
X65890000Y18925353D01*
X65668537Y18905978D01*
X65524949Y18867503D01*
X65459114Y18849863D01*
X65459112Y18849862D01*
X65453804Y18848440D01*
X65448823Y18846118D01*
X65448822Y18846117D01*
X65257311Y18756814D01*
X65257306Y18756811D01*
X65252324Y18754488D01*
X65247817Y18751332D01*
X65247815Y18751331D01*
X65074730Y18630136D01*
X65074727Y18630134D01*
X65070219Y18626977D01*
X64913023Y18469781D01*
X64909866Y18465273D01*
X64909864Y18465270D01*
X64894478Y18443296D01*
X64785512Y18287676D01*
X64783189Y18282694D01*
X64783186Y18282689D01*
X64734195Y18177627D01*
X64687277Y18124342D01*
X64619000Y18104881D01*
X64551040Y18125423D01*
X64505805Y18177627D01*
X64456814Y18282689D01*
X64456811Y18282694D01*
X64454488Y18287676D01*
X64345522Y18443296D01*
X64330136Y18465270D01*
X64330134Y18465273D01*
X64326977Y18469781D01*
X64169781Y18626977D01*
X64165273Y18630134D01*
X64165270Y18630136D01*
X64089505Y18683187D01*
X63987677Y18754488D01*
X63982695Y18756811D01*
X63982690Y18756814D01*
X63791178Y18846117D01*
X63791177Y18846118D01*
X63786196Y18848440D01*
X63780888Y18849862D01*
X63780886Y18849863D01*
X63715051Y18867503D01*
X63571463Y18905978D01*
X63350000Y18925353D01*
X63128537Y18905978D01*
X62984949Y18867503D01*
X62919114Y18849863D01*
X62919112Y18849862D01*
X62913804Y18848440D01*
X62908823Y18846118D01*
X62908822Y18846117D01*
X62717311Y18756814D01*
X62717306Y18756811D01*
X62712324Y18754488D01*
X62707817Y18751332D01*
X62707815Y18751331D01*
X62534730Y18630136D01*
X62534727Y18630134D01*
X62530219Y18626977D01*
X62373023Y18469781D01*
X62369866Y18465273D01*
X62369864Y18465270D01*
X62354478Y18443296D01*
X62245512Y18287676D01*
X62243189Y18282694D01*
X62243186Y18282689D01*
X62194195Y18177627D01*
X62147277Y18124342D01*
X62079000Y18104881D01*
X62011040Y18125423D01*
X61965805Y18177627D01*
X61916814Y18282689D01*
X61916811Y18282694D01*
X61914488Y18287676D01*
X61805522Y18443296D01*
X61790136Y18465270D01*
X61790134Y18465273D01*
X61786977Y18469781D01*
X61629781Y18626977D01*
X61625273Y18630134D01*
X61625270Y18630136D01*
X61549505Y18683187D01*
X61447677Y18754488D01*
X61442695Y18756811D01*
X61442690Y18756814D01*
X61251178Y18846117D01*
X61251177Y18846118D01*
X61246196Y18848440D01*
X61240888Y18849862D01*
X61240886Y18849863D01*
X61175051Y18867503D01*
X61031463Y18905978D01*
X60810000Y18925353D01*
X60588537Y18905978D01*
X60444949Y18867503D01*
X60379114Y18849863D01*
X60379112Y18849862D01*
X60373804Y18848440D01*
X60368823Y18846118D01*
X60368822Y18846117D01*
X60177311Y18756814D01*
X60177306Y18756811D01*
X60172324Y18754488D01*
X60167817Y18751332D01*
X60167815Y18751331D01*
X59994730Y18630136D01*
X59994727Y18630134D01*
X59990219Y18626977D01*
X59833023Y18469781D01*
X59829866Y18465273D01*
X59829864Y18465270D01*
X59814478Y18443296D01*
X59705512Y18287676D01*
X59703189Y18282694D01*
X59703186Y18282689D01*
X59654195Y18177627D01*
X59607277Y18124342D01*
X59539000Y18104881D01*
X59471040Y18125423D01*
X59425805Y18177627D01*
X59376814Y18282689D01*
X59376811Y18282694D01*
X59374488Y18287676D01*
X59265522Y18443296D01*
X59250136Y18465270D01*
X59250134Y18465273D01*
X59246977Y18469781D01*
X59089781Y18626977D01*
X59085273Y18630134D01*
X59085270Y18630136D01*
X59009505Y18683187D01*
X58907677Y18754488D01*
X58902695Y18756811D01*
X58902690Y18756814D01*
X58711178Y18846117D01*
X58711177Y18846118D01*
X58706196Y18848440D01*
X58700888Y18849862D01*
X58700886Y18849863D01*
X58635051Y18867503D01*
X58491463Y18905978D01*
X58270000Y18925353D01*
X58048537Y18905978D01*
X57904949Y18867503D01*
X57839114Y18849863D01*
X57839112Y18849862D01*
X57833804Y18848440D01*
X57828823Y18846118D01*
X57828822Y18846117D01*
X57637311Y18756814D01*
X57637306Y18756811D01*
X57632324Y18754488D01*
X57627817Y18751332D01*
X57627815Y18751331D01*
X57454730Y18630136D01*
X57454727Y18630134D01*
X57450219Y18626977D01*
X57293023Y18469781D01*
X57289866Y18465273D01*
X57289864Y18465270D01*
X57274478Y18443296D01*
X57165512Y18287676D01*
X57163189Y18282694D01*
X57163186Y18282689D01*
X57114195Y18177627D01*
X57067277Y18124342D01*
X56999000Y18104881D01*
X56931040Y18125423D01*
X56885805Y18177627D01*
X56836814Y18282689D01*
X56836811Y18282694D01*
X56834488Y18287676D01*
X56725522Y18443296D01*
X56710136Y18465270D01*
X56710134Y18465273D01*
X56706977Y18469781D01*
X56549781Y18626977D01*
X56545273Y18630134D01*
X56545270Y18630136D01*
X56469505Y18683187D01*
X56367677Y18754488D01*
X56362695Y18756811D01*
X56362690Y18756814D01*
X56171178Y18846117D01*
X56171177Y18846118D01*
X56166196Y18848440D01*
X56160888Y18849862D01*
X56160886Y18849863D01*
X56095051Y18867503D01*
X55951463Y18905978D01*
X55730000Y18925353D01*
X55508537Y18905978D01*
X55364949Y18867503D01*
X55299114Y18849863D01*
X55299112Y18849862D01*
X55293804Y18848440D01*
X55288823Y18846118D01*
X55288822Y18846117D01*
X55097311Y18756814D01*
X55097306Y18756811D01*
X55092324Y18754488D01*
X55087817Y18751332D01*
X55087815Y18751331D01*
X54914730Y18630136D01*
X54914727Y18630134D01*
X54910219Y18626977D01*
X54753023Y18469781D01*
X54749866Y18465273D01*
X54749864Y18465270D01*
X54734478Y18443296D01*
X54625512Y18287676D01*
X54623189Y18282694D01*
X54623186Y18282689D01*
X54574195Y18177627D01*
X54527277Y18124342D01*
X54459000Y18104881D01*
X54391040Y18125423D01*
X54345805Y18177627D01*
X54296814Y18282689D01*
X54296811Y18282694D01*
X54294488Y18287676D01*
X54185522Y18443296D01*
X54170136Y18465270D01*
X54170134Y18465273D01*
X54166977Y18469781D01*
X54009781Y18626977D01*
X54005273Y18630134D01*
X54005270Y18630136D01*
X53929505Y18683187D01*
X53827677Y18754488D01*
X53822695Y18756811D01*
X53822690Y18756814D01*
X53631178Y18846117D01*
X53631177Y18846118D01*
X53626196Y18848440D01*
X53620888Y18849862D01*
X53620886Y18849863D01*
X53555051Y18867503D01*
X53411463Y18905978D01*
X53190000Y18925353D01*
X52968537Y18905978D01*
X52824949Y18867503D01*
X52759114Y18849863D01*
X52759112Y18849862D01*
X52753804Y18848440D01*
X52748823Y18846118D01*
X52748822Y18846117D01*
X52557311Y18756814D01*
X52557306Y18756811D01*
X52552324Y18754488D01*
X52547817Y18751332D01*
X52547815Y18751331D01*
X52374730Y18630136D01*
X52374727Y18630134D01*
X52370219Y18626977D01*
X52213023Y18469781D01*
X52209866Y18465273D01*
X52209864Y18465270D01*
X52194478Y18443296D01*
X52085512Y18287676D01*
X52083189Y18282694D01*
X52083186Y18282689D01*
X52034195Y18177627D01*
X51987277Y18124342D01*
X51919000Y18104881D01*
X51851040Y18125423D01*
X51805805Y18177627D01*
X51756814Y18282689D01*
X51756811Y18282694D01*
X51754488Y18287676D01*
X51645522Y18443296D01*
X51630136Y18465270D01*
X51630134Y18465273D01*
X51626977Y18469781D01*
X51469781Y18626977D01*
X51465273Y18630134D01*
X51465270Y18630136D01*
X51389505Y18683187D01*
X51287677Y18754488D01*
X51282695Y18756811D01*
X51282690Y18756814D01*
X51091178Y18846117D01*
X51091177Y18846118D01*
X51086196Y18848440D01*
X51080888Y18849862D01*
X51080886Y18849863D01*
X51015051Y18867503D01*
X50871463Y18905978D01*
X50650000Y18925353D01*
X50428537Y18905978D01*
X50284949Y18867503D01*
X50219114Y18849863D01*
X50219112Y18849862D01*
X50213804Y18848440D01*
X50208823Y18846118D01*
X50208822Y18846117D01*
X50017311Y18756814D01*
X50017306Y18756811D01*
X50012324Y18754488D01*
X50007817Y18751332D01*
X50007815Y18751331D01*
X49834730Y18630136D01*
X49834727Y18630134D01*
X49830219Y18626977D01*
X49673023Y18469781D01*
X49669866Y18465273D01*
X49669864Y18465270D01*
X49654478Y18443296D01*
X49545512Y18287676D01*
X49543189Y18282694D01*
X49543186Y18282689D01*
X49494195Y18177627D01*
X49447277Y18124342D01*
X49379000Y18104881D01*
X49311040Y18125423D01*
X49265805Y18177627D01*
X49216814Y18282689D01*
X49216811Y18282694D01*
X49214488Y18287676D01*
X49105522Y18443296D01*
X49090136Y18465270D01*
X49090134Y18465273D01*
X49086977Y18469781D01*
X48929781Y18626977D01*
X48925273Y18630134D01*
X48925270Y18630136D01*
X48849505Y18683187D01*
X48747677Y18754488D01*
X48742695Y18756811D01*
X48742690Y18756814D01*
X48551178Y18846117D01*
X48551177Y18846118D01*
X48546196Y18848440D01*
X48540888Y18849862D01*
X48540886Y18849863D01*
X48475051Y18867503D01*
X48331463Y18905978D01*
X48110000Y18925353D01*
X47888537Y18905978D01*
X47744949Y18867503D01*
X47679114Y18849863D01*
X47679112Y18849862D01*
X47673804Y18848440D01*
X47668823Y18846118D01*
X47668822Y18846117D01*
X47477311Y18756814D01*
X47477306Y18756811D01*
X47472324Y18754488D01*
X47467817Y18751332D01*
X47467815Y18751331D01*
X47294730Y18630136D01*
X47294727Y18630134D01*
X47290219Y18626977D01*
X47133023Y18469781D01*
X47129866Y18465273D01*
X47129864Y18465270D01*
X47114478Y18443296D01*
X47005512Y18287676D01*
X47003189Y18282694D01*
X47003186Y18282689D01*
X46948676Y18165791D01*
X46911560Y18086196D01*
X46854022Y17871463D01*
X46834647Y17650000D01*
X41165353Y17650000D01*
X41145978Y17871463D01*
X41088440Y18086196D01*
X41051324Y18165791D01*
X40996814Y18282689D01*
X40996811Y18282694D01*
X40994488Y18287676D01*
X40885522Y18443296D01*
X40870136Y18465270D01*
X40870134Y18465273D01*
X40866977Y18469781D01*
X40709781Y18626977D01*
X40705273Y18630134D01*
X40705270Y18630136D01*
X40629505Y18683187D01*
X40527677Y18754488D01*
X40522695Y18756811D01*
X40522690Y18756814D01*
X40331178Y18846117D01*
X40331177Y18846118D01*
X40326196Y18848440D01*
X40320888Y18849862D01*
X40320886Y18849863D01*
X40255051Y18867503D01*
X40111463Y18905978D01*
X39890000Y18925353D01*
X39668537Y18905978D01*
X39524949Y18867503D01*
X39459114Y18849863D01*
X39459112Y18849862D01*
X39453804Y18848440D01*
X39448823Y18846118D01*
X39448822Y18846117D01*
X39257311Y18756814D01*
X39257306Y18756811D01*
X39252324Y18754488D01*
X39247817Y18751332D01*
X39247815Y18751331D01*
X39074730Y18630136D01*
X39074727Y18630134D01*
X39070219Y18626977D01*
X38913023Y18469781D01*
X38909866Y18465273D01*
X38909864Y18465270D01*
X38894478Y18443296D01*
X38785512Y18287676D01*
X38783189Y18282694D01*
X38783186Y18282689D01*
X38734195Y18177627D01*
X38687277Y18124342D01*
X38619000Y18104881D01*
X38551040Y18125423D01*
X38505805Y18177627D01*
X38456814Y18282689D01*
X38456811Y18282694D01*
X38454488Y18287676D01*
X38345522Y18443296D01*
X38330136Y18465270D01*
X38330134Y18465273D01*
X38326977Y18469781D01*
X38169781Y18626977D01*
X38165273Y18630134D01*
X38165270Y18630136D01*
X38089505Y18683187D01*
X37987677Y18754488D01*
X37982695Y18756811D01*
X37982690Y18756814D01*
X37791178Y18846117D01*
X37791177Y18846118D01*
X37786196Y18848440D01*
X37780888Y18849862D01*
X37780886Y18849863D01*
X37715051Y18867503D01*
X37571463Y18905978D01*
X37350000Y18925353D01*
X37128537Y18905978D01*
X36984949Y18867503D01*
X36919114Y18849863D01*
X36919112Y18849862D01*
X36913804Y18848440D01*
X36908823Y18846118D01*
X36908822Y18846117D01*
X36717311Y18756814D01*
X36717306Y18756811D01*
X36712324Y18754488D01*
X36707817Y18751332D01*
X36707815Y18751331D01*
X36534730Y18630136D01*
X36534727Y18630134D01*
X36530219Y18626977D01*
X36373023Y18469781D01*
X36369866Y18465273D01*
X36369864Y18465270D01*
X36354478Y18443296D01*
X36245512Y18287676D01*
X36243189Y18282694D01*
X36243186Y18282689D01*
X36194195Y18177627D01*
X36147277Y18124342D01*
X36079000Y18104881D01*
X36011040Y18125423D01*
X35965805Y18177627D01*
X35916814Y18282689D01*
X35916811Y18282694D01*
X35914488Y18287676D01*
X35805522Y18443296D01*
X35790136Y18465270D01*
X35790134Y18465273D01*
X35786977Y18469781D01*
X35629781Y18626977D01*
X35625273Y18630134D01*
X35625270Y18630136D01*
X35549505Y18683187D01*
X35447677Y18754488D01*
X35442695Y18756811D01*
X35442690Y18756814D01*
X35251178Y18846117D01*
X35251177Y18846118D01*
X35246196Y18848440D01*
X35240888Y18849862D01*
X35240886Y18849863D01*
X35175051Y18867503D01*
X35031463Y18905978D01*
X34810000Y18925353D01*
X34588537Y18905978D01*
X34444949Y18867503D01*
X34379114Y18849863D01*
X34379112Y18849862D01*
X34373804Y18848440D01*
X34368823Y18846118D01*
X34368822Y18846117D01*
X34177311Y18756814D01*
X34177306Y18756811D01*
X34172324Y18754488D01*
X34167817Y18751332D01*
X34167815Y18751331D01*
X33994730Y18630136D01*
X33994727Y18630134D01*
X33990219Y18626977D01*
X33833023Y18469781D01*
X33829866Y18465273D01*
X33829864Y18465270D01*
X33814478Y18443296D01*
X33705512Y18287676D01*
X33703189Y18282694D01*
X33703186Y18282689D01*
X33654195Y18177627D01*
X33607277Y18124342D01*
X33539000Y18104881D01*
X33471040Y18125423D01*
X33425805Y18177627D01*
X33376814Y18282689D01*
X33376811Y18282694D01*
X33374488Y18287676D01*
X33265522Y18443296D01*
X33250136Y18465270D01*
X33250134Y18465273D01*
X33246977Y18469781D01*
X33089781Y18626977D01*
X33085273Y18630134D01*
X33085270Y18630136D01*
X33009505Y18683187D01*
X32907677Y18754488D01*
X32902695Y18756811D01*
X32902690Y18756814D01*
X32711178Y18846117D01*
X32711177Y18846118D01*
X32706196Y18848440D01*
X32700888Y18849862D01*
X32700886Y18849863D01*
X32635051Y18867503D01*
X32491463Y18905978D01*
X32270000Y18925353D01*
X32048537Y18905978D01*
X31904949Y18867503D01*
X31839114Y18849863D01*
X31839112Y18849862D01*
X31833804Y18848440D01*
X31828823Y18846118D01*
X31828822Y18846117D01*
X31637311Y18756814D01*
X31637306Y18756811D01*
X31632324Y18754488D01*
X31627817Y18751332D01*
X31627815Y18751331D01*
X31454730Y18630136D01*
X31454727Y18630134D01*
X31450219Y18626977D01*
X31293023Y18469781D01*
X31289866Y18465273D01*
X31289864Y18465270D01*
X31274478Y18443296D01*
X31165512Y18287676D01*
X31163189Y18282694D01*
X31163186Y18282689D01*
X31114195Y18177627D01*
X31067277Y18124342D01*
X30999000Y18104881D01*
X30931040Y18125423D01*
X30885805Y18177627D01*
X30836814Y18282689D01*
X30836811Y18282694D01*
X30834488Y18287676D01*
X30725522Y18443296D01*
X30710136Y18465270D01*
X30710134Y18465273D01*
X30706977Y18469781D01*
X30549781Y18626977D01*
X30545273Y18630134D01*
X30545270Y18630136D01*
X30469505Y18683187D01*
X30367677Y18754488D01*
X30362695Y18756811D01*
X30362690Y18756814D01*
X30171178Y18846117D01*
X30171177Y18846118D01*
X30166196Y18848440D01*
X30160888Y18849862D01*
X30160886Y18849863D01*
X30095051Y18867503D01*
X29951463Y18905978D01*
X29730000Y18925353D01*
X29508537Y18905978D01*
X29364949Y18867503D01*
X29299114Y18849863D01*
X29299112Y18849862D01*
X29293804Y18848440D01*
X29288823Y18846118D01*
X29288822Y18846117D01*
X29097311Y18756814D01*
X29097306Y18756811D01*
X29092324Y18754488D01*
X29087817Y18751332D01*
X29087815Y18751331D01*
X28914730Y18630136D01*
X28914727Y18630134D01*
X28910219Y18626977D01*
X28753023Y18469781D01*
X28749866Y18465273D01*
X28749864Y18465270D01*
X28734478Y18443296D01*
X28625512Y18287676D01*
X28623189Y18282694D01*
X28623186Y18282689D01*
X28574195Y18177627D01*
X28527277Y18124342D01*
X28459000Y18104881D01*
X28391040Y18125423D01*
X28345805Y18177627D01*
X28296814Y18282689D01*
X28296811Y18282694D01*
X28294488Y18287676D01*
X28185522Y18443296D01*
X28170136Y18465270D01*
X28170134Y18465273D01*
X28166977Y18469781D01*
X28009781Y18626977D01*
X28005273Y18630134D01*
X28005270Y18630136D01*
X27929505Y18683187D01*
X27827677Y18754488D01*
X27822695Y18756811D01*
X27822690Y18756814D01*
X27631178Y18846117D01*
X27631177Y18846118D01*
X27626196Y18848440D01*
X27620888Y18849862D01*
X27620886Y18849863D01*
X27555051Y18867503D01*
X27411463Y18905978D01*
X27190000Y18925353D01*
X26968537Y18905978D01*
X26824949Y18867503D01*
X26759114Y18849863D01*
X26759112Y18849862D01*
X26753804Y18848440D01*
X26748823Y18846118D01*
X26748822Y18846117D01*
X26557311Y18756814D01*
X26557306Y18756811D01*
X26552324Y18754488D01*
X26547817Y18751332D01*
X26547815Y18751331D01*
X26374730Y18630136D01*
X26374727Y18630134D01*
X26370219Y18626977D01*
X26213023Y18469781D01*
X26209866Y18465273D01*
X26209864Y18465270D01*
X26194478Y18443296D01*
X26085512Y18287676D01*
X26083189Y18282694D01*
X26083186Y18282689D01*
X26034195Y18177627D01*
X25987277Y18124342D01*
X25919000Y18104881D01*
X25851040Y18125423D01*
X25805805Y18177627D01*
X25756814Y18282689D01*
X25756811Y18282694D01*
X25754488Y18287676D01*
X25645522Y18443296D01*
X25630136Y18465270D01*
X25630134Y18465273D01*
X25626977Y18469781D01*
X25469781Y18626977D01*
X25465273Y18630134D01*
X25465270Y18630136D01*
X25389505Y18683187D01*
X25287677Y18754488D01*
X25282695Y18756811D01*
X25282690Y18756814D01*
X25091178Y18846117D01*
X25091177Y18846118D01*
X25086196Y18848440D01*
X25080888Y18849862D01*
X25080886Y18849863D01*
X25015051Y18867503D01*
X24871463Y18905978D01*
X24650000Y18925353D01*
X24428537Y18905978D01*
X24284949Y18867503D01*
X24219114Y18849863D01*
X24219112Y18849862D01*
X24213804Y18848440D01*
X24208823Y18846118D01*
X24208822Y18846117D01*
X24017311Y18756814D01*
X24017306Y18756811D01*
X24012324Y18754488D01*
X24007817Y18751332D01*
X24007815Y18751331D01*
X23834730Y18630136D01*
X23834727Y18630134D01*
X23830219Y18626977D01*
X23673023Y18469781D01*
X23669866Y18465273D01*
X23669864Y18465270D01*
X23654478Y18443296D01*
X23545512Y18287676D01*
X23543189Y18282694D01*
X23543186Y18282689D01*
X23494195Y18177627D01*
X23447277Y18124342D01*
X23379000Y18104881D01*
X23311040Y18125423D01*
X23265805Y18177627D01*
X23216814Y18282689D01*
X23216811Y18282694D01*
X23214488Y18287676D01*
X23105522Y18443296D01*
X23090136Y18465270D01*
X23090134Y18465273D01*
X23086977Y18469781D01*
X22929781Y18626977D01*
X22925273Y18630134D01*
X22925270Y18630136D01*
X22849505Y18683187D01*
X22747677Y18754488D01*
X22742695Y18756811D01*
X22742690Y18756814D01*
X22551178Y18846117D01*
X22551177Y18846118D01*
X22546196Y18848440D01*
X22540888Y18849862D01*
X22540886Y18849863D01*
X22475051Y18867503D01*
X22331463Y18905978D01*
X22110000Y18925353D01*
X21888537Y18905978D01*
X21744949Y18867503D01*
X21679114Y18849863D01*
X21679112Y18849862D01*
X21673804Y18848440D01*
X21668823Y18846118D01*
X21668822Y18846117D01*
X21477311Y18756814D01*
X21477306Y18756811D01*
X21472324Y18754488D01*
X21467817Y18751332D01*
X21467815Y18751331D01*
X21294730Y18630136D01*
X21294727Y18630134D01*
X21290219Y18626977D01*
X21133023Y18469781D01*
X21129866Y18465273D01*
X21129864Y18465270D01*
X21114478Y18443296D01*
X21005512Y18287676D01*
X21003189Y18282694D01*
X21003186Y18282689D01*
X20948676Y18165791D01*
X20911560Y18086196D01*
X20854022Y17871463D01*
X20834647Y17650000D01*
X10358500Y17650000D01*
X10358500Y17900400D01*
X10347526Y18006166D01*
X10291550Y18173946D01*
X10198478Y18324348D01*
X10073303Y18449305D01*
X10033763Y18473678D01*
X9928968Y18538275D01*
X9928966Y18538276D01*
X9922738Y18542115D01*
X9762254Y18595345D01*
X9761389Y18595632D01*
X9761387Y18595632D01*
X9754861Y18597797D01*
X9748025Y18598497D01*
X9748022Y18598498D01*
X9704969Y18602909D01*
X9650400Y18608500D01*
X8049600Y18608500D01*
X8046354Y18608163D01*
X8046350Y18608163D01*
X7950692Y18598238D01*
X7950688Y18598237D01*
X7943834Y18597526D01*
X7937298Y18595345D01*
X7937296Y18595345D01*
X7805194Y18551272D01*
X7776054Y18541550D01*
X7625652Y18448478D01*
X7500695Y18323303D01*
X7496855Y18317073D01*
X7496854Y18317072D01*
X7481514Y18292185D01*
X7407885Y18172738D01*
X7352203Y18004861D01*
X7341500Y17900400D01*
X7341500Y16599600D01*
X508500Y16599600D01*
X508500Y22000000D01*
X4000000Y22000000D01*
X54000000Y22000000D01*
X54000000Y29571052D01*
X54020002Y29639173D01*
X54036905Y29660147D01*
X54056977Y29680219D01*
X54144894Y29805777D01*
X54181331Y29857815D01*
X54181332Y29857817D01*
X54184488Y29862324D01*
X54186811Y29867306D01*
X54186814Y29867311D01*
X54235805Y29972373D01*
X54282723Y30025658D01*
X54351000Y30045119D01*
X54418960Y30024577D01*
X54464195Y29972373D01*
X54513186Y29867311D01*
X54513189Y29867306D01*
X54515512Y29862324D01*
X54518668Y29857817D01*
X54518669Y29857815D01*
X54555107Y29805777D01*
X54643023Y29680219D01*
X54800219Y29523023D01*
X54804727Y29519866D01*
X54804730Y29519864D01*
X54880495Y29466813D01*
X54982323Y29395512D01*
X54987305Y29393189D01*
X54987310Y29393186D01*
X55084648Y29347797D01*
X55183804Y29301560D01*
X55189112Y29300138D01*
X55189114Y29300137D01*
X55254949Y29282497D01*
X55398537Y29244022D01*
X55620000Y29224647D01*
X55841463Y29244022D01*
X55985051Y29282497D01*
X56050886Y29300137D01*
X56050888Y29300138D01*
X56056196Y29301560D01*
X56155352Y29347797D01*
X56252690Y29393186D01*
X56252695Y29393189D01*
X56257677Y29395512D01*
X56359505Y29466813D01*
X56435270Y29519864D01*
X56435273Y29519866D01*
X56439781Y29523023D01*
X56596977Y29680219D01*
X56684894Y29805777D01*
X56721331Y29857815D01*
X56721332Y29857817D01*
X56724488Y29862324D01*
X56726811Y29867306D01*
X56726814Y29867311D01*
X56775805Y29972373D01*
X56822723Y30025658D01*
X56891000Y30045119D01*
X56958960Y30024577D01*
X57004195Y29972373D01*
X57053186Y29867311D01*
X57053189Y29867306D01*
X57055512Y29862324D01*
X57058668Y29857817D01*
X57058669Y29857815D01*
X57095107Y29805777D01*
X57183023Y29680219D01*
X57340219Y29523023D01*
X57344727Y29519866D01*
X57344730Y29519864D01*
X57420495Y29466813D01*
X57522323Y29395512D01*
X57527305Y29393189D01*
X57527310Y29393186D01*
X57624648Y29347797D01*
X57723804Y29301560D01*
X57729112Y29300138D01*
X57729114Y29300137D01*
X57794949Y29282497D01*
X57938537Y29244022D01*
X58160000Y29224647D01*
X58381463Y29244022D01*
X58525051Y29282497D01*
X58590886Y29300137D01*
X58590888Y29300138D01*
X58596196Y29301560D01*
X58695352Y29347797D01*
X58792690Y29393186D01*
X58792695Y29393189D01*
X58797677Y29395512D01*
X58899505Y29466813D01*
X58975270Y29519864D01*
X58975273Y29519866D01*
X58979781Y29523023D01*
X59136977Y29680219D01*
X59224894Y29805777D01*
X59261331Y29857815D01*
X59261332Y29857817D01*
X59264488Y29862324D01*
X59266811Y29867306D01*
X59266814Y29867311D01*
X59315805Y29972373D01*
X59362723Y30025658D01*
X59431000Y30045119D01*
X59498960Y30024577D01*
X59544195Y29972373D01*
X59593186Y29867311D01*
X59593189Y29867306D01*
X59595512Y29862324D01*
X59598668Y29857817D01*
X59598669Y29857815D01*
X59635107Y29805777D01*
X59723023Y29680219D01*
X59880219Y29523023D01*
X59884727Y29519866D01*
X59884730Y29519864D01*
X59960495Y29466813D01*
X60062323Y29395512D01*
X60067305Y29393189D01*
X60067310Y29393186D01*
X60164648Y29347797D01*
X60263804Y29301560D01*
X60269112Y29300138D01*
X60269114Y29300137D01*
X60334949Y29282497D01*
X60478537Y29244022D01*
X60700000Y29224647D01*
X60921463Y29244022D01*
X61065051Y29282497D01*
X61130886Y29300137D01*
X61130888Y29300138D01*
X61136196Y29301560D01*
X61235352Y29347797D01*
X61332690Y29393186D01*
X61332695Y29393189D01*
X61337677Y29395512D01*
X61439505Y29466813D01*
X61515270Y29519864D01*
X61515273Y29519866D01*
X61519781Y29523023D01*
X61676977Y29680219D01*
X61764894Y29805777D01*
X61801331Y29857815D01*
X61801332Y29857817D01*
X61804488Y29862324D01*
X61806811Y29867306D01*
X61806814Y29867311D01*
X61855805Y29972373D01*
X61902723Y30025658D01*
X61971000Y30045119D01*
X62038960Y30024577D01*
X62084195Y29972373D01*
X62133186Y29867311D01*
X62133189Y29867306D01*
X62135512Y29862324D01*
X62138668Y29857817D01*
X62138669Y29857815D01*
X62175107Y29805777D01*
X62263023Y29680219D01*
X62420219Y29523023D01*
X62424727Y29519866D01*
X62424730Y29519864D01*
X62500495Y29466813D01*
X62602323Y29395512D01*
X62607305Y29393189D01*
X62607310Y29393186D01*
X62704648Y29347797D01*
X62803804Y29301560D01*
X62809112Y29300138D01*
X62809114Y29300137D01*
X62874949Y29282497D01*
X63018537Y29244022D01*
X63240000Y29224647D01*
X63461463Y29244022D01*
X63605051Y29282497D01*
X63670886Y29300137D01*
X63670888Y29300138D01*
X63676196Y29301560D01*
X63775352Y29347797D01*
X63872690Y29393186D01*
X63872695Y29393189D01*
X63877677Y29395512D01*
X63942959Y29441223D01*
X65085777Y29441223D01*
X65095074Y29429207D01*
X65138069Y29399102D01*
X65147555Y29393624D01*
X65338993Y29304355D01*
X65349285Y29300609D01*
X65553309Y29245941D01*
X65564104Y29244038D01*
X65774525Y29225628D01*
X65785475Y29225628D01*
X65995896Y29244038D01*
X66006691Y29245941D01*
X66210715Y29300609D01*
X66221007Y29304355D01*
X66412445Y29393624D01*
X66421931Y29399102D01*
X66465764Y29429793D01*
X66474139Y29440271D01*
X66467071Y29453719D01*
X65792812Y30127978D01*
X65778868Y30135592D01*
X65777035Y30135461D01*
X65770420Y30131210D01*
X65092207Y29452997D01*
X65085777Y29441223D01*
X63942959Y29441223D01*
X63979505Y29466813D01*
X64055270Y29519864D01*
X64055273Y29519866D01*
X64059781Y29523023D01*
X64216977Y29680219D01*
X64304894Y29805777D01*
X64341331Y29857815D01*
X64341332Y29857817D01*
X64344488Y29862324D01*
X64346811Y29867306D01*
X64346814Y29867311D01*
X64396081Y29972965D01*
X64442999Y30026250D01*
X64511276Y30045711D01*
X64579236Y30025169D01*
X64624471Y29972965D01*
X64673623Y29867559D01*
X64679103Y29858068D01*
X64709794Y29814235D01*
X64720271Y29805860D01*
X64733718Y29812928D01*
X65407978Y30487188D01*
X65414356Y30498868D01*
X66144408Y30498868D01*
X66144539Y30497035D01*
X66148790Y30490420D01*
X66827003Y29812207D01*
X66838777Y29805777D01*
X66850793Y29815074D01*
X66880897Y29858068D01*
X66886377Y29867559D01*
X66975645Y30058993D01*
X66979391Y30069285D01*
X67034059Y30273309D01*
X67035962Y30284104D01*
X67054372Y30494525D01*
X67054372Y30505475D01*
X67035962Y30715896D01*
X67034059Y30726691D01*
X66979391Y30930715D01*
X66975645Y30941007D01*
X66886377Y31132441D01*
X66880897Y31141932D01*
X66850206Y31185765D01*
X66839729Y31194140D01*
X66826282Y31187072D01*
X66152022Y30512812D01*
X66144408Y30498868D01*
X65414356Y30498868D01*
X65415592Y30501132D01*
X65415461Y30502965D01*
X65411210Y30509580D01*
X64732997Y31187793D01*
X64721223Y31194223D01*
X64709207Y31184926D01*
X64679103Y31141932D01*
X64673623Y31132441D01*
X64624471Y31027035D01*
X64577553Y30973750D01*
X64509276Y30954289D01*
X64441316Y30974831D01*
X64396081Y31027035D01*
X64346814Y31132689D01*
X64346811Y31132694D01*
X64344488Y31137676D01*
X64341331Y31142185D01*
X64220136Y31315270D01*
X64220134Y31315273D01*
X64216977Y31319781D01*
X64059781Y31476977D01*
X64055273Y31480134D01*
X64055270Y31480136D01*
X63979505Y31533187D01*
X63941599Y31559729D01*
X65085860Y31559729D01*
X65092928Y31546282D01*
X65767188Y30872022D01*
X65781132Y30864408D01*
X65782965Y30864539D01*
X65789580Y30868790D01*
X66467793Y31547003D01*
X66474223Y31558777D01*
X66464926Y31570793D01*
X66421931Y31600898D01*
X66412445Y31606376D01*
X66221007Y31695645D01*
X66210715Y31699391D01*
X66006691Y31754059D01*
X65995896Y31755962D01*
X65785475Y31774372D01*
X65774525Y31774372D01*
X65564104Y31755962D01*
X65553309Y31754059D01*
X65349285Y31699391D01*
X65338993Y31695645D01*
X65147559Y31606377D01*
X65138068Y31600897D01*
X65094235Y31570206D01*
X65085860Y31559729D01*
X63941599Y31559729D01*
X63877677Y31604488D01*
X63872695Y31606811D01*
X63872690Y31606814D01*
X63681178Y31696117D01*
X63681177Y31696118D01*
X63676196Y31698440D01*
X63670888Y31699862D01*
X63670886Y31699863D01*
X63605051Y31717503D01*
X63461463Y31755978D01*
X63240000Y31775353D01*
X63018537Y31755978D01*
X62874949Y31717503D01*
X62809114Y31699863D01*
X62809112Y31699862D01*
X62803804Y31698440D01*
X62798823Y31696118D01*
X62798822Y31696117D01*
X62607311Y31606814D01*
X62607306Y31606811D01*
X62602324Y31604488D01*
X62597817Y31601332D01*
X62597815Y31601331D01*
X62424730Y31480136D01*
X62424727Y31480134D01*
X62420219Y31476977D01*
X62263023Y31319781D01*
X62259866Y31315273D01*
X62259864Y31315270D01*
X62138669Y31142185D01*
X62135512Y31137676D01*
X62133189Y31132694D01*
X62133186Y31132689D01*
X62084195Y31027627D01*
X62037277Y30974342D01*
X61969000Y30954881D01*
X61901040Y30975423D01*
X61855805Y31027627D01*
X61806814Y31132689D01*
X61806811Y31132694D01*
X61804488Y31137676D01*
X61801331Y31142185D01*
X61680136Y31315270D01*
X61680134Y31315273D01*
X61676977Y31319781D01*
X61519781Y31476977D01*
X61515273Y31480134D01*
X61515270Y31480136D01*
X61439505Y31533187D01*
X61337677Y31604488D01*
X61332695Y31606811D01*
X61332690Y31606814D01*
X61141178Y31696117D01*
X61141177Y31696118D01*
X61136196Y31698440D01*
X61130888Y31699862D01*
X61130886Y31699863D01*
X61065051Y31717503D01*
X60921463Y31755978D01*
X60700000Y31775353D01*
X60478537Y31755978D01*
X60334949Y31717503D01*
X60269114Y31699863D01*
X60269112Y31699862D01*
X60263804Y31698440D01*
X60258823Y31696118D01*
X60258822Y31696117D01*
X60067311Y31606814D01*
X60067306Y31606811D01*
X60062324Y31604488D01*
X60057817Y31601332D01*
X60057815Y31601331D01*
X59884730Y31480136D01*
X59884727Y31480134D01*
X59880219Y31476977D01*
X59723023Y31319781D01*
X59719866Y31315273D01*
X59719864Y31315270D01*
X59598669Y31142185D01*
X59595512Y31137676D01*
X59593189Y31132694D01*
X59593186Y31132689D01*
X59544195Y31027627D01*
X59497277Y30974342D01*
X59429000Y30954881D01*
X59361040Y30975423D01*
X59315805Y31027627D01*
X59266814Y31132689D01*
X59266811Y31132694D01*
X59264488Y31137676D01*
X59261331Y31142185D01*
X59140136Y31315270D01*
X59140134Y31315273D01*
X59136977Y31319781D01*
X58979781Y31476977D01*
X58975273Y31480134D01*
X58975270Y31480136D01*
X58899505Y31533187D01*
X58797677Y31604488D01*
X58792695Y31606811D01*
X58792690Y31606814D01*
X58601178Y31696117D01*
X58601177Y31696118D01*
X58596196Y31698440D01*
X58590888Y31699862D01*
X58590886Y31699863D01*
X58525051Y31717503D01*
X58381463Y31755978D01*
X58160000Y31775353D01*
X57938537Y31755978D01*
X57794949Y31717503D01*
X57729114Y31699863D01*
X57729112Y31699862D01*
X57723804Y31698440D01*
X57718823Y31696118D01*
X57718822Y31696117D01*
X57527311Y31606814D01*
X57527306Y31606811D01*
X57522324Y31604488D01*
X57517817Y31601332D01*
X57517815Y31601331D01*
X57344730Y31480136D01*
X57344727Y31480134D01*
X57340219Y31476977D01*
X57183023Y31319781D01*
X57179866Y31315273D01*
X57179864Y31315270D01*
X57058669Y31142185D01*
X57055512Y31137676D01*
X57053189Y31132694D01*
X57053186Y31132689D01*
X57004195Y31027627D01*
X56957277Y30974342D01*
X56889000Y30954881D01*
X56821040Y30975423D01*
X56775805Y31027627D01*
X56726814Y31132689D01*
X56726811Y31132694D01*
X56724488Y31137676D01*
X56721331Y31142185D01*
X56600136Y31315270D01*
X56600134Y31315273D01*
X56596977Y31319781D01*
X56439781Y31476977D01*
X56435273Y31480134D01*
X56435270Y31480136D01*
X56359505Y31533187D01*
X56257677Y31604488D01*
X56252695Y31606811D01*
X56252690Y31606814D01*
X56061178Y31696117D01*
X56061177Y31696118D01*
X56056196Y31698440D01*
X56050888Y31699862D01*
X56050886Y31699863D01*
X55985051Y31717503D01*
X55841463Y31755978D01*
X55620000Y31775353D01*
X55398537Y31755978D01*
X55254949Y31717503D01*
X55189114Y31699863D01*
X55189112Y31699862D01*
X55183804Y31698440D01*
X55178823Y31696118D01*
X55178822Y31696117D01*
X54987311Y31606814D01*
X54987306Y31606811D01*
X54982324Y31604488D01*
X54977817Y31601332D01*
X54977815Y31601331D01*
X54804730Y31480136D01*
X54804727Y31480134D01*
X54800219Y31476977D01*
X54643023Y31319781D01*
X54639866Y31315273D01*
X54639864Y31315270D01*
X54518669Y31142185D01*
X54515512Y31137676D01*
X54513189Y31132694D01*
X54513186Y31132689D01*
X54464195Y31027627D01*
X54417277Y30974342D01*
X54349000Y30954881D01*
X54281040Y30975423D01*
X54235805Y31027627D01*
X54186814Y31132689D01*
X54186811Y31132694D01*
X54184488Y31137676D01*
X54181331Y31142185D01*
X54060136Y31315270D01*
X54060134Y31315273D01*
X54056977Y31319781D01*
X54036905Y31339853D01*
X54002879Y31402165D01*
X54000000Y31428948D01*
X54000000Y37674924D01*
X54020002Y37743045D01*
X54073658Y37789538D01*
X54143932Y37799642D01*
X54201212Y37776013D01*
X54281542Y37716246D01*
X54286293Y37713830D01*
X54286297Y37713828D01*
X54349481Y37681704D01*
X54487051Y37611760D01*
X54492145Y37610178D01*
X54492148Y37610177D01*
X54692020Y37548115D01*
X54707227Y37543393D01*
X54712516Y37542692D01*
X54930489Y37513802D01*
X54930494Y37513802D01*
X54935774Y37513102D01*
X54941103Y37513302D01*
X54941105Y37513302D01*
X55050966Y37517427D01*
X55166158Y37521751D01*
X55188802Y37526502D01*
X55386572Y37567998D01*
X55391791Y37569093D01*
X55396750Y37571051D01*
X55396752Y37571052D01*
X55601256Y37651815D01*
X55601258Y37651816D01*
X55606221Y37653776D01*
X55627190Y37666500D01*
X55798757Y37770610D01*
X55798756Y37770610D01*
X55803317Y37773377D01*
X55843134Y37807928D01*
X55973412Y37920977D01*
X55973414Y37920979D01*
X55977445Y37924477D01*
X56049643Y38012529D01*
X56120240Y38098627D01*
X56120244Y38098633D01*
X56123624Y38102755D01*
X56141552Y38134250D01*
X56192632Y38183555D01*
X56262262Y38197417D01*
X56328333Y38171434D01*
X56355573Y38142284D01*
X56437441Y38020681D01*
X56441120Y38016824D01*
X56441122Y38016822D01*
X56502710Y37952262D01*
X56596576Y37853865D01*
X56781542Y37716246D01*
X56786293Y37713830D01*
X56786297Y37713828D01*
X56849481Y37681704D01*
X56987051Y37611760D01*
X56992145Y37610178D01*
X56992148Y37610177D01*
X57192020Y37548115D01*
X57207227Y37543393D01*
X57212516Y37542692D01*
X57430489Y37513802D01*
X57430494Y37513802D01*
X57435774Y37513102D01*
X57441103Y37513302D01*
X57441105Y37513302D01*
X57550966Y37517427D01*
X57666158Y37521751D01*
X57688802Y37526502D01*
X57886572Y37567998D01*
X57891791Y37569093D01*
X57896750Y37571051D01*
X57896752Y37571052D01*
X58101256Y37651815D01*
X58101258Y37651816D01*
X58106221Y37653776D01*
X58127190Y37666500D01*
X58298757Y37770610D01*
X58298756Y37770610D01*
X58303317Y37773377D01*
X58343134Y37807928D01*
X58473412Y37920977D01*
X58473414Y37920979D01*
X58477445Y37924477D01*
X58506670Y37960120D01*
X58565329Y38000114D01*
X58636299Y38002046D01*
X58697048Y37965302D01*
X58711248Y37946532D01*
X58722340Y37928608D01*
X58801522Y37800652D01*
X58806704Y37795479D01*
X58868451Y37733839D01*
X58926697Y37675695D01*
X58932927Y37671855D01*
X58932928Y37671854D01*
X59070090Y37587306D01*
X59077262Y37582885D01*
X59112938Y37571052D01*
X59238611Y37529368D01*
X59238613Y37529368D01*
X59245139Y37527203D01*
X59251975Y37526503D01*
X59251978Y37526502D01*
X59287663Y37522846D01*
X59349600Y37516500D01*
X60650400Y37516500D01*
X60653646Y37516837D01*
X60653650Y37516837D01*
X60749308Y37526762D01*
X60749312Y37526763D01*
X60756166Y37527474D01*
X60762702Y37529655D01*
X60762704Y37529655D01*
X60894806Y37573728D01*
X60923946Y37583450D01*
X61074348Y37676522D01*
X61199305Y37801697D01*
X61214098Y37825695D01*
X61288275Y37946032D01*
X61288276Y37946034D01*
X61292115Y37952262D01*
X61341467Y38101054D01*
X61345632Y38113611D01*
X61345632Y38113613D01*
X61347797Y38120139D01*
X61358500Y38224600D01*
X61358500Y39775400D01*
X61354901Y39810085D01*
X61348238Y39874308D01*
X61348237Y39874312D01*
X61347526Y39881166D01*
X61343710Y39892606D01*
X61293868Y40041998D01*
X61291550Y40048946D01*
X61198478Y40199348D01*
X61073303Y40324305D01*
X61042780Y40343120D01*
X60928968Y40413275D01*
X60928966Y40413276D01*
X60922738Y40417115D01*
X60842995Y40443564D01*
X60761389Y40470632D01*
X60761387Y40470632D01*
X60754861Y40472797D01*
X60748025Y40473497D01*
X60748022Y40473498D01*
X60702655Y40478146D01*
X60650400Y40483500D01*
X59349600Y40483500D01*
X59346354Y40483163D01*
X59346350Y40483163D01*
X59250692Y40473238D01*
X59250688Y40473237D01*
X59243834Y40472526D01*
X59237298Y40470345D01*
X59237296Y40470345D01*
X59122369Y40432002D01*
X59076054Y40416550D01*
X58925652Y40323478D01*
X58800695Y40198303D01*
X58796855Y40192073D01*
X58796854Y40192072D01*
X58790525Y40181805D01*
X58727170Y40079023D01*
X58710920Y40052661D01*
X58658148Y40005168D01*
X58588076Y39993744D01*
X58522952Y40022018D01*
X58512490Y40031805D01*
X58423689Y40124892D01*
X58403424Y40146135D01*
X58218458Y40283754D01*
X58213707Y40286170D01*
X58213703Y40286172D01*
X58103755Y40342072D01*
X58012949Y40388240D01*
X58007855Y40389822D01*
X58007852Y40389823D01*
X57797871Y40455024D01*
X57792773Y40456607D01*
X57787484Y40457308D01*
X57569511Y40486198D01*
X57569506Y40486198D01*
X57564226Y40486898D01*
X57558897Y40486698D01*
X57558895Y40486698D01*
X57449034Y40482574D01*
X57333842Y40478249D01*
X57328623Y40477154D01*
X57306566Y40472526D01*
X57108209Y40430907D01*
X57103250Y40428949D01*
X57103248Y40428948D01*
X56898744Y40348185D01*
X56898742Y40348184D01*
X56893779Y40346224D01*
X56889220Y40343457D01*
X56889217Y40343456D01*
X56790832Y40283754D01*
X56696683Y40226623D01*
X56692653Y40223126D01*
X56584550Y40129319D01*
X56522555Y40075523D01*
X56495568Y40042610D01*
X56379760Y39901373D01*
X56379756Y39901367D01*
X56376376Y39897245D01*
X56358448Y39865750D01*
X56307368Y39816445D01*
X56237738Y39802583D01*
X56171667Y39828566D01*
X56144427Y39857716D01*
X56087602Y39942121D01*
X56062559Y39979319D01*
X55903424Y40146135D01*
X55718458Y40283754D01*
X55713707Y40286170D01*
X55713703Y40286172D01*
X55603755Y40342072D01*
X55512949Y40388240D01*
X55507855Y40389822D01*
X55507852Y40389823D01*
X55297871Y40455024D01*
X55292773Y40456607D01*
X55287484Y40457308D01*
X55069511Y40486198D01*
X55069506Y40486198D01*
X55064226Y40486898D01*
X55058897Y40486698D01*
X55058895Y40486698D01*
X54949034Y40482574D01*
X54833842Y40478249D01*
X54828623Y40477154D01*
X54806566Y40472526D01*
X54608209Y40430907D01*
X54603250Y40428949D01*
X54603248Y40428948D01*
X54398744Y40348185D01*
X54398742Y40348184D01*
X54393779Y40346224D01*
X54389220Y40343457D01*
X54389217Y40343456D01*
X54290832Y40283754D01*
X54196683Y40226623D01*
X54192653Y40223126D01*
X54084550Y40129319D01*
X54022555Y40075523D01*
X53995568Y40042610D01*
X53879760Y39901373D01*
X53879756Y39901367D01*
X53876376Y39897245D01*
X53858448Y39865750D01*
X53807368Y39816445D01*
X53737738Y39802583D01*
X53671667Y39828566D01*
X53644427Y39857716D01*
X53587602Y39942121D01*
X53562559Y39979319D01*
X53403424Y40146135D01*
X53218458Y40283754D01*
X53213707Y40286170D01*
X53213703Y40286172D01*
X53103755Y40342072D01*
X53012949Y40388240D01*
X53007855Y40389822D01*
X53007852Y40389823D01*
X52797871Y40455024D01*
X52792773Y40456607D01*
X52787484Y40457308D01*
X52569511Y40486198D01*
X52569506Y40486198D01*
X52564226Y40486898D01*
X52558897Y40486698D01*
X52558895Y40486698D01*
X52449034Y40482574D01*
X52333842Y40478249D01*
X52328623Y40477154D01*
X52306566Y40472526D01*
X52108209Y40430907D01*
X52103250Y40428949D01*
X52103248Y40428948D01*
X51898744Y40348185D01*
X51898742Y40348184D01*
X51893779Y40346224D01*
X51889220Y40343457D01*
X51889217Y40343456D01*
X51790832Y40283754D01*
X51696683Y40226623D01*
X51692653Y40223126D01*
X51584550Y40129319D01*
X51522555Y40075523D01*
X51495568Y40042610D01*
X51379760Y39901373D01*
X51379756Y39901367D01*
X51376376Y39897245D01*
X51373738Y39892610D01*
X51373735Y39892606D01*
X51322491Y39802583D01*
X51262325Y39696886D01*
X51183663Y39480175D01*
X51182714Y39474926D01*
X51182713Y39474923D01*
X51143377Y39257392D01*
X51143376Y39257385D01*
X51142639Y39253308D01*
X51141500Y39229156D01*
X51141500Y38817110D01*
X51156080Y38645280D01*
X51157418Y38640125D01*
X51157419Y38640119D01*
X51212657Y38427297D01*
X51213999Y38422128D01*
X51216191Y38417262D01*
X51216192Y38417259D01*
X51251033Y38339915D01*
X51308688Y38211925D01*
X51319162Y38196367D01*
X51319163Y38196366D01*
X51340613Y38128687D01*
X51322069Y38060155D01*
X51269417Y38012529D01*
X51214642Y38000000D01*
X35432738Y38000000D01*
X35364617Y38020002D01*
X35318124Y38073658D01*
X35308020Y38143932D01*
X35313145Y38165667D01*
X35319079Y38183555D01*
X35347797Y38270139D01*
X35358500Y38374600D01*
X35358500Y39925400D01*
X35355680Y39952583D01*
X35348238Y40024308D01*
X35348237Y40024312D01*
X35347526Y40031166D01*
X35343710Y40042606D01*
X35293868Y40191998D01*
X35291550Y40198946D01*
X35198478Y40349348D01*
X35073303Y40474305D01*
X35053198Y40486698D01*
X34928968Y40563275D01*
X34928966Y40563276D01*
X34922738Y40567115D01*
X34842995Y40593564D01*
X34761389Y40620632D01*
X34761387Y40620632D01*
X34754861Y40622797D01*
X34748025Y40623497D01*
X34748022Y40623498D01*
X34704969Y40627909D01*
X34650400Y40633500D01*
X33349600Y40633500D01*
X33346354Y40633163D01*
X33346350Y40633163D01*
X33250692Y40623238D01*
X33250688Y40623237D01*
X33243834Y40622526D01*
X33237298Y40620345D01*
X33237296Y40620345D01*
X33198220Y40607308D01*
X33076054Y40566550D01*
X32925652Y40473478D01*
X32800695Y40348303D01*
X32711427Y40203483D01*
X32710920Y40202661D01*
X32658148Y40155168D01*
X32588076Y40143744D01*
X32522952Y40172018D01*
X32512490Y40181805D01*
X32407103Y40292278D01*
X32403424Y40296135D01*
X32339823Y40343456D01*
X32277503Y40389823D01*
X32218458Y40433754D01*
X32213707Y40436170D01*
X32213703Y40436172D01*
X32091731Y40498185D01*
X32012949Y40538240D01*
X32007855Y40539822D01*
X32007852Y40539823D01*
X31797871Y40605024D01*
X31792773Y40606607D01*
X31787484Y40607308D01*
X31569511Y40636198D01*
X31569506Y40636198D01*
X31564226Y40636898D01*
X31558897Y40636698D01*
X31558895Y40636698D01*
X31449034Y40632573D01*
X31333842Y40628249D01*
X31328623Y40627154D01*
X31306566Y40622526D01*
X31108209Y40580907D01*
X31103250Y40578949D01*
X31103248Y40578948D01*
X30898744Y40498185D01*
X30898742Y40498184D01*
X30893779Y40496224D01*
X30889220Y40493457D01*
X30889217Y40493456D01*
X30756126Y40412694D01*
X30696683Y40376623D01*
X30692653Y40373126D01*
X30589661Y40283754D01*
X30522555Y40225523D01*
X30504483Y40203483D01*
X30379760Y40051373D01*
X30379756Y40051367D01*
X30376376Y40047245D01*
X30358448Y40015750D01*
X30307368Y39966445D01*
X30237738Y39952583D01*
X30171667Y39978566D01*
X30144427Y40007716D01*
X30117814Y40047245D01*
X30062559Y40129319D01*
X30046518Y40146135D01*
X29907103Y40292278D01*
X29903424Y40296135D01*
X29839823Y40343456D01*
X29777503Y40389823D01*
X29718458Y40433754D01*
X29713707Y40436170D01*
X29713703Y40436172D01*
X29591731Y40498185D01*
X29512949Y40538240D01*
X29507855Y40539822D01*
X29507852Y40539823D01*
X29297871Y40605024D01*
X29292773Y40606607D01*
X29287484Y40607308D01*
X29069511Y40636198D01*
X29069506Y40636198D01*
X29064226Y40636898D01*
X29058897Y40636698D01*
X29058895Y40636698D01*
X28949034Y40632573D01*
X28833842Y40628249D01*
X28828623Y40627154D01*
X28806566Y40622526D01*
X28608209Y40580907D01*
X28603250Y40578949D01*
X28603248Y40578948D01*
X28398744Y40498185D01*
X28398742Y40498184D01*
X28393779Y40496224D01*
X28389220Y40493457D01*
X28389217Y40493456D01*
X28256126Y40412694D01*
X28196683Y40376623D01*
X28192653Y40373126D01*
X28089661Y40283754D01*
X28022555Y40225523D01*
X28004483Y40203483D01*
X27879760Y40051373D01*
X27879756Y40051367D01*
X27876376Y40047245D01*
X27858448Y40015750D01*
X27807368Y39966445D01*
X27737738Y39952583D01*
X27671667Y39978566D01*
X27644427Y40007716D01*
X27617814Y40047245D01*
X27562559Y40129319D01*
X27546518Y40146135D01*
X27407103Y40292278D01*
X27403424Y40296135D01*
X27339823Y40343456D01*
X27277503Y40389823D01*
X27218458Y40433754D01*
X27213707Y40436170D01*
X27213703Y40436172D01*
X27091731Y40498185D01*
X27012949Y40538240D01*
X27007855Y40539822D01*
X27007852Y40539823D01*
X26797871Y40605024D01*
X26792773Y40606607D01*
X26787484Y40607308D01*
X26569511Y40636198D01*
X26569506Y40636198D01*
X26564226Y40636898D01*
X26558897Y40636698D01*
X26558895Y40636698D01*
X26449034Y40632573D01*
X26333842Y40628249D01*
X26328623Y40627154D01*
X26306566Y40622526D01*
X26108209Y40580907D01*
X26103250Y40578949D01*
X26103248Y40578948D01*
X25898744Y40498185D01*
X25898742Y40498184D01*
X25893779Y40496224D01*
X25889220Y40493457D01*
X25889217Y40493456D01*
X25756126Y40412694D01*
X25696683Y40376623D01*
X25692653Y40373126D01*
X25589661Y40283754D01*
X25522555Y40225523D01*
X25504483Y40203483D01*
X25379760Y40051373D01*
X25379756Y40051367D01*
X25376376Y40047245D01*
X25373738Y40042610D01*
X25373735Y40042606D01*
X25335190Y39974892D01*
X25262325Y39846886D01*
X25183663Y39630175D01*
X25182714Y39624926D01*
X25182713Y39624923D01*
X25143377Y39407392D01*
X25143376Y39407385D01*
X25142639Y39403308D01*
X25141500Y39379156D01*
X25141500Y38967110D01*
X25141725Y38964461D01*
X25154228Y38817110D01*
X25156080Y38795280D01*
X25157418Y38790125D01*
X25157419Y38790119D01*
X25193634Y38650591D01*
X25213999Y38572128D01*
X25308688Y38361925D01*
X25311672Y38357492D01*
X25311673Y38357491D01*
X25420148Y38196367D01*
X25441599Y38128689D01*
X25423055Y38060157D01*
X25370404Y38012529D01*
X25315628Y38000000D01*
X4000000Y38000000D01*
X4000000Y22000000D01*
X508500Y22000000D01*
X508500Y39874000D01*
X528502Y39942121D01*
X582158Y39988614D01*
X634500Y40000000D01*
X7000000Y40000000D01*
X7000000Y46365500D01*
X7020002Y46433621D01*
X7073658Y46480114D01*
X7126000Y46491500D01*
X64874000Y46491500D01*
X64942121Y46471498D01*
G37*
%TD.AperFunction*%
%TD*%
M02*
