M48
; DRILL file {KiCad 6.0.6-3a73a75311~116~ubuntu20.04.1} date 2023年06月18日 00時08分06秒
; FORMAT={-:-/ absolute / inch / decimal}
; #@! TF.CreationDate,2023-06-18T00:08:06+09:00
; #@! TF.GenerationSoftware,Kicad,Pcbnew,6.0.6-3a73a75311~116~ubuntu20.04.1
; #@! TF.FileFunction,Plated,1,2,PTH
FMAT,2
INCH
; #@! TA.AperFunction,Plated,PTH,ViaDrill
T1C0.0157
; #@! TA.AperFunction,Plated,PTH,ComponentDrill
T2C0.0300
; #@! TA.AperFunction,Plated,PTH,ComponentDrill
T3C0.0374
; #@! TA.AperFunction,Plated,PTH,ComponentDrill
T4C0.0394
%
G90
G05
T1
X0.0394Y1.5354
X0.0394Y1.3386
X0.0394Y1.1417
X0.0394Y0.9449
X0.0394Y0.748
X0.0394Y0.5512
X0.0394Y0.3543
X0.1969Y1.5354
X0.2362Y0.748
X0.2362Y0.5512
X0.2362Y0.3543
X0.315Y1.811
X0.315Y1.6142
X0.315Y0.0394
X0.5118Y1.811
X0.5118Y1.6142
X0.5118Y0.4331
X0.5118Y0.2362
X0.5118Y0.0394
X0.7087Y1.811
X0.7087Y1.6142
X0.7087Y0.6299
X0.7087Y0.4331
X0.7087Y0.2362
X0.7087Y0.0394
X0.8268Y0.7874
X0.9055Y1.811
X0.9055Y1.6142
X0.9055Y0.4331
X0.9055Y0.2362
X0.9055Y0.0394
X1.0236Y0.7874
X1.1024Y1.811
X1.1024Y1.6142
X1.1024Y0.4331
X1.1024Y0.2362
X1.1024Y0.0394
X1.2205Y0.7874
X1.2992Y1.811
X1.2992Y1.6142
X1.2992Y0.2362
X1.2992Y0.0394
X1.4173Y0.7874
X1.4961Y1.811
X1.4961Y1.6142
X1.4961Y0.4331
X1.4961Y0.2362
X1.4961Y0.0394
X1.6142Y0.7874
X1.6929Y1.811
X1.6929Y1.6142
X1.6929Y0.6299
X1.6929Y0.4331
X1.6929Y0.2362
X1.6929Y0.0394
X1.811Y0.7874
X1.8898Y1.811
X1.8898Y1.6142
X1.8898Y0.4331
X1.8898Y0.2362
X1.8898Y0.0394
X2.0079Y0.7874
X2.0866Y1.811
X2.0866Y1.6142
X2.0866Y0.4331
X2.0866Y0.2362
X2.0866Y0.0394
X2.2047Y1.1024
X2.2047Y0.7874
X2.2835Y1.811
X2.2835Y1.6142
X2.2835Y0.2362
X2.2835Y0.0394
X2.4016Y1.1024
X2.4016Y0.7874
X2.4803Y1.811
X2.4803Y1.6142
X2.4803Y0.2362
X2.4803Y0.0394
X2.5984Y1.5354
X2.5984Y1.3386
X2.5984Y0.9449
X2.5984Y0.7874
X2.5984Y0.5512
X2.5984Y0.3543
X2.7953Y1.5354
X2.7953Y1.3386
X2.7953Y1.1417
X2.7953Y0.9449
X2.7953Y0.748
X2.7953Y0.5512
X2.7953Y0.3543
T2
X0.8661Y1.2008
X0.8705Y0.6949
X0.9661Y1.2008
X0.9705Y0.6949
X1.0661Y1.2008
X1.0705Y0.6949
X1.1661Y1.2008
X1.1705Y0.6949
X1.2661Y1.2008
X1.2705Y0.6949
X1.3661Y1.2008
X1.3705Y0.6949
X1.4661Y1.2008
X1.4705Y0.6949
X1.5661Y1.2008
X1.5705Y0.6949
X1.8898Y1.2008
X1.8941Y0.6949
X1.9898Y1.2008
X1.9941Y0.6949
X2.0898Y1.2008
X2.0941Y0.6949
X2.1898Y1.2008
X2.1941Y0.6949
X2.2898Y1.2008
X2.2941Y0.6949
X2.3898Y1.2008
X2.3941Y0.6949
X2.4898Y1.2008
X2.4941Y0.6949
X2.5898Y1.2008
X2.5941Y0.6949
T3
X1.0433Y1.5413
X1.1417Y1.5413
X1.2402Y1.5413
X1.3386Y1.5413
X2.0669Y1.5354
X2.1654Y1.5354
X2.2638Y1.5354
X2.3622Y1.5354
T4
X0.3484Y0.6791
X0.3484Y0.5807
X0.3543Y1.1024
X0.3543Y1.0039
X1.2106Y0.3091
X1.3091Y0.3091
X2.2343Y0.3091
X2.3327Y0.3091
T0
M30
