%TF.GenerationSoftware,KiCad,Pcbnew,6.0.6-3a73a75311~116~ubuntu20.04.1*%
%TF.CreationDate,2023-06-18T00:08:06+09:00*%
%TF.ProjectId,catchrobo2023_OtherSubstrate,63617463-6872-46f6-926f-323032335f4f,rev?*%
%TF.SameCoordinates,Original*%
%TF.FileFunction,Legend,Top*%
%TF.FilePolarity,Positive*%
%FSLAX46Y46*%
G04 Gerber Fmt 4.6, Leading zero omitted, Abs format (unit mm)*
G04 Created by KiCad (PCBNEW 6.0.6-3a73a75311~116~ubuntu20.04.1) date 2023-06-18 00:08:06*
%MOMM*%
%LPD*%
G01*
G04 APERTURE LIST*
G04 Aperture macros list*
%AMRoundRect*
0 Rectangle with rounded corners*
0 $1 Rounding radius*
0 $2 $3 $4 $5 $6 $7 $8 $9 X,Y pos of 4 corners*
0 Add a 4 corners polygon primitive as box body*
4,1,4,$2,$3,$4,$5,$6,$7,$8,$9,$2,$3,0*
0 Add four circle primitives for the rounded corners*
1,1,$1+$1,$2,$3*
1,1,$1+$1,$4,$5*
1,1,$1+$1,$6,$7*
1,1,$1+$1,$8,$9*
0 Add four rect primitives between the rounded corners*
20,1,$1+$1,$2,$3,$4,$5,0*
20,1,$1+$1,$4,$5,$6,$7,0*
20,1,$1+$1,$6,$7,$8,$9,0*
20,1,$1+$1,$8,$9,$2,$3,0*%
G04 Aperture macros list end*
%ADD10C,0.150000*%
%ADD11C,0.120000*%
%ADD12C,3.200000*%
%ADD13C,1.524000*%
%ADD14RoundRect,0.250000X0.600000X0.725000X-0.600000X0.725000X-0.600000X-0.725000X0.600000X-0.725000X0*%
%ADD15O,1.700000X1.950000*%
%ADD16RoundRect,0.250000X-0.750000X0.600000X-0.750000X-0.600000X0.750000X-0.600000X0.750000X0.600000X0*%
%ADD17O,2.000000X1.700000*%
%ADD18RoundRect,0.250000X-0.600000X-0.750000X0.600000X-0.750000X0.600000X0.750000X-0.600000X0.750000X0*%
%ADD19O,1.700000X2.000000*%
G04 APERTURE END LIST*
D10*
%TO.C,REF\u002A\u002A*%
X1666666Y47747620D02*
X1333333Y48223810D01*
X1095238Y47747620D02*
X1095238Y48747620D01*
X1476190Y48747620D01*
X1571428Y48700000D01*
X1619047Y48652381D01*
X1666666Y48557143D01*
X1666666Y48414286D01*
X1619047Y48319048D01*
X1571428Y48271429D01*
X1476190Y48223810D01*
X1095238Y48223810D01*
X2095238Y48271429D02*
X2428571Y48271429D01*
X2571428Y47747620D02*
X2095238Y47747620D01*
X2095238Y48747620D01*
X2571428Y48747620D01*
X3333333Y48271429D02*
X3000000Y48271429D01*
X3000000Y47747620D02*
X3000000Y48747620D01*
X3476190Y48747620D01*
X4000000Y48747620D02*
X4000000Y48509524D01*
X3761904Y48604762D02*
X4000000Y48509524D01*
X4238095Y48604762D01*
X3857142Y48319048D02*
X4000000Y48509524D01*
X4142857Y48319048D01*
X4761904Y48747620D02*
X4761904Y48509524D01*
X4523809Y48604762D02*
X4761904Y48509524D01*
X5000000Y48604762D01*
X4619047Y48319048D02*
X4761904Y48509524D01*
X4904761Y48319048D01*
X67666666Y47747620D02*
X67333333Y48223810D01*
X67095238Y47747620D02*
X67095238Y48747620D01*
X67476190Y48747620D01*
X67571428Y48700000D01*
X67619047Y48652381D01*
X67666666Y48557143D01*
X67666666Y48414286D01*
X67619047Y48319048D01*
X67571428Y48271429D01*
X67476190Y48223810D01*
X67095238Y48223810D01*
X68095238Y48271429D02*
X68428571Y48271429D01*
X68571428Y47747620D02*
X68095238Y47747620D01*
X68095238Y48747620D01*
X68571428Y48747620D01*
X69333333Y48271429D02*
X69000000Y48271429D01*
X69000000Y47747620D02*
X69000000Y48747620D01*
X69476190Y48747620D01*
X70000000Y48747620D02*
X70000000Y48509524D01*
X69761904Y48604762D02*
X70000000Y48509524D01*
X70238095Y48604762D01*
X69857142Y48319048D02*
X70000000Y48509524D01*
X70142857Y48319048D01*
X70761904Y48747620D02*
X70761904Y48509524D01*
X70523809Y48604762D02*
X70761904Y48509524D01*
X71000000Y48604762D01*
X70619047Y48319048D02*
X70761904Y48509524D01*
X70904761Y48319048D01*
%TO.C,U2*%
X16952380Y23238096D02*
X17761904Y23238096D01*
X17857142Y23285715D01*
X17904761Y23333334D01*
X17952380Y23428572D01*
X17952380Y23619048D01*
X17904761Y23714286D01*
X17857142Y23761905D01*
X17761904Y23809524D01*
X16952380Y23809524D01*
X17047619Y24238096D02*
X17000000Y24285715D01*
X16952380Y24380953D01*
X16952380Y24619048D01*
X17000000Y24714286D01*
X17047619Y24761905D01*
X17142857Y24809524D01*
X17238095Y24809524D01*
X17380952Y24761905D01*
X17952380Y24190477D01*
X17952380Y24809524D01*
%TO.C,J5*%
X55916666Y34447620D02*
X55916666Y33733334D01*
X55869047Y33590477D01*
X55773809Y33495239D01*
X55630952Y33447620D01*
X55535714Y33447620D01*
X56869047Y34447620D02*
X56392857Y34447620D01*
X56345238Y33971429D01*
X56392857Y34019048D01*
X56488095Y34066667D01*
X56726190Y34066667D01*
X56821428Y34019048D01*
X56869047Y33971429D01*
X56916666Y33876191D01*
X56916666Y33638096D01*
X56869047Y33542858D01*
X56821428Y33495239D01*
X56726190Y33447620D01*
X56488095Y33447620D01*
X56392857Y33495239D01*
X56345238Y33542858D01*
%TO.C,REF\u002A\u002A*%
X67666666Y6747620D02*
X67333333Y7223810D01*
X67095238Y6747620D02*
X67095238Y7747620D01*
X67476190Y7747620D01*
X67571428Y7700000D01*
X67619047Y7652381D01*
X67666666Y7557143D01*
X67666666Y7414286D01*
X67619047Y7319048D01*
X67571428Y7271429D01*
X67476190Y7223810D01*
X67095238Y7223810D01*
X68095238Y7271429D02*
X68428571Y7271429D01*
X68571428Y6747620D02*
X68095238Y6747620D01*
X68095238Y7747620D01*
X68571428Y7747620D01*
X69333333Y7271429D02*
X69000000Y7271429D01*
X69000000Y6747620D02*
X69000000Y7747620D01*
X69476190Y7747620D01*
X70000000Y7747620D02*
X70000000Y7509524D01*
X69761904Y7604762D02*
X70000000Y7509524D01*
X70238095Y7604762D01*
X69857142Y7319048D02*
X70000000Y7509524D01*
X70142857Y7319048D01*
X70761904Y7747620D02*
X70761904Y7509524D01*
X70523809Y7604762D02*
X70761904Y7509524D01*
X71000000Y7604762D01*
X70619047Y7319048D02*
X70761904Y7509524D01*
X70904761Y7319048D01*
%TO.C,J6*%
X29916666Y34597620D02*
X29916666Y33883334D01*
X29869047Y33740477D01*
X29773809Y33645239D01*
X29630952Y33597620D01*
X29535714Y33597620D01*
X30821428Y34597620D02*
X30630952Y34597620D01*
X30535714Y34550000D01*
X30488095Y34502381D01*
X30392857Y34359524D01*
X30345238Y34169048D01*
X30345238Y33788096D01*
X30392857Y33692858D01*
X30440476Y33645239D01*
X30535714Y33597620D01*
X30726190Y33597620D01*
X30821428Y33645239D01*
X30869047Y33692858D01*
X30916666Y33788096D01*
X30916666Y34026191D01*
X30869047Y34121429D01*
X30821428Y34169048D01*
X30726190Y34216667D01*
X30535714Y34216667D01*
X30440476Y34169048D01*
X30392857Y34121429D01*
X30345238Y34026191D01*
%TO.C,REF\u002A\u002A*%
X1666666Y6747620D02*
X1333333Y7223810D01*
X1095238Y6747620D02*
X1095238Y7747620D01*
X1476190Y7747620D01*
X1571428Y7700000D01*
X1619047Y7652381D01*
X1666666Y7557143D01*
X1666666Y7414286D01*
X1619047Y7319048D01*
X1571428Y7271429D01*
X1476190Y7223810D01*
X1095238Y7223810D01*
X2095238Y7271429D02*
X2428571Y7271429D01*
X2571428Y6747620D02*
X2095238Y6747620D01*
X2095238Y7747620D01*
X2571428Y7747620D01*
X3333333Y7271429D02*
X3000000Y7271429D01*
X3000000Y6747620D02*
X3000000Y7747620D01*
X3476190Y7747620D01*
X4000000Y7747620D02*
X4000000Y7509524D01*
X3761904Y7604762D02*
X4000000Y7509524D01*
X4238095Y7604762D01*
X3857142Y7319048D02*
X4000000Y7509524D01*
X4142857Y7319048D01*
X4761904Y7747620D02*
X4761904Y7509524D01*
X4523809Y7604762D02*
X4761904Y7509524D01*
X5000000Y7604762D01*
X4619047Y7319048D02*
X4761904Y7509524D01*
X4904761Y7319048D01*
%TO.C,J4*%
X13552380Y26416667D02*
X14266666Y26416667D01*
X14409523Y26369048D01*
X14504761Y26273810D01*
X14552380Y26130953D01*
X14552380Y26035715D01*
X13885714Y27321429D02*
X14552380Y27321429D01*
X13504761Y27083334D02*
X14219047Y26845239D01*
X14219047Y27464286D01*
%TO.C,U1*%
X42952380Y23238096D02*
X43761904Y23238096D01*
X43857142Y23285715D01*
X43904761Y23333334D01*
X43952380Y23428572D01*
X43952380Y23619048D01*
X43904761Y23714286D01*
X43857142Y23761905D01*
X43761904Y23809524D01*
X42952380Y23809524D01*
X43952380Y24809524D02*
X43952380Y24238096D01*
X43952380Y24523810D02*
X42952380Y24523810D01*
X43095238Y24428572D01*
X43190476Y24333334D01*
X43238095Y24238096D01*
%TO.C,J3*%
X13402380Y15666667D02*
X14116666Y15666667D01*
X14259523Y15619048D01*
X14354761Y15523810D01*
X14402380Y15380953D01*
X14402380Y15285715D01*
X13402380Y16047620D02*
X13402380Y16666667D01*
X13783333Y16333334D01*
X13783333Y16476191D01*
X13830952Y16571429D01*
X13878571Y16619048D01*
X13973809Y16666667D01*
X14211904Y16666667D01*
X14307142Y16619048D01*
X14354761Y16571429D01*
X14402380Y16476191D01*
X14402380Y16190477D01*
X14354761Y16095239D01*
X14307142Y16047620D01*
%TO.C,J1*%
X57666666Y13497620D02*
X57666666Y12783334D01*
X57619047Y12640477D01*
X57523809Y12545239D01*
X57380952Y12497620D01*
X57285714Y12497620D01*
X58666666Y12497620D02*
X58095238Y12497620D01*
X58380952Y12497620D02*
X58380952Y13497620D01*
X58285714Y13354762D01*
X58190476Y13259524D01*
X58095238Y13211905D01*
%TO.C,J2*%
X31666666Y13497620D02*
X31666666Y12783334D01*
X31619047Y12640477D01*
X31523809Y12545239D01*
X31380952Y12497620D01*
X31285714Y12497620D01*
X32095238Y13402381D02*
X32142857Y13450000D01*
X32238095Y13497620D01*
X32476190Y13497620D01*
X32571428Y13450000D01*
X32619047Y13402381D01*
X32666666Y13307143D01*
X32666666Y13211905D01*
X32619047Y13069048D01*
X32047619Y12497620D01*
X32666666Y12497620D01*
D11*
%TO.C,U2*%
X41150000Y31600000D02*
X20850000Y31600000D01*
X20850000Y31600000D02*
X20850000Y16400000D01*
X20850000Y16400000D02*
X41150000Y16400000D01*
X41150000Y16400000D02*
X41150000Y31600000D01*
%TO.C,J5*%
X59750000Y46100000D02*
X59750000Y40600000D01*
X56250000Y46710000D02*
X49940000Y46710000D01*
X51360000Y34990000D02*
X51360000Y39490000D01*
X49940000Y34990000D02*
X51360000Y34990000D01*
X57250000Y46100000D02*
X57250000Y40600000D01*
X55250000Y46100000D02*
X54750000Y46100000D01*
X57750000Y40600000D02*
X57750000Y46100000D01*
X54750000Y40600000D02*
X55250000Y40600000D01*
X57250000Y40600000D02*
X57750000Y40600000D01*
X60250000Y46100000D02*
X59750000Y46100000D01*
X60000000Y37500000D02*
X60300000Y36900000D01*
X59700000Y36900000D02*
X60000000Y37500000D01*
X52750000Y40600000D02*
X52750000Y46100000D01*
X62560000Y46710000D02*
X62560000Y34990000D01*
X61140000Y34990000D02*
X61140000Y39490000D01*
X55250000Y40600000D02*
X55250000Y46100000D01*
X57750000Y46100000D02*
X57250000Y46100000D01*
X49940000Y46710000D02*
X49940000Y34990000D01*
X52750000Y46100000D02*
X52250000Y46100000D01*
X60250000Y40600000D02*
X60250000Y46100000D01*
X52250000Y46100000D02*
X52250000Y40600000D01*
X59750000Y40600000D02*
X60250000Y40600000D01*
X62560000Y34990000D02*
X61140000Y34990000D01*
X60300000Y36900000D02*
X59700000Y36900000D01*
X52250000Y40600000D02*
X52750000Y40600000D01*
X56250000Y46710000D02*
X62560000Y46710000D01*
X54750000Y46100000D02*
X54750000Y40600000D01*
%TO.C,J6*%
X28750000Y46250000D02*
X28750000Y40750000D01*
X26250000Y40750000D02*
X26750000Y40750000D01*
X35140000Y35140000D02*
X35140000Y39640000D01*
X36560000Y46860000D02*
X36560000Y35140000D01*
X34250000Y40750000D02*
X34250000Y46250000D01*
X26750000Y46250000D02*
X26250000Y46250000D01*
X23940000Y46860000D02*
X23940000Y35140000D01*
X29250000Y40750000D02*
X29250000Y46250000D01*
X36560000Y35140000D02*
X35140000Y35140000D01*
X31750000Y46250000D02*
X31250000Y46250000D01*
X28750000Y40750000D02*
X29250000Y40750000D01*
X33750000Y40750000D02*
X34250000Y40750000D01*
X25360000Y35140000D02*
X25360000Y39640000D01*
X23940000Y35140000D02*
X25360000Y35140000D01*
X34000000Y37650000D02*
X34300000Y37050000D01*
X30250000Y46860000D02*
X23940000Y46860000D01*
X29250000Y46250000D02*
X28750000Y46250000D01*
X31250000Y46250000D02*
X31250000Y40750000D01*
X33750000Y46250000D02*
X33750000Y40750000D01*
X34300000Y37050000D02*
X33700000Y37050000D01*
X31250000Y40750000D02*
X31750000Y40750000D01*
X34250000Y46250000D02*
X33750000Y46250000D01*
X26250000Y46250000D02*
X26250000Y40750000D01*
X30250000Y46860000D02*
X36560000Y46860000D01*
X31750000Y40750000D02*
X31750000Y46250000D01*
X33700000Y37050000D02*
X34000000Y37650000D01*
X26750000Y40750000D02*
X26750000Y46250000D01*
%TO.C,J4*%
X7400000Y25750000D02*
X1900000Y25750000D01*
X13010000Y29140000D02*
X8510000Y29140000D01*
X13010000Y22940000D02*
X13010000Y24360000D01*
X1290000Y30560000D02*
X13010000Y30560000D01*
X1290000Y22940000D02*
X13010000Y22940000D01*
X13010000Y30560000D02*
X13010000Y29140000D01*
X11100000Y28300000D02*
X11100000Y27700000D01*
X1900000Y25750000D02*
X1900000Y25250000D01*
X7400000Y28250000D02*
X1900000Y28250000D01*
X1900000Y27750000D02*
X7400000Y27750000D01*
X7400000Y27750000D02*
X7400000Y28250000D01*
X1290000Y26750000D02*
X1290000Y22940000D01*
X1900000Y28250000D02*
X1900000Y27750000D01*
X10500000Y28000000D02*
X11100000Y28300000D01*
X7400000Y25250000D02*
X7400000Y25750000D01*
X11100000Y27700000D02*
X10500000Y28000000D01*
X13010000Y24360000D02*
X8510000Y24360000D01*
X1290000Y26750000D02*
X1290000Y30560000D01*
X1900000Y25250000D02*
X7400000Y25250000D01*
%TO.C,U1*%
X67150000Y31600000D02*
X46850000Y31600000D01*
X46850000Y31600000D02*
X46850000Y16400000D01*
X46850000Y16400000D02*
X67150000Y16400000D01*
X67150000Y16400000D02*
X67150000Y31600000D01*
%TO.C,J3*%
X7250000Y17000000D02*
X7250000Y17500000D01*
X1750000Y17000000D02*
X7250000Y17000000D01*
X1750000Y14500000D02*
X7250000Y14500000D01*
X1140000Y12190000D02*
X12860000Y12190000D01*
X1140000Y16000000D02*
X1140000Y12190000D01*
X12860000Y18390000D02*
X8360000Y18390000D01*
X1750000Y15000000D02*
X1750000Y14500000D01*
X1750000Y17500000D02*
X1750000Y17000000D01*
X7250000Y17500000D02*
X1750000Y17500000D01*
X12860000Y19810000D02*
X12860000Y18390000D01*
X12860000Y13610000D02*
X8360000Y13610000D01*
X1140000Y16000000D02*
X1140000Y19810000D01*
X12860000Y12190000D02*
X12860000Y13610000D01*
X10950000Y17550000D02*
X10950000Y16950000D01*
X10950000Y16950000D02*
X10350000Y17250000D01*
X7250000Y14500000D02*
X7250000Y15000000D01*
X10350000Y17250000D02*
X10950000Y17550000D01*
X7250000Y15000000D02*
X1750000Y15000000D01*
X1140000Y19810000D02*
X12860000Y19810000D01*
%TO.C,J1*%
X59500000Y750000D02*
X59500000Y6250000D01*
X56750000Y9350000D02*
X56450000Y9950000D01*
X59000000Y6250000D02*
X59000000Y750000D01*
X59500000Y6250000D02*
X59000000Y6250000D01*
X54190000Y140000D02*
X54190000Y11860000D01*
X56500000Y750000D02*
X57000000Y750000D01*
X57000000Y750000D02*
X57000000Y6250000D01*
X55610000Y11860000D02*
X55610000Y7360000D01*
X56450000Y9950000D02*
X57050000Y9950000D01*
X56500000Y6250000D02*
X56500000Y750000D01*
X57050000Y9950000D02*
X56750000Y9350000D01*
X54190000Y11860000D02*
X55610000Y11860000D01*
X61810000Y140000D02*
X61810000Y11860000D01*
X58000000Y140000D02*
X61810000Y140000D01*
X59000000Y750000D02*
X59500000Y750000D01*
X58000000Y140000D02*
X54190000Y140000D01*
X57000000Y6250000D02*
X56500000Y6250000D01*
X60390000Y11860000D02*
X60390000Y7360000D01*
X61810000Y11860000D02*
X60390000Y11860000D01*
%TO.C,J2*%
X31050000Y9950000D02*
X30750000Y9350000D01*
X33500000Y6250000D02*
X33000000Y6250000D01*
X35810000Y11860000D02*
X34390000Y11860000D01*
X28190000Y11860000D02*
X29610000Y11860000D01*
X31000000Y750000D02*
X31000000Y6250000D01*
X30450000Y9950000D02*
X31050000Y9950000D01*
X32000000Y140000D02*
X28190000Y140000D01*
X32000000Y140000D02*
X35810000Y140000D01*
X33000000Y6250000D02*
X33000000Y750000D01*
X33500000Y750000D02*
X33500000Y6250000D01*
X30500000Y6250000D02*
X30500000Y750000D01*
X30500000Y750000D02*
X31000000Y750000D01*
X29610000Y11860000D02*
X29610000Y7360000D01*
X28190000Y140000D02*
X28190000Y11860000D01*
X34390000Y11860000D02*
X34390000Y7360000D01*
X30750000Y9350000D02*
X30450000Y9950000D01*
X35810000Y140000D02*
X35810000Y11860000D01*
X33000000Y750000D02*
X33500000Y750000D01*
X31000000Y6250000D02*
X30500000Y6250000D01*
%TD*%
%LPC*%
D12*
%TO.C,REF\u002A\u002A*%
X3000000Y44000000D03*
%TD*%
%TO.C,REF\u002A\u002A*%
X69000000Y44000000D03*
%TD*%
D13*
%TO.C,U2*%
X22110000Y17650000D03*
X24650000Y17650000D03*
X27190000Y17650000D03*
X29730000Y17650000D03*
X32270000Y17650000D03*
X34810000Y17650000D03*
X37350000Y17650000D03*
X39890000Y17650000D03*
X39780000Y30500000D03*
X37240000Y30500000D03*
X34700000Y30500000D03*
X32160000Y30500000D03*
X29620000Y30500000D03*
X27080000Y30500000D03*
X24540000Y30500000D03*
X22000000Y30500000D03*
%TD*%
D14*
%TO.C,J5*%
X60000000Y39000000D03*
D15*
X57500000Y39000000D03*
X55000000Y39000000D03*
X52500000Y39000000D03*
%TD*%
D12*
%TO.C,REF\u002A\u002A*%
X69000000Y3000000D03*
%TD*%
D14*
%TO.C,J6*%
X34000000Y39150000D03*
D15*
X31500000Y39150000D03*
X29000000Y39150000D03*
X26500000Y39150000D03*
%TD*%
D12*
%TO.C,REF\u002A\u002A*%
X3000000Y3000000D03*
%TD*%
D16*
%TO.C,J4*%
X9000000Y28000000D03*
D17*
X9000000Y25500000D03*
%TD*%
D13*
%TO.C,U1*%
X48110000Y17650000D03*
X50650000Y17650000D03*
X53190000Y17650000D03*
X55730000Y17650000D03*
X58270000Y17650000D03*
X60810000Y17650000D03*
X63350000Y17650000D03*
X65890000Y17650000D03*
X65780000Y30500000D03*
X63240000Y30500000D03*
X60700000Y30500000D03*
X58160000Y30500000D03*
X55620000Y30500000D03*
X53080000Y30500000D03*
X50540000Y30500000D03*
X48000000Y30500000D03*
%TD*%
D16*
%TO.C,J3*%
X8850000Y17250000D03*
D17*
X8850000Y14750000D03*
%TD*%
D18*
%TO.C,J1*%
X56750000Y7850000D03*
D19*
X59250000Y7850000D03*
%TD*%
D18*
%TO.C,J2*%
X30750000Y7850000D03*
D19*
X33250000Y7850000D03*
%TD*%
M02*
