%TF.GenerationSoftware,KiCad,Pcbnew,6.0.6-3a73a75311~116~ubuntu20.04.1*%
%TF.CreationDate,2023-06-18T00:08:06+09:00*%
%TF.ProjectId,catchrobo2023_OtherSubstrate,63617463-6872-46f6-926f-323032335f4f,rev?*%
%TF.SameCoordinates,Original*%
%TF.FileFunction,Copper,L2,Bot*%
%TF.FilePolarity,Positive*%
%FSLAX46Y46*%
G04 Gerber Fmt 4.6, Leading zero omitted, Abs format (unit mm)*
G04 Created by KiCad (PCBNEW 6.0.6-3a73a75311~116~ubuntu20.04.1) date 2023-06-18 00:08:06*
%MOMM*%
%LPD*%
G01*
G04 APERTURE LIST*
G04 Aperture macros list*
%AMRoundRect*
0 Rectangle with rounded corners*
0 $1 Rounding radius*
0 $2 $3 $4 $5 $6 $7 $8 $9 X,Y pos of 4 corners*
0 Add a 4 corners polygon primitive as box body*
4,1,4,$2,$3,$4,$5,$6,$7,$8,$9,$2,$3,0*
0 Add four circle primitives for the rounded corners*
1,1,$1+$1,$2,$3*
1,1,$1+$1,$4,$5*
1,1,$1+$1,$6,$7*
1,1,$1+$1,$8,$9*
0 Add four rect primitives between the rounded corners*
20,1,$1+$1,$2,$3,$4,$5,0*
20,1,$1+$1,$4,$5,$6,$7,0*
20,1,$1+$1,$6,$7,$8,$9,0*
20,1,$1+$1,$8,$9,$2,$3,0*%
G04 Aperture macros list end*
%TA.AperFunction,ComponentPad*%
%ADD10C,1.524000*%
%TD*%
%TA.AperFunction,ComponentPad*%
%ADD11RoundRect,0.250000X0.600000X0.725000X-0.600000X0.725000X-0.600000X-0.725000X0.600000X-0.725000X0*%
%TD*%
%TA.AperFunction,ComponentPad*%
%ADD12O,1.700000X1.950000*%
%TD*%
%TA.AperFunction,ComponentPad*%
%ADD13RoundRect,0.250000X-0.750000X0.600000X-0.750000X-0.600000X0.750000X-0.600000X0.750000X0.600000X0*%
%TD*%
%TA.AperFunction,ComponentPad*%
%ADD14O,2.000000X1.700000*%
%TD*%
%TA.AperFunction,ComponentPad*%
%ADD15RoundRect,0.250000X-0.600000X-0.750000X0.600000X-0.750000X0.600000X0.750000X-0.600000X0.750000X0*%
%TD*%
%TA.AperFunction,ComponentPad*%
%ADD16O,1.700000X2.000000*%
%TD*%
%TA.AperFunction,ViaPad*%
%ADD17C,0.800000*%
%TD*%
%TA.AperFunction,Conductor*%
%ADD18C,0.250000*%
%TD*%
%TA.AperFunction,Conductor*%
%ADD19C,0.500000*%
%TD*%
G04 APERTURE END LIST*
D10*
%TO.P,U2,1,EN*%
%TO.N,unconnected-(U2-Pad1)*%
X22110000Y17650000D03*
%TO.P,U2,2,MODE1*%
%TO.N,unconnected-(U2-Pad2)*%
X24650000Y17650000D03*
%TO.P,U2,3,MODE2*%
%TO.N,unconnected-(U2-Pad3)*%
X27190000Y17650000D03*
%TO.P,U2,4,(1)*%
%TO.N,unconnected-(U2-Pad4)*%
X29730000Y17650000D03*
%TO.P,U2,5,(2)*%
%TO.N,unconnected-(U2-Pad5)*%
X32270000Y17650000D03*
%TO.P,U2,6,STBY*%
%TO.N,unconnected-(U2-Pad6)*%
X34810000Y17650000D03*
%TO.P,U2,7,STEP/MODE3*%
%TO.N,Net-(J2-Pad2)*%
X37350000Y17650000D03*
%TO.P,U2,8,DIR/MODE4*%
%TO.N,Net-(J2-Pad1)*%
X39890000Y17650000D03*
%TO.P,U2,9,GND*%
%TO.N,GND*%
X39780000Y30500000D03*
%TO.P,U2,10,VCC*%
%TO.N,+5V*%
X37240000Y30500000D03*
%TO.P,U2,11,A1*%
%TO.N,Net-(J6-Pad1)*%
X34700000Y30500000D03*
%TO.P,U2,12,A2*%
%TO.N,Net-(J6-Pad2)*%
X32160000Y30500000D03*
%TO.P,U2,13,B2*%
%TO.N,Net-(J6-Pad3)*%
X29620000Y30500000D03*
%TO.P,U2,14,B1*%
%TO.N,Net-(J6-Pad4)*%
X27080000Y30500000D03*
%TO.P,U2,15,GND*%
%TO.N,GND*%
X24540000Y30500000D03*
%TO.P,U2,16,VMOT*%
%TO.N,+7.5V*%
X22000000Y30500000D03*
%TD*%
D11*
%TO.P,J5,1,Pin_1*%
%TO.N,Net-(J5-Pad1)*%
X60000000Y39000000D03*
D12*
%TO.P,J5,2,Pin_2*%
%TO.N,Net-(J5-Pad2)*%
X57500000Y39000000D03*
%TO.P,J5,3,Pin_3*%
%TO.N,Net-(J5-Pad3)*%
X55000000Y39000000D03*
%TO.P,J5,4,Pin_4*%
%TO.N,Net-(J5-Pad4)*%
X52500000Y39000000D03*
%TD*%
D11*
%TO.P,J6,1,Pin_1*%
%TO.N,Net-(J6-Pad1)*%
X34000000Y39150000D03*
D12*
%TO.P,J6,2,Pin_2*%
%TO.N,Net-(J6-Pad2)*%
X31500000Y39150000D03*
%TO.P,J6,3,Pin_3*%
%TO.N,Net-(J6-Pad3)*%
X29000000Y39150000D03*
%TO.P,J6,4,Pin_4*%
%TO.N,Net-(J6-Pad4)*%
X26500000Y39150000D03*
%TD*%
D13*
%TO.P,J4,1,Pin_1*%
%TO.N,+7.5V*%
X9000000Y28000000D03*
D14*
%TO.P,J4,2,Pin_2*%
%TO.N,GND*%
X9000000Y25500000D03*
%TD*%
D10*
%TO.P,U1,1,EN*%
%TO.N,unconnected-(U1-Pad1)*%
X48110000Y17650000D03*
%TO.P,U1,2,MODE1*%
%TO.N,unconnected-(U1-Pad2)*%
X50650000Y17650000D03*
%TO.P,U1,3,MODE2*%
%TO.N,unconnected-(U1-Pad3)*%
X53190000Y17650000D03*
%TO.P,U1,4,(1)*%
%TO.N,unconnected-(U1-Pad4)*%
X55730000Y17650000D03*
%TO.P,U1,5,(2)*%
%TO.N,unconnected-(U1-Pad5)*%
X58270000Y17650000D03*
%TO.P,U1,6,STBY*%
%TO.N,unconnected-(U1-Pad6)*%
X60810000Y17650000D03*
%TO.P,U1,7,STEP/MODE3*%
%TO.N,Net-(J1-Pad2)*%
X63350000Y17650000D03*
%TO.P,U1,8,DIR/MODE4*%
%TO.N,Net-(J1-Pad1)*%
X65890000Y17650000D03*
%TO.P,U1,9,GND*%
%TO.N,GND*%
X65780000Y30500000D03*
%TO.P,U1,10,VCC*%
%TO.N,+5V*%
X63240000Y30500000D03*
%TO.P,U1,11,A1*%
%TO.N,Net-(J5-Pad1)*%
X60700000Y30500000D03*
%TO.P,U1,12,A2*%
%TO.N,Net-(J5-Pad2)*%
X58160000Y30500000D03*
%TO.P,U1,13,B2*%
%TO.N,Net-(J5-Pad3)*%
X55620000Y30500000D03*
%TO.P,U1,14,B1*%
%TO.N,Net-(J5-Pad4)*%
X53080000Y30500000D03*
%TO.P,U1,15,GND*%
%TO.N,GND*%
X50540000Y30500000D03*
%TO.P,U1,16,VMOT*%
%TO.N,+7.5V*%
X48000000Y30500000D03*
%TD*%
D13*
%TO.P,J3,1,Pin_1*%
%TO.N,+5V*%
X8850000Y17250000D03*
D14*
%TO.P,J3,2,Pin_2*%
%TO.N,GND*%
X8850000Y14750000D03*
%TD*%
D15*
%TO.P,J1,1,Pin_1*%
%TO.N,Net-(J1-Pad1)*%
X56750000Y7850000D03*
D16*
%TO.P,J1,2,Pin_2*%
%TO.N,Net-(J1-Pad2)*%
X59250000Y7850000D03*
%TD*%
D15*
%TO.P,J2,1,Pin_1*%
%TO.N,Net-(J2-Pad1)*%
X30750000Y7850000D03*
D16*
%TO.P,J2,2,Pin_2*%
%TO.N,Net-(J2-Pad2)*%
X33250000Y7850000D03*
%TD*%
D17*
%TO.N,GND*%
X71000000Y9000000D03*
X31000000Y20000000D03*
X5000000Y39000000D03*
X43000000Y1000000D03*
X21000000Y20000000D03*
X61000000Y20000000D03*
X71000000Y14000000D03*
X41000000Y20000000D03*
X53000000Y11000000D03*
X63000000Y46000000D03*
X18000000Y11000000D03*
X23000000Y6000000D03*
X28000000Y1000000D03*
X48000000Y41000000D03*
X56000000Y20000000D03*
X66000000Y14000000D03*
X66000000Y9000000D03*
X38000000Y1000000D03*
X58000000Y6000000D03*
X36000000Y20000000D03*
X48000000Y46000000D03*
X1000000Y19000000D03*
X38000000Y41000000D03*
X66000000Y34000000D03*
X26000000Y20000000D03*
X66000000Y24000000D03*
X71000000Y24000000D03*
X13000000Y1000000D03*
X43000000Y41000000D03*
X1000000Y14000000D03*
X23000000Y1000000D03*
X53000000Y1000000D03*
X63000000Y6000000D03*
X18000000Y16000000D03*
X1000000Y9000000D03*
X71000000Y19000000D03*
X6000000Y19000000D03*
X28000000Y11000000D03*
X58000000Y41000000D03*
X63000000Y1000000D03*
X23000000Y46000000D03*
X6000000Y14000000D03*
X46000000Y20000000D03*
X53000000Y46000000D03*
X38000000Y6000000D03*
X71000000Y29000000D03*
X18000000Y1000000D03*
X13000000Y6000000D03*
X66000000Y39000000D03*
X13000000Y41000000D03*
X48000000Y6000000D03*
X53000000Y41000000D03*
X66000000Y20000000D03*
X33000000Y41000000D03*
X28000000Y46000000D03*
X18000000Y6000000D03*
X23000000Y41000000D03*
X56000000Y28000000D03*
X8000000Y41000000D03*
X18000000Y46000000D03*
X53000000Y6000000D03*
X23000000Y11000000D03*
X18000000Y41000000D03*
X71000000Y39000000D03*
X28000000Y6000000D03*
X58000000Y46000000D03*
X43000000Y6000000D03*
X38000000Y11000000D03*
X63000000Y41000000D03*
X8000000Y46000000D03*
X71000000Y34000000D03*
X8000000Y1000000D03*
X38000000Y46000000D03*
X48000000Y11000000D03*
X43000000Y16000000D03*
X6000000Y9000000D03*
X43000000Y11000000D03*
X33000000Y46000000D03*
X28000000Y41000000D03*
X43000000Y46000000D03*
X1000000Y39000000D03*
X1000000Y29000000D03*
X51000000Y20000000D03*
X13000000Y46000000D03*
X1000000Y34000000D03*
X33000000Y6000000D03*
X48000000Y1000000D03*
X13000000Y11000000D03*
X33000000Y1000000D03*
X58000000Y1000000D03*
X61000000Y28000000D03*
X1000000Y24000000D03*
%TD*%
D18*
%TO.N,Net-(J1-Pad2)*%
X59250000Y7850000D02*
X59250000Y13550000D01*
X59250000Y13550000D02*
X63350000Y17650000D01*
%TO.N,Net-(J2-Pad2)*%
X33250000Y13550000D02*
X37350000Y17650000D01*
X33250000Y7850000D02*
X33250000Y13550000D01*
D19*
%TO.N,+5V*%
X8850000Y17250000D02*
X15250000Y17250000D01*
X15250000Y17250000D02*
X22000000Y24000000D01*
X37240000Y26240000D02*
X37240000Y30500000D01*
X35000000Y24000000D02*
X61000000Y24000000D01*
X63240000Y26240000D02*
X63240000Y30500000D01*
X22000000Y24000000D02*
X35000000Y24000000D01*
X35000000Y24000000D02*
X37240000Y26240000D01*
X61000000Y24000000D02*
X63240000Y26240000D01*
D18*
%TO.N,Net-(J5-Pad1)*%
X60000000Y39000000D02*
X60700000Y38300000D01*
X60700000Y38300000D02*
X60700000Y30500000D01*
%TO.N,Net-(J5-Pad2)*%
X57500000Y39000000D02*
X57500000Y31160000D01*
X57500000Y31160000D02*
X58160000Y30500000D01*
%TO.N,Net-(J5-Pad3)*%
X55000000Y31120000D02*
X55620000Y30500000D01*
X55000000Y39000000D02*
X55000000Y31120000D01*
%TO.N,Net-(J5-Pad4)*%
X52500000Y31080000D02*
X53080000Y30500000D01*
X52500000Y39000000D02*
X52500000Y31080000D01*
%TO.N,Net-(J6-Pad1)*%
X34700000Y38450000D02*
X34700000Y30500000D01*
X34000000Y39150000D02*
X34700000Y38450000D01*
%TO.N,Net-(J6-Pad2)*%
X31500000Y39150000D02*
X31500000Y31160000D01*
X31500000Y31160000D02*
X32160000Y30500000D01*
%TO.N,Net-(J6-Pad3)*%
X29000000Y31120000D02*
X29620000Y30500000D01*
X29000000Y39150000D02*
X29000000Y31120000D01*
%TO.N,Net-(J6-Pad4)*%
X26500000Y39150000D02*
X26500000Y31080000D01*
X26500000Y31080000D02*
X27080000Y30500000D01*
%TD*%
%TA.AperFunction,Conductor*%
%TO.N,GND*%
G36*
X64942121Y46471498D02*
G01*
X64988614Y46417842D01*
X65000000Y46365500D01*
X65000000Y40000000D01*
X71365500Y40000000D01*
X71433621Y39979998D01*
X71480114Y39926342D01*
X71491500Y39874000D01*
X71491500Y7126000D01*
X71471498Y7057879D01*
X71417842Y7011386D01*
X71365500Y7000000D01*
X65000000Y7000000D01*
X65000000Y634500D01*
X64979998Y566379D01*
X64926342Y519886D01*
X64874000Y508500D01*
X7126000Y508500D01*
X7057879Y528502D01*
X7011386Y582158D01*
X7000000Y634500D01*
X7000000Y7000000D01*
X634500Y7000000D01*
X566379Y7020002D01*
X519886Y7073658D01*
X508500Y7126000D01*
X508500Y14481420D01*
X7368752Y14481420D01*
X7393477Y14363579D01*
X7396537Y14353383D01*
X7477263Y14148971D01*
X7481994Y14139439D01*
X7596016Y13951538D01*
X7602280Y13942948D01*
X7746327Y13776948D01*
X7753958Y13769528D01*
X7923911Y13630174D01*
X7932678Y13624150D01*
X8123682Y13515424D01*
X8133346Y13510959D01*
X8339941Y13435969D01*
X8350208Y13433198D01*
X8567655Y13393877D01*
X8575884Y13392944D01*
X8580376Y13392732D01*
X8593124Y13396475D01*
X8594329Y13397865D01*
X8596000Y13405548D01*
X8596000Y13414030D01*
X9104000Y13414030D01*
X9108310Y13399352D01*
X9120193Y13397289D01*
X9224325Y13406124D01*
X9234797Y13407914D01*
X9447535Y13463130D01*
X9457575Y13466665D01*
X9657970Y13556937D01*
X9667256Y13562106D01*
X9849575Y13684850D01*
X9857870Y13691519D01*
X10016900Y13843228D01*
X10023941Y13851186D01*
X10155141Y14027525D01*
X10160745Y14036562D01*
X10260357Y14232484D01*
X10264357Y14242335D01*
X10329534Y14452240D01*
X10331817Y14462624D01*
X10333861Y14478043D01*
X10331665Y14492207D01*
X10318478Y14496000D01*
X9122115Y14496000D01*
X9106876Y14491525D01*
X9105671Y14490135D01*
X9104000Y14482452D01*
X9104000Y13414030D01*
X8596000Y13414030D01*
X8596000Y14477885D01*
X8591525Y14493124D01*
X8590135Y14494329D01*
X8582452Y14496000D01*
X7383808Y14496000D01*
X7370277Y14492027D01*
X7368752Y14481420D01*
X508500Y14481420D01*
X508500Y16599600D01*
X7341500Y16599600D01*
X7341837Y16596354D01*
X7341837Y16596350D01*
X7351288Y16505267D01*
X7352474Y16493834D01*
X7354655Y16487298D01*
X7354655Y16487296D01*
X7376001Y16423314D01*
X7408450Y16326054D01*
X7501522Y16175652D01*
X7626697Y16050695D01*
X7772258Y15960970D01*
X7772780Y15960648D01*
X7820273Y15907876D01*
X7831697Y15837804D01*
X7803423Y15772680D01*
X7793636Y15762218D01*
X7683094Y15656766D01*
X7676059Y15648814D01*
X7544859Y15472475D01*
X7539255Y15463438D01*
X7439643Y15267516D01*
X7435643Y15257665D01*
X7370466Y15047760D01*
X7368183Y15037376D01*
X7366139Y15021957D01*
X7368335Y15007793D01*
X7381522Y15004000D01*
X10316192Y15004000D01*
X10329723Y15007973D01*
X10331248Y15018580D01*
X10306523Y15136421D01*
X10303463Y15146617D01*
X10222737Y15351029D01*
X10218006Y15360561D01*
X10103984Y15548462D01*
X10097720Y15557052D01*
X9953673Y15723052D01*
X9946044Y15730470D01*
X9914431Y15756391D01*
X9874436Y15815051D01*
X9872504Y15886021D01*
X9909248Y15946770D01*
X9928018Y15960970D01*
X10068120Y16047668D01*
X10074348Y16051522D01*
X10199305Y16176697D01*
X10292115Y16327262D01*
X10314258Y16394022D01*
X10317955Y16405167D01*
X10358386Y16463527D01*
X10423950Y16490764D01*
X10437548Y16491500D01*
X15182930Y16491500D01*
X15201880Y16490067D01*
X15216115Y16487901D01*
X15216119Y16487901D01*
X15223349Y16486801D01*
X15230641Y16487394D01*
X15230644Y16487394D01*
X15276018Y16491085D01*
X15286233Y16491500D01*
X15294293Y16491500D01*
X15307583Y16493049D01*
X15322507Y16494789D01*
X15326882Y16495222D01*
X15392339Y16500546D01*
X15392342Y16500547D01*
X15399637Y16501140D01*
X15406601Y16503396D01*
X15412560Y16504587D01*
X15418415Y16505971D01*
X15425681Y16506818D01*
X15494327Y16531735D01*
X15498455Y16533152D01*
X15560936Y16553393D01*
X15560938Y16553394D01*
X15567899Y16555649D01*
X15574154Y16559445D01*
X15579628Y16561951D01*
X15585058Y16564670D01*
X15591937Y16567167D01*
X15652976Y16607186D01*
X15656680Y16609523D01*
X15719107Y16647405D01*
X15727484Y16654803D01*
X15727508Y16654776D01*
X15730500Y16657429D01*
X15733733Y16660132D01*
X15739852Y16664144D01*
X15793128Y16720383D01*
X15795506Y16722825D01*
X16722681Y17650000D01*
X20834647Y17650000D01*
X20854022Y17428537D01*
X20911560Y17213804D01*
X20913882Y17208823D01*
X20913883Y17208822D01*
X21003186Y17017311D01*
X21003189Y17017306D01*
X21005512Y17012324D01*
X21133023Y16830219D01*
X21290219Y16673023D01*
X21294727Y16669866D01*
X21294730Y16669864D01*
X21326805Y16647405D01*
X21472323Y16545512D01*
X21477305Y16543189D01*
X21477310Y16543186D01*
X21668822Y16453883D01*
X21673804Y16451560D01*
X21679112Y16450138D01*
X21679114Y16450137D01*
X21744949Y16432497D01*
X21888537Y16394022D01*
X22110000Y16374647D01*
X22331463Y16394022D01*
X22475051Y16432497D01*
X22540886Y16450137D01*
X22540888Y16450138D01*
X22546196Y16451560D01*
X22551178Y16453883D01*
X22742690Y16543186D01*
X22742695Y16543189D01*
X22747677Y16545512D01*
X22893195Y16647405D01*
X22925270Y16669864D01*
X22925273Y16669866D01*
X22929781Y16673023D01*
X23086977Y16830219D01*
X23214488Y17012324D01*
X23216811Y17017306D01*
X23216814Y17017311D01*
X23265805Y17122373D01*
X23312723Y17175658D01*
X23381000Y17195119D01*
X23448960Y17174577D01*
X23494195Y17122373D01*
X23543186Y17017311D01*
X23543189Y17017306D01*
X23545512Y17012324D01*
X23673023Y16830219D01*
X23830219Y16673023D01*
X23834727Y16669866D01*
X23834730Y16669864D01*
X23866805Y16647405D01*
X24012323Y16545512D01*
X24017305Y16543189D01*
X24017310Y16543186D01*
X24208822Y16453883D01*
X24213804Y16451560D01*
X24219112Y16450138D01*
X24219114Y16450137D01*
X24284949Y16432497D01*
X24428537Y16394022D01*
X24650000Y16374647D01*
X24871463Y16394022D01*
X25015051Y16432497D01*
X25080886Y16450137D01*
X25080888Y16450138D01*
X25086196Y16451560D01*
X25091178Y16453883D01*
X25282690Y16543186D01*
X25282695Y16543189D01*
X25287677Y16545512D01*
X25433195Y16647405D01*
X25465270Y16669864D01*
X25465273Y16669866D01*
X25469781Y16673023D01*
X25626977Y16830219D01*
X25754488Y17012324D01*
X25756811Y17017306D01*
X25756814Y17017311D01*
X25805805Y17122373D01*
X25852723Y17175658D01*
X25921000Y17195119D01*
X25988960Y17174577D01*
X26034195Y17122373D01*
X26083186Y17017311D01*
X26083189Y17017306D01*
X26085512Y17012324D01*
X26213023Y16830219D01*
X26370219Y16673023D01*
X26374727Y16669866D01*
X26374730Y16669864D01*
X26406805Y16647405D01*
X26552323Y16545512D01*
X26557305Y16543189D01*
X26557310Y16543186D01*
X26748822Y16453883D01*
X26753804Y16451560D01*
X26759112Y16450138D01*
X26759114Y16450137D01*
X26824949Y16432497D01*
X26968537Y16394022D01*
X27190000Y16374647D01*
X27411463Y16394022D01*
X27555051Y16432497D01*
X27620886Y16450137D01*
X27620888Y16450138D01*
X27626196Y16451560D01*
X27631178Y16453883D01*
X27822690Y16543186D01*
X27822695Y16543189D01*
X27827677Y16545512D01*
X27973195Y16647405D01*
X28005270Y16669864D01*
X28005273Y16669866D01*
X28009781Y16673023D01*
X28166977Y16830219D01*
X28294488Y17012324D01*
X28296811Y17017306D01*
X28296814Y17017311D01*
X28345805Y17122373D01*
X28392723Y17175658D01*
X28461000Y17195119D01*
X28528960Y17174577D01*
X28574195Y17122373D01*
X28623186Y17017311D01*
X28623189Y17017306D01*
X28625512Y17012324D01*
X28753023Y16830219D01*
X28910219Y16673023D01*
X28914727Y16669866D01*
X28914730Y16669864D01*
X28946805Y16647405D01*
X29092323Y16545512D01*
X29097305Y16543189D01*
X29097310Y16543186D01*
X29288822Y16453883D01*
X29293804Y16451560D01*
X29299112Y16450138D01*
X29299114Y16450137D01*
X29364949Y16432497D01*
X29508537Y16394022D01*
X29730000Y16374647D01*
X29951463Y16394022D01*
X30095051Y16432497D01*
X30160886Y16450137D01*
X30160888Y16450138D01*
X30166196Y16451560D01*
X30171178Y16453883D01*
X30362690Y16543186D01*
X30362695Y16543189D01*
X30367677Y16545512D01*
X30513195Y16647405D01*
X30545270Y16669864D01*
X30545273Y16669866D01*
X30549781Y16673023D01*
X30706977Y16830219D01*
X30834488Y17012324D01*
X30836811Y17017306D01*
X30836814Y17017311D01*
X30885805Y17122373D01*
X30932723Y17175658D01*
X31001000Y17195119D01*
X31068960Y17174577D01*
X31114195Y17122373D01*
X31163186Y17017311D01*
X31163189Y17017306D01*
X31165512Y17012324D01*
X31293023Y16830219D01*
X31450219Y16673023D01*
X31454727Y16669866D01*
X31454730Y16669864D01*
X31486805Y16647405D01*
X31632323Y16545512D01*
X31637305Y16543189D01*
X31637310Y16543186D01*
X31828822Y16453883D01*
X31833804Y16451560D01*
X31839112Y16450138D01*
X31839114Y16450137D01*
X31904949Y16432497D01*
X32048537Y16394022D01*
X32270000Y16374647D01*
X32491463Y16394022D01*
X32635051Y16432497D01*
X32700886Y16450137D01*
X32700888Y16450138D01*
X32706196Y16451560D01*
X32711178Y16453883D01*
X32902690Y16543186D01*
X32902695Y16543189D01*
X32907677Y16545512D01*
X33053195Y16647405D01*
X33085270Y16669864D01*
X33085273Y16669866D01*
X33089781Y16673023D01*
X33246977Y16830219D01*
X33374488Y17012324D01*
X33376811Y17017306D01*
X33376814Y17017311D01*
X33425805Y17122373D01*
X33472723Y17175658D01*
X33541000Y17195119D01*
X33608960Y17174577D01*
X33654195Y17122373D01*
X33703186Y17017311D01*
X33703189Y17017306D01*
X33705512Y17012324D01*
X33833023Y16830219D01*
X33990219Y16673023D01*
X33994727Y16669866D01*
X33994730Y16669864D01*
X34026805Y16647405D01*
X34172323Y16545512D01*
X34177305Y16543189D01*
X34177310Y16543186D01*
X34368822Y16453883D01*
X34373804Y16451560D01*
X34379112Y16450138D01*
X34379114Y16450137D01*
X34444949Y16432497D01*
X34588537Y16394022D01*
X34810000Y16374647D01*
X34815475Y16375126D01*
X34869233Y16379829D01*
X34938838Y16365839D01*
X34989830Y16316440D01*
X35006020Y16247314D01*
X34982267Y16180409D01*
X34969310Y16165214D01*
X33851855Y15047760D01*
X32857747Y14053652D01*
X32849461Y14046112D01*
X32842982Y14042000D01*
X32837557Y14036223D01*
X32796357Y13992349D01*
X32793602Y13989507D01*
X32773865Y13969770D01*
X32771385Y13966573D01*
X32763682Y13957553D01*
X32733414Y13925321D01*
X32729595Y13918375D01*
X32729593Y13918372D01*
X32723652Y13907566D01*
X32712801Y13891047D01*
X32700386Y13875041D01*
X32697241Y13867772D01*
X32697238Y13867768D01*
X32682826Y13834463D01*
X32677609Y13823813D01*
X32656305Y13785060D01*
X32654334Y13777385D01*
X32654334Y13777384D01*
X32651267Y13765438D01*
X32644863Y13746734D01*
X32636819Y13728145D01*
X32635580Y13720322D01*
X32635577Y13720312D01*
X32629901Y13684476D01*
X32627495Y13672856D01*
X32616500Y13630030D01*
X32616500Y13609776D01*
X32614949Y13590066D01*
X32611780Y13570057D01*
X32612526Y13562165D01*
X32615941Y13526039D01*
X32616500Y13514181D01*
X32616500Y9275596D01*
X32596498Y9207475D01*
X32555867Y9167878D01*
X32446683Y9101623D01*
X32442653Y9098126D01*
X32349484Y9017278D01*
X32272555Y8950523D01*
X32243330Y8914880D01*
X32184671Y8874886D01*
X32113701Y8872954D01*
X32052952Y8909698D01*
X32038752Y8928468D01*
X31952332Y9068120D01*
X31948478Y9074348D01*
X31823303Y9199305D01*
X31699537Y9275596D01*
X31678968Y9288275D01*
X31678966Y9288276D01*
X31672738Y9292115D01*
X31512254Y9345345D01*
X31511389Y9345632D01*
X31511387Y9345632D01*
X31504861Y9347797D01*
X31498025Y9348497D01*
X31498022Y9348498D01*
X31454969Y9352909D01*
X31400400Y9358500D01*
X30099600Y9358500D01*
X30096354Y9358163D01*
X30096350Y9358163D01*
X30000692Y9348238D01*
X30000688Y9348237D01*
X29993834Y9347526D01*
X29987298Y9345345D01*
X29987296Y9345345D01*
X29855194Y9301272D01*
X29826054Y9291550D01*
X29675652Y9198478D01*
X29550695Y9073303D01*
X29546855Y9067073D01*
X29546854Y9067072D01*
X29516161Y9017278D01*
X29457885Y8922738D01*
X29402203Y8754861D01*
X29391500Y8650400D01*
X29391500Y7049600D01*
X29402474Y6943834D01*
X29404655Y6937298D01*
X29404655Y6937296D01*
X29440033Y6831256D01*
X29458450Y6776054D01*
X29551522Y6625652D01*
X29676697Y6500695D01*
X29682927Y6496855D01*
X29682928Y6496854D01*
X29820090Y6412306D01*
X29827262Y6407885D01*
X29862938Y6396052D01*
X29988611Y6354368D01*
X29988613Y6354368D01*
X29995139Y6352203D01*
X30001975Y6351503D01*
X30001978Y6351502D01*
X30037663Y6347846D01*
X30099600Y6341500D01*
X31400400Y6341500D01*
X31403646Y6341837D01*
X31403650Y6341837D01*
X31499308Y6351762D01*
X31499312Y6351763D01*
X31506166Y6352474D01*
X31512702Y6354655D01*
X31512704Y6354655D01*
X31644806Y6398728D01*
X31673946Y6408450D01*
X31824348Y6501522D01*
X31949305Y6626697D01*
X32039081Y6772340D01*
X32091852Y6819832D01*
X32161924Y6831256D01*
X32227048Y6802982D01*
X32237510Y6793195D01*
X32279215Y6749477D01*
X32346576Y6678865D01*
X32531542Y6541246D01*
X32536293Y6538830D01*
X32536297Y6538828D01*
X32599481Y6506704D01*
X32737051Y6436760D01*
X32742145Y6435178D01*
X32742148Y6435177D01*
X32942020Y6373115D01*
X32957227Y6368393D01*
X32962516Y6367692D01*
X33180489Y6338802D01*
X33180494Y6338802D01*
X33185774Y6338102D01*
X33191103Y6338302D01*
X33191105Y6338302D01*
X33300966Y6342427D01*
X33416158Y6346751D01*
X33438802Y6351502D01*
X33636572Y6392998D01*
X33641791Y6394093D01*
X33646750Y6396051D01*
X33646752Y6396052D01*
X33851256Y6476815D01*
X33851258Y6476816D01*
X33856221Y6478776D01*
X33892343Y6500695D01*
X34048757Y6595610D01*
X34048756Y6595610D01*
X34053317Y6598377D01*
X34093134Y6632928D01*
X34223412Y6745977D01*
X34223414Y6745979D01*
X34227445Y6749477D01*
X34294500Y6831256D01*
X34370240Y6923627D01*
X34370244Y6923633D01*
X34373624Y6927755D01*
X34487675Y7128114D01*
X34566337Y7344825D01*
X34567287Y7350077D01*
X34606623Y7567608D01*
X34606624Y7567615D01*
X34607361Y7571692D01*
X34608500Y7595844D01*
X34608500Y8057890D01*
X34593920Y8229720D01*
X34592582Y8234875D01*
X34592581Y8234881D01*
X34537343Y8447703D01*
X34537342Y8447707D01*
X34536001Y8452872D01*
X34441312Y8663075D01*
X34312559Y8854319D01*
X34253918Y8915791D01*
X34241347Y8928968D01*
X34153424Y9021135D01*
X33968458Y9158754D01*
X33963706Y9161170D01*
X33963698Y9161175D01*
X33952394Y9166922D01*
X33900737Y9215625D01*
X33883500Y9279238D01*
X33883500Y13235406D01*
X33903502Y13303527D01*
X33920405Y13324501D01*
X36967778Y16371874D01*
X37030090Y16405900D01*
X37089484Y16404486D01*
X37112358Y16398357D01*
X37128537Y16394022D01*
X37350000Y16374647D01*
X37571463Y16394022D01*
X37715051Y16432497D01*
X37780886Y16450137D01*
X37780888Y16450138D01*
X37786196Y16451560D01*
X37791178Y16453883D01*
X37982690Y16543186D01*
X37982695Y16543189D01*
X37987677Y16545512D01*
X38133195Y16647405D01*
X38165270Y16669864D01*
X38165273Y16669866D01*
X38169781Y16673023D01*
X38326977Y16830219D01*
X38454488Y17012324D01*
X38456811Y17017306D01*
X38456814Y17017311D01*
X38505805Y17122373D01*
X38552723Y17175658D01*
X38621000Y17195119D01*
X38688960Y17174577D01*
X38734195Y17122373D01*
X38783186Y17017311D01*
X38783189Y17017306D01*
X38785512Y17012324D01*
X38913023Y16830219D01*
X39070219Y16673023D01*
X39074727Y16669866D01*
X39074730Y16669864D01*
X39106805Y16647405D01*
X39252323Y16545512D01*
X39257305Y16543189D01*
X39257310Y16543186D01*
X39448822Y16453883D01*
X39453804Y16451560D01*
X39459112Y16450138D01*
X39459114Y16450137D01*
X39524949Y16432497D01*
X39668537Y16394022D01*
X39890000Y16374647D01*
X40111463Y16394022D01*
X40255051Y16432497D01*
X40320886Y16450137D01*
X40320888Y16450138D01*
X40326196Y16451560D01*
X40331178Y16453883D01*
X40522690Y16543186D01*
X40522695Y16543189D01*
X40527677Y16545512D01*
X40673195Y16647405D01*
X40705270Y16669864D01*
X40705273Y16669866D01*
X40709781Y16673023D01*
X40866977Y16830219D01*
X40994488Y17012324D01*
X40996811Y17017306D01*
X40996814Y17017311D01*
X41086117Y17208822D01*
X41086118Y17208823D01*
X41088440Y17213804D01*
X41145978Y17428537D01*
X41165353Y17650000D01*
X46834647Y17650000D01*
X46854022Y17428537D01*
X46911560Y17213804D01*
X46913882Y17208823D01*
X46913883Y17208822D01*
X47003186Y17017311D01*
X47003189Y17017306D01*
X47005512Y17012324D01*
X47133023Y16830219D01*
X47290219Y16673023D01*
X47294727Y16669866D01*
X47294730Y16669864D01*
X47326805Y16647405D01*
X47472323Y16545512D01*
X47477305Y16543189D01*
X47477310Y16543186D01*
X47668822Y16453883D01*
X47673804Y16451560D01*
X47679112Y16450138D01*
X47679114Y16450137D01*
X47744949Y16432497D01*
X47888537Y16394022D01*
X48110000Y16374647D01*
X48331463Y16394022D01*
X48475051Y16432497D01*
X48540886Y16450137D01*
X48540888Y16450138D01*
X48546196Y16451560D01*
X48551178Y16453883D01*
X48742690Y16543186D01*
X48742695Y16543189D01*
X48747677Y16545512D01*
X48893195Y16647405D01*
X48925270Y16669864D01*
X48925273Y16669866D01*
X48929781Y16673023D01*
X49086977Y16830219D01*
X49214488Y17012324D01*
X49216811Y17017306D01*
X49216814Y17017311D01*
X49265805Y17122373D01*
X49312723Y17175658D01*
X49381000Y17195119D01*
X49448960Y17174577D01*
X49494195Y17122373D01*
X49543186Y17017311D01*
X49543189Y17017306D01*
X49545512Y17012324D01*
X49673023Y16830219D01*
X49830219Y16673023D01*
X49834727Y16669866D01*
X49834730Y16669864D01*
X49866805Y16647405D01*
X50012323Y16545512D01*
X50017305Y16543189D01*
X50017310Y16543186D01*
X50208822Y16453883D01*
X50213804Y16451560D01*
X50219112Y16450138D01*
X50219114Y16450137D01*
X50284949Y16432497D01*
X50428537Y16394022D01*
X50650000Y16374647D01*
X50871463Y16394022D01*
X51015051Y16432497D01*
X51080886Y16450137D01*
X51080888Y16450138D01*
X51086196Y16451560D01*
X51091178Y16453883D01*
X51282690Y16543186D01*
X51282695Y16543189D01*
X51287677Y16545512D01*
X51433195Y16647405D01*
X51465270Y16669864D01*
X51465273Y16669866D01*
X51469781Y16673023D01*
X51626977Y16830219D01*
X51754488Y17012324D01*
X51756811Y17017306D01*
X51756814Y17017311D01*
X51805805Y17122373D01*
X51852723Y17175658D01*
X51921000Y17195119D01*
X51988960Y17174577D01*
X52034195Y17122373D01*
X52083186Y17017311D01*
X52083189Y17017306D01*
X52085512Y17012324D01*
X52213023Y16830219D01*
X52370219Y16673023D01*
X52374727Y16669866D01*
X52374730Y16669864D01*
X52406805Y16647405D01*
X52552323Y16545512D01*
X52557305Y16543189D01*
X52557310Y16543186D01*
X52748822Y16453883D01*
X52753804Y16451560D01*
X52759112Y16450138D01*
X52759114Y16450137D01*
X52824949Y16432497D01*
X52968537Y16394022D01*
X53190000Y16374647D01*
X53411463Y16394022D01*
X53555051Y16432497D01*
X53620886Y16450137D01*
X53620888Y16450138D01*
X53626196Y16451560D01*
X53631178Y16453883D01*
X53822690Y16543186D01*
X53822695Y16543189D01*
X53827677Y16545512D01*
X53973195Y16647405D01*
X54005270Y16669864D01*
X54005273Y16669866D01*
X54009781Y16673023D01*
X54166977Y16830219D01*
X54294488Y17012324D01*
X54296811Y17017306D01*
X54296814Y17017311D01*
X54345805Y17122373D01*
X54392723Y17175658D01*
X54461000Y17195119D01*
X54528960Y17174577D01*
X54574195Y17122373D01*
X54623186Y17017311D01*
X54623189Y17017306D01*
X54625512Y17012324D01*
X54753023Y16830219D01*
X54910219Y16673023D01*
X54914727Y16669866D01*
X54914730Y16669864D01*
X54946805Y16647405D01*
X55092323Y16545512D01*
X55097305Y16543189D01*
X55097310Y16543186D01*
X55288822Y16453883D01*
X55293804Y16451560D01*
X55299112Y16450138D01*
X55299114Y16450137D01*
X55364949Y16432497D01*
X55508537Y16394022D01*
X55730000Y16374647D01*
X55951463Y16394022D01*
X56095051Y16432497D01*
X56160886Y16450137D01*
X56160888Y16450138D01*
X56166196Y16451560D01*
X56171178Y16453883D01*
X56362690Y16543186D01*
X56362695Y16543189D01*
X56367677Y16545512D01*
X56513195Y16647405D01*
X56545270Y16669864D01*
X56545273Y16669866D01*
X56549781Y16673023D01*
X56706977Y16830219D01*
X56834488Y17012324D01*
X56836811Y17017306D01*
X56836814Y17017311D01*
X56885805Y17122373D01*
X56932723Y17175658D01*
X57001000Y17195119D01*
X57068960Y17174577D01*
X57114195Y17122373D01*
X57163186Y17017311D01*
X57163189Y17017306D01*
X57165512Y17012324D01*
X57293023Y16830219D01*
X57450219Y16673023D01*
X57454727Y16669866D01*
X57454730Y16669864D01*
X57486805Y16647405D01*
X57632323Y16545512D01*
X57637305Y16543189D01*
X57637310Y16543186D01*
X57828822Y16453883D01*
X57833804Y16451560D01*
X57839112Y16450138D01*
X57839114Y16450137D01*
X57904949Y16432497D01*
X58048537Y16394022D01*
X58270000Y16374647D01*
X58491463Y16394022D01*
X58635051Y16432497D01*
X58700886Y16450137D01*
X58700888Y16450138D01*
X58706196Y16451560D01*
X58711178Y16453883D01*
X58902690Y16543186D01*
X58902695Y16543189D01*
X58907677Y16545512D01*
X59053195Y16647405D01*
X59085270Y16669864D01*
X59085273Y16669866D01*
X59089781Y16673023D01*
X59246977Y16830219D01*
X59374488Y17012324D01*
X59376811Y17017306D01*
X59376814Y17017311D01*
X59425805Y17122373D01*
X59472723Y17175658D01*
X59541000Y17195119D01*
X59608960Y17174577D01*
X59654195Y17122373D01*
X59703186Y17017311D01*
X59703189Y17017306D01*
X59705512Y17012324D01*
X59833023Y16830219D01*
X59990219Y16673023D01*
X59994727Y16669866D01*
X59994730Y16669864D01*
X60026805Y16647405D01*
X60172323Y16545512D01*
X60177305Y16543189D01*
X60177310Y16543186D01*
X60368822Y16453883D01*
X60373804Y16451560D01*
X60379112Y16450138D01*
X60379114Y16450137D01*
X60444949Y16432497D01*
X60588537Y16394022D01*
X60810000Y16374647D01*
X60815475Y16375126D01*
X60869233Y16379829D01*
X60938838Y16365839D01*
X60989830Y16316440D01*
X61006020Y16247314D01*
X60982267Y16180409D01*
X60969310Y16165214D01*
X59851855Y15047760D01*
X58857747Y14053652D01*
X58849461Y14046112D01*
X58842982Y14042000D01*
X58837557Y14036223D01*
X58796357Y13992349D01*
X58793602Y13989507D01*
X58773865Y13969770D01*
X58771385Y13966573D01*
X58763682Y13957553D01*
X58733414Y13925321D01*
X58729595Y13918375D01*
X58729593Y13918372D01*
X58723652Y13907566D01*
X58712801Y13891047D01*
X58700386Y13875041D01*
X58697241Y13867772D01*
X58697238Y13867768D01*
X58682826Y13834463D01*
X58677609Y13823813D01*
X58656305Y13785060D01*
X58654334Y13777385D01*
X58654334Y13777384D01*
X58651267Y13765438D01*
X58644863Y13746734D01*
X58636819Y13728145D01*
X58635580Y13720322D01*
X58635577Y13720312D01*
X58629901Y13684476D01*
X58627495Y13672856D01*
X58616500Y13630030D01*
X58616500Y13609776D01*
X58614949Y13590066D01*
X58611780Y13570057D01*
X58612526Y13562165D01*
X58615941Y13526039D01*
X58616500Y13514181D01*
X58616500Y9275596D01*
X58596498Y9207475D01*
X58555867Y9167878D01*
X58446683Y9101623D01*
X58442653Y9098126D01*
X58349484Y9017278D01*
X58272555Y8950523D01*
X58243330Y8914880D01*
X58184671Y8874886D01*
X58113701Y8872954D01*
X58052952Y8909698D01*
X58038752Y8928468D01*
X57952332Y9068120D01*
X57948478Y9074348D01*
X57823303Y9199305D01*
X57699537Y9275596D01*
X57678968Y9288275D01*
X57678966Y9288276D01*
X57672738Y9292115D01*
X57512254Y9345345D01*
X57511389Y9345632D01*
X57511387Y9345632D01*
X57504861Y9347797D01*
X57498025Y9348497D01*
X57498022Y9348498D01*
X57454969Y9352909D01*
X57400400Y9358500D01*
X56099600Y9358500D01*
X56096354Y9358163D01*
X56096350Y9358163D01*
X56000692Y9348238D01*
X56000688Y9348237D01*
X55993834Y9347526D01*
X55987298Y9345345D01*
X55987296Y9345345D01*
X55855194Y9301272D01*
X55826054Y9291550D01*
X55675652Y9198478D01*
X55550695Y9073303D01*
X55546855Y9067073D01*
X55546854Y9067072D01*
X55516161Y9017278D01*
X55457885Y8922738D01*
X55402203Y8754861D01*
X55391500Y8650400D01*
X55391500Y7049600D01*
X55402474Y6943834D01*
X55404655Y6937298D01*
X55404655Y6937296D01*
X55440033Y6831256D01*
X55458450Y6776054D01*
X55551522Y6625652D01*
X55676697Y6500695D01*
X55682927Y6496855D01*
X55682928Y6496854D01*
X55820090Y6412306D01*
X55827262Y6407885D01*
X55862938Y6396052D01*
X55988611Y6354368D01*
X55988613Y6354368D01*
X55995139Y6352203D01*
X56001975Y6351503D01*
X56001978Y6351502D01*
X56037663Y6347846D01*
X56099600Y6341500D01*
X57400400Y6341500D01*
X57403646Y6341837D01*
X57403650Y6341837D01*
X57499308Y6351762D01*
X57499312Y6351763D01*
X57506166Y6352474D01*
X57512702Y6354655D01*
X57512704Y6354655D01*
X57644806Y6398728D01*
X57673946Y6408450D01*
X57824348Y6501522D01*
X57949305Y6626697D01*
X58039081Y6772340D01*
X58091852Y6819832D01*
X58161924Y6831256D01*
X58227048Y6802982D01*
X58237510Y6793195D01*
X58279215Y6749477D01*
X58346576Y6678865D01*
X58531542Y6541246D01*
X58536293Y6538830D01*
X58536297Y6538828D01*
X58599481Y6506704D01*
X58737051Y6436760D01*
X58742145Y6435178D01*
X58742148Y6435177D01*
X58942020Y6373115D01*
X58957227Y6368393D01*
X58962516Y6367692D01*
X59180489Y6338802D01*
X59180494Y6338802D01*
X59185774Y6338102D01*
X59191103Y6338302D01*
X59191105Y6338302D01*
X59300966Y6342427D01*
X59416158Y6346751D01*
X59438802Y6351502D01*
X59636572Y6392998D01*
X59641791Y6394093D01*
X59646750Y6396051D01*
X59646752Y6396052D01*
X59851256Y6476815D01*
X59851258Y6476816D01*
X59856221Y6478776D01*
X59892343Y6500695D01*
X60048757Y6595610D01*
X60048756Y6595610D01*
X60053317Y6598377D01*
X60093134Y6632928D01*
X60223412Y6745977D01*
X60223414Y6745979D01*
X60227445Y6749477D01*
X60294500Y6831256D01*
X60370240Y6923627D01*
X60370244Y6923633D01*
X60373624Y6927755D01*
X60487675Y7128114D01*
X60566337Y7344825D01*
X60567287Y7350077D01*
X60606623Y7567608D01*
X60606624Y7567615D01*
X60607361Y7571692D01*
X60608500Y7595844D01*
X60608500Y8057890D01*
X60593920Y8229720D01*
X60592582Y8234875D01*
X60592581Y8234881D01*
X60537343Y8447703D01*
X60537342Y8447707D01*
X60536001Y8452872D01*
X60441312Y8663075D01*
X60312559Y8854319D01*
X60253918Y8915791D01*
X60241347Y8928968D01*
X60153424Y9021135D01*
X59968458Y9158754D01*
X59963706Y9161170D01*
X59963698Y9161175D01*
X59952394Y9166922D01*
X59900737Y9215625D01*
X59883500Y9279238D01*
X59883500Y13235406D01*
X59903502Y13303527D01*
X59920405Y13324501D01*
X62967778Y16371874D01*
X63030090Y16405900D01*
X63089484Y16404486D01*
X63112358Y16398357D01*
X63128537Y16394022D01*
X63350000Y16374647D01*
X63571463Y16394022D01*
X63715051Y16432497D01*
X63780886Y16450137D01*
X63780888Y16450138D01*
X63786196Y16451560D01*
X63791178Y16453883D01*
X63982690Y16543186D01*
X63982695Y16543189D01*
X63987677Y16545512D01*
X64133195Y16647405D01*
X64165270Y16669864D01*
X64165273Y16669866D01*
X64169781Y16673023D01*
X64326977Y16830219D01*
X64454488Y17012324D01*
X64456811Y17017306D01*
X64456814Y17017311D01*
X64505805Y17122373D01*
X64552723Y17175658D01*
X64621000Y17195119D01*
X64688960Y17174577D01*
X64734195Y17122373D01*
X64783186Y17017311D01*
X64783189Y17017306D01*
X64785512Y17012324D01*
X64913023Y16830219D01*
X65070219Y16673023D01*
X65074727Y16669866D01*
X65074730Y16669864D01*
X65106805Y16647405D01*
X65252323Y16545512D01*
X65257305Y16543189D01*
X65257310Y16543186D01*
X65448822Y16453883D01*
X65453804Y16451560D01*
X65459112Y16450138D01*
X65459114Y16450137D01*
X65524949Y16432497D01*
X65668537Y16394022D01*
X65890000Y16374647D01*
X66111463Y16394022D01*
X66255051Y16432497D01*
X66320886Y16450137D01*
X66320888Y16450138D01*
X66326196Y16451560D01*
X66331178Y16453883D01*
X66522690Y16543186D01*
X66522695Y16543189D01*
X66527677Y16545512D01*
X66673195Y16647405D01*
X66705270Y16669864D01*
X66705273Y16669866D01*
X66709781Y16673023D01*
X66866977Y16830219D01*
X66994488Y17012324D01*
X66996811Y17017306D01*
X66996814Y17017311D01*
X67086117Y17208822D01*
X67086118Y17208823D01*
X67088440Y17213804D01*
X67145978Y17428537D01*
X67165353Y17650000D01*
X67145978Y17871463D01*
X67088440Y18086196D01*
X67051324Y18165791D01*
X66996814Y18282689D01*
X66996811Y18282694D01*
X66994488Y18287676D01*
X66885522Y18443296D01*
X66870136Y18465270D01*
X66870134Y18465273D01*
X66866977Y18469781D01*
X66709781Y18626977D01*
X66705273Y18630134D01*
X66705270Y18630136D01*
X66629505Y18683187D01*
X66527677Y18754488D01*
X66522695Y18756811D01*
X66522690Y18756814D01*
X66331178Y18846117D01*
X66331177Y18846118D01*
X66326196Y18848440D01*
X66320888Y18849862D01*
X66320886Y18849863D01*
X66255051Y18867503D01*
X66111463Y18905978D01*
X65890000Y18925353D01*
X65668537Y18905978D01*
X65524949Y18867503D01*
X65459114Y18849863D01*
X65459112Y18849862D01*
X65453804Y18848440D01*
X65448823Y18846118D01*
X65448822Y18846117D01*
X65257311Y18756814D01*
X65257306Y18756811D01*
X65252324Y18754488D01*
X65247817Y18751332D01*
X65247815Y18751331D01*
X65074730Y18630136D01*
X65074727Y18630134D01*
X65070219Y18626977D01*
X64913023Y18469781D01*
X64909866Y18465273D01*
X64909864Y18465270D01*
X64894478Y18443296D01*
X64785512Y18287676D01*
X64783189Y18282694D01*
X64783186Y18282689D01*
X64734195Y18177627D01*
X64687277Y18124342D01*
X64619000Y18104881D01*
X64551040Y18125423D01*
X64505805Y18177627D01*
X64456814Y18282689D01*
X64456811Y18282694D01*
X64454488Y18287676D01*
X64345522Y18443296D01*
X64330136Y18465270D01*
X64330134Y18465273D01*
X64326977Y18469781D01*
X64169781Y18626977D01*
X64165273Y18630134D01*
X64165270Y18630136D01*
X64089505Y18683187D01*
X63987677Y18754488D01*
X63982695Y18756811D01*
X63982690Y18756814D01*
X63791178Y18846117D01*
X63791177Y18846118D01*
X63786196Y18848440D01*
X63780888Y18849862D01*
X63780886Y18849863D01*
X63715051Y18867503D01*
X63571463Y18905978D01*
X63350000Y18925353D01*
X63128537Y18905978D01*
X62984949Y18867503D01*
X62919114Y18849863D01*
X62919112Y18849862D01*
X62913804Y18848440D01*
X62908823Y18846118D01*
X62908822Y18846117D01*
X62717311Y18756814D01*
X62717306Y18756811D01*
X62712324Y18754488D01*
X62707817Y18751332D01*
X62707815Y18751331D01*
X62534730Y18630136D01*
X62534727Y18630134D01*
X62530219Y18626977D01*
X62373023Y18469781D01*
X62369866Y18465273D01*
X62369864Y18465270D01*
X62354478Y18443296D01*
X62245512Y18287676D01*
X62243189Y18282694D01*
X62243186Y18282689D01*
X62194195Y18177627D01*
X62147277Y18124342D01*
X62079000Y18104881D01*
X62011040Y18125423D01*
X61965805Y18177627D01*
X61916814Y18282689D01*
X61916811Y18282694D01*
X61914488Y18287676D01*
X61805522Y18443296D01*
X61790136Y18465270D01*
X61790134Y18465273D01*
X61786977Y18469781D01*
X61629781Y18626977D01*
X61625273Y18630134D01*
X61625270Y18630136D01*
X61549505Y18683187D01*
X61447677Y18754488D01*
X61442695Y18756811D01*
X61442690Y18756814D01*
X61251178Y18846117D01*
X61251177Y18846118D01*
X61246196Y18848440D01*
X61240888Y18849862D01*
X61240886Y18849863D01*
X61175051Y18867503D01*
X61031463Y18905978D01*
X60810000Y18925353D01*
X60588537Y18905978D01*
X60444949Y18867503D01*
X60379114Y18849863D01*
X60379112Y18849862D01*
X60373804Y18848440D01*
X60368823Y18846118D01*
X60368822Y18846117D01*
X60177311Y18756814D01*
X60177306Y18756811D01*
X60172324Y18754488D01*
X60167817Y18751332D01*
X60167815Y18751331D01*
X59994730Y18630136D01*
X59994727Y18630134D01*
X59990219Y18626977D01*
X59833023Y18469781D01*
X59829866Y18465273D01*
X59829864Y18465270D01*
X59814478Y18443296D01*
X59705512Y18287676D01*
X59703189Y18282694D01*
X59703186Y18282689D01*
X59654195Y18177627D01*
X59607277Y18124342D01*
X59539000Y18104881D01*
X59471040Y18125423D01*
X59425805Y18177627D01*
X59376814Y18282689D01*
X59376811Y18282694D01*
X59374488Y18287676D01*
X59265522Y18443296D01*
X59250136Y18465270D01*
X59250134Y18465273D01*
X59246977Y18469781D01*
X59089781Y18626977D01*
X59085273Y18630134D01*
X59085270Y18630136D01*
X59009505Y18683187D01*
X58907677Y18754488D01*
X58902695Y18756811D01*
X58902690Y18756814D01*
X58711178Y18846117D01*
X58711177Y18846118D01*
X58706196Y18848440D01*
X58700888Y18849862D01*
X58700886Y18849863D01*
X58635051Y18867503D01*
X58491463Y18905978D01*
X58270000Y18925353D01*
X58048537Y18905978D01*
X57904949Y18867503D01*
X57839114Y18849863D01*
X57839112Y18849862D01*
X57833804Y18848440D01*
X57828823Y18846118D01*
X57828822Y18846117D01*
X57637311Y18756814D01*
X57637306Y18756811D01*
X57632324Y18754488D01*
X57627817Y18751332D01*
X57627815Y18751331D01*
X57454730Y18630136D01*
X57454727Y18630134D01*
X57450219Y18626977D01*
X57293023Y18469781D01*
X57289866Y18465273D01*
X57289864Y18465270D01*
X57274478Y18443296D01*
X57165512Y18287676D01*
X57163189Y18282694D01*
X57163186Y18282689D01*
X57114195Y18177627D01*
X57067277Y18124342D01*
X56999000Y18104881D01*
X56931040Y18125423D01*
X56885805Y18177627D01*
X56836814Y18282689D01*
X56836811Y18282694D01*
X56834488Y18287676D01*
X56725522Y18443296D01*
X56710136Y18465270D01*
X56710134Y18465273D01*
X56706977Y18469781D01*
X56549781Y18626977D01*
X56545273Y18630134D01*
X56545270Y18630136D01*
X56469505Y18683187D01*
X56367677Y18754488D01*
X56362695Y18756811D01*
X56362690Y18756814D01*
X56171178Y18846117D01*
X56171177Y18846118D01*
X56166196Y18848440D01*
X56160888Y18849862D01*
X56160886Y18849863D01*
X56095051Y18867503D01*
X55951463Y18905978D01*
X55730000Y18925353D01*
X55508537Y18905978D01*
X55364949Y18867503D01*
X55299114Y18849863D01*
X55299112Y18849862D01*
X55293804Y18848440D01*
X55288823Y18846118D01*
X55288822Y18846117D01*
X55097311Y18756814D01*
X55097306Y18756811D01*
X55092324Y18754488D01*
X55087817Y18751332D01*
X55087815Y18751331D01*
X54914730Y18630136D01*
X54914727Y18630134D01*
X54910219Y18626977D01*
X54753023Y18469781D01*
X54749866Y18465273D01*
X54749864Y18465270D01*
X54734478Y18443296D01*
X54625512Y18287676D01*
X54623189Y18282694D01*
X54623186Y18282689D01*
X54574195Y18177627D01*
X54527277Y18124342D01*
X54459000Y18104881D01*
X54391040Y18125423D01*
X54345805Y18177627D01*
X54296814Y18282689D01*
X54296811Y18282694D01*
X54294488Y18287676D01*
X54185522Y18443296D01*
X54170136Y18465270D01*
X54170134Y18465273D01*
X54166977Y18469781D01*
X54009781Y18626977D01*
X54005273Y18630134D01*
X54005270Y18630136D01*
X53929505Y18683187D01*
X53827677Y18754488D01*
X53822695Y18756811D01*
X53822690Y18756814D01*
X53631178Y18846117D01*
X53631177Y18846118D01*
X53626196Y18848440D01*
X53620888Y18849862D01*
X53620886Y18849863D01*
X53555051Y18867503D01*
X53411463Y18905978D01*
X53190000Y18925353D01*
X52968537Y18905978D01*
X52824949Y18867503D01*
X52759114Y18849863D01*
X52759112Y18849862D01*
X52753804Y18848440D01*
X52748823Y18846118D01*
X52748822Y18846117D01*
X52557311Y18756814D01*
X52557306Y18756811D01*
X52552324Y18754488D01*
X52547817Y18751332D01*
X52547815Y18751331D01*
X52374730Y18630136D01*
X52374727Y18630134D01*
X52370219Y18626977D01*
X52213023Y18469781D01*
X52209866Y18465273D01*
X52209864Y18465270D01*
X52194478Y18443296D01*
X52085512Y18287676D01*
X52083189Y18282694D01*
X52083186Y18282689D01*
X52034195Y18177627D01*
X51987277Y18124342D01*
X51919000Y18104881D01*
X51851040Y18125423D01*
X51805805Y18177627D01*
X51756814Y18282689D01*
X51756811Y18282694D01*
X51754488Y18287676D01*
X51645522Y18443296D01*
X51630136Y18465270D01*
X51630134Y18465273D01*
X51626977Y18469781D01*
X51469781Y18626977D01*
X51465273Y18630134D01*
X51465270Y18630136D01*
X51389505Y18683187D01*
X51287677Y18754488D01*
X51282695Y18756811D01*
X51282690Y18756814D01*
X51091178Y18846117D01*
X51091177Y18846118D01*
X51086196Y18848440D01*
X51080888Y18849862D01*
X51080886Y18849863D01*
X51015051Y18867503D01*
X50871463Y18905978D01*
X50650000Y18925353D01*
X50428537Y18905978D01*
X50284949Y18867503D01*
X50219114Y18849863D01*
X50219112Y18849862D01*
X50213804Y18848440D01*
X50208823Y18846118D01*
X50208822Y18846117D01*
X50017311Y18756814D01*
X50017306Y18756811D01*
X50012324Y18754488D01*
X50007817Y18751332D01*
X50007815Y18751331D01*
X49834730Y18630136D01*
X49834727Y18630134D01*
X49830219Y18626977D01*
X49673023Y18469781D01*
X49669866Y18465273D01*
X49669864Y18465270D01*
X49654478Y18443296D01*
X49545512Y18287676D01*
X49543189Y18282694D01*
X49543186Y18282689D01*
X49494195Y18177627D01*
X49447277Y18124342D01*
X49379000Y18104881D01*
X49311040Y18125423D01*
X49265805Y18177627D01*
X49216814Y18282689D01*
X49216811Y18282694D01*
X49214488Y18287676D01*
X49105522Y18443296D01*
X49090136Y18465270D01*
X49090134Y18465273D01*
X49086977Y18469781D01*
X48929781Y18626977D01*
X48925273Y18630134D01*
X48925270Y18630136D01*
X48849505Y18683187D01*
X48747677Y18754488D01*
X48742695Y18756811D01*
X48742690Y18756814D01*
X48551178Y18846117D01*
X48551177Y18846118D01*
X48546196Y18848440D01*
X48540888Y18849862D01*
X48540886Y18849863D01*
X48475051Y18867503D01*
X48331463Y18905978D01*
X48110000Y18925353D01*
X47888537Y18905978D01*
X47744949Y18867503D01*
X47679114Y18849863D01*
X47679112Y18849862D01*
X47673804Y18848440D01*
X47668823Y18846118D01*
X47668822Y18846117D01*
X47477311Y18756814D01*
X47477306Y18756811D01*
X47472324Y18754488D01*
X47467817Y18751332D01*
X47467815Y18751331D01*
X47294730Y18630136D01*
X47294727Y18630134D01*
X47290219Y18626977D01*
X47133023Y18469781D01*
X47129866Y18465273D01*
X47129864Y18465270D01*
X47114478Y18443296D01*
X47005512Y18287676D01*
X47003189Y18282694D01*
X47003186Y18282689D01*
X46948676Y18165791D01*
X46911560Y18086196D01*
X46854022Y17871463D01*
X46834647Y17650000D01*
X41165353Y17650000D01*
X41145978Y17871463D01*
X41088440Y18086196D01*
X41051324Y18165791D01*
X40996814Y18282689D01*
X40996811Y18282694D01*
X40994488Y18287676D01*
X40885522Y18443296D01*
X40870136Y18465270D01*
X40870134Y18465273D01*
X40866977Y18469781D01*
X40709781Y18626977D01*
X40705273Y18630134D01*
X40705270Y18630136D01*
X40629505Y18683187D01*
X40527677Y18754488D01*
X40522695Y18756811D01*
X40522690Y18756814D01*
X40331178Y18846117D01*
X40331177Y18846118D01*
X40326196Y18848440D01*
X40320888Y18849862D01*
X40320886Y18849863D01*
X40255051Y18867503D01*
X40111463Y18905978D01*
X39890000Y18925353D01*
X39668537Y18905978D01*
X39524949Y18867503D01*
X39459114Y18849863D01*
X39459112Y18849862D01*
X39453804Y18848440D01*
X39448823Y18846118D01*
X39448822Y18846117D01*
X39257311Y18756814D01*
X39257306Y18756811D01*
X39252324Y18754488D01*
X39247817Y18751332D01*
X39247815Y18751331D01*
X39074730Y18630136D01*
X39074727Y18630134D01*
X39070219Y18626977D01*
X38913023Y18469781D01*
X38909866Y18465273D01*
X38909864Y18465270D01*
X38894478Y18443296D01*
X38785512Y18287676D01*
X38783189Y18282694D01*
X38783186Y18282689D01*
X38734195Y18177627D01*
X38687277Y18124342D01*
X38619000Y18104881D01*
X38551040Y18125423D01*
X38505805Y18177627D01*
X38456814Y18282689D01*
X38456811Y18282694D01*
X38454488Y18287676D01*
X38345522Y18443296D01*
X38330136Y18465270D01*
X38330134Y18465273D01*
X38326977Y18469781D01*
X38169781Y18626977D01*
X38165273Y18630134D01*
X38165270Y18630136D01*
X38089505Y18683187D01*
X37987677Y18754488D01*
X37982695Y18756811D01*
X37982690Y18756814D01*
X37791178Y18846117D01*
X37791177Y18846118D01*
X37786196Y18848440D01*
X37780888Y18849862D01*
X37780886Y18849863D01*
X37715051Y18867503D01*
X37571463Y18905978D01*
X37350000Y18925353D01*
X37128537Y18905978D01*
X36984949Y18867503D01*
X36919114Y18849863D01*
X36919112Y18849862D01*
X36913804Y18848440D01*
X36908823Y18846118D01*
X36908822Y18846117D01*
X36717311Y18756814D01*
X36717306Y18756811D01*
X36712324Y18754488D01*
X36707817Y18751332D01*
X36707815Y18751331D01*
X36534730Y18630136D01*
X36534727Y18630134D01*
X36530219Y18626977D01*
X36373023Y18469781D01*
X36369866Y18465273D01*
X36369864Y18465270D01*
X36354478Y18443296D01*
X36245512Y18287676D01*
X36243189Y18282694D01*
X36243186Y18282689D01*
X36194195Y18177627D01*
X36147277Y18124342D01*
X36079000Y18104881D01*
X36011040Y18125423D01*
X35965805Y18177627D01*
X35916814Y18282689D01*
X35916811Y18282694D01*
X35914488Y18287676D01*
X35805522Y18443296D01*
X35790136Y18465270D01*
X35790134Y18465273D01*
X35786977Y18469781D01*
X35629781Y18626977D01*
X35625273Y18630134D01*
X35625270Y18630136D01*
X35549505Y18683187D01*
X35447677Y18754488D01*
X35442695Y18756811D01*
X35442690Y18756814D01*
X35251178Y18846117D01*
X35251177Y18846118D01*
X35246196Y18848440D01*
X35240888Y18849862D01*
X35240886Y18849863D01*
X35175051Y18867503D01*
X35031463Y18905978D01*
X34810000Y18925353D01*
X34588537Y18905978D01*
X34444949Y18867503D01*
X34379114Y18849863D01*
X34379112Y18849862D01*
X34373804Y18848440D01*
X34368823Y18846118D01*
X34368822Y18846117D01*
X34177311Y18756814D01*
X34177306Y18756811D01*
X34172324Y18754488D01*
X34167817Y18751332D01*
X34167815Y18751331D01*
X33994730Y18630136D01*
X33994727Y18630134D01*
X33990219Y18626977D01*
X33833023Y18469781D01*
X33829866Y18465273D01*
X33829864Y18465270D01*
X33814478Y18443296D01*
X33705512Y18287676D01*
X33703189Y18282694D01*
X33703186Y18282689D01*
X33654195Y18177627D01*
X33607277Y18124342D01*
X33539000Y18104881D01*
X33471040Y18125423D01*
X33425805Y18177627D01*
X33376814Y18282689D01*
X33376811Y18282694D01*
X33374488Y18287676D01*
X33265522Y18443296D01*
X33250136Y18465270D01*
X33250134Y18465273D01*
X33246977Y18469781D01*
X33089781Y18626977D01*
X33085273Y18630134D01*
X33085270Y18630136D01*
X33009505Y18683187D01*
X32907677Y18754488D01*
X32902695Y18756811D01*
X32902690Y18756814D01*
X32711178Y18846117D01*
X32711177Y18846118D01*
X32706196Y18848440D01*
X32700888Y18849862D01*
X32700886Y18849863D01*
X32635051Y18867503D01*
X32491463Y18905978D01*
X32270000Y18925353D01*
X32048537Y18905978D01*
X31904949Y18867503D01*
X31839114Y18849863D01*
X31839112Y18849862D01*
X31833804Y18848440D01*
X31828823Y18846118D01*
X31828822Y18846117D01*
X31637311Y18756814D01*
X31637306Y18756811D01*
X31632324Y18754488D01*
X31627817Y18751332D01*
X31627815Y18751331D01*
X31454730Y18630136D01*
X31454727Y18630134D01*
X31450219Y18626977D01*
X31293023Y18469781D01*
X31289866Y18465273D01*
X31289864Y18465270D01*
X31274478Y18443296D01*
X31165512Y18287676D01*
X31163189Y18282694D01*
X31163186Y18282689D01*
X31114195Y18177627D01*
X31067277Y18124342D01*
X30999000Y18104881D01*
X30931040Y18125423D01*
X30885805Y18177627D01*
X30836814Y18282689D01*
X30836811Y18282694D01*
X30834488Y18287676D01*
X30725522Y18443296D01*
X30710136Y18465270D01*
X30710134Y18465273D01*
X30706977Y18469781D01*
X30549781Y18626977D01*
X30545273Y18630134D01*
X30545270Y18630136D01*
X30469505Y18683187D01*
X30367677Y18754488D01*
X30362695Y18756811D01*
X30362690Y18756814D01*
X30171178Y18846117D01*
X30171177Y18846118D01*
X30166196Y18848440D01*
X30160888Y18849862D01*
X30160886Y18849863D01*
X30095051Y18867503D01*
X29951463Y18905978D01*
X29730000Y18925353D01*
X29508537Y18905978D01*
X29364949Y18867503D01*
X29299114Y18849863D01*
X29299112Y18849862D01*
X29293804Y18848440D01*
X29288823Y18846118D01*
X29288822Y18846117D01*
X29097311Y18756814D01*
X29097306Y18756811D01*
X29092324Y18754488D01*
X29087817Y18751332D01*
X29087815Y18751331D01*
X28914730Y18630136D01*
X28914727Y18630134D01*
X28910219Y18626977D01*
X28753023Y18469781D01*
X28749866Y18465273D01*
X28749864Y18465270D01*
X28734478Y18443296D01*
X28625512Y18287676D01*
X28623189Y18282694D01*
X28623186Y18282689D01*
X28574195Y18177627D01*
X28527277Y18124342D01*
X28459000Y18104881D01*
X28391040Y18125423D01*
X28345805Y18177627D01*
X28296814Y18282689D01*
X28296811Y18282694D01*
X28294488Y18287676D01*
X28185522Y18443296D01*
X28170136Y18465270D01*
X28170134Y18465273D01*
X28166977Y18469781D01*
X28009781Y18626977D01*
X28005273Y18630134D01*
X28005270Y18630136D01*
X27929505Y18683187D01*
X27827677Y18754488D01*
X27822695Y18756811D01*
X27822690Y18756814D01*
X27631178Y18846117D01*
X27631177Y18846118D01*
X27626196Y18848440D01*
X27620888Y18849862D01*
X27620886Y18849863D01*
X27555051Y18867503D01*
X27411463Y18905978D01*
X27190000Y18925353D01*
X26968537Y18905978D01*
X26824949Y18867503D01*
X26759114Y18849863D01*
X26759112Y18849862D01*
X26753804Y18848440D01*
X26748823Y18846118D01*
X26748822Y18846117D01*
X26557311Y18756814D01*
X26557306Y18756811D01*
X26552324Y18754488D01*
X26547817Y18751332D01*
X26547815Y18751331D01*
X26374730Y18630136D01*
X26374727Y18630134D01*
X26370219Y18626977D01*
X26213023Y18469781D01*
X26209866Y18465273D01*
X26209864Y18465270D01*
X26194478Y18443296D01*
X26085512Y18287676D01*
X26083189Y18282694D01*
X26083186Y18282689D01*
X26034195Y18177627D01*
X25987277Y18124342D01*
X25919000Y18104881D01*
X25851040Y18125423D01*
X25805805Y18177627D01*
X25756814Y18282689D01*
X25756811Y18282694D01*
X25754488Y18287676D01*
X25645522Y18443296D01*
X25630136Y18465270D01*
X25630134Y18465273D01*
X25626977Y18469781D01*
X25469781Y18626977D01*
X25465273Y18630134D01*
X25465270Y18630136D01*
X25389505Y18683187D01*
X25287677Y18754488D01*
X25282695Y18756811D01*
X25282690Y18756814D01*
X25091178Y18846117D01*
X25091177Y18846118D01*
X25086196Y18848440D01*
X25080888Y18849862D01*
X25080886Y18849863D01*
X25015051Y18867503D01*
X24871463Y18905978D01*
X24650000Y18925353D01*
X24428537Y18905978D01*
X24284949Y18867503D01*
X24219114Y18849863D01*
X24219112Y18849862D01*
X24213804Y18848440D01*
X24208823Y18846118D01*
X24208822Y18846117D01*
X24017311Y18756814D01*
X24017306Y18756811D01*
X24012324Y18754488D01*
X24007817Y18751332D01*
X24007815Y18751331D01*
X23834730Y18630136D01*
X23834727Y18630134D01*
X23830219Y18626977D01*
X23673023Y18469781D01*
X23669866Y18465273D01*
X23669864Y18465270D01*
X23654478Y18443296D01*
X23545512Y18287676D01*
X23543189Y18282694D01*
X23543186Y18282689D01*
X23494195Y18177627D01*
X23447277Y18124342D01*
X23379000Y18104881D01*
X23311040Y18125423D01*
X23265805Y18177627D01*
X23216814Y18282689D01*
X23216811Y18282694D01*
X23214488Y18287676D01*
X23105522Y18443296D01*
X23090136Y18465270D01*
X23090134Y18465273D01*
X23086977Y18469781D01*
X22929781Y18626977D01*
X22925273Y18630134D01*
X22925270Y18630136D01*
X22849505Y18683187D01*
X22747677Y18754488D01*
X22742695Y18756811D01*
X22742690Y18756814D01*
X22551178Y18846117D01*
X22551177Y18846118D01*
X22546196Y18848440D01*
X22540888Y18849862D01*
X22540886Y18849863D01*
X22475051Y18867503D01*
X22331463Y18905978D01*
X22110000Y18925353D01*
X21888537Y18905978D01*
X21744949Y18867503D01*
X21679114Y18849863D01*
X21679112Y18849862D01*
X21673804Y18848440D01*
X21668823Y18846118D01*
X21668822Y18846117D01*
X21477311Y18756814D01*
X21477306Y18756811D01*
X21472324Y18754488D01*
X21467817Y18751332D01*
X21467815Y18751331D01*
X21294730Y18630136D01*
X21294727Y18630134D01*
X21290219Y18626977D01*
X21133023Y18469781D01*
X21129866Y18465273D01*
X21129864Y18465270D01*
X21114478Y18443296D01*
X21005512Y18287676D01*
X21003189Y18282694D01*
X21003186Y18282689D01*
X20948676Y18165791D01*
X20911560Y18086196D01*
X20854022Y17871463D01*
X20834647Y17650000D01*
X16722681Y17650000D01*
X22277276Y23204595D01*
X22339588Y23238621D01*
X22366371Y23241500D01*
X34932930Y23241500D01*
X34951880Y23240067D01*
X34966115Y23237901D01*
X34966119Y23237901D01*
X34973349Y23236801D01*
X34980641Y23237394D01*
X34980644Y23237394D01*
X35026018Y23241085D01*
X35036233Y23241500D01*
X60932930Y23241500D01*
X60951880Y23240067D01*
X60966115Y23237901D01*
X60966119Y23237901D01*
X60973349Y23236801D01*
X60980641Y23237394D01*
X60980644Y23237394D01*
X61026018Y23241085D01*
X61036233Y23241500D01*
X61044293Y23241500D01*
X61057583Y23243049D01*
X61072507Y23244789D01*
X61076882Y23245222D01*
X61142339Y23250546D01*
X61142342Y23250547D01*
X61149637Y23251140D01*
X61156601Y23253396D01*
X61162560Y23254587D01*
X61168415Y23255971D01*
X61175681Y23256818D01*
X61244327Y23281735D01*
X61248455Y23283152D01*
X61310936Y23303393D01*
X61310938Y23303394D01*
X61317899Y23305649D01*
X61324154Y23309445D01*
X61329628Y23311951D01*
X61335058Y23314670D01*
X61341937Y23317167D01*
X61402976Y23357186D01*
X61406680Y23359523D01*
X61469107Y23397405D01*
X61477484Y23404803D01*
X61477508Y23404776D01*
X61480500Y23407429D01*
X61483733Y23410132D01*
X61489852Y23414144D01*
X61543128Y23470383D01*
X61545506Y23472825D01*
X63728911Y25656230D01*
X63743323Y25668616D01*
X63754918Y25677149D01*
X63754923Y25677154D01*
X63760818Y25681492D01*
X63765557Y25687070D01*
X63765560Y25687073D01*
X63795035Y25721768D01*
X63801965Y25729284D01*
X63807660Y25734979D01*
X63812518Y25741120D01*
X63825281Y25757251D01*
X63828072Y25760655D01*
X63870591Y25810703D01*
X63870592Y25810705D01*
X63875333Y25816285D01*
X63878661Y25822801D01*
X63882028Y25827850D01*
X63885195Y25832979D01*
X63889734Y25838716D01*
X63920655Y25904875D01*
X63922561Y25908775D01*
X63955769Y25973808D01*
X63957508Y25980916D01*
X63959607Y25986559D01*
X63961524Y25992322D01*
X63964622Y25998950D01*
X63979487Y26070417D01*
X63980457Y26074701D01*
X63996473Y26140155D01*
X63997808Y26145610D01*
X63998500Y26156764D01*
X63998536Y26156762D01*
X63998775Y26160755D01*
X63999149Y26164947D01*
X64000640Y26172115D01*
X63998546Y26249521D01*
X63998500Y26252928D01*
X63998500Y29414522D01*
X64006340Y29441223D01*
X65085777Y29441223D01*
X65095074Y29429207D01*
X65138069Y29399102D01*
X65147555Y29393624D01*
X65338993Y29304355D01*
X65349285Y29300609D01*
X65553309Y29245941D01*
X65564104Y29244038D01*
X65774525Y29225628D01*
X65785475Y29225628D01*
X65995896Y29244038D01*
X66006691Y29245941D01*
X66210715Y29300609D01*
X66221007Y29304355D01*
X66412445Y29393624D01*
X66421931Y29399102D01*
X66465764Y29429793D01*
X66474139Y29440271D01*
X66467071Y29453719D01*
X65792812Y30127978D01*
X65778868Y30135592D01*
X65777035Y30135461D01*
X65770420Y30131210D01*
X65092207Y29452997D01*
X65085777Y29441223D01*
X64006340Y29441223D01*
X64018502Y29482643D01*
X64052229Y29517735D01*
X64055270Y29519864D01*
X64055272Y29519866D01*
X64059781Y29523023D01*
X64216977Y29680219D01*
X64304894Y29805777D01*
X64341331Y29857815D01*
X64341332Y29857817D01*
X64344488Y29862324D01*
X64346811Y29867306D01*
X64346814Y29867311D01*
X64396081Y29972965D01*
X64442999Y30026250D01*
X64511276Y30045711D01*
X64579236Y30025169D01*
X64624471Y29972965D01*
X64673623Y29867559D01*
X64679103Y29858068D01*
X64709794Y29814235D01*
X64720271Y29805860D01*
X64733718Y29812928D01*
X65407978Y30487188D01*
X65414356Y30498868D01*
X66144408Y30498868D01*
X66144539Y30497035D01*
X66148790Y30490420D01*
X66827003Y29812207D01*
X66838777Y29805777D01*
X66850793Y29815074D01*
X66880897Y29858068D01*
X66886377Y29867559D01*
X66975645Y30058993D01*
X66979391Y30069285D01*
X67034059Y30273309D01*
X67035962Y30284104D01*
X67054372Y30494525D01*
X67054372Y30505475D01*
X67035962Y30715896D01*
X67034059Y30726691D01*
X66979391Y30930715D01*
X66975645Y30941007D01*
X66886377Y31132441D01*
X66880897Y31141932D01*
X66850206Y31185765D01*
X66839729Y31194140D01*
X66826282Y31187072D01*
X66152022Y30512812D01*
X66144408Y30498868D01*
X65414356Y30498868D01*
X65415592Y30501132D01*
X65415461Y30502965D01*
X65411210Y30509580D01*
X64732997Y31187793D01*
X64721223Y31194223D01*
X64709207Y31184926D01*
X64679103Y31141932D01*
X64673623Y31132441D01*
X64624471Y31027035D01*
X64577553Y30973750D01*
X64509276Y30954289D01*
X64441316Y30974831D01*
X64396081Y31027035D01*
X64346814Y31132689D01*
X64346811Y31132694D01*
X64344488Y31137676D01*
X64337897Y31147089D01*
X64220136Y31315270D01*
X64220134Y31315273D01*
X64216977Y31319781D01*
X64059781Y31476977D01*
X64055273Y31480134D01*
X64055270Y31480136D01*
X63979505Y31533187D01*
X63941599Y31559729D01*
X65085860Y31559729D01*
X65092928Y31546282D01*
X65767188Y30872022D01*
X65781132Y30864408D01*
X65782965Y30864539D01*
X65789580Y30868790D01*
X66467793Y31547003D01*
X66474223Y31558777D01*
X66464926Y31570793D01*
X66421931Y31600898D01*
X66412445Y31606376D01*
X66221007Y31695645D01*
X66210715Y31699391D01*
X66006691Y31754059D01*
X65995896Y31755962D01*
X65785475Y31774372D01*
X65774525Y31774372D01*
X65564104Y31755962D01*
X65553309Y31754059D01*
X65349285Y31699391D01*
X65338993Y31695645D01*
X65147559Y31606377D01*
X65138068Y31600897D01*
X65094235Y31570206D01*
X65085860Y31559729D01*
X63941599Y31559729D01*
X63877677Y31604488D01*
X63872695Y31606811D01*
X63872690Y31606814D01*
X63681178Y31696117D01*
X63681177Y31696118D01*
X63676196Y31698440D01*
X63670888Y31699862D01*
X63670886Y31699863D01*
X63605051Y31717503D01*
X63461463Y31755978D01*
X63240000Y31775353D01*
X63018537Y31755978D01*
X62874949Y31717503D01*
X62809114Y31699863D01*
X62809112Y31699862D01*
X62803804Y31698440D01*
X62798823Y31696118D01*
X62798822Y31696117D01*
X62607311Y31606814D01*
X62607306Y31606811D01*
X62602324Y31604488D01*
X62597817Y31601332D01*
X62597815Y31601331D01*
X62424730Y31480136D01*
X62424727Y31480134D01*
X62420219Y31476977D01*
X62263023Y31319781D01*
X62259866Y31315273D01*
X62259864Y31315270D01*
X62142103Y31147089D01*
X62135512Y31137676D01*
X62133189Y31132694D01*
X62133186Y31132689D01*
X62084195Y31027627D01*
X62037277Y30974342D01*
X61969000Y30954881D01*
X61901040Y30975423D01*
X61855805Y31027627D01*
X61806814Y31132689D01*
X61806811Y31132694D01*
X61804488Y31137676D01*
X61797897Y31147089D01*
X61680136Y31315270D01*
X61680134Y31315273D01*
X61676977Y31319781D01*
X61519781Y31476977D01*
X61515273Y31480134D01*
X61515270Y31480136D01*
X61434275Y31536849D01*
X61387229Y31569791D01*
X61342901Y31625248D01*
X61333500Y31673004D01*
X61333500Y38056684D01*
X61339907Y38096351D01*
X61345632Y38113611D01*
X61345632Y38113613D01*
X61347797Y38120139D01*
X61358500Y38224600D01*
X61358500Y39775400D01*
X61354901Y39810085D01*
X61348238Y39874308D01*
X61348237Y39874312D01*
X61347526Y39881166D01*
X61343710Y39892606D01*
X61293868Y40041998D01*
X61291550Y40048946D01*
X61198478Y40199348D01*
X61073303Y40324305D01*
X61042780Y40343120D01*
X60928968Y40413275D01*
X60928966Y40413276D01*
X60922738Y40417115D01*
X60842995Y40443564D01*
X60761389Y40470632D01*
X60761387Y40470632D01*
X60754861Y40472797D01*
X60748025Y40473497D01*
X60748022Y40473498D01*
X60702655Y40478146D01*
X60650400Y40483500D01*
X59349600Y40483500D01*
X59346354Y40483163D01*
X59346350Y40483163D01*
X59250692Y40473238D01*
X59250688Y40473237D01*
X59243834Y40472526D01*
X59237298Y40470345D01*
X59237296Y40470345D01*
X59122369Y40432002D01*
X59076054Y40416550D01*
X58925652Y40323478D01*
X58800695Y40198303D01*
X58796855Y40192073D01*
X58796854Y40192072D01*
X58790525Y40181805D01*
X58727170Y40079023D01*
X58710920Y40052661D01*
X58658148Y40005168D01*
X58588076Y39993744D01*
X58522952Y40022018D01*
X58512490Y40031805D01*
X58423689Y40124892D01*
X58403424Y40146135D01*
X58218458Y40283754D01*
X58213707Y40286170D01*
X58213703Y40286172D01*
X58103755Y40342072D01*
X58012949Y40388240D01*
X58007855Y40389822D01*
X58007852Y40389823D01*
X57797871Y40455024D01*
X57792773Y40456607D01*
X57787484Y40457308D01*
X57569511Y40486198D01*
X57569506Y40486198D01*
X57564226Y40486898D01*
X57558897Y40486698D01*
X57558895Y40486698D01*
X57449034Y40482574D01*
X57333842Y40478249D01*
X57328623Y40477154D01*
X57306566Y40472526D01*
X57108209Y40430907D01*
X57103250Y40428949D01*
X57103248Y40428948D01*
X56898744Y40348185D01*
X56898742Y40348184D01*
X56893779Y40346224D01*
X56889220Y40343457D01*
X56889217Y40343456D01*
X56790832Y40283754D01*
X56696683Y40226623D01*
X56692653Y40223126D01*
X56584550Y40129319D01*
X56522555Y40075523D01*
X56495568Y40042610D01*
X56379760Y39901373D01*
X56379756Y39901367D01*
X56376376Y39897245D01*
X56358448Y39865750D01*
X56307368Y39816445D01*
X56237738Y39802583D01*
X56171667Y39828566D01*
X56144427Y39857716D01*
X56087602Y39942121D01*
X56062559Y39979319D01*
X55903424Y40146135D01*
X55718458Y40283754D01*
X55713707Y40286170D01*
X55713703Y40286172D01*
X55603755Y40342072D01*
X55512949Y40388240D01*
X55507855Y40389822D01*
X55507852Y40389823D01*
X55297871Y40455024D01*
X55292773Y40456607D01*
X55287484Y40457308D01*
X55069511Y40486198D01*
X55069506Y40486198D01*
X55064226Y40486898D01*
X55058897Y40486698D01*
X55058895Y40486698D01*
X54949034Y40482574D01*
X54833842Y40478249D01*
X54828623Y40477154D01*
X54806566Y40472526D01*
X54608209Y40430907D01*
X54603250Y40428949D01*
X54603248Y40428948D01*
X54398744Y40348185D01*
X54398742Y40348184D01*
X54393779Y40346224D01*
X54389220Y40343457D01*
X54389217Y40343456D01*
X54290832Y40283754D01*
X54196683Y40226623D01*
X54192653Y40223126D01*
X54084550Y40129319D01*
X54022555Y40075523D01*
X53995568Y40042610D01*
X53879760Y39901373D01*
X53879756Y39901367D01*
X53876376Y39897245D01*
X53858448Y39865750D01*
X53807368Y39816445D01*
X53737738Y39802583D01*
X53671667Y39828566D01*
X53644427Y39857716D01*
X53587602Y39942121D01*
X53562559Y39979319D01*
X53403424Y40146135D01*
X53218458Y40283754D01*
X53213707Y40286170D01*
X53213703Y40286172D01*
X53103755Y40342072D01*
X53012949Y40388240D01*
X53007855Y40389822D01*
X53007852Y40389823D01*
X52797871Y40455024D01*
X52792773Y40456607D01*
X52787484Y40457308D01*
X52569511Y40486198D01*
X52569506Y40486198D01*
X52564226Y40486898D01*
X52558897Y40486698D01*
X52558895Y40486698D01*
X52449034Y40482574D01*
X52333842Y40478249D01*
X52328623Y40477154D01*
X52306566Y40472526D01*
X52108209Y40430907D01*
X52103250Y40428949D01*
X52103248Y40428948D01*
X51898744Y40348185D01*
X51898742Y40348184D01*
X51893779Y40346224D01*
X51889220Y40343457D01*
X51889217Y40343456D01*
X51790832Y40283754D01*
X51696683Y40226623D01*
X51692653Y40223126D01*
X51584550Y40129319D01*
X51522555Y40075523D01*
X51495568Y40042610D01*
X51379760Y39901373D01*
X51379756Y39901367D01*
X51376376Y39897245D01*
X51373738Y39892610D01*
X51373735Y39892606D01*
X51322491Y39802583D01*
X51262325Y39696886D01*
X51183663Y39480175D01*
X51182714Y39474926D01*
X51182713Y39474923D01*
X51143377Y39257392D01*
X51143376Y39257385D01*
X51142639Y39253308D01*
X51141500Y39229156D01*
X51141500Y38817110D01*
X51156080Y38645280D01*
X51157418Y38640125D01*
X51157419Y38640119D01*
X51212657Y38427297D01*
X51213999Y38422128D01*
X51216191Y38417262D01*
X51216192Y38417259D01*
X51251033Y38339915D01*
X51308688Y38211925D01*
X51437441Y38020681D01*
X51441120Y38016824D01*
X51441122Y38016822D01*
X51455218Y38002046D01*
X51596576Y37853865D01*
X51600854Y37850682D01*
X51659726Y37806880D01*
X51781542Y37716246D01*
X51786294Y37713830D01*
X51786302Y37713825D01*
X51797606Y37708078D01*
X51849263Y37659375D01*
X51866500Y37595762D01*
X51866500Y31219359D01*
X51846498Y31151238D01*
X51792842Y31104745D01*
X51722568Y31094641D01*
X51657988Y31124135D01*
X51637286Y31147089D01*
X51610204Y31185766D01*
X51599729Y31194140D01*
X51586282Y31187072D01*
X50912022Y30512812D01*
X50904408Y30498868D01*
X50904539Y30497035D01*
X50908790Y30490420D01*
X51587003Y29812207D01*
X51598777Y29805777D01*
X51610793Y29815074D01*
X51640897Y29858068D01*
X51646377Y29867559D01*
X51695529Y29972965D01*
X51742447Y30026250D01*
X51810724Y30045711D01*
X51878684Y30025169D01*
X51923919Y29972965D01*
X51973186Y29867311D01*
X51973189Y29867306D01*
X51975512Y29862324D01*
X51978668Y29857817D01*
X51978669Y29857815D01*
X52015107Y29805777D01*
X52103023Y29680219D01*
X52260219Y29523023D01*
X52264727Y29519866D01*
X52264730Y29519864D01*
X52267771Y29517735D01*
X52442323Y29395512D01*
X52447305Y29393189D01*
X52447310Y29393186D01*
X52637810Y29304355D01*
X52643804Y29301560D01*
X52649112Y29300138D01*
X52649114Y29300137D01*
X52693384Y29288275D01*
X52858537Y29244022D01*
X53080000Y29224647D01*
X53301463Y29244022D01*
X53466616Y29288275D01*
X53510886Y29300137D01*
X53510888Y29300138D01*
X53516196Y29301560D01*
X53522190Y29304355D01*
X53712690Y29393186D01*
X53712695Y29393189D01*
X53717677Y29395512D01*
X53892229Y29517735D01*
X53895270Y29519864D01*
X53895273Y29519866D01*
X53899781Y29523023D01*
X54056977Y29680219D01*
X54144894Y29805777D01*
X54181331Y29857815D01*
X54181332Y29857817D01*
X54184488Y29862324D01*
X54186811Y29867306D01*
X54186814Y29867311D01*
X54235805Y29972373D01*
X54282723Y30025658D01*
X54351000Y30045119D01*
X54418960Y30024577D01*
X54464195Y29972373D01*
X54513186Y29867311D01*
X54513189Y29867306D01*
X54515512Y29862324D01*
X54518668Y29857817D01*
X54518669Y29857815D01*
X54555107Y29805777D01*
X54643023Y29680219D01*
X54800219Y29523023D01*
X54804727Y29519866D01*
X54804730Y29519864D01*
X54807771Y29517735D01*
X54982323Y29395512D01*
X54987305Y29393189D01*
X54987310Y29393186D01*
X55177810Y29304355D01*
X55183804Y29301560D01*
X55189112Y29300138D01*
X55189114Y29300137D01*
X55233384Y29288275D01*
X55398537Y29244022D01*
X55620000Y29224647D01*
X55841463Y29244022D01*
X56006616Y29288275D01*
X56050886Y29300137D01*
X56050888Y29300138D01*
X56056196Y29301560D01*
X56062190Y29304355D01*
X56252690Y29393186D01*
X56252695Y29393189D01*
X56257677Y29395512D01*
X56432229Y29517735D01*
X56435270Y29519864D01*
X56435273Y29519866D01*
X56439781Y29523023D01*
X56596977Y29680219D01*
X56684894Y29805777D01*
X56721331Y29857815D01*
X56721332Y29857817D01*
X56724488Y29862324D01*
X56726811Y29867306D01*
X56726814Y29867311D01*
X56775805Y29972373D01*
X56822723Y30025658D01*
X56891000Y30045119D01*
X56958960Y30024577D01*
X57004195Y29972373D01*
X57053186Y29867311D01*
X57053189Y29867306D01*
X57055512Y29862324D01*
X57058668Y29857817D01*
X57058669Y29857815D01*
X57095107Y29805777D01*
X57183023Y29680219D01*
X57340219Y29523023D01*
X57344727Y29519866D01*
X57344730Y29519864D01*
X57347771Y29517735D01*
X57522323Y29395512D01*
X57527305Y29393189D01*
X57527310Y29393186D01*
X57717810Y29304355D01*
X57723804Y29301560D01*
X57729112Y29300138D01*
X57729114Y29300137D01*
X57773384Y29288275D01*
X57938537Y29244022D01*
X58160000Y29224647D01*
X58381463Y29244022D01*
X58546616Y29288275D01*
X58590886Y29300137D01*
X58590888Y29300138D01*
X58596196Y29301560D01*
X58602190Y29304355D01*
X58792690Y29393186D01*
X58792695Y29393189D01*
X58797677Y29395512D01*
X58972229Y29517735D01*
X58975270Y29519864D01*
X58975273Y29519866D01*
X58979781Y29523023D01*
X59136977Y29680219D01*
X59224894Y29805777D01*
X59261331Y29857815D01*
X59261332Y29857817D01*
X59264488Y29862324D01*
X59266811Y29867306D01*
X59266814Y29867311D01*
X59315805Y29972373D01*
X59362723Y30025658D01*
X59431000Y30045119D01*
X59498960Y30024577D01*
X59544195Y29972373D01*
X59593186Y29867311D01*
X59593189Y29867306D01*
X59595512Y29862324D01*
X59598668Y29857817D01*
X59598669Y29857815D01*
X59635107Y29805777D01*
X59723023Y29680219D01*
X59880219Y29523023D01*
X59884727Y29519866D01*
X59884730Y29519864D01*
X59887771Y29517735D01*
X60062323Y29395512D01*
X60067305Y29393189D01*
X60067310Y29393186D01*
X60257810Y29304355D01*
X60263804Y29301560D01*
X60269112Y29300138D01*
X60269114Y29300137D01*
X60313384Y29288275D01*
X60478537Y29244022D01*
X60700000Y29224647D01*
X60921463Y29244022D01*
X61086616Y29288275D01*
X61130886Y29300137D01*
X61130888Y29300138D01*
X61136196Y29301560D01*
X61142190Y29304355D01*
X61332690Y29393186D01*
X61332695Y29393189D01*
X61337677Y29395512D01*
X61512229Y29517735D01*
X61515270Y29519864D01*
X61515273Y29519866D01*
X61519781Y29523023D01*
X61676977Y29680219D01*
X61764894Y29805777D01*
X61801331Y29857815D01*
X61801332Y29857817D01*
X61804488Y29862324D01*
X61806811Y29867306D01*
X61806814Y29867311D01*
X61855805Y29972373D01*
X61902723Y30025658D01*
X61971000Y30045119D01*
X62038960Y30024577D01*
X62084195Y29972373D01*
X62133186Y29867311D01*
X62133189Y29867306D01*
X62135512Y29862324D01*
X62138668Y29857817D01*
X62138669Y29857815D01*
X62175107Y29805777D01*
X62263023Y29680219D01*
X62420219Y29523023D01*
X62424728Y29519866D01*
X62424730Y29519864D01*
X62427771Y29517735D01*
X62428797Y29516452D01*
X62428943Y29516329D01*
X62428918Y29516300D01*
X62472099Y29462278D01*
X62481500Y29414522D01*
X62481500Y26606371D01*
X62461498Y26538250D01*
X62444595Y26517276D01*
X60722724Y24795405D01*
X60660412Y24761379D01*
X60633629Y24758500D01*
X37135371Y24758500D01*
X37067250Y24778502D01*
X37020757Y24832158D01*
X37010653Y24902432D01*
X37040147Y24967012D01*
X37046276Y24973595D01*
X37728911Y25656230D01*
X37743323Y25668616D01*
X37754918Y25677149D01*
X37754923Y25677154D01*
X37760818Y25681492D01*
X37765557Y25687070D01*
X37765560Y25687073D01*
X37795035Y25721768D01*
X37801965Y25729284D01*
X37807660Y25734979D01*
X37812518Y25741120D01*
X37825281Y25757251D01*
X37828072Y25760655D01*
X37870591Y25810703D01*
X37870592Y25810705D01*
X37875333Y25816285D01*
X37878661Y25822801D01*
X37882028Y25827850D01*
X37885195Y25832979D01*
X37889734Y25838716D01*
X37920655Y25904875D01*
X37922561Y25908775D01*
X37955769Y25973808D01*
X37957508Y25980916D01*
X37959607Y25986559D01*
X37961524Y25992322D01*
X37964622Y25998950D01*
X37979487Y26070417D01*
X37980457Y26074701D01*
X37996473Y26140155D01*
X37997808Y26145610D01*
X37998500Y26156764D01*
X37998536Y26156762D01*
X37998775Y26160755D01*
X37999149Y26164947D01*
X38000640Y26172115D01*
X37998546Y26249521D01*
X37998500Y26252928D01*
X37998500Y29414522D01*
X38006340Y29441223D01*
X39085777Y29441223D01*
X39095074Y29429207D01*
X39138069Y29399102D01*
X39147555Y29393624D01*
X39338993Y29304355D01*
X39349285Y29300609D01*
X39553309Y29245941D01*
X39564104Y29244038D01*
X39774525Y29225628D01*
X39785475Y29225628D01*
X39995896Y29244038D01*
X40006691Y29245941D01*
X40210715Y29300609D01*
X40221007Y29304355D01*
X40412445Y29393624D01*
X40421931Y29399102D01*
X40465764Y29429793D01*
X40474139Y29440271D01*
X40467071Y29453719D01*
X39792812Y30127978D01*
X39778868Y30135592D01*
X39777035Y30135461D01*
X39770420Y30131210D01*
X39092207Y29452997D01*
X39085777Y29441223D01*
X38006340Y29441223D01*
X38018502Y29482643D01*
X38052229Y29517735D01*
X38055270Y29519864D01*
X38055272Y29519866D01*
X38059781Y29523023D01*
X38216977Y29680219D01*
X38304894Y29805777D01*
X38341331Y29857815D01*
X38341332Y29857817D01*
X38344488Y29862324D01*
X38346811Y29867306D01*
X38346814Y29867311D01*
X38396081Y29972965D01*
X38442999Y30026250D01*
X38511276Y30045711D01*
X38579236Y30025169D01*
X38624471Y29972965D01*
X38673623Y29867559D01*
X38679103Y29858068D01*
X38709794Y29814235D01*
X38720271Y29805860D01*
X38733718Y29812928D01*
X39407978Y30487188D01*
X39414356Y30498868D01*
X40144408Y30498868D01*
X40144539Y30497035D01*
X40148790Y30490420D01*
X40827003Y29812207D01*
X40838777Y29805777D01*
X40850793Y29815074D01*
X40880897Y29858068D01*
X40886377Y29867559D01*
X40975645Y30058993D01*
X40979391Y30069285D01*
X41034059Y30273309D01*
X41035962Y30284104D01*
X41054372Y30494525D01*
X41054372Y30500000D01*
X46724647Y30500000D01*
X46744022Y30278537D01*
X46801560Y30063804D01*
X46803882Y30058823D01*
X46803883Y30058822D01*
X46893186Y29867311D01*
X46893189Y29867306D01*
X46895512Y29862324D01*
X46898668Y29857817D01*
X46898669Y29857815D01*
X46935107Y29805777D01*
X47023023Y29680219D01*
X47180219Y29523023D01*
X47184727Y29519866D01*
X47184730Y29519864D01*
X47187771Y29517735D01*
X47362323Y29395512D01*
X47367305Y29393189D01*
X47367310Y29393186D01*
X47557810Y29304355D01*
X47563804Y29301560D01*
X47569112Y29300138D01*
X47569114Y29300137D01*
X47613384Y29288275D01*
X47778537Y29244022D01*
X48000000Y29224647D01*
X48221463Y29244022D01*
X48386616Y29288275D01*
X48430886Y29300137D01*
X48430888Y29300138D01*
X48436196Y29301560D01*
X48442190Y29304355D01*
X48632690Y29393186D01*
X48632695Y29393189D01*
X48637677Y29395512D01*
X48702959Y29441223D01*
X49845777Y29441223D01*
X49855074Y29429207D01*
X49898069Y29399102D01*
X49907555Y29393624D01*
X50098993Y29304355D01*
X50109285Y29300609D01*
X50313309Y29245941D01*
X50324104Y29244038D01*
X50534525Y29225628D01*
X50545475Y29225628D01*
X50755896Y29244038D01*
X50766691Y29245941D01*
X50970715Y29300609D01*
X50981007Y29304355D01*
X51172445Y29393624D01*
X51181931Y29399102D01*
X51225764Y29429793D01*
X51234139Y29440271D01*
X51227071Y29453719D01*
X50552812Y30127978D01*
X50538868Y30135592D01*
X50537035Y30135461D01*
X50530420Y30131210D01*
X49852207Y29452997D01*
X49845777Y29441223D01*
X48702959Y29441223D01*
X48812229Y29517735D01*
X48815270Y29519864D01*
X48815273Y29519866D01*
X48819781Y29523023D01*
X48976977Y29680219D01*
X49064894Y29805777D01*
X49101331Y29857815D01*
X49101332Y29857817D01*
X49104488Y29862324D01*
X49106811Y29867306D01*
X49106814Y29867311D01*
X49156081Y29972965D01*
X49202999Y30026250D01*
X49271276Y30045711D01*
X49339236Y30025169D01*
X49384471Y29972965D01*
X49433623Y29867559D01*
X49439103Y29858068D01*
X49469794Y29814235D01*
X49480271Y29805860D01*
X49493718Y29812928D01*
X50167978Y30487188D01*
X50175592Y30501132D01*
X50175461Y30502965D01*
X50171210Y30509580D01*
X49492997Y31187793D01*
X49481223Y31194223D01*
X49469207Y31184926D01*
X49439103Y31141932D01*
X49433623Y31132441D01*
X49384471Y31027035D01*
X49337553Y30973750D01*
X49269276Y30954289D01*
X49201316Y30974831D01*
X49156081Y31027035D01*
X49106814Y31132689D01*
X49106811Y31132694D01*
X49104488Y31137676D01*
X49097897Y31147089D01*
X48980136Y31315270D01*
X48980134Y31315273D01*
X48976977Y31319781D01*
X48819781Y31476977D01*
X48815273Y31480134D01*
X48815270Y31480136D01*
X48739505Y31533187D01*
X48701599Y31559729D01*
X49845860Y31559729D01*
X49852928Y31546282D01*
X50527188Y30872022D01*
X50541132Y30864408D01*
X50542965Y30864539D01*
X50549580Y30868790D01*
X51227793Y31547003D01*
X51234223Y31558777D01*
X51224926Y31570793D01*
X51181931Y31600898D01*
X51172445Y31606376D01*
X50981007Y31695645D01*
X50970715Y31699391D01*
X50766691Y31754059D01*
X50755896Y31755962D01*
X50545475Y31774372D01*
X50534525Y31774372D01*
X50324104Y31755962D01*
X50313309Y31754059D01*
X50109285Y31699391D01*
X50098993Y31695645D01*
X49907559Y31606377D01*
X49898068Y31600897D01*
X49854235Y31570206D01*
X49845860Y31559729D01*
X48701599Y31559729D01*
X48637677Y31604488D01*
X48632695Y31606811D01*
X48632690Y31606814D01*
X48441178Y31696117D01*
X48441177Y31696118D01*
X48436196Y31698440D01*
X48430888Y31699862D01*
X48430886Y31699863D01*
X48365051Y31717503D01*
X48221463Y31755978D01*
X48000000Y31775353D01*
X47778537Y31755978D01*
X47634949Y31717503D01*
X47569114Y31699863D01*
X47569112Y31699862D01*
X47563804Y31698440D01*
X47558823Y31696118D01*
X47558822Y31696117D01*
X47367311Y31606814D01*
X47367306Y31606811D01*
X47362324Y31604488D01*
X47357817Y31601332D01*
X47357815Y31601331D01*
X47184730Y31480136D01*
X47184727Y31480134D01*
X47180219Y31476977D01*
X47023023Y31319781D01*
X47019866Y31315273D01*
X47019864Y31315270D01*
X46902103Y31147089D01*
X46895512Y31137676D01*
X46893189Y31132694D01*
X46893186Y31132689D01*
X46809997Y30954289D01*
X46801560Y30936196D01*
X46744022Y30721463D01*
X46724647Y30500000D01*
X41054372Y30500000D01*
X41054372Y30505475D01*
X41035962Y30715896D01*
X41034059Y30726691D01*
X40979391Y30930715D01*
X40975645Y30941007D01*
X40886377Y31132441D01*
X40880897Y31141932D01*
X40850206Y31185765D01*
X40839729Y31194140D01*
X40826282Y31187072D01*
X40152022Y30512812D01*
X40144408Y30498868D01*
X39414356Y30498868D01*
X39415592Y30501132D01*
X39415461Y30502965D01*
X39411210Y30509580D01*
X38732997Y31187793D01*
X38721223Y31194223D01*
X38709207Y31184926D01*
X38679103Y31141932D01*
X38673623Y31132441D01*
X38624471Y31027035D01*
X38577553Y30973750D01*
X38509276Y30954289D01*
X38441316Y30974831D01*
X38396081Y31027035D01*
X38346814Y31132689D01*
X38346811Y31132694D01*
X38344488Y31137676D01*
X38337897Y31147089D01*
X38220136Y31315270D01*
X38220134Y31315273D01*
X38216977Y31319781D01*
X38059781Y31476977D01*
X38055273Y31480134D01*
X38055270Y31480136D01*
X37979505Y31533187D01*
X37941599Y31559729D01*
X39085860Y31559729D01*
X39092928Y31546282D01*
X39767188Y30872022D01*
X39781132Y30864408D01*
X39782965Y30864539D01*
X39789580Y30868790D01*
X40467793Y31547003D01*
X40474223Y31558777D01*
X40464926Y31570793D01*
X40421931Y31600898D01*
X40412445Y31606376D01*
X40221007Y31695645D01*
X40210715Y31699391D01*
X40006691Y31754059D01*
X39995896Y31755962D01*
X39785475Y31774372D01*
X39774525Y31774372D01*
X39564104Y31755962D01*
X39553309Y31754059D01*
X39349285Y31699391D01*
X39338993Y31695645D01*
X39147559Y31606377D01*
X39138068Y31600897D01*
X39094235Y31570206D01*
X39085860Y31559729D01*
X37941599Y31559729D01*
X37877677Y31604488D01*
X37872695Y31606811D01*
X37872690Y31606814D01*
X37681178Y31696117D01*
X37681177Y31696118D01*
X37676196Y31698440D01*
X37670888Y31699862D01*
X37670886Y31699863D01*
X37605051Y31717503D01*
X37461463Y31755978D01*
X37240000Y31775353D01*
X37018537Y31755978D01*
X36874949Y31717503D01*
X36809114Y31699863D01*
X36809112Y31699862D01*
X36803804Y31698440D01*
X36798823Y31696118D01*
X36798822Y31696117D01*
X36607311Y31606814D01*
X36607306Y31606811D01*
X36602324Y31604488D01*
X36597817Y31601332D01*
X36597815Y31601331D01*
X36424730Y31480136D01*
X36424727Y31480134D01*
X36420219Y31476977D01*
X36263023Y31319781D01*
X36259866Y31315273D01*
X36259864Y31315270D01*
X36142103Y31147089D01*
X36135512Y31137676D01*
X36133189Y31132694D01*
X36133186Y31132689D01*
X36084195Y31027627D01*
X36037277Y30974342D01*
X35969000Y30954881D01*
X35901040Y30975423D01*
X35855805Y31027627D01*
X35806814Y31132689D01*
X35806811Y31132694D01*
X35804488Y31137676D01*
X35797897Y31147089D01*
X35680136Y31315270D01*
X35680134Y31315273D01*
X35676977Y31319781D01*
X35519781Y31476977D01*
X35515273Y31480134D01*
X35515270Y31480136D01*
X35434275Y31536849D01*
X35387229Y31569791D01*
X35342901Y31625248D01*
X35333500Y31673004D01*
X35333500Y38206684D01*
X35339907Y38246351D01*
X35345632Y38263611D01*
X35345632Y38263613D01*
X35347797Y38270139D01*
X35358500Y38374600D01*
X35358500Y39925400D01*
X35355680Y39952583D01*
X35348238Y40024308D01*
X35348237Y40024312D01*
X35347526Y40031166D01*
X35343710Y40042606D01*
X35293868Y40191998D01*
X35291550Y40198946D01*
X35198478Y40349348D01*
X35073303Y40474305D01*
X35053198Y40486698D01*
X34928968Y40563275D01*
X34928966Y40563276D01*
X34922738Y40567115D01*
X34842995Y40593564D01*
X34761389Y40620632D01*
X34761387Y40620632D01*
X34754861Y40622797D01*
X34748025Y40623497D01*
X34748022Y40623498D01*
X34704969Y40627909D01*
X34650400Y40633500D01*
X33349600Y40633500D01*
X33346354Y40633163D01*
X33346350Y40633163D01*
X33250692Y40623238D01*
X33250688Y40623237D01*
X33243834Y40622526D01*
X33237298Y40620345D01*
X33237296Y40620345D01*
X33198220Y40607308D01*
X33076054Y40566550D01*
X32925652Y40473478D01*
X32800695Y40348303D01*
X32711427Y40203483D01*
X32710920Y40202661D01*
X32658148Y40155168D01*
X32588076Y40143744D01*
X32522952Y40172018D01*
X32512490Y40181805D01*
X32407103Y40292278D01*
X32403424Y40296135D01*
X32339823Y40343456D01*
X32277503Y40389823D01*
X32218458Y40433754D01*
X32213707Y40436170D01*
X32213703Y40436172D01*
X32091731Y40498185D01*
X32012949Y40538240D01*
X32007855Y40539822D01*
X32007852Y40539823D01*
X31797871Y40605024D01*
X31792773Y40606607D01*
X31787484Y40607308D01*
X31569511Y40636198D01*
X31569506Y40636198D01*
X31564226Y40636898D01*
X31558897Y40636698D01*
X31558895Y40636698D01*
X31449034Y40632573D01*
X31333842Y40628249D01*
X31328623Y40627154D01*
X31306566Y40622526D01*
X31108209Y40580907D01*
X31103250Y40578949D01*
X31103248Y40578948D01*
X30898744Y40498185D01*
X30898742Y40498184D01*
X30893779Y40496224D01*
X30889220Y40493457D01*
X30889217Y40493456D01*
X30756126Y40412694D01*
X30696683Y40376623D01*
X30692653Y40373126D01*
X30589661Y40283754D01*
X30522555Y40225523D01*
X30504483Y40203483D01*
X30379760Y40051373D01*
X30379756Y40051367D01*
X30376376Y40047245D01*
X30358448Y40015750D01*
X30307368Y39966445D01*
X30237738Y39952583D01*
X30171667Y39978566D01*
X30144427Y40007716D01*
X30117814Y40047245D01*
X30062559Y40129319D01*
X30046518Y40146135D01*
X29907103Y40292278D01*
X29903424Y40296135D01*
X29839823Y40343456D01*
X29777503Y40389823D01*
X29718458Y40433754D01*
X29713707Y40436170D01*
X29713703Y40436172D01*
X29591731Y40498185D01*
X29512949Y40538240D01*
X29507855Y40539822D01*
X29507852Y40539823D01*
X29297871Y40605024D01*
X29292773Y40606607D01*
X29287484Y40607308D01*
X29069511Y40636198D01*
X29069506Y40636198D01*
X29064226Y40636898D01*
X29058897Y40636698D01*
X29058895Y40636698D01*
X28949034Y40632573D01*
X28833842Y40628249D01*
X28828623Y40627154D01*
X28806566Y40622526D01*
X28608209Y40580907D01*
X28603250Y40578949D01*
X28603248Y40578948D01*
X28398744Y40498185D01*
X28398742Y40498184D01*
X28393779Y40496224D01*
X28389220Y40493457D01*
X28389217Y40493456D01*
X28256126Y40412694D01*
X28196683Y40376623D01*
X28192653Y40373126D01*
X28089661Y40283754D01*
X28022555Y40225523D01*
X28004483Y40203483D01*
X27879760Y40051373D01*
X27879756Y40051367D01*
X27876376Y40047245D01*
X27858448Y40015750D01*
X27807368Y39966445D01*
X27737738Y39952583D01*
X27671667Y39978566D01*
X27644427Y40007716D01*
X27617814Y40047245D01*
X27562559Y40129319D01*
X27546518Y40146135D01*
X27407103Y40292278D01*
X27403424Y40296135D01*
X27339823Y40343456D01*
X27277503Y40389823D01*
X27218458Y40433754D01*
X27213707Y40436170D01*
X27213703Y40436172D01*
X27091731Y40498185D01*
X27012949Y40538240D01*
X27007855Y40539822D01*
X27007852Y40539823D01*
X26797871Y40605024D01*
X26792773Y40606607D01*
X26787484Y40607308D01*
X26569511Y40636198D01*
X26569506Y40636198D01*
X26564226Y40636898D01*
X26558897Y40636698D01*
X26558895Y40636698D01*
X26449034Y40632573D01*
X26333842Y40628249D01*
X26328623Y40627154D01*
X26306566Y40622526D01*
X26108209Y40580907D01*
X26103250Y40578949D01*
X26103248Y40578948D01*
X25898744Y40498185D01*
X25898742Y40498184D01*
X25893779Y40496224D01*
X25889220Y40493457D01*
X25889217Y40493456D01*
X25756126Y40412694D01*
X25696683Y40376623D01*
X25692653Y40373126D01*
X25589661Y40283754D01*
X25522555Y40225523D01*
X25504483Y40203483D01*
X25379760Y40051373D01*
X25379756Y40051367D01*
X25376376Y40047245D01*
X25373738Y40042610D01*
X25373735Y40042606D01*
X25335190Y39974892D01*
X25262325Y39846886D01*
X25183663Y39630175D01*
X25182714Y39624926D01*
X25182713Y39624923D01*
X25143377Y39407392D01*
X25143376Y39407385D01*
X25142639Y39403308D01*
X25141500Y39379156D01*
X25141500Y38967110D01*
X25141725Y38964461D01*
X25154228Y38817110D01*
X25156080Y38795280D01*
X25157418Y38790125D01*
X25157419Y38790119D01*
X25193634Y38650591D01*
X25213999Y38572128D01*
X25308688Y38361925D01*
X25437441Y38170681D01*
X25596576Y38003865D01*
X25600854Y38000682D01*
X25648406Y37965302D01*
X25781542Y37866246D01*
X25786294Y37863830D01*
X25786302Y37863825D01*
X25797606Y37858078D01*
X25849263Y37809375D01*
X25866500Y37745762D01*
X25866500Y31219359D01*
X25846498Y31151238D01*
X25792842Y31104745D01*
X25722568Y31094641D01*
X25657988Y31124135D01*
X25637286Y31147089D01*
X25610204Y31185766D01*
X25599729Y31194140D01*
X25586282Y31187072D01*
X24912022Y30512812D01*
X24904408Y30498868D01*
X24904539Y30497035D01*
X24908790Y30490420D01*
X25587003Y29812207D01*
X25598777Y29805777D01*
X25610793Y29815074D01*
X25640897Y29858068D01*
X25646377Y29867559D01*
X25695529Y29972965D01*
X25742447Y30026250D01*
X25810724Y30045711D01*
X25878684Y30025169D01*
X25923919Y29972965D01*
X25973186Y29867311D01*
X25973189Y29867306D01*
X25975512Y29862324D01*
X25978668Y29857817D01*
X25978669Y29857815D01*
X26015107Y29805777D01*
X26103023Y29680219D01*
X26260219Y29523023D01*
X26264727Y29519866D01*
X26264730Y29519864D01*
X26267771Y29517735D01*
X26442323Y29395512D01*
X26447305Y29393189D01*
X26447310Y29393186D01*
X26637810Y29304355D01*
X26643804Y29301560D01*
X26649112Y29300138D01*
X26649114Y29300137D01*
X26693384Y29288275D01*
X26858537Y29244022D01*
X27080000Y29224647D01*
X27301463Y29244022D01*
X27466616Y29288275D01*
X27510886Y29300137D01*
X27510888Y29300138D01*
X27516196Y29301560D01*
X27522190Y29304355D01*
X27712690Y29393186D01*
X27712695Y29393189D01*
X27717677Y29395512D01*
X27892229Y29517735D01*
X27895270Y29519864D01*
X27895273Y29519866D01*
X27899781Y29523023D01*
X28056977Y29680219D01*
X28144894Y29805777D01*
X28181331Y29857815D01*
X28181332Y29857817D01*
X28184488Y29862324D01*
X28186811Y29867306D01*
X28186814Y29867311D01*
X28235805Y29972373D01*
X28282723Y30025658D01*
X28351000Y30045119D01*
X28418960Y30024577D01*
X28464195Y29972373D01*
X28513186Y29867311D01*
X28513189Y29867306D01*
X28515512Y29862324D01*
X28518668Y29857817D01*
X28518669Y29857815D01*
X28555107Y29805777D01*
X28643023Y29680219D01*
X28800219Y29523023D01*
X28804727Y29519866D01*
X28804730Y29519864D01*
X28807771Y29517735D01*
X28982323Y29395512D01*
X28987305Y29393189D01*
X28987310Y29393186D01*
X29177810Y29304355D01*
X29183804Y29301560D01*
X29189112Y29300138D01*
X29189114Y29300137D01*
X29233384Y29288275D01*
X29398537Y29244022D01*
X29620000Y29224647D01*
X29841463Y29244022D01*
X30006616Y29288275D01*
X30050886Y29300137D01*
X30050888Y29300138D01*
X30056196Y29301560D01*
X30062190Y29304355D01*
X30252690Y29393186D01*
X30252695Y29393189D01*
X30257677Y29395512D01*
X30432229Y29517735D01*
X30435270Y29519864D01*
X30435273Y29519866D01*
X30439781Y29523023D01*
X30596977Y29680219D01*
X30684894Y29805777D01*
X30721331Y29857815D01*
X30721332Y29857817D01*
X30724488Y29862324D01*
X30726811Y29867306D01*
X30726814Y29867311D01*
X30775805Y29972373D01*
X30822723Y30025658D01*
X30891000Y30045119D01*
X30958960Y30024577D01*
X31004195Y29972373D01*
X31053186Y29867311D01*
X31053189Y29867306D01*
X31055512Y29862324D01*
X31058668Y29857817D01*
X31058669Y29857815D01*
X31095107Y29805777D01*
X31183023Y29680219D01*
X31340219Y29523023D01*
X31344727Y29519866D01*
X31344730Y29519864D01*
X31347771Y29517735D01*
X31522323Y29395512D01*
X31527305Y29393189D01*
X31527310Y29393186D01*
X31717810Y29304355D01*
X31723804Y29301560D01*
X31729112Y29300138D01*
X31729114Y29300137D01*
X31773384Y29288275D01*
X31938537Y29244022D01*
X32160000Y29224647D01*
X32381463Y29244022D01*
X32546616Y29288275D01*
X32590886Y29300137D01*
X32590888Y29300138D01*
X32596196Y29301560D01*
X32602190Y29304355D01*
X32792690Y29393186D01*
X32792695Y29393189D01*
X32797677Y29395512D01*
X32972229Y29517735D01*
X32975270Y29519864D01*
X32975273Y29519866D01*
X32979781Y29523023D01*
X33136977Y29680219D01*
X33224894Y29805777D01*
X33261331Y29857815D01*
X33261332Y29857817D01*
X33264488Y29862324D01*
X33266811Y29867306D01*
X33266814Y29867311D01*
X33315805Y29972373D01*
X33362723Y30025658D01*
X33431000Y30045119D01*
X33498960Y30024577D01*
X33544195Y29972373D01*
X33593186Y29867311D01*
X33593189Y29867306D01*
X33595512Y29862324D01*
X33598668Y29857817D01*
X33598669Y29857815D01*
X33635107Y29805777D01*
X33723023Y29680219D01*
X33880219Y29523023D01*
X33884727Y29519866D01*
X33884730Y29519864D01*
X33887771Y29517735D01*
X34062323Y29395512D01*
X34067305Y29393189D01*
X34067310Y29393186D01*
X34257810Y29304355D01*
X34263804Y29301560D01*
X34269112Y29300138D01*
X34269114Y29300137D01*
X34313384Y29288275D01*
X34478537Y29244022D01*
X34700000Y29224647D01*
X34921463Y29244022D01*
X35086616Y29288275D01*
X35130886Y29300137D01*
X35130888Y29300138D01*
X35136196Y29301560D01*
X35142190Y29304355D01*
X35332690Y29393186D01*
X35332695Y29393189D01*
X35337677Y29395512D01*
X35512229Y29517735D01*
X35515270Y29519864D01*
X35515273Y29519866D01*
X35519781Y29523023D01*
X35676977Y29680219D01*
X35764894Y29805777D01*
X35801331Y29857815D01*
X35801332Y29857817D01*
X35804488Y29862324D01*
X35806811Y29867306D01*
X35806814Y29867311D01*
X35855805Y29972373D01*
X35902723Y30025658D01*
X35971000Y30045119D01*
X36038960Y30024577D01*
X36084195Y29972373D01*
X36133186Y29867311D01*
X36133189Y29867306D01*
X36135512Y29862324D01*
X36138668Y29857817D01*
X36138669Y29857815D01*
X36175107Y29805777D01*
X36263023Y29680219D01*
X36420219Y29523023D01*
X36424728Y29519866D01*
X36424730Y29519864D01*
X36427771Y29517735D01*
X36428797Y29516452D01*
X36428943Y29516329D01*
X36428918Y29516300D01*
X36472099Y29462278D01*
X36481500Y29414522D01*
X36481500Y26606371D01*
X36461498Y26538250D01*
X36444595Y26517276D01*
X34722724Y24795405D01*
X34660412Y24761379D01*
X34633629Y24758500D01*
X22067070Y24758500D01*
X22048120Y24759933D01*
X22033885Y24762099D01*
X22033881Y24762099D01*
X22026651Y24763199D01*
X22019359Y24762606D01*
X22019356Y24762606D01*
X21973982Y24758915D01*
X21963767Y24758500D01*
X21955707Y24758500D01*
X21952073Y24758076D01*
X21952067Y24758076D01*
X21939042Y24756557D01*
X21927480Y24755209D01*
X21923132Y24754779D01*
X21901059Y24752984D01*
X21857662Y24749454D01*
X21857659Y24749453D01*
X21850364Y24748860D01*
X21843400Y24746604D01*
X21837461Y24745417D01*
X21831590Y24744030D01*
X21824319Y24743182D01*
X21817443Y24740686D01*
X21817434Y24740684D01*
X21755702Y24718275D01*
X21751598Y24716865D01*
X21682101Y24694352D01*
X21675846Y24690556D01*
X21670387Y24688057D01*
X21664939Y24685329D01*
X21658063Y24682833D01*
X21597010Y24642805D01*
X21593337Y24640487D01*
X21530893Y24602595D01*
X21522517Y24595198D01*
X21522493Y24595225D01*
X21519499Y24592570D01*
X21516268Y24589868D01*
X21510148Y24585856D01*
X21505116Y24580544D01*
X21456872Y24529617D01*
X21454494Y24527175D01*
X14972724Y18045405D01*
X14910412Y18011379D01*
X14883629Y18008500D01*
X10437538Y18008500D01*
X10369417Y18028502D01*
X10322924Y18082158D01*
X10318014Y18094624D01*
X10293868Y18166998D01*
X10291550Y18173946D01*
X10198478Y18324348D01*
X10073303Y18449305D01*
X10033763Y18473678D01*
X9928968Y18538275D01*
X9928966Y18538276D01*
X9922738Y18542115D01*
X9762254Y18595345D01*
X9761389Y18595632D01*
X9761387Y18595632D01*
X9754861Y18597797D01*
X9748025Y18598497D01*
X9748022Y18598498D01*
X9704969Y18602909D01*
X9650400Y18608500D01*
X8049600Y18608500D01*
X8046354Y18608163D01*
X8046350Y18608163D01*
X7950692Y18598238D01*
X7950688Y18598237D01*
X7943834Y18597526D01*
X7937298Y18595345D01*
X7937296Y18595345D01*
X7805194Y18551272D01*
X7776054Y18541550D01*
X7625652Y18448478D01*
X7500695Y18323303D01*
X7496855Y18317073D01*
X7496854Y18317072D01*
X7481514Y18292185D01*
X7407885Y18172738D01*
X7352203Y18004861D01*
X7341500Y17900400D01*
X7341500Y16599600D01*
X508500Y16599600D01*
X508500Y25231420D01*
X7518752Y25231420D01*
X7543477Y25113579D01*
X7546537Y25103383D01*
X7627263Y24898971D01*
X7631994Y24889439D01*
X7746016Y24701538D01*
X7752280Y24692948D01*
X7896327Y24526948D01*
X7903958Y24519528D01*
X8073911Y24380174D01*
X8082678Y24374150D01*
X8273682Y24265424D01*
X8283346Y24260959D01*
X8489941Y24185969D01*
X8500208Y24183198D01*
X8717655Y24143877D01*
X8725884Y24142944D01*
X8730376Y24142732D01*
X8743124Y24146475D01*
X8744329Y24147865D01*
X8746000Y24155548D01*
X8746000Y24164030D01*
X9254000Y24164030D01*
X9258310Y24149352D01*
X9270193Y24147289D01*
X9374325Y24156124D01*
X9384797Y24157914D01*
X9597535Y24213130D01*
X9607575Y24216665D01*
X9807970Y24306937D01*
X9817256Y24312106D01*
X9999575Y24434850D01*
X10007870Y24441519D01*
X10166900Y24593228D01*
X10173941Y24601186D01*
X10305141Y24777525D01*
X10310745Y24786562D01*
X10410357Y24982484D01*
X10414357Y24992335D01*
X10479534Y25202240D01*
X10481817Y25212624D01*
X10483861Y25228043D01*
X10481665Y25242207D01*
X10468478Y25246000D01*
X9272115Y25246000D01*
X9256876Y25241525D01*
X9255671Y25240135D01*
X9254000Y25232452D01*
X9254000Y24164030D01*
X8746000Y24164030D01*
X8746000Y25227885D01*
X8741525Y25243124D01*
X8740135Y25244329D01*
X8732452Y25246000D01*
X7533808Y25246000D01*
X7520277Y25242027D01*
X7518752Y25231420D01*
X508500Y25231420D01*
X508500Y27349600D01*
X7491500Y27349600D01*
X7502474Y27243834D01*
X7558450Y27076054D01*
X7651522Y26925652D01*
X7776697Y26800695D01*
X7922258Y26710970D01*
X7922780Y26710648D01*
X7970273Y26657876D01*
X7981697Y26587804D01*
X7953423Y26522680D01*
X7943636Y26512218D01*
X7833094Y26406766D01*
X7826059Y26398814D01*
X7694859Y26222475D01*
X7689255Y26213438D01*
X7589643Y26017516D01*
X7585643Y26007665D01*
X7520466Y25797760D01*
X7518183Y25787376D01*
X7516139Y25771957D01*
X7518335Y25757793D01*
X7531522Y25754000D01*
X10466192Y25754000D01*
X10479723Y25757973D01*
X10481248Y25768580D01*
X10456523Y25886421D01*
X10453463Y25896617D01*
X10372737Y26101029D01*
X10368006Y26110561D01*
X10253984Y26298462D01*
X10247720Y26307052D01*
X10103673Y26473052D01*
X10096044Y26480470D01*
X10064431Y26506391D01*
X10024436Y26565051D01*
X10022504Y26636021D01*
X10059248Y26696770D01*
X10078018Y26710970D01*
X10218120Y26797668D01*
X10224348Y26801522D01*
X10349305Y26926697D01*
X10442115Y27077262D01*
X10497797Y27245139D01*
X10508500Y27349600D01*
X10508500Y28650400D01*
X10497526Y28756166D01*
X10441550Y28923946D01*
X10348478Y29074348D01*
X10223303Y29199305D01*
X10181414Y29225126D01*
X10078968Y29288275D01*
X10078966Y29288276D01*
X10072738Y29292115D01*
X9912254Y29345345D01*
X9911389Y29345632D01*
X9911387Y29345632D01*
X9904861Y29347797D01*
X9898025Y29348497D01*
X9898022Y29348498D01*
X9854969Y29352909D01*
X9800400Y29358500D01*
X8199600Y29358500D01*
X8196354Y29358163D01*
X8196350Y29358163D01*
X8100692Y29348238D01*
X8100688Y29348237D01*
X8093834Y29347526D01*
X8087298Y29345345D01*
X8087296Y29345345D01*
X7964435Y29304355D01*
X7926054Y29291550D01*
X7775652Y29198478D01*
X7650695Y29073303D01*
X7557885Y28922738D01*
X7502203Y28754861D01*
X7491500Y28650400D01*
X7491500Y27349600D01*
X508500Y27349600D01*
X508500Y30500000D01*
X20724647Y30500000D01*
X20744022Y30278537D01*
X20801560Y30063804D01*
X20803882Y30058823D01*
X20803883Y30058822D01*
X20893186Y29867311D01*
X20893189Y29867306D01*
X20895512Y29862324D01*
X20898668Y29857817D01*
X20898669Y29857815D01*
X20935107Y29805777D01*
X21023023Y29680219D01*
X21180219Y29523023D01*
X21184727Y29519866D01*
X21184730Y29519864D01*
X21187771Y29517735D01*
X21362323Y29395512D01*
X21367305Y29393189D01*
X21367310Y29393186D01*
X21557810Y29304355D01*
X21563804Y29301560D01*
X21569112Y29300138D01*
X21569114Y29300137D01*
X21613384Y29288275D01*
X21778537Y29244022D01*
X22000000Y29224647D01*
X22221463Y29244022D01*
X22386616Y29288275D01*
X22430886Y29300137D01*
X22430888Y29300138D01*
X22436196Y29301560D01*
X22442190Y29304355D01*
X22632690Y29393186D01*
X22632695Y29393189D01*
X22637677Y29395512D01*
X22702959Y29441223D01*
X23845777Y29441223D01*
X23855074Y29429207D01*
X23898069Y29399102D01*
X23907555Y29393624D01*
X24098993Y29304355D01*
X24109285Y29300609D01*
X24313309Y29245941D01*
X24324104Y29244038D01*
X24534525Y29225628D01*
X24545475Y29225628D01*
X24755896Y29244038D01*
X24766691Y29245941D01*
X24970715Y29300609D01*
X24981007Y29304355D01*
X25172445Y29393624D01*
X25181931Y29399102D01*
X25225764Y29429793D01*
X25234139Y29440271D01*
X25227071Y29453719D01*
X24552812Y30127978D01*
X24538868Y30135592D01*
X24537035Y30135461D01*
X24530420Y30131210D01*
X23852207Y29452997D01*
X23845777Y29441223D01*
X22702959Y29441223D01*
X22812229Y29517735D01*
X22815270Y29519864D01*
X22815273Y29519866D01*
X22819781Y29523023D01*
X22976977Y29680219D01*
X23064894Y29805777D01*
X23101331Y29857815D01*
X23101332Y29857817D01*
X23104488Y29862324D01*
X23106811Y29867306D01*
X23106814Y29867311D01*
X23156081Y29972965D01*
X23202999Y30026250D01*
X23271276Y30045711D01*
X23339236Y30025169D01*
X23384471Y29972965D01*
X23433623Y29867559D01*
X23439103Y29858068D01*
X23469794Y29814235D01*
X23480271Y29805860D01*
X23493718Y29812928D01*
X24167978Y30487188D01*
X24175592Y30501132D01*
X24175461Y30502965D01*
X24171210Y30509580D01*
X23492997Y31187793D01*
X23481223Y31194223D01*
X23469207Y31184926D01*
X23439103Y31141932D01*
X23433623Y31132441D01*
X23384471Y31027035D01*
X23337553Y30973750D01*
X23269276Y30954289D01*
X23201316Y30974831D01*
X23156081Y31027035D01*
X23106814Y31132689D01*
X23106811Y31132694D01*
X23104488Y31137676D01*
X23097897Y31147089D01*
X22980136Y31315270D01*
X22980134Y31315273D01*
X22976977Y31319781D01*
X22819781Y31476977D01*
X22815273Y31480134D01*
X22815270Y31480136D01*
X22739505Y31533187D01*
X22701599Y31559729D01*
X23845860Y31559729D01*
X23852928Y31546282D01*
X24527188Y30872022D01*
X24541132Y30864408D01*
X24542965Y30864539D01*
X24549580Y30868790D01*
X25227793Y31547003D01*
X25234223Y31558777D01*
X25224926Y31570793D01*
X25181931Y31600898D01*
X25172445Y31606376D01*
X24981007Y31695645D01*
X24970715Y31699391D01*
X24766691Y31754059D01*
X24755896Y31755962D01*
X24545475Y31774372D01*
X24534525Y31774372D01*
X24324104Y31755962D01*
X24313309Y31754059D01*
X24109285Y31699391D01*
X24098993Y31695645D01*
X23907559Y31606377D01*
X23898068Y31600897D01*
X23854235Y31570206D01*
X23845860Y31559729D01*
X22701599Y31559729D01*
X22637677Y31604488D01*
X22632695Y31606811D01*
X22632690Y31606814D01*
X22441178Y31696117D01*
X22441177Y31696118D01*
X22436196Y31698440D01*
X22430888Y31699862D01*
X22430886Y31699863D01*
X22365051Y31717503D01*
X22221463Y31755978D01*
X22000000Y31775353D01*
X21778537Y31755978D01*
X21634949Y31717503D01*
X21569114Y31699863D01*
X21569112Y31699862D01*
X21563804Y31698440D01*
X21558823Y31696118D01*
X21558822Y31696117D01*
X21367311Y31606814D01*
X21367306Y31606811D01*
X21362324Y31604488D01*
X21357817Y31601332D01*
X21357815Y31601331D01*
X21184730Y31480136D01*
X21184727Y31480134D01*
X21180219Y31476977D01*
X21023023Y31319781D01*
X21019866Y31315273D01*
X21019864Y31315270D01*
X20902103Y31147089D01*
X20895512Y31137676D01*
X20893189Y31132694D01*
X20893186Y31132689D01*
X20809997Y30954289D01*
X20801560Y30936196D01*
X20744022Y30721463D01*
X20724647Y30500000D01*
X508500Y30500000D01*
X508500Y39874000D01*
X528502Y39942121D01*
X582158Y39988614D01*
X634500Y40000000D01*
X7000000Y40000000D01*
X7000000Y46365500D01*
X7020002Y46433621D01*
X7073658Y46480114D01*
X7126000Y46491500D01*
X64874000Y46491500D01*
X64942121Y46471498D01*
G37*
%TD.AperFunction*%
%TD*%
M02*
